<?xml version="1.0" encoding="UTF-8" standalone="no"?>
<!DOCTYPE svg PUBLIC "-//W3C//DTD SVG 1.1//EN"
 "http://www.w3.org/Graphics/SVG/1.1/DTD/svg11.dtd">
<!-- Generated by graphviz version 2.36.0 (20140111.2315)
 -->
<!-- Title: ItemBoxWorld Pages: 1 -->
<svg width="488pt" height="234pt"
 viewBox="0.00 0.00 488.00 234.00" xmlns="http://www.w3.org/2000/svg" xmlns:xlink="http://www.w3.org/1999/xlink">
<g id="graph0" class="graph" transform="scale(1 1) rotate(0) translate(4 230)">
<title>ItemBoxWorld</title>
<polygon fill="white" stroke="none" points="-4,4 -4,-230 484,-230 484,4 -4,4"/>
<!-- Node1 -->
<g id="node1" class="node"><title>Node1</title>
<polygon fill="#bfbfbf" stroke="black" points="172,-0.5 172,-19.5 254,-19.5 254,-0.5 172,-0.5"/>
<text text-anchor="middle" x="213" y="-7.5" font-family="Helvetica,sans-Serif" font-size="10.00">ItemBoxWorld</text>
</g>
<!-- Node2 -->
<g id="node2" class="node"><title>Node2</title>
<g id="a_node2"><a xlink:href="../../db/d97/class_box_world.html" target="_top" xlink:title="BoxWorld">
<polygon fill="white" stroke="black" points="183,-69.5 183,-88.5 243,-88.5 243,-69.5 183,-69.5"/>
<text text-anchor="middle" x="213" y="-76.5" font-family="Helvetica,sans-Serif" font-size="10.00">BoxWorld</text>
</a>
</g>
</g>
<!-- Node2&#45;&gt;Node1 -->
<g id="edge1" class="edge"><title>Node2&#45;&gt;Node1</title>
<path fill="none" stroke="midnightblue" d="M213,-59.0183C213,-46.034 213,-29.4419 213,-19.5494"/>
<polygon fill="midnightblue" stroke="midnightblue" points="209.5,-59.2409 213,-69.2409 216.5,-59.241 209.5,-59.2409"/>
</g>
<!-- Node3 -->
<g id="node3" class="node"><title>Node3</title>
<polygon fill="white" stroke="#bfbfbf" points="399,-148.5 399,-167.5 455,-167.5 455,-148.5 399,-148.5"/>
<text text-anchor="middle" x="427" y="-155.5" font-family="Helvetica,sans-Serif" font-size="10.00">Timeline</text>
</g>
<!-- Node3&#45;&gt;Node2 -->
<g id="edge2" class="edge"><title>Node3&#45;&gt;Node2</title>
<path fill="none" stroke="#9a32cd" stroke-dasharray="5,2" d="M418.668,-139.3C412.58,-128.422 403.251,-115.227 391,-108 337.346,-76.3489 313.174,-101.758 252,-90 249.117,-89.4459 246.13,-88.8044 243.151,-88.1192"/>
<polygon fill="#9a32cd" stroke="#9a32cd" points="415.658,-141.102 423.338,-148.401 421.886,-137.906 415.658,-141.102"/>
<text text-anchor="middle" x="446.5" y="-116.5" font-family="Helvetica,sans-Serif" font-size="10.00"> myAnimation</text>
</g>
<!-- Node4 -->
<g id="node4" class="node"><title>Node4</title>
<polygon fill="white" stroke="#bfbfbf" points="120.5,-148.5 120.5,-167.5 165.5,-167.5 165.5,-148.5 120.5,-148.5"/>
<text text-anchor="middle" x="143" y="-155.5" font-family="Helvetica,sans-Serif" font-size="10.00">Stage</text>
</g>
<!-- Node4&#45;&gt;Node2 -->
<g id="edge3" class="edge"><title>Node4&#45;&gt;Node2</title>
<path fill="none" stroke="#9a32cd" stroke-dasharray="5,2" d="M146.842,-138.69C149.681,-128.713 154.407,-116.67 162,-108 169.454,-99.4897 180.147,-93.0665 189.819,-88.5332"/>
<polygon fill="#9a32cd" stroke="#9a32cd" points="143.431,-137.903 144.455,-148.448 150.231,-139.566 143.431,-137.903"/>
<text text-anchor="middle" x="185.5" y="-116.5" font-family="Helvetica,sans-Serif" font-size="10.00"> myStage</text>
</g>
<!-- Node5 -->
<g id="node5" class="node"><title>Node5</title>
<polygon fill="white" stroke="#bfbfbf" points="0,-148.5 0,-167.5 68,-167.5 68,-148.5 0,-148.5"/>
<text text-anchor="middle" x="34" y="-155.5" font-family="Helvetica,sans-Serif" font-size="10.00">ImageView</text>
</g>
<!-- Node5&#45;&gt;Node1 -->
<g id="edge9" class="edge"><title>Node5&#45;&gt;Node1</title>
<path fill="none" stroke="#9a32cd" stroke-dasharray="5,2" d="M36.8718,-138.148C39.1279,-128.34 43.0945,-116.631 50,-108 86.8258,-61.9738 151.845,-32.8884 187.626,-19.5557"/>
<polygon fill="#9a32cd" stroke="#9a32cd" points="33.3999,-137.672 34.986,-148.148 40.2786,-138.969 33.3999,-137.672"/>
<text text-anchor="middle" x="115" y="-82" font-family="Helvetica,sans-Serif" font-size="10.00"> myItem1</text>
<text text-anchor="middle" x="115" y="-71" font-family="Helvetica,sans-Serif" font-size="10.00">myItem2</text>
</g>
<!-- Node5&#45;&gt;Node2 -->
<g id="edge4" class="edge"><title>Node5&#45;&gt;Node2</title>
<path fill="none" stroke="#9a32cd" stroke-dasharray="5,2" d="M44.958,-139.555C52.6267,-128.806 63.8333,-115.658 77,-108 109.924,-88.851 154.013,-82.6733 182.943,-80.7497"/>
<polygon fill="#9a32cd" stroke="#9a32cd" points="41.8327,-137.931 39.1692,-148.186 47.6462,-141.831 41.8327,-137.931"/>
<text text-anchor="middle" x="112" y="-122" font-family="Helvetica,sans-Serif" font-size="10.00"> obstacleArray</text>
<text text-anchor="middle" x="112" y="-111" font-family="Helvetica,sans-Serif" font-size="10.00">myExit</text>
</g>
<!-- Node6 -->
<g id="node6" class="node"><title>Node6</title>
<polygon fill="white" stroke="#bfbfbf" points="188.5,-148.5 188.5,-167.5 235.5,-167.5 235.5,-148.5 188.5,-148.5"/>
<text text-anchor="middle" x="212" y="-155.5" font-family="Helvetica,sans-Serif" font-size="10.00">Scene</text>
</g>
<!-- Node6&#45;&gt;Node2 -->
<g id="edge5" class="edge"><title>Node6&#45;&gt;Node2</title>
<path fill="none" stroke="#9a32cd" stroke-dasharray="5,2" d="M212.243,-138.315C212.447,-122.592 212.73,-100.808 212.886,-88.8094"/>
<polygon fill="#9a32cd" stroke="#9a32cd" points="208.741,-138.421 212.111,-148.465 215.74,-138.512 208.741,-138.421"/>
<text text-anchor="middle" x="237.5" y="-116.5" font-family="Helvetica,sans-Serif" font-size="10.00"> myScene</text>
</g>
<!-- Node7 -->
<g id="node7" class="node"><title>Node7</title>
<g id="a_node7"><a xlink:href="../../da/de2/class_sticky_box.html" target="_top" xlink:title="StickyBox">
<polygon fill="white" stroke="black" points="253.5,-148.5 253.5,-167.5 316.5,-167.5 316.5,-148.5 253.5,-148.5"/>
<text text-anchor="middle" x="285" y="-155.5" font-family="Helvetica,sans-Serif" font-size="10.00">StickyBox</text>
</a>
</g>
</g>
<!-- Node7&#45;&gt;Node2 -->
<g id="edge6" class="edge"><title>Node7&#45;&gt;Node2</title>
<path fill="none" stroke="#9a32cd" stroke-dasharray="5,2" d="M279.905,-138.705C276.413,-128.733 270.952,-116.689 263,-108 255.343,-99.6332 244.59,-93.1656 235.017,-88.5649"/>
<polygon fill="#9a32cd" stroke="#9a32cd" points="276.628,-139.952 282.946,-148.457 283.31,-137.868 276.628,-139.952"/>
<text text-anchor="middle" x="301" y="-116.5" font-family="Helvetica,sans-Serif" font-size="10.00"> myPlayer</text>
</g>
<!-- Node8 -->
<g id="node8" class="node"><title>Node8</title>
<polygon fill="white" stroke="#bfbfbf" points="253.5,-206.5 253.5,-225.5 316.5,-225.5 316.5,-206.5 253.5,-206.5"/>
<text text-anchor="middle" x="285" y="-213.5" font-family="Helvetica,sans-Serif" font-size="10.00">Rectangle</text>
</g>
<!-- Node8&#45;&gt;Node7 -->
<g id="edge7" class="edge"><title>Node8&#45;&gt;Node7</title>
<path fill="none" stroke="midnightblue" d="M285,-195.953C285,-186.287 285,-175.031 285,-167.505"/>
<polygon fill="midnightblue" stroke="midnightblue" points="281.5,-196.25 285,-206.25 288.5,-196.25 281.5,-196.25"/>
</g>
<!-- Node9 -->
<g id="node9" class="node"><title>Node9</title>
<polygon fill="white" stroke="#bfbfbf" points="335,-148.5 335,-167.5 381,-167.5 381,-148.5 335,-148.5"/>
<text text-anchor="middle" x="358" y="-155.5" font-family="Helvetica,sans-Serif" font-size="10.00">Group</text>
</g>
<!-- Node9&#45;&gt;Node2 -->
<g id="edge8" class="edge"><title>Node9&#45;&gt;Node2</title>
<path fill="none" stroke="#9a32cd" stroke-dasharray="5,2" d="M351.424,-138.72C346.733,-128.216 339.401,-115.632 329,-108 300.665,-87.2089 286.135,-98.365 252,-90 249.149,-89.3012 246.183,-88.5626 243.218,-87.816"/>
<polygon fill="#9a32cd" stroke="#9a32cd" points="348.281,-140.288 355.248,-148.27 354.78,-137.686 348.281,-140.288"/>
<text text-anchor="middle" x="367" y="-116.5" font-family="Helvetica,sans-Serif" font-size="10.00"> myRoot</text>
</g>
<!-- Node10 -->
<g id="node10" class="node"><title>Node10</title>
<polygon fill="white" stroke="#bfbfbf" points="261.5,-69.5 261.5,-88.5 296.5,-88.5 296.5,-69.5 261.5,-69.5"/>
<text text-anchor="middle" x="279" y="-76.5" font-family="Helvetica,sans-Serif" font-size="10.00">Text</text>
</g>
<!-- Node10&#45;&gt;Node1 -->
<g id="edge10" class="edge"><title>Node10&#45;&gt;Node1</title>
<path fill="none" stroke="#9a32cd" stroke-dasharray="5,2" d="M263.327,-62.0899C250.196,-48.7593 231.954,-30.2413 221.422,-19.5494"/>
<polygon fill="#9a32cd" stroke="#9a32cd" points="260.86,-64.5731 270.372,-69.2409 265.847,-59.6607 260.86,-64.5731"/>
<text text-anchor="middle" x="278" y="-41.5" font-family="Helvetica,sans-Serif" font-size="10.00"> myWarning</text>
</g>
</g>
</svg>
