<?xml version="1.0" encoding="UTF-8" standalone="no"?>
<!DOCTYPE svg PUBLIC "-//W3C//DTD SVG 1.1//EN"
 "http://www.w3.org/Graphics/SVG/1.1/DTD/svg11.dtd">
<!-- Generated by graphviz version 2.36.0 (20140111.2315)
 -->
<!-- Title: ItemBoxWorld Pages: 1 -->
<svg width="639pt" height="176pt"
 viewBox="0.00 0.00 639.00 176.00" xmlns="http://www.w3.org/2000/svg" xmlns:xlink="http://www.w3.org/1999/xlink">
<g id="graph0" class="graph" transform="scale(1 1) rotate(0) translate(4 172)">
<title>ItemBoxWorld</title>
<polygon fill="white" stroke="none" points="-4,4 -4,-172 635,-172 635,4 -4,4"/>
<!-- Node1 -->
<g id="node1" class="node"><title>Node1</title>
<polygon fill="#bfbfbf" stroke="black" points="206,-69.5 206,-88.5 288,-88.5 288,-69.5 206,-69.5"/>
<text text-anchor="middle" x="247" y="-76.5" font-family="Helvetica,sans-Serif" font-size="10.00">ItemBoxWorld</text>
</g>
<!-- Node2 -->
<g id="node2" class="node"><title>Node2</title>
<g id="a_node2"><a xlink:href="../../db/d97/class_box_world.html" target="_top" xlink:title="BoxWorld">
<polygon fill="white" stroke="black" points="310,-0.5 310,-19.5 370,-19.5 370,-0.5 310,-0.5"/>
<text text-anchor="middle" x="340" y="-7.5" font-family="Helvetica,sans-Serif" font-size="10.00">BoxWorld</text>
</a>
</g>
</g>
<!-- Node1&#45;&gt;Node2 -->
<g id="edge5" class="edge"><title>Node1&#45;&gt;Node2</title>
<path fill="none" stroke="#9a32cd" stroke-dasharray="5,2" d="M240.629,-59.533C239.28,-52.1769 239.423,-44.0419 244,-38 259.055,-18.1273 287.548,-12.0684 309.598,-10.5707"/>
<polygon fill="#9a32cd" stroke="#9a32cd" points="237.317,-60.6939 243.328,-69.4187 244.07,-58.8498 237.317,-60.6939"/>
<text text-anchor="middle" x="277" y="-41.5" font-family="Helvetica,sans-Serif" font-size="10.00"> myNextLevel</text>
</g>
<!-- Node2&#45;&gt;Node1 -->
<g id="edge1" class="edge"><title>Node2&#45;&gt;Node1</title>
<path fill="none" stroke="midnightblue" d="M331.178,-28.7585C326.823,-36.1052 320.994,-44.2357 314,-50 303.493,-58.6596 289.927,-64.996 277.753,-69.4283"/>
<polygon fill="midnightblue" stroke="midnightblue" points="334.495,-29.983 336.173,-19.5219 328.337,-26.6534 334.495,-29.983"/>
</g>
<!-- Node3 -->
<g id="node3" class="node"><title>Node3</title>
<polygon fill="white" stroke="#bfbfbf" points="0,-69.5 0,-88.5 56,-88.5 56,-69.5 0,-69.5"/>
<text text-anchor="middle" x="28" y="-76.5" font-family="Helvetica,sans-Serif" font-size="10.00">Timeline</text>
</g>
<!-- Node3&#45;&gt;Node2 -->
<g id="edge2" class="edge"><title>Node3&#45;&gt;Node2</title>
<path fill="none" stroke="#9a32cd" stroke-dasharray="5,2" d="M23.5243,-59.5415C22.8213,-51.9537 23.6959,-43.6414 29,-38 48.0029,-17.7889 235.551,-12.6361 309.882,-11.383"/>
<polygon fill="#9a32cd" stroke="#9a32cd" points="20.085,-60.1921 25.271,-69.4309 26.9783,-58.9745 20.085,-60.1921"/>
<text text-anchor="middle" x="62.5" y="-41.5" font-family="Helvetica,sans-Serif" font-size="10.00"> myAnimation</text>
</g>
<!-- Node4 -->
<g id="node4" class="node"><title>Node4</title>
<polygon fill="white" stroke="#bfbfbf" points="103.5,-148.5 103.5,-167.5 148.5,-167.5 148.5,-148.5 103.5,-148.5"/>
<text text-anchor="middle" x="126" y="-155.5" font-family="Helvetica,sans-Serif" font-size="10.00">Stage</text>
</g>
<!-- Node4&#45;&gt;Node1 -->
<g id="edge10" class="edge"><title>Node4&#45;&gt;Node1</title>
<path fill="none" stroke="#9a32cd" stroke-dasharray="5,2" d="M134.119,-139.329C139.749,-128.865 148.177,-116.11 159,-108 172.6,-97.8091 190.025,-91.257 205.775,-87.0775"/>
<polygon fill="#9a32cd" stroke="#9a32cd" points="130.911,-137.92 129.593,-148.432 137.179,-141.037 130.911,-137.92"/>
<text text-anchor="middle" x="182.5" y="-116.5" font-family="Helvetica,sans-Serif" font-size="10.00"> myStage</text>
</g>
<!-- Node4&#45;&gt;Node2 -->
<g id="edge3" class="edge"><title>Node4&#45;&gt;Node2</title>
<path fill="none" stroke="#9a32cd" stroke-dasharray="5,2" d="M125.867,-138.189C126.77,-118.09 131.363,-86.6176 150,-68 193.368,-24.6764 268.285,-14.0425 309.911,-11.5844"/>
<polygon fill="#9a32cd" stroke="#9a32cd" points="122.366,-138.215 125.68,-148.278 129.364,-138.345 122.366,-138.215"/>
<text text-anchor="middle" x="173.5" y="-76.5" font-family="Helvetica,sans-Serif" font-size="10.00"> myStage</text>
</g>
<!-- Node5 -->
<g id="node5" class="node"><title>Node5</title>
<polygon fill="white" stroke="#bfbfbf" points="288,-148.5 288,-167.5 356,-167.5 356,-148.5 288,-148.5"/>
<text text-anchor="middle" x="322" y="-155.5" font-family="Helvetica,sans-Serif" font-size="10.00">ImageView</text>
</g>
<!-- Node5&#45;&gt;Node1 -->
<g id="edge11" class="edge"><title>Node5&#45;&gt;Node1</title>
<path fill="none" stroke="#9a32cd" stroke-dasharray="5,2" d="M304.798,-141.395C300.866,-137.715 296.743,-133.766 293,-130 279.03,-115.946 263.585,-98.8049 254.617,-88.6808"/>
<polygon fill="#9a32cd" stroke="#9a32cd" points="302.698,-144.219 312.422,-148.426 307.443,-139.073 302.698,-144.219"/>
<text text-anchor="middle" x="316" y="-122" font-family="Helvetica,sans-Serif" font-size="10.00"> myItem1</text>
<text text-anchor="middle" x="316" y="-111" font-family="Helvetica,sans-Serif" font-size="10.00">myItem2</text>
</g>
<!-- Node5&#45;&gt;Node2 -->
<g id="edge4" class="edge"><title>Node5&#45;&gt;Node2</title>
<path fill="none" stroke="#9a32cd" stroke-dasharray="5,2" d="M334.827,-139.662C336.539,-136.579 338.034,-133.296 339,-130 350.682,-90.1495 344.636,-39.5168 341.499,-19.5999"/>
<polygon fill="#9a32cd" stroke="#9a32cd" points="331.846,-137.826 329.357,-148.125 337.725,-141.626 331.846,-137.826"/>
<text text-anchor="middle" x="379.5" y="-82" font-family="Helvetica,sans-Serif" font-size="10.00"> myExit</text>
<text text-anchor="middle" x="379.5" y="-71" font-family="Helvetica,sans-Serif" font-size="10.00">obstacleArray</text>
</g>
<!-- Node6 -->
<g id="node6" class="node"><title>Node6</title>
<polygon fill="white" stroke="#bfbfbf" points="438.5,-69.5 438.5,-88.5 485.5,-88.5 485.5,-69.5 438.5,-69.5"/>
<text text-anchor="middle" x="462" y="-76.5" font-family="Helvetica,sans-Serif" font-size="10.00">Scene</text>
</g>
<!-- Node6&#45;&gt;Node2 -->
<g id="edge6" class="edge"><title>Node6&#45;&gt;Node2</title>
<path fill="none" stroke="#9a32cd" stroke-dasharray="5,2" d="M437.019,-64.2812C412.582,-50.8607 376.128,-30.8408 355.568,-19.5494"/>
<polygon fill="#9a32cd" stroke="#9a32cd" points="435.601,-67.495 446.051,-69.2409 438.97,-61.3594 435.601,-67.495"/>
<text text-anchor="middle" x="433.5" y="-41.5" font-family="Helvetica,sans-Serif" font-size="10.00"> myScene</text>
</g>
<!-- Node7 -->
<g id="node7" class="node"><title>Node7</title>
<g id="a_node7"><a xlink:href="../../da/de2/class_sticky_box.html" target="_top" xlink:title="StickyBox">
<polygon fill="white" stroke="black" points="503.5,-69.5 503.5,-88.5 566.5,-88.5 566.5,-69.5 503.5,-69.5"/>
<text text-anchor="middle" x="535" y="-76.5" font-family="Helvetica,sans-Serif" font-size="10.00">StickyBox</text>
</a>
</g>
</g>
<!-- Node7&#45;&gt;Node2 -->
<g id="edge7" class="edge"><title>Node7&#45;&gt;Node2</title>
<path fill="none" stroke="#9a32cd" stroke-dasharray="5,2" d="M513.583,-64.1495C499.43,-55.5378 480.199,-44.8403 462,-38 431.642,-26.5895 395.135,-19.2981 370.014,-15.2062"/>
<polygon fill="#9a32cd" stroke="#9a32cd" points="511.749,-67.1308 522.088,-69.4459 515.45,-61.1887 511.749,-67.1308"/>
<text text-anchor="middle" x="511" y="-41.5" font-family="Helvetica,sans-Serif" font-size="10.00"> myPlayer</text>
</g>
<!-- Node8 -->
<g id="node8" class="node"><title>Node8</title>
<polygon fill="white" stroke="#bfbfbf" points="503.5,-148.5 503.5,-167.5 566.5,-167.5 566.5,-148.5 503.5,-148.5"/>
<text text-anchor="middle" x="535" y="-155.5" font-family="Helvetica,sans-Serif" font-size="10.00">Rectangle</text>
</g>
<!-- Node8&#45;&gt;Node7 -->
<g id="edge8" class="edge"><title>Node8&#45;&gt;Node7</title>
<path fill="none" stroke="midnightblue" d="M535,-138.315C535,-122.592 535,-100.808 535,-88.8094"/>
<polygon fill="midnightblue" stroke="midnightblue" points="531.5,-138.465 535,-148.465 538.5,-138.465 531.5,-138.465"/>
</g>
<!-- Node9 -->
<g id="node9" class="node"><title>Node9</title>
<polygon fill="white" stroke="#bfbfbf" points="585,-69.5 585,-88.5 631,-88.5 631,-69.5 585,-69.5"/>
<text text-anchor="middle" x="608" y="-76.5" font-family="Helvetica,sans-Serif" font-size="10.00">Group</text>
</g>
<!-- Node9&#45;&gt;Node2 -->
<g id="edge9" class="edge"><title>Node9&#45;&gt;Node2</title>
<path fill="none" stroke="#9a32cd" stroke-dasharray="5,2" d="M588.142,-63.6754C574.871,-54.8315 556.667,-44.0536 539,-38 481.445,-18.2789 409.892,-12.8981 370.165,-11.4708"/>
<polygon fill="#9a32cd" stroke="#9a32cd" points="586.252,-66.6232 596.474,-69.4072 590.219,-60.856 586.252,-66.6232"/>
<text text-anchor="middle" x="584" y="-41.5" font-family="Helvetica,sans-Serif" font-size="10.00"> myRoot</text>
</g>
<!-- Node10 -->
<g id="node10" class="node"><title>Node10</title>
<polygon fill="white" stroke="#bfbfbf" points="195.5,-148.5 195.5,-167.5 230.5,-167.5 230.5,-148.5 195.5,-148.5"/>
<text text-anchor="middle" x="213" y="-155.5" font-family="Helvetica,sans-Serif" font-size="10.00">Text</text>
</g>
<!-- Node10&#45;&gt;Node1 -->
<g id="edge12" class="edge"><title>Node10&#45;&gt;Node1</title>
<path fill="none" stroke="#9a32cd" stroke-dasharray="5,2" d="M209.848,-138.191C209.116,-128.706 209.589,-117.279 214,-108 217.807,-99.9928 225.115,-93.4183 231.889,-88.6569"/>
<polygon fill="#9a32cd" stroke="#9a32cd" points="206.385,-138.698 211.097,-148.187 213.331,-137.83 206.385,-138.698"/>
<text text-anchor="middle" x="242" y="-116.5" font-family="Helvetica,sans-Serif" font-size="10.00"> myWarning</text>
</g>
</g>
</svg>
