<?xml version="1.0" encoding="UTF-8" standalone="no"?>
<!DOCTYPE svg PUBLIC "-//W3C//DTD SVG 1.1//EN"
 "http://www.w3.org/Graphics/SVG/1.1/DTD/svg11.dtd">
<!-- Generated by graphviz version 2.36.0 (20140111.2315)
 -->
<!-- Title: Main Pages: 1 -->
<svg width="600pt" height="302pt"
 viewBox="0.00 0.00 600.02 302.00" xmlns="http://www.w3.org/2000/svg" xmlns:xlink="http://www.w3.org/1999/xlink">
<g id="graph0" class="graph" transform="scale(1 1) rotate(0) translate(4 298)">
<title>Main</title>
<polygon fill="white" stroke="none" points="-4,4 -4,-298 596.024,-298 596.024,4 -4,4"/>
<!-- Node1 -->
<g id="node1" class="node"><title>Node1</title>
<polygon fill="#bfbfbf" stroke="black" points="106.524,-0.5 106.524,-19.5 145.524,-19.5 145.524,-0.5 106.524,-0.5"/>
<text text-anchor="middle" x="126.024" y="-7.5" font-family="Helvetica,sans-Serif" font-size="10.00">Main</text>
</g>
<!-- Node2 -->
<g id="node2" class="node"><title>Node2</title>
<polygon fill="white" stroke="#bfbfbf" points="31.5236,-68.5 31.5236,-87.5 100.524,-87.5 100.524,-68.5 31.5236,-68.5"/>
<text text-anchor="middle" x="66.0236" y="-75.5" font-family="Helvetica,sans-Serif" font-size="10.00">Application</text>
</g>
<!-- Node2&#45;&gt;Node1 -->
<g id="edge1" class="edge"><title>Node2&#45;&gt;Node1</title>
<path fill="none" stroke="midnightblue" d="M80.8599,-60.68C92.5901,-47.7768 108.517,-30.2575 117.986,-19.8411"/>
<polygon fill="midnightblue" stroke="midnightblue" points="78.0045,-58.6179 73.8675,-68.3717 83.1841,-63.3266 78.0045,-58.6179"/>
</g>
<!-- Node3 -->
<g id="node3" class="node"><title>Node3</title>
<g id="a_node3"><a xlink:href="../../d2/db8/class_menu.html" target="_top" xlink:title="Menu">
<polygon fill="white" stroke="black" points="395.524,-68.5 395.524,-87.5 438.524,-87.5 438.524,-68.5 395.524,-68.5"/>
<text text-anchor="middle" x="417.024" y="-75.5" font-family="Helvetica,sans-Serif" font-size="10.00">Menu</text>
</a>
</g>
</g>
<!-- Node3&#45;&gt;Node1 -->
<g id="edge2" class="edge"><title>Node3&#45;&gt;Node1</title>
<path fill="none" stroke="#9a32cd" stroke-dasharray="5,2" d="M385.043,-69.7467C324.61,-56.0402 195.271,-26.7057 145.814,-15.4886"/>
<polygon fill="#9a32cd" stroke="#9a32cd" points="384.625,-73.2406 395.151,-72.0393 386.173,-66.414 384.625,-73.2406"/>
<text text-anchor="middle" x="320.524" y="-41.5" font-family="Helvetica,sans-Serif" font-size="10.00"> myMenu</text>
</g>
<!-- Node4 -->
<g id="node4" class="node"><title>Node4</title>
<g id="a_node4"><a xlink:href="../../db/d97/class_box_world.html" target="_top" xlink:title="BoxWorld">
<polygon fill="white" stroke="black" points="233.024,-137.5 233.024,-156.5 293.024,-156.5 293.024,-137.5 233.024,-137.5"/>
<text text-anchor="middle" x="263.024" y="-144.5" font-family="Helvetica,sans-Serif" font-size="10.00">BoxWorld</text>
</a>
</g>
</g>
<!-- Node4&#45;&gt;Node3 -->
<g id="edge3" class="edge"><title>Node4&#45;&gt;Node3</title>
<path fill="none" stroke="#9a32cd" stroke-dasharray="5,2" d="M292.194,-133.309C322.974,-119.917 370.64,-99.18 397.282,-87.5888"/>
<polygon fill="#9a32cd" stroke="#9a32cd" points="290.615,-130.179 282.841,-137.378 293.407,-136.598 290.615,-130.179"/>
<text text-anchor="middle" x="377.024" y="-109.5" font-family="Helvetica,sans-Serif" font-size="10.00"> myGame</text>
</g>
<!-- Node8 -->
<g id="node8" class="node"><title>Node8</title>
<g id="a_node8"><a xlink:href="../../d6/d4f/class_item_box_world.html" target="_top" xlink:title="ItemBoxWorld">
<polygon fill="white" stroke="black" points="119.024,-68.5 119.024,-87.5 201.024,-87.5 201.024,-68.5 119.024,-68.5"/>
<text text-anchor="middle" x="160.024" y="-75.5" font-family="Helvetica,sans-Serif" font-size="10.00">ItemBoxWorld</text>
</a>
</g>
</g>
<!-- Node4&#45;&gt;Node8 -->
<g id="edge8" class="edge"><title>Node4&#45;&gt;Node8</title>
<path fill="none" stroke="midnightblue" d="M259.837,-127.564C257.667,-119.98 254.045,-111.665 248.024,-106 235.336,-94.0647 217.499,-87.3982 201.198,-83.6776"/>
<polygon fill="midnightblue" stroke="midnightblue" points="256.447,-128.444 262.037,-137.444 263.28,-126.922 256.447,-128.444"/>
</g>
<!-- Node5 -->
<g id="node5" class="node"><title>Node5</title>
<polygon fill="white" stroke="#bfbfbf" points="375.024,-216.5 375.024,-235.5 431.024,-235.5 431.024,-216.5 375.024,-216.5"/>
<text text-anchor="middle" x="403.024" y="-223.5" font-family="Helvetica,sans-Serif" font-size="10.00">Timeline</text>
</g>
<!-- Node5&#45;&gt;Node4 -->
<g id="edge4" class="edge"><title>Node5&#45;&gt;Node4</title>
<path fill="none" stroke="#9a32cd" stroke-dasharray="5,2" d="M394.68,-207.135C388.888,-196.599 380.205,-183.835 369.024,-176 346.577,-160.271 315.844,-153.378 293.249,-150.357"/>
<polygon fill="#9a32cd" stroke="#9a32cd" points="391.692,-208.983 399.335,-216.321 397.937,-205.819 391.692,-208.983"/>
<text text-anchor="middle" x="421.524" y="-184.5" font-family="Helvetica,sans-Serif" font-size="10.00"> myAnimation</text>
</g>
<!-- Node6 -->
<g id="node6" class="node"><title>Node6</title>
<polygon fill="white" stroke="#bfbfbf" points="24.5236,-216.5 24.5236,-235.5 69.5236,-235.5 69.5236,-216.5 24.5236,-216.5"/>
<text text-anchor="middle" x="47.0236" y="-223.5" font-family="Helvetica,sans-Serif" font-size="10.00">Stage</text>
</g>
<!-- Node6&#45;&gt;Node4 -->
<g id="edge5" class="edge"><title>Node6&#45;&gt;Node4</title>
<path fill="none" stroke="#9a32cd" stroke-dasharray="5,2" d="M65.3091,-209.933C79.624,-198.9 100.486,-184.437 121.024,-176 140.838,-167.86 197.247,-158.143 232.716,-152.56"/>
<polygon fill="#9a32cd" stroke="#9a32cd" points="62.9689,-207.321 57.3036,-216.274 67.3155,-212.808 62.9689,-207.321"/>
<text text-anchor="middle" x="144.524" y="-184.5" font-family="Helvetica,sans-Serif" font-size="10.00"> myStage</text>
</g>
<!-- Node6&#45;&gt;Node8 -->
<g id="edge9" class="edge"><title>Node6&#45;&gt;Node8</title>
<path fill="none" stroke="#9a32cd" stroke-dasharray="5,2" d="M29.7285,-208.845C12.3326,-190.568 -9.93209,-160.199 5.02356,-136 17.5723,-115.696 79.3641,-97.6914 121.036,-87.5842"/>
<polygon fill="#9a32cd" stroke="#9a32cd" points="27.6759,-211.741 37.2274,-216.326 32.6198,-206.785 27.6759,-211.741"/>
<text text-anchor="middle" x="28.5236" y="-144.5" font-family="Helvetica,sans-Serif" font-size="10.00"> myStage</text>
</g>
<!-- Node7 -->
<g id="node7" class="node"><title>Node7</title>
<polygon fill="white" stroke="#bfbfbf" points="122.024,-216.5 122.024,-235.5 190.024,-235.5 190.024,-216.5 122.024,-216.5"/>
<text text-anchor="middle" x="156.024" y="-223.5" font-family="Helvetica,sans-Serif" font-size="10.00">ImageView</text>
</g>
<!-- Node7&#45;&gt;Node4 -->
<g id="edge6" class="edge"><title>Node7&#45;&gt;Node4</title>
<path fill="none" stroke="#9a32cd" stroke-dasharray="5,2" d="M165.267,-207.217C171.388,-196.912 180.265,-184.362 191.024,-176 203.307,-166.452 219.242,-159.808 232.997,-155.397"/>
<polygon fill="#9a32cd" stroke="#9a32cd" points="162.073,-205.759 160.27,-216.199 168.19,-209.162 162.073,-205.759"/>
<text text-anchor="middle" x="224.524" y="-190" font-family="Helvetica,sans-Serif" font-size="10.00"> myExit</text>
<text text-anchor="middle" x="224.524" y="-179" font-family="Helvetica,sans-Serif" font-size="10.00">obstacleArray</text>
</g>
<!-- Node7&#45;&gt;Node8 -->
<g id="edge10" class="edge"><title>Node7&#45;&gt;Node8</title>
<path fill="none" stroke="#9a32cd" stroke-dasharray="5,2" d="M156.541,-206.121C157.413,-174.272 159.145,-111.068 159.782,-87.8348"/>
<polygon fill="#9a32cd" stroke="#9a32cd" points="153.037,-206.212 156.262,-216.304 160.034,-206.404 153.037,-206.212"/>
<text text-anchor="middle" x="182.024" y="-150" font-family="Helvetica,sans-Serif" font-size="10.00"> myItem1</text>
<text text-anchor="middle" x="182.024" y="-139" font-family="Helvetica,sans-Serif" font-size="10.00">myItem2</text>
</g>
<!-- Node8&#45;&gt;Node4 -->
<g id="edge7" class="edge"><title>Node8&#45;&gt;Node4</title>
<path fill="none" stroke="#9a32cd" stroke-dasharray="5,2" d="M166.787,-96.9689C170.346,-104.354 175.374,-112.455 182.024,-118 196.423,-130.006 216.27,-136.976 232.714,-140.96"/>
<polygon fill="#9a32cd" stroke="#9a32cd" points="169.961,-95.4881 162.831,-87.6511 163.518,-98.2237 169.961,-95.4881"/>
<text text-anchor="middle" x="215.024" y="-109.5" font-family="Helvetica,sans-Serif" font-size="10.00"> myNextLevel</text>
</g>
<!-- Node9 -->
<g id="node9" class="node"><title>Node9</title>
<polygon fill="white" stroke="#bfbfbf" points="61.5236,-137.5 61.5236,-156.5 96.5236,-156.5 96.5236,-137.5 61.5236,-137.5"/>
<text text-anchor="middle" x="79.0236" y="-144.5" font-family="Helvetica,sans-Serif" font-size="10.00">Text</text>
</g>
<!-- Node9&#45;&gt;Node8 -->
<g id="edge11" class="edge"><title>Node9&#45;&gt;Node8</title>
<path fill="none" stroke="#9a32cd" stroke-dasharray="5,2" d="M70.3766,-128.171C68.0749,-120.705 67.3562,-112.314 72.0236,-106 77.9131,-98.0324 98.7437,-91.4487 118.659,-86.7776"/>
<polygon fill="#9a32cd" stroke="#9a32cd" points="67.1516,-129.532 74.1393,-137.496 73.6431,-126.913 67.1516,-129.532"/>
<text text-anchor="middle" x="100.024" y="-109.5" font-family="Helvetica,sans-Serif" font-size="10.00"> myWarning</text>
</g>
<!-- Node10 -->
<g id="node10" class="node"><title>Node10</title>
<polygon fill="white" stroke="#bfbfbf" points="520.524,-216.5 520.524,-235.5 567.524,-235.5 567.524,-216.5 520.524,-216.5"/>
<text text-anchor="middle" x="544.024" y="-223.5" font-family="Helvetica,sans-Serif" font-size="10.00">Scene</text>
</g>
<!-- Node10&#45;&gt;Node3 -->
<g id="edge16" class="edge"><title>Node10&#45;&gt;Node3</title>
<path fill="none" stroke="#9a32cd" stroke-dasharray="5,2" d="M553.37,-207.074C557.034,-197.548 559.43,-185.813 555.024,-176 533.01,-126.978 471.651,-98.3955 438.662,-86.1377"/>
<polygon fill="#9a32cd" stroke="#9a32cd" points="550.106,-205.795 549.156,-216.347 556.479,-208.69 550.106,-205.795"/>
<text text-anchor="middle" x="567.524" y="-144.5" font-family="Helvetica,sans-Serif" font-size="10.00"> myScene</text>
</g>
<!-- Node10&#45;&gt;Node4 -->
<g id="edge12" class="edge"><title>Node10&#45;&gt;Node4</title>
<path fill="none" stroke="#9a32cd" stroke-dasharray="5,2" d="M524.011,-210.509C507.424,-199.248 482.798,-184.207 459.024,-176 402.488,-156.482 332.259,-150.561 293.068,-148.77"/>
<polygon fill="#9a32cd" stroke="#9a32cd" points="522.135,-213.468 532.342,-216.309 526.135,-207.723 522.135,-213.468"/>
<text text-anchor="middle" x="526.524" y="-184.5" font-family="Helvetica,sans-Serif" font-size="10.00"> myScene</text>
</g>
<!-- Node11 -->
<g id="node11" class="node"><title>Node11</title>
<g id="a_node11"><a xlink:href="../../da/de2/class_sticky_box.html" target="_top" xlink:title="StickyBox">
<polygon fill="white" stroke="black" points="229.524,-216.5 229.524,-235.5 292.524,-235.5 292.524,-216.5 229.524,-216.5"/>
<text text-anchor="middle" x="261.024" y="-223.5" font-family="Helvetica,sans-Serif" font-size="10.00">StickyBox</text>
</a>
</g>
</g>
<!-- Node11&#45;&gt;Node4 -->
<g id="edge13" class="edge"><title>Node11&#45;&gt;Node4</title>
<path fill="none" stroke="#9a32cd" stroke-dasharray="5,2" d="M261.509,-206.315C261.917,-190.592 262.483,-168.808 262.795,-156.809"/>
<polygon fill="#9a32cd" stroke="#9a32cd" points="258.006,-206.378 261.245,-216.465 265.004,-206.56 258.006,-206.378"/>
<text text-anchor="middle" x="287.024" y="-184.5" font-family="Helvetica,sans-Serif" font-size="10.00"> myPlayer</text>
</g>
<!-- Node12 -->
<g id="node12" class="node"><title>Node12</title>
<polygon fill="white" stroke="#bfbfbf" points="229.524,-274.5 229.524,-293.5 292.524,-293.5 292.524,-274.5 229.524,-274.5"/>
<text text-anchor="middle" x="261.024" y="-281.5" font-family="Helvetica,sans-Serif" font-size="10.00">Rectangle</text>
</g>
<!-- Node12&#45;&gt;Node11 -->
<g id="edge14" class="edge"><title>Node12&#45;&gt;Node11</title>
<path fill="none" stroke="midnightblue" d="M261.024,-263.953C261.024,-254.287 261.024,-243.031 261.024,-235.505"/>
<polygon fill="midnightblue" stroke="midnightblue" points="257.524,-264.25 261.024,-274.25 264.524,-264.25 257.524,-264.25"/>
</g>
<!-- Node13 -->
<g id="node13" class="node"><title>Node13</title>
<polygon fill="white" stroke="#bfbfbf" points="311.024,-216.5 311.024,-235.5 357.024,-235.5 357.024,-216.5 311.024,-216.5"/>
<text text-anchor="middle" x="334.024" y="-223.5" font-family="Helvetica,sans-Serif" font-size="10.00">Group</text>
</g>
<!-- Node13&#45;&gt;Node3 -->
<g id="edge17" class="edge"><title>Node13&#45;&gt;Node3</title>
<path fill="none" stroke="#9a32cd" stroke-dasharray="5,2" d="M366.942,-216.3C410.448,-209.334 434.063,-228.255 459.024,-198 487.327,-163.694 444.333,-108.968 425.318,-87.7784"/>
<polygon fill="#9a32cd" stroke="#9a32cd" points="366.155,-212.888 357.036,-218.281 367.528,-219.752 366.155,-212.888"/>
<text text-anchor="middle" x="486.024" y="-144.5" font-family="Helvetica,sans-Serif" font-size="10.00"> myRoot</text>
</g>
<!-- Node13&#45;&gt;Node4 -->
<g id="edge15" class="edge"><title>Node13&#45;&gt;Node4</title>
<path fill="none" stroke="#9a32cd" stroke-dasharray="5,2" d="M328.9,-206.732C325.398,-196.767 319.938,-184.723 312.024,-176 304.518,-167.728 293.98,-161.27 284.599,-156.652"/>
<polygon fill="#9a32cd" stroke="#9a32cd" points="325.622,-207.977 331.953,-216.472 332.301,-205.883 325.622,-207.977"/>
<text text-anchor="middle" x="345.024" y="-184.5" font-family="Helvetica,sans-Serif" font-size="10.00"> myRoot</text>
</g>
</g>
</svg>
