<?xml version="1.0" encoding="UTF-8" standalone="no"?>
<!DOCTYPE svg PUBLIC "-//W3C//DTD SVG 1.1//EN"
 "http://www.w3.org/Graphics/SVG/1.1/DTD/svg11.dtd">
<!-- Generated by graphviz version 2.36.0 (20140111.2315)
 -->
<!-- Title: Main Pages: 1 -->
<svg width="509pt" height="300pt"
 viewBox="0.00 0.00 509.00 300.00" xmlns="http://www.w3.org/2000/svg" xmlns:xlink="http://www.w3.org/1999/xlink">
<g id="graph0" class="graph" transform="scale(1 1) rotate(0) translate(4 296)">
<title>Main</title>
<polygon fill="white" stroke="none" points="-4,4 -4,-296 505,-296 505,4 -4,4"/>
<!-- Node1 -->
<g id="node1" class="node"><title>Node1</title>
<polygon fill="#bfbfbf" stroke="black" points="150.5,-0.5 150.5,-19.5 189.5,-19.5 189.5,-0.5 150.5,-0.5"/>
<text text-anchor="middle" x="170" y="-7.5" font-family="Helvetica,sans-Serif" font-size="10.00">Main</text>
</g>
<!-- Node2 -->
<g id="node2" class="node"><title>Node2</title>
<polygon fill="white" stroke="#bfbfbf" points="109.5,-68.5 109.5,-87.5 178.5,-87.5 178.5,-68.5 109.5,-68.5"/>
<text text-anchor="middle" x="144" y="-75.5" font-family="Helvetica,sans-Serif" font-size="10.00">Application</text>
</g>
<!-- Node2&#45;&gt;Node1 -->
<g id="edge1" class="edge"><title>Node2&#45;&gt;Node1</title>
<path fill="none" stroke="midnightblue" d="M151.167,-58.8066C156.163,-46.1244 162.609,-29.7615 166.517,-19.8411"/>
<polygon fill="midnightblue" stroke="midnightblue" points="147.808,-57.7847 147.399,-68.3717 154.321,-60.3504 147.808,-57.7847"/>
</g>
<!-- Node3 -->
<g id="node3" class="node"><title>Node3</title>
<g id="a_node3"><a xlink:href="../../d2/db8/class_menu.html" target="_top" xlink:title="Menu">
<polygon fill="white" stroke="black" points="196.5,-68.5 196.5,-87.5 239.5,-87.5 239.5,-68.5 196.5,-68.5"/>
<text text-anchor="middle" x="218" y="-75.5" font-family="Helvetica,sans-Serif" font-size="10.00">Menu</text>
</a>
</g>
</g>
<!-- Node3&#45;&gt;Node1 -->
<g id="edge2" class="edge"><title>Node3&#45;&gt;Node1</title>
<path fill="none" stroke="#9a32cd" stroke-dasharray="5,2" d="M205.591,-59.9377C196.263,-47.112 183.861,-30.0591 176.43,-19.8411"/>
<polygon fill="#9a32cd" stroke="#9a32cd" points="203.012,-62.3429 211.725,-68.3717 208.674,-58.2257 203.012,-62.3429"/>
<text text-anchor="middle" x="220.5" y="-41.5" font-family="Helvetica,sans-Serif" font-size="10.00"> myMenu</text>
</g>
<!-- Node4 -->
<g id="node4" class="node"><title>Node4</title>
<g id="a_node4"><a xlink:href="../../db/d97/class_box_world.html" target="_top" xlink:title="BoxWorld">
<polygon fill="white" stroke="black" points="188,-136.5 188,-155.5 248,-155.5 248,-136.5 188,-136.5"/>
<text text-anchor="middle" x="218" y="-143.5" font-family="Helvetica,sans-Serif" font-size="10.00">BoxWorld</text>
</a>
</g>
</g>
<!-- Node4&#45;&gt;Node3 -->
<g id="edge3" class="edge"><title>Node4&#45;&gt;Node3</title>
<path fill="none" stroke="#9a32cd" stroke-dasharray="5,2" d="M218,-126.041C218,-113.472 218,-97.5631 218,-87.8411"/>
<polygon fill="#9a32cd" stroke="#9a32cd" points="214.5,-126.372 218,-136.372 221.5,-126.372 214.5,-126.372"/>
<text text-anchor="middle" x="242" y="-109.5" font-family="Helvetica,sans-Serif" font-size="10.00"> myGame</text>
</g>
<!-- Node5 -->
<g id="node5" class="node"><title>Node5</title>
<polygon fill="white" stroke="#bfbfbf" points="318,-214.5 318,-233.5 374,-233.5 374,-214.5 318,-214.5"/>
<text text-anchor="middle" x="346" y="-221.5" font-family="Helvetica,sans-Serif" font-size="10.00">Timeline</text>
</g>
<!-- Node5&#45;&gt;Node4 -->
<g id="edge4" class="edge"><title>Node5&#45;&gt;Node4</title>
<path fill="none" stroke="#9a32cd" stroke-dasharray="5,2" d="M338.938,-204.861C333.994,-194.407 326.401,-181.827 316,-174 296.4,-159.25 269.192,-152.557 248.417,-149.521"/>
<polygon fill="#9a32cd" stroke="#9a32cd" points="335.849,-206.539 343.006,-214.351 342.283,-203.781 335.849,-206.539"/>
<text text-anchor="middle" x="366.5" y="-182.5" font-family="Helvetica,sans-Serif" font-size="10.00"> myAnimation</text>
</g>
<!-- Node6 -->
<g id="node6" class="node"><title>Node6</title>
<polygon fill="white" stroke="#bfbfbf" points="160.5,-214.5 160.5,-233.5 205.5,-233.5 205.5,-214.5 160.5,-214.5"/>
<text text-anchor="middle" x="183" y="-221.5" font-family="Helvetica,sans-Serif" font-size="10.00">Stage</text>
</g>
<!-- Node6&#45;&gt;Node4 -->
<g id="edge5" class="edge"><title>Node6&#45;&gt;Node4</title>
<path fill="none" stroke="#9a32cd" stroke-dasharray="5,2" d="M179.723,-204.13C178.958,-194.629 179.438,-183.206 184,-174 187.815,-166.3 194.975,-160.104 201.743,-155.599"/>
<polygon fill="#9a32cd" stroke="#9a32cd" points="176.265,-204.685 181.023,-214.151 183.207,-203.784 176.265,-204.685"/>
<text text-anchor="middle" x="207.5" y="-182.5" font-family="Helvetica,sans-Serif" font-size="10.00"> myStage</text>
</g>
<!-- Node7 -->
<g id="node7" class="node"><title>Node7</title>
<polygon fill="white" stroke="#bfbfbf" points="224,-214.5 224,-233.5 292,-233.5 292,-214.5 224,-214.5"/>
<text text-anchor="middle" x="258" y="-221.5" font-family="Helvetica,sans-Serif" font-size="10.00">ImageView</text>
</g>
<!-- Node7&#45;&gt;Node4 -->
<g id="edge6" class="edge"><title>Node7&#45;&gt;Node4</title>
<path fill="none" stroke="#9a32cd" stroke-dasharray="5,2" d="M248.59,-205.122C240.384,-189.53 228.835,-167.586 222.535,-155.616"/>
<polygon fill="#9a32cd" stroke="#9a32cd" points="245.657,-207.063 253.411,-214.282 251.851,-203.803 245.657,-207.063"/>
<text text-anchor="middle" x="277" y="-188" font-family="Helvetica,sans-Serif" font-size="10.00"> obstacleArray</text>
<text text-anchor="middle" x="277" y="-177" font-family="Helvetica,sans-Serif" font-size="10.00">myExit</text>
</g>
<!-- Node8 -->
<g id="node8" class="node"><title>Node8</title>
<polygon fill="white" stroke="#bfbfbf" points="-0.5,-214.5 -0.5,-233.5 46.5,-233.5 46.5,-214.5 -0.5,-214.5"/>
<text text-anchor="middle" x="23" y="-221.5" font-family="Helvetica,sans-Serif" font-size="10.00">Scene</text>
</g>
<!-- Node8&#45;&gt;Node3 -->
<g id="edge11" class="edge"><title>Node8&#45;&gt;Node3</title>
<path fill="none" stroke="#9a32cd" stroke-dasharray="5,2" d="M24.7651,-204.371C26.5217,-194.457 30.0231,-182.577 37,-174 59.0026,-146.951 153.869,-105.455 196.778,-87.6266"/>
<polygon fill="#9a32cd" stroke="#9a32cd" points="21.2738,-204.075 23.4312,-214.448 28.2133,-204.994 21.2738,-204.075"/>
<text text-anchor="middle" x="116.5" y="-143.5" font-family="Helvetica,sans-Serif" font-size="10.00"> myScene</text>
</g>
<!-- Node8&#45;&gt;Node4 -->
<g id="edge7" class="edge"><title>Node8&#45;&gt;Node4</title>
<path fill="none" stroke="#9a32cd" stroke-dasharray="5,2" d="M32.6107,-205.795C39.6063,-194.924 50.0971,-181.548 63,-174 101.902,-151.242 155.047,-146.604 187.914,-146.183"/>
<polygon fill="#9a32cd" stroke="#9a32cd" points="29.5346,-204.119 27.3899,-214.494 35.5367,-207.721 29.5346,-204.119"/>
<text text-anchor="middle" x="87.5" y="-182.5" font-family="Helvetica,sans-Serif" font-size="10.00"> myScene</text>
</g>
<!-- Node9 -->
<g id="node9" class="node"><title>Node9</title>
<g id="a_node9"><a xlink:href="../../da/de2/class_sticky_box.html" target="_top" xlink:title="StickyBox">
<polygon fill="white" stroke="black" points="79.5,-214.5 79.5,-233.5 142.5,-233.5 142.5,-214.5 79.5,-214.5"/>
<text text-anchor="middle" x="111" y="-221.5" font-family="Helvetica,sans-Serif" font-size="10.00">StickyBox</text>
</a>
</g>
</g>
<!-- Node9&#45;&gt;Node4 -->
<g id="edge8" class="edge"><title>Node9&#45;&gt;Node4</title>
<path fill="none" stroke="#9a32cd" stroke-dasharray="5,2" d="M112.853,-204.439C114.805,-194.197 118.805,-181.975 127,-174 143.18,-158.254 168.104,-151.629 187.779,-148.872"/>
<polygon fill="#9a32cd" stroke="#9a32cd" points="109.368,-204.091 111.438,-214.481 116.299,-205.067 109.368,-204.091"/>
<text text-anchor="middle" x="151" y="-182.5" font-family="Helvetica,sans-Serif" font-size="10.00"> myPlayer</text>
</g>
<!-- Node10 -->
<g id="node10" class="node"><title>Node10</title>
<polygon fill="white" stroke="#bfbfbf" points="79.5,-272.5 79.5,-291.5 142.5,-291.5 142.5,-272.5 79.5,-272.5"/>
<text text-anchor="middle" x="111" y="-279.5" font-family="Helvetica,sans-Serif" font-size="10.00">Rectangle</text>
</g>
<!-- Node10&#45;&gt;Node9 -->
<g id="edge9" class="edge"><title>Node10&#45;&gt;Node9</title>
<path fill="none" stroke="midnightblue" d="M111,-261.953C111,-252.287 111,-241.031 111,-233.505"/>
<polygon fill="midnightblue" stroke="midnightblue" points="107.5,-262.25 111,-272.25 114.5,-262.25 107.5,-262.25"/>
</g>
<!-- Node11 -->
<g id="node11" class="node"><title>Node11</title>
<polygon fill="white" stroke="#bfbfbf" points="440,-214.5 440,-233.5 486,-233.5 486,-214.5 440,-214.5"/>
<text text-anchor="middle" x="463" y="-221.5" font-family="Helvetica,sans-Serif" font-size="10.00">Group</text>
</g>
<!-- Node11&#45;&gt;Node3 -->
<g id="edge12" class="edge"><title>Node11&#45;&gt;Node3</title>
<path fill="none" stroke="#9a32cd" stroke-dasharray="5,2" d="M474.763,-205.656C479.938,-195.693 483.526,-183.345 477,-174 421.333,-94.2876 291.091,-81.2581 239.549,-79.2798"/>
<polygon fill="#9a32cd" stroke="#9a32cd" points="471.722,-203.922 469.594,-214.301 477.73,-207.514 471.722,-203.922"/>
<text text-anchor="middle" x="481" y="-143.5" font-family="Helvetica,sans-Serif" font-size="10.00"> myRoot</text>
</g>
<!-- Node11&#45;&gt;Node4 -->
<g id="edge10" class="edge"><title>Node11&#45;&gt;Node4</title>
<path fill="none" stroke="#9a32cd" stroke-dasharray="5,2" d="M448.51,-206.987C437.452,-195.846 421.229,-181.665 404,-174 352.573,-151.12 286,-146.815 248.042,-146.441"/>
<polygon fill="#9a32cd" stroke="#9a32cd" points="446.159,-209.595 455.589,-214.426 451.23,-204.769 446.159,-209.595"/>
<text text-anchor="middle" x="456" y="-182.5" font-family="Helvetica,sans-Serif" font-size="10.00"> myRoot</text>
</g>
</g>
</svg>
