<?xml version="1.0" encoding="UTF-8" standalone="no"?>
<!DOCTYPE svg PUBLIC "-//W3C//DTD SVG 1.1//EN"
 "http://www.w3.org/Graphics/SVG/1.1/DTD/svg11.dtd">
<!-- Generated by graphviz version 2.36.0 (20140111.2315)
 -->
<!-- Title: LoseScreen.init Pages: 1 -->
<svg width="1916pt" height="512pt"
 viewBox="0.00 0.00 1916.00 512.00" xmlns="http://www.w3.org/2000/svg" xmlns:xlink="http://www.w3.org/1999/xlink">
<g id="graph0" class="graph" transform="scale(1 1) rotate(0) translate(4 508)">
<title>LoseScreen.init</title>
<polygon fill="white" stroke="none" points="-4,4 -4,-508 1912,-508 1912,4 -4,4"/>
<!-- Node1 -->
<g id="node1" class="node"><title>Node1</title>
<polygon fill="#bfbfbf" stroke="black" points="0,-82.5 0,-101.5 90,-101.5 90,-82.5 0,-82.5"/>
<text text-anchor="middle" x="45" y="-89.5" font-family="Helvetica,sans-Serif" font-size="10.00">LoseScreen.init</text>
</g>
<!-- Node2 -->
<g id="node2" class="node"><title>Node2</title>
<g id="a_node2"><a xlink:href="../../d2/db8/class_menu.html#a3c99ad09e9f2f975c1a0d0597642651a" target="_top" xlink:title="Menu.init">
<polygon fill="white" stroke="black" points="126,-175.5 126,-194.5 186,-194.5 186,-175.5 126,-175.5"/>
<text text-anchor="middle" x="156" y="-182.5" font-family="Helvetica,sans-Serif" font-size="10.00">Menu.init</text>
</a>
</g>
</g>
<!-- Node1&#45;&gt;Node2 -->
<g id="edge1" class="edge"><title>Node1&#45;&gt;Node2</title>
<path fill="none" stroke="midnightblue" d="M57.2544,-101.602C75.8568,-117.474 113.22,-149.353 135.981,-168.772"/>
<polygon fill="midnightblue" stroke="midnightblue" points="133.764,-171.482 143.644,-175.311 138.308,-166.157 133.764,-171.482"/>
</g>
<!-- Node3 -->
<g id="node3" class="node"><title>Node3</title>
<g id="a_node3"><a xlink:href="../../d2/db8/class_menu.html#a8a6e6125f0dc2dc7e19c6655ba6376a2" target="_top" xlink:title="Menu.addIntroText">
<polygon fill="white" stroke="black" points="222,-175.5 222,-194.5 326,-194.5 326,-175.5 222,-175.5"/>
<text text-anchor="middle" x="274" y="-182.5" font-family="Helvetica,sans-Serif" font-size="10.00">Menu.addIntroText</text>
</a>
</g>
</g>
<!-- Node2&#45;&gt;Node3 -->
<g id="edge2" class="edge"><title>Node2&#45;&gt;Node3</title>
<path fill="none" stroke="midnightblue" d="M186.272,-185C193.99,-185 202.617,-185 211.354,-185"/>
<polygon fill="midnightblue" stroke="midnightblue" points="211.614,-188.5 221.614,-185 211.614,-181.5 211.614,-188.5"/>
</g>
<!-- Node4 -->
<g id="node4" class="node"><title>Node4</title>
<g id="a_node4"><a xlink:href="../../db/d97/class_box_world.html#a55bf92d3f466bfaade0f6d199d8c9bd9" target="_top" xlink:title="BoxWorld.init">
<polygon fill="white" stroke="black" points="235.5,-341.5 235.5,-360.5 312.5,-360.5 312.5,-341.5 235.5,-341.5"/>
<text text-anchor="middle" x="274" y="-348.5" font-family="Helvetica,sans-Serif" font-size="10.00">BoxWorld.init</text>
</a>
</g>
</g>
<!-- Node2&#45;&gt;Node4 -->
<g id="edge3" class="edge"><title>Node2&#45;&gt;Node4</title>
<path fill="none" stroke="midnightblue" d="M163.909,-194.887C182.893,-222.054 236.057,-298.133 260.463,-333.06"/>
<polygon fill="midnightblue" stroke="midnightblue" points="257.676,-335.181 266.273,-341.373 263.413,-331.171 257.676,-335.181"/>
</g>
<!-- Node5 -->
<g id="node5" class="node"><title>Node5</title>
<g id="a_node5"><a xlink:href="../../db/d97/class_box_world.html#a69798621c944e846f045aaf3937505f9" target="_top" xlink:title="BoxWorld.addStarterObjects">
<polygon fill="white" stroke="black" points="1000.5,-446.5 1000.5,-465.5 1151.5,-465.5 1151.5,-446.5 1000.5,-446.5"/>
<text text-anchor="middle" x="1076" y="-453.5" font-family="Helvetica,sans-Serif" font-size="10.00">BoxWorld.addStarterObjects</text>
</a>
</g>
</g>
<!-- Node4&#45;&gt;Node5 -->
<g id="edge4" class="edge"><title>Node4&#45;&gt;Node5</title>
<path fill="none" stroke="midnightblue" d="M298.705,-360.625C351.281,-381.076 482.033,-427 596,-427 596,-427 596,-427 761,-427 842.976,-427 936.482,-436.922 999.984,-445.158"/>
<polygon fill="midnightblue" stroke="midnightblue" points="999.54,-448.63 1009.91,-446.464 1000.45,-441.69 999.54,-448.63"/>
</g>
<!-- Node7 -->
<g id="node7" class="node"><title>Node7</title>
<g id="a_node7"><a xlink:href="../../db/d97/class_box_world.html#a726e747e023543658d7a345cc6466ccb" target="_top" xlink:title="BoxWorld.createScene">
<polygon fill="white" stroke="black" points="362,-322.5 362,-341.5 486,-341.5 486,-322.5 362,-322.5"/>
<text text-anchor="middle" x="424" y="-329.5" font-family="Helvetica,sans-Serif" font-size="10.00">BoxWorld.createScene</text>
</a>
</g>
</g>
<!-- Node4&#45;&gt;Node7 -->
<g id="edge6" class="edge"><title>Node4&#45;&gt;Node7</title>
<path fill="none" stroke="midnightblue" d="M312.73,-346.156C324.604,-344.632 338.135,-342.895 351.553,-341.172"/>
<polygon fill="midnightblue" stroke="midnightblue" points="352.29,-344.606 361.763,-339.862 351.399,-337.663 352.29,-344.606"/>
</g>
<!-- Node29 -->
<g id="node29" class="node"><title>Node29</title>
<g id="a_node29"><a xlink:href="../../db/d97/class_box_world.html#ad20a4e43406c44f4bbf201d1d1028998" target="_top" xlink:title="BoxWorld.start">
<polygon fill="white" stroke="black" points="1033,-484.5 1033,-503.5 1119,-503.5 1119,-484.5 1033,-484.5"/>
<text text-anchor="middle" x="1076" y="-491.5" font-family="Helvetica,sans-Serif" font-size="10.00">BoxWorld.start</text>
</a>
</g>
</g>
<!-- Node4&#45;&gt;Node29 -->
<g id="edge49" class="edge"><title>Node4&#45;&gt;Node29</title>
<path fill="none" stroke="midnightblue" d="M286.057,-360.704C301.885,-374.151 332.372,-398.436 362,-413 459.535,-460.945 487.318,-484 596,-484 596,-484 596,-484 761,-484 853.032,-484 960.161,-488.345 1022.5,-491.306"/>
<polygon fill="midnightblue" stroke="midnightblue" points="1022.7,-494.82 1032.86,-491.805 1023.04,-487.828 1022.7,-494.82"/>
</g>
<!-- Node6 -->
<g id="node6" class="node"><title>Node6</title>
<g id="a_node6"><a xlink:href="../../db/d97/class_box_world.html#a2542cc74ebeba6a9768a443a55186901" target="_top" xlink:title="BoxWorld.createObstacleArray">
<polygon fill="white" stroke="black" points="1204.5,-256.5 1204.5,-275.5 1365.5,-275.5 1365.5,-256.5 1204.5,-256.5"/>
<text text-anchor="middle" x="1285" y="-263.5" font-family="Helvetica,sans-Serif" font-size="10.00">BoxWorld.createObstacleArray</text>
</a>
</g>
</g>
<!-- Node5&#45;&gt;Node6 -->
<g id="edge5" class="edge"><title>Node5&#45;&gt;Node6</title>
<path fill="none" stroke="midnightblue" d="M1151.71,-448.074C1157.7,-445.241 1163.26,-441.616 1168,-437 1217.74,-388.57 1154.92,-334.106 1204,-285 1205.44,-283.561 1206.96,-282.224 1208.56,-280.981"/>
<polygon fill="midnightblue" stroke="midnightblue" points="1210.56,-283.855 1217.11,-275.521 1206.8,-277.956 1210.56,-283.855"/>
</g>
<!-- Node8 -->
<g id="node8" class="node"><title>Node8</title>
<g id="a_node8"><a xlink:href="../../db/d97/class_box_world.html#aa7e2049d7be23e15fd2ec7fa2922ed79" target="_top" xlink:title="BoxWorld.handleKeyInput">
<polygon fill="white" stroke="black" points="529,-104.5 529,-123.5 665,-123.5 665,-104.5 529,-104.5"/>
<text text-anchor="middle" x="597" y="-111.5" font-family="Helvetica,sans-Serif" font-size="10.00">BoxWorld.handleKeyInput</text>
</a>
</g>
</g>
<!-- Node7&#45;&gt;Node8 -->
<g id="edge7" class="edge"><title>Node7&#45;&gt;Node8</title>
<path fill="none" stroke="midnightblue" d="M432.568,-322.352C459.054,-288.586 547.828,-175.412 582.223,-131.564"/>
<polygon fill="midnightblue" stroke="midnightblue" points="585.101,-133.565 588.519,-123.537 579.593,-129.245 585.101,-133.565"/>
</g>
<!-- Node37 -->
<g id="node37" class="node"><title>Node37</title>
<g id="a_node37"><a xlink:href="../../db/d97/class_box_world.html#a2d44485a181577acb4d79b6b81f26fff" target="_top" xlink:title="BoxWorld.handleKeyRelease">
<polygon fill="white" stroke="black" points="522.5,-341.5 522.5,-360.5 671.5,-360.5 671.5,-341.5 522.5,-341.5"/>
<text text-anchor="middle" x="597" y="-348.5" font-family="Helvetica,sans-Serif" font-size="10.00">BoxWorld.handleKeyRelease</text>
</a>
</g>
</g>
<!-- Node7&#45;&gt;Node37 -->
<g id="edge48" class="edge"><title>Node7&#45;&gt;Node37</title>
<path fill="none" stroke="midnightblue" d="M486.252,-338.806C494.655,-339.739 503.399,-340.711 512.121,-341.68"/>
<polygon fill="midnightblue" stroke="midnightblue" points="512.002,-345.188 522.327,-342.814 512.775,-338.231 512.002,-345.188"/>
</g>
<!-- Node9 -->
<g id="node9" class="node"><title>Node9</title>
<g id="a_node9"><a xlink:href="../../db/d97/class_box_world.html#adc4c9d78ffde3d052c4c92047eb98e55" target="_top" xlink:title="BoxWorld.allowMovement">
<polygon fill="white" stroke="black" points="1602.5,-142.5 1602.5,-161.5 1739.5,-161.5 1739.5,-142.5 1602.5,-142.5"/>
<text text-anchor="middle" x="1671" y="-149.5" font-family="Helvetica,sans-Serif" font-size="10.00">BoxWorld.allowMovement</text>
</a>
</g>
</g>
<!-- Node8&#45;&gt;Node9 -->
<g id="edge8" class="edge"><title>Node8&#45;&gt;Node9</title>
<path fill="none" stroke="midnightblue" d="M620.016,-104.375C668.862,-83.924 790.415,-38 897,-38 897,-38 897,-38 1286,-38 1413,-38 1446.75,-51.3223 1566,-95 1595.51,-105.808 1626.8,-123.989 1647.26,-136.91"/>
<polygon fill="midnightblue" stroke="midnightblue" points="1645.54,-139.97 1655.85,-142.431 1649.33,-134.081 1645.54,-139.97"/>
</g>
<!-- Node14 -->
<g id="node14" class="node"><title>Node14</title>
<g id="a_node14"><a xlink:href="../../db/d97/class_box_world.html#a04c6bf977c4292a5433649fb3745fd6b" target="_top" xlink:title="BoxWorld.reset">
<polygon fill="white" stroke="black" points="1241,-104.5 1241,-123.5 1329,-123.5 1329,-104.5 1241,-104.5"/>
<text text-anchor="middle" x="1285" y="-111.5" font-family="Helvetica,sans-Serif" font-size="10.00">BoxWorld.reset</text>
</a>
</g>
</g>
<!-- Node8&#45;&gt;Node14 -->
<g id="edge13" class="edge"><title>Node8&#45;&gt;Node14</title>
<path fill="none" stroke="midnightblue" d="M665.026,-114C800.976,-114 1106.73,-114 1230.49,-114"/>
<polygon fill="midnightblue" stroke="midnightblue" points="1230.83,-117.5 1240.83,-114 1230.83,-110.5 1230.83,-117.5"/>
</g>
<!-- Node15 -->
<g id="node15" class="node"><title>Node15</title>
<g id="a_node15"><a xlink:href="../../da/de2/class_sticky_box.html#aa1bb8f78f676b01c688d75d386758444" target="_top" xlink:title="StickyBox.setDirection">
<polygon fill="white" stroke="black" points="1422,-104.5 1422,-123.5 1546,-123.5 1546,-104.5 1422,-104.5"/>
<text text-anchor="middle" x="1484" y="-111.5" font-family="Helvetica,sans-Serif" font-size="10.00">StickyBox.setDirection</text>
</a>
</g>
</g>
<!-- Node8&#45;&gt;Node15 -->
<g id="edge16" class="edge"><title>Node8&#45;&gt;Node15</title>
<path fill="none" stroke="midnightblue" d="M644.124,-104.46C702.66,-93.2037 806.866,-76 897,-76 897,-76 897,-76 1077,-76 1205.72,-76 1238.1,-80.4446 1366,-95 1383.86,-97.0327 1403.16,-99.8905 1420.83,-102.774"/>
<polygon fill="midnightblue" stroke="midnightblue" points="1420.58,-106.281 1431.02,-104.468 1421.73,-99.3756 1420.58,-106.281"/>
</g>
<!-- Node17 -->
<g id="node17" class="node"><title>Node17</title>
<g id="a_node17"><a xlink:href="../../db/d97/class_box_world.html#aad670712776afe126e51791097027e05" target="_top" xlink:title="BoxWorld.winLevel">
<polygon fill="white" stroke="black" points="708.5,-180.5 708.5,-199.5 811.5,-199.5 811.5,-180.5 708.5,-180.5"/>
<text text-anchor="middle" x="760" y="-187.5" font-family="Helvetica,sans-Serif" font-size="10.00">BoxWorld.winLevel</text>
</a>
</g>
</g>
<!-- Node8&#45;&gt;Node17 -->
<g id="edge17" class="edge"><title>Node8&#45;&gt;Node17</title>
<path fill="none" stroke="midnightblue" d="M618.391,-123.625C646.456,-136.874 697.17,-160.813 729.408,-176.031"/>
<polygon fill="midnightblue" stroke="midnightblue" points="728.238,-179.349 738.775,-180.453 731.226,-173.019 728.238,-179.349"/>
</g>
<!-- Node10 -->
<g id="node10" class="node"><title>Node10</title>
<g id="a_node10"><a xlink:href="../../da/de2/class_sticky_box.html#a6ba3f89630df9d81df5644a3e5f4e387" target="_top" xlink:title="StickyBox.getXDirection">
<polygon fill="white" stroke="black" points="1776.5,-246.5 1776.5,-265.5 1907.5,-265.5 1907.5,-246.5 1776.5,-246.5"/>
<text text-anchor="middle" x="1842" y="-253.5" font-family="Helvetica,sans-Serif" font-size="10.00">StickyBox.getXDirection</text>
</a>
</g>
</g>
<!-- Node9&#45;&gt;Node10 -->
<g id="edge9" class="edge"><title>Node9&#45;&gt;Node10</title>
<path fill="none" stroke="midnightblue" d="M1723.57,-161.552C1729.47,-164.013 1735.11,-167.108 1740,-171 1766.15,-191.8 1749.98,-216.044 1776,-237 1778.28,-238.832 1780.72,-240.487 1783.28,-241.983"/>
<polygon fill="midnightblue" stroke="midnightblue" points="1781.85,-245.177 1792.36,-246.478 1784.95,-238.904 1781.85,-245.177"/>
</g>
<!-- Node11 -->
<g id="node11" class="node"><title>Node11</title>
<g id="a_node11"><a xlink:href="../../da/de2/class_sticky_box.html#ab0bd7cafb7f243e3951558ddb8728b96" target="_top" xlink:title="StickyBox.getXPrev">
<polygon fill="white" stroke="black" points="1787.5,-113.5 1787.5,-132.5 1896.5,-132.5 1896.5,-113.5 1787.5,-113.5"/>
<text text-anchor="middle" x="1842" y="-120.5" font-family="Helvetica,sans-Serif" font-size="10.00">StickyBox.getXPrev</text>
</a>
</g>
</g>
<!-- Node9&#45;&gt;Node11 -->
<g id="edge10" class="edge"><title>Node9&#45;&gt;Node11</title>
<path fill="none" stroke="midnightblue" d="M1727.81,-142.424C1743.65,-139.705 1761.02,-136.724 1777.3,-133.932"/>
<polygon fill="midnightblue" stroke="midnightblue" points="1778,-137.362 1787.26,-132.221 1776.82,-130.463 1778,-137.362"/>
</g>
<!-- Node12 -->
<g id="node12" class="node"><title>Node12</title>
<g id="a_node12"><a xlink:href="../../da/de2/class_sticky_box.html#a69e5ccf2a79159c03dea2e048df13318" target="_top" xlink:title="StickyBox.getYDirection">
<polygon fill="white" stroke="black" points="1777,-208.5 1777,-227.5 1907,-227.5 1907,-208.5 1777,-208.5"/>
<text text-anchor="middle" x="1842" y="-215.5" font-family="Helvetica,sans-Serif" font-size="10.00">StickyBox.getYDirection</text>
</a>
</g>
</g>
<!-- Node9&#45;&gt;Node12 -->
<g id="edge11" class="edge"><title>Node9&#45;&gt;Node12</title>
<path fill="none" stroke="midnightblue" d="M1710.47,-161.572C1720.21,-164.314 1730.57,-167.516 1740,-171 1765.57,-180.449 1793.6,-193.739 1813.63,-203.777"/>
<polygon fill="midnightblue" stroke="midnightblue" points="1812.27,-207.013 1822.77,-208.413 1815.43,-200.77 1812.27,-207.013"/>
</g>
<!-- Node13 -->
<g id="node13" class="node"><title>Node13</title>
<g id="a_node13"><a xlink:href="../../da/de2/class_sticky_box.html#a4c6abed944faed9d9b226079e99cfc24" target="_top" xlink:title="StickyBox.getYPrev">
<polygon fill="white" stroke="black" points="1788,-151.5 1788,-170.5 1896,-170.5 1896,-151.5 1788,-151.5"/>
<text text-anchor="middle" x="1842" y="-158.5" font-family="Helvetica,sans-Serif" font-size="10.00">StickyBox.getYPrev</text>
</a>
</g>
</g>
<!-- Node9&#45;&gt;Node13 -->
<g id="edge12" class="edge"><title>Node9&#45;&gt;Node13</title>
<path fill="none" stroke="midnightblue" d="M1739.76,-155.609C1752.25,-156.274 1765.24,-156.965 1777.59,-157.623"/>
<polygon fill="midnightblue" stroke="midnightblue" points="1777.61,-161.129 1787.78,-158.166 1777.98,-154.139 1777.61,-161.129"/>
</g>
<!-- Node14&#45;&gt;Node15 -->
<g id="edge14" class="edge"><title>Node14&#45;&gt;Node15</title>
<path fill="none" stroke="midnightblue" d="M1329.23,-114C1353.44,-114 1384.24,-114 1411.9,-114"/>
<polygon fill="midnightblue" stroke="midnightblue" points="1411.93,-117.5 1421.93,-114 1411.93,-110.5 1411.93,-117.5"/>
</g>
<!-- Node16 -->
<g id="node16" class="node"><title>Node16</title>
<g id="a_node16"><a xlink:href="../../da/de2/class_sticky_box.html#a5d95d2ed2e13f0d87a44311db77f9e36" target="_top" xlink:title="StickyBox.setPreviousDirection">
<polygon fill="white" stroke="black" points="1402,-142.5 1402,-161.5 1566,-161.5 1566,-142.5 1402,-142.5"/>
<text text-anchor="middle" x="1484" y="-149.5" font-family="Helvetica,sans-Serif" font-size="10.00">StickyBox.setPreviousDirection</text>
</a>
</g>
</g>
<!-- Node14&#45;&gt;Node16 -->
<g id="edge15" class="edge"><title>Node14&#45;&gt;Node16</title>
<path fill="none" stroke="midnightblue" d="M1329.23,-122.339C1356.91,-127.678 1393.2,-134.678 1423.57,-140.536"/>
<polygon fill="midnightblue" stroke="midnightblue" points="1423.14,-144.018 1433.62,-142.475 1424.47,-137.145 1423.14,-144.018"/>
</g>
<!-- Node18 -->
<g id="node18" class="node"><title>Node18</title>
<g id="a_node18"><a xlink:href="../../d6/d4f/class_item_box_world.html#aa559fc2680327b41fb376e2eda8e82e3" target="_top" xlink:title="ItemBoxWorld.init">
<polygon fill="white" stroke="black" points="848.5,-303.5 848.5,-322.5 947.5,-322.5 947.5,-303.5 848.5,-303.5"/>
<text text-anchor="middle" x="898" y="-310.5" font-family="Helvetica,sans-Serif" font-size="10.00">ItemBoxWorld.init</text>
</a>
</g>
</g>
<!-- Node17&#45;&gt;Node18 -->
<g id="edge18" class="edge"><title>Node17&#45;&gt;Node18</title>
<path fill="none" stroke="midnightblue" d="M771.672,-199.652C794.811,-220.579 849.832,-270.34 878.662,-296.415"/>
<polygon fill="midnightblue" stroke="midnightblue" points="876.613,-299.281 886.378,-303.393 881.309,-294.09 876.613,-299.281"/>
</g>
<!-- Node18&#45;&gt;Node5 -->
<g id="edge24" class="edge"><title>Node18&#45;&gt;Node5</title>
<path fill="none" stroke="midnightblue" d="M902.612,-322.615C912.025,-346.263 939.694,-407.472 984,-437 986.978,-438.984 990.122,-440.768 993.382,-442.37"/>
<polygon fill="midnightblue" stroke="midnightblue" points="992.263,-445.698 1002.83,-446.421 995.021,-439.264 992.263,-445.698"/>
</g>
<!-- Node18&#45;&gt;Node7 -->
<g id="edge25" class="edge"><title>Node18&#45;&gt;Node7</title>
<path fill="none" stroke="midnightblue" d="M848.411,-314.956C764.803,-318.321 593.376,-325.222 496.247,-329.132"/>
<polygon fill="midnightblue" stroke="midnightblue" points="496.073,-325.636 486.222,-329.536 496.355,-332.63 496.073,-325.636"/>
</g>
<!-- Node19 -->
<g id="node19" class="node"><title>Node19</title>
<g id="a_node19"><a xlink:href="../../d6/d4f/class_item_box_world.html#a7ead15fd9fd8095f928640161d48fdf8" target="_top" xlink:title="ItemBoxWorld.addAllItems">
<polygon fill="white" stroke="black" points="1005.5,-142.5 1005.5,-161.5 1146.5,-161.5 1146.5,-142.5 1005.5,-142.5"/>
<text text-anchor="middle" x="1076" y="-149.5" font-family="Helvetica,sans-Serif" font-size="10.00">ItemBoxWorld.addAllItems</text>
</a>
</g>
</g>
<!-- Node18&#45;&gt;Node19 -->
<g id="edge19" class="edge"><title>Node18&#45;&gt;Node19</title>
<path fill="none" stroke="midnightblue" d="M905.369,-303.222C918.427,-283.674 949.892,-239.072 984,-209 1003.26,-192.02 1028.14,-176.812 1047.01,-166.384"/>
<polygon fill="midnightblue" stroke="midnightblue" points="1048.87,-169.356 1056.01,-161.523 1045.55,-163.197 1048.87,-169.356"/>
</g>
<!-- Node23 -->
<g id="node23" class="node"><title>Node23</title>
<g id="a_node23"><a xlink:href="../../db/d97/class_box_world.html#a61929851f1d60c397e1448e614f1d701" target="_top" xlink:title="BoxWorld.getAnimation">
<polygon fill="white" stroke="black" points="1012,-408.5 1012,-427.5 1140,-427.5 1140,-408.5 1012,-408.5"/>
<text text-anchor="middle" x="1076" y="-415.5" font-family="Helvetica,sans-Serif" font-size="10.00">BoxWorld.getAnimation</text>
</a>
</g>
</g>
<!-- Node18&#45;&gt;Node23 -->
<g id="edge26" class="edge"><title>Node18&#45;&gt;Node23</title>
<path fill="none" stroke="midnightblue" d="M905.445,-322.542C918.174,-340.585 948.416,-379.628 984,-399 989.581,-402.039 995.599,-404.592 1001.79,-406.737"/>
<polygon fill="midnightblue" stroke="midnightblue" points="1001.02,-410.165 1011.61,-409.784 1003.1,-403.479 1001.02,-410.165"/>
</g>
<!-- Node24 -->
<g id="node24" class="node"><title>Node24</title>
<g id="a_node24"><a xlink:href="../../db/d97/class_box_world.html#a8d7d9f1ae1ebcd87ff73c09780b70629" target="_top" xlink:title="BoxWorld.setAnimation">
<polygon fill="white" stroke="black" points="1012.5,-370.5 1012.5,-389.5 1139.5,-389.5 1139.5,-370.5 1012.5,-370.5"/>
<text text-anchor="middle" x="1076" y="-377.5" font-family="Helvetica,sans-Serif" font-size="10.00">BoxWorld.setAnimation</text>
</a>
</g>
</g>
<!-- Node18&#45;&gt;Node24 -->
<g id="edge27" class="edge"><title>Node18&#45;&gt;Node24</title>
<path fill="none" stroke="midnightblue" d="M912.781,-322.561C929.074,-333.434 957.353,-350.972 984,-361 991.037,-363.648 998.526,-365.962 1006.07,-367.975"/>
<polygon fill="midnightblue" stroke="midnightblue" points="1005.44,-371.424 1015.99,-370.451 1007.13,-364.632 1005.44,-371.424"/>
</g>
<!-- Node25 -->
<g id="node25" class="node"><title>Node25</title>
<g id="a_node25"><a xlink:href="../../db/d97/class_box_world.html#a3735494d6eeffc036cd757eb21170eb0" target="_top" xlink:title="BoxWorld.setObstacleXCoordinates">
<polygon fill="white" stroke="black" points="984.5,-332.5 984.5,-351.5 1167.5,-351.5 1167.5,-332.5 984.5,-332.5"/>
<text text-anchor="middle" x="1076" y="-339.5" font-family="Helvetica,sans-Serif" font-size="10.00">BoxWorld.setObstacleXCoordinates</text>
</a>
</g>
</g>
<!-- Node18&#45;&gt;Node25 -->
<g id="edge28" class="edge"><title>Node18&#45;&gt;Node25</title>
<path fill="none" stroke="midnightblue" d="M947.559,-321.001C966.012,-324.042 987.382,-327.563 1007.29,-330.843"/>
<polygon fill="midnightblue" stroke="midnightblue" points="1006.79,-334.309 1017.23,-332.481 1007.93,-327.402 1006.79,-334.309"/>
</g>
<!-- Node26 -->
<g id="node26" class="node"><title>Node26</title>
<g id="a_node26"><a xlink:href="../../db/d97/class_box_world.html#ab45827804913790744cdbaaf8a222256" target="_top" xlink:title="BoxWorld.setObstacleYCoordinates">
<polygon fill="white" stroke="black" points="985,-294.5 985,-313.5 1167,-313.5 1167,-294.5 985,-294.5"/>
<text text-anchor="middle" x="1076" y="-301.5" font-family="Helvetica,sans-Serif" font-size="10.00">BoxWorld.setObstacleYCoordinates</text>
</a>
</g>
</g>
<!-- Node18&#45;&gt;Node26 -->
<g id="edge29" class="edge"><title>Node18&#45;&gt;Node26</title>
<path fill="none" stroke="midnightblue" d="M947.559,-310.517C956.077,-310.081 965.217,-309.614 974.547,-309.137"/>
<polygon fill="midnightblue" stroke="midnightblue" points="974.918,-312.622 984.726,-308.616 974.561,-305.632 974.918,-312.622"/>
</g>
<!-- Node27 -->
<g id="node27" class="node"><title>Node27</title>
<g id="a_node27"><a xlink:href="../../db/d97/class_box_world.html#aeeaafc4ff103ded208e6c9393eb4ceca" target="_top" xlink:title="BoxWorld.setRoot">
<polygon fill="white" stroke="black" points="1026.5,-256.5 1026.5,-275.5 1125.5,-275.5 1125.5,-256.5 1026.5,-256.5"/>
<text text-anchor="middle" x="1076" y="-263.5" font-family="Helvetica,sans-Serif" font-size="10.00">BoxWorld.setRoot</text>
</a>
</g>
</g>
<!-- Node18&#45;&gt;Node27 -->
<g id="edge30" class="edge"><title>Node18&#45;&gt;Node27</title>
<path fill="none" stroke="midnightblue" d="M925.566,-303.395C942.211,-297.591 964.191,-290.313 984,-285 994.383,-282.215 1005.52,-279.593 1016.33,-277.238"/>
<polygon fill="midnightblue" stroke="midnightblue" points="1017.07,-280.659 1026.12,-275.153 1015.61,-273.812 1017.07,-280.659"/>
</g>
<!-- Node28 -->
<g id="node28" class="node"><title>Node28</title>
<g id="a_node28"><a xlink:href="../../db/d97/class_box_world.html#a25c34c68bdd68debd7de01a4f3b98bb1" target="_top" xlink:title="BoxWorld.setStage">
<polygon fill="white" stroke="black" points="1022.5,-218.5 1022.5,-237.5 1129.5,-237.5 1129.5,-218.5 1022.5,-218.5"/>
<text text-anchor="middle" x="1076" y="-225.5" font-family="Helvetica,sans-Serif" font-size="10.00">BoxWorld.setStage</text>
</a>
</g>
</g>
<!-- Node18&#45;&gt;Node28 -->
<g id="edge31" class="edge"><title>Node18&#45;&gt;Node28</title>
<path fill="none" stroke="midnightblue" d="M908.464,-303.221C923.195,-288.608 953.135,-261.269 984,-247 992.807,-242.929 1002.5,-239.722 1012.17,-237.198"/>
<polygon fill="midnightblue" stroke="midnightblue" points="1013.28,-240.529 1022.2,-234.807 1011.66,-233.72 1013.28,-240.529"/>
</g>
<!-- Node18&#45;&gt;Node29 -->
<g id="edge32" class="edge"><title>Node18&#45;&gt;Node29</title>
<path fill="none" stroke="midnightblue" d="M900.998,-322.514C907.454,-350.751 930.516,-434.618 984,-475 995.194,-483.452 1009.27,-488.355 1022.99,-491.144"/>
<polygon fill="midnightblue" stroke="midnightblue" points="1022.43,-494.598 1032.87,-492.823 1023.6,-487.697 1022.43,-494.598"/>
</g>
<!-- Node20 -->
<g id="node20" class="node"><title>Node20</title>
<g id="a_node20"><a xlink:href="../../d6/d4f/class_item_box_world.html#af1bcde0672796e926560684004ed8e81" target="_top" xlink:title="ItemBoxWorld.addSingleItem">
<polygon fill="white" stroke="black" points="1208,-142.5 1208,-161.5 1362,-161.5 1362,-142.5 1208,-142.5"/>
<text text-anchor="middle" x="1285" y="-149.5" font-family="Helvetica,sans-Serif" font-size="10.00">ItemBoxWorld.addSingleItem</text>
</a>
</g>
</g>
<!-- Node19&#45;&gt;Node20 -->
<g id="edge20" class="edge"><title>Node19&#45;&gt;Node20</title>
<path fill="none" stroke="midnightblue" d="M1146.5,-152C1162.84,-152 1180.46,-152 1197.44,-152"/>
<polygon fill="midnightblue" stroke="midnightblue" points="1197.92,-155.5 1207.92,-152 1197.92,-148.5 1197.92,-155.5"/>
</g>
<!-- Node22 -->
<g id="node22" class="node"><title>Node22</title>
<g id="a_node22"><a xlink:href="../../d6/d4f/class_item_box_world.html#a1890e6c53a4a73e44e9528009fde508d" target="_top" xlink:title="ItemBoxWorld.itemExists">
<polygon fill="white" stroke="black" points="1218,-180.5 1218,-199.5 1352,-199.5 1352,-180.5 1218,-180.5"/>
<text text-anchor="middle" x="1285" y="-187.5" font-family="Helvetica,sans-Serif" font-size="10.00">ItemBoxWorld.itemExists</text>
</a>
</g>
</g>
<!-- Node19&#45;&gt;Node22 -->
<g id="edge22" class="edge"><title>Node19&#45;&gt;Node22</title>
<path fill="none" stroke="midnightblue" d="M1128.97,-161.54C1157.27,-166.735 1192.46,-173.196 1222.17,-178.649"/>
<polygon fill="midnightblue" stroke="midnightblue" points="1221.54,-182.093 1232.01,-180.456 1222.81,-175.208 1221.54,-182.093"/>
</g>
<!-- Node21 -->
<g id="node21" class="node"><title>Node21</title>
<g id="a_node21"><a xlink:href="../../db/d97/class_box_world.html#abb95adb381902ecab1db85efdc1ea6ff" target="_top" xlink:title="BoxWorld.getRoot">
<polygon fill="white" stroke="black" points="1434,-180.5 1434,-199.5 1534,-199.5 1534,-180.5 1434,-180.5"/>
<text text-anchor="middle" x="1484" y="-187.5" font-family="Helvetica,sans-Serif" font-size="10.00">BoxWorld.getRoot</text>
</a>
</g>
</g>
<!-- Node20&#45;&gt;Node21 -->
<g id="edge21" class="edge"><title>Node20&#45;&gt;Node21</title>
<path fill="none" stroke="midnightblue" d="M1335.46,-161.54C1362.26,-166.709 1395.56,-173.133 1423.74,-178.568"/>
<polygon fill="midnightblue" stroke="midnightblue" points="1423.38,-182.065 1433.86,-180.522 1424.71,-175.191 1423.38,-182.065"/>
</g>
<!-- Node22&#45;&gt;Node21 -->
<g id="edge23" class="edge"><title>Node22&#45;&gt;Node21</title>
<path fill="none" stroke="midnightblue" d="M1352.15,-190C1375.31,-190 1401.17,-190 1423.73,-190"/>
<polygon fill="midnightblue" stroke="midnightblue" points="1423.85,-193.5 1433.85,-190 1423.85,-186.5 1423.85,-193.5"/>
</g>
<!-- Node30 -->
<g id="node30" class="node"><title>Node30</title>
<g id="a_node30"><a xlink:href="../../db/d97/class_box_world.html#a6794c083c2a0263c2f585f4ae4b7e39c" target="_top" xlink:title="BoxWorld.updateSprites">
<polygon fill="white" stroke="black" points="1219.5,-294.5 1219.5,-313.5 1350.5,-313.5 1350.5,-294.5 1219.5,-294.5"/>
<text text-anchor="middle" x="1285" y="-301.5" font-family="Helvetica,sans-Serif" font-size="10.00">BoxWorld.updateSprites</text>
</a>
</g>
</g>
<!-- Node29&#45;&gt;Node30 -->
<g id="edge33" class="edge"><title>Node29&#45;&gt;Node30</title>
<path fill="none" stroke="midnightblue" d="M1119.02,-491.952C1135.4,-489.508 1153.65,-484.612 1168,-475 1225.51,-436.472 1262.22,-358.878 1276.82,-322.996"/>
<polygon fill="midnightblue" stroke="midnightblue" points="1280.09,-324.254 1280.5,-313.667 1273.58,-321.688 1280.09,-324.254"/>
</g>
<!-- Node30&#45;&gt;Node10 -->
<g id="edge42" class="edge"><title>Node30&#45;&gt;Node10</title>
<path fill="none" stroke="midnightblue" d="M1350.64,-304.238C1439.02,-303.733 1602.31,-299.833 1740,-280 1759.09,-277.251 1779.86,-272.607 1797.58,-268.132"/>
<polygon fill="midnightblue" stroke="midnightblue" points="1798.82,-271.427 1807.63,-265.533 1797.07,-264.65 1798.82,-271.427"/>
</g>
<!-- Node30&#45;&gt;Node12 -->
<g id="edge43" class="edge"><title>Node30&#45;&gt;Node12</title>
<path fill="none" stroke="midnightblue" d="M1350.88,-297.108C1457.97,-285.52 1667.14,-261.94 1740,-247 1743.08,-246.368 1772.14,-238.004 1798.31,-230.42"/>
<polygon fill="midnightblue" stroke="midnightblue" points="1799.5,-233.718 1808.13,-227.57 1797.55,-226.995 1799.5,-233.718"/>
</g>
<!-- Node30&#45;&gt;Node15 -->
<g id="edge45" class="edge"><title>Node30&#45;&gt;Node15</title>
<path fill="none" stroke="midnightblue" d="M1350.59,-295.631C1356.28,-292.92 1361.56,-289.443 1366,-285 1415.08,-235.894 1352.86,-182.038 1402,-133 1405.11,-129.901 1408.61,-127.27 1412.39,-125.039"/>
<polygon fill="midnightblue" stroke="midnightblue" points="1414.16,-128.068 1421.6,-120.53 1411.08,-121.781 1414.16,-128.068"/>
</g>
<!-- Node30&#45;&gt;Node16 -->
<g id="edge46" class="edge"><title>Node30&#45;&gt;Node16</title>
<path fill="none" stroke="midnightblue" d="M1350.65,-295.109C1356.26,-292.492 1361.5,-289.18 1366,-285 1404.91,-248.82 1363.04,-207.126 1402,-171 1403.68,-169.444 1405.46,-168.008 1407.32,-166.683"/>
<polygon fill="midnightblue" stroke="midnightblue" points="1409.15,-169.666 1415.97,-161.555 1405.58,-163.645 1409.15,-169.666"/>
</g>
<!-- Node31 -->
<g id="node31" class="node"><title>Node31</title>
<g id="a_node31"><a xlink:href="../../db/d97/class_box_world.html#a4079bed8937c9f621decfbe1309e31e2" target="_top" xlink:title="BoxWorld.checkAllCollisions">
<polygon fill="white" stroke="black" points="1411,-218.5 1411,-237.5 1557,-237.5 1557,-218.5 1411,-218.5"/>
<text text-anchor="middle" x="1484" y="-225.5" font-family="Helvetica,sans-Serif" font-size="10.00">BoxWorld.checkAllCollisions</text>
</a>
</g>
</g>
<!-- Node30&#45;&gt;Node31 -->
<g id="edge34" class="edge"><title>Node30&#45;&gt;Node31</title>
<path fill="none" stroke="midnightblue" d="M1342.41,-294.445C1350.58,-291.975 1358.69,-288.879 1366,-285 1385.18,-274.832 1383.11,-262.691 1402,-252 1409.97,-247.491 1418.87,-243.754 1427.77,-240.68"/>
<polygon fill="midnightblue" stroke="midnightblue" points="1428.93,-243.984 1437.38,-237.6 1426.79,-237.317 1428.93,-243.984"/>
</g>
<!-- Node35 -->
<g id="node35" class="node"><title>Node35</title>
<g id="a_node35"><a xlink:href="../../da/de2/class_sticky_box.html#a185ee469367b376e6c5969a03d089d57" target="_top" xlink:title="StickyBox.move">
<polygon fill="white" stroke="black" points="1437.5,-370.5 1437.5,-389.5 1530.5,-389.5 1530.5,-370.5 1437.5,-370.5"/>
<text text-anchor="middle" x="1484" y="-377.5" font-family="Helvetica,sans-Serif" font-size="10.00">StickyBox.move</text>
</a>
</g>
</g>
<!-- Node30&#45;&gt;Node35 -->
<g id="edge44" class="edge"><title>Node30&#45;&gt;Node35</title>
<path fill="none" stroke="midnightblue" d="M1302.39,-313.536C1324.4,-325.994 1365.03,-347.773 1402,-361 1410.2,-363.934 1419.03,-366.54 1427.74,-368.81"/>
<polygon fill="midnightblue" stroke="midnightblue" points="1426.94,-372.216 1437.49,-371.229 1428.63,-365.422 1426.94,-372.216"/>
</g>
<!-- Node36 -->
<g id="node36" class="node"><title>Node36</title>
<g id="a_node36"><a xlink:href="../../da/de2/class_sticky_box.html#a59337f0aa3c7379a2cb9c76bdc621daf" target="_top" xlink:title="StickyBox.setStuck">
<polygon fill="white" stroke="black" points="1430,-332.5 1430,-351.5 1538,-351.5 1538,-332.5 1430,-332.5"/>
<text text-anchor="middle" x="1484" y="-339.5" font-family="Helvetica,sans-Serif" font-size="10.00">StickyBox.setStuck</text>
</a>
</g>
</g>
<!-- Node30&#45;&gt;Node36 -->
<g id="edge47" class="edge"><title>Node30&#45;&gt;Node36</title>
<path fill="none" stroke="midnightblue" d="M1335.46,-313.54C1362.15,-318.69 1395.3,-325.084 1423.42,-330.506"/>
<polygon fill="midnightblue" stroke="midnightblue" points="1423.04,-333.999 1433.52,-332.456 1424.37,-327.125 1423.04,-333.999"/>
</g>
<!-- Node31&#45;&gt;Node17 -->
<g id="edge41" class="edge"><title>Node31&#45;&gt;Node17</title>
<path fill="none" stroke="midnightblue" d="M1410.77,-223.363C1346.93,-219.332 1251.29,-213.456 1168,-209 1045.31,-202.436 901.733,-196.032 822.103,-192.593"/>
<polygon fill="midnightblue" stroke="midnightblue" points="821.913,-189.082 811.772,-192.148 821.612,-196.075 821.913,-189.082"/>
</g>
<!-- Node32 -->
<g id="node32" class="node"><title>Node32</title>
<g id="a_node32"><a xlink:href="../../db/d97/class_box_world.html#a55add11037cd6dc48556f2f42a9e11be" target="_top" xlink:title="BoxWorld.checkCollide">
<polygon fill="white" stroke="black" points="1610,-218.5 1610,-237.5 1732,-237.5 1732,-218.5 1610,-218.5"/>
<text text-anchor="middle" x="1671" y="-225.5" font-family="Helvetica,sans-Serif" font-size="10.00">BoxWorld.checkCollide</text>
</a>
</g>
</g>
<!-- Node31&#45;&gt;Node32 -->
<g id="edge35" class="edge"><title>Node31&#45;&gt;Node32</title>
<path fill="none" stroke="midnightblue" d="M1557.06,-228C1571.1,-228 1585.8,-228 1599.78,-228"/>
<polygon fill="midnightblue" stroke="midnightblue" points="1599.82,-231.5 1609.82,-228 1599.82,-224.5 1599.82,-231.5"/>
</g>
<!-- Node33 -->
<g id="node33" class="node"><title>Node33</title>
<g id="a_node33"><a xlink:href="../../db/d97/class_box_world.html#a72bacb2a6757900d8835249929fcc838" target="_top" xlink:title="BoxWorld.loseGame">
<polygon fill="white" stroke="black" points="1615,-47.5 1615,-66.5 1727,-66.5 1727,-47.5 1615,-47.5"/>
<text text-anchor="middle" x="1671" y="-54.5" font-family="Helvetica,sans-Serif" font-size="10.00">BoxWorld.loseGame</text>
</a>
</g>
</g>
<!-- Node31&#45;&gt;Node33 -->
<g id="edge38" class="edge"><title>Node31&#45;&gt;Node33</title>
<path fill="none" stroke="midnightblue" d="M1550.28,-218.357C1555.93,-215.884 1561.28,-212.812 1566,-209 1595.08,-185.516 1581.33,-164.137 1602,-133 1616.71,-110.848 1637.56,-88.5299 1652.29,-73.865"/>
<polygon fill="midnightblue" stroke="midnightblue" points="1655.06,-76.0496 1659.76,-66.5549 1650.17,-71.0455 1655.06,-76.0496"/>
</g>
<!-- Node34 -->
<g id="node34" class="node"><title>Node34</title>
<g id="a_node34"><a xlink:href="../../db/d97/class_box_world.html#a167adb49603af3a303ee958011243b5f" target="_top" xlink:title="BoxWorld.onScreen">
<polygon fill="white" stroke="black" points="1616.5,-180.5 1616.5,-199.5 1725.5,-199.5 1725.5,-180.5 1616.5,-180.5"/>
<text text-anchor="middle" x="1671" y="-187.5" font-family="Helvetica,sans-Serif" font-size="10.00">BoxWorld.onScreen</text>
</a>
</g>
</g>
<!-- Node31&#45;&gt;Node34 -->
<g id="edge40" class="edge"><title>Node31&#45;&gt;Node34</title>
<path fill="none" stroke="midnightblue" d="M1531.68,-218.411C1556.65,-213.284 1587.56,-206.933 1613.83,-201.537"/>
<polygon fill="midnightblue" stroke="midnightblue" points="1614.56,-204.961 1623.65,-199.52 1613.15,-198.104 1614.56,-204.961"/>
</g>
<!-- Node32&#45;&gt;Node10 -->
<g id="edge36" class="edge"><title>Node32&#45;&gt;Node10</title>
<path fill="none" stroke="midnightblue" d="M1729.69,-237.558C1743.83,-239.9 1759.08,-242.428 1773.63,-244.839"/>
<polygon fill="midnightblue" stroke="midnightblue" points="1773.13,-248.304 1783.57,-246.485 1774.28,-241.398 1773.13,-248.304"/>
</g>
<!-- Node32&#45;&gt;Node12 -->
<g id="edge37" class="edge"><title>Node32&#45;&gt;Node12</title>
<path fill="none" stroke="midnightblue" d="M1732.06,-224.446C1743.29,-223.782 1755.14,-223.08 1766.74,-222.394"/>
<polygon fill="midnightblue" stroke="midnightblue" points="1767.06,-225.881 1776.84,-221.797 1766.65,-218.893 1767.06,-225.881"/>
</g>
<!-- Node33&#45;&gt;Node1 -->
<g id="edge39" class="edge"><title>Node33&#45;&gt;Node1</title>
<path fill="none" stroke="midnightblue" d="M1631.58,-47.4595C1562.76,-31.233 1413.72,-0 1286,-0 273,-0 273,-0 273,-0 192.691,-0 107.33,-50.0709 68.08,-76.3348"/>
<polygon fill="midnightblue" stroke="midnightblue" points="65.841,-73.6255 59.5554,-82.1544 69.7878,-79.4068 65.841,-73.6255"/>
</g>
</g>
</svg>
