<?xml version="1.0" encoding="UTF-8" standalone="no"?>
<!DOCTYPE svg PUBLIC "-//W3C//DTD SVG 1.1//EN"
 "http://www.w3.org/Graphics/SVG/1.1/DTD/svg11.dtd">
<!-- Generated by graphviz version 2.36.0 (20140111.2315)
 -->
<!-- Title: LoseScreen.init Pages: 1 -->
<svg width="1884pt" height="360pt"
 viewBox="0.00 0.00 1884.00 360.00" xmlns="http://www.w3.org/2000/svg" xmlns:xlink="http://www.w3.org/1999/xlink">
<g id="graph0" class="graph" transform="scale(1 1) rotate(0) translate(4 356)">
<title>LoseScreen.init</title>
<polygon fill="white" stroke="none" points="-4,4 -4,-356 1880,-356 1880,4 -4,4"/>
<!-- Node1 -->
<g id="node1" class="node"><title>Node1</title>
<polygon fill="#bfbfbf" stroke="black" points="0,-51.5 0,-70.5 90,-70.5 90,-51.5 0,-51.5"/>
<text text-anchor="middle" x="45" y="-58.5" font-family="Helvetica,sans-Serif" font-size="10.00">LoseScreen.init</text>
</g>
<!-- Node2 -->
<g id="node2" class="node"><title>Node2</title>
<g id="a_node2"><a xlink:href="../../d2/db8/class_menu.html#a3c99ad09e9f2f975c1a0d0597642651a" target="_top" xlink:title="Menu.init">
<polygon fill="white" stroke="black" points="126,-113.5 126,-132.5 186,-132.5 186,-113.5 126,-113.5"/>
<text text-anchor="middle" x="156" y="-120.5" font-family="Helvetica,sans-Serif" font-size="10.00">Menu.init</text>
</a>
</g>
</g>
<!-- Node1&#45;&gt;Node2 -->
<g id="edge1" class="edge"><title>Node1&#45;&gt;Node2</title>
<path fill="none" stroke="midnightblue" d="M63.0312,-70.6875C80.789,-80.7882 108.833,-96.7399 129.288,-108.375"/>
<polygon fill="midnightblue" stroke="midnightblue" points="127.666,-111.479 138.088,-113.381 131.127,-105.394 127.666,-111.479"/>
</g>
<!-- Node3 -->
<g id="node3" class="node"><title>Node3</title>
<g id="a_node3"><a xlink:href="../../d2/db8/class_menu.html#a8a6e6125f0dc2dc7e19c6655ba6376a2" target="_top" xlink:title="Menu.addIntroText">
<polygon fill="white" stroke="black" points="222,-113.5 222,-132.5 326,-132.5 326,-113.5 222,-113.5"/>
<text text-anchor="middle" x="274" y="-120.5" font-family="Helvetica,sans-Serif" font-size="10.00">Menu.addIntroText</text>
</a>
</g>
</g>
<!-- Node2&#45;&gt;Node3 -->
<g id="edge2" class="edge"><title>Node2&#45;&gt;Node3</title>
<path fill="none" stroke="midnightblue" d="M186.272,-123C193.99,-123 202.617,-123 211.354,-123"/>
<polygon fill="midnightblue" stroke="midnightblue" points="211.614,-126.5 221.614,-123 211.614,-119.5 211.614,-126.5"/>
</g>
<!-- Node4 -->
<g id="node4" class="node"><title>Node4</title>
<g id="a_node4"><a xlink:href="../../db/d97/class_box_world.html#a55bf92d3f466bfaade0f6d199d8c9bd9" target="_top" xlink:title="BoxWorld.init">
<polygon fill="white" stroke="black" points="235.5,-237.5 235.5,-256.5 312.5,-256.5 312.5,-237.5 235.5,-237.5"/>
<text text-anchor="middle" x="274" y="-244.5" font-family="Helvetica,sans-Serif" font-size="10.00">BoxWorld.init</text>
</a>
</g>
</g>
<!-- Node2&#45;&gt;Node4 -->
<g id="edge3" class="edge"><title>Node2&#45;&gt;Node4</title>
<path fill="none" stroke="midnightblue" d="M166.102,-132.73C185.754,-153.737 232.366,-203.564 257.041,-229.94"/>
<polygon fill="midnightblue" stroke="midnightblue" points="254.552,-232.403 263.94,-237.315 259.664,-227.621 254.552,-232.403"/>
</g>
<!-- Node5 -->
<g id="node5" class="node"><title>Node5</title>
<g id="a_node5"><a xlink:href="../../db/d97/class_box_world.html#a69798621c944e846f045aaf3937505f9" target="_top" xlink:title="BoxWorld.addStarterObjects">
<polygon fill="white" stroke="black" points="984.5,-256.5 984.5,-275.5 1135.5,-275.5 1135.5,-256.5 984.5,-256.5"/>
<text text-anchor="middle" x="1060" y="-263.5" font-family="Helvetica,sans-Serif" font-size="10.00">BoxWorld.addStarterObjects</text>
</a>
</g>
</g>
<!-- Node4&#45;&gt;Node5 -->
<g id="edge4" class="edge"><title>Node4&#45;&gt;Node5</title>
<path fill="none" stroke="midnightblue" d="M312.516,-250.663C372.39,-256.185 493.279,-266 596,-266 596,-266 596,-266 761,-266 832.893,-266 914.542,-266 974.173,-266"/>
<polygon fill="midnightblue" stroke="midnightblue" points="974.295,-269.5 984.294,-266 974.294,-262.5 974.295,-269.5"/>
</g>
<!-- Node7 -->
<g id="node7" class="node"><title>Node7</title>
<g id="a_node7"><a xlink:href="../../db/d97/class_box_world.html#a726e747e023543658d7a345cc6466ccb" target="_top" xlink:title="BoxWorld.createScene">
<polygon fill="white" stroke="black" points="362,-199.5 362,-218.5 486,-218.5 486,-199.5 362,-199.5"/>
<text text-anchor="middle" x="424" y="-206.5" font-family="Helvetica,sans-Serif" font-size="10.00">BoxWorld.createScene</text>
</a>
</g>
</g>
<!-- Node4&#45;&gt;Node7 -->
<g id="edge6" class="edge"><title>Node4&#45;&gt;Node7</title>
<path fill="none" stroke="midnightblue" d="M312.347,-237.411C331.701,-232.442 355.53,-226.323 376.113,-221.039"/>
<polygon fill="midnightblue" stroke="midnightblue" points="377.107,-224.397 385.922,-218.52 375.366,-217.617 377.107,-224.397"/>
</g>
<!-- Node22 -->
<g id="node22" class="node"><title>Node22</title>
<g id="a_node22"><a xlink:href="../../db/d97/class_box_world.html#ad20a4e43406c44f4bbf201d1d1028998" target="_top" xlink:title="BoxWorld.start">
<polygon fill="white" stroke="black" points="1017,-294.5 1017,-313.5 1103,-313.5 1103,-294.5 1017,-294.5"/>
<text text-anchor="middle" x="1060" y="-301.5" font-family="Helvetica,sans-Serif" font-size="10.00">BoxWorld.start</text>
</a>
</g>
</g>
<!-- Node4&#45;&gt;Node22 -->
<g id="edge41" class="edge"><title>Node4&#45;&gt;Node22</title>
<path fill="none" stroke="midnightblue" d="M302.917,-256.575C319.839,-262.069 341.961,-268.707 362,-273 464.581,-294.978 491.091,-304 596,-304 596,-304 596,-304 761,-304 846.898,-304 946.724,-304 1006.28,-304"/>
<polygon fill="midnightblue" stroke="midnightblue" points="1006.56,-307.5 1016.56,-304 1006.56,-300.5 1006.56,-307.5"/>
</g>
<!-- Node6 -->
<g id="node6" class="node"><title>Node6</title>
<g id="a_node6"><a xlink:href="../../db/d97/class_box_world.html#a2542cc74ebeba6a9768a443a55186901" target="_top" xlink:title="BoxWorld.createObstacleArray">
<polygon fill="white" stroke="black" points="1172.5,-256.5 1172.5,-275.5 1333.5,-275.5 1333.5,-256.5 1172.5,-256.5"/>
<text text-anchor="middle" x="1253" y="-263.5" font-family="Helvetica,sans-Serif" font-size="10.00">BoxWorld.createObstacleArray</text>
</a>
</g>
</g>
<!-- Node5&#45;&gt;Node6 -->
<g id="edge5" class="edge"><title>Node5&#45;&gt;Node6</title>
<path fill="none" stroke="midnightblue" d="M1135.67,-266C1144.41,-266 1153.4,-266 1162.31,-266"/>
<polygon fill="midnightblue" stroke="midnightblue" points="1162.34,-269.5 1172.34,-266 1162.34,-262.5 1162.34,-269.5"/>
</g>
<!-- Node8 -->
<g id="node8" class="node"><title>Node8</title>
<g id="a_node8"><a xlink:href="../../db/d97/class_box_world.html#aa7e2049d7be23e15fd2ec7fa2922ed79" target="_top" xlink:title="BoxWorld.handleKeyInput">
<polygon fill="white" stroke="black" points="529,-104.5 529,-123.5 665,-123.5 665,-104.5 529,-104.5"/>
<text text-anchor="middle" x="597" y="-111.5" font-family="Helvetica,sans-Serif" font-size="10.00">BoxWorld.handleKeyInput</text>
</a>
</g>
</g>
<!-- Node7&#45;&gt;Node8 -->
<g id="edge7" class="edge"><title>Node7&#45;&gt;Node8</title>
<path fill="none" stroke="midnightblue" d="M442.337,-199.368C472.502,-182.61 534.785,-148.008 570.094,-128.392"/>
<polygon fill="midnightblue" stroke="midnightblue" points="571.829,-131.432 578.871,-123.516 568.43,-125.313 571.829,-131.432"/>
</g>
<!-- Node30 -->
<g id="node30" class="node"><title>Node30</title>
<g id="a_node30"><a xlink:href="../../db/d97/class_box_world.html#a2d44485a181577acb4d79b6b81f26fff" target="_top" xlink:title="BoxWorld.handleKeyRelease">
<polygon fill="white" stroke="black" points="522.5,-218.5 522.5,-237.5 671.5,-237.5 671.5,-218.5 522.5,-218.5"/>
<text text-anchor="middle" x="597" y="-225.5" font-family="Helvetica,sans-Serif" font-size="10.00">BoxWorld.handleKeyRelease</text>
</a>
</g>
</g>
<!-- Node7&#45;&gt;Node30 -->
<g id="edge40" class="edge"><title>Node7&#45;&gt;Node30</title>
<path fill="none" stroke="midnightblue" d="M486.252,-215.806C494.655,-216.739 503.399,-217.711 512.121,-218.68"/>
<polygon fill="midnightblue" stroke="midnightblue" points="512.002,-222.188 522.327,-219.814 512.775,-215.231 512.002,-222.188"/>
</g>
<!-- Node9 -->
<g id="node9" class="node"><title>Node9</title>
<g id="a_node9"><a xlink:href="../../db/d97/class_box_world.html#adc4c9d78ffde3d052c4c92047eb98e55" target="_top" xlink:title="BoxWorld.allowMovement">
<polygon fill="white" stroke="black" points="1570.5,-142.5 1570.5,-161.5 1707.5,-161.5 1707.5,-142.5 1570.5,-142.5"/>
<text text-anchor="middle" x="1639" y="-149.5" font-family="Helvetica,sans-Serif" font-size="10.00">BoxWorld.allowMovement</text>
</a>
</g>
</g>
<!-- Node8&#45;&gt;Node9 -->
<g id="edge8" class="edge"><title>Node8&#45;&gt;Node9</title>
<path fill="none" stroke="midnightblue" d="M620.016,-104.375C668.862,-83.924 790.415,-38 897,-38 897,-38 897,-38 1254,-38 1381,-38 1414.75,-51.3223 1534,-95 1563.51,-105.808 1594.8,-123.989 1615.26,-136.91"/>
<polygon fill="midnightblue" stroke="midnightblue" points="1613.54,-139.97 1623.85,-142.431 1617.33,-134.081 1613.54,-139.97"/>
</g>
<!-- Node14 -->
<g id="node14" class="node"><title>Node14</title>
<g id="a_node14"><a xlink:href="../../db/d97/class_box_world.html#a04c6bf977c4292a5433649fb3745fd6b" target="_top" xlink:title="BoxWorld.reset">
<polygon fill="white" stroke="black" points="1209,-104.5 1209,-123.5 1297,-123.5 1297,-104.5 1209,-104.5"/>
<text text-anchor="middle" x="1253" y="-111.5" font-family="Helvetica,sans-Serif" font-size="10.00">BoxWorld.reset</text>
</a>
</g>
</g>
<!-- Node8&#45;&gt;Node14 -->
<g id="edge13" class="edge"><title>Node8&#45;&gt;Node14</title>
<path fill="none" stroke="midnightblue" d="M665.221,-114C795.58,-114 1080.3,-114 1198.7,-114"/>
<polygon fill="midnightblue" stroke="midnightblue" points="1198.96,-117.5 1208.96,-114 1198.96,-110.5 1198.96,-117.5"/>
</g>
<!-- Node15 -->
<g id="node15" class="node"><title>Node15</title>
<g id="a_node15"><a xlink:href="../../da/de2/class_sticky_box.html#aa1bb8f78f676b01c688d75d386758444" target="_top" xlink:title="StickyBox.setDirection">
<polygon fill="white" stroke="black" points="1390,-104.5 1390,-123.5 1514,-123.5 1514,-104.5 1390,-104.5"/>
<text text-anchor="middle" x="1452" y="-111.5" font-family="Helvetica,sans-Serif" font-size="10.00">StickyBox.setDirection</text>
</a>
</g>
</g>
<!-- Node8&#45;&gt;Node15 -->
<g id="edge16" class="edge"><title>Node8&#45;&gt;Node15</title>
<path fill="none" stroke="midnightblue" d="M644.124,-104.46C702.66,-93.2037 806.866,-76 897,-76 897,-76 897,-76 1061,-76 1182.63,-76 1213.18,-81.0152 1334,-95 1351.77,-97.0571 1370.97,-99.9082 1388.57,-102.777"/>
<polygon fill="midnightblue" stroke="midnightblue" points="1388.29,-106.278 1398.72,-104.462 1389.43,-99.3723 1388.29,-106.278"/>
</g>
<!-- Node17 -->
<g id="node17" class="node"><title>Node17</title>
<g id="a_node17"><a xlink:href="../../db/d97/class_box_world.html#aad670712776afe126e51791097027e05" target="_top" xlink:title="BoxWorld.winLevel">
<polygon fill="white" stroke="black" points="708.5,-142.5 708.5,-161.5 811.5,-161.5 811.5,-142.5 708.5,-142.5"/>
<text text-anchor="middle" x="760" y="-149.5" font-family="Helvetica,sans-Serif" font-size="10.00">BoxWorld.winLevel</text>
</a>
</g>
</g>
<!-- Node8&#45;&gt;Node17 -->
<g id="edge17" class="edge"><title>Node8&#45;&gt;Node17</title>
<path fill="none" stroke="midnightblue" d="M638.627,-123.589C659.968,-128.626 686.312,-134.844 708.908,-140.177"/>
<polygon fill="midnightblue" stroke="midnightblue" points="708.128,-143.589 718.665,-142.48 709.736,-136.776 708.128,-143.589"/>
</g>
<!-- Node10 -->
<g id="node10" class="node"><title>Node10</title>
<g id="a_node10"><a xlink:href="../../da/de2/class_sticky_box.html#a6ba3f89630df9d81df5644a3e5f4e387" target="_top" xlink:title="StickyBox.getXDirection">
<polygon fill="white" stroke="black" points="1744.5,-246.5 1744.5,-265.5 1875.5,-265.5 1875.5,-246.5 1744.5,-246.5"/>
<text text-anchor="middle" x="1810" y="-253.5" font-family="Helvetica,sans-Serif" font-size="10.00">StickyBox.getXDirection</text>
</a>
</g>
</g>
<!-- Node9&#45;&gt;Node10 -->
<g id="edge9" class="edge"><title>Node9&#45;&gt;Node10</title>
<path fill="none" stroke="midnightblue" d="M1691.57,-161.552C1697.47,-164.013 1703.11,-167.108 1708,-171 1734.15,-191.8 1717.98,-216.044 1744,-237 1746.28,-238.832 1748.72,-240.487 1751.28,-241.983"/>
<polygon fill="midnightblue" stroke="midnightblue" points="1749.85,-245.177 1760.36,-246.478 1752.95,-238.904 1749.85,-245.177"/>
</g>
<!-- Node11 -->
<g id="node11" class="node"><title>Node11</title>
<g id="a_node11"><a xlink:href="../../da/de2/class_sticky_box.html#ab0bd7cafb7f243e3951558ddb8728b96" target="_top" xlink:title="StickyBox.getXPrev">
<polygon fill="white" stroke="black" points="1755.5,-113.5 1755.5,-132.5 1864.5,-132.5 1864.5,-113.5 1755.5,-113.5"/>
<text text-anchor="middle" x="1810" y="-120.5" font-family="Helvetica,sans-Serif" font-size="10.00">StickyBox.getXPrev</text>
</a>
</g>
</g>
<!-- Node9&#45;&gt;Node11 -->
<g id="edge10" class="edge"><title>Node9&#45;&gt;Node11</title>
<path fill="none" stroke="midnightblue" d="M1695.81,-142.424C1711.65,-139.705 1729.02,-136.724 1745.3,-133.932"/>
<polygon fill="midnightblue" stroke="midnightblue" points="1746,-137.362 1755.26,-132.221 1744.82,-130.463 1746,-137.362"/>
</g>
<!-- Node12 -->
<g id="node12" class="node"><title>Node12</title>
<g id="a_node12"><a xlink:href="../../da/de2/class_sticky_box.html#a69e5ccf2a79159c03dea2e048df13318" target="_top" xlink:title="StickyBox.getYDirection">
<polygon fill="white" stroke="black" points="1745,-208.5 1745,-227.5 1875,-227.5 1875,-208.5 1745,-208.5"/>
<text text-anchor="middle" x="1810" y="-215.5" font-family="Helvetica,sans-Serif" font-size="10.00">StickyBox.getYDirection</text>
</a>
</g>
</g>
<!-- Node9&#45;&gt;Node12 -->
<g id="edge11" class="edge"><title>Node9&#45;&gt;Node12</title>
<path fill="none" stroke="midnightblue" d="M1678.47,-161.572C1688.21,-164.314 1698.57,-167.516 1708,-171 1733.57,-180.449 1761.6,-193.739 1781.63,-203.777"/>
<polygon fill="midnightblue" stroke="midnightblue" points="1780.27,-207.013 1790.77,-208.413 1783.43,-200.77 1780.27,-207.013"/>
</g>
<!-- Node13 -->
<g id="node13" class="node"><title>Node13</title>
<g id="a_node13"><a xlink:href="../../da/de2/class_sticky_box.html#a4c6abed944faed9d9b226079e99cfc24" target="_top" xlink:title="StickyBox.getYPrev">
<polygon fill="white" stroke="black" points="1756,-151.5 1756,-170.5 1864,-170.5 1864,-151.5 1756,-151.5"/>
<text text-anchor="middle" x="1810" y="-158.5" font-family="Helvetica,sans-Serif" font-size="10.00">StickyBox.getYPrev</text>
</a>
</g>
</g>
<!-- Node9&#45;&gt;Node13 -->
<g id="edge12" class="edge"><title>Node9&#45;&gt;Node13</title>
<path fill="none" stroke="midnightblue" d="M1707.76,-155.609C1720.25,-156.274 1733.24,-156.965 1745.59,-157.623"/>
<polygon fill="midnightblue" stroke="midnightblue" points="1745.61,-161.129 1755.78,-158.166 1745.98,-154.139 1745.61,-161.129"/>
</g>
<!-- Node14&#45;&gt;Node15 -->
<g id="edge14" class="edge"><title>Node14&#45;&gt;Node15</title>
<path fill="none" stroke="midnightblue" d="M1297.23,-114C1321.44,-114 1352.24,-114 1379.9,-114"/>
<polygon fill="midnightblue" stroke="midnightblue" points="1379.93,-117.5 1389.93,-114 1379.93,-110.5 1379.93,-117.5"/>
</g>
<!-- Node16 -->
<g id="node16" class="node"><title>Node16</title>
<g id="a_node16"><a xlink:href="../../da/de2/class_sticky_box.html#a5d95d2ed2e13f0d87a44311db77f9e36" target="_top" xlink:title="StickyBox.setPreviousDirection">
<polygon fill="white" stroke="black" points="1370,-142.5 1370,-161.5 1534,-161.5 1534,-142.5 1370,-142.5"/>
<text text-anchor="middle" x="1452" y="-149.5" font-family="Helvetica,sans-Serif" font-size="10.00">StickyBox.setPreviousDirection</text>
</a>
</g>
</g>
<!-- Node14&#45;&gt;Node16 -->
<g id="edge15" class="edge"><title>Node14&#45;&gt;Node16</title>
<path fill="none" stroke="midnightblue" d="M1297.23,-122.339C1324.91,-127.678 1361.2,-134.678 1391.57,-140.536"/>
<polygon fill="midnightblue" stroke="midnightblue" points="1391.14,-144.018 1401.62,-142.475 1392.47,-137.145 1391.14,-144.018"/>
</g>
<!-- Node18 -->
<g id="node18" class="node"><title>Node18</title>
<g id="a_node18"><a xlink:href="../../d6/d4f/class_item_box_world.html#aa559fc2680327b41fb376e2eda8e82e3" target="_top" xlink:title="ItemBoxWorld.init">
<polygon fill="white" stroke="black" points="848.5,-199.5 848.5,-218.5 947.5,-218.5 947.5,-199.5 848.5,-199.5"/>
<text text-anchor="middle" x="898" y="-206.5" font-family="Helvetica,sans-Serif" font-size="10.00">ItemBoxWorld.init</text>
</a>
</g>
</g>
<!-- Node17&#45;&gt;Node18 -->
<g id="edge18" class="edge"><title>Node17&#45;&gt;Node18</title>
<path fill="none" stroke="midnightblue" d="M783.763,-161.541C805.926,-170.829 839.822,-185.036 864.755,-195.486"/>
<polygon fill="midnightblue" stroke="midnightblue" points="863.587,-198.791 874.162,-199.428 866.293,-192.335 863.587,-198.791"/>
</g>
<!-- Node18&#45;&gt;Node5 -->
<g id="edge22" class="edge"><title>Node18&#45;&gt;Node5</title>
<path fill="none" stroke="midnightblue" d="M925.78,-218.541C952.316,-227.994 993.148,-242.54 1022.61,-253.037"/>
<polygon fill="midnightblue" stroke="midnightblue" points="1021.54,-256.369 1032.13,-256.428 1023.89,-249.775 1021.54,-256.369"/>
</g>
<!-- Node18&#45;&gt;Node7 -->
<g id="edge23" class="edge"><title>Node18&#45;&gt;Node7</title>
<path fill="none" stroke="midnightblue" d="M848.411,-209C764.803,-209 593.376,-209 496.247,-209"/>
<polygon fill="midnightblue" stroke="midnightblue" points="496.222,-205.5 486.222,-209 496.222,-212.5 496.222,-205.5"/>
</g>
<!-- Node19 -->
<g id="node19" class="node"><title>Node19</title>
<g id="a_node19"><a xlink:href="../../d6/d4f/class_item_box_world.html#a7ead15fd9fd8095f928640161d48fdf8" target="_top" xlink:title="ItemBoxWorld.addAllItems">
<polygon fill="white" stroke="black" points="989.5,-199.5 989.5,-218.5 1130.5,-218.5 1130.5,-199.5 989.5,-199.5"/>
<text text-anchor="middle" x="1060" y="-206.5" font-family="Helvetica,sans-Serif" font-size="10.00">ItemBoxWorld.addAllItems</text>
</a>
</g>
</g>
<!-- Node18&#45;&gt;Node19 -->
<g id="edge19" class="edge"><title>Node18&#45;&gt;Node19</title>
<path fill="none" stroke="midnightblue" d="M947.875,-209C957.764,-209 968.405,-209 979.045,-209"/>
<polygon fill="midnightblue" stroke="midnightblue" points="979.222,-212.5 989.222,-209 979.222,-205.5 979.222,-212.5"/>
</g>
<!-- Node18&#45;&gt;Node22 -->
<g id="edge24" class="edge"><title>Node18&#45;&gt;Node22</title>
<path fill="none" stroke="midnightblue" d="M906.851,-218.539C920.704,-234.728 951.143,-267.524 984,-285 991.166,-288.812 999.129,-291.883 1007.11,-294.35"/>
<polygon fill="midnightblue" stroke="midnightblue" points="1006.23,-297.739 1016.81,-297.07 1008.12,-290.999 1006.23,-297.739"/>
</g>
<!-- Node20 -->
<g id="node20" class="node"><title>Node20</title>
<g id="a_node20"><a xlink:href="../../d6/d4f/class_item_box_world.html#af1bcde0672796e926560684004ed8e81" target="_top" xlink:title="ItemBoxWorld.addSingleItem">
<polygon fill="white" stroke="black" points="1176,-218.5 1176,-237.5 1330,-237.5 1330,-218.5 1176,-218.5"/>
<text text-anchor="middle" x="1253" y="-225.5" font-family="Helvetica,sans-Serif" font-size="10.00">ItemBoxWorld.addSingleItem</text>
</a>
</g>
</g>
<!-- Node19&#45;&gt;Node20 -->
<g id="edge20" class="edge"><title>Node19&#45;&gt;Node20</title>
<path fill="none" stroke="midnightblue" d="M1130.77,-215.94C1142.14,-217.072 1154.04,-218.255 1165.75,-219.421"/>
<polygon fill="midnightblue" stroke="midnightblue" points="1165.68,-222.931 1175.98,-220.438 1166.38,-215.965 1165.68,-222.931"/>
</g>
<!-- Node21 -->
<g id="node21" class="node"><title>Node21</title>
<g id="a_node21"><a xlink:href="../../d6/d4f/class_item_box_world.html#a1890e6c53a4a73e44e9528009fde508d" target="_top" xlink:title="ItemBoxWorld.itemExists">
<polygon fill="white" stroke="black" points="1186,-180.5 1186,-199.5 1320,-199.5 1320,-180.5 1186,-180.5"/>
<text text-anchor="middle" x="1253" y="-187.5" font-family="Helvetica,sans-Serif" font-size="10.00">ItemBoxWorld.itemExists</text>
</a>
</g>
</g>
<!-- Node19&#45;&gt;Node21 -->
<g id="edge21" class="edge"><title>Node19&#45;&gt;Node21</title>
<path fill="none" stroke="midnightblue" d="M1130.77,-202.06C1145.4,-200.604 1160.9,-199.062 1175.76,-197.584"/>
<polygon fill="midnightblue" stroke="midnightblue" points="1176.32,-201.046 1185.92,-196.573 1175.62,-194.081 1176.32,-201.046"/>
</g>
<!-- Node23 -->
<g id="node23" class="node"><title>Node23</title>
<g id="a_node23"><a xlink:href="../../db/d97/class_box_world.html#a6794c083c2a0263c2f585f4ae4b7e39c" target="_top" xlink:title="BoxWorld.updateSprites">
<polygon fill="white" stroke="black" points="1187.5,-294.5 1187.5,-313.5 1318.5,-313.5 1318.5,-294.5 1187.5,-294.5"/>
<text text-anchor="middle" x="1253" y="-301.5" font-family="Helvetica,sans-Serif" font-size="10.00">BoxWorld.updateSprites</text>
</a>
</g>
</g>
<!-- Node22&#45;&gt;Node23 -->
<g id="edge25" class="edge"><title>Node22&#45;&gt;Node23</title>
<path fill="none" stroke="midnightblue" d="M1103.39,-304C1125.03,-304 1152,-304 1177,-304"/>
<polygon fill="midnightblue" stroke="midnightblue" points="1177.2,-307.5 1187.2,-304 1177.2,-300.5 1177.2,-307.5"/>
</g>
<!-- Node23&#45;&gt;Node10 -->
<g id="edge34" class="edge"><title>Node23&#45;&gt;Node10</title>
<path fill="none" stroke="midnightblue" d="M1318.64,-304.238C1407.02,-303.733 1570.31,-299.833 1708,-280 1727.09,-277.251 1747.86,-272.607 1765.58,-268.132"/>
<polygon fill="midnightblue" stroke="midnightblue" points="1766.82,-271.427 1775.63,-265.533 1765.07,-264.65 1766.82,-271.427"/>
</g>
<!-- Node23&#45;&gt;Node12 -->
<g id="edge35" class="edge"><title>Node23&#45;&gt;Node12</title>
<path fill="none" stroke="midnightblue" d="M1318.88,-297.108C1425.97,-285.52 1635.14,-261.94 1708,-247 1711.08,-246.368 1740.14,-238.004 1766.31,-230.42"/>
<polygon fill="midnightblue" stroke="midnightblue" points="1767.5,-233.718 1776.13,-227.57 1765.55,-226.995 1767.5,-233.718"/>
</g>
<!-- Node23&#45;&gt;Node15 -->
<g id="edge37" class="edge"><title>Node23&#45;&gt;Node15</title>
<path fill="none" stroke="midnightblue" d="M1318.59,-295.631C1324.28,-292.92 1329.56,-289.443 1334,-285 1383.08,-235.894 1320.86,-182.038 1370,-133 1373.11,-129.901 1376.61,-127.27 1380.39,-125.039"/>
<polygon fill="midnightblue" stroke="midnightblue" points="1382.16,-128.068 1389.6,-120.53 1379.08,-121.781 1382.16,-128.068"/>
</g>
<!-- Node23&#45;&gt;Node16 -->
<g id="edge38" class="edge"><title>Node23&#45;&gt;Node16</title>
<path fill="none" stroke="midnightblue" d="M1318.65,-295.109C1324.26,-292.492 1329.5,-289.18 1334,-285 1372.91,-248.82 1331.04,-207.126 1370,-171 1371.68,-169.444 1373.46,-168.008 1375.32,-166.683"/>
<polygon fill="midnightblue" stroke="midnightblue" points="1377.15,-169.666 1383.97,-161.555 1373.58,-163.645 1377.15,-169.666"/>
</g>
<!-- Node24 -->
<g id="node24" class="node"><title>Node24</title>
<g id="a_node24"><a xlink:href="../../db/d97/class_box_world.html#a4079bed8937c9f621decfbe1309e31e2" target="_top" xlink:title="BoxWorld.checkAllCollisions">
<polygon fill="white" stroke="black" points="1379,-180.5 1379,-199.5 1525,-199.5 1525,-180.5 1379,-180.5"/>
<text text-anchor="middle" x="1452" y="-187.5" font-family="Helvetica,sans-Serif" font-size="10.00">BoxWorld.checkAllCollisions</text>
</a>
</g>
</g>
<!-- Node23&#45;&gt;Node24 -->
<g id="edge26" class="edge"><title>Node23&#45;&gt;Node24</title>
<path fill="none" stroke="midnightblue" d="M1318.08,-294.452C1323.81,-291.965 1329.23,-288.864 1334,-285 1363.04,-261.475 1340.92,-232.484 1370,-209 1372.06,-207.332 1374.25,-205.806 1376.53,-204.41"/>
<polygon fill="midnightblue" stroke="midnightblue" points="1378.45,-207.354 1385.72,-199.643 1375.23,-201.14 1378.45,-207.354"/>
</g>
<!-- Node28 -->
<g id="node28" class="node"><title>Node28</title>
<g id="a_node28"><a xlink:href="../../da/de2/class_sticky_box.html#a185ee469367b376e6c5969a03d089d57" target="_top" xlink:title="StickyBox.move">
<polygon fill="white" stroke="black" points="1405.5,-218.5 1405.5,-237.5 1498.5,-237.5 1498.5,-218.5 1405.5,-218.5"/>
<text text-anchor="middle" x="1452" y="-225.5" font-family="Helvetica,sans-Serif" font-size="10.00">StickyBox.move</text>
</a>
</g>
</g>
<!-- Node23&#45;&gt;Node28 -->
<g id="edge36" class="edge"><title>Node23&#45;&gt;Node28</title>
<path fill="none" stroke="midnightblue" d="M1310.41,-294.445C1318.58,-291.975 1326.69,-288.879 1334,-285 1353.18,-274.832 1351.11,-262.691 1370,-252 1377.97,-247.491 1386.87,-243.754 1395.77,-240.68"/>
<polygon fill="midnightblue" stroke="midnightblue" points="1396.93,-243.984 1405.38,-237.6 1394.79,-237.317 1396.93,-243.984"/>
</g>
<!-- Node29 -->
<g id="node29" class="node"><title>Node29</title>
<g id="a_node29"><a xlink:href="../../da/de2/class_sticky_box.html#a59337f0aa3c7379a2cb9c76bdc621daf" target="_top" xlink:title="StickyBox.setStuck">
<polygon fill="white" stroke="black" points="1398,-332.5 1398,-351.5 1506,-351.5 1506,-332.5 1398,-332.5"/>
<text text-anchor="middle" x="1452" y="-339.5" font-family="Helvetica,sans-Serif" font-size="10.00">StickyBox.setStuck</text>
</a>
</g>
</g>
<!-- Node23&#45;&gt;Node29 -->
<g id="edge39" class="edge"><title>Node23&#45;&gt;Node29</title>
<path fill="none" stroke="midnightblue" d="M1303.46,-313.54C1330.15,-318.69 1363.3,-325.084 1391.42,-330.506"/>
<polygon fill="midnightblue" stroke="midnightblue" points="1391.04,-333.999 1401.52,-332.456 1392.37,-327.125 1391.04,-333.999"/>
</g>
<!-- Node24&#45;&gt;Node17 -->
<g id="edge33" class="edge"><title>Node24&#45;&gt;Node17</title>
<path fill="none" stroke="midnightblue" d="M1401.08,-180.451C1380.4,-176.872 1356.12,-173.154 1334,-171 1148.01,-152.889 926.63,-151.124 821.808,-151.469"/>
<polygon fill="midnightblue" stroke="midnightblue" points="821.716,-147.97 811.73,-151.511 821.744,-154.97 821.716,-147.97"/>
</g>
<!-- Node25 -->
<g id="node25" class="node"><title>Node25</title>
<g id="a_node25"><a xlink:href="../../db/d97/class_box_world.html#a55add11037cd6dc48556f2f42a9e11be" target="_top" xlink:title="BoxWorld.checkCollide">
<polygon fill="white" stroke="black" points="1578,-218.5 1578,-237.5 1700,-237.5 1700,-218.5 1578,-218.5"/>
<text text-anchor="middle" x="1639" y="-225.5" font-family="Helvetica,sans-Serif" font-size="10.00">BoxWorld.checkCollide</text>
</a>
</g>
</g>
<!-- Node24&#45;&gt;Node25 -->
<g id="edge27" class="edge"><title>Node24&#45;&gt;Node25</title>
<path fill="none" stroke="midnightblue" d="M1499.68,-199.589C1524.65,-204.716 1555.56,-211.067 1581.83,-216.463"/>
<polygon fill="midnightblue" stroke="midnightblue" points="1581.15,-219.896 1591.65,-218.48 1582.56,-213.039 1581.15,-219.896"/>
</g>
<!-- Node26 -->
<g id="node26" class="node"><title>Node26</title>
<g id="a_node26"><a xlink:href="../../db/d97/class_box_world.html#a72bacb2a6757900d8835249929fcc838" target="_top" xlink:title="BoxWorld.loseGame">
<polygon fill="white" stroke="black" points="1583,-47.5 1583,-66.5 1695,-66.5 1695,-47.5 1583,-47.5"/>
<text text-anchor="middle" x="1639" y="-54.5" font-family="Helvetica,sans-Serif" font-size="10.00">BoxWorld.loseGame</text>
</a>
</g>
</g>
<!-- Node24&#45;&gt;Node26 -->
<g id="edge30" class="edge"><title>Node24&#45;&gt;Node26</title>
<path fill="none" stroke="midnightblue" d="M1512.57,-180.417C1520.06,-177.961 1527.4,-174.875 1534,-171 1536.78,-169.366 1594.35,-105.55 1622.61,-74.1276"/>
<polygon fill="midnightblue" stroke="midnightblue" points="1625.34,-76.3236 1629.43,-66.5472 1620.14,-71.6435 1625.34,-76.3236"/>
</g>
<!-- Node27 -->
<g id="node27" class="node"><title>Node27</title>
<g id="a_node27"><a xlink:href="../../db/d97/class_box_world.html#ae6ffad41f7ba6122234157c72afe8f9c" target="_top" xlink:title="BoxWorld.onScreen">
<polygon fill="white" stroke="black" points="1584.5,-180.5 1584.5,-199.5 1693.5,-199.5 1693.5,-180.5 1584.5,-180.5"/>
<text text-anchor="middle" x="1639" y="-187.5" font-family="Helvetica,sans-Serif" font-size="10.00">BoxWorld.onScreen</text>
</a>
</g>
</g>
<!-- Node24&#45;&gt;Node27 -->
<g id="edge32" class="edge"><title>Node24&#45;&gt;Node27</title>
<path fill="none" stroke="midnightblue" d="M1525.06,-190C1541.28,-190 1558.4,-190 1574.26,-190"/>
<polygon fill="midnightblue" stroke="midnightblue" points="1574.48,-193.5 1584.48,-190 1574.48,-186.5 1574.48,-193.5"/>
</g>
<!-- Node25&#45;&gt;Node10 -->
<g id="edge28" class="edge"><title>Node25&#45;&gt;Node10</title>
<path fill="none" stroke="midnightblue" d="M1697.69,-237.558C1711.83,-239.9 1727.08,-242.428 1741.63,-244.839"/>
<polygon fill="midnightblue" stroke="midnightblue" points="1741.13,-248.304 1751.57,-246.485 1742.28,-241.398 1741.13,-248.304"/>
</g>
<!-- Node25&#45;&gt;Node12 -->
<g id="edge29" class="edge"><title>Node25&#45;&gt;Node12</title>
<path fill="none" stroke="midnightblue" d="M1700.06,-224.446C1711.29,-223.782 1723.14,-223.08 1734.74,-222.394"/>
<polygon fill="midnightblue" stroke="midnightblue" points="1735.06,-225.881 1744.84,-221.797 1734.65,-218.893 1735.06,-225.881"/>
</g>
<!-- Node26&#45;&gt;Node1 -->
<g id="edge31" class="edge"><title>Node26&#45;&gt;Node1</title>
<path fill="none" stroke="midnightblue" d="M1599.58,-47.4595C1530.76,-31.233 1381.72,-0 1254,-0 273,-0 273,-0 273,-0 200.311,-0 118.877,-29.5325 76.0585,-47.5"/>
<polygon fill="midnightblue" stroke="midnightblue" points="74.5963,-44.3186 66.7779,-51.4688 77.3487,-50.7548 74.5963,-44.3186"/>
</g>
</g>
</svg>
