<?xml version="1.0" encoding="UTF-8" standalone="no"?>
<!DOCTYPE svg PUBLIC "-//W3C//DTD SVG 1.1//EN"
 "http://www.w3.org/Graphics/SVG/1.1/DTD/svg11.dtd">
<!-- Generated by graphviz version 2.36.0 (20140111.2315)
 -->
<!-- Title: ItemBoxWorld.init Pages: 1 -->
<svg width="1226pt" height="151pt"
 viewBox="0.00 0.00 1226.00 150.79" xmlns="http://www.w3.org/2000/svg" xmlns:xlink="http://www.w3.org/1999/xlink">
<g id="graph0" class="graph" transform="scale(1 1) rotate(0) translate(4 146.79)">
<title>ItemBoxWorld.init</title>
<polygon fill="white" stroke="none" points="-4,4 -4,-146.79 1222,-146.79 1222,4 -4,4"/>
<!-- Node1 -->
<g id="node1" class="node"><title>Node1</title>
<polygon fill="#bfbfbf" stroke="black" points="0.5,-19.2903 0.5,-38.2903 99.5,-38.2903 99.5,-19.2903 0.5,-19.2903"/>
<text text-anchor="middle" x="50" y="-26.2903" font-family="Helvetica,sans-Serif" font-size="10.00">ItemBoxWorld.init</text>
</g>
<!-- Node2 -->
<g id="node2" class="node"><title>Node2</title>
<g id="a_node2"><a xlink:href="../../db/d97/class_box_world.html#aad670712776afe126e51791097027e05" target="_top" xlink:title="BoxWorld.winLevel">
<polygon fill="white" stroke="black" points="136.5,-19.2903 136.5,-38.2903 239.5,-38.2903 239.5,-19.2903 136.5,-19.2903"/>
<text text-anchor="middle" x="188" y="-26.2903" font-family="Helvetica,sans-Serif" font-size="10.00">BoxWorld.winLevel</text>
</a>
</g>
</g>
<!-- Node1&#45;&gt;Node2 -->
<g id="edge1" class="edge"><title>Node1&#45;&gt;Node2</title>
<path fill="none" stroke="midnightblue" d="M109.915,-28.7903C118.715,-28.7903 127.722,-28.7903 136.331,-28.7903"/>
<polygon fill="midnightblue" stroke="midnightblue" points="109.715,-25.2904 99.715,-28.7903 109.715,-32.2904 109.715,-25.2904"/>
</g>
<!-- Node3 -->
<g id="node3" class="node"><title>Node3</title>
<g id="a_node3"><a xlink:href="../../db/d97/class_box_world.html#a4079bed8937c9f621decfbe1309e31e2" target="_top" xlink:title="BoxWorld.checkAllCollisions">
<polygon fill="white" stroke="black" points="276,-95.2903 276,-114.29 422,-114.29 422,-95.2903 276,-95.2903"/>
<text text-anchor="middle" x="349" y="-102.29" font-family="Helvetica,sans-Serif" font-size="10.00">BoxWorld.checkAllCollisions</text>
</a>
</g>
</g>
<!-- Node2&#45;&gt;Node3 -->
<g id="edge2" class="edge"><title>Node2&#45;&gt;Node3</title>
<path fill="none" stroke="midnightblue" d="M218.412,-42.8491C250.322,-58.1016 300.397,-82.0368 328.026,-95.243"/>
<polygon fill="midnightblue" stroke="midnightblue" points="219.669,-39.5705 209.137,-38.4157 216.65,-45.8862 219.669,-39.5705"/>
</g>
<!-- Node14 -->
<g id="node14" class="node"><title>Node14</title>
<g id="a_node14"><a xlink:href="../../db/d97/class_box_world.html#aa7e2049d7be23e15fd2ec7fa2922ed79" target="_top" xlink:title="BoxWorld.handleKeyInput">
<polygon fill="white" stroke="black" points="281,-19.2903 281,-38.2903 417,-38.2903 417,-19.2903 281,-19.2903"/>
<text text-anchor="middle" x="349" y="-26.2903" font-family="Helvetica,sans-Serif" font-size="10.00">BoxWorld.handleKeyInput</text>
</a>
</g>
</g>
<!-- Node2&#45;&gt;Node14 -->
<g id="edge15" class="edge"><title>Node2&#45;&gt;Node14</title>
<path fill="none" stroke="midnightblue" d="M249.76,-28.7903C259.946,-28.7903 270.567,-28.7903 280.901,-28.7903"/>
<polygon fill="midnightblue" stroke="midnightblue" points="249.746,-25.2904 239.746,-28.7903 249.746,-32.2904 249.746,-25.2904"/>
</g>
<!-- Node4 -->
<g id="node4" class="node"><title>Node4</title>
<g id="a_node4"><a xlink:href="../../db/d97/class_box_world.html#a6794c083c2a0263c2f585f4ae4b7e39c" target="_top" xlink:title="BoxWorld.updateSprites">
<polygon fill="white" stroke="black" points="458.5,-95.2903 458.5,-114.29 589.5,-114.29 589.5,-95.2903 458.5,-95.2903"/>
<text text-anchor="middle" x="524" y="-102.29" font-family="Helvetica,sans-Serif" font-size="10.00">BoxWorld.updateSprites</text>
</a>
</g>
</g>
<!-- Node3&#45;&gt;Node4 -->
<g id="edge3" class="edge"><title>Node3&#45;&gt;Node4</title>
<path fill="none" stroke="midnightblue" d="M432.354,-104.79C441.116,-104.79 449.936,-104.79 458.451,-104.79"/>
<polygon fill="midnightblue" stroke="midnightblue" points="432.115,-101.29 422.115,-104.79 432.115,-108.29 432.115,-101.29"/>
</g>
<!-- Node5 -->
<g id="node5" class="node"><title>Node5</title>
<g id="a_node5"><a xlink:href="../../db/d97/class_box_world.html#ad20a4e43406c44f4bbf201d1d1028998" target="_top" xlink:title="BoxWorld.start">
<polygon fill="white" stroke="black" points="626,-57.2903 626,-76.2903 712,-76.2903 712,-57.2903 626,-57.2903"/>
<text text-anchor="middle" x="669" y="-64.2903" font-family="Helvetica,sans-Serif" font-size="10.00">BoxWorld.start</text>
</a>
</g>
</g>
<!-- Node4&#45;&gt;Node5 -->
<g id="edge4" class="edge"><title>Node4&#45;&gt;Node5</title>
<path fill="none" stroke="midnightblue" d="M570.813,-92.6161C590.587,-87.3616 613.384,-81.3037 631.927,-76.3762"/>
<polygon fill="midnightblue" stroke="midnightblue" points="569.851,-89.2504 561.085,-95.2013 571.648,-96.0156 569.851,-89.2504"/>
</g>
<!-- Node5&#45;&gt;Node1 -->
<g id="edge5" class="edge"><title>Node5&#45;&gt;Node1</title>
<path fill="none" stroke="midnightblue" d="M615.43,-68.1061C519.652,-69.7953 310.499,-70.2147 136,-47.7903 119.652,-45.6895 101.816,-41.9332 86.7227,-38.3119"/>
<polygon fill="midnightblue" stroke="midnightblue" points="615.784,-71.6001 625.716,-67.9119 615.652,-64.6014 615.784,-71.6001"/>
</g>
<!-- Node6 -->
<g id="node6" class="node"><title>Node6</title>
<g id="a_node6"><a xlink:href="../../db/d97/class_box_world.html#a55bf92d3f466bfaade0f6d199d8c9bd9" target="_top" xlink:title="BoxWorld.init">
<polygon fill="white" stroke="black" points="748.5,-57.2903 748.5,-76.2903 825.5,-76.2903 825.5,-57.2903 748.5,-57.2903"/>
<text text-anchor="middle" x="787" y="-64.2903" font-family="Helvetica,sans-Serif" font-size="10.00">BoxWorld.init</text>
</a>
</g>
</g>
<!-- Node5&#45;&gt;Node6 -->
<g id="edge6" class="edge"><title>Node5&#45;&gt;Node6</title>
<path fill="none" stroke="midnightblue" d="M722.33,-66.7903C731.062,-66.7903 739.968,-66.7903 748.244,-66.7903"/>
<polygon fill="midnightblue" stroke="midnightblue" points="722.207,-63.2904 712.207,-66.7903 722.207,-70.2904 722.207,-63.2904"/>
</g>
<!-- Node7 -->
<g id="node7" class="node"><title>Node7</title>
<g id="a_node7"><a xlink:href="../../d2/db8/class_menu.html#a3c99ad09e9f2f975c1a0d0597642651a" target="_top" xlink:title="Menu.init">
<polygon fill="white" stroke="black" points="862,-57.2903 862,-76.2903 922,-76.2903 922,-57.2903 862,-57.2903"/>
<text text-anchor="middle" x="892" y="-64.2903" font-family="Helvetica,sans-Serif" font-size="10.00">Menu.init</text>
</a>
</g>
</g>
<!-- Node6&#45;&gt;Node7 -->
<g id="edge7" class="edge"><title>Node6&#45;&gt;Node7</title>
<path fill="none" stroke="midnightblue" d="M836.034,-66.7903C844.886,-66.7903 853.875,-66.7903 861.949,-66.7903"/>
<polygon fill="midnightblue" stroke="midnightblue" points="835.769,-63.2904 825.769,-66.7903 835.768,-70.2904 835.769,-63.2904"/>
</g>
<!-- Node8 -->
<g id="node8" class="node"><title>Node8</title>
<g id="a_node8"><a xlink:href="../../d1/de1/class_end_screen.html#a1264ffb72b3a3032443f9c4087222aef" target="_top" xlink:title="EndScreen.init">
<polygon fill="white" stroke="black" points="960,-19.2903 960,-38.2903 1046,-38.2903 1046,-19.2903 960,-19.2903"/>
<text text-anchor="middle" x="1003" y="-26.2903" font-family="Helvetica,sans-Serif" font-size="10.00">EndScreen.init</text>
</a>
</g>
</g>
<!-- Node7&#45;&gt;Node8 -->
<g id="edge8" class="edge"><title>Node7&#45;&gt;Node8</title>
<path fill="none" stroke="midnightblue" d="M930.209,-53.8185C944.73,-48.7559 961.079,-43.0562 974.503,-38.3762"/>
<polygon fill="midnightblue" stroke="midnightblue" points="928.796,-50.6044 920.505,-57.2013 931.1,-57.2142 928.796,-50.6044"/>
</g>
<!-- Node10 -->
<g id="node10" class="node"><title>Node10</title>
<g id="a_node10"><a xlink:href="../../d4/d2f/class_lose_screen.html#a34f2cc2c803500316c9b8d854854d758" target="_top" xlink:title="LoseScreen.init">
<polygon fill="white" stroke="black" points="958,-57.2903 958,-76.2903 1048,-76.2903 1048,-57.2903 958,-57.2903"/>
<text text-anchor="middle" x="1003" y="-64.2903" font-family="Helvetica,sans-Serif" font-size="10.00">LoseScreen.init</text>
</a>
</g>
</g>
<!-- Node7&#45;&gt;Node10 -->
<g id="edge10" class="edge"><title>Node7&#45;&gt;Node10</title>
<path fill="none" stroke="midnightblue" d="M932.383,-66.7903C940.679,-66.7903 949.483,-66.7903 957.938,-66.7903"/>
<polygon fill="midnightblue" stroke="midnightblue" points="932.21,-63.2904 922.21,-66.7903 932.21,-70.2904 932.21,-63.2904"/>
</g>
<!-- Node13 -->
<g id="node13" class="node"><title>Node13</title>
<g id="a_node13"><a xlink:href="../../d0/d4b/class_main.html#a7595d13c514a02c35aca322dd91d2063" target="_top" xlink:title="Main.start">
<polygon fill="white" stroke="black" points="970.5,-95.2903 970.5,-114.29 1035.5,-114.29 1035.5,-95.2903 970.5,-95.2903"/>
<text text-anchor="middle" x="1003" y="-102.29" font-family="Helvetica,sans-Serif" font-size="10.00">Main.start</text>
</a>
</g>
</g>
<!-- Node7&#45;&gt;Node13 -->
<g id="edge14" class="edge"><title>Node7&#45;&gt;Node13</title>
<path fill="none" stroke="midnightblue" d="M930.209,-79.7621C944.73,-84.8247 961.079,-90.5244 974.503,-95.2044"/>
<polygon fill="midnightblue" stroke="midnightblue" points="931.1,-76.3664 920.505,-76.3793 928.796,-82.9762 931.1,-76.3664"/>
</g>
<!-- Node9 -->
<g id="node9" class="node"><title>Node9</title>
<g id="a_node9"><a xlink:href="../../d6/d4f/class_item_box_world.html#a2ed12a6b39993faedc05cc682204476d" target="_top" xlink:title="ItemBoxWorld.winLevel">
<polygon fill="white" stroke="black" points="1088.5,-19.2903 1088.5,-38.2903 1213.5,-38.2903 1213.5,-19.2903 1088.5,-19.2903"/>
<text text-anchor="middle" x="1151" y="-26.2903" font-family="Helvetica,sans-Serif" font-size="10.00">ItemBoxWorld.winLevel</text>
</a>
</g>
</g>
<!-- Node8&#45;&gt;Node9 -->
<g id="edge9" class="edge"><title>Node8&#45;&gt;Node9</title>
<path fill="none" stroke="midnightblue" d="M1056.35,-28.7903C1066.71,-28.7903 1077.68,-28.7903 1088.31,-28.7903"/>
<polygon fill="midnightblue" stroke="midnightblue" points="1056.23,-25.2904 1046.23,-28.7903 1056.23,-32.2904 1056.23,-25.2904"/>
</g>
<!-- Node11 -->
<g id="node11" class="node"><title>Node11</title>
<g id="a_node11"><a xlink:href="../../db/d97/class_box_world.html#a72bacb2a6757900d8835249929fcc838" target="_top" xlink:title="BoxWorld.loseGame">
<polygon fill="white" stroke="black" points="1095,-114.29 1095,-133.29 1207,-133.29 1207,-114.29 1095,-114.29"/>
<text text-anchor="middle" x="1151" y="-121.29" font-family="Helvetica,sans-Serif" font-size="10.00">BoxWorld.loseGame</text>
</a>
</g>
</g>
<!-- Node10&#45;&gt;Node11 -->
<g id="edge11" class="edge"><title>Node10&#45;&gt;Node11</title>
<path fill="none" stroke="midnightblue" d="M1037.82,-79.9933C1064.63,-90.4593 1101.45,-104.837 1125.48,-114.219"/>
<polygon fill="midnightblue" stroke="midnightblue" points="1039.03,-76.7073 1028.44,-76.3308 1036.48,-83.228 1039.03,-76.7073"/>
</g>
<!-- Node12 -->
<g id="node12" class="node"><title>Node12</title>
<g id="a_node12"><a xlink:href="../../d6/d4f/class_item_box_world.html#a295cf7212ad54fa599e2a2d85ee0523d" target="_top" xlink:title="ItemBoxWorld.loseGame">
<polygon fill="white" stroke="black" points="1084,-57.2903 1084,-76.2903 1218,-76.2903 1218,-57.2903 1084,-57.2903"/>
<text text-anchor="middle" x="1151" y="-64.2903" font-family="Helvetica,sans-Serif" font-size="10.00">ItemBoxWorld.loseGame</text>
</a>
</g>
</g>
<!-- Node10&#45;&gt;Node12 -->
<g id="edge13" class="edge"><title>Node10&#45;&gt;Node12</title>
<path fill="none" stroke="midnightblue" d="M1058.47,-66.7903C1066.75,-66.7903 1075.37,-66.7903 1083.86,-66.7903"/>
<polygon fill="midnightblue" stroke="midnightblue" points="1058.2,-63.2904 1048.2,-66.7903 1058.2,-70.2904 1058.2,-63.2904"/>
</g>
<!-- Node11&#45;&gt;Node3 -->
<g id="edge12" class="edge"><title>Node11&#45;&gt;Node3</title>
<path fill="none" stroke="midnightblue" d="M1084.87,-131.272C1032.98,-136.589 958.432,-142.79 893,-142.79 668,-142.79 668,-142.79 668,-142.79 572.227,-142.79 461.368,-125.587 399.084,-114.33"/>
<polygon fill="midnightblue" stroke="midnightblue" points="1085.36,-134.741 1094.94,-130.223 1084.63,-127.779 1085.36,-134.741"/>
</g>
<!-- Node15 -->
<g id="node15" class="node"><title>Node15</title>
<g id="a_node15"><a xlink:href="../../db/d97/class_box_world.html#a726e747e023543658d7a345cc6466ccb" target="_top" xlink:title="BoxWorld.createScene">
<polygon fill="white" stroke="black" points="462,-19.2903 462,-38.2903 586,-38.2903 586,-19.2903 462,-19.2903"/>
<text text-anchor="middle" x="524" y="-26.2903" font-family="Helvetica,sans-Serif" font-size="10.00">BoxWorld.createScene</text>
</a>
</g>
</g>
<!-- Node14&#45;&gt;Node15 -->
<g id="edge16" class="edge"><title>Node14&#45;&gt;Node15</title>
<path fill="none" stroke="midnightblue" d="M427.41,-28.7903C438.908,-28.7903 450.622,-28.7903 461.729,-28.7903"/>
<polygon fill="midnightblue" stroke="midnightblue" points="427.382,-25.2904 417.382,-28.7903 427.382,-32.2904 427.382,-25.2904"/>
</g>
<!-- Node15&#45;&gt;Node1 -->
<g id="edge17" class="edge"><title>Node15&#45;&gt;Node1</title>
<path fill="none" stroke="midnightblue" d="M471.815,-17.2519C455.937,-14.1889 438.322,-11.3122 422,-9.79029 295.438,2.01057 262.343,4.15833 136,-9.79029 119.167,-11.6487 100.793,-15.5178 85.4487,-19.2824"/>
<polygon fill="midnightblue" stroke="midnightblue" points="471.475,-20.7531 481.967,-19.2793 472.846,-13.8887 471.475,-20.7531"/>
</g>
<!-- Node15&#45;&gt;Node6 -->
<g id="edge18" class="edge"><title>Node15&#45;&gt;Node6</title>
<path fill="none" stroke="midnightblue" d="M596.507,-33.5242C631.496,-36.4831 674.134,-41.0448 712,-47.7903 725.581,-50.2096 740.34,-53.7989 753.079,-57.2084"/>
<polygon fill="midnightblue" stroke="midnightblue" points="596.633,-30.0229 586.381,-32.6943 596.061,-36.9995 596.633,-30.0229"/>
</g>
</g>
</svg>
