<?xml version="1.0" encoding="UTF-8" standalone="no"?>
<!DOCTYPE svg PUBLIC "-//W3C//DTD SVG 1.1//EN"
 "http://www.w3.org/Graphics/SVG/1.1/DTD/svg11.dtd">
<!-- Generated by graphviz version 2.36.0 (20140111.2315)
 -->
<!-- Title: ItemBoxWorld.itemExists Pages: 1 -->
<svg width="1796pt" height="218pt"
 viewBox="0.00 0.00 1796.00 218.00" xmlns="http://www.w3.org/2000/svg" xmlns:xlink="http://www.w3.org/1999/xlink">
<g id="graph0" class="graph" transform="scale(1 1) rotate(0) translate(4 214)">
<title>ItemBoxWorld.itemExists</title>
<polygon fill="white" stroke="none" points="-4,4 -4,-214 1792,-214 1792,4 -4,4"/>
<!-- Node1 -->
<g id="node1" class="node"><title>Node1</title>
<polygon fill="#bfbfbf" stroke="black" points="0,-38.5 0,-57.5 134,-57.5 134,-38.5 0,-38.5"/>
<text text-anchor="middle" x="67" y="-45.5" font-family="Helvetica,sans-Serif" font-size="10.00">ItemBoxWorld.itemExists</text>
</g>
<!-- Node2 -->
<g id="node2" class="node"><title>Node2</title>
<g id="a_node2"><a xlink:href="../../d6/d4f/class_item_box_world.html#a7ead15fd9fd8095f928640161d48fdf8" target="_top" xlink:title="ItemBoxWorld.addAllItems">
<polygon fill="white" stroke="black" points="183.5,-95.5 183.5,-114.5 324.5,-114.5 324.5,-95.5 183.5,-95.5"/>
<text text-anchor="middle" x="254" y="-102.5" font-family="Helvetica,sans-Serif" font-size="10.00">ItemBoxWorld.addAllItems</text>
</a>
</g>
</g>
<!-- Node1&#45;&gt;Node2 -->
<g id="edge1" class="edge"><title>Node1&#45;&gt;Node2</title>
<path fill="none" stroke="midnightblue" d="M108.636,-60.5201C142.766,-71.036 190.816,-85.8405 221.934,-95.4284"/>
<polygon fill="midnightblue" stroke="midnightblue" points="109.552,-57.1402 98.9648,-57.5405 107.491,-63.8299 109.552,-57.1402"/>
</g>
<!-- Node11 -->
<g id="node11" class="node"><title>Node11</title>
<g id="a_node11"><a xlink:href="../../d6/d4f/class_item_box_world.html#a2ed12a6b39993faedc05cc682204476d" target="_top" xlink:title="ItemBoxWorld.winLevel">
<polygon fill="white" stroke="black" points="1468.5,-95.5 1468.5,-114.5 1593.5,-114.5 1593.5,-95.5 1468.5,-95.5"/>
<text text-anchor="middle" x="1531" y="-102.5" font-family="Helvetica,sans-Serif" font-size="10.00">ItemBoxWorld.winLevel</text>
</a>
</g>
</g>
<!-- Node1&#45;&gt;Node11 -->
<g id="edge23" class="edge"><title>Node1&#45;&gt;Node11</title>
<path fill="none" stroke="midnightblue" d="M144.029,-48C216.891,-48 329.955,-48 428,-48 428,-48 428,-48 1277,-48 1346.4,-48 1364.68,-50.1023 1432,-67 1459.79,-73.9752 1490.35,-86.6872 1509.83,-95.476"/>
<polygon fill="midnightblue" stroke="midnightblue" points="144.021,-44.5001 134.021,-48 144.021,-51.5001 144.021,-44.5001"/>
</g>
<!-- Node19 -->
<g id="node19" class="node"><title>Node19</title>
<g id="a_node19"><a xlink:href="../../d6/d4f/class_item_box_world.html#ad8a9b79d31264f523f05ed43aa490f0f" target="_top" xlink:title="ItemBoxWorld.checkAllCollisions">
<polygon fill="white" stroke="black" points="170,-0.5 170,-19.5 338,-19.5 338,-0.5 170,-0.5"/>
<text text-anchor="middle" x="254" y="-7.5" font-family="Helvetica,sans-Serif" font-size="10.00">ItemBoxWorld.checkAllCollisions</text>
</a>
</g>
</g>
<!-- Node1&#45;&gt;Node19 -->
<g id="edge22" class="edge"><title>Node1&#45;&gt;Node19</title>
<path fill="none" stroke="midnightblue" d="M124.52,-36.3905C150.831,-30.986 181.743,-24.6365 206.652,-19.5201"/>
<polygon fill="midnightblue" stroke="midnightblue" points="123.775,-32.9704 114.683,-38.411 125.183,-39.8273 123.775,-32.9704"/>
</g>
<!-- Node3 -->
<g id="node3" class="node"><title>Node3</title>
<g id="a_node3"><a xlink:href="../../d6/d4f/class_item_box_world.html#aa559fc2680327b41fb376e2eda8e82e3" target="_top" xlink:title="ItemBoxWorld.init">
<polygon fill="white" stroke="black" points="379.5,-95.5 379.5,-114.5 478.5,-114.5 478.5,-95.5 379.5,-95.5"/>
<text text-anchor="middle" x="429" y="-102.5" font-family="Helvetica,sans-Serif" font-size="10.00">ItemBoxWorld.init</text>
</a>
</g>
</g>
<!-- Node2&#45;&gt;Node3 -->
<g id="edge2" class="edge"><title>Node2&#45;&gt;Node3</title>
<path fill="none" stroke="midnightblue" d="M335.239,-105C350.313,-105 365.641,-105 379.381,-105"/>
<polygon fill="midnightblue" stroke="midnightblue" points="334.867,-101.5 324.867,-105 334.867,-108.5 334.867,-101.5"/>
</g>
<!-- Node18 -->
<g id="node18" class="node"><title>Node18</title>
<g id="a_node18"><a xlink:href="../../d6/d4f/class_item_box_world.html#ad828a4764d0fc92cb1cc3ada9a4a2862" target="_top" xlink:title="ItemBoxWorld.reset">
<polygon fill="white" stroke="black" points="374,-133.5 374,-152.5 484,-152.5 484,-133.5 374,-133.5"/>
<text text-anchor="middle" x="429" y="-140.5" font-family="Helvetica,sans-Serif" font-size="10.00">ItemBoxWorld.reset</text>
</a>
</g>
</g>
<!-- Node2&#45;&gt;Node18 -->
<g id="edge21" class="edge"><title>Node2&#45;&gt;Node18</title>
<path fill="none" stroke="midnightblue" d="M308.505,-116.753C332.967,-122.126 361.571,-128.409 384.659,-133.48"/>
<polygon fill="midnightblue" stroke="midnightblue" points="309.173,-113.316 298.655,-114.589 307.671,-120.153 309.173,-113.316"/>
</g>
<!-- Node4 -->
<g id="node4" class="node"><title>Node4</title>
<g id="a_node4"><a xlink:href="../../db/d97/class_box_world.html#aad670712776afe126e51791097027e05" target="_top" xlink:title="BoxWorld.winLevel">
<polygon fill="white" stroke="black" points="520.5,-152.5 520.5,-171.5 623.5,-171.5 623.5,-152.5 520.5,-152.5"/>
<text text-anchor="middle" x="572" y="-159.5" font-family="Helvetica,sans-Serif" font-size="10.00">BoxWorld.winLevel</text>
</a>
</g>
</g>
<!-- Node3&#45;&gt;Node4 -->
<g id="edge3" class="edge"><title>Node3&#45;&gt;Node4</title>
<path fill="none" stroke="midnightblue" d="M468.005,-117.977C473.398,-119.933 478.856,-121.975 484,-124 506.851,-132.997 532.574,-144.393 550.085,-152.349"/>
<polygon fill="midnightblue" stroke="midnightblue" points="469.045,-114.632 458.451,-114.571 466.695,-121.225 469.045,-114.632"/>
</g>
<!-- Node5 -->
<g id="node5" class="node"><title>Node5</title>
<g id="a_node5"><a xlink:href="../../db/d97/class_box_world.html#a4079bed8937c9f621decfbe1309e31e2" target="_top" xlink:title="BoxWorld.checkAllCollisions">
<polygon fill="white" stroke="black" points="660,-190.5 660,-209.5 806,-209.5 806,-190.5 660,-190.5"/>
<text text-anchor="middle" x="733" y="-197.5" font-family="Helvetica,sans-Serif" font-size="10.00">BoxWorld.checkAllCollisions</text>
</a>
</g>
</g>
<!-- Node4&#45;&gt;Node5 -->
<g id="edge4" class="edge"><title>Node4&#45;&gt;Node5</title>
<path fill="none" stroke="midnightblue" d="M623.077,-173.968C645.358,-179.293 671.229,-185.476 692.166,-190.48"/>
<polygon fill="midnightblue" stroke="midnightblue" points="623.662,-170.509 613.122,-171.589 622.035,-177.318 623.662,-170.509"/>
</g>
<!-- Node16 -->
<g id="node16" class="node"><title>Node16</title>
<g id="a_node16"><a xlink:href="../../db/d97/class_box_world.html#aa7e2049d7be23e15fd2ec7fa2922ed79" target="_top" xlink:title="BoxWorld.handleKeyInput">
<polygon fill="white" stroke="black" points="665,-152.5 665,-171.5 801,-171.5 801,-152.5 665,-152.5"/>
<text text-anchor="middle" x="733" y="-159.5" font-family="Helvetica,sans-Serif" font-size="10.00">BoxWorld.handleKeyInput</text>
</a>
</g>
</g>
<!-- Node4&#45;&gt;Node16 -->
<g id="edge17" class="edge"><title>Node4&#45;&gt;Node16</title>
<path fill="none" stroke="midnightblue" d="M633.76,-162C643.946,-162 654.567,-162 664.901,-162"/>
<polygon fill="midnightblue" stroke="midnightblue" points="633.746,-158.5 623.746,-162 633.746,-165.5 633.746,-158.5"/>
</g>
<!-- Node6 -->
<g id="node6" class="node"><title>Node6</title>
<g id="a_node6"><a xlink:href="../../db/d97/class_box_world.html#a6794c083c2a0263c2f585f4ae4b7e39c" target="_top" xlink:title="BoxWorld.updateSprites">
<polygon fill="white" stroke="black" points="842.5,-152.5 842.5,-171.5 973.5,-171.5 973.5,-152.5 842.5,-152.5"/>
<text text-anchor="middle" x="908" y="-159.5" font-family="Helvetica,sans-Serif" font-size="10.00">BoxWorld.updateSprites</text>
</a>
</g>
</g>
<!-- Node5&#45;&gt;Node6 -->
<g id="edge5" class="edge"><title>Node5&#45;&gt;Node6</title>
<path fill="none" stroke="midnightblue" d="M787.505,-188.247C811.967,-182.874 840.571,-176.591 863.659,-171.52"/>
<polygon fill="midnightblue" stroke="midnightblue" points="786.671,-184.847 777.655,-190.411 788.173,-191.684 786.671,-184.847"/>
</g>
<!-- Node7 -->
<g id="node7" class="node"><title>Node7</title>
<g id="a_node7"><a xlink:href="../../db/d97/class_box_world.html#ad20a4e43406c44f4bbf201d1d1028998" target="_top" xlink:title="BoxWorld.start">
<polygon fill="white" stroke="black" points="1010,-152.5 1010,-171.5 1096,-171.5 1096,-152.5 1010,-152.5"/>
<text text-anchor="middle" x="1053" y="-159.5" font-family="Helvetica,sans-Serif" font-size="10.00">BoxWorld.start</text>
</a>
</g>
</g>
<!-- Node6&#45;&gt;Node7 -->
<g id="edge6" class="edge"><title>Node6&#45;&gt;Node7</title>
<path fill="none" stroke="midnightblue" d="M983.898,-162C992.837,-162 1001.7,-162 1009.94,-162"/>
<polygon fill="midnightblue" stroke="midnightblue" points="983.806,-158.5 973.806,-162 983.806,-165.5 983.806,-158.5"/>
</g>
<!-- Node7&#45;&gt;Node3 -->
<g id="edge7" class="edge"><title>Node7&#45;&gt;Node3</title>
<path fill="none" stroke="midnightblue" d="M1035.8,-145.322C1021.14,-131.52 998.204,-112.94 974,-105 798.11,-47.3032 572.669,-77.9546 476.655,-95.4919"/>
<polygon fill="midnightblue" stroke="midnightblue" points="1033.44,-147.915 1043.04,-152.4 1038.34,-142.908 1033.44,-147.915"/>
</g>
<!-- Node8 -->
<g id="node8" class="node"><title>Node8</title>
<g id="a_node8"><a xlink:href="../../db/d97/class_box_world.html#a55bf92d3f466bfaade0f6d199d8c9bd9" target="_top" xlink:title="BoxWorld.init">
<polygon fill="white" stroke="black" points="1132.5,-114.5 1132.5,-133.5 1209.5,-133.5 1209.5,-114.5 1132.5,-114.5"/>
<text text-anchor="middle" x="1171" y="-121.5" font-family="Helvetica,sans-Serif" font-size="10.00">BoxWorld.init</text>
</a>
</g>
</g>
<!-- Node7&#45;&gt;Node8 -->
<g id="edge8" class="edge"><title>Node7&#45;&gt;Node8</title>
<path fill="none" stroke="midnightblue" d="M1093.15,-149.174C1108.72,-144.075 1126.31,-138.311 1140.74,-133.586"/>
<polygon fill="midnightblue" stroke="midnightblue" points="1091.69,-145.972 1083.27,-152.411 1093.86,-152.624 1091.69,-145.972"/>
</g>
<!-- Node9 -->
<g id="node9" class="node"><title>Node9</title>
<g id="a_node9"><a xlink:href="../../d2/db8/class_menu.html#a3c99ad09e9f2f975c1a0d0597642651a" target="_top" xlink:title="Menu.init">
<polygon fill="white" stroke="black" points="1246,-114.5 1246,-133.5 1306,-133.5 1306,-114.5 1246,-114.5"/>
<text text-anchor="middle" x="1276" y="-121.5" font-family="Helvetica,sans-Serif" font-size="10.00">Menu.init</text>
</a>
</g>
</g>
<!-- Node8&#45;&gt;Node9 -->
<g id="edge9" class="edge"><title>Node8&#45;&gt;Node9</title>
<path fill="none" stroke="midnightblue" d="M1220.03,-124C1228.89,-124 1237.87,-124 1245.95,-124"/>
<polygon fill="midnightblue" stroke="midnightblue" points="1219.77,-120.5 1209.77,-124 1219.77,-127.5 1219.77,-120.5"/>
</g>
<!-- Node10 -->
<g id="node10" class="node"><title>Node10</title>
<g id="a_node10"><a xlink:href="../../d1/de1/class_end_screen.html#a1264ffb72b3a3032443f9c4087222aef" target="_top" xlink:title="EndScreen.init">
<polygon fill="white" stroke="black" points="1344,-114.5 1344,-133.5 1430,-133.5 1430,-114.5 1344,-114.5"/>
<text text-anchor="middle" x="1387" y="-121.5" font-family="Helvetica,sans-Serif" font-size="10.00">EndScreen.init</text>
</a>
</g>
</g>
<!-- Node9&#45;&gt;Node10 -->
<g id="edge10" class="edge"><title>Node9&#45;&gt;Node10</title>
<path fill="none" stroke="midnightblue" d="M1316.29,-124C1325.15,-124 1334.6,-124 1343.59,-124"/>
<polygon fill="midnightblue" stroke="midnightblue" points="1316.21,-120.5 1306.21,-124 1316.21,-127.5 1316.21,-120.5"/>
</g>
<!-- Node13 -->
<g id="node13" class="node"><title>Node13</title>
<g id="a_node13"><a xlink:href="../../d4/d2f/class_lose_screen.html#a34f2cc2c803500316c9b8d854854d758" target="_top" xlink:title="LoseScreen.init">
<polygon fill="white" stroke="black" points="1342,-152.5 1342,-171.5 1432,-171.5 1432,-152.5 1342,-152.5"/>
<text text-anchor="middle" x="1387" y="-159.5" font-family="Helvetica,sans-Serif" font-size="10.00">LoseScreen.init</text>
</a>
</g>
</g>
<!-- Node9&#45;&gt;Node13 -->
<g id="edge13" class="edge"><title>Node9&#45;&gt;Node13</title>
<path fill="none" stroke="midnightblue" d="M1314.21,-136.972C1328.73,-142.034 1345.08,-147.734 1358.5,-152.414"/>
<polygon fill="midnightblue" stroke="midnightblue" points="1315.1,-133.576 1304.51,-133.589 1312.8,-140.186 1315.1,-133.576"/>
</g>
<!-- Node15 -->
<g id="node15" class="node"><title>Node15</title>
<g id="a_node15"><a xlink:href="../../d0/d4b/class_main.html#a7595d13c514a02c35aca322dd91d2063" target="_top" xlink:title="Main.start">
<polygon fill="white" stroke="black" points="1354.5,-76.5 1354.5,-95.5 1419.5,-95.5 1419.5,-76.5 1354.5,-76.5"/>
<text text-anchor="middle" x="1387" y="-83.5" font-family="Helvetica,sans-Serif" font-size="10.00">Main.start</text>
</a>
</g>
</g>
<!-- Node9&#45;&gt;Node15 -->
<g id="edge16" class="edge"><title>Node9&#45;&gt;Node15</title>
<path fill="none" stroke="midnightblue" d="M1314.21,-111.028C1328.73,-105.966 1345.08,-100.266 1358.5,-95.5859"/>
<polygon fill="midnightblue" stroke="midnightblue" points="1312.8,-107.814 1304.51,-114.411 1315.1,-114.424 1312.8,-107.814"/>
</g>
<!-- Node10&#45;&gt;Node11 -->
<g id="edge11" class="edge"><title>Node10&#45;&gt;Node11</title>
<path fill="none" stroke="midnightblue" d="M1440.34,-116.997C1449.5,-115.771 1459.11,-114.485 1468.5,-113.23"/>
<polygon fill="midnightblue" stroke="midnightblue" points="1439.67,-113.555 1430.22,-118.351 1440.6,-120.494 1439.67,-113.555"/>
</g>
<!-- Node12 -->
<g id="node12" class="node"><title>Node12</title>
<g id="a_node12"><a xlink:href="../../d6/d4f/class_item_box_world.html#ae442d947b4dafc944336ee27628d2175" target="_top" xlink:title="ItemBoxWorld.handleKeyInput">
<polygon fill="white" stroke="black" points="1630,-95.5 1630,-114.5 1788,-114.5 1788,-95.5 1630,-95.5"/>
<text text-anchor="middle" x="1709" y="-102.5" font-family="Helvetica,sans-Serif" font-size="10.00">ItemBoxWorld.handleKeyInput</text>
</a>
</g>
</g>
<!-- Node11&#45;&gt;Node12 -->
<g id="edge12" class="edge"><title>Node11&#45;&gt;Node12</title>
<path fill="none" stroke="midnightblue" d="M1603.57,-105C1612.2,-105 1621.05,-105 1629.77,-105"/>
<polygon fill="midnightblue" stroke="midnightblue" points="1603.56,-101.5 1593.56,-105 1603.56,-108.5 1603.56,-101.5"/>
</g>
<!-- Node14 -->
<g id="node14" class="node"><title>Node14</title>
<g id="a_node14"><a xlink:href="../../db/d97/class_box_world.html#a72bacb2a6757900d8835249929fcc838" target="_top" xlink:title="BoxWorld.loseGame">
<polygon fill="white" stroke="black" points="1475,-171.5 1475,-190.5 1587,-190.5 1587,-171.5 1475,-171.5"/>
<text text-anchor="middle" x="1531" y="-178.5" font-family="Helvetica,sans-Serif" font-size="10.00">BoxWorld.loseGame</text>
</a>
</g>
</g>
<!-- Node13&#45;&gt;Node14 -->
<g id="edge14" class="edge"><title>Node13&#45;&gt;Node14</title>
<path fill="none" stroke="midnightblue" d="M1442.2,-169.253C1452.9,-170.684 1464.13,-172.186 1474.85,-173.621"/>
<polygon fill="midnightblue" stroke="midnightblue" points="1442.53,-165.765 1432.15,-167.908 1441.6,-172.703 1442.53,-165.765"/>
</g>
<!-- Node14&#45;&gt;Node5 -->
<g id="edge15" class="edge"><title>Node14&#45;&gt;Node5</title>
<path fill="none" stroke="midnightblue" d="M1464.59,-188.617C1413.56,-193.904 1340.87,-200 1277,-200 1052,-200 1052,-200 1052,-200 967.669,-200 870.759,-200 806.305,-200"/>
<polygon fill="midnightblue" stroke="midnightblue" points="1465.24,-192.068 1474.81,-187.539 1464.5,-185.107 1465.24,-192.068"/>
</g>
<!-- Node17 -->
<g id="node17" class="node"><title>Node17</title>
<g id="a_node17"><a xlink:href="../../db/d97/class_box_world.html#a726e747e023543658d7a345cc6466ccb" target="_top" xlink:title="BoxWorld.createScene">
<polygon fill="white" stroke="black" points="846,-114.5 846,-133.5 970,-133.5 970,-114.5 846,-114.5"/>
<text text-anchor="middle" x="908" y="-121.5" font-family="Helvetica,sans-Serif" font-size="10.00">BoxWorld.createScene</text>
</a>
</g>
</g>
<!-- Node16&#45;&gt;Node17 -->
<g id="edge18" class="edge"><title>Node16&#45;&gt;Node17</title>
<path fill="none" stroke="midnightblue" d="M787.505,-150.247C811.967,-144.874 840.571,-138.591 863.659,-133.52"/>
<polygon fill="midnightblue" stroke="midnightblue" points="786.671,-146.847 777.655,-152.411 788.173,-153.684 786.671,-146.847"/>
</g>
<!-- Node17&#45;&gt;Node3 -->
<g id="edge19" class="edge"><title>Node17&#45;&gt;Node3</title>
<path fill="none" stroke="midnightblue" d="M835.832,-121.165C737.71,-117.257 563.428,-110.315 478.806,-106.944"/>
<polygon fill="midnightblue" stroke="midnightblue" points="835.825,-124.668 845.956,-121.568 836.103,-117.673 835.825,-124.668"/>
</g>
<!-- Node17&#45;&gt;Node8 -->
<g id="edge20" class="edge"><title>Node17&#45;&gt;Node8</title>
<path fill="none" stroke="midnightblue" d="M980.43,-124C1029.47,-124 1092.61,-124 1132.21,-124"/>
<polygon fill="midnightblue" stroke="midnightblue" points="980.193,-120.5 970.193,-124 980.193,-127.5 980.193,-120.5"/>
</g>
</g>
</svg>
