<?xml version="1.0" encoding="UTF-8" standalone="no"?>
<!DOCTYPE svg PUBLIC "-//W3C//DTD SVG 1.1//EN"
 "http://www.w3.org/Graphics/SVG/1.1/DTD/svg11.dtd">
<!-- Generated by graphviz version 2.36.0 (20140111.2315)
 -->
<!-- Title: ItemBoxWorld.handleKeyInput Pages: 1 -->
<!--zoomable 655 -->
<svg id="main" version="1.1" xmlns="http://www.w3.org/2000/svg" xmlns:xlink="http://www.w3.org/1999/xlink" xml:space="preserve" onload="init(evt)">
<style type="text/css"><![CDATA[
.edge:hover path { stroke: red; }
.edge:hover polygon { stroke: red; fill: red; }
]]></style>
<script type="text/javascript"><![CDATA[
var edges = document.getElementsByTagName('g');
if (edges && edges.length) {
  for (var i=0;i<edges.length;i++) {
    if (edges[i].id.substr(0,4)=='edge') {
      edges[i].setAttribute('class','edge');
    }
  }
}
]]></script>
        <defs>
                <circle id="rim" cx="0" cy="0" r="7"/>
                <circle id="rim2" cx="0" cy="0" r="3.5"/>
                <g id="zoomPlus">
                        <use xlink:href="#rim" fill="#404040">
                                <set attributeName="fill" to="#808080" begin="zoomplus.mouseover" end="zoomplus.mouseout"/>
                        </use>
                        <path d="M-4,0h8M0,-4v8" fill="none" stroke="white" stroke-width="1.5" pointer-events="none"/>
                </g>
                <g id="zoomMin">
                        <use xlink:href="#rim" fill="#404040">
                                <set attributeName="fill" to="#808080" begin="zoomminus.mouseover" end="zoomminus.mouseout"/>
                        </use>
                        <path d="M-4,0h8" fill="none" stroke="white" stroke-width="1.5" pointer-events="none"/>
                </g>
                <g id="dirArrow">
                        <path fill="none" stroke="white" stroke-width="1.5" d="M0,-3.0v7 M-2.5,-0.5L0,-3.0L2.5,-0.5"/>
                </g>
               <g id="resetDef">
                       <use xlink:href="#rim2" fill="#404040">
                               <set attributeName="fill" to="#808080" begin="reset.mouseover" end="reset.mouseout"/>
                       </use>
               </g>
        </defs>

<script type="text/javascript">
var viewWidth = 2290;
var viewHeight = 655;
var sectionId = 'dynsection-7';
</script>
<script xlink:href="../../svgpan.js"/>
<svg id="graph" class="graph">
<g id="viewport">
<title>ItemBoxWorld.handleKeyInput</title>
<polygon fill="white" stroke="none" points="-4,4 -4,-651 2286,-651 2286,4 -4,4"/>
<!-- Node1 -->
<g id="node1" class="node"><title>Node1</title>
<polygon fill="#bfbfbf" stroke="black" points="0,-561.5 0,-580.5 158,-580.5 158,-561.5 0,-561.5"/>
<text text-anchor="middle" x="79" y="-568.5" font-family="Helvetica,sans-Serif" font-size="10.00">ItemBoxWorld.handleKeyInput</text>
</g>
<!-- Node2 -->
<g id="node2" class="node"><title>Node2</title>
<g id="a_node2"><a xlink:href="../../d6/d4f/class_item_box_world.html#a2ed12a6b39993faedc05cc682204476d" target="_top" xlink:title="ItemBoxWorld.winLevel">
<polygon fill="white" stroke="black" points="194.5,-561.5 194.5,-580.5 319.5,-580.5 319.5,-561.5 194.5,-561.5"/>
<text text-anchor="middle" x="257" y="-568.5" font-family="Helvetica,sans-Serif" font-size="10.00">ItemBoxWorld.winLevel</text>
</a>
</g>
</g>
<!-- Node1&#45;&gt;Node2 -->
<g id="edge1" class="edge"><title>Node1&#45;&gt;Node2</title>
<path fill="none" stroke="midnightblue" d="M158.221,-571C166.931,-571 175.771,-571 184.393,-571"/>
<polygon fill="midnightblue" stroke="midnightblue" points="184.394,-574.5 194.394,-571 184.393,-567.5 184.394,-574.5"/>
</g>
<!-- Node3 -->
<g id="node3" class="node"><title>Node3</title>
<g id="a_node3"><a xlink:href="../../db/d97/class_box_world.html#a61929851f1d60c397e1448e614f1d701" target="_top" xlink:title="BoxWorld.getAnimation">
<polygon fill="white" stroke="black" points="1386,-561.5 1386,-580.5 1514,-580.5 1514,-561.5 1386,-561.5"/>
<text text-anchor="middle" x="1450" y="-568.5" font-family="Helvetica,sans-Serif" font-size="10.00">BoxWorld.getAnimation</text>
</a>
</g>
</g>
<!-- Node2&#45;&gt;Node3 -->
<g id="edge2" class="edge"><title>Node2&#45;&gt;Node3</title>
<path fill="none" stroke="midnightblue" d="M319.618,-571C374.546,-571 457.133,-571 529,-571 529,-571 529,-571 1135,-571 1217.36,-571 1311.88,-571 1375.52,-571"/>
<polygon fill="midnightblue" stroke="midnightblue" points="1375.85,-574.5 1385.85,-571 1375.85,-567.5 1375.85,-574.5"/>
</g>
<!-- Node4 -->
<g id="node4" class="node"><title>Node4</title>
<g id="a_node4"><a xlink:href="../../d1/de1/class_end_screen.html#a1264ffb72b3a3032443f9c4087222aef" target="_top" xlink:title="EndScreen.init">
<polygon fill="white" stroke="black" points="367,-523.5 367,-542.5 453,-542.5 453,-523.5 367,-523.5"/>
<text text-anchor="middle" x="410" y="-530.5" font-family="Helvetica,sans-Serif" font-size="10.00">EndScreen.init</text>
</a>
</g>
</g>
<!-- Node2&#45;&gt;Node4 -->
<g id="edge3" class="edge"><title>Node2&#45;&gt;Node4</title>
<path fill="none" stroke="midnightblue" d="M296.104,-561.411C315.94,-556.419 340.384,-550.268 361.448,-544.967"/>
<polygon fill="midnightblue" stroke="midnightblue" points="362.327,-548.355 371.17,-542.52 360.618,-541.566 362.327,-548.355"/>
</g>
<!-- Node28 -->
<g id="node28" class="node"><title>Node28</title>
<g id="a_node28"><a xlink:href="../../db/d97/class_box_world.html#abb95adb381902ecab1db85efdc1ea6ff" target="_top" xlink:title="BoxWorld.getRoot">
<polygon fill="white" stroke="black" points="1808,-580.5 1808,-599.5 1908,-599.5 1908,-580.5 1808,-580.5"/>
<text text-anchor="middle" x="1858" y="-587.5" font-family="Helvetica,sans-Serif" font-size="10.00">BoxWorld.getRoot</text>
</a>
</g>
</g>
<!-- Node2&#45;&gt;Node28 -->
<g id="edge56" class="edge"><title>Node2&#45;&gt;Node28</title>
<path fill="none" stroke="midnightblue" d="M277.069,-580.603C296.495,-590.041 327.701,-604.262 356,-613 430.872,-636.118 450.64,-647 529,-647 529,-647 529,-647 1451,-647 1580.09,-647 1730.03,-618.393 1806.5,-601.712"/>
<polygon fill="midnightblue" stroke="midnightblue" points="1807.34,-605.112 1816.35,-599.541 1805.83,-598.276 1807.34,-605.112"/>
</g>
<!-- Node29 -->
<g id="node29" class="node"><title>Node29</title>
<g id="a_node29"><a xlink:href="../../d6/d4f/class_item_box_world.html#a1890e6c53a4a73e44e9528009fde508d" target="_top" xlink:title="ItemBoxWorld.itemExists">
<polygon fill="white" stroke="black" points="1592,-580.5 1592,-599.5 1726,-599.5 1726,-580.5 1592,-580.5"/>
<text text-anchor="middle" x="1659" y="-587.5" font-family="Helvetica,sans-Serif" font-size="10.00">ItemBoxWorld.itemExists</text>
</a>
</g>
</g>
<!-- Node2&#45;&gt;Node29 -->
<g id="edge55" class="edge"><title>Node2&#45;&gt;Node29</title>
<path fill="none" stroke="midnightblue" d="M299.991,-580.589C353.041,-591.846 447.285,-609 529,-609 529,-609 529,-609 1273,-609 1380.28,-609 1504.16,-601.55 1581.8,-595.98"/>
<polygon fill="midnightblue" stroke="midnightblue" points="1582.25,-599.457 1591.97,-595.242 1581.74,-592.475 1582.25,-599.457"/>
</g>
<!-- Node41 -->
<g id="node41" class="node"><title>Node41</title>
<g id="a_node41"><a xlink:href="../../db/d97/class_box_world.html#a2a2240e68c535f2c559c92ed0d125a45" target="_top" xlink:title="BoxWorld.getStage">
<polygon fill="white" stroke="black" points="356.5,-485.5 356.5,-504.5 463.5,-504.5 463.5,-485.5 356.5,-485.5"/>
<text text-anchor="middle" x="410" y="-492.5" font-family="Helvetica,sans-Serif" font-size="10.00">BoxWorld.getStage</text>
</a>
</g>
</g>
<!-- Node2&#45;&gt;Node41 -->
<g id="edge54" class="edge"><title>Node2&#45;&gt;Node41</title>
<path fill="none" stroke="midnightblue" d="M272.489,-561.44C291.227,-549.346 325.128,-528.365 356,-514 360.42,-511.943 365.13,-509.967 369.848,-508.117"/>
<polygon fill="midnightblue" stroke="midnightblue" points="371.321,-511.303 379.456,-504.514 368.863,-504.749 371.321,-511.303"/>
</g>
<!-- Node5 -->
<g id="node5" class="node"><title>Node5</title>
<g id="a_node5"><a xlink:href="../../d2/db8/class_menu.html#a3c99ad09e9f2f975c1a0d0597642651a" target="_top" xlink:title="Menu.init">
<polygon fill="white" stroke="black" points="500,-200.5 500,-219.5 560,-219.5 560,-200.5 500,-200.5"/>
<text text-anchor="middle" x="530" y="-207.5" font-family="Helvetica,sans-Serif" font-size="10.00">Menu.init</text>
</a>
</g>
</g>
<!-- Node4&#45;&gt;Node5 -->
<g id="edge4" class="edge"><title>Node4&#45;&gt;Node5</title>
<path fill="none" stroke="midnightblue" d="M451.692,-523.462C456.319,-520.999 460.589,-517.9 464,-514 501.719,-470.873 521.582,-290.179 527.263,-229.767"/>
<polygon fill="midnightblue" stroke="midnightblue" points="530.762,-229.931 528.185,-219.655 523.791,-229.295 530.762,-229.931"/>
</g>
<!-- Node6 -->
<g id="node6" class="node"><title>Node6</title>
<g id="a_node6"><a xlink:href="../../d2/db8/class_menu.html#a8a6e6125f0dc2dc7e19c6655ba6376a2" target="_top" xlink:title="Menu.addIntroText">
<polygon fill="white" stroke="black" points="596,-219.5 596,-238.5 700,-238.5 700,-219.5 596,-219.5"/>
<text text-anchor="middle" x="648" y="-226.5" font-family="Helvetica,sans-Serif" font-size="10.00">Menu.addIntroText</text>
</a>
</g>
</g>
<!-- Node5&#45;&gt;Node6 -->
<g id="edge5" class="edge"><title>Node5&#45;&gt;Node6</title>
<path fill="none" stroke="midnightblue" d="M560.272,-214.795C568.074,-216.072 576.804,-217.502 585.639,-218.95"/>
<polygon fill="midnightblue" stroke="midnightblue" points="585.18,-222.421 595.614,-220.583 586.311,-215.513 585.18,-222.421"/>
</g>
<!-- Node7 -->
<g id="node7" class="node"><title>Node7</title>
<g id="a_node7"><a xlink:href="../../db/d97/class_box_world.html#a55bf92d3f466bfaade0f6d199d8c9bd9" target="_top" xlink:title="BoxWorld.init">
<polygon fill="white" stroke="black" points="609.5,-181.5 609.5,-200.5 686.5,-200.5 686.5,-181.5 609.5,-181.5"/>
<text text-anchor="middle" x="648" y="-188.5" font-family="Helvetica,sans-Serif" font-size="10.00">BoxWorld.init</text>
</a>
</g>
</g>
<!-- Node5&#45;&gt;Node7 -->
<g id="edge6" class="edge"><title>Node5&#45;&gt;Node7</title>
<path fill="none" stroke="midnightblue" d="M560.272,-205.205C572.145,-203.261 586.168,-200.964 599.436,-198.791"/>
<polygon fill="midnightblue" stroke="midnightblue" points="600.085,-202.231 609.388,-197.161 598.954,-195.323 600.085,-202.231"/>
</g>
<!-- Node8 -->
<g id="node8" class="node"><title>Node8</title>
<g id="a_node8"><a xlink:href="../../db/d97/class_box_world.html#a69798621c944e846f045aaf3937505f9" target="_top" xlink:title="BoxWorld.addStarterObjects">
<polygon fill="white" stroke="black" points="1374.5,-124.5 1374.5,-143.5 1525.5,-143.5 1525.5,-124.5 1374.5,-124.5"/>
<text text-anchor="middle" x="1450" y="-131.5" font-family="Helvetica,sans-Serif" font-size="10.00">BoxWorld.addStarterObjects</text>
</a>
</g>
</g>
<!-- Node7&#45;&gt;Node8 -->
<g id="edge7" class="edge"><title>Node7&#45;&gt;Node8</title>
<path fill="none" stroke="midnightblue" d="M672.705,-181.375C725.281,-160.924 856.033,-115 970,-115 970,-115 970,-115 1135,-115 1212.6,-115 1300.79,-120.853 1363.91,-126.062"/>
<polygon fill="midnightblue" stroke="midnightblue" points="1363.96,-129.578 1374.21,-126.925 1364.54,-122.603 1363.96,-129.578"/>
</g>
<!-- Node10 -->
<g id="node10" class="node"><title>Node10</title>
<g id="a_node10"><a xlink:href="../../db/d97/class_box_world.html#a726e747e023543658d7a345cc6466ccb" target="_top" xlink:title="BoxWorld.createScene">
<polygon fill="white" stroke="black" points="736,-333.5 736,-352.5 860,-352.5 860,-333.5 736,-333.5"/>
<text text-anchor="middle" x="798" y="-340.5" font-family="Helvetica,sans-Serif" font-size="10.00">BoxWorld.createScene</text>
</a>
</g>
</g>
<!-- Node7&#45;&gt;Node10 -->
<g id="edge9" class="edge"><title>Node7&#45;&gt;Node10</title>
<path fill="none" stroke="midnightblue" d="M683.099,-200.523C689.058,-203.052 694.955,-206.176 700,-210 741.582,-241.521 773.19,-295.731 787.901,-324.233"/>
<polygon fill="midnightblue" stroke="midnightblue" points="784.929,-326.115 792.544,-333.482 791.185,-322.974 784.929,-326.115"/>
</g>
<!-- Node30 -->
<g id="node30" class="node"><title>Node30</title>
<g id="a_node30"><a xlink:href="../../db/d97/class_box_world.html#ad20a4e43406c44f4bbf201d1d1028998" target="_top" xlink:title="BoxWorld.start">
<polygon fill="white" stroke="black" points="1407,-219.5 1407,-238.5 1493,-238.5 1493,-219.5 1407,-219.5"/>
<text text-anchor="middle" x="1450" y="-226.5" font-family="Helvetica,sans-Serif" font-size="10.00">BoxWorld.start</text>
</a>
</g>
</g>
<!-- Node7&#45;&gt;Node30 -->
<g id="edge53" class="edge"><title>Node7&#45;&gt;Node30</title>
<path fill="none" stroke="midnightblue" d="M686.558,-191C746.491,-191 867.458,-191 970,-191 970,-191 970,-191 1135,-191 1227.72,-191 1334.73,-207.531 1396.84,-218.787"/>
<polygon fill="midnightblue" stroke="midnightblue" points="1396.32,-222.249 1406.79,-220.614 1397.59,-215.365 1396.32,-222.249"/>
</g>
<!-- Node9 -->
<g id="node9" class="node"><title>Node9</title>
<g id="a_node9"><a xlink:href="../../db/d97/class_box_world.html#a2542cc74ebeba6a9768a443a55186901" target="_top" xlink:title="BoxWorld.createObstacleArray">
<polygon fill="white" stroke="black" points="1578.5,-124.5 1578.5,-143.5 1739.5,-143.5 1739.5,-124.5 1578.5,-124.5"/>
<text text-anchor="middle" x="1659" y="-131.5" font-family="Helvetica,sans-Serif" font-size="10.00">BoxWorld.createObstacleArray</text>
</a>
</g>
</g>
<!-- Node8&#45;&gt;Node9 -->
<g id="edge8" class="edge"><title>Node8&#45;&gt;Node9</title>
<path fill="none" stroke="midnightblue" d="M1525.73,-134C1539.52,-134 1554.06,-134 1568.24,-134"/>
<polygon fill="midnightblue" stroke="midnightblue" points="1568.49,-137.5 1578.49,-134 1568.49,-130.5 1568.49,-137.5"/>
</g>
<!-- Node11 -->
<g id="node11" class="node"><title>Node11</title>
<g id="a_node11"><a xlink:href="../../db/d97/class_box_world.html#aa7e2049d7be23e15fd2ec7fa2922ed79" target="_top" xlink:title="BoxWorld.handleKeyInput">
<polygon fill="white" stroke="black" points="903,-295.5 903,-314.5 1039,-314.5 1039,-295.5 903,-295.5"/>
<text text-anchor="middle" x="971" y="-302.5" font-family="Helvetica,sans-Serif" font-size="10.00">BoxWorld.handleKeyInput</text>
</a>
</g>
</g>
<!-- Node10&#45;&gt;Node11 -->
<g id="edge10" class="edge"><title>Node10&#45;&gt;Node11</title>
<path fill="none" stroke="midnightblue" d="M842.151,-333.411C864.919,-328.351 893.048,-322.1 917.119,-316.751"/>
<polygon fill="midnightblue" stroke="midnightblue" points="918.157,-320.106 927.16,-314.52 916.639,-313.273 918.157,-320.106"/>
</g>
<!-- Node40 -->
<g id="node40" class="node"><title>Node40</title>
<g id="a_node40"><a xlink:href="../../db/d97/class_box_world.html#a2d44485a181577acb4d79b6b81f26fff" target="_top" xlink:title="BoxWorld.handleKeyRelease">
<polygon fill="white" stroke="black" points="896.5,-409.5 896.5,-428.5 1045.5,-428.5 1045.5,-409.5 896.5,-409.5"/>
<text text-anchor="middle" x="971" y="-416.5" font-family="Helvetica,sans-Serif" font-size="10.00">BoxWorld.handleKeyRelease</text>
</a>
</g>
</g>
<!-- Node10&#45;&gt;Node40 -->
<g id="edge52" class="edge"><title>Node10&#45;&gt;Node40</title>
<path fill="none" stroke="midnightblue" d="M814.701,-352.549C833.536,-363.733 866.293,-382.34 896,-395 905.792,-399.173 916.569,-403.051 926.796,-406.421"/>
<polygon fill="midnightblue" stroke="midnightblue" points="925.791,-409.774 936.382,-409.489 927.924,-403.107 925.791,-409.774"/>
</g>
<!-- Node12 -->
<g id="node12" class="node"><title>Node12</title>
<g id="a_node12"><a xlink:href="../../db/d97/class_box_world.html#adc4c9d78ffde3d052c4c92047eb98e55" target="_top" xlink:title="BoxWorld.allowMovement">
<polygon fill="white" stroke="black" points="1976.5,-67.5 1976.5,-86.5 2113.5,-86.5 2113.5,-67.5 1976.5,-67.5"/>
<text text-anchor="middle" x="2045" y="-74.5" font-family="Helvetica,sans-Serif" font-size="10.00">BoxWorld.allowMovement</text>
</a>
</g>
</g>
<!-- Node11&#45;&gt;Node12 -->
<g id="edge11" class="edge"><title>Node11&#45;&gt;Node12</title>
<path fill="none" stroke="midnightblue" d="M982.529,-295.493C1031.45,-252.343 1242.94,-77 1449,-77 1449,-77 1449,-77 1660,-77 1766.07,-77 1888.62,-77 1966.2,-77"/>
<polygon fill="midnightblue" stroke="midnightblue" points="1966.37,-80.5001 1976.37,-77 1966.37,-73.5001 1966.37,-80.5001"/>
</g>
<!-- Node17 -->
<g id="node17" class="node"><title>Node17</title>
<g id="a_node17"><a xlink:href="../../db/d97/class_box_world.html#a04c6bf977c4292a5433649fb3745fd6b" target="_top" xlink:title="BoxWorld.reset">
<polygon fill="white" stroke="black" points="1615,-257.5 1615,-276.5 1703,-276.5 1703,-257.5 1615,-257.5"/>
<text text-anchor="middle" x="1659" y="-264.5" font-family="Helvetica,sans-Serif" font-size="10.00">BoxWorld.reset</text>
</a>
</g>
</g>
<!-- Node11&#45;&gt;Node17 -->
<g id="edge16" class="edge"><title>Node11&#45;&gt;Node17</title>
<path fill="none" stroke="midnightblue" d="M1039.09,-295.54C1053.24,-293.804 1068.09,-292.173 1082,-291 1274.12,-274.801 1503.25,-269.392 1604.91,-267.706"/>
<polygon fill="midnightblue" stroke="midnightblue" points="1604.99,-271.205 1614.93,-267.545 1604.87,-264.206 1604.99,-271.205"/>
</g>
<!-- Node18 -->
<g id="node18" class="node"><title>Node18</title>
<g id="a_node18"><a xlink:href="../../da/de2/class_sticky_box.html#aa1bb8f78f676b01c688d75d386758444" target="_top" xlink:title="StickyBox.setDirection">
<polygon fill="white" stroke="black" points="1796,-333.5 1796,-352.5 1920,-352.5 1920,-333.5 1796,-333.5"/>
<text text-anchor="middle" x="1858" y="-340.5" font-family="Helvetica,sans-Serif" font-size="10.00">StickyBox.setDirection</text>
</a>
</g>
</g>
<!-- Node11&#45;&gt;Node18 -->
<g id="edge19" class="edge"><title>Node11&#45;&gt;Node18</title>
<path fill="none" stroke="midnightblue" d="M1039.09,-305C1099.69,-305 1191.32,-305 1271,-305 1271,-305 1271,-305 1451,-305 1568.79,-305 1704.97,-321.052 1785.88,-332.29"/>
<polygon fill="midnightblue" stroke="midnightblue" points="1785.56,-335.78 1795.95,-333.704 1786.53,-328.848 1785.56,-335.78"/>
</g>
<!-- Node20 -->
<g id="node20" class="node"><title>Node20</title>
<g id="a_node20"><a xlink:href="../../db/d97/class_box_world.html#aad670712776afe126e51791097027e05" target="_top" xlink:title="BoxWorld.winLevel">
<polygon fill="white" stroke="black" points="1082.5,-333.5 1082.5,-352.5 1185.5,-352.5 1185.5,-333.5 1082.5,-333.5"/>
<text text-anchor="middle" x="1134" y="-340.5" font-family="Helvetica,sans-Serif" font-size="10.00">BoxWorld.winLevel</text>
</a>
</g>
</g>
<!-- Node11&#45;&gt;Node20 -->
<g id="edge20" class="edge"><title>Node11&#45;&gt;Node20</title>
<path fill="none" stroke="midnightblue" d="M1012.63,-314.589C1033.97,-319.626 1060.31,-325.844 1082.91,-331.177"/>
<polygon fill="midnightblue" stroke="midnightblue" points="1082.13,-334.589 1092.67,-333.48 1083.74,-327.776 1082.13,-334.589"/>
</g>
<!-- Node13 -->
<g id="node13" class="node"><title>Node13</title>
<g id="a_node13"><a xlink:href="../../da/de2/class_sticky_box.html#a6ba3f89630df9d81df5644a3e5f4e387" target="_top" xlink:title="StickyBox.getXDirection">
<polygon fill="white" stroke="black" points="2150.5,-181.5 2150.5,-200.5 2281.5,-200.5 2281.5,-181.5 2150.5,-181.5"/>
<text text-anchor="middle" x="2216" y="-188.5" font-family="Helvetica,sans-Serif" font-size="10.00">StickyBox.getXDirection</text>
</a>
</g>
</g>
<!-- Node12&#45;&gt;Node13 -->
<g id="edge12" class="edge"><title>Node12&#45;&gt;Node13</title>
<path fill="none" stroke="midnightblue" d="M2098.47,-86.5846C2104.08,-89.0431 2109.41,-92.1286 2114,-96 2142.58,-120.091 2121.57,-147.739 2150,-172 2152,-173.703 2154.14,-175.253 2156.38,-176.664"/>
<polygon fill="midnightblue" stroke="midnightblue" points="2155.01,-179.894 2165.49,-181.449 2158.26,-173.698 2155.01,-179.894"/>
</g>
<!-- Node14 -->
<g id="node14" class="node"><title>Node14</title>
<g id="a_node14"><a xlink:href="../../da/de2/class_sticky_box.html#ab0bd7cafb7f243e3951558ddb8728b96" target="_top" xlink:title="StickyBox.getXPrev">
<polygon fill="white" stroke="black" points="2161.5,-57.5 2161.5,-76.5 2270.5,-76.5 2270.5,-57.5 2161.5,-57.5"/>
<text text-anchor="middle" x="2216" y="-64.5" font-family="Helvetica,sans-Serif" font-size="10.00">StickyBox.getXPrev</text>
</a>
</g>
</g>
<!-- Node12&#45;&gt;Node14 -->
<g id="edge13" class="edge"><title>Node12&#45;&gt;Node14</title>
<path fill="none" stroke="midnightblue" d="M2113.76,-72.9902C2126.1,-72.2601 2138.94,-71.5006 2151.16,-70.7774"/>
<polygon fill="midnightblue" stroke="midnightblue" points="2151.48,-74.2646 2161.26,-70.18 2151.07,-67.2768 2151.48,-74.2646"/>
</g>
<!-- Node15 -->
<g id="node15" class="node"><title>Node15</title>
<g id="a_node15"><a xlink:href="../../da/de2/class_sticky_box.html#a69e5ccf2a79159c03dea2e048df13318" target="_top" xlink:title="StickyBox.getYDirection">
<polygon fill="white" stroke="black" points="2151,-143.5 2151,-162.5 2281,-162.5 2281,-143.5 2151,-143.5"/>
<text text-anchor="middle" x="2216" y="-150.5" font-family="Helvetica,sans-Serif" font-size="10.00">StickyBox.getYDirection</text>
</a>
</g>
</g>
<!-- Node12&#45;&gt;Node15 -->
<g id="edge14" class="edge"><title>Node12&#45;&gt;Node15</title>
<path fill="none" stroke="midnightblue" d="M2089.75,-86.5108C2098.03,-89.0595 2106.45,-92.1941 2114,-96 2132.1,-105.121 2132.62,-113.573 2150,-124 2159.56,-129.733 2170.45,-135.025 2180.54,-139.476"/>
<polygon fill="midnightblue" stroke="midnightblue" points="2179.34,-142.768 2189.91,-143.473 2182.09,-136.33 2179.34,-142.768"/>
</g>
<!-- Node16 -->
<g id="node16" class="node"><title>Node16</title>
<g id="a_node16"><a xlink:href="../../da/de2/class_sticky_box.html#a4c6abed944faed9d9b226079e99cfc24" target="_top" xlink:title="StickyBox.getYPrev">
<polygon fill="white" stroke="black" points="2162,-95.5 2162,-114.5 2270,-114.5 2270,-95.5 2162,-95.5"/>
<text text-anchor="middle" x="2216" y="-102.5" font-family="Helvetica,sans-Serif" font-size="10.00">StickyBox.getYPrev</text>
</a>
</g>
</g>
<!-- Node12&#45;&gt;Node16 -->
<g id="edge15" class="edge"><title>Node12&#45;&gt;Node16</title>
<path fill="none" stroke="midnightblue" d="M2103.69,-86.5577C2119.14,-89.1179 2135.93,-91.8992 2151.67,-94.5069"/>
<polygon fill="midnightblue" stroke="midnightblue" points="2151.4,-98.0098 2161.83,-96.1915 2152.54,-91.104 2151.4,-98.0098"/>
</g>
<!-- Node17&#45;&gt;Node18 -->
<g id="edge17" class="edge"><title>Node17&#45;&gt;Node18</title>
<path fill="none" stroke="midnightblue" d="M1703.39,-276.175C1715.69,-279.781 1728.78,-284.625 1740,-291 1758.87,-301.723 1756.81,-313.858 1776,-324 1780.32,-326.284 1784.92,-328.296 1789.64,-330.069"/>
<polygon fill="midnightblue" stroke="midnightblue" points="1788.86,-333.5 1799.45,-333.38 1791.1,-326.868 1788.86,-333.5"/>
</g>
<!-- Node19 -->
<g id="node19" class="node"><title>Node19</title>
<g id="a_node19"><a xlink:href="../../da/de2/class_sticky_box.html#a5d95d2ed2e13f0d87a44311db77f9e36" target="_top" xlink:title="StickyBox.setPreviousDirection">
<polygon fill="white" stroke="black" points="1776,-295.5 1776,-314.5 1940,-314.5 1940,-295.5 1776,-295.5"/>
<text text-anchor="middle" x="1858" y="-302.5" font-family="Helvetica,sans-Serif" font-size="10.00">StickyBox.setPreviousDirection</text>
</a>
</g>
</g>
<!-- Node17&#45;&gt;Node19 -->
<g id="edge18" class="edge"><title>Node17&#45;&gt;Node19</title>
<path fill="none" stroke="midnightblue" d="M1703.23,-275.339C1730.91,-280.678 1767.2,-287.678 1797.57,-293.536"/>
<polygon fill="midnightblue" stroke="midnightblue" points="1797.14,-297.018 1807.62,-295.475 1798.47,-290.145 1797.14,-297.018"/>
</g>
<!-- Node21 -->
<g id="node21" class="node"><title>Node21</title>
<g id="a_node21"><a xlink:href="../../d6/d4f/class_item_box_world.html#aa559fc2680327b41fb376e2eda8e82e3" target="_top" xlink:title="ItemBoxWorld.init">
<polygon fill="white" stroke="black" points="1222.5,-371.5 1222.5,-390.5 1321.5,-390.5 1321.5,-371.5 1222.5,-371.5"/>
<text text-anchor="middle" x="1272" y="-378.5" font-family="Helvetica,sans-Serif" font-size="10.00">ItemBoxWorld.init</text>
</a>
</g>
</g>
<!-- Node20&#45;&gt;Node21 -->
<g id="edge21" class="edge"><title>Node20&#45;&gt;Node21</title>
<path fill="none" stroke="midnightblue" d="M1169.32,-352.589C1186.79,-357.472 1208.24,-363.464 1226.93,-368.685"/>
<polygon fill="midnightblue" stroke="midnightblue" points="1226.12,-372.094 1236.69,-371.414 1228,-365.352 1226.12,-372.094"/>
</g>
<!-- Node21&#45;&gt;Node3 -->
<g id="edge50" class="edge"><title>Node21&#45;&gt;Node3</title>
<path fill="none" stroke="midnightblue" d="M1274.74,-390.611C1280.59,-419.961 1302.38,-509.038 1358,-552 1363.41,-556.176 1369.51,-559.49 1375.94,-562.114"/>
<polygon fill="midnightblue" stroke="midnightblue" points="1374.95,-565.475 1385.54,-565.483 1377.27,-558.87 1374.95,-565.475"/>
</g>
<!-- Node21&#45;&gt;Node8 -->
<g id="edge26" class="edge"><title>Node21&#45;&gt;Node8</title>
<path fill="none" stroke="midnightblue" d="M1276.2,-371.325C1285.58,-343.946 1315.07,-264.391 1358,-210 1377.35,-185.479 1405.74,-163.323 1425.65,-149.345"/>
<polygon fill="midnightblue" stroke="midnightblue" points="1427.87,-152.063 1434.14,-143.519 1423.91,-146.292 1427.87,-152.063"/>
</g>
<!-- Node21&#45;&gt;Node10 -->
<g id="edge51" class="edge"><title>Node21&#45;&gt;Node10</title>
<path fill="none" stroke="midnightblue" d="M1222.41,-377.088C1138.8,-370.357 967.376,-356.556 870.247,-348.736"/>
<polygon fill="midnightblue" stroke="midnightblue" points="870.471,-345.243 860.222,-347.929 869.909,-352.22 870.471,-345.243"/>
</g>
<!-- Node22 -->
<g id="node22" class="node"><title>Node22</title>
<g id="a_node22"><a xlink:href="../../db/d97/class_box_world.html#a25c34c68bdd68debd7de01a4f3b98bb1" target="_top" xlink:title="BoxWorld.setStage">
<polygon fill="white" stroke="black" points="1396.5,-333.5 1396.5,-352.5 1503.5,-352.5 1503.5,-333.5 1396.5,-333.5"/>
<text text-anchor="middle" x="1450" y="-340.5" font-family="Helvetica,sans-Serif" font-size="10.00">BoxWorld.setStage</text>
</a>
</g>
</g>
<!-- Node21&#45;&gt;Node22 -->
<g id="edge22" class="edge"><title>Node21&#45;&gt;Node22</title>
<path fill="none" stroke="midnightblue" d="M1315.34,-371.411C1328.96,-368.362 1344.11,-365.003 1358,-362 1369.22,-359.574 1381.24,-357.028 1392.74,-354.618"/>
<polygon fill="midnightblue" stroke="midnightblue" points="1393.61,-358.012 1402.68,-352.54 1392.17,-351.16 1393.61,-358.012"/>
</g>
<!-- Node23 -->
<g id="node23" class="node"><title>Node23</title>
<g id="a_node23"><a xlink:href="../../db/d97/class_box_world.html#a3735494d6eeffc036cd757eb21170eb0" target="_top" xlink:title="BoxWorld.setObstacleXCoordinates">
<polygon fill="white" stroke="black" points="1358.5,-485.5 1358.5,-504.5 1541.5,-504.5 1541.5,-485.5 1358.5,-485.5"/>
<text text-anchor="middle" x="1450" y="-492.5" font-family="Helvetica,sans-Serif" font-size="10.00">BoxWorld.setObstacleXCoordinates</text>
</a>
</g>
</g>
<!-- Node21&#45;&gt;Node23 -->
<g id="edge23" class="edge"><title>Node21&#45;&gt;Node23</title>
<path fill="none" stroke="midnightblue" d="M1278.63,-390.637C1290.56,-410.15 1320.43,-454.32 1358,-476 1361.88,-478.238 1365.99,-480.215 1370.23,-481.96"/>
<polygon fill="midnightblue" stroke="midnightblue" points="1369.09,-485.272 1379.69,-485.422 1371.5,-478.698 1369.09,-485.272"/>
</g>
<!-- Node24 -->
<g id="node24" class="node"><title>Node24</title>
<g id="a_node24"><a xlink:href="../../db/d97/class_box_world.html#ab45827804913790744cdbaaf8a222256" target="_top" xlink:title="BoxWorld.setObstacleYCoordinates">
<polygon fill="white" stroke="black" points="1359,-447.5 1359,-466.5 1541,-466.5 1541,-447.5 1359,-447.5"/>
<text text-anchor="middle" x="1450" y="-454.5" font-family="Helvetica,sans-Serif" font-size="10.00">BoxWorld.setObstacleYCoordinates</text>
</a>
</g>
</g>
<!-- Node21&#45;&gt;Node24 -->
<g id="edge24" class="edge"><title>Node21&#45;&gt;Node24</title>
<path fill="none" stroke="midnightblue" d="M1284.27,-390.667C1299.81,-403.479 1329.18,-425.872 1358,-438 1364.2,-440.607 1370.79,-442.869 1377.48,-444.829"/>
<polygon fill="midnightblue" stroke="midnightblue" points="1376.75,-448.258 1387.32,-447.489 1378.58,-441.501 1376.75,-448.258"/>
</g>
<!-- Node25 -->
<g id="node25" class="node"><title>Node25</title>
<g id="a_node25"><a xlink:href="../../db/d97/class_box_world.html#aeeaafc4ff103ded208e6c9393eb4ceca" target="_top" xlink:title="BoxWorld.setRoot">
<polygon fill="white" stroke="black" points="1400.5,-409.5 1400.5,-428.5 1499.5,-428.5 1499.5,-409.5 1400.5,-409.5"/>
<text text-anchor="middle" x="1450" y="-416.5" font-family="Helvetica,sans-Serif" font-size="10.00">BoxWorld.setRoot</text>
</a>
</g>
</g>
<!-- Node21&#45;&gt;Node25 -->
<g id="edge25" class="edge"><title>Node21&#45;&gt;Node25</title>
<path fill="none" stroke="midnightblue" d="M1315.34,-390.589C1328.96,-393.638 1344.11,-396.997 1358,-400 1369.22,-402.426 1381.24,-404.972 1392.74,-407.382"/>
<polygon fill="midnightblue" stroke="midnightblue" points="1392.17,-410.84 1402.68,-409.46 1393.61,-403.988 1392.17,-410.84"/>
</g>
<!-- Node26 -->
<g id="node26" class="node"><title>Node26</title>
<g id="a_node26"><a xlink:href="../../d6/d4f/class_item_box_world.html#a7ead15fd9fd8095f928640161d48fdf8" target="_top" xlink:title="ItemBoxWorld.addAllItems">
<polygon fill="white" stroke="black" points="1379.5,-523.5 1379.5,-542.5 1520.5,-542.5 1520.5,-523.5 1379.5,-523.5"/>
<text text-anchor="middle" x="1450" y="-530.5" font-family="Helvetica,sans-Serif" font-size="10.00">ItemBoxWorld.addAllItems</text>
</a>
</g>
</g>
<!-- Node21&#45;&gt;Node26 -->
<g id="edge27" class="edge"><title>Node21&#45;&gt;Node26</title>
<path fill="none" stroke="midnightblue" d="M1276.14,-390.57C1284.81,-415.356 1311.54,-481.941 1358,-514 1361.76,-516.597 1365.81,-518.851 1370.03,-520.807"/>
<polygon fill="midnightblue" stroke="midnightblue" points="1368.91,-524.132 1379.49,-524.631 1371.53,-517.641 1368.91,-524.132"/>
</g>
<!-- Node21&#45;&gt;Node30 -->
<g id="edge32" class="edge"><title>Node21&#45;&gt;Node30</title>
<path fill="none" stroke="midnightblue" d="M1284.01,-371.492C1313.27,-346.221 1393.24,-277.153 1430.03,-245.384"/>
<polygon fill="midnightblue" stroke="midnightblue" points="1432.71,-247.69 1437.99,-238.505 1428.14,-242.392 1432.71,-247.69"/>
</g>
<!-- Node39 -->
<g id="node39" class="node"><title>Node39</title>
<g id="a_node39"><a xlink:href="../../db/d97/class_box_world.html#a8d7d9f1ae1ebcd87ff73c09780b70629" target="_top" xlink:title="BoxWorld.setAnimation">
<polygon fill="white" stroke="black" points="1386.5,-371.5 1386.5,-390.5 1513.5,-390.5 1513.5,-371.5 1386.5,-371.5"/>
<text text-anchor="middle" x="1450" y="-378.5" font-family="Helvetica,sans-Serif" font-size="10.00">BoxWorld.setAnimation</text>
</a>
</g>
</g>
<!-- Node21&#45;&gt;Node39 -->
<g id="edge49" class="edge"><title>Node21&#45;&gt;Node39</title>
<path fill="none" stroke="midnightblue" d="M1321.56,-381C1338.47,-381 1357.83,-381 1376.27,-381"/>
<polygon fill="midnightblue" stroke="midnightblue" points="1376.4,-384.5 1386.4,-381 1376.4,-377.5 1376.4,-384.5"/>
</g>
<!-- Node27 -->
<g id="node27" class="node"><title>Node27</title>
<g id="a_node27"><a xlink:href="../../d6/d4f/class_item_box_world.html#af1bcde0672796e926560684004ed8e81" target="_top" xlink:title="ItemBoxWorld.addSingleItem">
<polygon fill="white" stroke="black" points="1582,-532.5 1582,-551.5 1736,-551.5 1736,-532.5 1582,-532.5"/>
<text text-anchor="middle" x="1659" y="-539.5" font-family="Helvetica,sans-Serif" font-size="10.00">ItemBoxWorld.addSingleItem</text>
</a>
</g>
</g>
<!-- Node26&#45;&gt;Node27 -->
<g id="edge28" class="edge"><title>Node26&#45;&gt;Node27</title>
<path fill="none" stroke="midnightblue" d="M1520.5,-536.022C1537,-536.739 1554.79,-537.513 1571.92,-538.258"/>
<polygon fill="midnightblue" stroke="midnightblue" points="1571.78,-541.754 1581.92,-538.692 1572.08,-534.761 1571.78,-541.754"/>
</g>
<!-- Node26&#45;&gt;Node29 -->
<g id="edge30" class="edge"><title>Node26&#45;&gt;Node29</title>
<path fill="none" stroke="midnightblue" d="M1501.78,-542.564C1514.94,-545.327 1529.06,-548.541 1542,-552 1569.11,-559.246 1599.21,-569.162 1621.95,-577.048"/>
<polygon fill="midnightblue" stroke="midnightblue" points="1620.93,-580.401 1631.53,-580.4 1623.25,-573.793 1620.93,-580.401"/>
</g>
<!-- Node27&#45;&gt;Node28 -->
<g id="edge29" class="edge"><title>Node27&#45;&gt;Node28</title>
<path fill="none" stroke="midnightblue" d="M1699.39,-551.598C1730.53,-559.185 1774.17,-569.819 1807.64,-577.973"/>
<polygon fill="midnightblue" stroke="midnightblue" points="1807.13,-581.452 1817.68,-580.418 1808.79,-574.651 1807.13,-581.452"/>
</g>
<!-- Node29&#45;&gt;Node28 -->
<g id="edge31" class="edge"><title>Node29&#45;&gt;Node28</title>
<path fill="none" stroke="midnightblue" d="M1726.15,-590C1749.31,-590 1775.17,-590 1797.73,-590"/>
<polygon fill="midnightblue" stroke="midnightblue" points="1797.85,-593.5 1807.85,-590 1797.85,-586.5 1797.85,-593.5"/>
</g>
<!-- Node31 -->
<g id="node31" class="node"><title>Node31</title>
<g id="a_node31"><a xlink:href="../../db/d97/class_box_world.html#a6794c083c2a0263c2f585f4ae4b7e39c" target="_top" xlink:title="BoxWorld.updateSprites">
<polygon fill="white" stroke="black" points="1593.5,-219.5 1593.5,-238.5 1724.5,-238.5 1724.5,-219.5 1593.5,-219.5"/>
<text text-anchor="middle" x="1659" y="-226.5" font-family="Helvetica,sans-Serif" font-size="10.00">BoxWorld.updateSprites</text>
</a>
</g>
</g>
<!-- Node30&#45;&gt;Node31 -->
<g id="edge33" class="edge"><title>Node30&#45;&gt;Node31</title>
<path fill="none" stroke="midnightblue" d="M1493.14,-229C1519.05,-229 1553,-229 1583.35,-229"/>
<polygon fill="midnightblue" stroke="midnightblue" points="1583.49,-232.5 1593.49,-229 1583.49,-225.5 1583.49,-232.5"/>
</g>
<!-- Node31&#45;&gt;Node13 -->
<g id="edge43" class="edge"><title>Node31&#45;&gt;Node13</title>
<path fill="none" stroke="midnightblue" d="M1724.51,-229.217C1812.74,-228.85 1975.86,-225.801 2114,-210 2129.7,-208.204 2146.64,-205.375 2162.06,-202.444"/>
<polygon fill="midnightblue" stroke="midnightblue" points="2162.81,-205.864 2171.96,-200.513 2161.47,-198.994 2162.81,-205.864"/>
</g>
<!-- Node31&#45;&gt;Node15 -->
<g id="edge44" class="edge"><title>Node31&#45;&gt;Node15</title>
<path fill="none" stroke="midnightblue" d="M1704.64,-219.456C1716.57,-215.89 1729.16,-211.161 1740,-205 1758.87,-194.277 1755.95,-180.304 1776,-172 1839.84,-145.563 2033.16,-147.028 2140.74,-150.143"/>
<polygon fill="midnightblue" stroke="midnightblue" points="2140.78,-153.646 2150.88,-150.449 2140.99,-146.649 2140.78,-153.646"/>
</g>
<!-- Node31&#45;&gt;Node18 -->
<g id="edge46" class="edge"><title>Node31&#45;&gt;Node18</title>
<path fill="none" stroke="midnightblue" d="M1724.08,-238.548C1729.81,-241.035 1735.23,-244.136 1740,-248 1769.04,-271.525 1746.92,-300.516 1776,-324 1779.29,-326.655 1782.88,-328.951 1786.67,-330.936"/>
<polygon fill="midnightblue" stroke="midnightblue" points="1785.24,-334.133 1795.8,-335.024 1788.1,-327.744 1785.24,-334.133"/>
</g>
<!-- Node31&#45;&gt;Node19 -->
<g id="edge47" class="edge"><title>Node31&#45;&gt;Node19</title>
<path fill="none" stroke="midnightblue" d="M1718.35,-238.631C1725.9,-241.08 1733.32,-244.151 1740,-248 1760.16,-259.616 1755.83,-274.412 1776,-286 1779.91,-288.246 1784.07,-290.227 1788.36,-291.974"/>
<polygon fill="midnightblue" stroke="midnightblue" points="1787.33,-295.322 1797.92,-295.436 1789.71,-288.74 1787.33,-295.322"/>
</g>
<!-- Node32 -->
<g id="node32" class="node"><title>Node32</title>
<g id="a_node32"><a xlink:href="../../db/d97/class_box_world.html#a4079bed8937c9f621decfbe1309e31e2" target="_top" xlink:title="BoxWorld.checkAllCollisions">
<polygon fill="white" stroke="black" points="1785,-105.5 1785,-124.5 1931,-124.5 1931,-105.5 1785,-105.5"/>
<text text-anchor="middle" x="1858" y="-112.5" font-family="Helvetica,sans-Serif" font-size="10.00">BoxWorld.checkAllCollisions</text>
</a>
</g>
</g>
<!-- Node31&#45;&gt;Node32 -->
<g id="edge34" class="edge"><title>Node31&#45;&gt;Node32</title>
<path fill="none" stroke="midnightblue" d="M1713.26,-219.38C1722.84,-215.951 1732.23,-211.303 1740,-205 1765.95,-183.952 1750.01,-160.004 1776,-139 1781.29,-134.726 1787.32,-131.213 1793.65,-128.325"/>
<polygon fill="midnightblue" stroke="midnightblue" points="1795.11,-131.508 1803.08,-124.526 1792.5,-125.015 1795.11,-131.508"/>
</g>
<!-- Node37 -->
<g id="node37" class="node"><title>Node37</title>
<g id="a_node37"><a xlink:href="../../da/de2/class_sticky_box.html#a185ee469367b376e6c5969a03d089d57" target="_top" xlink:title="StickyBox.move">
<polygon fill="white" stroke="black" points="1811.5,-181.5 1811.5,-200.5 1904.5,-200.5 1904.5,-181.5 1811.5,-181.5"/>
<text text-anchor="middle" x="1858" y="-188.5" font-family="Helvetica,sans-Serif" font-size="10.00">StickyBox.move</text>
</a>
</g>
</g>
<!-- Node31&#45;&gt;Node37 -->
<g id="edge45" class="edge"><title>Node31&#45;&gt;Node37</title>
<path fill="none" stroke="midnightblue" d="M1709.46,-219.46C1737.39,-214.071 1772.39,-207.32 1801.29,-201.745"/>
<polygon fill="midnightblue" stroke="midnightblue" points="1802.08,-205.157 1811.24,-199.827 1800.76,-198.284 1802.08,-205.157"/>
</g>
<!-- Node38 -->
<g id="node38" class="node"><title>Node38</title>
<g id="a_node38"><a xlink:href="../../da/de2/class_sticky_box.html#a59337f0aa3c7379a2cb9c76bdc621daf" target="_top" xlink:title="StickyBox.setStuck">
<polygon fill="white" stroke="black" points="1804,-257.5 1804,-276.5 1912,-276.5 1912,-257.5 1804,-257.5"/>
<text text-anchor="middle" x="1858" y="-264.5" font-family="Helvetica,sans-Serif" font-size="10.00">StickyBox.setStuck</text>
</a>
</g>
</g>
<!-- Node31&#45;&gt;Node38 -->
<g id="edge48" class="edge"><title>Node31&#45;&gt;Node38</title>
<path fill="none" stroke="midnightblue" d="M1709.46,-238.54C1736.15,-243.69 1769.3,-250.084 1797.42,-255.506"/>
<polygon fill="midnightblue" stroke="midnightblue" points="1797.04,-258.999 1807.52,-257.456 1798.37,-252.125 1797.04,-258.999"/>
</g>
<!-- Node32&#45;&gt;Node20 -->
<g id="edge42" class="edge"><title>Node32&#45;&gt;Node20</title>
<path fill="none" stroke="midnightblue" d="M1831.78,-124.537C1808.32,-133.087 1772.22,-145.418 1740,-153 1572.91,-192.315 1519.66,-152.277 1358,-210 1277.04,-238.908 1192.94,-298.557 1155.32,-327.101"/>
<polygon fill="midnightblue" stroke="midnightblue" points="1152.99,-324.472 1147.19,-333.335 1157.25,-330.026 1152.99,-324.472"/>
</g>
<!-- Node33 -->
<g id="node33" class="node"><title>Node33</title>
<g id="a_node33"><a xlink:href="../../db/d97/class_box_world.html#a55add11037cd6dc48556f2f42a9e11be" target="_top" xlink:title="BoxWorld.checkCollide">
<polygon fill="white" stroke="black" points="1984,-181.5 1984,-200.5 2106,-200.5 2106,-181.5 1984,-181.5"/>
<text text-anchor="middle" x="2045" y="-188.5" font-family="Helvetica,sans-Serif" font-size="10.00">BoxWorld.checkCollide</text>
</a>
</g>
</g>
<!-- Node32&#45;&gt;Node33 -->
<g id="edge35" class="edge"><title>Node32&#45;&gt;Node33</title>
<path fill="none" stroke="midnightblue" d="M1882.43,-124.625C1915.1,-138.045 1974.46,-162.434 2011.42,-177.617"/>
<polygon fill="midnightblue" stroke="midnightblue" points="2010.18,-180.89 2020.76,-181.453 2012.84,-174.415 2010.18,-180.89"/>
</g>
<!-- Node34 -->
<g id="node34" class="node"><title>Node34</title>
<g id="a_node34"><a xlink:href="../../db/d97/class_box_world.html#a72bacb2a6757900d8835249929fcc838" target="_top" xlink:title="BoxWorld.loseGame">
<polygon fill="white" stroke="black" points="1989,-29.5 1989,-48.5 2101,-48.5 2101,-29.5 1989,-29.5"/>
<text text-anchor="middle" x="2045" y="-36.5" font-family="Helvetica,sans-Serif" font-size="10.00">BoxWorld.loseGame</text>
</a>
</g>
</g>
<!-- Node32&#45;&gt;Node34 -->
<g id="edge38" class="edge"><title>Node32&#45;&gt;Node34</title>
<path fill="none" stroke="midnightblue" d="M1876.01,-105.498C1898.4,-93.2734 1939.25,-71.9563 1976,-58 1982.24,-55.6319 1988.89,-53.412 1995.51,-51.3843"/>
<polygon fill="midnightblue" stroke="midnightblue" points="1996.52,-54.7359 2005.13,-48.5561 1994.55,-48.0204 1996.52,-54.7359"/>
</g>
<!-- Node36 -->
<g id="node36" class="node"><title>Node36</title>
<g id="a_node36"><a xlink:href="../../db/d97/class_box_world.html#a167adb49603af3a303ee958011243b5f" target="_top" xlink:title="BoxWorld.onScreen">
<polygon fill="white" stroke="black" points="1990.5,-105.5 1990.5,-124.5 2099.5,-124.5 2099.5,-105.5 1990.5,-105.5"/>
<text text-anchor="middle" x="2045" y="-112.5" font-family="Helvetica,sans-Serif" font-size="10.00">BoxWorld.onScreen</text>
</a>
</g>
</g>
<!-- Node32&#45;&gt;Node36 -->
<g id="edge41" class="edge"><title>Node32&#45;&gt;Node36</title>
<path fill="none" stroke="midnightblue" d="M1931.06,-115C1947.28,-115 1964.4,-115 1980.26,-115"/>
<polygon fill="midnightblue" stroke="midnightblue" points="1980.48,-118.5 1990.48,-115 1980.48,-111.5 1980.48,-118.5"/>
</g>
<!-- Node33&#45;&gt;Node13 -->
<g id="edge36" class="edge"><title>Node33&#45;&gt;Node13</title>
<path fill="none" stroke="midnightblue" d="M2106.06,-191C2117.03,-191 2128.6,-191 2139.94,-191"/>
<polygon fill="midnightblue" stroke="midnightblue" points="2140.26,-194.5 2150.26,-191 2140.26,-187.5 2140.26,-194.5"/>
</g>
<!-- Node33&#45;&gt;Node15 -->
<g id="edge37" class="edge"><title>Node33&#45;&gt;Node15</title>
<path fill="none" stroke="midnightblue" d="M2088.65,-181.411C2111.15,-176.351 2138.95,-170.1 2162.74,-164.751"/>
<polygon fill="midnightblue" stroke="midnightblue" points="2163.67,-168.129 2172.66,-162.52 2162.14,-161.299 2163.67,-168.129"/>
</g>
<!-- Node35 -->
<g id="node35" class="node"><title>Node35</title>
<g id="a_node35"><a xlink:href="../../d4/d2f/class_lose_screen.html#a34f2cc2c803500316c9b8d854854d758" target="_top" xlink:title="LoseScreen.init">
<polygon fill="white" stroke="black" points="2171,-0.5 2171,-19.5 2261,-19.5 2261,-0.5 2171,-0.5"/>
<text text-anchor="middle" x="2216" y="-7.5" font-family="Helvetica,sans-Serif" font-size="10.00">LoseScreen.init</text>
</a>
</g>
</g>
<!-- Node34&#45;&gt;Node35 -->
<g id="edge39" class="edge"><title>Node34&#45;&gt;Node35</title>
<path fill="none" stroke="midnightblue" d="M2101.34,-29.5043C2120.43,-26.2278 2141.79,-22.5627 2160.79,-19.3018"/>
<polygon fill="midnightblue" stroke="midnightblue" points="2161.52,-22.7284 2170.78,-17.5874 2160.34,-15.8292 2161.52,-22.7284"/>
</g>
<!-- Node35&#45;&gt;Node5 -->
<g id="edge40" class="edge"><title>Node35&#45;&gt;Node5</title>
<path fill="none" stroke="midnightblue" d="M2170.89,-8.16787C2103.62,-5.5364 1971.37,-1 1859,-1 797,-1 797,-1 797,-1 673.962,-1 574.16,-140.967 541.963,-191.817"/>
<polygon fill="midnightblue" stroke="midnightblue" points="538.888,-190.134 536.592,-200.477 544.837,-193.823 538.888,-190.134"/>
</g>
</g>
</svg>
        <g id="navigator" transform="translate(0 0)" fill="#404254">
                <rect fill="#f2f5e9" fill-opacity="0.5" stroke="#606060" stroke-width=".5" x="0" y="0" width="60" height="60"/>
                <use id="zoomplus" xlink:href="#zoomPlus" x="17" y="9" onmousedown="handleZoom(evt,'in')"/>
                <use id="zoomminus" xlink:href="#zoomMin" x="42" y="9" onmousedown="handleZoom(evt,'out')"/>
                <use id="reset" xlink:href="#resetDef" x="30" y="36" onmousedown="handleReset()"/>
                <g id="arrowUp" xlink:href="#dirArrow" transform="translate(30 24)" onmousedown="handlePan(0,-1)">
                  <use xlink:href="#rim" fill="#404040">
                        <set attributeName="fill" to="#808080" begin="arrowUp.mouseover" end="arrowUp.mouseout"/>
                  </use>
                  <path fill="none" stroke="white" stroke-width="1.5" d="M0,-3.0v7 M-2.5,-0.5L0,-3.0L2.5,-0.5"/>
                </g>
                <g id="arrowRight" xlink:href="#dirArrow" transform="rotate(90) translate(36 -43)" onmousedown="handlePan(1,0)">
                  <use xlink:href="#rim" fill="#404040">
                        <set attributeName="fill" to="#808080" begin="arrowRight.mouseover" end="arrowRight.mouseout"/>
                  </use>
                  <path fill="none" stroke="white" stroke-width="1.5" d="M0,-3.0v7 M-2.5,-0.5L0,-3.0L2.5,-0.5"/>
                </g>
                <g id="arrowDown" xlink:href="#dirArrow" transform="rotate(180) translate(-30 -48)" onmousedown="handlePan(0,1)">
                  <use xlink:href="#rim" fill="#404040">
                        <set attributeName="fill" to="#808080" begin="arrowDown.mouseover" end="arrowDown.mouseout"/>
                  </use>
                  <path fill="none" stroke="white" stroke-width="1.5" d="M0,-3.0v7 M-2.5,-0.5L0,-3.0L2.5,-0.5"/>
                </g>
                <g id="arrowLeft" xlink:href="#dirArrow" transform="rotate(270) translate(-36 17)" onmousedown="handlePan(-1,0)">
                  <use xlink:href="#rim" fill="#404040">
                        <set attributeName="fill" to="#808080" begin="arrowLeft.mouseover" end="arrowLeft.mouseout"/>
                  </use>
                  <path fill="none" stroke="white" stroke-width="1.5" d="M0,-3.0v7 M-2.5,-0.5L0,-3.0L2.5,-0.5"/>
                </g>
        </g>
        <svg viewBox="0 0 15 15" width="100%" height="30px" preserveAspectRatio="xMaxYMin meet">
         <g id="arrow_out" transform="scale(0.3 0.3)">
          <a xlink:href="class_item_box_world_ae442d947b4dafc944336ee27628d2175_cgraph_org.svg" target="_base">
           <rect id="button" ry="5" rx="5" y="6" x="6" height="38" width="38"
                fill="#f2f5e9" fill-opacity="0.5" stroke="#606060" stroke-width="1.0"/>
           <path id="arrow"
             d="M 11.500037,31.436501 C 11.940474,20.09759 22.043105,11.32322 32.158766,21.979434 L 37.068811,17.246167 C 37.068811,17.246167 37.088388,32 37.088388,32 L 22.160133,31.978069 C 22.160133,31.978069 26.997745,27.140456 26.997745,27.140456 C 18.528582,18.264221 13.291696,25.230495 11.500037,31.436501 z"
             style="fill:#404040;"/>
          </a>
         </g>
        </svg>
</svg>
