<?xml version="1.0" encoding="UTF-8" standalone="no"?>
<!DOCTYPE svg PUBLIC "-//W3C//DTD SVG 1.1//EN"
 "http://www.w3.org/Graphics/SVG/1.1/DTD/svg11.dtd">
<!-- Generated by graphviz version 2.36.0 (20140111.2315)
 -->
<!-- Title: ItemBoxWorld.checkAllCollisions Pages: 1 -->
<svg width="514pt" height="123pt"
 viewBox="0.00 0.00 514.00 123.00" xmlns="http://www.w3.org/2000/svg" xmlns:xlink="http://www.w3.org/1999/xlink">
<g id="graph0" class="graph" transform="scale(1 1) rotate(0) translate(4 119)">
<title>ItemBoxWorld.checkAllCollisions</title>
<polygon fill="white" stroke="none" points="-4,4 -4,-119 510,-119 510,4 -4,4"/>
<!-- Node1 -->
<g id="node1" class="node"><title>Node1</title>
<polygon fill="#bfbfbf" stroke="black" points="0,-38.5 0,-57.5 168,-57.5 168,-38.5 0,-38.5"/>
<text text-anchor="middle" x="84" y="-45.5" font-family="Helvetica,sans-Serif" font-size="10.00">ItemBoxWorld.checkAllCollisions</text>
</g>
<!-- Node2 -->
<g id="node2" class="node"><title>Node2</title>
<g id="a_node2"><a xlink:href="../../db/d97/class_box_world.html#a55add11037cd6dc48556f2f42a9e11be" target="_top" xlink:title="BoxWorld.checkCollide">
<polygon fill="white" stroke="black" points="210,-76.5 210,-95.5 332,-95.5 332,-76.5 210,-76.5"/>
<text text-anchor="middle" x="271" y="-83.5" font-family="Helvetica,sans-Serif" font-size="10.00">BoxWorld.checkCollide</text>
</a>
</g>
</g>
<!-- Node1&#45;&gt;Node2 -->
<g id="edge1" class="edge"><title>Node1&#45;&gt;Node2</title>
<path fill="none" stroke="midnightblue" d="M131.683,-57.589C156.646,-62.7165 187.564,-69.0672 213.834,-74.4632"/>
<polygon fill="midnightblue" stroke="midnightblue" points="213.153,-77.8962 223.652,-76.4799 214.561,-71.0394 213.153,-77.8962"/>
</g>
<!-- Node5 -->
<g id="node5" class="node"><title>Node5</title>
<g id="a_node5"><a xlink:href="../../db/d97/class_box_world.html#abb95adb381902ecab1db85efdc1ea6ff" target="_top" xlink:title="BoxWorld.getRoot">
<polygon fill="white" stroke="black" points="390,-10.5 390,-29.5 490,-29.5 490,-10.5 390,-10.5"/>
<text text-anchor="middle" x="440" y="-17.5" font-family="Helvetica,sans-Serif" font-size="10.00">BoxWorld.getRoot</text>
</a>
</g>
</g>
<!-- Node1&#45;&gt;Node5 -->
<g id="edge4" class="edge"><title>Node1&#45;&gt;Node5</title>
<path fill="none" stroke="midnightblue" d="M168.206,-42.0441C217.57,-38.4375 281.37,-33.6494 338,-29 351.492,-27.8923 365.992,-26.638 379.676,-25.4251"/>
<polygon fill="midnightblue" stroke="midnightblue" points="380.302,-28.8833 389.952,-24.5088 379.681,-21.9109 380.302,-28.8833"/>
</g>
<!-- Node6 -->
<g id="node6" class="node"><title>Node6</title>
<g id="a_node6"><a xlink:href="../../d6/d4f/class_item_box_world.html#a1890e6c53a4a73e44e9528009fde508d" target="_top" xlink:title="ItemBoxWorld.itemExists">
<polygon fill="white" stroke="black" points="204,-0.5 204,-19.5 338,-19.5 338,-0.5 204,-0.5"/>
<text text-anchor="middle" x="271" y="-7.5" font-family="Helvetica,sans-Serif" font-size="10.00">ItemBoxWorld.itemExists</text>
</a>
</g>
</g>
<!-- Node1&#45;&gt;Node6 -->
<g id="edge5" class="edge"><title>Node1&#45;&gt;Node6</title>
<path fill="none" stroke="midnightblue" d="M131.683,-38.411C156.646,-33.2835 187.564,-26.9328 213.834,-21.5368"/>
<polygon fill="midnightblue" stroke="midnightblue" points="214.561,-24.9606 223.652,-19.5201 213.153,-18.1038 214.561,-24.9606"/>
</g>
<!-- Node3 -->
<g id="node3" class="node"><title>Node3</title>
<g id="a_node3"><a xlink:href="../../da/de2/class_sticky_box.html#a6ba3f89630df9d81df5644a3e5f4e387" target="_top" xlink:title="StickyBox.getXDirection">
<polygon fill="white" stroke="black" points="374.5,-95.5 374.5,-114.5 505.5,-114.5 505.5,-95.5 374.5,-95.5"/>
<text text-anchor="middle" x="440" y="-102.5" font-family="Helvetica,sans-Serif" font-size="10.00">StickyBox.getXDirection</text>
</a>
</g>
</g>
<!-- Node2&#45;&gt;Node3 -->
<g id="edge2" class="edge"><title>Node2&#45;&gt;Node3</title>
<path fill="none" stroke="midnightblue" d="M332.291,-92.8594C342.628,-94.0355 353.48,-95.2702 364.143,-96.4833"/>
<polygon fill="midnightblue" stroke="midnightblue" points="363.952,-99.9842 374.284,-97.6371 364.744,-93.029 363.952,-99.9842"/>
</g>
<!-- Node4 -->
<g id="node4" class="node"><title>Node4</title>
<g id="a_node4"><a xlink:href="../../da/de2/class_sticky_box.html#a69e5ccf2a79159c03dea2e048df13318" target="_top" xlink:title="StickyBox.getYDirection">
<polygon fill="white" stroke="black" points="375,-57.5 375,-76.5 505,-76.5 505,-57.5 375,-57.5"/>
<text text-anchor="middle" x="440" y="-64.5" font-family="Helvetica,sans-Serif" font-size="10.00">StickyBox.getYDirection</text>
</a>
</g>
</g>
<!-- Node2&#45;&gt;Node4 -->
<g id="edge3" class="edge"><title>Node2&#45;&gt;Node4</title>
<path fill="none" stroke="midnightblue" d="M332.291,-79.1406C342.877,-77.9361 354.005,-76.6701 364.915,-75.4289"/>
<polygon fill="midnightblue" stroke="midnightblue" points="365.311,-78.9064 374.851,-74.2983 364.52,-71.9513 365.311,-78.9064"/>
</g>
<!-- Node6&#45;&gt;Node5 -->
<g id="edge6" class="edge"><title>Node6&#45;&gt;Node5</title>
<path fill="none" stroke="midnightblue" d="M338.003,-13.9523C351.807,-14.7788 366.278,-15.6454 379.816,-16.456"/>
<polygon fill="midnightblue" stroke="midnightblue" points="379.768,-19.9594 389.96,-17.0634 380.187,-12.9719 379.768,-19.9594"/>
</g>
</g>
</svg>
