<?xml version="1.0" encoding="UTF-8" standalone="no"?>
<!DOCTYPE svg PUBLIC "-//W3C//DTD SVG 1.1//EN"
 "http://www.w3.org/Graphics/SVG/1.1/DTD/svg11.dtd">
<!-- Generated by graphviz version 2.36.0 (20140111.2315)
 -->
<!-- Title: ItemBoxWorld.init Pages: 1 -->
<svg width="1928pt" height="551pt"
 viewBox="0.00 0.00 1928.00 550.95" xmlns="http://www.w3.org/2000/svg" xmlns:xlink="http://www.w3.org/1999/xlink">
<g id="graph0" class="graph" transform="scale(1 1) rotate(0) translate(4 546.949)">
<title>ItemBoxWorld.init</title>
<polygon fill="white" stroke="none" points="-4,4 -4,-546.949 1924,-546.949 1924,4 -4,4"/>
<!-- Node1 -->
<g id="node1" class="node"><title>Node1</title>
<polygon fill="#bfbfbf" stroke="black" points="0.5,-333.449 0.5,-352.449 99.5,-352.449 99.5,-333.449 0.5,-333.449"/>
<text text-anchor="middle" x="50" y="-340.449" font-family="Helvetica,sans-Serif" font-size="10.00">ItemBoxWorld.init</text>
</g>
<!-- Node2 -->
<g id="node2" class="node"><title>Node2</title>
<g id="a_node2"><a xlink:href="../../d6/d4f/class_item_box_world.html#a7ead15fd9fd8095f928640161d48fdf8" target="_top" xlink:title="ItemBoxWorld.addAllItems">
<polygon fill="white" stroke="black" points="136.5,-485.449 136.5,-504.449 277.5,-504.449 277.5,-485.449 136.5,-485.449"/>
<text text-anchor="middle" x="207" y="-492.449" font-family="Helvetica,sans-Serif" font-size="10.00">ItemBoxWorld.addAllItems</text>
</a>
</g>
</g>
<!-- Node1&#45;&gt;Node2 -->
<g id="edge1" class="edge"><title>Node1&#45;&gt;Node2</title>
<path fill="none" stroke="midnightblue" d="M54.7647,-352.531C64.5249,-376.158 92.9248,-437.694 136,-470.949 141.466,-475.169 147.723,-478.675 154.197,-481.581"/>
<polygon fill="midnightblue" stroke="midnightblue" points="153.187,-484.947 163.771,-485.422 155.793,-478.45 153.187,-484.947"/>
</g>
<!-- Node5 -->
<g id="node5" class="node"><title>Node5</title>
<g id="a_node5"><a xlink:href="../../db/d97/class_box_world.html#a69798621c944e846f045aaf3937505f9" target="_top" xlink:title="BoxWorld.addStarterObjects">
<polygon fill="white" stroke="black" points="1196.5,-428.449 1196.5,-447.449 1347.5,-447.449 1347.5,-428.449 1196.5,-428.449"/>
<text text-anchor="middle" x="1272" y="-435.449" font-family="Helvetica,sans-Serif" font-size="10.00">BoxWorld.addStarterObjects</text>
</a>
</g>
</g>
<!-- Node1&#45;&gt;Node5 -->
<g id="edge4" class="edge"><title>Node1&#45;&gt;Node5</title>
<path fill="none" stroke="midnightblue" d="M66.9331,-352.473C114.333,-379.872 259.295,-456.949 390,-456.949 390,-456.949 390,-456.949 991,-456.949 1056.59,-456.949 1130.63,-451.695 1186.09,-446.713"/>
<polygon fill="midnightblue" stroke="midnightblue" points="1186.58,-450.183 1196.22,-445.787 1185.95,-443.212 1186.58,-450.183"/>
</g>
<!-- Node7 -->
<g id="node7" class="node"><title>Node7</title>
<g id="a_node7"><a xlink:href="../../db/d97/class_box_world.html#a726e747e023543658d7a345cc6466ccb" target="_top" xlink:title="BoxWorld.createScene">
<polygon fill="white" stroke="black" points="1210,-208.449 1210,-227.449 1334,-227.449 1334,-208.449 1210,-208.449"/>
<text text-anchor="middle" x="1272" y="-215.449" font-family="Helvetica,sans-Serif" font-size="10.00">BoxWorld.createScene</text>
</a>
</g>
</g>
<!-- Node1&#45;&gt;Node7 -->
<g id="edge6" class="edge"><title>Node1&#45;&gt;Node7</title>
<path fill="none" stroke="midnightblue" d="M59.916,-333.266C96.5882,-294.548 240.896,-152.949 390,-152.949 390,-152.949 390,-152.949 991,-152.949 1081.95,-152.949 1185.32,-185.894 1237.32,-204.875"/>
<polygon fill="midnightblue" stroke="midnightblue" points="1236.13,-208.165 1246.72,-208.359 1238.56,-201.601 1236.13,-208.165"/>
</g>
<!-- Node19 -->
<g id="node19" class="node"><title>Node19</title>
<g id="a_node19"><a xlink:href="../../db/d97/class_box_world.html#ad20a4e43406c44f4bbf201d1d1028998" target="_top" xlink:title="BoxWorld.start">
<polygon fill="white" stroke="black" points="164,-333.449 164,-352.449 250,-352.449 250,-333.449 164,-333.449"/>
<text text-anchor="middle" x="207" y="-340.449" font-family="Helvetica,sans-Serif" font-size="10.00">BoxWorld.start</text>
</a>
</g>
</g>
<!-- Node1&#45;&gt;Node19 -->
<g id="edge20" class="edge"><title>Node1&#45;&gt;Node19</title>
<path fill="none" stroke="midnightblue" d="M99.6177,-342.949C116.836,-342.949 136.274,-342.949 153.779,-342.949"/>
<polygon fill="midnightblue" stroke="midnightblue" points="153.831,-346.45 163.831,-342.949 153.831,-339.45 153.831,-346.45"/>
</g>
<!-- Node3 -->
<g id="node3" class="node"><title>Node3</title>
<g id="a_node3"><a xlink:href="../../d6/d4f/class_item_box_world.html#af1bcde0672796e926560684004ed8e81" target="_top" xlink:title="ItemBoxWorld.addSingleItem">
<polygon fill="white" stroke="black" points="314,-485.449 314,-504.449 468,-504.449 468,-485.449 314,-485.449"/>
<text text-anchor="middle" x="391" y="-492.449" font-family="Helvetica,sans-Serif" font-size="10.00">ItemBoxWorld.addSingleItem</text>
</a>
</g>
</g>
<!-- Node2&#45;&gt;Node3 -->
<g id="edge2" class="edge"><title>Node2&#45;&gt;Node3</title>
<path fill="none" stroke="midnightblue" d="M277.585,-494.949C286.096,-494.949 294.872,-494.949 303.592,-494.949"/>
<polygon fill="midnightblue" stroke="midnightblue" points="303.783,-498.45 313.783,-494.949 303.783,-491.45 303.783,-498.45"/>
</g>
<!-- Node4 -->
<g id="node4" class="node"><title>Node4</title>
<g id="a_node4"><a xlink:href="../../d6/d4f/class_item_box_world.html#a1890e6c53a4a73e44e9528009fde508d" target="_top" xlink:title="ItemBoxWorld.itemExists">
<polygon fill="white" stroke="black" points="324,-523.449 324,-542.449 458,-542.449 458,-523.449 324,-523.449"/>
<text text-anchor="middle" x="391" y="-530.449" font-family="Helvetica,sans-Serif" font-size="10.00">ItemBoxWorld.itemExists</text>
</a>
</g>
</g>
<!-- Node2&#45;&gt;Node4 -->
<g id="edge3" class="edge"><title>Node2&#45;&gt;Node4</title>
<path fill="none" stroke="midnightblue" d="M253.926,-504.538C278.376,-509.643 308.633,-515.961 334.403,-521.341"/>
<polygon fill="midnightblue" stroke="midnightblue" points="333.9,-524.812 344.404,-523.429 335.33,-517.959 333.9,-524.812"/>
</g>
<!-- Node6 -->
<g id="node6" class="node"><title>Node6</title>
<g id="a_node6"><a xlink:href="../../db/d97/class_box_world.html#a2542cc74ebeba6a9768a443a55186901" target="_top" xlink:title="BoxWorld.createObstacleArray">
<polygon fill="white" stroke="black" points="1384.5,-428.449 1384.5,-447.449 1545.5,-447.449 1545.5,-428.449 1384.5,-428.449"/>
<text text-anchor="middle" x="1465" y="-435.449" font-family="Helvetica,sans-Serif" font-size="10.00">BoxWorld.createObstacleArray</text>
</a>
</g>
</g>
<!-- Node5&#45;&gt;Node6 -->
<g id="edge5" class="edge"><title>Node5&#45;&gt;Node6</title>
<path fill="none" stroke="midnightblue" d="M1347.67,-437.949C1356.41,-437.949 1365.4,-437.949 1374.31,-437.949"/>
<polygon fill="midnightblue" stroke="midnightblue" points="1374.34,-441.45 1384.34,-437.949 1374.34,-434.45 1374.34,-441.45"/>
</g>
<!-- Node8 -->
<g id="node8" class="node"><title>Node8</title>
<g id="a_node8"><a xlink:href="../../db/d97/class_box_world.html#aa7e2049d7be23e15fd2ec7fa2922ed79" target="_top" xlink:title="BoxWorld.handleKeyInput">
<polygon fill="white" stroke="black" points="1397,-143.449 1397,-162.449 1533,-162.449 1533,-143.449 1397,-143.449"/>
<text text-anchor="middle" x="1465" y="-150.449" font-family="Helvetica,sans-Serif" font-size="10.00">BoxWorld.handleKeyInput</text>
</a>
</g>
</g>
<!-- Node7&#45;&gt;Node8 -->
<g id="edge7" class="edge"><title>Node7&#45;&gt;Node8</title>
<path fill="none" stroke="midnightblue" d="M1301.18,-208.359C1334.29,-197.093 1389.35,-178.356 1426.15,-165.831"/>
<polygon fill="midnightblue" stroke="midnightblue" points="1427.67,-169.009 1436.01,-162.474 1425.42,-162.382 1427.67,-169.009"/>
</g>
<!-- Node18 -->
<g id="node18" class="node"><title>Node18</title>
<g id="a_node18"><a xlink:href="../../db/d97/class_box_world.html#a2d44485a181577acb4d79b6b81f26fff" target="_top" xlink:title="BoxWorld.handleKeyRelease">
<polygon fill="white" stroke="black" points="1390.5,-219.449 1390.5,-238.449 1539.5,-238.449 1539.5,-219.449 1390.5,-219.449"/>
<text text-anchor="middle" x="1465" y="-226.449" font-family="Helvetica,sans-Serif" font-size="10.00">BoxWorld.handleKeyRelease</text>
</a>
</g>
</g>
<!-- Node7&#45;&gt;Node18 -->
<g id="edge19" class="edge"><title>Node7&#45;&gt;Node18</title>
<path fill="none" stroke="midnightblue" d="M1334.22,-221.475C1348.9,-222.321 1364.83,-223.238 1380.33,-224.131"/>
<polygon fill="midnightblue" stroke="midnightblue" points="1380.25,-227.632 1390.44,-224.713 1380.66,-220.644 1380.25,-227.632"/>
</g>
<!-- Node9 -->
<g id="node9" class="node"><title>Node9</title>
<g id="a_node9"><a xlink:href="../../db/d97/class_box_world.html#adc4c9d78ffde3d052c4c92047eb98e55" target="_top" xlink:title="BoxWorld.allowMovement">
<polygon fill="white" stroke="black" points="1582.5,-181.449 1582.5,-200.449 1719.5,-200.449 1719.5,-181.449 1582.5,-181.449"/>
<text text-anchor="middle" x="1651" y="-188.449" font-family="Helvetica,sans-Serif" font-size="10.00">BoxWorld.allowMovement</text>
</a>
</g>
</g>
<!-- Node8&#45;&gt;Node9 -->
<g id="edge8" class="edge"><title>Node8&#45;&gt;Node9</title>
<path fill="none" stroke="midnightblue" d="M1512.43,-162.538C1537.15,-167.643 1567.74,-173.961 1593.79,-179.341"/>
<polygon fill="midnightblue" stroke="midnightblue" points="1593.4,-182.834 1603.9,-181.429 1594.82,-175.979 1593.4,-182.834"/>
</g>
<!-- Node14 -->
<g id="node14" class="node"><title>Node14</title>
<g id="a_node14"><a xlink:href="../../db/d97/class_box_world.html#a04c6bf977c4292a5433649fb3745fd6b" target="_top" xlink:title="BoxWorld.reset">
<polygon fill="white" stroke="black" points="1607,-67.4495 1607,-86.4495 1695,-86.4495 1695,-67.4495 1607,-67.4495"/>
<text text-anchor="middle" x="1651" y="-74.4495" font-family="Helvetica,sans-Serif" font-size="10.00">BoxWorld.reset</text>
</a>
</g>
</g>
<!-- Node8&#45;&gt;Node14 -->
<g id="edge13" class="edge"><title>Node8&#45;&gt;Node14</title>
<path fill="none" stroke="midnightblue" d="M1489.3,-143.324C1521.79,-129.904 1580.84,-105.516 1617.6,-90.3323"/>
<polygon fill="midnightblue" stroke="midnightblue" points="1618.98,-93.5494 1626.89,-86.4968 1616.31,-87.0795 1618.98,-93.5494"/>
</g>
<!-- Node15 -->
<g id="node15" class="node"><title>Node15</title>
<g id="a_node15"><a xlink:href="../../da/de2/class_sticky_box.html#aa1bb8f78f676b01c688d75d386758444" target="_top" xlink:title="StickyBox.setDirection">
<polygon fill="white" stroke="black" points="1776,-67.4495 1776,-86.4495 1900,-86.4495 1900,-67.4495 1776,-67.4495"/>
<text text-anchor="middle" x="1838" y="-74.4495" font-family="Helvetica,sans-Serif" font-size="10.00">StickyBox.setDirection</text>
</a>
</g>
</g>
<!-- Node8&#45;&gt;Node15 -->
<g id="edge16" class="edge"><title>Node8&#45;&gt;Node15</title>
<path fill="none" stroke="midnightblue" d="M1512.61,-143.401C1580.73,-129.446 1707.33,-103.513 1780.6,-88.5021"/>
<polygon fill="midnightblue" stroke="midnightblue" points="1781.48,-91.8946 1790.58,-86.4589 1780.08,-85.0371 1781.48,-91.8946"/>
</g>
<!-- Node17 -->
<g id="node17" class="node"><title>Node17</title>
<g id="a_node17"><a xlink:href="../../db/d97/class_box_world.html#aad670712776afe126e51791097027e05" target="_top" xlink:title="BoxWorld.winLevel">
<polygon fill="white" stroke="black" points="1599.5,-219.449 1599.5,-238.449 1702.5,-238.449 1702.5,-219.449 1599.5,-219.449"/>
<text text-anchor="middle" x="1651" y="-226.449" font-family="Helvetica,sans-Serif" font-size="10.00">BoxWorld.winLevel</text>
</a>
</g>
</g>
<!-- Node8&#45;&gt;Node17 -->
<g id="edge17" class="edge"><title>Node8&#45;&gt;Node17</title>
<path fill="none" stroke="midnightblue" d="M1510.64,-162.494C1522.57,-166.059 1535.16,-170.789 1546,-176.949 1564.87,-187.672 1563.03,-199.407 1582,-209.949 1585.96,-212.152 1590.2,-214.116 1594.55,-215.862"/>
<polygon fill="midnightblue" stroke="midnightblue" points="1593.6,-219.24 1604.2,-219.349 1595.98,-212.657 1593.6,-219.24"/>
</g>
<!-- Node10 -->
<g id="node10" class="node"><title>Node10</title>
<g id="a_node10"><a xlink:href="../../da/de2/class_sticky_box.html#a6ba3f89630df9d81df5644a3e5f4e387" target="_top" xlink:title="StickyBox.getXDirection">
<polygon fill="white" stroke="black" points="1772.5,-295.449 1772.5,-314.449 1903.5,-314.449 1903.5,-295.449 1772.5,-295.449"/>
<text text-anchor="middle" x="1838" y="-302.449" font-family="Helvetica,sans-Serif" font-size="10.00">StickyBox.getXDirection</text>
</a>
</g>
</g>
<!-- Node9&#45;&gt;Node10 -->
<g id="edge9" class="edge"><title>Node9&#45;&gt;Node10</title>
<path fill="none" stroke="midnightblue" d="M1699.11,-200.508C1706.38,-202.99 1713.6,-206.09 1720,-209.949 1739.92,-221.959 1738.4,-232.735 1756,-247.949 1774,-263.51 1796.21,-278.902 1812.81,-289.762"/>
<polygon fill="midnightblue" stroke="midnightblue" points="1811.1,-292.822 1821.4,-295.301 1814.9,-286.94 1811.1,-292.822"/>
</g>
<!-- Node11 -->
<g id="node11" class="node"><title>Node11</title>
<g id="a_node11"><a xlink:href="../../da/de2/class_sticky_box.html#ab0bd7cafb7f243e3951558ddb8728b96" target="_top" xlink:title="StickyBox.getXPrev">
<polygon fill="white" stroke="black" points="1783.5,-219.449 1783.5,-238.449 1892.5,-238.449 1892.5,-219.449 1783.5,-219.449"/>
<text text-anchor="middle" x="1838" y="-226.449" font-family="Helvetica,sans-Serif" font-size="10.00">StickyBox.getXPrev</text>
</a>
</g>
</g>
<!-- Node9&#45;&gt;Node11 -->
<g id="edge10" class="edge"><title>Node9&#45;&gt;Node11</title>
<path fill="none" stroke="midnightblue" d="M1698.68,-200.538C1723.65,-205.666 1754.56,-212.017 1780.83,-217.413"/>
<polygon fill="midnightblue" stroke="midnightblue" points="1780.15,-220.846 1790.65,-219.429 1781.56,-213.989 1780.15,-220.846"/>
</g>
<!-- Node12 -->
<g id="node12" class="node"><title>Node12</title>
<g id="a_node12"><a xlink:href="../../da/de2/class_sticky_box.html#a69e5ccf2a79159c03dea2e048df13318" target="_top" xlink:title="StickyBox.getYDirection">
<polygon fill="white" stroke="black" points="1773,-143.449 1773,-162.449 1903,-162.449 1903,-143.449 1773,-143.449"/>
<text text-anchor="middle" x="1838" y="-150.449" font-family="Helvetica,sans-Serif" font-size="10.00">StickyBox.getYDirection</text>
</a>
</g>
</g>
<!-- Node9&#45;&gt;Node12 -->
<g id="edge11" class="edge"><title>Node9&#45;&gt;Node12</title>
<path fill="none" stroke="midnightblue" d="M1698.68,-181.36C1723.65,-176.233 1754.56,-169.882 1780.83,-164.486"/>
<polygon fill="midnightblue" stroke="midnightblue" points="1781.56,-167.91 1790.65,-162.47 1780.15,-161.053 1781.56,-167.91"/>
</g>
<!-- Node13 -->
<g id="node13" class="node"><title>Node13</title>
<g id="a_node13"><a xlink:href="../../da/de2/class_sticky_box.html#a4c6abed944faed9d9b226079e99cfc24" target="_top" xlink:title="StickyBox.getYPrev">
<polygon fill="white" stroke="black" points="1784,-181.449 1784,-200.449 1892,-200.449 1892,-181.449 1784,-181.449"/>
<text text-anchor="middle" x="1838" y="-188.449" font-family="Helvetica,sans-Serif" font-size="10.00">StickyBox.getYPrev</text>
</a>
</g>
</g>
<!-- Node9&#45;&gt;Node13 -->
<g id="edge12" class="edge"><title>Node9&#45;&gt;Node13</title>
<path fill="none" stroke="midnightblue" d="M1719.57,-190.949C1737.26,-190.949 1756.27,-190.949 1773.72,-190.949"/>
<polygon fill="midnightblue" stroke="midnightblue" points="1773.8,-194.45 1783.8,-190.949 1773.8,-187.45 1773.8,-194.45"/>
</g>
<!-- Node14&#45;&gt;Node15 -->
<g id="edge14" class="edge"><title>Node14&#45;&gt;Node15</title>
<path fill="none" stroke="midnightblue" d="M1695.37,-76.9495C1716.31,-76.9495 1741.97,-76.9495 1765.67,-76.9495"/>
<polygon fill="midnightblue" stroke="midnightblue" points="1765.69,-80.4496 1775.69,-76.9495 1765.69,-73.4496 1765.69,-80.4496"/>
</g>
<!-- Node16 -->
<g id="node16" class="node"><title>Node16</title>
<g id="a_node16"><a xlink:href="../../da/de2/class_sticky_box.html#a5d95d2ed2e13f0d87a44311db77f9e36" target="_top" xlink:title="StickyBox.setPreviousDirection">
<polygon fill="white" stroke="black" points="1756,-10.4495 1756,-29.4495 1920,-29.4495 1920,-10.4495 1756,-10.4495"/>
<text text-anchor="middle" x="1838" y="-17.4495" font-family="Helvetica,sans-Serif" font-size="10.00">StickyBox.setPreviousDirection</text>
</a>
</g>
</g>
<!-- Node14&#45;&gt;Node16 -->
<g id="edge15" class="edge"><title>Node14&#45;&gt;Node16</title>
<path fill="none" stroke="midnightblue" d="M1682.96,-67.409C1714.05,-57.8324 1762.09,-43.0289 1796.25,-32.5038"/>
<polygon fill="midnightblue" stroke="midnightblue" points="1797.41,-35.8105 1805.93,-29.5211 1795.35,-29.1209 1797.41,-35.8105"/>
</g>
<!-- Node17&#45;&gt;Node1 -->
<g id="edge18" class="edge"><title>Node17&#45;&gt;Node1</title>
<path fill="none" stroke="midnightblue" d="M1606.53,-219.426C1480,-192.027 1113.2,-114.949 991,-114.949 390,-114.949 390,-114.949 390,-114.949 273.901,-114.949 227.156,-104.05 136,-175.949 87.3671,-214.309 64.0573,-287.983 55.304,-323.225"/>
<polygon fill="midnightblue" stroke="midnightblue" points="51.835,-322.689 52.9599,-333.224 58.6502,-324.287 51.835,-322.689"/>
</g>
<!-- Node20 -->
<g id="node20" class="node"><title>Node20</title>
<g id="a_node20"><a xlink:href="../../db/d97/class_box_world.html#a6794c083c2a0263c2f585f4ae4b7e39c" target="_top" xlink:title="BoxWorld.updateSprites">
<polygon fill="white" stroke="black" points="325.5,-238.449 325.5,-257.449 456.5,-257.449 456.5,-238.449 325.5,-238.449"/>
<text text-anchor="middle" x="391" y="-245.449" font-family="Helvetica,sans-Serif" font-size="10.00">BoxWorld.updateSprites</text>
</a>
</g>
</g>
<!-- Node19&#45;&gt;Node20 -->
<g id="edge21" class="edge"><title>Node19&#45;&gt;Node20</title>
<path fill="none" stroke="midnightblue" d="M226.453,-333.318C258.557,-316.56 324.847,-281.958 362.427,-262.342"/>
<polygon fill="midnightblue" stroke="midnightblue" points="364.524,-265.196 371.769,-257.466 361.284,-258.99 364.524,-265.196"/>
</g>
<!-- Node20&#45;&gt;Node10 -->
<g id="edge36" class="edge"><title>Node20&#45;&gt;Node10</title>
<path fill="none" stroke="midnightblue" d="M403.264,-257.666C422.572,-273.822 463.807,-306.188 504,-323.949 603.092,-367.74 632.663,-380.949 741,-380.949 741,-380.949 741,-380.949 1466,-380.949 1590.45,-380.949 1733.69,-339.401 1799.9,-317.745"/>
<polygon fill="midnightblue" stroke="midnightblue" points="1801.08,-321.04 1809.47,-314.575 1798.88,-314.395 1801.08,-321.04"/>
</g>
<!-- Node20&#45;&gt;Node12 -->
<g id="edge37" class="edge"><title>Node20&#45;&gt;Node12</title>
<path fill="none" stroke="midnightblue" d="M414.705,-238.39C437.011,-229.445 472.227,-216.508 504,-209.949 607.49,-188.589 635.329,-190.949 741,-190.949 741,-190.949 741,-190.949 991,-190.949 1167.49,-190.949 1207.96,-146.649 1384,-133.949 1455.81,-128.769 1474.04,-131.603 1546,-133.949 1619.75,-136.355 1703.85,-142.18 1762.61,-146.751"/>
<polygon fill="midnightblue" stroke="midnightblue" points="1762.67,-150.266 1772.91,-147.56 1763.21,-143.288 1762.67,-150.266"/>
</g>
<!-- Node20&#45;&gt;Node15 -->
<g id="edge39" class="edge"><title>Node20&#45;&gt;Node15</title>
<path fill="none" stroke="midnightblue" d="M400.052,-238.426C435.574,-197.54 583.508,-38.9495 741,-38.9495 741,-38.9495 741,-38.9495 1466,-38.9495 1579.2,-38.9495 1607.58,-44.6419 1720,-57.9495 1737.68,-60.0425 1756.77,-62.891 1774.31,-65.7452"/>
<polygon fill="midnightblue" stroke="midnightblue" points="1773.99,-69.2401 1784.43,-67.4207 1775.13,-62.3342 1773.99,-69.2401"/>
</g>
<!-- Node20&#45;&gt;Node16 -->
<g id="edge40" class="edge"><title>Node20&#45;&gt;Node16</title>
<path fill="none" stroke="midnightblue" d="M394.489,-238.366C403.32,-206.389 436.31,-102.585 504,-52.9495 590.964,10.8196 633.161,-0.949493 741,-0.949493 741,-0.949493 741,-0.949493 1466,-0.949493 1561.32,-0.949493 1670.24,-7.28254 1745.28,-12.636"/>
<polygon fill="midnightblue" stroke="midnightblue" points="1745.41,-16.1546 1755.64,-13.3842 1745.92,-9.17283 1745.41,-16.1546"/>
</g>
<!-- Node21 -->
<g id="node21" class="node"><title>Node21</title>
<g id="a_node21"><a xlink:href="../../db/d97/class_box_world.html#a4079bed8937c9f621decfbe1309e31e2" target="_top" xlink:title="BoxWorld.checkAllCollisions">
<polygon fill="white" stroke="black" points="504,-295.449 504,-314.449 650,-314.449 650,-295.449 504,-295.449"/>
<text text-anchor="middle" x="577" y="-302.449" font-family="Helvetica,sans-Serif" font-size="10.00">BoxWorld.checkAllCollisions</text>
</a>
</g>
</g>
<!-- Node20&#45;&gt;Node21 -->
<g id="edge22" class="edge"><title>Node20&#45;&gt;Node21</title>
<path fill="none" stroke="midnightblue" d="M418.536,-257.531C441.126,-265.547 474.509,-277.067 504,-285.949 511.744,-288.282 520.004,-290.609 528.064,-292.794"/>
<polygon fill="midnightblue" stroke="midnightblue" points="527.184,-296.182 537.748,-295.38 528.99,-289.419 527.184,-296.182"/>
</g>
<!-- Node29 -->
<g id="node29" class="node"><title>Node29</title>
<g id="a_node29"><a xlink:href="../../da/de2/class_sticky_box.html#a185ee469367b376e6c5969a03d089d57" target="_top" xlink:title="StickyBox.move">
<polygon fill="white" stroke="black" points="530.5,-257.449 530.5,-276.449 623.5,-276.449 623.5,-257.449 530.5,-257.449"/>
<text text-anchor="middle" x="577" y="-264.449" font-family="Helvetica,sans-Serif" font-size="10.00">StickyBox.move</text>
</a>
</g>
</g>
<!-- Node20&#45;&gt;Node29 -->
<g id="edge38" class="edge"><title>Node20&#45;&gt;Node29</title>
<path fill="none" stroke="midnightblue" d="M456.613,-254.621C477.335,-256.761 500.097,-259.112 520.138,-261.181"/>
<polygon fill="midnightblue" stroke="midnightblue" points="520.039,-264.689 530.346,-262.235 520.758,-257.726 520.039,-264.689"/>
</g>
<!-- Node30 -->
<g id="node30" class="node"><title>Node30</title>
<g id="a_node30"><a xlink:href="../../da/de2/class_sticky_box.html#a59337f0aa3c7379a2cb9c76bdc621daf" target="_top" xlink:title="StickyBox.setStuck">
<polygon fill="white" stroke="black" points="523,-219.449 523,-238.449 631,-238.449 631,-219.449 523,-219.449"/>
<text text-anchor="middle" x="577" y="-226.449" font-family="Helvetica,sans-Serif" font-size="10.00">StickyBox.setStuck</text>
</a>
</g>
</g>
<!-- Node20&#45;&gt;Node30 -->
<g id="edge41" class="edge"><title>Node20&#45;&gt;Node30</title>
<path fill="none" stroke="midnightblue" d="M456.613,-241.278C474.789,-239.401 494.534,-237.362 512.636,-235.493"/>
<polygon fill="midnightblue" stroke="midnightblue" points="513.203,-238.953 522.791,-234.444 512.484,-231.99 513.203,-238.953"/>
</g>
<!-- Node21&#45;&gt;Node17 -->
<g id="edge35" class="edge"><title>Node21&#45;&gt;Node17</title>
<path fill="none" stroke="midnightblue" d="M628.634,-295.423C636.078,-292.946 643.439,-289.84 650,-285.949 670.011,-274.084 664.629,-257.142 686,-247.949 686,-247.949 1546,-247.949 1546,-247.949 1562.95,-246.413 1581.27,-243.496 1597.75,-240.401"/>
<polygon fill="midnightblue" stroke="midnightblue" points="1598.58,-243.803 1607.73,-238.461 1597.25,-236.932 1598.58,-243.803"/>
</g>
<!-- Node22 -->
<g id="node22" class="node"><title>Node22</title>
<g id="a_node22"><a xlink:href="../../db/d97/class_box_world.html#a55add11037cd6dc48556f2f42a9e11be" target="_top" xlink:title="BoxWorld.checkCollide">
<polygon fill="white" stroke="black" points="1590,-295.449 1590,-314.449 1712,-314.449 1712,-295.449 1590,-295.449"/>
<text text-anchor="middle" x="1651" y="-302.449" font-family="Helvetica,sans-Serif" font-size="10.00">BoxWorld.checkCollide</text>
</a>
</g>
</g>
<!-- Node21&#45;&gt;Node22 -->
<g id="edge23" class="edge"><title>Node21&#45;&gt;Node22</title>
<path fill="none" stroke="midnightblue" d="M624.28,-314.489C683.013,-325.746 787.57,-342.949 878,-342.949 878,-342.949 878,-342.949 1273,-342.949 1381.22,-342.949 1506.04,-327.257 1581.43,-316.04"/>
<polygon fill="midnightblue" stroke="midnightblue" points="1582.37,-319.439 1591.74,-314.489 1581.33,-312.517 1582.37,-319.439"/>
</g>
<!-- Node23 -->
<g id="node23" class="node"><title>Node23</title>
<g id="a_node23"><a xlink:href="../../db/d97/class_box_world.html#a72bacb2a6757900d8835249929fcc838" target="_top" xlink:title="BoxWorld.loseGame">
<polygon fill="white" stroke="black" points="686,-295.449 686,-314.449 798,-314.449 798,-295.449 686,-295.449"/>
<text text-anchor="middle" x="742" y="-302.449" font-family="Helvetica,sans-Serif" font-size="10.00">BoxWorld.loseGame</text>
</a>
</g>
</g>
<!-- Node21&#45;&gt;Node23 -->
<g id="edge26" class="edge"><title>Node21&#45;&gt;Node23</title>
<path fill="none" stroke="midnightblue" d="M650.443,-304.949C658.906,-304.949 667.501,-304.949 675.856,-304.949"/>
<polygon fill="midnightblue" stroke="midnightblue" points="675.904,-308.45 685.904,-304.949 675.904,-301.45 675.904,-308.45"/>
</g>
<!-- Node28 -->
<g id="node28" class="node"><title>Node28</title>
<g id="a_node28"><a xlink:href="../../db/d97/class_box_world.html#ae6ffad41f7ba6122234157c72afe8f9c" target="_top" xlink:title="BoxWorld.onScreen">
<polygon fill="white" stroke="black" points="687.5,-257.449 687.5,-276.449 796.5,-276.449 796.5,-257.449 687.5,-257.449"/>
<text text-anchor="middle" x="742" y="-264.449" font-family="Helvetica,sans-Serif" font-size="10.00">BoxWorld.onScreen</text>
</a>
</g>
</g>
<!-- Node21&#45;&gt;Node28 -->
<g id="edge34" class="edge"><title>Node21&#45;&gt;Node28</title>
<path fill="none" stroke="midnightblue" d="M619.132,-295.36C640.738,-290.323 667.409,-284.106 690.286,-278.772"/>
<polygon fill="midnightblue" stroke="midnightblue" points="691.22,-282.149 700.164,-276.47 689.63,-275.331 691.22,-282.149"/>
</g>
<!-- Node22&#45;&gt;Node10 -->
<g id="edge24" class="edge"><title>Node22&#45;&gt;Node10</title>
<path fill="none" stroke="midnightblue" d="M1712.06,-304.949C1728.05,-304.949 1745.52,-304.949 1762.2,-304.949"/>
<polygon fill="midnightblue" stroke="midnightblue" points="1762.45,-308.45 1772.45,-304.949 1762.45,-301.45 1762.45,-308.45"/>
</g>
<!-- Node22&#45;&gt;Node12 -->
<g id="edge25" class="edge"><title>Node22&#45;&gt;Node12</title>
<path fill="none" stroke="midnightblue" d="M1666.88,-295.335C1681.85,-285.061 1704.84,-267.576 1720,-247.949 1742.85,-218.372 1726.92,-195.434 1756,-171.949 1758.45,-169.971 1761.07,-168.192 1763.81,-166.593"/>
<polygon fill="midnightblue" stroke="midnightblue" points="1765.53,-169.648 1772.93,-162.071 1762.42,-163.376 1765.53,-169.648"/>
</g>
<!-- Node24 -->
<g id="node24" class="node"><title>Node24</title>
<g id="a_node24"><a xlink:href="../../d4/d2f/class_lose_screen.html#a34f2cc2c803500316c9b8d854854d758" target="_top" xlink:title="LoseScreen.init">
<polygon fill="white" stroke="black" points="834,-295.449 834,-314.449 924,-314.449 924,-295.449 834,-295.449"/>
<text text-anchor="middle" x="879" y="-302.449" font-family="Helvetica,sans-Serif" font-size="10.00">LoseScreen.init</text>
</a>
</g>
</g>
<!-- Node23&#45;&gt;Node24 -->
<g id="edge27" class="edge"><title>Node23&#45;&gt;Node24</title>
<path fill="none" stroke="midnightblue" d="M798.299,-304.949C806.686,-304.949 815.332,-304.949 823.697,-304.949"/>
<polygon fill="midnightblue" stroke="midnightblue" points="823.724,-308.45 833.724,-304.949 823.724,-301.45 823.724,-308.45"/>
</g>
<!-- Node25 -->
<g id="node25" class="node"><title>Node25</title>
<g id="a_node25"><a xlink:href="../../d2/db8/class_menu.html#a3c99ad09e9f2f975c1a0d0597642651a" target="_top" xlink:title="Menu.init">
<polygon fill="white" stroke="black" points="960,-295.449 960,-314.449 1020,-314.449 1020,-295.449 960,-295.449"/>
<text text-anchor="middle" x="990" y="-302.449" font-family="Helvetica,sans-Serif" font-size="10.00">Menu.init</text>
</a>
</g>
</g>
<!-- Node24&#45;&gt;Node25 -->
<g id="edge28" class="edge"><title>Node24&#45;&gt;Node25</title>
<path fill="none" stroke="midnightblue" d="M924.02,-304.949C932.495,-304.949 941.322,-304.949 949.637,-304.949"/>
<polygon fill="midnightblue" stroke="midnightblue" points="949.833,-308.45 959.833,-304.949 949.832,-301.45 949.833,-308.45"/>
</g>
<!-- Node26 -->
<g id="node26" class="node"><title>Node26</title>
<g id="a_node26"><a xlink:href="../../d2/db8/class_menu.html#a8a6e6125f0dc2dc7e19c6655ba6376a2" target="_top" xlink:title="Menu.addIntroText">
<polygon fill="white" stroke="black" points="1056,-295.449 1056,-314.449 1160,-314.449 1160,-295.449 1056,-295.449"/>
<text text-anchor="middle" x="1108" y="-302.449" font-family="Helvetica,sans-Serif" font-size="10.00">Menu.addIntroText</text>
</a>
</g>
</g>
<!-- Node25&#45;&gt;Node26 -->
<g id="edge29" class="edge"><title>Node25&#45;&gt;Node26</title>
<path fill="none" stroke="midnightblue" d="M1020.27,-304.949C1027.99,-304.949 1036.62,-304.949 1045.35,-304.949"/>
<polygon fill="midnightblue" stroke="midnightblue" points="1045.61,-308.45 1055.61,-304.949 1045.61,-301.45 1045.61,-308.45"/>
</g>
<!-- Node27 -->
<g id="node27" class="node"><title>Node27</title>
<g id="a_node27"><a xlink:href="../../db/d97/class_box_world.html#a55bf92d3f466bfaade0f6d199d8c9bd9" target="_top" xlink:title="BoxWorld.init">
<polygon fill="white" stroke="black" points="1069.5,-409.449 1069.5,-428.449 1146.5,-428.449 1146.5,-409.449 1069.5,-409.449"/>
<text text-anchor="middle" x="1108" y="-416.449" font-family="Helvetica,sans-Serif" font-size="10.00">BoxWorld.init</text>
</a>
</g>
</g>
<!-- Node25&#45;&gt;Node27 -->
<g id="edge30" class="edge"><title>Node25&#45;&gt;Node27</title>
<path fill="none" stroke="midnightblue" d="M1000.89,-314.669C1020.67,-334.104 1065.29,-377.961 1089.9,-402.148"/>
<polygon fill="midnightblue" stroke="midnightblue" points="1087.55,-404.741 1097.13,-409.255 1092.46,-399.749 1087.55,-404.741"/>
</g>
<!-- Node27&#45;&gt;Node5 -->
<g id="edge31" class="edge"><title>Node27&#45;&gt;Node5</title>
<path fill="none" stroke="midnightblue" d="M1146.57,-423.356C1158.53,-424.759 1172.28,-426.372 1186.19,-428.002"/>
<polygon fill="midnightblue" stroke="midnightblue" points="1185.97,-431.501 1196.31,-429.19 1186.79,-424.549 1185.97,-431.501"/>
</g>
<!-- Node27&#45;&gt;Node7 -->
<g id="edge32" class="edge"><title>Node27&#45;&gt;Node7</title>
<path fill="none" stroke="midnightblue" d="M1116.81,-409.255C1142.37,-377.548 1223.72,-276.613 1256.8,-235.564"/>
<polygon fill="midnightblue" stroke="midnightblue" points="1259.71,-237.529 1263.26,-227.547 1254.26,-233.136 1259.71,-237.529"/>
</g>
<!-- Node27&#45;&gt;Node19 -->
<g id="edge33" class="edge"><title>Node27&#45;&gt;Node19</title>
<path fill="none" stroke="midnightblue" d="M1069.24,-418.949C1024.2,-418.949 946.602,-418.949 880,-418.949 576,-418.949 576,-418.949 576,-418.949 452.517,-418.949 310.454,-377.401 244.794,-355.745"/>
<polygon fill="midnightblue" stroke="midnightblue" points="245.893,-352.421 235.299,-352.575 243.677,-359.061 245.893,-352.421"/>
</g>
</g>
</svg>
