<?xml version="1.0" encoding="UTF-8" standalone="no"?>
<!DOCTYPE svg PUBLIC "-//W3C//DTD SVG 1.1//EN"
 "http://www.w3.org/Graphics/SVG/1.1/DTD/svg11.dtd">
<!-- Generated by graphviz version 2.36.0 (20140111.2315)
 -->
<!-- Title: ItemBoxWorld.reset Pages: 1 -->
<svg width="622pt" height="66pt"
 viewBox="0.00 0.00 622.00 66.00" xmlns="http://www.w3.org/2000/svg" xmlns:xlink="http://www.w3.org/1999/xlink">
<g id="graph0" class="graph" transform="scale(1 1) rotate(0) translate(4 62)">
<title>ItemBoxWorld.reset</title>
<polygon fill="white" stroke="none" points="-4,4 -4,-62 618,-62 618,4 -4,4"/>
<!-- Node1 -->
<g id="node1" class="node"><title>Node1</title>
<polygon fill="#bfbfbf" stroke="black" points="0,-19.5 0,-38.5 110,-38.5 110,-19.5 0,-19.5"/>
<text text-anchor="middle" x="55" y="-26.5" font-family="Helvetica,sans-Serif" font-size="10.00">ItemBoxWorld.reset</text>
</g>
<!-- Node2 -->
<g id="node2" class="node"><title>Node2</title>
<g id="a_node2"><a xlink:href="../../d6/d4f/class_item_box_world.html#a7ead15fd9fd8095f928640161d48fdf8" target="_top" xlink:title="ItemBoxWorld.addAllItems">
<polygon fill="white" stroke="black" points="146.5,-19.5 146.5,-38.5 287.5,-38.5 287.5,-19.5 146.5,-19.5"/>
<text text-anchor="middle" x="217" y="-26.5" font-family="Helvetica,sans-Serif" font-size="10.00">ItemBoxWorld.addAllItems</text>
</a>
</g>
</g>
<!-- Node1&#45;&gt;Node2 -->
<g id="edge1" class="edge"><title>Node1&#45;&gt;Node2</title>
<path fill="none" stroke="midnightblue" d="M110.169,-29C118.509,-29 127.27,-29 136.029,-29"/>
<polygon fill="midnightblue" stroke="midnightblue" points="136.287,-32.5001 146.287,-29 136.287,-25.5001 136.287,-32.5001"/>
</g>
<!-- Node3 -->
<g id="node3" class="node"><title>Node3</title>
<g id="a_node3"><a xlink:href="../../d6/d4f/class_item_box_world.html#af1bcde0672796e926560684004ed8e81" target="_top" xlink:title="ItemBoxWorld.addSingleItem">
<polygon fill="white" stroke="black" points="324,-38.5 324,-57.5 478,-57.5 478,-38.5 324,-38.5"/>
<text text-anchor="middle" x="401" y="-45.5" font-family="Helvetica,sans-Serif" font-size="10.00">ItemBoxWorld.addSingleItem</text>
</a>
</g>
</g>
<!-- Node2&#45;&gt;Node3 -->
<g id="edge2" class="edge"><title>Node2&#45;&gt;Node3</title>
<path fill="none" stroke="midnightblue" d="M287.585,-36.2644C296.096,-37.1529 304.872,-38.0691 313.592,-38.9794"/>
<polygon fill="midnightblue" stroke="midnightblue" points="313.473,-42.4859 323.783,-40.0432 314.2,-35.5238 313.473,-42.4859"/>
</g>
<!-- Node5 -->
<g id="node5" class="node"><title>Node5</title>
<g id="a_node5"><a xlink:href="../../d6/d4f/class_item_box_world.html#a1890e6c53a4a73e44e9528009fde508d" target="_top" xlink:title="ItemBoxWorld.itemExists">
<polygon fill="white" stroke="black" points="334,-0.5 334,-19.5 468,-19.5 468,-0.5 334,-0.5"/>
<text text-anchor="middle" x="401" y="-7.5" font-family="Helvetica,sans-Serif" font-size="10.00">ItemBoxWorld.itemExists</text>
</a>
</g>
</g>
<!-- Node2&#45;&gt;Node5 -->
<g id="edge4" class="edge"><title>Node2&#45;&gt;Node5</title>
<path fill="none" stroke="midnightblue" d="M287.585,-21.7356C299.424,-20.4997 311.774,-19.2104 323.773,-17.9577"/>
<polygon fill="midnightblue" stroke="midnightblue" points="324.168,-21.4357 333.75,-16.9162 323.441,-14.4735 324.168,-21.4357"/>
</g>
<!-- Node4 -->
<g id="node4" class="node"><title>Node4</title>
<g id="a_node4"><a xlink:href="../../db/d97/class_box_world.html#abb95adb381902ecab1db85efdc1ea6ff" target="_top" xlink:title="BoxWorld.getRoot">
<polygon fill="white" stroke="black" points="514,-19.5 514,-38.5 614,-38.5 614,-19.5 514,-19.5"/>
<text text-anchor="middle" x="564" y="-26.5" font-family="Helvetica,sans-Serif" font-size="10.00">BoxWorld.getRoot</text>
</a>
</g>
</g>
<!-- Node3&#45;&gt;Node4 -->
<g id="edge3" class="edge"><title>Node3&#45;&gt;Node4</title>
<path fill="none" stroke="midnightblue" d="M478.257,-39.0008C486.714,-38.0026 495.235,-36.9971 503.443,-36.0284"/>
<polygon fill="midnightblue" stroke="midnightblue" points="504.124,-39.4724 513.645,-34.8245 503.304,-32.5207 504.124,-39.4724"/>
</g>
<!-- Node5&#45;&gt;Node4 -->
<g id="edge5" class="edge"><title>Node5&#45;&gt;Node4</title>
<path fill="none" stroke="midnightblue" d="M468.414,-17.8377C480.205,-19.2292 492.413,-20.6698 503.981,-22.0351"/>
<polygon fill="midnightblue" stroke="midnightblue" points="503.616,-25.5161 513.957,-23.2123 504.436,-18.5643 503.616,-25.5161"/>
</g>
</g>
</svg>
