<?xml version="1.0" encoding="UTF-8" standalone="no"?>
<!DOCTYPE svg PUBLIC "-//W3C//DTD SVG 1.1//EN"
 "http://www.w3.org/Graphics/SVG/1.1/DTD/svg11.dtd">
<!-- Generated by graphviz version 2.36.0 (20140111.2315)
 -->
<!-- Title: ItemBoxWorld.init Pages: 1 -->
<svg width="1970pt" height="607pt"
 viewBox="0.00 0.00 1970.00 607.00" xmlns="http://www.w3.org/2000/svg" xmlns:xlink="http://www.w3.org/1999/xlink">
<g id="graph0" class="graph" transform="scale(1 1) rotate(0) translate(4 603)">
<title>ItemBoxWorld.init</title>
<polygon fill="white" stroke="none" points="-4,4 -4,-603 1966,-603 1966,4 -4,4"/>
<!-- Node1 -->
<g id="node1" class="node"><title>Node1</title>
<polygon fill="#bfbfbf" stroke="black" points="0.5,-351.5 0.5,-370.5 99.5,-370.5 99.5,-351.5 0.5,-351.5"/>
<text text-anchor="middle" x="50" y="-358.5" font-family="Helvetica,sans-Serif" font-size="10.00">ItemBoxWorld.init</text>
</g>
<!-- Node2 -->
<g id="node2" class="node"><title>Node2</title>
<g id="a_node2"><a xlink:href="../../d6/d4f/class_item_box_world.html#a7ead15fd9fd8095f928640161d48fdf8" target="_top" xlink:title="ItemBoxWorld.addAllItems">
<polygon fill="white" stroke="black" points="157.5,-541.5 157.5,-560.5 298.5,-560.5 298.5,-541.5 157.5,-541.5"/>
<text text-anchor="middle" x="228" y="-548.5" font-family="Helvetica,sans-Serif" font-size="10.00">ItemBoxWorld.addAllItems</text>
</a>
</g>
</g>
<!-- Node1&#45;&gt;Node2 -->
<g id="edge1" class="edge"><title>Node1&#45;&gt;Node2</title>
<path fill="none" stroke="midnightblue" d="M53.0226,-370.614C59.5463,-399.171 82.7801,-484.164 136,-527 141.302,-531.268 147.288,-534.782 153.595,-537.675"/>
<polygon fill="midnightblue" stroke="midnightblue" points="152.44,-540.983 163.023,-541.484 155.063,-534.493 152.44,-540.983"/>
</g>
<!-- Node6 -->
<g id="node6" class="node"><title>Node6</title>
<g id="a_node6"><a xlink:href="../../db/d97/class_box_world.html#a69798621c944e846f045aaf3937505f9" target="_top" xlink:title="BoxWorld.addStarterObjects">
<polygon fill="white" stroke="black" points="1238.5,-474.5 1238.5,-493.5 1389.5,-493.5 1389.5,-474.5 1238.5,-474.5"/>
<text text-anchor="middle" x="1314" y="-481.5" font-family="Helvetica,sans-Serif" font-size="10.00">BoxWorld.addStarterObjects</text>
</a>
</g>
</g>
<!-- Node1&#45;&gt;Node6 -->
<g id="edge6" class="edge"><title>Node1&#45;&gt;Node6</title>
<path fill="none" stroke="midnightblue" d="M53.7808,-370.584C61.7236,-396.006 87.1473,-465.172 136,-494 249.533,-560.996 300.174,-513 432,-513 432,-513 432,-513 1033,-513 1105.73,-513 1188.52,-503.2 1245.1,-494.994"/>
<polygon fill="midnightblue" stroke="midnightblue" points="1245.61,-498.456 1255,-493.536 1244.59,-491.531 1245.61,-498.456"/>
</g>
<!-- Node8 -->
<g id="node8" class="node"><title>Node8</title>
<g id="a_node8"><a xlink:href="../../db/d97/class_box_world.html#a726e747e023543658d7a345cc6466ccb" target="_top" xlink:title="BoxWorld.createScene">
<polygon fill="white" stroke="black" points="1252,-275.5 1252,-294.5 1376,-294.5 1376,-275.5 1252,-275.5"/>
<text text-anchor="middle" x="1314" y="-282.5" font-family="Helvetica,sans-Serif" font-size="10.00">BoxWorld.createScene</text>
</a>
</g>
</g>
<!-- Node1&#45;&gt;Node8 -->
<g id="edge8" class="edge"><title>Node1&#45;&gt;Node8</title>
<path fill="none" stroke="midnightblue" d="M53.682,-351.242C61.3795,-325.389 86.2486,-255.248 136,-228 207.725,-188.717 238.294,-224.572 320,-228 526.288,-236.656 576.53,-266 783,-266 783,-266 783,-266 1033,-266 1104.1,-266 1185.11,-272.173 1241.64,-277.482"/>
<polygon fill="midnightblue" stroke="midnightblue" points="1241.62,-280.995 1251.91,-278.461 1242.28,-274.027 1241.62,-280.995"/>
</g>
<!-- Node20 -->
<g id="node20" class="node"><title>Node20</title>
<g id="a_node20"><a xlink:href="../../db/d97/class_box_world.html#a61929851f1d60c397e1448e614f1d701" target="_top" xlink:title="BoxWorld.getAnimation">
<polygon fill="white" stroke="black" points="164,-427.5 164,-446.5 292,-446.5 292,-427.5 164,-427.5"/>
<text text-anchor="middle" x="228" y="-434.5" font-family="Helvetica,sans-Serif" font-size="10.00">BoxWorld.getAnimation</text>
</a>
</g>
</g>
<!-- Node1&#45;&gt;Node20 -->
<g id="edge22" class="edge"><title>Node1&#45;&gt;Node20</title>
<path fill="none" stroke="midnightblue" d="M62.2699,-370.667C77.8093,-383.479 107.176,-405.872 136,-418 142.197,-420.607 148.786,-422.869 155.477,-424.829"/>
<polygon fill="midnightblue" stroke="midnightblue" points="154.751,-428.258 165.317,-427.489 156.577,-421.501 154.751,-428.258"/>
</g>
<!-- Node21 -->
<g id="node21" class="node"><title>Node21</title>
<g id="a_node21"><a xlink:href="../../db/d97/class_box_world.html#a8d7d9f1ae1ebcd87ff73c09780b70629" target="_top" xlink:title="BoxWorld.setAnimation">
<polygon fill="white" stroke="black" points="164.5,-389.5 164.5,-408.5 291.5,-408.5 291.5,-389.5 164.5,-389.5"/>
<text text-anchor="middle" x="228" y="-396.5" font-family="Helvetica,sans-Serif" font-size="10.00">BoxWorld.setAnimation</text>
</a>
</g>
</g>
<!-- Node1&#45;&gt;Node21 -->
<g id="edge23" class="edge"><title>Node1&#45;&gt;Node21</title>
<path fill="none" stroke="midnightblue" d="M93.3449,-370.589C106.956,-373.638 122.107,-376.997 136,-380 147.225,-382.426 159.24,-384.972 170.74,-387.382"/>
<polygon fill="midnightblue" stroke="midnightblue" points="170.175,-390.84 180.679,-389.46 171.607,-383.988 170.175,-390.84"/>
</g>
<!-- Node22 -->
<g id="node22" class="node"><title>Node22</title>
<g id="a_node22"><a xlink:href="../../db/d97/class_box_world.html#a3735494d6eeffc036cd757eb21170eb0" target="_top" xlink:title="BoxWorld.setObstacleXCoordinates">
<polygon fill="white" stroke="black" points="136.5,-351.5 136.5,-370.5 319.5,-370.5 319.5,-351.5 136.5,-351.5"/>
<text text-anchor="middle" x="228" y="-358.5" font-family="Helvetica,sans-Serif" font-size="10.00">BoxWorld.setObstacleXCoordinates</text>
</a>
</g>
</g>
<!-- Node1&#45;&gt;Node22 -->
<g id="edge24" class="edge"><title>Node1&#45;&gt;Node22</title>
<path fill="none" stroke="midnightblue" d="M99.5587,-361C108.002,-361 117.056,-361 126.302,-361"/>
<polygon fill="midnightblue" stroke="midnightblue" points="126.389,-364.5 136.389,-361 126.389,-357.5 126.389,-364.5"/>
</g>
<!-- Node23 -->
<g id="node23" class="node"><title>Node23</title>
<g id="a_node23"><a xlink:href="../../db/d97/class_box_world.html#ab45827804913790744cdbaaf8a222256" target="_top" xlink:title="BoxWorld.setObstacleYCoordinates">
<polygon fill="white" stroke="black" points="137,-313.5 137,-332.5 319,-332.5 319,-313.5 137,-313.5"/>
<text text-anchor="middle" x="228" y="-320.5" font-family="Helvetica,sans-Serif" font-size="10.00">BoxWorld.setObstacleYCoordinates</text>
</a>
</g>
</g>
<!-- Node1&#45;&gt;Node23 -->
<g id="edge25" class="edge"><title>Node1&#45;&gt;Node23</title>
<path fill="none" stroke="midnightblue" d="M93.3449,-351.411C106.956,-348.362 122.107,-345.003 136,-342 147.225,-339.574 159.24,-337.028 170.74,-334.618"/>
<polygon fill="midnightblue" stroke="midnightblue" points="171.607,-338.012 180.679,-332.54 170.175,-331.16 171.607,-338.012"/>
</g>
<!-- Node24 -->
<g id="node24" class="node"><title>Node24</title>
<g id="a_node24"><a xlink:href="../../db/d97/class_box_world.html#aeeaafc4ff103ded208e6c9393eb4ceca" target="_top" xlink:title="BoxWorld.setRoot">
<polygon fill="white" stroke="black" points="178.5,-275.5 178.5,-294.5 277.5,-294.5 277.5,-275.5 178.5,-275.5"/>
<text text-anchor="middle" x="228" y="-282.5" font-family="Helvetica,sans-Serif" font-size="10.00">BoxWorld.setRoot</text>
</a>
</g>
</g>
<!-- Node1&#45;&gt;Node24 -->
<g id="edge26" class="edge"><title>Node1&#45;&gt;Node24</title>
<path fill="none" stroke="midnightblue" d="M62.2699,-351.333C77.8093,-338.521 107.176,-316.128 136,-304 146.137,-299.735 157.324,-296.394 168.285,-293.788"/>
<polygon fill="midnightblue" stroke="midnightblue" points="169.237,-297.162 178.251,-291.596 167.733,-290.326 169.237,-297.162"/>
</g>
<!-- Node25 -->
<g id="node25" class="node"><title>Node25</title>
<g id="a_node25"><a xlink:href="../../db/d97/class_box_world.html#a25c34c68bdd68debd7de01a4f3b98bb1" target="_top" xlink:title="BoxWorld.setStage">
<polygon fill="white" stroke="black" points="174.5,-237.5 174.5,-256.5 281.5,-256.5 281.5,-237.5 174.5,-237.5"/>
<text text-anchor="middle" x="228" y="-244.5" font-family="Helvetica,sans-Serif" font-size="10.00">BoxWorld.setStage</text>
</a>
</g>
</g>
<!-- Node1&#45;&gt;Node25 -->
<g id="edge27" class="edge"><title>Node1&#45;&gt;Node25</title>
<path fill="none" stroke="midnightblue" d="M56.6274,-351.363C68.5633,-331.85 98.4293,-287.68 136,-266 144.702,-260.979 154.553,-257.276 164.479,-254.547"/>
<polygon fill="midnightblue" stroke="midnightblue" points="165.504,-257.9 174.39,-252.131 163.846,-251.099 165.504,-257.9"/>
</g>
<!-- Node26 -->
<g id="node26" class="node"><title>Node26</title>
<g id="a_node26"><a xlink:href="../../db/d97/class_box_world.html#ad20a4e43406c44f4bbf201d1d1028998" target="_top" xlink:title="BoxWorld.start">
<polygon fill="white" stroke="black" points="185,-465.5 185,-484.5 271,-484.5 271,-465.5 185,-465.5"/>
<text text-anchor="middle" x="228" y="-472.5" font-family="Helvetica,sans-Serif" font-size="10.00">BoxWorld.start</text>
</a>
</g>
</g>
<!-- Node1&#45;&gt;Node26 -->
<g id="edge28" class="edge"><title>Node1&#45;&gt;Node26</title>
<path fill="none" stroke="midnightblue" d="M56.6274,-370.637C68.5633,-390.15 98.4293,-434.32 136,-456 147.696,-462.749 161.468,-467.116 174.709,-469.937"/>
<polygon fill="midnightblue" stroke="midnightblue" points="174.215,-473.406 184.688,-471.807 175.504,-466.525 174.215,-473.406"/>
</g>
<!-- Node3 -->
<g id="node3" class="node"><title>Node3</title>
<g id="a_node3"><a xlink:href="../../d6/d4f/class_item_box_world.html#af1bcde0672796e926560684004ed8e81" target="_top" xlink:title="ItemBoxWorld.addSingleItem">
<polygon fill="white" stroke="black" points="356,-579.5 356,-598.5 510,-598.5 510,-579.5 356,-579.5"/>
<text text-anchor="middle" x="433" y="-586.5" font-family="Helvetica,sans-Serif" font-size="10.00">ItemBoxWorld.addSingleItem</text>
</a>
</g>
</g>
<!-- Node2&#45;&gt;Node3 -->
<g id="edge2" class="edge"><title>Node2&#45;&gt;Node3</title>
<path fill="none" stroke="midnightblue" d="M279.963,-560.54C307.594,-565.712 341.933,-572.14 370.981,-577.578"/>
<polygon fill="midnightblue" stroke="midnightblue" points="370.542,-581.056 381.016,-579.456 371.83,-574.176 370.542,-581.056"/>
</g>
<!-- Node5 -->
<g id="node5" class="node"><title>Node5</title>
<g id="a_node5"><a xlink:href="../../d6/d4f/class_item_box_world.html#a1890e6c53a4a73e44e9528009fde508d" target="_top" xlink:title="ItemBoxWorld.itemExists">
<polygon fill="white" stroke="black" points="366,-541.5 366,-560.5 500,-560.5 500,-541.5 366,-541.5"/>
<text text-anchor="middle" x="433" y="-548.5" font-family="Helvetica,sans-Serif" font-size="10.00">ItemBoxWorld.itemExists</text>
</a>
</g>
</g>
<!-- Node2&#45;&gt;Node5 -->
<g id="edge4" class="edge"><title>Node2&#45;&gt;Node5</title>
<path fill="none" stroke="midnightblue" d="M298.577,-551C317.062,-551 337.12,-551 355.931,-551"/>
<polygon fill="midnightblue" stroke="midnightblue" points="355.937,-554.5 365.937,-551 355.937,-547.5 355.937,-554.5"/>
</g>
<!-- Node4 -->
<g id="node4" class="node"><title>Node4</title>
<g id="a_node4"><a xlink:href="../../db/d97/class_box_world.html#abb95adb381902ecab1db85efdc1ea6ff" target="_top" xlink:title="BoxWorld.getRoot">
<polygon fill="white" stroke="black" points="569,-560.5 569,-579.5 669,-579.5 669,-560.5 569,-560.5"/>
<text text-anchor="middle" x="619" y="-567.5" font-family="Helvetica,sans-Serif" font-size="10.00">BoxWorld.getRoot</text>
</a>
</g>
</g>
<!-- Node3&#45;&gt;Node4 -->
<g id="edge3" class="edge"><title>Node3&#45;&gt;Node4</title>
<path fill="none" stroke="midnightblue" d="M510.168,-581.135C526.469,-579.452 543.454,-577.698 558.992,-576.093"/>
<polygon fill="midnightblue" stroke="midnightblue" points="559.385,-579.571 568.972,-575.063 558.666,-572.608 559.385,-579.571"/>
</g>
<!-- Node5&#45;&gt;Node4 -->
<g id="edge5" class="edge"><title>Node5&#45;&gt;Node4</title>
<path fill="none" stroke="midnightblue" d="M500.168,-557.833C519.293,-559.807 540.039,-561.95 558.716,-563.878"/>
<polygon fill="midnightblue" stroke="midnightblue" points="558.549,-567.38 568.856,-564.925 559.268,-560.417 558.549,-567.38"/>
</g>
<!-- Node7 -->
<g id="node7" class="node"><title>Node7</title>
<g id="a_node7"><a xlink:href="../../db/d97/class_box_world.html#a2542cc74ebeba6a9768a443a55186901" target="_top" xlink:title="BoxWorld.createObstacleArray">
<polygon fill="white" stroke="black" points="1426.5,-474.5 1426.5,-493.5 1587.5,-493.5 1587.5,-474.5 1426.5,-474.5"/>
<text text-anchor="middle" x="1507" y="-481.5" font-family="Helvetica,sans-Serif" font-size="10.00">BoxWorld.createObstacleArray</text>
</a>
</g>
</g>
<!-- Node6&#45;&gt;Node7 -->
<g id="edge7" class="edge"><title>Node6&#45;&gt;Node7</title>
<path fill="none" stroke="midnightblue" d="M1389.67,-484C1398.41,-484 1407.4,-484 1416.31,-484"/>
<polygon fill="midnightblue" stroke="midnightblue" points="1416.34,-487.5 1426.34,-484 1416.34,-480.5 1416.34,-487.5"/>
</g>
<!-- Node9 -->
<g id="node9" class="node"><title>Node9</title>
<g id="a_node9"><a xlink:href="../../db/d97/class_box_world.html#aa7e2049d7be23e15fd2ec7fa2922ed79" target="_top" xlink:title="BoxWorld.handleKeyInput">
<polygon fill="white" stroke="black" points="1439,-246.5 1439,-265.5 1575,-265.5 1575,-246.5 1439,-246.5"/>
<text text-anchor="middle" x="1507" y="-253.5" font-family="Helvetica,sans-Serif" font-size="10.00">BoxWorld.handleKeyInput</text>
</a>
</g>
</g>
<!-- Node8&#45;&gt;Node9 -->
<g id="edge9" class="edge"><title>Node8&#45;&gt;Node9</title>
<path fill="none" stroke="midnightblue" d="M1376.22,-275.705C1394.35,-272.952 1414.38,-269.911 1433.17,-267.059"/>
<polygon fill="midnightblue" stroke="midnightblue" points="1433.79,-270.503 1443.16,-265.542 1432.74,-263.583 1433.79,-270.503"/>
</g>
<!-- Node19 -->
<g id="node19" class="node"><title>Node19</title>
<g id="a_node19"><a xlink:href="../../db/d97/class_box_world.html#a2d44485a181577acb4d79b6b81f26fff" target="_top" xlink:title="BoxWorld.handleKeyRelease">
<polygon fill="white" stroke="black" points="1432.5,-284.5 1432.5,-303.5 1581.5,-303.5 1581.5,-284.5 1432.5,-284.5"/>
<text text-anchor="middle" x="1507" y="-291.5" font-family="Helvetica,sans-Serif" font-size="10.00">BoxWorld.handleKeyRelease</text>
</a>
</g>
</g>
<!-- Node8&#45;&gt;Node19 -->
<g id="edge21" class="edge"><title>Node8&#45;&gt;Node19</title>
<path fill="none" stroke="midnightblue" d="M1376.22,-287.885C1390.9,-288.576 1406.83,-289.327 1422.33,-290.057"/>
<polygon fill="midnightblue" stroke="midnightblue" points="1422.28,-293.559 1432.44,-290.534 1422.61,-286.567 1422.28,-293.559"/>
</g>
<!-- Node10 -->
<g id="node10" class="node"><title>Node10</title>
<g id="a_node10"><a xlink:href="../../db/d97/class_box_world.html#adc4c9d78ffde3d052c4c92047eb98e55" target="_top" xlink:title="BoxWorld.allowMovement">
<polygon fill="white" stroke="black" points="1624.5,-161.5 1624.5,-180.5 1761.5,-180.5 1761.5,-161.5 1624.5,-161.5"/>
<text text-anchor="middle" x="1693" y="-168.5" font-family="Helvetica,sans-Serif" font-size="10.00">BoxWorld.allowMovement</text>
</a>
</g>
</g>
<!-- Node9&#45;&gt;Node10 -->
<g id="edge10" class="edge"><title>Node9&#45;&gt;Node10</title>
<path fill="none" stroke="midnightblue" d="M1528.75,-246.415C1561.28,-231.389 1624.42,-202.221 1661.93,-184.893"/>
<polygon fill="midnightblue" stroke="midnightblue" points="1663.72,-187.921 1671.33,-180.55 1660.78,-181.567 1663.72,-187.921"/>
</g>
<!-- Node15 -->
<g id="node15" class="node"><title>Node15</title>
<g id="a_node15"><a xlink:href="../../db/d97/class_box_world.html#a04c6bf977c4292a5433649fb3745fd6b" target="_top" xlink:title="BoxWorld.reset">
<polygon fill="white" stroke="black" points="1649,-370.5 1649,-389.5 1737,-389.5 1737,-370.5 1649,-370.5"/>
<text text-anchor="middle" x="1693" y="-377.5" font-family="Helvetica,sans-Serif" font-size="10.00">BoxWorld.reset</text>
</a>
</g>
</g>
<!-- Node9&#45;&gt;Node15 -->
<g id="edge15" class="edge"><title>Node9&#45;&gt;Node15</title>
<path fill="none" stroke="midnightblue" d="M1565.43,-265.503C1573.28,-267.975 1581.03,-271.086 1588,-275 1627.48,-297.168 1661.94,-338.663 1679.55,-362.309"/>
<polygon fill="midnightblue" stroke="midnightblue" points="1676.74,-364.391 1685.45,-370.42 1682.4,-360.274 1676.74,-364.391"/>
</g>
<!-- Node16 -->
<g id="node16" class="node"><title>Node16</title>
<g id="a_node16"><a xlink:href="../../da/de2/class_sticky_box.html#aa1bb8f78f676b01c688d75d386758444" target="_top" xlink:title="StickyBox.setDirection">
<polygon fill="white" stroke="black" points="1818,-332.5 1818,-351.5 1942,-351.5 1942,-332.5 1818,-332.5"/>
<text text-anchor="middle" x="1880" y="-339.5" font-family="Helvetica,sans-Serif" font-size="10.00">StickyBox.setDirection</text>
</a>
</g>
</g>
<!-- Node9&#45;&gt;Node16 -->
<g id="edge18" class="edge"><title>Node9&#45;&gt;Node16</title>
<path fill="none" stroke="midnightblue" d="M1549.12,-265.532C1617.32,-281.341 1753.66,-312.946 1827.92,-330.16"/>
<polygon fill="midnightblue" stroke="midnightblue" points="1827.45,-333.642 1837.98,-332.491 1829.03,-326.823 1827.45,-333.642"/>
</g>
<!-- Node18 -->
<g id="node18" class="node"><title>Node18</title>
<g id="a_node18"><a xlink:href="../../db/d97/class_box_world.html#aad670712776afe126e51791097027e05" target="_top" xlink:title="BoxWorld.winLevel">
<polygon fill="white" stroke="black" points="1641.5,-123.5 1641.5,-142.5 1744.5,-142.5 1744.5,-123.5 1641.5,-123.5"/>
<text text-anchor="middle" x="1693" y="-130.5" font-family="Helvetica,sans-Serif" font-size="10.00">BoxWorld.winLevel</text>
</a>
</g>
</g>
<!-- Node9&#45;&gt;Node18 -->
<g id="edge19" class="edge"><title>Node9&#45;&gt;Node18</title>
<path fill="none" stroke="midnightblue" d="M1515.93,-246.37C1533.33,-225.883 1577.04,-177.755 1624,-152 1628.15,-149.725 1632.59,-147.704 1637.14,-145.912"/>
<polygon fill="midnightblue" stroke="midnightblue" points="1638.34,-149.2 1646.59,-142.549 1636,-142.606 1638.34,-149.2"/>
</g>
<!-- Node11 -->
<g id="node11" class="node"><title>Node11</title>
<g id="a_node11"><a xlink:href="../../da/de2/class_sticky_box.html#a6ba3f89630df9d81df5644a3e5f4e387" target="_top" xlink:title="StickyBox.getXDirection">
<polygon fill="white" stroke="black" points="1814.5,-66.5 1814.5,-85.5 1945.5,-85.5 1945.5,-66.5 1814.5,-66.5"/>
<text text-anchor="middle" x="1880" y="-73.5" font-family="Helvetica,sans-Serif" font-size="10.00">StickyBox.getXDirection</text>
</a>
</g>
</g>
<!-- Node10&#45;&gt;Node11 -->
<g id="edge11" class="edge"><title>Node10&#45;&gt;Node11</title>
<path fill="none" stroke="midnightblue" d="M1736.06,-161.401C1744.81,-158.811 1753.85,-155.684 1762,-152 1781.32,-143.273 1828.93,-110.944 1857.1,-91.3723"/>
<polygon fill="midnightblue" stroke="midnightblue" points="1859.3,-94.1029 1865.5,-85.5122 1855.3,-88.361 1859.3,-94.1029"/>
</g>
<!-- Node12 -->
<g id="node12" class="node"><title>Node12</title>
<g id="a_node12"><a xlink:href="../../da/de2/class_sticky_box.html#ab0bd7cafb7f243e3951558ddb8728b96" target="_top" xlink:title="StickyBox.getXPrev">
<polygon fill="white" stroke="black" points="1825.5,-180.5 1825.5,-199.5 1934.5,-199.5 1934.5,-180.5 1825.5,-180.5"/>
<text text-anchor="middle" x="1880" y="-187.5" font-family="Helvetica,sans-Serif" font-size="10.00">StickyBox.getXPrev</text>
</a>
</g>
</g>
<!-- Node10&#45;&gt;Node12 -->
<g id="edge12" class="edge"><title>Node10&#45;&gt;Node12</title>
<path fill="none" stroke="midnightblue" d="M1761.57,-177.94C1779.09,-179.739 1797.89,-181.67 1815.21,-183.448"/>
<polygon fill="midnightblue" stroke="midnightblue" points="1814.9,-186.936 1825.21,-184.476 1815.62,-179.972 1814.9,-186.936"/>
</g>
<!-- Node13 -->
<g id="node13" class="node"><title>Node13</title>
<g id="a_node13"><a xlink:href="../../da/de2/class_sticky_box.html#a69e5ccf2a79159c03dea2e048df13318" target="_top" xlink:title="StickyBox.getYDirection">
<polygon fill="white" stroke="black" points="1815,-28.5 1815,-47.5 1945,-47.5 1945,-28.5 1815,-28.5"/>
<text text-anchor="middle" x="1880" y="-35.5" font-family="Helvetica,sans-Serif" font-size="10.00">StickyBox.getYDirection</text>
</a>
</g>
</g>
<!-- Node10&#45;&gt;Node13 -->
<g id="edge13" class="edge"><title>Node10&#45;&gt;Node13</title>
<path fill="none" stroke="midnightblue" d="M1747.46,-161.458C1752.76,-158.987 1757.75,-155.887 1762,-152 1795.33,-121.537 1764.04,-86.7552 1798,-57 1800.5,-54.8107 1803.2,-52.8614 1806.05,-51.1267"/>
<polygon fill="midnightblue" stroke="midnightblue" points="1807.69,-54.2189 1814.99,-46.5408 1804.5,-47.9904 1807.69,-54.2189"/>
</g>
<!-- Node14 -->
<g id="node14" class="node"><title>Node14</title>
<g id="a_node14"><a xlink:href="../../da/de2/class_sticky_box.html#a4c6abed944faed9d9b226079e99cfc24" target="_top" xlink:title="StickyBox.getYPrev">
<polygon fill="white" stroke="black" points="1826,-142.5 1826,-161.5 1934,-161.5 1934,-142.5 1826,-142.5"/>
<text text-anchor="middle" x="1880" y="-149.5" font-family="Helvetica,sans-Serif" font-size="10.00">StickyBox.getYPrev</text>
</a>
</g>
</g>
<!-- Node10&#45;&gt;Node14 -->
<g id="edge14" class="edge"><title>Node10&#45;&gt;Node14</title>
<path fill="none" stroke="midnightblue" d="M1761.57,-164.06C1779.26,-162.243 1798.27,-160.292 1815.72,-158.499"/>
<polygon fill="midnightblue" stroke="midnightblue" points="1816.21,-161.968 1825.8,-157.464 1815.49,-155.004 1816.21,-161.968"/>
</g>
<!-- Node15&#45;&gt;Node16 -->
<g id="edge16" class="edge"><title>Node15&#45;&gt;Node16</title>
<path fill="none" stroke="midnightblue" d="M1737.37,-371.091C1762.87,-365.855 1795.37,-359.178 1822.81,-353.542"/>
<polygon fill="midnightblue" stroke="midnightblue" points="1823.57,-356.958 1832.66,-351.518 1822.16,-350.101 1823.57,-356.958"/>
</g>
<!-- Node17 -->
<g id="node17" class="node"><title>Node17</title>
<g id="a_node17"><a xlink:href="../../da/de2/class_sticky_box.html#a5d95d2ed2e13f0d87a44311db77f9e36" target="_top" xlink:title="StickyBox.setPreviousDirection">
<polygon fill="white" stroke="black" points="1798,-389.5 1798,-408.5 1962,-408.5 1962,-389.5 1798,-389.5"/>
<text text-anchor="middle" x="1880" y="-396.5" font-family="Helvetica,sans-Serif" font-size="10.00">StickyBox.setPreviousDirection</text>
</a>
</g>
</g>
<!-- Node15&#45;&gt;Node17 -->
<g id="edge17" class="edge"><title>Node15&#45;&gt;Node17</title>
<path fill="none" stroke="midnightblue" d="M1737.37,-384.455C1752.46,-386.004 1770.01,-387.806 1787.5,-389.603"/>
<polygon fill="midnightblue" stroke="midnightblue" points="1787.47,-393.118 1797.78,-390.658 1788.19,-386.155 1787.47,-393.118"/>
</g>
<!-- Node18&#45;&gt;Node1 -->
<g id="edge20" class="edge"><title>Node18&#45;&gt;Node1</title>
<path fill="none" stroke="midnightblue" d="M1641.43,-137.17C1569.12,-142.763 1431.98,-152 1315,-152 920,-152 920,-152 920,-152 570.76,-152 419.656,-1.26506 136,-205 88.7363,-238.947 64.9699,-307.59 55.738,-341.349"/>
<polygon fill="midnightblue" stroke="midnightblue" points="52.2645,-340.802 53.1514,-351.359 59.0419,-342.553 52.2645,-340.802"/>
</g>
<!-- Node27 -->
<g id="node27" class="node"><title>Node27</title>
<g id="a_node27"><a xlink:href="../../db/d97/class_box_world.html#a6794c083c2a0263c2f585f4ae4b7e39c" target="_top" xlink:title="BoxWorld.updateSprites">
<polygon fill="white" stroke="black" points="367.5,-190.5 367.5,-209.5 498.5,-209.5 498.5,-190.5 367.5,-190.5"/>
<text text-anchor="middle" x="433" y="-197.5" font-family="Helvetica,sans-Serif" font-size="10.00">BoxWorld.updateSprites</text>
</a>
</g>
</g>
<!-- Node26&#45;&gt;Node27 -->
<g id="edge29" class="edge"><title>Node26&#45;&gt;Node27</title>
<path fill="none" stroke="midnightblue" d="M271.225,-474.585C288.025,-472.43 306.523,-467.307 320,-456 353.004,-428.31 339.028,-405.597 356,-366 379.11,-312.081 408.528,-249.361 423.054,-218.748"/>
<polygon fill="midnightblue" stroke="midnightblue" points="426.244,-220.189 427.379,-209.656 419.923,-217.183 426.244,-220.189"/>
</g>
<!-- Node27&#45;&gt;Node11 -->
<g id="edge44" class="edge"><title>Node27&#45;&gt;Node11</title>
<path fill="none" stroke="midnightblue" d="M447.094,-190.348C467.319,-175.874 507.821,-148.585 546,-133 646.302,-92.0557 674.663,-76 783,-76 783,-76 783,-76 1508,-76 1610.58,-76 1729.11,-76 1804.05,-76"/>
<polygon fill="midnightblue" stroke="midnightblue" points="1804.33,-79.5001 1814.33,-76 1804.33,-72.5001 1804.33,-79.5001"/>
</g>
<!-- Node27&#45;&gt;Node13 -->
<g id="edge45" class="edge"><title>Node27&#45;&gt;Node13</title>
<path fill="none" stroke="midnightblue" d="M440.362,-190.303C455.768,-167.56 497.41,-110.343 546,-79 639.304,-18.8153 671.969,-0 783,-0 783,-0 783,-0 1508,-0 1621.2,-0 1649.58,-5.69244 1762,-19 1779.68,-21.093 1798.77,-23.9415 1816.31,-26.7957"/>
<polygon fill="midnightblue" stroke="midnightblue" points="1815.99,-30.2907 1826.43,-28.4712 1817.13,-23.3847 1815.99,-30.2907"/>
</g>
<!-- Node27&#45;&gt;Node16 -->
<g id="edge47" class="edge"><title>Node27&#45;&gt;Node16</title>
<path fill="none" stroke="midnightblue" d="M446.856,-209.538C491.088,-241.376 642.034,-342 783,-342 783,-342 783,-342 1508,-342 1612.27,-342 1733.02,-342 1807.72,-342"/>
<polygon fill="midnightblue" stroke="midnightblue" points="1807.95,-345.5 1817.95,-342 1807.95,-338.5 1807.95,-345.5"/>
</g>
<!-- Node27&#45;&gt;Node17 -->
<g id="edge48" class="edge"><title>Node27&#45;&gt;Node17</title>
<path fill="none" stroke="midnightblue" d="M441.149,-209.555C457.574,-230.954 500.132,-283.33 546,-315 640.511,-380.256 668.149,-418 783,-418 783,-418 783,-418 1508,-418 1603.32,-418 1712.24,-411.667 1787.28,-406.313"/>
<polygon fill="midnightblue" stroke="midnightblue" points="1787.92,-409.777 1797.64,-405.565 1787.41,-402.795 1787.92,-409.777"/>
</g>
<!-- Node28 -->
<g id="node28" class="node"><title>Node28</title>
<g id="a_node28"><a xlink:href="../../db/d97/class_box_world.html#a4079bed8937c9f621decfbe1309e31e2" target="_top" xlink:title="BoxWorld.checkAllCollisions">
<polygon fill="white" stroke="black" points="546,-142.5 546,-161.5 692,-161.5 692,-142.5 546,-142.5"/>
<text text-anchor="middle" x="619" y="-149.5" font-family="Helvetica,sans-Serif" font-size="10.00">BoxWorld.checkAllCollisions</text>
</a>
</g>
</g>
<!-- Node27&#45;&gt;Node28 -->
<g id="edge30" class="edge"><title>Node27&#45;&gt;Node28</title>
<path fill="none" stroke="midnightblue" d="M470.793,-190.402C499.751,-182.848 540.288,-172.273 571.494,-164.132"/>
<polygon fill="midnightblue" stroke="midnightblue" points="572.478,-167.492 581.271,-161.582 570.711,-160.719 572.478,-167.492"/>
</g>
<!-- Node36 -->
<g id="node36" class="node"><title>Node36</title>
<g id="a_node36"><a xlink:href="../../da/de2/class_sticky_box.html#a185ee469367b376e6c5969a03d089d57" target="_top" xlink:title="StickyBox.move">
<polygon fill="white" stroke="black" points="572.5,-218.5 572.5,-237.5 665.5,-237.5 665.5,-218.5 572.5,-218.5"/>
<text text-anchor="middle" x="619" y="-225.5" font-family="Helvetica,sans-Serif" font-size="10.00">StickyBox.move</text>
</a>
</g>
</g>
<!-- Node27&#45;&gt;Node36 -->
<g id="edge46" class="edge"><title>Node27&#45;&gt;Node36</title>
<path fill="none" stroke="midnightblue" d="M496.551,-209.519C517.949,-212.775 541.723,-216.393 562.524,-219.558"/>
<polygon fill="midnightblue" stroke="midnightblue" points="562.06,-223.028 572.473,-221.072 563.113,-216.107 562.06,-223.028"/>
</g>
<!-- Node37 -->
<g id="node37" class="node"><title>Node37</title>
<g id="a_node37"><a xlink:href="../../da/de2/class_sticky_box.html#a59337f0aa3c7379a2cb9c76bdc621daf" target="_top" xlink:title="StickyBox.setStuck">
<polygon fill="white" stroke="black" points="565,-180.5 565,-199.5 673,-199.5 673,-180.5 565,-180.5"/>
<text text-anchor="middle" x="619" y="-187.5" font-family="Helvetica,sans-Serif" font-size="10.00">StickyBox.setStuck</text>
</a>
</g>
</g>
<!-- Node27&#45;&gt;Node37 -->
<g id="edge49" class="edge"><title>Node27&#45;&gt;Node37</title>
<path fill="none" stroke="midnightblue" d="M498.613,-196.488C516.789,-195.501 536.534,-194.428 554.636,-193.444"/>
<polygon fill="midnightblue" stroke="midnightblue" points="554.995,-196.929 564.791,-192.892 554.615,-189.94 554.995,-196.929"/>
</g>
<!-- Node28&#45;&gt;Node18 -->
<g id="edge43" class="edge"><title>Node28&#45;&gt;Node18</title>
<path fill="none" stroke="midnightblue" d="M666.28,-142.46C725.013,-131.204 829.57,-114 920,-114 920,-114 920,-114 1315,-114 1426.72,-114 1556.84,-122.426 1631.3,-128.056"/>
<polygon fill="midnightblue" stroke="midnightblue" points="1631.19,-131.558 1641.43,-128.83 1631.72,-124.578 1631.19,-131.558"/>
</g>
<!-- Node29 -->
<g id="node29" class="node"><title>Node29</title>
<g id="a_node29"><a xlink:href="../../db/d97/class_box_world.html#a55add11037cd6dc48556f2f42a9e11be" target="_top" xlink:title="BoxWorld.checkCollide">
<polygon fill="white" stroke="black" points="1632,-28.5 1632,-47.5 1754,-47.5 1754,-28.5 1632,-28.5"/>
<text text-anchor="middle" x="1693" y="-35.5" font-family="Helvetica,sans-Serif" font-size="10.00">BoxWorld.checkCollide</text>
</a>
</g>
</g>
<!-- Node28&#45;&gt;Node29 -->
<g id="edge31" class="edge"><title>Node28&#45;&gt;Node29</title>
<path fill="none" stroke="midnightblue" d="M633.947,-142.477C675.473,-115.078 802.716,-38 920,-38 920,-38 920,-38 1315,-38 1421.89,-38 1545.84,-38 1621.57,-38"/>
<polygon fill="midnightblue" stroke="midnightblue" points="1621.93,-41.5001 1631.93,-38 1621.93,-34.5001 1621.93,-41.5001"/>
</g>
<!-- Node30 -->
<g id="node30" class="node"><title>Node30</title>
<g id="a_node30"><a xlink:href="../../db/d97/class_box_world.html#a72bacb2a6757900d8835249929fcc838" target="_top" xlink:title="BoxWorld.loseGame">
<polygon fill="white" stroke="black" points="728,-294.5 728,-313.5 840,-313.5 840,-294.5 728,-294.5"/>
<text text-anchor="middle" x="784" y="-301.5" font-family="Helvetica,sans-Serif" font-size="10.00">BoxWorld.loseGame</text>
</a>
</g>
</g>
<!-- Node28&#45;&gt;Node30 -->
<g id="edge34" class="edge"><title>Node28&#45;&gt;Node30</title>
<path fill="none" stroke="midnightblue" d="M673.83,-161.584C680.275,-164.04 686.507,-167.125 692,-171 713.754,-186.347 753.456,-252.379 772.397,-285.255"/>
<polygon fill="midnightblue" stroke="midnightblue" points="769.566,-287.355 777.567,-294.301 775.644,-283.882 769.566,-287.355"/>
</g>
<!-- Node35 -->
<g id="node35" class="node"><title>Node35</title>
<g id="a_node35"><a xlink:href="../../db/d97/class_box_world.html#a167adb49603af3a303ee958011243b5f" target="_top" xlink:title="BoxWorld.onScreen">
<polygon fill="white" stroke="black" points="729.5,-180.5 729.5,-199.5 838.5,-199.5 838.5,-180.5 729.5,-180.5"/>
<text text-anchor="middle" x="784" y="-187.5" font-family="Helvetica,sans-Serif" font-size="10.00">BoxWorld.onScreen</text>
</a>
</g>
</g>
<!-- Node28&#45;&gt;Node35 -->
<g id="edge42" class="edge"><title>Node28&#45;&gt;Node35</title>
<path fill="none" stroke="midnightblue" d="M661.132,-161.589C682.738,-166.626 709.409,-172.844 732.286,-178.177"/>
<polygon fill="midnightblue" stroke="midnightblue" points="731.63,-181.618 742.164,-180.48 733.22,-174.801 731.63,-181.618"/>
</g>
<!-- Node29&#45;&gt;Node11 -->
<g id="edge32" class="edge"><title>Node29&#45;&gt;Node11</title>
<path fill="none" stroke="midnightblue" d="M1740.68,-47.589C1765.65,-52.7165 1796.56,-59.0672 1822.83,-64.4632"/>
<polygon fill="midnightblue" stroke="midnightblue" points="1822.15,-67.8962 1832.65,-66.4799 1823.56,-61.0394 1822.15,-67.8962"/>
</g>
<!-- Node29&#45;&gt;Node13 -->
<g id="edge33" class="edge"><title>Node29&#45;&gt;Node13</title>
<path fill="none" stroke="midnightblue" d="M1754.06,-38C1770.14,-38 1787.71,-38 1804.47,-38"/>
<polygon fill="midnightblue" stroke="midnightblue" points="1804.77,-41.5001 1814.77,-38 1804.77,-34.5001 1804.77,-41.5001"/>
</g>
<!-- Node31 -->
<g id="node31" class="node"><title>Node31</title>
<g id="a_node31"><a xlink:href="../../d4/d2f/class_lose_screen.html#a34f2cc2c803500316c9b8d854854d758" target="_top" xlink:title="LoseScreen.init">
<polygon fill="white" stroke="black" points="876,-294.5 876,-313.5 966,-313.5 966,-294.5 876,-294.5"/>
<text text-anchor="middle" x="921" y="-301.5" font-family="Helvetica,sans-Serif" font-size="10.00">LoseScreen.init</text>
</a>
</g>
</g>
<!-- Node30&#45;&gt;Node31 -->
<g id="edge35" class="edge"><title>Node30&#45;&gt;Node31</title>
<path fill="none" stroke="midnightblue" d="M840.299,-304C848.686,-304 857.332,-304 865.697,-304"/>
<polygon fill="midnightblue" stroke="midnightblue" points="865.724,-307.5 875.724,-304 865.724,-300.5 865.724,-307.5"/>
</g>
<!-- Node32 -->
<g id="node32" class="node"><title>Node32</title>
<g id="a_node32"><a xlink:href="../../d2/db8/class_menu.html#a3c99ad09e9f2f975c1a0d0597642651a" target="_top" xlink:title="Menu.init">
<polygon fill="white" stroke="black" points="1002,-294.5 1002,-313.5 1062,-313.5 1062,-294.5 1002,-294.5"/>
<text text-anchor="middle" x="1032" y="-301.5" font-family="Helvetica,sans-Serif" font-size="10.00">Menu.init</text>
</a>
</g>
</g>
<!-- Node31&#45;&gt;Node32 -->
<g id="edge36" class="edge"><title>Node31&#45;&gt;Node32</title>
<path fill="none" stroke="midnightblue" d="M966.02,-304C974.495,-304 983.322,-304 991.637,-304"/>
<polygon fill="midnightblue" stroke="midnightblue" points="991.833,-307.5 1001.83,-304 991.832,-300.5 991.833,-307.5"/>
</g>
<!-- Node33 -->
<g id="node33" class="node"><title>Node33</title>
<g id="a_node33"><a xlink:href="../../d2/db8/class_menu.html#a8a6e6125f0dc2dc7e19c6655ba6376a2" target="_top" xlink:title="Menu.addIntroText">
<polygon fill="white" stroke="black" points="1098,-294.5 1098,-313.5 1202,-313.5 1202,-294.5 1098,-294.5"/>
<text text-anchor="middle" x="1150" y="-301.5" font-family="Helvetica,sans-Serif" font-size="10.00">Menu.addIntroText</text>
</a>
</g>
</g>
<!-- Node32&#45;&gt;Node33 -->
<g id="edge37" class="edge"><title>Node32&#45;&gt;Node33</title>
<path fill="none" stroke="midnightblue" d="M1062.27,-304C1069.99,-304 1078.62,-304 1087.35,-304"/>
<polygon fill="midnightblue" stroke="midnightblue" points="1087.61,-307.5 1097.61,-304 1087.61,-300.5 1087.61,-307.5"/>
</g>
<!-- Node34 -->
<g id="node34" class="node"><title>Node34</title>
<g id="a_node34"><a xlink:href="../../db/d97/class_box_world.html#a55bf92d3f466bfaade0f6d199d8c9bd9" target="_top" xlink:title="BoxWorld.init">
<polygon fill="white" stroke="black" points="1111.5,-370.5 1111.5,-389.5 1188.5,-389.5 1188.5,-370.5 1111.5,-370.5"/>
<text text-anchor="middle" x="1150" y="-377.5" font-family="Helvetica,sans-Serif" font-size="10.00">BoxWorld.init</text>
</a>
</g>
</g>
<!-- Node32&#45;&gt;Node34 -->
<g id="edge38" class="edge"><title>Node32&#45;&gt;Node34</title>
<path fill="none" stroke="midnightblue" d="M1047.69,-313.625C1067.39,-326.531 1102.57,-349.582 1125.85,-364.833"/>
<polygon fill="midnightblue" stroke="midnightblue" points="1124.15,-367.9 1134.43,-370.453 1127.98,-362.045 1124.15,-367.9"/>
</g>
<!-- Node34&#45;&gt;Node6 -->
<g id="edge39" class="edge"><title>Node34&#45;&gt;Node6</title>
<path fill="none" stroke="midnightblue" d="M1165.95,-389.598C1194.16,-407.707 1255.44,-447.048 1289.31,-468.792"/>
<polygon fill="midnightblue" stroke="midnightblue" points="1287.78,-471.968 1298.09,-474.426 1291.56,-466.078 1287.78,-471.968"/>
</g>
<!-- Node34&#45;&gt;Node8 -->
<g id="edge40" class="edge"><title>Node34&#45;&gt;Node8</title>
<path fill="none" stroke="midnightblue" d="M1167.42,-370.368C1195.81,-353.725 1254.2,-319.48 1287.77,-299.796"/>
<polygon fill="midnightblue" stroke="midnightblue" points="1289.68,-302.735 1296.53,-294.657 1286.13,-296.697 1289.68,-302.735"/>
</g>
<!-- Node34&#45;&gt;Node26 -->
<g id="edge41" class="edge"><title>Node34&#45;&gt;Node26</title>
<path fill="none" stroke="midnightblue" d="M1111.24,-380C1066.2,-380 988.602,-380 922,-380 618,-380 618,-380 618,-380 481.316,-380 453.154,-425.136 320,-456 307.47,-458.904 293.922,-461.842 281.205,-464.51"/>
<polygon fill="midnightblue" stroke="midnightblue" points="280.297,-461.124 271.219,-466.587 281.722,-467.977 280.297,-461.124"/>
</g>
</g>
</svg>
