<?xml version="1.0" encoding="UTF-8" standalone="no"?>
<!DOCTYPE svg PUBLIC "-//W3C//DTD SVG 1.1//EN"
 "http://www.w3.org/Graphics/SVG/1.1/DTD/svg11.dtd">
<!-- Generated by graphviz version 2.36.0 (20140111.2315)
 -->
<!-- Title: ItemBoxWorld.loseGame Pages: 1 -->
<!--zoomable 360 -->
<svg id="main" version="1.1" xmlns="http://www.w3.org/2000/svg" xmlns:xlink="http://www.w3.org/1999/xlink" xml:space="preserve" onload="init(evt)">
<style type="text/css"><![CDATA[
.edge:hover path { stroke: red; }
.edge:hover polygon { stroke: red; fill: red; }
]]></style>
<script type="text/javascript"><![CDATA[
var edges = document.getElementsByTagName('g');
if (edges && edges.length) {
  for (var i=0;i<edges.length;i++) {
    if (edges[i].id.substr(0,4)=='edge') {
      edges[i].setAttribute('class','edge');
    }
  }
}
]]></script>
        <defs>
                <circle id="rim" cx="0" cy="0" r="7"/>
                <circle id="rim2" cx="0" cy="0" r="3.5"/>
                <g id="zoomPlus">
                        <use xlink:href="#rim" fill="#404040">
                                <set attributeName="fill" to="#808080" begin="zoomplus.mouseover" end="zoomplus.mouseout"/>
                        </use>
                        <path d="M-4,0h8M0,-4v8" fill="none" stroke="white" stroke-width="1.5" pointer-events="none"/>
                </g>
                <g id="zoomMin">
                        <use xlink:href="#rim" fill="#404040">
                                <set attributeName="fill" to="#808080" begin="zoomminus.mouseover" end="zoomminus.mouseout"/>
                        </use>
                        <path d="M-4,0h8" fill="none" stroke="white" stroke-width="1.5" pointer-events="none"/>
                </g>
                <g id="dirArrow">
                        <path fill="none" stroke="white" stroke-width="1.5" d="M0,-3.0v7 M-2.5,-0.5L0,-3.0L2.5,-0.5"/>
                </g>
               <g id="resetDef">
                       <use xlink:href="#rim2" fill="#404040">
                               <set attributeName="fill" to="#808080" begin="reset.mouseover" end="reset.mouseout"/>
                       </use>
               </g>
        </defs>

<script type="text/javascript">
var viewWidth = 2054;
var viewHeight = 360;
var sectionId = 'dynsection-9';
</script>
<script xlink:href="../../svgpan.js"/>
<svg id="graph" class="graph">
<g id="viewport">
<title>ItemBoxWorld.loseGame</title>
<polygon fill="white" stroke="none" points="-4,4 -4,-356 2050,-356 2050,4 -4,4"/>
<!-- Node1 -->
<g id="node1" class="node"><title>Node1</title>
<polygon fill="#bfbfbf" stroke="black" points="0,-51.5 0,-70.5 134,-70.5 134,-51.5 0,-51.5"/>
<text text-anchor="middle" x="67" y="-58.5" font-family="Helvetica,sans-Serif" font-size="10.00">ItemBoxWorld.loseGame</text>
</g>
<!-- Node2 -->
<g id="node2" class="node"><title>Node2</title>
<g id="a_node2"><a xlink:href="../../d4/d2f/class_lose_screen.html#a34f2cc2c803500316c9b8d854854d758" target="_top" xlink:title="LoseScreen.init">
<polygon fill="white" stroke="black" points="170,-51.5 170,-70.5 260,-70.5 260,-51.5 170,-51.5"/>
<text text-anchor="middle" x="215" y="-58.5" font-family="Helvetica,sans-Serif" font-size="10.00">LoseScreen.init</text>
</a>
</g>
</g>
<!-- Node1&#45;&gt;Node2 -->
<g id="edge1" class="edge"><title>Node1&#45;&gt;Node2</title>
<path fill="none" stroke="midnightblue" d="M134.165,-61C142.653,-61 151.265,-61 159.538,-61"/>
<polygon fill="midnightblue" stroke="midnightblue" points="159.799,-64.5001 169.799,-61 159.799,-57.5001 159.799,-64.5001"/>
</g>
<!-- Node3 -->
<g id="node3" class="node"><title>Node3</title>
<g id="a_node3"><a xlink:href="../../d2/db8/class_menu.html#a3c99ad09e9f2f975c1a0d0597642651a" target="_top" xlink:title="Menu.init">
<polygon fill="white" stroke="black" points="296,-113.5 296,-132.5 356,-132.5 356,-113.5 296,-113.5"/>
<text text-anchor="middle" x="326" y="-120.5" font-family="Helvetica,sans-Serif" font-size="10.00">Menu.init</text>
</a>
</g>
</g>
<!-- Node2&#45;&gt;Node3 -->
<g id="edge2" class="edge"><title>Node2&#45;&gt;Node3</title>
<path fill="none" stroke="midnightblue" d="M233.031,-70.6875C250.789,-80.7882 278.833,-96.7399 299.288,-108.375"/>
<polygon fill="midnightblue" stroke="midnightblue" points="297.666,-111.479 308.088,-113.381 301.127,-105.394 297.666,-111.479"/>
</g>
<!-- Node4 -->
<g id="node4" class="node"><title>Node4</title>
<g id="a_node4"><a xlink:href="../../d2/db8/class_menu.html#a8a6e6125f0dc2dc7e19c6655ba6376a2" target="_top" xlink:title="Menu.addIntroText">
<polygon fill="white" stroke="black" points="392,-113.5 392,-132.5 496,-132.5 496,-113.5 392,-113.5"/>
<text text-anchor="middle" x="444" y="-120.5" font-family="Helvetica,sans-Serif" font-size="10.00">Menu.addIntroText</text>
</a>
</g>
</g>
<!-- Node3&#45;&gt;Node4 -->
<g id="edge3" class="edge"><title>Node3&#45;&gt;Node4</title>
<path fill="none" stroke="midnightblue" d="M356.272,-123C363.99,-123 372.617,-123 381.354,-123"/>
<polygon fill="midnightblue" stroke="midnightblue" points="381.614,-126.5 391.614,-123 381.614,-119.5 381.614,-126.5"/>
</g>
<!-- Node5 -->
<g id="node5" class="node"><title>Node5</title>
<g id="a_node5"><a xlink:href="../../db/d97/class_box_world.html#a55bf92d3f466bfaade0f6d199d8c9bd9" target="_top" xlink:title="BoxWorld.init">
<polygon fill="white" stroke="black" points="405.5,-237.5 405.5,-256.5 482.5,-256.5 482.5,-237.5 405.5,-237.5"/>
<text text-anchor="middle" x="444" y="-244.5" font-family="Helvetica,sans-Serif" font-size="10.00">BoxWorld.init</text>
</a>
</g>
</g>
<!-- Node3&#45;&gt;Node5 -->
<g id="edge4" class="edge"><title>Node3&#45;&gt;Node5</title>
<path fill="none" stroke="midnightblue" d="M336.102,-132.73C355.754,-153.737 402.366,-203.564 427.041,-229.94"/>
<polygon fill="midnightblue" stroke="midnightblue" points="424.552,-232.403 433.94,-237.315 429.664,-227.621 424.552,-232.403"/>
</g>
<!-- Node6 -->
<g id="node6" class="node"><title>Node6</title>
<g id="a_node6"><a xlink:href="../../db/d97/class_box_world.html#a69798621c944e846f045aaf3937505f9" target="_top" xlink:title="BoxWorld.addStarterObjects">
<polygon fill="white" stroke="black" points="1154.5,-256.5 1154.5,-275.5 1305.5,-275.5 1305.5,-256.5 1154.5,-256.5"/>
<text text-anchor="middle" x="1230" y="-263.5" font-family="Helvetica,sans-Serif" font-size="10.00">BoxWorld.addStarterObjects</text>
</a>
</g>
</g>
<!-- Node5&#45;&gt;Node6 -->
<g id="edge5" class="edge"><title>Node5&#45;&gt;Node6</title>
<path fill="none" stroke="midnightblue" d="M482.516,-250.663C542.39,-256.185 663.279,-266 766,-266 766,-266 766,-266 931,-266 1002.89,-266 1084.54,-266 1144.17,-266"/>
<polygon fill="midnightblue" stroke="midnightblue" points="1144.29,-269.5 1154.29,-266 1144.29,-262.5 1144.29,-269.5"/>
</g>
<!-- Node8 -->
<g id="node8" class="node"><title>Node8</title>
<g id="a_node8"><a xlink:href="../../db/d97/class_box_world.html#a726e747e023543658d7a345cc6466ccb" target="_top" xlink:title="BoxWorld.createScene">
<polygon fill="white" stroke="black" points="532,-199.5 532,-218.5 656,-218.5 656,-199.5 532,-199.5"/>
<text text-anchor="middle" x="594" y="-206.5" font-family="Helvetica,sans-Serif" font-size="10.00">BoxWorld.createScene</text>
</a>
</g>
</g>
<!-- Node5&#45;&gt;Node8 -->
<g id="edge7" class="edge"><title>Node5&#45;&gt;Node8</title>
<path fill="none" stroke="midnightblue" d="M482.347,-237.411C501.701,-232.442 525.53,-226.323 546.113,-221.039"/>
<polygon fill="midnightblue" stroke="midnightblue" points="547.107,-224.397 555.922,-218.52 545.366,-217.617 547.107,-224.397"/>
</g>
<!-- Node23 -->
<g id="node23" class="node"><title>Node23</title>
<g id="a_node23"><a xlink:href="../../db/d97/class_box_world.html#ad20a4e43406c44f4bbf201d1d1028998" target="_top" xlink:title="BoxWorld.start">
<polygon fill="white" stroke="black" points="1187,-294.5 1187,-313.5 1273,-313.5 1273,-294.5 1187,-294.5"/>
<text text-anchor="middle" x="1230" y="-301.5" font-family="Helvetica,sans-Serif" font-size="10.00">BoxWorld.start</text>
</a>
</g>
</g>
<!-- Node5&#45;&gt;Node23 -->
<g id="edge42" class="edge"><title>Node5&#45;&gt;Node23</title>
<path fill="none" stroke="midnightblue" d="M472.917,-256.575C489.839,-262.069 511.961,-268.707 532,-273 634.581,-294.978 661.091,-304 766,-304 766,-304 766,-304 931,-304 1016.9,-304 1116.72,-304 1176.28,-304"/>
<polygon fill="midnightblue" stroke="midnightblue" points="1176.56,-307.5 1186.56,-304 1176.56,-300.5 1176.56,-307.5"/>
</g>
<!-- Node7 -->
<g id="node7" class="node"><title>Node7</title>
<g id="a_node7"><a xlink:href="../../db/d97/class_box_world.html#a2542cc74ebeba6a9768a443a55186901" target="_top" xlink:title="BoxWorld.createObstacleArray">
<polygon fill="white" stroke="black" points="1342.5,-256.5 1342.5,-275.5 1503.5,-275.5 1503.5,-256.5 1342.5,-256.5"/>
<text text-anchor="middle" x="1423" y="-263.5" font-family="Helvetica,sans-Serif" font-size="10.00">BoxWorld.createObstacleArray</text>
</a>
</g>
</g>
<!-- Node6&#45;&gt;Node7 -->
<g id="edge6" class="edge"><title>Node6&#45;&gt;Node7</title>
<path fill="none" stroke="midnightblue" d="M1305.67,-266C1314.41,-266 1323.4,-266 1332.31,-266"/>
<polygon fill="midnightblue" stroke="midnightblue" points="1332.34,-269.5 1342.34,-266 1332.34,-262.5 1332.34,-269.5"/>
</g>
<!-- Node9 -->
<g id="node9" class="node"><title>Node9</title>
<g id="a_node9"><a xlink:href="../../db/d97/class_box_world.html#aa7e2049d7be23e15fd2ec7fa2922ed79" target="_top" xlink:title="BoxWorld.handleKeyInput">
<polygon fill="white" stroke="black" points="699,-104.5 699,-123.5 835,-123.5 835,-104.5 699,-104.5"/>
<text text-anchor="middle" x="767" y="-111.5" font-family="Helvetica,sans-Serif" font-size="10.00">BoxWorld.handleKeyInput</text>
</a>
</g>
</g>
<!-- Node8&#45;&gt;Node9 -->
<g id="edge8" class="edge"><title>Node8&#45;&gt;Node9</title>
<path fill="none" stroke="midnightblue" d="M612.337,-199.368C642.502,-182.61 704.785,-148.008 740.094,-128.392"/>
<polygon fill="midnightblue" stroke="midnightblue" points="741.829,-131.432 748.871,-123.516 738.43,-125.313 741.829,-131.432"/>
</g>
<!-- Node31 -->
<g id="node31" class="node"><title>Node31</title>
<g id="a_node31"><a xlink:href="../../db/d97/class_box_world.html#a2d44485a181577acb4d79b6b81f26fff" target="_top" xlink:title="BoxWorld.handleKeyRelease">
<polygon fill="white" stroke="black" points="692.5,-218.5 692.5,-237.5 841.5,-237.5 841.5,-218.5 692.5,-218.5"/>
<text text-anchor="middle" x="767" y="-225.5" font-family="Helvetica,sans-Serif" font-size="10.00">BoxWorld.handleKeyRelease</text>
</a>
</g>
</g>
<!-- Node8&#45;&gt;Node31 -->
<g id="edge41" class="edge"><title>Node8&#45;&gt;Node31</title>
<path fill="none" stroke="midnightblue" d="M656.252,-215.806C664.655,-216.739 673.399,-217.711 682.121,-218.68"/>
<polygon fill="midnightblue" stroke="midnightblue" points="682.002,-222.188 692.327,-219.814 682.775,-215.231 682.002,-222.188"/>
</g>
<!-- Node10 -->
<g id="node10" class="node"><title>Node10</title>
<g id="a_node10"><a xlink:href="../../db/d97/class_box_world.html#adc4c9d78ffde3d052c4c92047eb98e55" target="_top" xlink:title="BoxWorld.allowMovement">
<polygon fill="white" stroke="black" points="1740.5,-142.5 1740.5,-161.5 1877.5,-161.5 1877.5,-142.5 1740.5,-142.5"/>
<text text-anchor="middle" x="1809" y="-149.5" font-family="Helvetica,sans-Serif" font-size="10.00">BoxWorld.allowMovement</text>
</a>
</g>
</g>
<!-- Node9&#45;&gt;Node10 -->
<g id="edge9" class="edge"><title>Node9&#45;&gt;Node10</title>
<path fill="none" stroke="midnightblue" d="M790.016,-104.375C838.862,-83.924 960.415,-38 1067,-38 1067,-38 1067,-38 1424,-38 1551,-38 1584.75,-51.3223 1704,-95 1733.51,-105.808 1764.8,-123.989 1785.26,-136.91"/>
<polygon fill="midnightblue" stroke="midnightblue" points="1783.54,-139.97 1793.85,-142.431 1787.33,-134.081 1783.54,-139.97"/>
</g>
<!-- Node15 -->
<g id="node15" class="node"><title>Node15</title>
<g id="a_node15"><a xlink:href="../../db/d97/class_box_world.html#a04c6bf977c4292a5433649fb3745fd6b" target="_top" xlink:title="BoxWorld.reset">
<polygon fill="white" stroke="black" points="1379,-104.5 1379,-123.5 1467,-123.5 1467,-104.5 1379,-104.5"/>
<text text-anchor="middle" x="1423" y="-111.5" font-family="Helvetica,sans-Serif" font-size="10.00">BoxWorld.reset</text>
</a>
</g>
</g>
<!-- Node9&#45;&gt;Node15 -->
<g id="edge14" class="edge"><title>Node9&#45;&gt;Node15</title>
<path fill="none" stroke="midnightblue" d="M835.221,-114C965.58,-114 1250.3,-114 1368.7,-114"/>
<polygon fill="midnightblue" stroke="midnightblue" points="1368.96,-117.5 1378.96,-114 1368.96,-110.5 1368.96,-117.5"/>
</g>
<!-- Node16 -->
<g id="node16" class="node"><title>Node16</title>
<g id="a_node16"><a xlink:href="../../da/de2/class_sticky_box.html#aa1bb8f78f676b01c688d75d386758444" target="_top" xlink:title="StickyBox.setDirection">
<polygon fill="white" stroke="black" points="1560,-104.5 1560,-123.5 1684,-123.5 1684,-104.5 1560,-104.5"/>
<text text-anchor="middle" x="1622" y="-111.5" font-family="Helvetica,sans-Serif" font-size="10.00">StickyBox.setDirection</text>
</a>
</g>
</g>
<!-- Node9&#45;&gt;Node16 -->
<g id="edge17" class="edge"><title>Node9&#45;&gt;Node16</title>
<path fill="none" stroke="midnightblue" d="M814.124,-104.46C872.66,-93.2037 976.866,-76 1067,-76 1067,-76 1067,-76 1231,-76 1352.63,-76 1383.18,-81.0152 1504,-95 1521.77,-97.0571 1540.97,-99.9082 1558.57,-102.777"/>
<polygon fill="midnightblue" stroke="midnightblue" points="1558.29,-106.278 1568.72,-104.462 1559.43,-99.3723 1558.29,-106.278"/>
</g>
<!-- Node18 -->
<g id="node18" class="node"><title>Node18</title>
<g id="a_node18"><a xlink:href="../../db/d97/class_box_world.html#aad670712776afe126e51791097027e05" target="_top" xlink:title="BoxWorld.winLevel">
<polygon fill="white" stroke="black" points="878.5,-142.5 878.5,-161.5 981.5,-161.5 981.5,-142.5 878.5,-142.5"/>
<text text-anchor="middle" x="930" y="-149.5" font-family="Helvetica,sans-Serif" font-size="10.00">BoxWorld.winLevel</text>
</a>
</g>
</g>
<!-- Node9&#45;&gt;Node18 -->
<g id="edge18" class="edge"><title>Node9&#45;&gt;Node18</title>
<path fill="none" stroke="midnightblue" d="M808.627,-123.589C829.968,-128.626 856.312,-134.844 878.908,-140.177"/>
<polygon fill="midnightblue" stroke="midnightblue" points="878.128,-143.589 888.665,-142.48 879.736,-136.776 878.128,-143.589"/>
</g>
<!-- Node11 -->
<g id="node11" class="node"><title>Node11</title>
<g id="a_node11"><a xlink:href="../../da/de2/class_sticky_box.html#a6ba3f89630df9d81df5644a3e5f4e387" target="_top" xlink:title="StickyBox.getXDirection">
<polygon fill="white" stroke="black" points="1914.5,-246.5 1914.5,-265.5 2045.5,-265.5 2045.5,-246.5 1914.5,-246.5"/>
<text text-anchor="middle" x="1980" y="-253.5" font-family="Helvetica,sans-Serif" font-size="10.00">StickyBox.getXDirection</text>
</a>
</g>
</g>
<!-- Node10&#45;&gt;Node11 -->
<g id="edge10" class="edge"><title>Node10&#45;&gt;Node11</title>
<path fill="none" stroke="midnightblue" d="M1861.57,-161.552C1867.47,-164.013 1873.11,-167.108 1878,-171 1904.15,-191.8 1887.98,-216.044 1914,-237 1916.28,-238.832 1918.72,-240.487 1921.28,-241.983"/>
<polygon fill="midnightblue" stroke="midnightblue" points="1919.85,-245.177 1930.36,-246.478 1922.95,-238.904 1919.85,-245.177"/>
</g>
<!-- Node12 -->
<g id="node12" class="node"><title>Node12</title>
<g id="a_node12"><a xlink:href="../../da/de2/class_sticky_box.html#ab0bd7cafb7f243e3951558ddb8728b96" target="_top" xlink:title="StickyBox.getXPrev">
<polygon fill="white" stroke="black" points="1925.5,-113.5 1925.5,-132.5 2034.5,-132.5 2034.5,-113.5 1925.5,-113.5"/>
<text text-anchor="middle" x="1980" y="-120.5" font-family="Helvetica,sans-Serif" font-size="10.00">StickyBox.getXPrev</text>
</a>
</g>
</g>
<!-- Node10&#45;&gt;Node12 -->
<g id="edge11" class="edge"><title>Node10&#45;&gt;Node12</title>
<path fill="none" stroke="midnightblue" d="M1865.81,-142.424C1881.65,-139.705 1899.02,-136.724 1915.3,-133.932"/>
<polygon fill="midnightblue" stroke="midnightblue" points="1916,-137.362 1925.26,-132.221 1914.82,-130.463 1916,-137.362"/>
</g>
<!-- Node13 -->
<g id="node13" class="node"><title>Node13</title>
<g id="a_node13"><a xlink:href="../../da/de2/class_sticky_box.html#a69e5ccf2a79159c03dea2e048df13318" target="_top" xlink:title="StickyBox.getYDirection">
<polygon fill="white" stroke="black" points="1915,-208.5 1915,-227.5 2045,-227.5 2045,-208.5 1915,-208.5"/>
<text text-anchor="middle" x="1980" y="-215.5" font-family="Helvetica,sans-Serif" font-size="10.00">StickyBox.getYDirection</text>
</a>
</g>
</g>
<!-- Node10&#45;&gt;Node13 -->
<g id="edge12" class="edge"><title>Node10&#45;&gt;Node13</title>
<path fill="none" stroke="midnightblue" d="M1848.47,-161.572C1858.21,-164.314 1868.57,-167.516 1878,-171 1903.57,-180.449 1931.6,-193.739 1951.63,-203.777"/>
<polygon fill="midnightblue" stroke="midnightblue" points="1950.27,-207.013 1960.77,-208.413 1953.43,-200.77 1950.27,-207.013"/>
</g>
<!-- Node14 -->
<g id="node14" class="node"><title>Node14</title>
<g id="a_node14"><a xlink:href="../../da/de2/class_sticky_box.html#a4c6abed944faed9d9b226079e99cfc24" target="_top" xlink:title="StickyBox.getYPrev">
<polygon fill="white" stroke="black" points="1926,-151.5 1926,-170.5 2034,-170.5 2034,-151.5 1926,-151.5"/>
<text text-anchor="middle" x="1980" y="-158.5" font-family="Helvetica,sans-Serif" font-size="10.00">StickyBox.getYPrev</text>
</a>
</g>
</g>
<!-- Node10&#45;&gt;Node14 -->
<g id="edge13" class="edge"><title>Node10&#45;&gt;Node14</title>
<path fill="none" stroke="midnightblue" d="M1877.76,-155.609C1890.25,-156.274 1903.24,-156.965 1915.59,-157.623"/>
<polygon fill="midnightblue" stroke="midnightblue" points="1915.61,-161.129 1925.78,-158.166 1915.98,-154.139 1915.61,-161.129"/>
</g>
<!-- Node15&#45;&gt;Node16 -->
<g id="edge15" class="edge"><title>Node15&#45;&gt;Node16</title>
<path fill="none" stroke="midnightblue" d="M1467.23,-114C1491.44,-114 1522.24,-114 1549.9,-114"/>
<polygon fill="midnightblue" stroke="midnightblue" points="1549.93,-117.5 1559.93,-114 1549.93,-110.5 1549.93,-117.5"/>
</g>
<!-- Node17 -->
<g id="node17" class="node"><title>Node17</title>
<g id="a_node17"><a xlink:href="../../da/de2/class_sticky_box.html#a5d95d2ed2e13f0d87a44311db77f9e36" target="_top" xlink:title="StickyBox.setPreviousDirection">
<polygon fill="white" stroke="black" points="1540,-142.5 1540,-161.5 1704,-161.5 1704,-142.5 1540,-142.5"/>
<text text-anchor="middle" x="1622" y="-149.5" font-family="Helvetica,sans-Serif" font-size="10.00">StickyBox.setPreviousDirection</text>
</a>
</g>
</g>
<!-- Node15&#45;&gt;Node17 -->
<g id="edge16" class="edge"><title>Node15&#45;&gt;Node17</title>
<path fill="none" stroke="midnightblue" d="M1467.23,-122.339C1494.91,-127.678 1531.2,-134.678 1561.57,-140.536"/>
<polygon fill="midnightblue" stroke="midnightblue" points="1561.14,-144.018 1571.62,-142.475 1562.47,-137.145 1561.14,-144.018"/>
</g>
<!-- Node19 -->
<g id="node19" class="node"><title>Node19</title>
<g id="a_node19"><a xlink:href="../../d6/d4f/class_item_box_world.html#aa559fc2680327b41fb376e2eda8e82e3" target="_top" xlink:title="ItemBoxWorld.init">
<polygon fill="white" stroke="black" points="1018.5,-199.5 1018.5,-218.5 1117.5,-218.5 1117.5,-199.5 1018.5,-199.5"/>
<text text-anchor="middle" x="1068" y="-206.5" font-family="Helvetica,sans-Serif" font-size="10.00">ItemBoxWorld.init</text>
</a>
</g>
</g>
<!-- Node18&#45;&gt;Node19 -->
<g id="edge19" class="edge"><title>Node18&#45;&gt;Node19</title>
<path fill="none" stroke="midnightblue" d="M953.763,-161.541C975.926,-170.829 1009.82,-185.036 1034.76,-195.486"/>
<polygon fill="midnightblue" stroke="midnightblue" points="1033.59,-198.791 1044.16,-199.428 1036.29,-192.335 1033.59,-198.791"/>
</g>
<!-- Node19&#45;&gt;Node6 -->
<g id="edge23" class="edge"><title>Node19&#45;&gt;Node6</title>
<path fill="none" stroke="midnightblue" d="M1095.78,-218.541C1122.32,-227.994 1163.15,-242.54 1192.61,-253.037"/>
<polygon fill="midnightblue" stroke="midnightblue" points="1191.54,-256.369 1202.13,-256.428 1193.89,-249.775 1191.54,-256.369"/>
</g>
<!-- Node19&#45;&gt;Node8 -->
<g id="edge24" class="edge"><title>Node19&#45;&gt;Node8</title>
<path fill="none" stroke="midnightblue" d="M1018.41,-209C934.803,-209 763.376,-209 666.247,-209"/>
<polygon fill="midnightblue" stroke="midnightblue" points="666.222,-205.5 656.222,-209 666.222,-212.5 666.222,-205.5"/>
</g>
<!-- Node20 -->
<g id="node20" class="node"><title>Node20</title>
<g id="a_node20"><a xlink:href="../../d6/d4f/class_item_box_world.html#a7ead15fd9fd8095f928640161d48fdf8" target="_top" xlink:title="ItemBoxWorld.addAllItems">
<polygon fill="white" stroke="black" points="1159.5,-199.5 1159.5,-218.5 1300.5,-218.5 1300.5,-199.5 1159.5,-199.5"/>
<text text-anchor="middle" x="1230" y="-206.5" font-family="Helvetica,sans-Serif" font-size="10.00">ItemBoxWorld.addAllItems</text>
</a>
</g>
</g>
<!-- Node19&#45;&gt;Node20 -->
<g id="edge20" class="edge"><title>Node19&#45;&gt;Node20</title>
<path fill="none" stroke="midnightblue" d="M1117.87,-209C1127.76,-209 1138.41,-209 1149.05,-209"/>
<polygon fill="midnightblue" stroke="midnightblue" points="1149.22,-212.5 1159.22,-209 1149.22,-205.5 1149.22,-212.5"/>
</g>
<!-- Node19&#45;&gt;Node23 -->
<g id="edge25" class="edge"><title>Node19&#45;&gt;Node23</title>
<path fill="none" stroke="midnightblue" d="M1076.85,-218.539C1090.7,-234.728 1121.14,-267.524 1154,-285 1161.17,-288.812 1169.13,-291.883 1177.11,-294.35"/>
<polygon fill="midnightblue" stroke="midnightblue" points="1176.23,-297.739 1186.81,-297.07 1178.12,-290.999 1176.23,-297.739"/>
</g>
<!-- Node21 -->
<g id="node21" class="node"><title>Node21</title>
<g id="a_node21"><a xlink:href="../../d6/d4f/class_item_box_world.html#af1bcde0672796e926560684004ed8e81" target="_top" xlink:title="ItemBoxWorld.addSingleItem">
<polygon fill="white" stroke="black" points="1346,-218.5 1346,-237.5 1500,-237.5 1500,-218.5 1346,-218.5"/>
<text text-anchor="middle" x="1423" y="-225.5" font-family="Helvetica,sans-Serif" font-size="10.00">ItemBoxWorld.addSingleItem</text>
</a>
</g>
</g>
<!-- Node20&#45;&gt;Node21 -->
<g id="edge21" class="edge"><title>Node20&#45;&gt;Node21</title>
<path fill="none" stroke="midnightblue" d="M1300.77,-215.94C1312.14,-217.072 1324.04,-218.255 1335.75,-219.421"/>
<polygon fill="midnightblue" stroke="midnightblue" points="1335.68,-222.931 1345.98,-220.438 1336.38,-215.965 1335.68,-222.931"/>
</g>
<!-- Node22 -->
<g id="node22" class="node"><title>Node22</title>
<g id="a_node22"><a xlink:href="../../d6/d4f/class_item_box_world.html#a1890e6c53a4a73e44e9528009fde508d" target="_top" xlink:title="ItemBoxWorld.itemExists">
<polygon fill="white" stroke="black" points="1356,-180.5 1356,-199.5 1490,-199.5 1490,-180.5 1356,-180.5"/>
<text text-anchor="middle" x="1423" y="-187.5" font-family="Helvetica,sans-Serif" font-size="10.00">ItemBoxWorld.itemExists</text>
</a>
</g>
</g>
<!-- Node20&#45;&gt;Node22 -->
<g id="edge22" class="edge"><title>Node20&#45;&gt;Node22</title>
<path fill="none" stroke="midnightblue" d="M1300.77,-202.06C1315.4,-200.604 1330.9,-199.062 1345.76,-197.584"/>
<polygon fill="midnightblue" stroke="midnightblue" points="1346.32,-201.046 1355.92,-196.573 1345.62,-194.081 1346.32,-201.046"/>
</g>
<!-- Node24 -->
<g id="node24" class="node"><title>Node24</title>
<g id="a_node24"><a xlink:href="../../db/d97/class_box_world.html#a6794c083c2a0263c2f585f4ae4b7e39c" target="_top" xlink:title="BoxWorld.updateSprites">
<polygon fill="white" stroke="black" points="1357.5,-294.5 1357.5,-313.5 1488.5,-313.5 1488.5,-294.5 1357.5,-294.5"/>
<text text-anchor="middle" x="1423" y="-301.5" font-family="Helvetica,sans-Serif" font-size="10.00">BoxWorld.updateSprites</text>
</a>
</g>
</g>
<!-- Node23&#45;&gt;Node24 -->
<g id="edge26" class="edge"><title>Node23&#45;&gt;Node24</title>
<path fill="none" stroke="midnightblue" d="M1273.39,-304C1295.03,-304 1322,-304 1347,-304"/>
<polygon fill="midnightblue" stroke="midnightblue" points="1347.2,-307.5 1357.2,-304 1347.2,-300.5 1347.2,-307.5"/>
</g>
<!-- Node24&#45;&gt;Node11 -->
<g id="edge35" class="edge"><title>Node24&#45;&gt;Node11</title>
<path fill="none" stroke="midnightblue" d="M1488.64,-304.238C1577.02,-303.733 1740.31,-299.833 1878,-280 1897.09,-277.251 1917.86,-272.607 1935.58,-268.132"/>
<polygon fill="midnightblue" stroke="midnightblue" points="1936.82,-271.427 1945.63,-265.533 1935.07,-264.65 1936.82,-271.427"/>
</g>
<!-- Node24&#45;&gt;Node13 -->
<g id="edge36" class="edge"><title>Node24&#45;&gt;Node13</title>
<path fill="none" stroke="midnightblue" d="M1488.88,-297.108C1595.97,-285.52 1805.14,-261.94 1878,-247 1881.08,-246.368 1910.14,-238.004 1936.31,-230.42"/>
<polygon fill="midnightblue" stroke="midnightblue" points="1937.5,-233.718 1946.13,-227.57 1935.55,-226.995 1937.5,-233.718"/>
</g>
<!-- Node24&#45;&gt;Node16 -->
<g id="edge38" class="edge"><title>Node24&#45;&gt;Node16</title>
<path fill="none" stroke="midnightblue" d="M1488.59,-295.631C1494.28,-292.92 1499.56,-289.443 1504,-285 1553.08,-235.894 1490.86,-182.038 1540,-133 1543.11,-129.901 1546.61,-127.27 1550.39,-125.039"/>
<polygon fill="midnightblue" stroke="midnightblue" points="1552.16,-128.068 1559.6,-120.53 1549.08,-121.781 1552.16,-128.068"/>
</g>
<!-- Node24&#45;&gt;Node17 -->
<g id="edge39" class="edge"><title>Node24&#45;&gt;Node17</title>
<path fill="none" stroke="midnightblue" d="M1488.65,-295.109C1494.26,-292.492 1499.5,-289.18 1504,-285 1542.91,-248.82 1501.04,-207.126 1540,-171 1541.68,-169.444 1543.46,-168.008 1545.32,-166.683"/>
<polygon fill="midnightblue" stroke="midnightblue" points="1547.15,-169.666 1553.97,-161.555 1543.58,-163.645 1547.15,-169.666"/>
</g>
<!-- Node25 -->
<g id="node25" class="node"><title>Node25</title>
<g id="a_node25"><a xlink:href="../../db/d97/class_box_world.html#a4079bed8937c9f621decfbe1309e31e2" target="_top" xlink:title="BoxWorld.checkAllCollisions">
<polygon fill="white" stroke="black" points="1549,-180.5 1549,-199.5 1695,-199.5 1695,-180.5 1549,-180.5"/>
<text text-anchor="middle" x="1622" y="-187.5" font-family="Helvetica,sans-Serif" font-size="10.00">BoxWorld.checkAllCollisions</text>
</a>
</g>
</g>
<!-- Node24&#45;&gt;Node25 -->
<g id="edge27" class="edge"><title>Node24&#45;&gt;Node25</title>
<path fill="none" stroke="midnightblue" d="M1488.08,-294.452C1493.81,-291.965 1499.23,-288.864 1504,-285 1533.04,-261.475 1510.92,-232.484 1540,-209 1542.06,-207.332 1544.25,-205.806 1546.53,-204.41"/>
<polygon fill="midnightblue" stroke="midnightblue" points="1548.45,-207.354 1555.72,-199.643 1545.23,-201.14 1548.45,-207.354"/>
</g>
<!-- Node29 -->
<g id="node29" class="node"><title>Node29</title>
<g id="a_node29"><a xlink:href="../../da/de2/class_sticky_box.html#a185ee469367b376e6c5969a03d089d57" target="_top" xlink:title="StickyBox.move">
<polygon fill="white" stroke="black" points="1575.5,-218.5 1575.5,-237.5 1668.5,-237.5 1668.5,-218.5 1575.5,-218.5"/>
<text text-anchor="middle" x="1622" y="-225.5" font-family="Helvetica,sans-Serif" font-size="10.00">StickyBox.move</text>
</a>
</g>
</g>
<!-- Node24&#45;&gt;Node29 -->
<g id="edge37" class="edge"><title>Node24&#45;&gt;Node29</title>
<path fill="none" stroke="midnightblue" d="M1480.41,-294.445C1488.58,-291.975 1496.69,-288.879 1504,-285 1523.18,-274.832 1521.11,-262.691 1540,-252 1547.97,-247.491 1556.87,-243.754 1565.77,-240.68"/>
<polygon fill="midnightblue" stroke="midnightblue" points="1566.93,-243.984 1575.38,-237.6 1564.79,-237.317 1566.93,-243.984"/>
</g>
<!-- Node30 -->
<g id="node30" class="node"><title>Node30</title>
<g id="a_node30"><a xlink:href="../../da/de2/class_sticky_box.html#a59337f0aa3c7379a2cb9c76bdc621daf" target="_top" xlink:title="StickyBox.setStuck">
<polygon fill="white" stroke="black" points="1568,-332.5 1568,-351.5 1676,-351.5 1676,-332.5 1568,-332.5"/>
<text text-anchor="middle" x="1622" y="-339.5" font-family="Helvetica,sans-Serif" font-size="10.00">StickyBox.setStuck</text>
</a>
</g>
</g>
<!-- Node24&#45;&gt;Node30 -->
<g id="edge40" class="edge"><title>Node24&#45;&gt;Node30</title>
<path fill="none" stroke="midnightblue" d="M1473.46,-313.54C1500.15,-318.69 1533.3,-325.084 1561.42,-330.506"/>
<polygon fill="midnightblue" stroke="midnightblue" points="1561.04,-333.999 1571.52,-332.456 1562.37,-327.125 1561.04,-333.999"/>
</g>
<!-- Node25&#45;&gt;Node18 -->
<g id="edge34" class="edge"><title>Node25&#45;&gt;Node18</title>
<path fill="none" stroke="midnightblue" d="M1571.08,-180.451C1550.4,-176.872 1526.12,-173.154 1504,-171 1318.01,-152.889 1096.63,-151.124 991.808,-151.469"/>
<polygon fill="midnightblue" stroke="midnightblue" points="991.716,-147.97 981.73,-151.511 991.744,-154.97 991.716,-147.97"/>
</g>
<!-- Node26 -->
<g id="node26" class="node"><title>Node26</title>
<g id="a_node26"><a xlink:href="../../db/d97/class_box_world.html#a55add11037cd6dc48556f2f42a9e11be" target="_top" xlink:title="BoxWorld.checkCollide">
<polygon fill="white" stroke="black" points="1748,-218.5 1748,-237.5 1870,-237.5 1870,-218.5 1748,-218.5"/>
<text text-anchor="middle" x="1809" y="-225.5" font-family="Helvetica,sans-Serif" font-size="10.00">BoxWorld.checkCollide</text>
</a>
</g>
</g>
<!-- Node25&#45;&gt;Node26 -->
<g id="edge28" class="edge"><title>Node25&#45;&gt;Node26</title>
<path fill="none" stroke="midnightblue" d="M1669.68,-199.589C1694.65,-204.716 1725.56,-211.067 1751.83,-216.463"/>
<polygon fill="midnightblue" stroke="midnightblue" points="1751.15,-219.896 1761.65,-218.48 1752.56,-213.039 1751.15,-219.896"/>
</g>
<!-- Node27 -->
<g id="node27" class="node"><title>Node27</title>
<g id="a_node27"><a xlink:href="../../db/d97/class_box_world.html#a72bacb2a6757900d8835249929fcc838" target="_top" xlink:title="BoxWorld.loseGame">
<polygon fill="white" stroke="black" points="1753,-47.5 1753,-66.5 1865,-66.5 1865,-47.5 1753,-47.5"/>
<text text-anchor="middle" x="1809" y="-54.5" font-family="Helvetica,sans-Serif" font-size="10.00">BoxWorld.loseGame</text>
</a>
</g>
</g>
<!-- Node25&#45;&gt;Node27 -->
<g id="edge31" class="edge"><title>Node25&#45;&gt;Node27</title>
<path fill="none" stroke="midnightblue" d="M1682.57,-180.417C1690.06,-177.961 1697.4,-174.875 1704,-171 1706.78,-169.366 1764.35,-105.55 1792.61,-74.1276"/>
<polygon fill="midnightblue" stroke="midnightblue" points="1795.34,-76.3236 1799.43,-66.5472 1790.14,-71.6435 1795.34,-76.3236"/>
</g>
<!-- Node28 -->
<g id="node28" class="node"><title>Node28</title>
<g id="a_node28"><a xlink:href="../../db/d97/class_box_world.html#ae6ffad41f7ba6122234157c72afe8f9c" target="_top" xlink:title="BoxWorld.onScreen">
<polygon fill="white" stroke="black" points="1754.5,-180.5 1754.5,-199.5 1863.5,-199.5 1863.5,-180.5 1754.5,-180.5"/>
<text text-anchor="middle" x="1809" y="-187.5" font-family="Helvetica,sans-Serif" font-size="10.00">BoxWorld.onScreen</text>
</a>
</g>
</g>
<!-- Node25&#45;&gt;Node28 -->
<g id="edge33" class="edge"><title>Node25&#45;&gt;Node28</title>
<path fill="none" stroke="midnightblue" d="M1695.06,-190C1711.28,-190 1728.4,-190 1744.26,-190"/>
<polygon fill="midnightblue" stroke="midnightblue" points="1744.48,-193.5 1754.48,-190 1744.48,-186.5 1744.48,-193.5"/>
</g>
<!-- Node26&#45;&gt;Node11 -->
<g id="edge29" class="edge"><title>Node26&#45;&gt;Node11</title>
<path fill="none" stroke="midnightblue" d="M1867.69,-237.558C1881.83,-239.9 1897.08,-242.428 1911.63,-244.839"/>
<polygon fill="midnightblue" stroke="midnightblue" points="1911.13,-248.304 1921.57,-246.485 1912.28,-241.398 1911.13,-248.304"/>
</g>
<!-- Node26&#45;&gt;Node13 -->
<g id="edge30" class="edge"><title>Node26&#45;&gt;Node13</title>
<path fill="none" stroke="midnightblue" d="M1870.06,-224.446C1881.29,-223.782 1893.14,-223.08 1904.74,-222.394"/>
<polygon fill="midnightblue" stroke="midnightblue" points="1905.06,-225.881 1914.84,-221.797 1904.65,-218.893 1905.06,-225.881"/>
</g>
<!-- Node27&#45;&gt;Node2 -->
<g id="edge32" class="edge"><title>Node27&#45;&gt;Node2</title>
<path fill="none" stroke="midnightblue" d="M1769.58,-47.4595C1700.76,-31.233 1551.72,-0 1424,-0 443,-0 443,-0 443,-0 370.311,-0 288.877,-29.5325 246.059,-47.5"/>
<polygon fill="midnightblue" stroke="midnightblue" points="244.596,-44.3186 236.778,-51.4688 247.349,-50.7548 244.596,-44.3186"/>
</g>
</g>
</svg>
        <g id="navigator" transform="translate(0 0)" fill="#404254">
                <rect fill="#f2f5e9" fill-opacity="0.5" stroke="#606060" stroke-width=".5" x="0" y="0" width="60" height="60"/>
                <use id="zoomplus" xlink:href="#zoomPlus" x="17" y="9" onmousedown="handleZoom(evt,'in')"/>
                <use id="zoomminus" xlink:href="#zoomMin" x="42" y="9" onmousedown="handleZoom(evt,'out')"/>
                <use id="reset" xlink:href="#resetDef" x="30" y="36" onmousedown="handleReset()"/>
                <g id="arrowUp" xlink:href="#dirArrow" transform="translate(30 24)" onmousedown="handlePan(0,-1)">
                  <use xlink:href="#rim" fill="#404040">
                        <set attributeName="fill" to="#808080" begin="arrowUp.mouseover" end="arrowUp.mouseout"/>
                  </use>
                  <path fill="none" stroke="white" stroke-width="1.5" d="M0,-3.0v7 M-2.5,-0.5L0,-3.0L2.5,-0.5"/>
                </g>
                <g id="arrowRight" xlink:href="#dirArrow" transform="rotate(90) translate(36 -43)" onmousedown="handlePan(1,0)">
                  <use xlink:href="#rim" fill="#404040">
                        <set attributeName="fill" to="#808080" begin="arrowRight.mouseover" end="arrowRight.mouseout"/>
                  </use>
                  <path fill="none" stroke="white" stroke-width="1.5" d="M0,-3.0v7 M-2.5,-0.5L0,-3.0L2.5,-0.5"/>
                </g>
                <g id="arrowDown" xlink:href="#dirArrow" transform="rotate(180) translate(-30 -48)" onmousedown="handlePan(0,1)">
                  <use xlink:href="#rim" fill="#404040">
                        <set attributeName="fill" to="#808080" begin="arrowDown.mouseover" end="arrowDown.mouseout"/>
                  </use>
                  <path fill="none" stroke="white" stroke-width="1.5" d="M0,-3.0v7 M-2.5,-0.5L0,-3.0L2.5,-0.5"/>
                </g>
                <g id="arrowLeft" xlink:href="#dirArrow" transform="rotate(270) translate(-36 17)" onmousedown="handlePan(-1,0)">
                  <use xlink:href="#rim" fill="#404040">
                        <set attributeName="fill" to="#808080" begin="arrowLeft.mouseover" end="arrowLeft.mouseout"/>
                  </use>
                  <path fill="none" stroke="white" stroke-width="1.5" d="M0,-3.0v7 M-2.5,-0.5L0,-3.0L2.5,-0.5"/>
                </g>
        </g>
        <svg viewBox="0 0 15 15" width="100%" height="30px" preserveAspectRatio="xMaxYMin meet">
         <g id="arrow_out" transform="scale(0.3 0.3)">
          <a xlink:href="class_item_box_world_a295cf7212ad54fa599e2a2d85ee0523d_cgraph_org.svg" target="_base">
           <rect id="button" ry="5" rx="5" y="6" x="6" height="38" width="38"
                fill="#f2f5e9" fill-opacity="0.5" stroke="#606060" stroke-width="1.0"/>
           <path id="arrow"
             d="M 11.500037,31.436501 C 11.940474,20.09759 22.043105,11.32322 32.158766,21.979434 L 37.068811,17.246167 C 37.068811,17.246167 37.088388,32 37.088388,32 L 22.160133,31.978069 C 22.160133,31.978069 26.997745,27.140456 26.997745,27.140456 C 18.528582,18.264221 13.291696,25.230495 11.500037,31.436501 z"
             style="fill:#404040;"/>
          </a>
         </g>
        </svg>
</svg>
