<?xml version="1.0" encoding="UTF-8" standalone="no"?>
<!DOCTYPE svg PUBLIC "-//W3C//DTD SVG 1.1//EN"
 "http://www.w3.org/Graphics/SVG/1.1/DTD/svg11.dtd">
<!-- Generated by graphviz version 2.36.0 (20140111.2315)
 -->
<!-- Title: ItemBoxWorld.addAllItems Pages: 1 -->
<svg width="340pt" height="66pt"
 viewBox="0.00 0.00 340.00 66.00" xmlns="http://www.w3.org/2000/svg" xmlns:xlink="http://www.w3.org/1999/xlink">
<g id="graph0" class="graph" transform="scale(1 1) rotate(0) translate(4 62)">
<title>ItemBoxWorld.addAllItems</title>
<polygon fill="white" stroke="none" points="-4,4 -4,-62 336,-62 336,4 -4,4"/>
<!-- Node1 -->
<g id="node1" class="node"><title>Node1</title>
<polygon fill="#bfbfbf" stroke="black" points="0.5,-19.5 0.5,-38.5 141.5,-38.5 141.5,-19.5 0.5,-19.5"/>
<text text-anchor="middle" x="71" y="-26.5" font-family="Helvetica,sans-Serif" font-size="10.00">ItemBoxWorld.addAllItems</text>
</g>
<!-- Node2 -->
<g id="node2" class="node"><title>Node2</title>
<g id="a_node2"><a xlink:href="../../d6/d4f/class_item_box_world.html#af1bcde0672796e926560684004ed8e81" target="_top" xlink:title="ItemBoxWorld.addSingleItem">
<polygon fill="white" stroke="black" points="178,-38.5 178,-57.5 332,-57.5 332,-38.5 178,-38.5"/>
<text text-anchor="middle" x="255" y="-45.5" font-family="Helvetica,sans-Serif" font-size="10.00">ItemBoxWorld.addSingleItem</text>
</a>
</g>
</g>
<!-- Node1&#45;&gt;Node2 -->
<g id="edge1" class="edge"><title>Node1&#45;&gt;Node2</title>
<path fill="none" stroke="midnightblue" d="M141.585,-36.2644C150.096,-37.1529 158.872,-38.0691 167.592,-38.9794"/>
<polygon fill="midnightblue" stroke="midnightblue" points="167.473,-42.4859 177.783,-40.0432 168.2,-35.5238 167.473,-42.4859"/>
</g>
<!-- Node3 -->
<g id="node3" class="node"><title>Node3</title>
<g id="a_node3"><a xlink:href="../../d6/d4f/class_item_box_world.html#a1890e6c53a4a73e44e9528009fde508d" target="_top" xlink:title="ItemBoxWorld.itemExists">
<polygon fill="white" stroke="black" points="188,-0.5 188,-19.5 322,-19.5 322,-0.5 188,-0.5"/>
<text text-anchor="middle" x="255" y="-7.5" font-family="Helvetica,sans-Serif" font-size="10.00">ItemBoxWorld.itemExists</text>
</a>
</g>
</g>
<!-- Node1&#45;&gt;Node3 -->
<g id="edge2" class="edge"><title>Node1&#45;&gt;Node3</title>
<path fill="none" stroke="midnightblue" d="M141.585,-21.7356C153.424,-20.4997 165.774,-19.2104 177.773,-17.9577"/>
<polygon fill="midnightblue" stroke="midnightblue" points="178.168,-21.4357 187.75,-16.9162 177.441,-14.4735 178.168,-21.4357"/>
</g>
</g>
</svg>
