<?xml version="1.0" encoding="UTF-8" standalone="no"?>
<!DOCTYPE svg PUBLIC "-//W3C//DTD SVG 1.1//EN"
 "http://www.w3.org/Graphics/SVG/1.1/DTD/svg11.dtd">
<!-- Generated by graphviz version 2.36.0 (20140111.2315)
 -->
<!-- Title: ItemBoxWorld.addAllItems Pages: 1 -->
<!--zoomable 170 -->
<svg id="main" version="1.1" xmlns="http://www.w3.org/2000/svg" xmlns:xlink="http://www.w3.org/1999/xlink" xml:space="preserve" onload="init(evt)">
<style type="text/css"><![CDATA[
.edge:hover path { stroke: red; }
.edge:hover polygon { stroke: red; fill: red; }
]]></style>
<script type="text/javascript"><![CDATA[
var edges = document.getElementsByTagName('g');
if (edges && edges.length) {
  for (var i=0;i<edges.length;i++) {
    if (edges[i].id.substr(0,4)=='edge') {
      edges[i].setAttribute('class','edge');
    }
  }
}
]]></script>
        <defs>
                <circle id="rim" cx="0" cy="0" r="7"/>
                <circle id="rim2" cx="0" cy="0" r="3.5"/>
                <g id="zoomPlus">
                        <use xlink:href="#rim" fill="#404040">
                                <set attributeName="fill" to="#808080" begin="zoomplus.mouseover" end="zoomplus.mouseout"/>
                        </use>
                        <path d="M-4,0h8M0,-4v8" fill="none" stroke="white" stroke-width="1.5" pointer-events="none"/>
                </g>
                <g id="zoomMin">
                        <use xlink:href="#rim" fill="#404040">
                                <set attributeName="fill" to="#808080" begin="zoomminus.mouseover" end="zoomminus.mouseout"/>
                        </use>
                        <path d="M-4,0h8" fill="none" stroke="white" stroke-width="1.5" pointer-events="none"/>
                </g>
                <g id="dirArrow">
                        <path fill="none" stroke="white" stroke-width="1.5" d="M0,-3.0v7 M-2.5,-0.5L0,-3.0L2.5,-0.5"/>
                </g>
               <g id="resetDef">
                       <use xlink:href="#rim2" fill="#404040">
                               <set attributeName="fill" to="#808080" begin="reset.mouseover" end="reset.mouseout"/>
                       </use>
               </g>
        </defs>

<script type="text/javascript">
var viewWidth = 1414;
var viewHeight = 170;
var sectionId = 'dynsection-3';
</script>
<script xlink:href="../../svgpan.js"/>
<svg id="graph" class="graph">
<g id="viewport">
<title>ItemBoxWorld.addAllItems</title>
<polygon fill="white" stroke="none" points="-4,4 -4,-166 1410,-166 1410,4 -4,4"/>
<!-- Node1 -->
<g id="node1" class="node"><title>Node1</title>
<polygon fill="#bfbfbf" stroke="black" points="0.5,-19.5 0.5,-38.5 141.5,-38.5 141.5,-19.5 0.5,-19.5"/>
<text text-anchor="middle" x="71" y="-26.5" font-family="Helvetica,sans-Serif" font-size="10.00">ItemBoxWorld.addAllItems</text>
</g>
<!-- Node2 -->
<g id="node2" class="node"><title>Node2</title>
<g id="a_node2"><a xlink:href="../../d6/d4f/class_item_box_world.html#aa559fc2680327b41fb376e2eda8e82e3" target="_top" xlink:title="ItemBoxWorld.init">
<polygon fill="white" stroke="black" points="183.5,-38.5 183.5,-57.5 282.5,-57.5 282.5,-38.5 183.5,-38.5"/>
<text text-anchor="middle" x="233" y="-45.5" font-family="Helvetica,sans-Serif" font-size="10.00">ItemBoxWorld.init</text>
</a>
</g>
</g>
<!-- Node1&#45;&gt;Node2 -->
<g id="edge1" class="edge"><title>Node1&#45;&gt;Node2</title>
<path fill="none" stroke="midnightblue" d="M151.92,-38.4905C162.592,-39.7578 173.267,-41.0254 183.183,-42.203"/>
<polygon fill="midnightblue" stroke="midnightblue" points="152.056,-34.9821 141.713,-37.2784 151.23,-41.9333 152.056,-34.9821"/>
</g>
<!-- Node17 -->
<g id="node17" class="node"><title>Node17</title>
<g id="a_node17"><a xlink:href="../../d6/d4f/class_item_box_world.html#ad828a4764d0fc92cb1cc3ada9a4a2862" target="_top" xlink:title="ItemBoxWorld.reset">
<polygon fill="white" stroke="black" points="178,-0.5 178,-19.5 288,-19.5 288,-0.5 178,-0.5"/>
<text text-anchor="middle" x="233" y="-7.5" font-family="Helvetica,sans-Serif" font-size="10.00">ItemBoxWorld.reset</text>
</a>
</g>
</g>
<!-- Node1&#45;&gt;Node17 -->
<g id="edge20" class="edge"><title>Node1&#45;&gt;Node17</title>
<path fill="none" stroke="midnightblue" d="M151.709,-19.5345C160.585,-18.4805 169.466,-17.4259 177.915,-16.4226"/>
<polygon fill="midnightblue" stroke="midnightblue" points="151.23,-16.0667 141.713,-20.7216 152.056,-23.0179 151.23,-16.0667"/>
</g>
<!-- Node3 -->
<g id="node3" class="node"><title>Node3</title>
<g id="a_node3"><a xlink:href="../../db/d97/class_box_world.html#aad670712776afe126e51791097027e05" target="_top" xlink:title="BoxWorld.winLevel">
<polygon fill="white" stroke="black" points="324.5,-38.5 324.5,-57.5 427.5,-57.5 427.5,-38.5 324.5,-38.5"/>
<text text-anchor="middle" x="376" y="-45.5" font-family="Helvetica,sans-Serif" font-size="10.00">BoxWorld.winLevel</text>
</a>
</g>
</g>
<!-- Node2&#45;&gt;Node3 -->
<g id="edge2" class="edge"><title>Node2&#45;&gt;Node3</title>
<path fill="none" stroke="midnightblue" d="M292.543,-48C303.144,-48 314.118,-48 324.466,-48"/>
<polygon fill="midnightblue" stroke="midnightblue" points="292.524,-44.5001 282.524,-48 292.524,-51.5001 292.524,-44.5001"/>
</g>
<!-- Node4 -->
<g id="node4" class="node"><title>Node4</title>
<g id="a_node4"><a xlink:href="../../db/d97/class_box_world.html#a4079bed8937c9f621decfbe1309e31e2" target="_top" xlink:title="BoxWorld.checkAllCollisions">
<polygon fill="white" stroke="black" points="464,-114.5 464,-133.5 610,-133.5 610,-114.5 464,-114.5"/>
<text text-anchor="middle" x="537" y="-121.5" font-family="Helvetica,sans-Serif" font-size="10.00">BoxWorld.checkAllCollisions</text>
</a>
</g>
</g>
<!-- Node3&#45;&gt;Node4 -->
<g id="edge3" class="edge"><title>Node3&#45;&gt;Node4</title>
<path fill="none" stroke="midnightblue" d="M406.412,-62.0588C438.322,-77.3113 488.397,-101.246 516.026,-114.453"/>
<polygon fill="midnightblue" stroke="midnightblue" points="407.669,-58.7802 397.137,-57.6255 404.65,-65.0959 407.669,-58.7802"/>
</g>
<!-- Node15 -->
<g id="node15" class="node"><title>Node15</title>
<g id="a_node15"><a xlink:href="../../db/d97/class_box_world.html#aa7e2049d7be23e15fd2ec7fa2922ed79" target="_top" xlink:title="BoxWorld.handleKeyInput">
<polygon fill="white" stroke="black" points="469,-38.5 469,-57.5 605,-57.5 605,-38.5 469,-38.5"/>
<text text-anchor="middle" x="537" y="-45.5" font-family="Helvetica,sans-Serif" font-size="10.00">BoxWorld.handleKeyInput</text>
</a>
</g>
</g>
<!-- Node3&#45;&gt;Node15 -->
<g id="edge16" class="edge"><title>Node3&#45;&gt;Node15</title>
<path fill="none" stroke="midnightblue" d="M437.76,-48C447.946,-48 458.567,-48 468.901,-48"/>
<polygon fill="midnightblue" stroke="midnightblue" points="437.746,-44.5001 427.746,-48 437.746,-51.5001 437.746,-44.5001"/>
</g>
<!-- Node5 -->
<g id="node5" class="node"><title>Node5</title>
<g id="a_node5"><a xlink:href="../../db/d97/class_box_world.html#a6794c083c2a0263c2f585f4ae4b7e39c" target="_top" xlink:title="BoxWorld.updateSprites">
<polygon fill="white" stroke="black" points="646.5,-114.5 646.5,-133.5 777.5,-133.5 777.5,-114.5 646.5,-114.5"/>
<text text-anchor="middle" x="712" y="-121.5" font-family="Helvetica,sans-Serif" font-size="10.00">BoxWorld.updateSprites</text>
</a>
</g>
</g>
<!-- Node4&#45;&gt;Node5 -->
<g id="edge4" class="edge"><title>Node4&#45;&gt;Node5</title>
<path fill="none" stroke="midnightblue" d="M620.354,-124C629.116,-124 637.936,-124 646.451,-124"/>
<polygon fill="midnightblue" stroke="midnightblue" points="620.115,-120.5 610.115,-124 620.115,-127.5 620.115,-120.5"/>
</g>
<!-- Node6 -->
<g id="node6" class="node"><title>Node6</title>
<g id="a_node6"><a xlink:href="../../db/d97/class_box_world.html#ad20a4e43406c44f4bbf201d1d1028998" target="_top" xlink:title="BoxWorld.start">
<polygon fill="white" stroke="black" points="814,-76.5 814,-95.5 900,-95.5 900,-76.5 814,-76.5"/>
<text text-anchor="middle" x="857" y="-83.5" font-family="Helvetica,sans-Serif" font-size="10.00">BoxWorld.start</text>
</a>
</g>
</g>
<!-- Node5&#45;&gt;Node6 -->
<g id="edge5" class="edge"><title>Node5&#45;&gt;Node6</title>
<path fill="none" stroke="midnightblue" d="M758.813,-111.826C778.587,-106.571 801.384,-100.513 819.927,-95.5859"/>
<polygon fill="midnightblue" stroke="midnightblue" points="757.851,-108.46 749.085,-114.411 759.648,-115.225 757.851,-108.46"/>
</g>
<!-- Node6&#45;&gt;Node2 -->
<g id="edge6" class="edge"><title>Node6&#45;&gt;Node2</title>
<path fill="none" stroke="midnightblue" d="M803.456,-87.1117C707.718,-88.4742 498.629,-88.3894 324,-67 306.722,-64.8838 287.842,-61.1251 271.855,-57.5064"/>
<polygon fill="midnightblue" stroke="midnightblue" points="803.792,-90.607 813.737,-86.9534 803.684,-83.6078 803.792,-90.607"/>
</g>
<!-- Node7 -->
<g id="node7" class="node"><title>Node7</title>
<g id="a_node7"><a xlink:href="../../db/d97/class_box_world.html#a55bf92d3f466bfaade0f6d199d8c9bd9" target="_top" xlink:title="BoxWorld.init">
<polygon fill="white" stroke="black" points="936.5,-76.5 936.5,-95.5 1013.5,-95.5 1013.5,-76.5 936.5,-76.5"/>
<text text-anchor="middle" x="975" y="-83.5" font-family="Helvetica,sans-Serif" font-size="10.00">BoxWorld.init</text>
</a>
</g>
</g>
<!-- Node6&#45;&gt;Node7 -->
<g id="edge7" class="edge"><title>Node6&#45;&gt;Node7</title>
<path fill="none" stroke="midnightblue" d="M910.33,-86C919.062,-86 927.968,-86 936.244,-86"/>
<polygon fill="midnightblue" stroke="midnightblue" points="910.207,-82.5001 900.207,-86 910.207,-89.5001 910.207,-82.5001"/>
</g>
<!-- Node8 -->
<g id="node8" class="node"><title>Node8</title>
<g id="a_node8"><a xlink:href="../../d2/db8/class_menu.html#a3c99ad09e9f2f975c1a0d0597642651a" target="_top" xlink:title="Menu.init">
<polygon fill="white" stroke="black" points="1050,-76.5 1050,-95.5 1110,-95.5 1110,-76.5 1050,-76.5"/>
<text text-anchor="middle" x="1080" y="-83.5" font-family="Helvetica,sans-Serif" font-size="10.00">Menu.init</text>
</a>
</g>
</g>
<!-- Node7&#45;&gt;Node8 -->
<g id="edge8" class="edge"><title>Node7&#45;&gt;Node8</title>
<path fill="none" stroke="midnightblue" d="M1024.03,-86C1032.89,-86 1041.87,-86 1049.95,-86"/>
<polygon fill="midnightblue" stroke="midnightblue" points="1023.77,-82.5001 1013.77,-86 1023.77,-89.5001 1023.77,-82.5001"/>
</g>
<!-- Node9 -->
<g id="node9" class="node"><title>Node9</title>
<g id="a_node9"><a xlink:href="../../d1/de1/class_end_screen.html#a1264ffb72b3a3032443f9c4087222aef" target="_top" xlink:title="EndScreen.init">
<polygon fill="white" stroke="black" points="1148,-38.5 1148,-57.5 1234,-57.5 1234,-38.5 1148,-38.5"/>
<text text-anchor="middle" x="1191" y="-45.5" font-family="Helvetica,sans-Serif" font-size="10.00">EndScreen.init</text>
</a>
</g>
</g>
<!-- Node8&#45;&gt;Node9 -->
<g id="edge9" class="edge"><title>Node8&#45;&gt;Node9</title>
<path fill="none" stroke="midnightblue" d="M1118.21,-73.0282C1132.73,-67.9656 1149.08,-62.2659 1162.5,-57.5859"/>
<polygon fill="midnightblue" stroke="midnightblue" points="1116.8,-69.8141 1108.51,-76.411 1119.1,-76.4239 1116.8,-69.8141"/>
</g>
<!-- Node11 -->
<g id="node11" class="node"><title>Node11</title>
<g id="a_node11"><a xlink:href="../../d4/d2f/class_lose_screen.html#a34f2cc2c803500316c9b8d854854d758" target="_top" xlink:title="LoseScreen.init">
<polygon fill="white" stroke="black" points="1146,-76.5 1146,-95.5 1236,-95.5 1236,-76.5 1146,-76.5"/>
<text text-anchor="middle" x="1191" y="-83.5" font-family="Helvetica,sans-Serif" font-size="10.00">LoseScreen.init</text>
</a>
</g>
</g>
<!-- Node8&#45;&gt;Node11 -->
<g id="edge11" class="edge"><title>Node8&#45;&gt;Node11</title>
<path fill="none" stroke="midnightblue" d="M1120.38,-86C1128.68,-86 1137.48,-86 1145.94,-86"/>
<polygon fill="midnightblue" stroke="midnightblue" points="1120.21,-82.5001 1110.21,-86 1120.21,-89.5001 1120.21,-82.5001"/>
</g>
<!-- Node14 -->
<g id="node14" class="node"><title>Node14</title>
<g id="a_node14"><a xlink:href="../../d0/d4b/class_main.html#a7595d13c514a02c35aca322dd91d2063" target="_top" xlink:title="Main.start">
<polygon fill="white" stroke="black" points="1158.5,-114.5 1158.5,-133.5 1223.5,-133.5 1223.5,-114.5 1158.5,-114.5"/>
<text text-anchor="middle" x="1191" y="-121.5" font-family="Helvetica,sans-Serif" font-size="10.00">Main.start</text>
</a>
</g>
</g>
<!-- Node8&#45;&gt;Node14 -->
<g id="edge15" class="edge"><title>Node8&#45;&gt;Node14</title>
<path fill="none" stroke="midnightblue" d="M1118.21,-98.9718C1132.73,-104.034 1149.08,-109.734 1162.5,-114.414"/>
<polygon fill="midnightblue" stroke="midnightblue" points="1119.1,-95.5761 1108.51,-95.589 1116.8,-102.186 1119.1,-95.5761"/>
</g>
<!-- Node10 -->
<g id="node10" class="node"><title>Node10</title>
<g id="a_node10"><a xlink:href="../../d6/d4f/class_item_box_world.html#a2ed12a6b39993faedc05cc682204476d" target="_top" xlink:title="ItemBoxWorld.winLevel">
<polygon fill="white" stroke="black" points="1276.5,-38.5 1276.5,-57.5 1401.5,-57.5 1401.5,-38.5 1276.5,-38.5"/>
<text text-anchor="middle" x="1339" y="-45.5" font-family="Helvetica,sans-Serif" font-size="10.00">ItemBoxWorld.winLevel</text>
</a>
</g>
</g>
<!-- Node9&#45;&gt;Node10 -->
<g id="edge10" class="edge"><title>Node9&#45;&gt;Node10</title>
<path fill="none" stroke="midnightblue" d="M1244.35,-48C1254.71,-48 1265.68,-48 1276.31,-48"/>
<polygon fill="midnightblue" stroke="midnightblue" points="1244.23,-44.5001 1234.23,-48 1244.23,-51.5001 1244.23,-44.5001"/>
</g>
<!-- Node12 -->
<g id="node12" class="node"><title>Node12</title>
<g id="a_node12"><a xlink:href="../../db/d97/class_box_world.html#a72bacb2a6757900d8835249929fcc838" target="_top" xlink:title="BoxWorld.loseGame">
<polygon fill="white" stroke="black" points="1283,-133.5 1283,-152.5 1395,-152.5 1395,-133.5 1283,-133.5"/>
<text text-anchor="middle" x="1339" y="-140.5" font-family="Helvetica,sans-Serif" font-size="10.00">BoxWorld.loseGame</text>
</a>
</g>
</g>
<!-- Node11&#45;&gt;Node12 -->
<g id="edge12" class="edge"><title>Node11&#45;&gt;Node12</title>
<path fill="none" stroke="midnightblue" d="M1225.82,-99.203C1252.63,-109.669 1289.45,-124.046 1313.48,-133.428"/>
<polygon fill="midnightblue" stroke="midnightblue" points="1227.03,-95.917 1216.44,-95.5405 1224.48,-102.438 1227.03,-95.917"/>
</g>
<!-- Node13 -->
<g id="node13" class="node"><title>Node13</title>
<g id="a_node13"><a xlink:href="../../d6/d4f/class_item_box_world.html#a295cf7212ad54fa599e2a2d85ee0523d" target="_top" xlink:title="ItemBoxWorld.loseGame">
<polygon fill="white" stroke="black" points="1272,-76.5 1272,-95.5 1406,-95.5 1406,-76.5 1272,-76.5"/>
<text text-anchor="middle" x="1339" y="-83.5" font-family="Helvetica,sans-Serif" font-size="10.00">ItemBoxWorld.loseGame</text>
</a>
</g>
</g>
<!-- Node11&#45;&gt;Node13 -->
<g id="edge14" class="edge"><title>Node11&#45;&gt;Node13</title>
<path fill="none" stroke="midnightblue" d="M1246.47,-86C1254.75,-86 1263.37,-86 1271.86,-86"/>
<polygon fill="midnightblue" stroke="midnightblue" points="1246.2,-82.5001 1236.2,-86 1246.2,-89.5001 1246.2,-82.5001"/>
</g>
<!-- Node12&#45;&gt;Node4 -->
<g id="edge13" class="edge"><title>Node12&#45;&gt;Node4</title>
<path fill="none" stroke="midnightblue" d="M1272.87,-150.482C1220.98,-155.799 1146.43,-162 1081,-162 856,-162 856,-162 856,-162 760.227,-162 649.368,-144.796 587.084,-133.54"/>
<polygon fill="midnightblue" stroke="midnightblue" points="1273.36,-153.951 1282.94,-149.433 1272.63,-146.988 1273.36,-153.951"/>
</g>
<!-- Node16 -->
<g id="node16" class="node"><title>Node16</title>
<g id="a_node16"><a xlink:href="../../db/d97/class_box_world.html#a726e747e023543658d7a345cc6466ccb" target="_top" xlink:title="BoxWorld.createScene">
<polygon fill="white" stroke="black" points="650,-38.5 650,-57.5 774,-57.5 774,-38.5 650,-38.5"/>
<text text-anchor="middle" x="712" y="-45.5" font-family="Helvetica,sans-Serif" font-size="10.00">BoxWorld.createScene</text>
</a>
</g>
</g>
<!-- Node15&#45;&gt;Node16 -->
<g id="edge17" class="edge"><title>Node15&#45;&gt;Node16</title>
<path fill="none" stroke="midnightblue" d="M615.41,-48C626.908,-48 638.622,-48 649.729,-48"/>
<polygon fill="midnightblue" stroke="midnightblue" points="615.382,-44.5001 605.382,-48 615.382,-51.5001 615.382,-44.5001"/>
</g>
<!-- Node16&#45;&gt;Node2 -->
<g id="edge18" class="edge"><title>Node16&#45;&gt;Node2</title>
<path fill="none" stroke="midnightblue" d="M659.815,-36.4616C643.937,-33.3986 626.322,-30.5219 610,-29 483.438,-17.1991 450.424,-15.8007 324,-29 306.211,-30.8573 286.761,-34.7261 270.508,-38.491"/>
<polygon fill="midnightblue" stroke="midnightblue" points="659.475,-39.9629 669.967,-38.4891 660.846,-33.0984 659.475,-39.9629"/>
</g>
<!-- Node16&#45;&gt;Node7 -->
<g id="edge19" class="edge"><title>Node16&#45;&gt;Node7</title>
<path fill="none" stroke="midnightblue" d="M784.507,-52.7339C819.496,-55.6928 862.134,-60.2545 900,-67 913.581,-69.4193 928.34,-73.0086 941.079,-76.4181"/>
<polygon fill="midnightblue" stroke="midnightblue" points="784.633,-49.2326 774.381,-51.904 784.061,-56.2092 784.633,-49.2326"/>
</g>
</g>
</svg>
        <g id="navigator" transform="translate(0 0)" fill="#404254">
                <rect fill="#f2f5e9" fill-opacity="0.5" stroke="#606060" stroke-width=".5" x="0" y="0" width="60" height="60"/>
                <use id="zoomplus" xlink:href="#zoomPlus" x="17" y="9" onmousedown="handleZoom(evt,'in')"/>
                <use id="zoomminus" xlink:href="#zoomMin" x="42" y="9" onmousedown="handleZoom(evt,'out')"/>
                <use id="reset" xlink:href="#resetDef" x="30" y="36" onmousedown="handleReset()"/>
                <g id="arrowUp" xlink:href="#dirArrow" transform="translate(30 24)" onmousedown="handlePan(0,-1)">
                  <use xlink:href="#rim" fill="#404040">
                        <set attributeName="fill" to="#808080" begin="arrowUp.mouseover" end="arrowUp.mouseout"/>
                  </use>
                  <path fill="none" stroke="white" stroke-width="1.5" d="M0,-3.0v7 M-2.5,-0.5L0,-3.0L2.5,-0.5"/>
                </g>
                <g id="arrowRight" xlink:href="#dirArrow" transform="rotate(90) translate(36 -43)" onmousedown="handlePan(1,0)">
                  <use xlink:href="#rim" fill="#404040">
                        <set attributeName="fill" to="#808080" begin="arrowRight.mouseover" end="arrowRight.mouseout"/>
                  </use>
                  <path fill="none" stroke="white" stroke-width="1.5" d="M0,-3.0v7 M-2.5,-0.5L0,-3.0L2.5,-0.5"/>
                </g>
                <g id="arrowDown" xlink:href="#dirArrow" transform="rotate(180) translate(-30 -48)" onmousedown="handlePan(0,1)">
                  <use xlink:href="#rim" fill="#404040">
                        <set attributeName="fill" to="#808080" begin="arrowDown.mouseover" end="arrowDown.mouseout"/>
                  </use>
                  <path fill="none" stroke="white" stroke-width="1.5" d="M0,-3.0v7 M-2.5,-0.5L0,-3.0L2.5,-0.5"/>
                </g>
                <g id="arrowLeft" xlink:href="#dirArrow" transform="rotate(270) translate(-36 17)" onmousedown="handlePan(-1,0)">
                  <use xlink:href="#rim" fill="#404040">
                        <set attributeName="fill" to="#808080" begin="arrowLeft.mouseover" end="arrowLeft.mouseout"/>
                  </use>
                  <path fill="none" stroke="white" stroke-width="1.5" d="M0,-3.0v7 M-2.5,-0.5L0,-3.0L2.5,-0.5"/>
                </g>
        </g>
        <svg viewBox="0 0 15 15" width="100%" height="30px" preserveAspectRatio="xMaxYMin meet">
         <g id="arrow_out" transform="scale(0.3 0.3)">
          <a xlink:href="class_item_box_world_a7ead15fd9fd8095f928640161d48fdf8_icgraph_org.svg" target="_base">
           <rect id="button" ry="5" rx="5" y="6" x="6" height="38" width="38"
                fill="#f2f5e9" fill-opacity="0.5" stroke="#606060" stroke-width="1.0"/>
           <path id="arrow"
             d="M 11.500037,31.436501 C 11.940474,20.09759 22.043105,11.32322 32.158766,21.979434 L 37.068811,17.246167 C 37.068811,17.246167 37.088388,32 37.088388,32 L 22.160133,31.978069 C 22.160133,31.978069 26.997745,27.140456 26.997745,27.140456 C 18.528582,18.264221 13.291696,25.230495 11.500037,31.436501 z"
             style="fill:#404040;"/>
          </a>
         </g>
        </svg>
</svg>
