<?xml version="1.0" encoding="UTF-8" standalone="no"?>
<!DOCTYPE svg PUBLIC "-//W3C//DTD SVG 1.1//EN"
 "http://www.w3.org/Graphics/SVG/1.1/DTD/svg11.dtd">
<!-- Generated by graphviz version 2.36.0 (20140111.2315)
 -->
<!-- Title: ItemBoxWorld.winLevel Pages: 1 -->
<svg width="2096pt" height="655pt"
 viewBox="0.00 0.00 2096.00 655.00" xmlns="http://www.w3.org/2000/svg" xmlns:xlink="http://www.w3.org/1999/xlink">
<g id="graph0" class="graph" transform="scale(1 1) rotate(0) translate(4 651)">
<title>ItemBoxWorld.winLevel</title>
<polygon fill="white" stroke="none" points="-4,4 -4,-651 2092,-651 2092,4 -4,4"/>
<!-- Node1 -->
<g id="node1" class="node"><title>Node1</title>
<polygon fill="#bfbfbf" stroke="black" points="0.5,-561.5 0.5,-580.5 125.5,-580.5 125.5,-561.5 0.5,-561.5"/>
<text text-anchor="middle" x="63" y="-568.5" font-family="Helvetica,sans-Serif" font-size="10.00">ItemBoxWorld.winLevel</text>
</g>
<!-- Node2 -->
<g id="node2" class="node"><title>Node2</title>
<g id="a_node2"><a xlink:href="../../db/d97/class_box_world.html#a61929851f1d60c397e1448e614f1d701" target="_top" xlink:title="BoxWorld.getAnimation">
<polygon fill="white" stroke="black" points="1192,-561.5 1192,-580.5 1320,-580.5 1320,-561.5 1192,-561.5"/>
<text text-anchor="middle" x="1256" y="-568.5" font-family="Helvetica,sans-Serif" font-size="10.00">BoxWorld.getAnimation</text>
</a>
</g>
</g>
<!-- Node1&#45;&gt;Node2 -->
<g id="edge1" class="edge"><title>Node1&#45;&gt;Node2</title>
<path fill="none" stroke="midnightblue" d="M105.991,-561.411C159.041,-550.154 253.285,-533 335,-533 335,-533 335,-533 941,-533 1030.6,-533 1133.54,-548.437 1196.42,-559.633"/>
<polygon fill="midnightblue" stroke="midnightblue" points="1196.08,-563.128 1206.54,-561.46 1197.32,-556.239 1196.08,-563.128"/>
</g>
<!-- Node3 -->
<g id="node3" class="node"><title>Node3</title>
<g id="a_node3"><a xlink:href="../../db/d97/class_box_world.html#abb95adb381902ecab1db85efdc1ea6ff" target="_top" xlink:title="BoxWorld.getRoot">
<polygon fill="white" stroke="black" points="1614,-580.5 1614,-599.5 1714,-599.5 1714,-580.5 1614,-580.5"/>
<text text-anchor="middle" x="1664" y="-587.5" font-family="Helvetica,sans-Serif" font-size="10.00">BoxWorld.getRoot</text>
</a>
</g>
</g>
<!-- Node1&#45;&gt;Node3 -->
<g id="edge2" class="edge"><title>Node1&#45;&gt;Node3</title>
<path fill="none" stroke="midnightblue" d="M83.0693,-580.603C102.495,-590.041 133.701,-604.262 162,-613 236.872,-636.118 256.64,-647 335,-647 335,-647 335,-647 1257,-647 1386.09,-647 1536.03,-618.393 1612.5,-601.712"/>
<polygon fill="midnightblue" stroke="midnightblue" points="1613.34,-605.112 1622.35,-599.541 1611.83,-598.276 1613.34,-605.112"/>
</g>
<!-- Node4 -->
<g id="node4" class="node"><title>Node4</title>
<g id="a_node4"><a xlink:href="../../db/d97/class_box_world.html#a2a2240e68c535f2c559c92ed0d125a45" target="_top" xlink:title="BoxWorld.getStage">
<polygon fill="white" stroke="black" points="162.5,-561.5 162.5,-580.5 269.5,-580.5 269.5,-561.5 162.5,-561.5"/>
<text text-anchor="middle" x="216" y="-568.5" font-family="Helvetica,sans-Serif" font-size="10.00">BoxWorld.getStage</text>
</a>
</g>
</g>
<!-- Node1&#45;&gt;Node4 -->
<g id="edge3" class="edge"><title>Node1&#45;&gt;Node4</title>
<path fill="none" stroke="midnightblue" d="M125.853,-571C134.517,-571 143.429,-571 152.112,-571"/>
<polygon fill="midnightblue" stroke="midnightblue" points="152.171,-574.5 162.171,-571 152.171,-567.5 152.171,-574.5"/>
</g>
<!-- Node5 -->
<g id="node5" class="node"><title>Node5</title>
<g id="a_node5"><a xlink:href="../../d1/de1/class_end_screen.html#a1264ffb72b3a3032443f9c4087222aef" target="_top" xlink:title="EndScreen.init">
<polygon fill="white" stroke="black" points="173,-343.5 173,-362.5 259,-362.5 259,-343.5 173,-343.5"/>
<text text-anchor="middle" x="216" y="-350.5" font-family="Helvetica,sans-Serif" font-size="10.00">EndScreen.init</text>
</a>
</g>
</g>
<!-- Node1&#45;&gt;Node5 -->
<g id="edge4" class="edge"><title>Node1&#45;&gt;Node5</title>
<path fill="none" stroke="midnightblue" d="M70.6831,-561.352C94.0224,-527.656 172.135,-414.884 202.643,-370.839"/>
<polygon fill="midnightblue" stroke="midnightblue" points="205.577,-372.751 208.394,-362.537 199.823,-368.765 205.577,-372.751"/>
</g>
<!-- Node25 -->
<g id="node25" class="node"><title>Node25</title>
<g id="a_node25"><a xlink:href="../../d6/d4f/class_item_box_world.html#a1890e6c53a4a73e44e9528009fde508d" target="_top" xlink:title="ItemBoxWorld.itemExists">
<polygon fill="white" stroke="black" points="1398,-580.5 1398,-599.5 1532,-599.5 1532,-580.5 1398,-580.5"/>
<text text-anchor="middle" x="1465" y="-587.5" font-family="Helvetica,sans-Serif" font-size="10.00">ItemBoxWorld.itemExists</text>
</a>
</g>
</g>
<!-- Node1&#45;&gt;Node25 -->
<g id="edge55" class="edge"><title>Node1&#45;&gt;Node25</title>
<path fill="none" stroke="midnightblue" d="M105.991,-580.589C159.041,-591.846 253.285,-609 335,-609 335,-609 335,-609 1079,-609 1186.28,-609 1310.16,-601.55 1387.8,-595.98"/>
<polygon fill="midnightblue" stroke="midnightblue" points="1388.25,-599.457 1397.97,-595.242 1387.74,-592.475 1388.25,-599.457"/>
</g>
<!-- Node6 -->
<g id="node6" class="node"><title>Node6</title>
<g id="a_node6"><a xlink:href="../../d2/db8/class_menu.html#a3c99ad09e9f2f975c1a0d0597642651a" target="_top" xlink:title="Menu.init">
<polygon fill="white" stroke="black" points="306,-200.5 306,-219.5 366,-219.5 366,-200.5 306,-200.5"/>
<text text-anchor="middle" x="336" y="-207.5" font-family="Helvetica,sans-Serif" font-size="10.00">Menu.init</text>
</a>
</g>
</g>
<!-- Node5&#45;&gt;Node6 -->
<g id="edge5" class="edge"><title>Node5&#45;&gt;Node6</title>
<path fill="none" stroke="midnightblue" d="M225.111,-343.171C244.825,-319.279 295.476,-257.897 320.528,-227.539"/>
<polygon fill="midnightblue" stroke="midnightblue" points="323.478,-229.462 327.143,-219.521 318.079,-225.007 323.478,-229.462"/>
</g>
<!-- Node7 -->
<g id="node7" class="node"><title>Node7</title>
<g id="a_node7"><a xlink:href="../../d2/db8/class_menu.html#a8a6e6125f0dc2dc7e19c6655ba6376a2" target="_top" xlink:title="Menu.addIntroText">
<polygon fill="white" stroke="black" points="402,-219.5 402,-238.5 506,-238.5 506,-219.5 402,-219.5"/>
<text text-anchor="middle" x="454" y="-226.5" font-family="Helvetica,sans-Serif" font-size="10.00">Menu.addIntroText</text>
</a>
</g>
</g>
<!-- Node6&#45;&gt;Node7 -->
<g id="edge6" class="edge"><title>Node6&#45;&gt;Node7</title>
<path fill="none" stroke="midnightblue" d="M366.272,-214.795C374.074,-216.072 382.804,-217.502 391.639,-218.95"/>
<polygon fill="midnightblue" stroke="midnightblue" points="391.18,-222.421 401.614,-220.583 392.311,-215.513 391.18,-222.421"/>
</g>
<!-- Node8 -->
<g id="node8" class="node"><title>Node8</title>
<g id="a_node8"><a xlink:href="../../db/d97/class_box_world.html#a55bf92d3f466bfaade0f6d199d8c9bd9" target="_top" xlink:title="BoxWorld.init">
<polygon fill="white" stroke="black" points="415.5,-181.5 415.5,-200.5 492.5,-200.5 492.5,-181.5 415.5,-181.5"/>
<text text-anchor="middle" x="454" y="-188.5" font-family="Helvetica,sans-Serif" font-size="10.00">BoxWorld.init</text>
</a>
</g>
</g>
<!-- Node6&#45;&gt;Node8 -->
<g id="edge7" class="edge"><title>Node6&#45;&gt;Node8</title>
<path fill="none" stroke="midnightblue" d="M366.272,-205.205C378.145,-203.261 392.168,-200.964 405.436,-198.791"/>
<polygon fill="midnightblue" stroke="midnightblue" points="406.085,-202.231 415.388,-197.161 404.954,-195.323 406.085,-202.231"/>
</g>
<!-- Node9 -->
<g id="node9" class="node"><title>Node9</title>
<g id="a_node9"><a xlink:href="../../db/d97/class_box_world.html#a69798621c944e846f045aaf3937505f9" target="_top" xlink:title="BoxWorld.addStarterObjects">
<polygon fill="white" stroke="black" points="1180.5,-124.5 1180.5,-143.5 1331.5,-143.5 1331.5,-124.5 1180.5,-124.5"/>
<text text-anchor="middle" x="1256" y="-131.5" font-family="Helvetica,sans-Serif" font-size="10.00">BoxWorld.addStarterObjects</text>
</a>
</g>
</g>
<!-- Node8&#45;&gt;Node9 -->
<g id="edge8" class="edge"><title>Node8&#45;&gt;Node9</title>
<path fill="none" stroke="midnightblue" d="M478.705,-181.375C531.281,-160.924 662.033,-115 776,-115 776,-115 776,-115 941,-115 1018.6,-115 1106.79,-120.853 1169.91,-126.062"/>
<polygon fill="midnightblue" stroke="midnightblue" points="1169.96,-129.578 1180.21,-126.925 1170.54,-122.603 1169.96,-129.578"/>
</g>
<!-- Node11 -->
<g id="node11" class="node"><title>Node11</title>
<g id="a_node11"><a xlink:href="../../db/d97/class_box_world.html#a726e747e023543658d7a345cc6466ccb" target="_top" xlink:title="BoxWorld.createScene">
<polygon fill="white" stroke="black" points="542,-276.5 542,-295.5 666,-295.5 666,-276.5 542,-276.5"/>
<text text-anchor="middle" x="604" y="-283.5" font-family="Helvetica,sans-Serif" font-size="10.00">BoxWorld.createScene</text>
</a>
</g>
</g>
<!-- Node8&#45;&gt;Node11 -->
<g id="edge10" class="edge"><title>Node8&#45;&gt;Node11</title>
<path fill="none" stroke="midnightblue" d="M485.356,-200.559C492.324,-203.227 499.57,-206.398 506,-210 536.241,-226.94 567.058,-252.88 585.608,-269.643"/>
<polygon fill="midnightblue" stroke="midnightblue" points="583.262,-272.24 592.996,-276.422 587.994,-267.082 583.262,-272.24"/>
</g>
<!-- Node31 -->
<g id="node31" class="node"><title>Node31</title>
<g id="a_node31"><a xlink:href="../../db/d97/class_box_world.html#ad20a4e43406c44f4bbf201d1d1028998" target="_top" xlink:title="BoxWorld.start">
<polygon fill="white" stroke="black" points="1213,-219.5 1213,-238.5 1299,-238.5 1299,-219.5 1213,-219.5"/>
<text text-anchor="middle" x="1256" y="-226.5" font-family="Helvetica,sans-Serif" font-size="10.00">BoxWorld.start</text>
</a>
</g>
</g>
<!-- Node8&#45;&gt;Node31 -->
<g id="edge54" class="edge"><title>Node8&#45;&gt;Node31</title>
<path fill="none" stroke="midnightblue" d="M492.558,-191C552.491,-191 673.458,-191 776,-191 776,-191 776,-191 941,-191 1033.72,-191 1140.73,-207.531 1202.84,-218.787"/>
<polygon fill="midnightblue" stroke="midnightblue" points="1202.32,-222.249 1212.79,-220.614 1203.59,-215.365 1202.32,-222.249"/>
</g>
<!-- Node10 -->
<g id="node10" class="node"><title>Node10</title>
<g id="a_node10"><a xlink:href="../../db/d97/class_box_world.html#a2542cc74ebeba6a9768a443a55186901" target="_top" xlink:title="BoxWorld.createObstacleArray">
<polygon fill="white" stroke="black" points="1384.5,-124.5 1384.5,-143.5 1545.5,-143.5 1545.5,-124.5 1384.5,-124.5"/>
<text text-anchor="middle" x="1465" y="-131.5" font-family="Helvetica,sans-Serif" font-size="10.00">BoxWorld.createObstacleArray</text>
</a>
</g>
</g>
<!-- Node9&#45;&gt;Node10 -->
<g id="edge9" class="edge"><title>Node9&#45;&gt;Node10</title>
<path fill="none" stroke="midnightblue" d="M1331.73,-134C1345.52,-134 1360.06,-134 1374.24,-134"/>
<polygon fill="midnightblue" stroke="midnightblue" points="1374.49,-137.5 1384.49,-134 1374.49,-130.5 1374.49,-137.5"/>
</g>
<!-- Node12 -->
<g id="node12" class="node"><title>Node12</title>
<g id="a_node12"><a xlink:href="../../db/d97/class_box_world.html#aa7e2049d7be23e15fd2ec7fa2922ed79" target="_top" xlink:title="BoxWorld.handleKeyInput">
<polygon fill="white" stroke="black" points="709,-257.5 709,-276.5 845,-276.5 845,-257.5 709,-257.5"/>
<text text-anchor="middle" x="777" y="-264.5" font-family="Helvetica,sans-Serif" font-size="10.00">BoxWorld.handleKeyInput</text>
</a>
</g>
</g>
<!-- Node11&#45;&gt;Node12 -->
<g id="edge11" class="edge"><title>Node11&#45;&gt;Node12</title>
<path fill="none" stroke="midnightblue" d="M666.252,-279.194C676.818,-278.02 687.922,-276.786 698.843,-275.573"/>
<polygon fill="midnightblue" stroke="midnightblue" points="699.247,-279.05 708.8,-274.467 698.474,-272.093 699.247,-279.05"/>
</g>
<!-- Node40 -->
<g id="node40" class="node"><title>Node40</title>
<g id="a_node40"><a xlink:href="../../db/d97/class_box_world.html#a2d44485a181577acb4d79b6b81f26fff" target="_top" xlink:title="BoxWorld.handleKeyRelease">
<polygon fill="white" stroke="black" points="702.5,-295.5 702.5,-314.5 851.5,-314.5 851.5,-295.5 702.5,-295.5"/>
<text text-anchor="middle" x="777" y="-302.5" font-family="Helvetica,sans-Serif" font-size="10.00">BoxWorld.handleKeyRelease</text>
</a>
</g>
</g>
<!-- Node11&#45;&gt;Node40 -->
<g id="edge53" class="edge"><title>Node11&#45;&gt;Node40</title>
<path fill="none" stroke="midnightblue" d="M666.252,-292.806C674.655,-293.739 683.399,-294.711 692.121,-295.68"/>
<polygon fill="midnightblue" stroke="midnightblue" points="692.002,-299.188 702.327,-296.814 692.775,-292.231 692.002,-299.188"/>
</g>
<!-- Node13 -->
<g id="node13" class="node"><title>Node13</title>
<g id="a_node13"><a xlink:href="../../db/d97/class_box_world.html#adc4c9d78ffde3d052c4c92047eb98e55" target="_top" xlink:title="BoxWorld.allowMovement">
<polygon fill="white" stroke="black" points="1782.5,-67.5 1782.5,-86.5 1919.5,-86.5 1919.5,-67.5 1782.5,-67.5"/>
<text text-anchor="middle" x="1851" y="-74.5" font-family="Helvetica,sans-Serif" font-size="10.00">BoxWorld.allowMovement</text>
</a>
</g>
</g>
<!-- Node12&#45;&gt;Node13 -->
<g id="edge12" class="edge"><title>Node12&#45;&gt;Node13</title>
<path fill="none" stroke="midnightblue" d="M791.263,-257.317C845.646,-218.598 1058,-77 1255,-77 1255,-77 1255,-77 1466,-77 1572.07,-77 1694.62,-77 1772.2,-77"/>
<polygon fill="midnightblue" stroke="midnightblue" points="1772.37,-80.5001 1782.37,-77 1772.37,-73.5001 1772.37,-80.5001"/>
</g>
<!-- Node18 -->
<g id="node18" class="node"><title>Node18</title>
<g id="a_node18"><a xlink:href="../../db/d97/class_box_world.html#a04c6bf977c4292a5433649fb3745fd6b" target="_top" xlink:title="BoxWorld.reset">
<polygon fill="white" stroke="black" points="1421,-257.5 1421,-276.5 1509,-276.5 1509,-257.5 1421,-257.5"/>
<text text-anchor="middle" x="1465" y="-264.5" font-family="Helvetica,sans-Serif" font-size="10.00">BoxWorld.reset</text>
</a>
</g>
</g>
<!-- Node12&#45;&gt;Node18 -->
<g id="edge17" class="edge"><title>Node12&#45;&gt;Node18</title>
<path fill="none" stroke="midnightblue" d="M845.026,-267C980.976,-267 1286.73,-267 1410.49,-267"/>
<polygon fill="midnightblue" stroke="midnightblue" points="1410.83,-270.5 1420.83,-267 1410.83,-263.5 1410.83,-270.5"/>
</g>
<!-- Node19 -->
<g id="node19" class="node"><title>Node19</title>
<g id="a_node19"><a xlink:href="../../da/de2/class_sticky_box.html#aa1bb8f78f676b01c688d75d386758444" target="_top" xlink:title="StickyBox.setDirection">
<polygon fill="white" stroke="black" points="1602,-333.5 1602,-352.5 1726,-352.5 1726,-333.5 1602,-333.5"/>
<text text-anchor="middle" x="1664" y="-340.5" font-family="Helvetica,sans-Serif" font-size="10.00">StickyBox.setDirection</text>
</a>
</g>
</g>
<!-- Node12&#45;&gt;Node19 -->
<g id="edge20" class="edge"><title>Node12&#45;&gt;Node19</title>
<path fill="none" stroke="midnightblue" d="M824.124,-276.54C882.66,-287.796 986.866,-305 1077,-305 1077,-305 1077,-305 1257,-305 1374.79,-305 1510.97,-321.052 1591.88,-332.29"/>
<polygon fill="midnightblue" stroke="midnightblue" points="1591.56,-335.78 1601.95,-333.704 1592.53,-328.848 1591.56,-335.78"/>
</g>
<!-- Node21 -->
<g id="node21" class="node"><title>Node21</title>
<g id="a_node21"><a xlink:href="../../db/d97/class_box_world.html#aad670712776afe126e51791097027e05" target="_top" xlink:title="BoxWorld.winLevel">
<polygon fill="white" stroke="black" points="888.5,-333.5 888.5,-352.5 991.5,-352.5 991.5,-333.5 888.5,-333.5"/>
<text text-anchor="middle" x="940" y="-340.5" font-family="Helvetica,sans-Serif" font-size="10.00">BoxWorld.winLevel</text>
</a>
</g>
</g>
<!-- Node12&#45;&gt;Node21 -->
<g id="edge21" class="edge"><title>Node12&#45;&gt;Node21</title>
<path fill="none" stroke="midnightblue" d="M829.015,-276.567C836.961,-279.048 844.886,-282.145 852,-286 871.083,-296.342 869.975,-306.908 888,-319 893.44,-322.649 899.521,-326.031 905.538,-329.035"/>
<polygon fill="midnightblue" stroke="midnightblue" points="904.299,-332.321 914.836,-333.431 907.291,-325.993 904.299,-332.321"/>
</g>
<!-- Node14 -->
<g id="node14" class="node"><title>Node14</title>
<g id="a_node14"><a xlink:href="../../da/de2/class_sticky_box.html#a6ba3f89630df9d81df5644a3e5f4e387" target="_top" xlink:title="StickyBox.getXDirection">
<polygon fill="white" stroke="black" points="1956.5,-181.5 1956.5,-200.5 2087.5,-200.5 2087.5,-181.5 1956.5,-181.5"/>
<text text-anchor="middle" x="2022" y="-188.5" font-family="Helvetica,sans-Serif" font-size="10.00">StickyBox.getXDirection</text>
</a>
</g>
</g>
<!-- Node13&#45;&gt;Node14 -->
<g id="edge13" class="edge"><title>Node13&#45;&gt;Node14</title>
<path fill="none" stroke="midnightblue" d="M1904.47,-86.5846C1910.08,-89.0431 1915.41,-92.1286 1920,-96 1948.58,-120.091 1927.57,-147.739 1956,-172 1958,-173.703 1960.14,-175.253 1962.38,-176.664"/>
<polygon fill="midnightblue" stroke="midnightblue" points="1961.01,-179.894 1971.49,-181.449 1964.26,-173.698 1961.01,-179.894"/>
</g>
<!-- Node15 -->
<g id="node15" class="node"><title>Node15</title>
<g id="a_node15"><a xlink:href="../../da/de2/class_sticky_box.html#ab0bd7cafb7f243e3951558ddb8728b96" target="_top" xlink:title="StickyBox.getXPrev">
<polygon fill="white" stroke="black" points="1967.5,-57.5 1967.5,-76.5 2076.5,-76.5 2076.5,-57.5 1967.5,-57.5"/>
<text text-anchor="middle" x="2022" y="-64.5" font-family="Helvetica,sans-Serif" font-size="10.00">StickyBox.getXPrev</text>
</a>
</g>
</g>
<!-- Node13&#45;&gt;Node15 -->
<g id="edge14" class="edge"><title>Node13&#45;&gt;Node15</title>
<path fill="none" stroke="midnightblue" d="M1919.76,-72.9902C1932.1,-72.2601 1944.94,-71.5006 1957.16,-70.7774"/>
<polygon fill="midnightblue" stroke="midnightblue" points="1957.48,-74.2646 1967.26,-70.18 1957.07,-67.2768 1957.48,-74.2646"/>
</g>
<!-- Node16 -->
<g id="node16" class="node"><title>Node16</title>
<g id="a_node16"><a xlink:href="../../da/de2/class_sticky_box.html#a69e5ccf2a79159c03dea2e048df13318" target="_top" xlink:title="StickyBox.getYDirection">
<polygon fill="white" stroke="black" points="1957,-143.5 1957,-162.5 2087,-162.5 2087,-143.5 1957,-143.5"/>
<text text-anchor="middle" x="2022" y="-150.5" font-family="Helvetica,sans-Serif" font-size="10.00">StickyBox.getYDirection</text>
</a>
</g>
</g>
<!-- Node13&#45;&gt;Node16 -->
<g id="edge15" class="edge"><title>Node13&#45;&gt;Node16</title>
<path fill="none" stroke="midnightblue" d="M1895.75,-86.5108C1904.03,-89.0595 1912.45,-92.1941 1920,-96 1938.1,-105.121 1938.62,-113.573 1956,-124 1965.56,-129.733 1976.45,-135.025 1986.54,-139.476"/>
<polygon fill="midnightblue" stroke="midnightblue" points="1985.34,-142.768 1995.91,-143.473 1988.09,-136.33 1985.34,-142.768"/>
</g>
<!-- Node17 -->
<g id="node17" class="node"><title>Node17</title>
<g id="a_node17"><a xlink:href="../../da/de2/class_sticky_box.html#a4c6abed944faed9d9b226079e99cfc24" target="_top" xlink:title="StickyBox.getYPrev">
<polygon fill="white" stroke="black" points="1968,-95.5 1968,-114.5 2076,-114.5 2076,-95.5 1968,-95.5"/>
<text text-anchor="middle" x="2022" y="-102.5" font-family="Helvetica,sans-Serif" font-size="10.00">StickyBox.getYPrev</text>
</a>
</g>
</g>
<!-- Node13&#45;&gt;Node17 -->
<g id="edge16" class="edge"><title>Node13&#45;&gt;Node17</title>
<path fill="none" stroke="midnightblue" d="M1909.69,-86.5577C1925.14,-89.1179 1941.93,-91.8992 1957.67,-94.5069"/>
<polygon fill="midnightblue" stroke="midnightblue" points="1957.4,-98.0098 1967.83,-96.1915 1958.54,-91.104 1957.4,-98.0098"/>
</g>
<!-- Node18&#45;&gt;Node19 -->
<g id="edge18" class="edge"><title>Node18&#45;&gt;Node19</title>
<path fill="none" stroke="midnightblue" d="M1509.39,-276.175C1521.69,-279.781 1534.78,-284.625 1546,-291 1564.87,-301.723 1562.81,-313.858 1582,-324 1586.32,-326.284 1590.92,-328.296 1595.64,-330.069"/>
<polygon fill="midnightblue" stroke="midnightblue" points="1594.86,-333.5 1605.45,-333.38 1597.1,-326.868 1594.86,-333.5"/>
</g>
<!-- Node20 -->
<g id="node20" class="node"><title>Node20</title>
<g id="a_node20"><a xlink:href="../../da/de2/class_sticky_box.html#a5d95d2ed2e13f0d87a44311db77f9e36" target="_top" xlink:title="StickyBox.setPreviousDirection">
<polygon fill="white" stroke="black" points="1582,-295.5 1582,-314.5 1746,-314.5 1746,-295.5 1582,-295.5"/>
<text text-anchor="middle" x="1664" y="-302.5" font-family="Helvetica,sans-Serif" font-size="10.00">StickyBox.setPreviousDirection</text>
</a>
</g>
</g>
<!-- Node18&#45;&gt;Node20 -->
<g id="edge19" class="edge"><title>Node18&#45;&gt;Node20</title>
<path fill="none" stroke="midnightblue" d="M1509.23,-275.339C1536.91,-280.678 1573.2,-287.678 1603.57,-293.536"/>
<polygon fill="midnightblue" stroke="midnightblue" points="1603.14,-297.018 1613.62,-295.475 1604.47,-290.145 1603.14,-297.018"/>
</g>
<!-- Node22 -->
<g id="node22" class="node"><title>Node22</title>
<g id="a_node22"><a xlink:href="../../d6/d4f/class_item_box_world.html#aa559fc2680327b41fb376e2eda8e82e3" target="_top" xlink:title="ItemBoxWorld.init">
<polygon fill="white" stroke="black" points="1028.5,-371.5 1028.5,-390.5 1127.5,-390.5 1127.5,-371.5 1028.5,-371.5"/>
<text text-anchor="middle" x="1078" y="-378.5" font-family="Helvetica,sans-Serif" font-size="10.00">ItemBoxWorld.init</text>
</a>
</g>
</g>
<!-- Node21&#45;&gt;Node22 -->
<g id="edge22" class="edge"><title>Node21&#45;&gt;Node22</title>
<path fill="none" stroke="midnightblue" d="M975.319,-352.589C992.794,-357.472 1014.24,-363.464 1032.93,-368.685"/>
<polygon fill="midnightblue" stroke="midnightblue" points="1032.12,-372.094 1042.69,-371.414 1034,-365.352 1032.12,-372.094"/>
</g>
<!-- Node22&#45;&gt;Node2 -->
<g id="edge30" class="edge"><title>Node22&#45;&gt;Node2</title>
<path fill="none" stroke="midnightblue" d="M1080.74,-390.611C1086.59,-419.961 1108.38,-509.038 1164,-552 1169.41,-556.176 1175.51,-559.49 1181.94,-562.114"/>
<polygon fill="midnightblue" stroke="midnightblue" points="1180.95,-565.475 1191.54,-565.483 1183.27,-558.87 1180.95,-565.475"/>
</g>
<!-- Node22&#45;&gt;Node9 -->
<g id="edge28" class="edge"><title>Node22&#45;&gt;Node9</title>
<path fill="none" stroke="midnightblue" d="M1082.2,-371.325C1091.58,-343.946 1121.07,-264.391 1164,-210 1183.35,-185.479 1211.74,-163.323 1231.65,-149.345"/>
<polygon fill="midnightblue" stroke="midnightblue" points="1233.87,-152.063 1240.14,-143.519 1229.91,-146.292 1233.87,-152.063"/>
</g>
<!-- Node22&#45;&gt;Node11 -->
<g id="edge29" class="edge"><title>Node22&#45;&gt;Node11</title>
<path fill="none" stroke="midnightblue" d="M1028.43,-377.868C956.046,-372.254 816.144,-357.745 702,-324 679.255,-317.276 654.358,-307.469 635.483,-299.502"/>
<polygon fill="midnightblue" stroke="midnightblue" points="636.775,-296.248 626.205,-295.53 634.02,-302.683 636.775,-296.248"/>
</g>
<!-- Node23 -->
<g id="node23" class="node"><title>Node23</title>
<g id="a_node23"><a xlink:href="../../d6/d4f/class_item_box_world.html#a7ead15fd9fd8095f928640161d48fdf8" target="_top" xlink:title="ItemBoxWorld.addAllItems">
<polygon fill="white" stroke="black" points="1185.5,-523.5 1185.5,-542.5 1326.5,-542.5 1326.5,-523.5 1185.5,-523.5"/>
<text text-anchor="middle" x="1256" y="-530.5" font-family="Helvetica,sans-Serif" font-size="10.00">ItemBoxWorld.addAllItems</text>
</a>
</g>
</g>
<!-- Node22&#45;&gt;Node23 -->
<g id="edge23" class="edge"><title>Node22&#45;&gt;Node23</title>
<path fill="none" stroke="midnightblue" d="M1082.14,-390.57C1090.81,-415.356 1117.54,-481.941 1164,-514 1167.76,-516.597 1171.81,-518.851 1176.03,-520.807"/>
<polygon fill="midnightblue" stroke="midnightblue" points="1174.91,-524.132 1185.49,-524.631 1177.53,-517.641 1174.91,-524.132"/>
</g>
<!-- Node26 -->
<g id="node26" class="node"><title>Node26</title>
<g id="a_node26"><a xlink:href="../../db/d97/class_box_world.html#a8d7d9f1ae1ebcd87ff73c09780b70629" target="_top" xlink:title="BoxWorld.setAnimation">
<polygon fill="white" stroke="black" points="1192.5,-485.5 1192.5,-504.5 1319.5,-504.5 1319.5,-485.5 1192.5,-485.5"/>
<text text-anchor="middle" x="1256" y="-492.5" font-family="Helvetica,sans-Serif" font-size="10.00">BoxWorld.setAnimation</text>
</a>
</g>
</g>
<!-- Node22&#45;&gt;Node26 -->
<g id="edge31" class="edge"><title>Node22&#45;&gt;Node26</title>
<path fill="none" stroke="midnightblue" d="M1084.63,-390.637C1096.56,-410.15 1126.43,-454.32 1164,-476 1169.82,-479.36 1176.16,-482.13 1182.69,-484.412"/>
<polygon fill="midnightblue" stroke="midnightblue" points="1181.77,-487.791 1192.36,-487.42 1183.85,-481.107 1181.77,-487.791"/>
</g>
<!-- Node27 -->
<g id="node27" class="node"><title>Node27</title>
<g id="a_node27"><a xlink:href="../../db/d97/class_box_world.html#a3735494d6eeffc036cd757eb21170eb0" target="_top" xlink:title="BoxWorld.setObstacleXCoordinates">
<polygon fill="white" stroke="black" points="1164.5,-447.5 1164.5,-466.5 1347.5,-466.5 1347.5,-447.5 1164.5,-447.5"/>
<text text-anchor="middle" x="1256" y="-454.5" font-family="Helvetica,sans-Serif" font-size="10.00">BoxWorld.setObstacleXCoordinates</text>
</a>
</g>
</g>
<!-- Node22&#45;&gt;Node27 -->
<g id="edge32" class="edge"><title>Node22&#45;&gt;Node27</title>
<path fill="none" stroke="midnightblue" d="M1090.27,-390.667C1105.81,-403.479 1135.18,-425.872 1164,-438 1170.2,-440.607 1176.79,-442.869 1183.48,-444.829"/>
<polygon fill="midnightblue" stroke="midnightblue" points="1182.75,-448.258 1193.32,-447.489 1184.58,-441.501 1182.75,-448.258"/>
</g>
<!-- Node28 -->
<g id="node28" class="node"><title>Node28</title>
<g id="a_node28"><a xlink:href="../../db/d97/class_box_world.html#ab45827804913790744cdbaaf8a222256" target="_top" xlink:title="BoxWorld.setObstacleYCoordinates">
<polygon fill="white" stroke="black" points="1165,-409.5 1165,-428.5 1347,-428.5 1347,-409.5 1165,-409.5"/>
<text text-anchor="middle" x="1256" y="-416.5" font-family="Helvetica,sans-Serif" font-size="10.00">BoxWorld.setObstacleYCoordinates</text>
</a>
</g>
</g>
<!-- Node22&#45;&gt;Node28 -->
<g id="edge33" class="edge"><title>Node22&#45;&gt;Node28</title>
<path fill="none" stroke="midnightblue" d="M1121.34,-390.589C1134.96,-393.638 1150.11,-396.997 1164,-400 1175.22,-402.426 1187.24,-404.972 1198.74,-407.382"/>
<polygon fill="midnightblue" stroke="midnightblue" points="1198.17,-410.84 1208.68,-409.46 1199.61,-403.988 1198.17,-410.84"/>
</g>
<!-- Node29 -->
<g id="node29" class="node"><title>Node29</title>
<g id="a_node29"><a xlink:href="../../db/d97/class_box_world.html#aeeaafc4ff103ded208e6c9393eb4ceca" target="_top" xlink:title="BoxWorld.setRoot">
<polygon fill="white" stroke="black" points="1206.5,-371.5 1206.5,-390.5 1305.5,-390.5 1305.5,-371.5 1206.5,-371.5"/>
<text text-anchor="middle" x="1256" y="-378.5" font-family="Helvetica,sans-Serif" font-size="10.00">BoxWorld.setRoot</text>
</a>
</g>
</g>
<!-- Node22&#45;&gt;Node29 -->
<g id="edge34" class="edge"><title>Node22&#45;&gt;Node29</title>
<path fill="none" stroke="midnightblue" d="M1127.56,-381C1148.82,-381 1173.96,-381 1196.27,-381"/>
<polygon fill="midnightblue" stroke="midnightblue" points="1196.29,-384.5 1206.29,-381 1196.29,-377.5 1196.29,-384.5"/>
</g>
<!-- Node30 -->
<g id="node30" class="node"><title>Node30</title>
<g id="a_node30"><a xlink:href="../../db/d97/class_box_world.html#a25c34c68bdd68debd7de01a4f3b98bb1" target="_top" xlink:title="BoxWorld.setStage">
<polygon fill="white" stroke="black" points="1202.5,-333.5 1202.5,-352.5 1309.5,-352.5 1309.5,-333.5 1202.5,-333.5"/>
<text text-anchor="middle" x="1256" y="-340.5" font-family="Helvetica,sans-Serif" font-size="10.00">BoxWorld.setStage</text>
</a>
</g>
</g>
<!-- Node22&#45;&gt;Node30 -->
<g id="edge35" class="edge"><title>Node22&#45;&gt;Node30</title>
<path fill="none" stroke="midnightblue" d="M1121.34,-371.411C1134.96,-368.362 1150.11,-365.003 1164,-362 1175.22,-359.574 1187.24,-357.028 1198.74,-354.618"/>
<polygon fill="midnightblue" stroke="midnightblue" points="1199.61,-358.012 1208.68,-352.54 1198.17,-351.16 1199.61,-358.012"/>
</g>
<!-- Node22&#45;&gt;Node31 -->
<g id="edge36" class="edge"><title>Node22&#45;&gt;Node31</title>
<path fill="none" stroke="midnightblue" d="M1090.01,-371.492C1119.27,-346.221 1199.24,-277.153 1236.03,-245.384"/>
<polygon fill="midnightblue" stroke="midnightblue" points="1238.71,-247.69 1243.99,-238.505 1234.14,-242.392 1238.71,-247.69"/>
</g>
<!-- Node24 -->
<g id="node24" class="node"><title>Node24</title>
<g id="a_node24"><a xlink:href="../../d6/d4f/class_item_box_world.html#af1bcde0672796e926560684004ed8e81" target="_top" xlink:title="ItemBoxWorld.addSingleItem">
<polygon fill="white" stroke="black" points="1388,-532.5 1388,-551.5 1542,-551.5 1542,-532.5 1388,-532.5"/>
<text text-anchor="middle" x="1465" y="-539.5" font-family="Helvetica,sans-Serif" font-size="10.00">ItemBoxWorld.addSingleItem</text>
</a>
</g>
</g>
<!-- Node23&#45;&gt;Node24 -->
<g id="edge24" class="edge"><title>Node23&#45;&gt;Node24</title>
<path fill="none" stroke="midnightblue" d="M1326.5,-536.022C1343,-536.739 1360.79,-537.513 1377.92,-538.258"/>
<polygon fill="midnightblue" stroke="midnightblue" points="1377.78,-541.754 1387.92,-538.692 1378.08,-534.761 1377.78,-541.754"/>
</g>
<!-- Node23&#45;&gt;Node25 -->
<g id="edge26" class="edge"><title>Node23&#45;&gt;Node25</title>
<path fill="none" stroke="midnightblue" d="M1307.78,-542.564C1320.94,-545.327 1335.06,-548.541 1348,-552 1375.11,-559.246 1405.21,-569.162 1427.95,-577.048"/>
<polygon fill="midnightblue" stroke="midnightblue" points="1426.93,-580.401 1437.53,-580.4 1429.25,-573.793 1426.93,-580.401"/>
</g>
<!-- Node24&#45;&gt;Node3 -->
<g id="edge25" class="edge"><title>Node24&#45;&gt;Node3</title>
<path fill="none" stroke="midnightblue" d="M1505.39,-551.598C1536.53,-559.185 1580.17,-569.819 1613.64,-577.973"/>
<polygon fill="midnightblue" stroke="midnightblue" points="1613.13,-581.452 1623.68,-580.418 1614.79,-574.651 1613.13,-581.452"/>
</g>
<!-- Node25&#45;&gt;Node3 -->
<g id="edge27" class="edge"><title>Node25&#45;&gt;Node3</title>
<path fill="none" stroke="midnightblue" d="M1532.15,-590C1555.31,-590 1581.17,-590 1603.73,-590"/>
<polygon fill="midnightblue" stroke="midnightblue" points="1603.85,-593.5 1613.85,-590 1603.85,-586.5 1603.85,-593.5"/>
</g>
<!-- Node32 -->
<g id="node32" class="node"><title>Node32</title>
<g id="a_node32"><a xlink:href="../../db/d97/class_box_world.html#a6794c083c2a0263c2f585f4ae4b7e39c" target="_top" xlink:title="BoxWorld.updateSprites">
<polygon fill="white" stroke="black" points="1399.5,-219.5 1399.5,-238.5 1530.5,-238.5 1530.5,-219.5 1399.5,-219.5"/>
<text text-anchor="middle" x="1465" y="-226.5" font-family="Helvetica,sans-Serif" font-size="10.00">BoxWorld.updateSprites</text>
</a>
</g>
</g>
<!-- Node31&#45;&gt;Node32 -->
<g id="edge37" class="edge"><title>Node31&#45;&gt;Node32</title>
<path fill="none" stroke="midnightblue" d="M1299.14,-229C1325.05,-229 1359,-229 1389.35,-229"/>
<polygon fill="midnightblue" stroke="midnightblue" points="1389.49,-232.5 1399.49,-229 1389.49,-225.5 1389.49,-232.5"/>
</g>
<!-- Node32&#45;&gt;Node14 -->
<g id="edge47" class="edge"><title>Node32&#45;&gt;Node14</title>
<path fill="none" stroke="midnightblue" d="M1530.51,-229.217C1618.74,-228.85 1781.86,-225.801 1920,-210 1935.7,-208.204 1952.64,-205.375 1968.06,-202.444"/>
<polygon fill="midnightblue" stroke="midnightblue" points="1968.81,-205.864 1977.96,-200.513 1967.47,-198.994 1968.81,-205.864"/>
</g>
<!-- Node32&#45;&gt;Node16 -->
<g id="edge48" class="edge"><title>Node32&#45;&gt;Node16</title>
<path fill="none" stroke="midnightblue" d="M1510.64,-219.456C1522.57,-215.89 1535.16,-211.161 1546,-205 1564.87,-194.277 1561.95,-180.304 1582,-172 1645.84,-145.563 1839.16,-147.028 1946.74,-150.143"/>
<polygon fill="midnightblue" stroke="midnightblue" points="1946.78,-153.646 1956.88,-150.449 1946.99,-146.649 1946.78,-153.646"/>
</g>
<!-- Node32&#45;&gt;Node19 -->
<g id="edge50" class="edge"><title>Node32&#45;&gt;Node19</title>
<path fill="none" stroke="midnightblue" d="M1530.08,-238.548C1535.81,-241.035 1541.23,-244.136 1546,-248 1575.04,-271.525 1552.92,-300.516 1582,-324 1585.29,-326.655 1588.88,-328.951 1592.67,-330.936"/>
<polygon fill="midnightblue" stroke="midnightblue" points="1591.24,-334.133 1601.8,-335.024 1594.1,-327.744 1591.24,-334.133"/>
</g>
<!-- Node32&#45;&gt;Node20 -->
<g id="edge51" class="edge"><title>Node32&#45;&gt;Node20</title>
<path fill="none" stroke="midnightblue" d="M1524.35,-238.631C1531.9,-241.08 1539.32,-244.151 1546,-248 1566.16,-259.616 1561.83,-274.412 1582,-286 1585.91,-288.246 1590.07,-290.227 1594.36,-291.974"/>
<polygon fill="midnightblue" stroke="midnightblue" points="1593.33,-295.322 1603.92,-295.436 1595.71,-288.74 1593.33,-295.322"/>
</g>
<!-- Node33 -->
<g id="node33" class="node"><title>Node33</title>
<g id="a_node33"><a xlink:href="../../db/d97/class_box_world.html#a4079bed8937c9f621decfbe1309e31e2" target="_top" xlink:title="BoxWorld.checkAllCollisions">
<polygon fill="white" stroke="black" points="1591,-105.5 1591,-124.5 1737,-124.5 1737,-105.5 1591,-105.5"/>
<text text-anchor="middle" x="1664" y="-112.5" font-family="Helvetica,sans-Serif" font-size="10.00">BoxWorld.checkAllCollisions</text>
</a>
</g>
</g>
<!-- Node32&#45;&gt;Node33 -->
<g id="edge38" class="edge"><title>Node32&#45;&gt;Node33</title>
<path fill="none" stroke="midnightblue" d="M1519.26,-219.38C1528.84,-215.951 1538.23,-211.303 1546,-205 1571.95,-183.952 1556.01,-160.004 1582,-139 1587.29,-134.726 1593.32,-131.213 1599.65,-128.325"/>
<polygon fill="midnightblue" stroke="midnightblue" points="1601.11,-131.508 1609.08,-124.526 1598.5,-125.015 1601.11,-131.508"/>
</g>
<!-- Node38 -->
<g id="node38" class="node"><title>Node38</title>
<g id="a_node38"><a xlink:href="../../da/de2/class_sticky_box.html#a185ee469367b376e6c5969a03d089d57" target="_top" xlink:title="StickyBox.move">
<polygon fill="white" stroke="black" points="1617.5,-181.5 1617.5,-200.5 1710.5,-200.5 1710.5,-181.5 1617.5,-181.5"/>
<text text-anchor="middle" x="1664" y="-188.5" font-family="Helvetica,sans-Serif" font-size="10.00">StickyBox.move</text>
</a>
</g>
</g>
<!-- Node32&#45;&gt;Node38 -->
<g id="edge49" class="edge"><title>Node32&#45;&gt;Node38</title>
<path fill="none" stroke="midnightblue" d="M1515.46,-219.46C1543.39,-214.071 1578.39,-207.32 1607.29,-201.745"/>
<polygon fill="midnightblue" stroke="midnightblue" points="1608.08,-205.157 1617.24,-199.827 1606.76,-198.284 1608.08,-205.157"/>
</g>
<!-- Node39 -->
<g id="node39" class="node"><title>Node39</title>
<g id="a_node39"><a xlink:href="../../da/de2/class_sticky_box.html#a59337f0aa3c7379a2cb9c76bdc621daf" target="_top" xlink:title="StickyBox.setStuck">
<polygon fill="white" stroke="black" points="1610,-257.5 1610,-276.5 1718,-276.5 1718,-257.5 1610,-257.5"/>
<text text-anchor="middle" x="1664" y="-264.5" font-family="Helvetica,sans-Serif" font-size="10.00">StickyBox.setStuck</text>
</a>
</g>
</g>
<!-- Node32&#45;&gt;Node39 -->
<g id="edge52" class="edge"><title>Node32&#45;&gt;Node39</title>
<path fill="none" stroke="midnightblue" d="M1515.46,-238.54C1542.15,-243.69 1575.3,-250.084 1603.42,-255.506"/>
<polygon fill="midnightblue" stroke="midnightblue" points="1603.04,-258.999 1613.52,-257.456 1604.37,-252.125 1603.04,-258.999"/>
</g>
<!-- Node33&#45;&gt;Node21 -->
<g id="edge46" class="edge"><title>Node33&#45;&gt;Node21</title>
<path fill="none" stroke="midnightblue" d="M1637.78,-124.537C1614.32,-133.087 1578.22,-145.418 1546,-153 1378.91,-192.315 1325.66,-152.277 1164,-210 1083.04,-238.908 998.945,-298.557 961.317,-327.101"/>
<polygon fill="midnightblue" stroke="midnightblue" points="958.994,-324.472 953.189,-333.335 963.254,-330.026 958.994,-324.472"/>
</g>
<!-- Node34 -->
<g id="node34" class="node"><title>Node34</title>
<g id="a_node34"><a xlink:href="../../db/d97/class_box_world.html#a55add11037cd6dc48556f2f42a9e11be" target="_top" xlink:title="BoxWorld.checkCollide">
<polygon fill="white" stroke="black" points="1790,-181.5 1790,-200.5 1912,-200.5 1912,-181.5 1790,-181.5"/>
<text text-anchor="middle" x="1851" y="-188.5" font-family="Helvetica,sans-Serif" font-size="10.00">BoxWorld.checkCollide</text>
</a>
</g>
</g>
<!-- Node33&#45;&gt;Node34 -->
<g id="edge39" class="edge"><title>Node33&#45;&gt;Node34</title>
<path fill="none" stroke="midnightblue" d="M1688.43,-124.625C1721.1,-138.045 1780.46,-162.434 1817.42,-177.617"/>
<polygon fill="midnightblue" stroke="midnightblue" points="1816.18,-180.89 1826.76,-181.453 1818.84,-174.415 1816.18,-180.89"/>
</g>
<!-- Node35 -->
<g id="node35" class="node"><title>Node35</title>
<g id="a_node35"><a xlink:href="../../db/d97/class_box_world.html#a72bacb2a6757900d8835249929fcc838" target="_top" xlink:title="BoxWorld.loseGame">
<polygon fill="white" stroke="black" points="1795,-29.5 1795,-48.5 1907,-48.5 1907,-29.5 1795,-29.5"/>
<text text-anchor="middle" x="1851" y="-36.5" font-family="Helvetica,sans-Serif" font-size="10.00">BoxWorld.loseGame</text>
</a>
</g>
</g>
<!-- Node33&#45;&gt;Node35 -->
<g id="edge42" class="edge"><title>Node33&#45;&gt;Node35</title>
<path fill="none" stroke="midnightblue" d="M1682.01,-105.498C1704.4,-93.2734 1745.25,-71.9563 1782,-58 1788.24,-55.6319 1794.89,-53.412 1801.51,-51.3843"/>
<polygon fill="midnightblue" stroke="midnightblue" points="1802.52,-54.7359 1811.13,-48.5561 1800.55,-48.0204 1802.52,-54.7359"/>
</g>
<!-- Node37 -->
<g id="node37" class="node"><title>Node37</title>
<g id="a_node37"><a xlink:href="../../db/d97/class_box_world.html#a167adb49603af3a303ee958011243b5f" target="_top" xlink:title="BoxWorld.onScreen">
<polygon fill="white" stroke="black" points="1796.5,-105.5 1796.5,-124.5 1905.5,-124.5 1905.5,-105.5 1796.5,-105.5"/>
<text text-anchor="middle" x="1851" y="-112.5" font-family="Helvetica,sans-Serif" font-size="10.00">BoxWorld.onScreen</text>
</a>
</g>
</g>
<!-- Node33&#45;&gt;Node37 -->
<g id="edge45" class="edge"><title>Node33&#45;&gt;Node37</title>
<path fill="none" stroke="midnightblue" d="M1737.06,-115C1753.28,-115 1770.4,-115 1786.26,-115"/>
<polygon fill="midnightblue" stroke="midnightblue" points="1786.48,-118.5 1796.48,-115 1786.48,-111.5 1786.48,-118.5"/>
</g>
<!-- Node34&#45;&gt;Node14 -->
<g id="edge40" class="edge"><title>Node34&#45;&gt;Node14</title>
<path fill="none" stroke="midnightblue" d="M1912.06,-191C1923.03,-191 1934.6,-191 1945.94,-191"/>
<polygon fill="midnightblue" stroke="midnightblue" points="1946.26,-194.5 1956.26,-191 1946.26,-187.5 1946.26,-194.5"/>
</g>
<!-- Node34&#45;&gt;Node16 -->
<g id="edge41" class="edge"><title>Node34&#45;&gt;Node16</title>
<path fill="none" stroke="midnightblue" d="M1894.65,-181.411C1917.15,-176.351 1944.95,-170.1 1968.74,-164.751"/>
<polygon fill="midnightblue" stroke="midnightblue" points="1969.67,-168.129 1978.66,-162.52 1968.14,-161.299 1969.67,-168.129"/>
</g>
<!-- Node36 -->
<g id="node36" class="node"><title>Node36</title>
<g id="a_node36"><a xlink:href="../../d4/d2f/class_lose_screen.html#a34f2cc2c803500316c9b8d854854d758" target="_top" xlink:title="LoseScreen.init">
<polygon fill="white" stroke="black" points="1977,-0.5 1977,-19.5 2067,-19.5 2067,-0.5 1977,-0.5"/>
<text text-anchor="middle" x="2022" y="-7.5" font-family="Helvetica,sans-Serif" font-size="10.00">LoseScreen.init</text>
</a>
</g>
</g>
<!-- Node35&#45;&gt;Node36 -->
<g id="edge43" class="edge"><title>Node35&#45;&gt;Node36</title>
<path fill="none" stroke="midnightblue" d="M1907.34,-29.5043C1926.43,-26.2278 1947.79,-22.5627 1966.79,-19.3018"/>
<polygon fill="midnightblue" stroke="midnightblue" points="1967.52,-22.7284 1976.78,-17.5874 1966.34,-15.8292 1967.52,-22.7284"/>
</g>
<!-- Node36&#45;&gt;Node6 -->
<g id="edge44" class="edge"><title>Node36&#45;&gt;Node6</title>
<path fill="none" stroke="midnightblue" d="M1976.89,-8.16787C1909.62,-5.5364 1777.37,-1 1665,-1 603,-1 603,-1 603,-1 479.962,-1 380.16,-140.967 347.963,-191.817"/>
<polygon fill="midnightblue" stroke="midnightblue" points="344.888,-190.134 342.592,-200.477 350.837,-193.823 344.888,-190.134"/>
</g>
</g>
</svg>
