<?xml version="1.0" encoding="UTF-8" standalone="no"?>
<!DOCTYPE svg PUBLIC "-//W3C//DTD SVG 1.1//EN"
 "http://www.w3.org/Graphics/SVG/1.1/DTD/svg11.dtd">
<!-- Generated by graphviz version 2.36.0 (20140111.2315)
 -->
<!-- Title: ItemBoxWorld.winLevel Pages: 1 -->
<svg width="2042pt" height="354pt"
 viewBox="0.00 0.00 2042.00 354.00" xmlns="http://www.w3.org/2000/svg" xmlns:xlink="http://www.w3.org/1999/xlink">
<g id="graph0" class="graph" transform="scale(1 1) rotate(0) translate(4 350.004)">
<title>ItemBoxWorld.winLevel</title>
<polygon fill="white" stroke="none" points="-4,4 -4,-350.004 2038,-350.004 2038,4 -4,4"/>
<!-- Node1 -->
<g id="node1" class="node"><title>Node1</title>
<polygon fill="#bfbfbf" stroke="black" points="0.5,-203.5 0.5,-222.5 125.5,-222.5 125.5,-203.5 0.5,-203.5"/>
<text text-anchor="middle" x="63" y="-210.5" font-family="Helvetica,sans-Serif" font-size="10.00">ItemBoxWorld.winLevel</text>
</g>
<!-- Node2 -->
<g id="node2" class="node"><title>Node2</title>
<g id="a_node2"><a xlink:href="../../d1/de1/class_end_screen.html#a1264ffb72b3a3032443f9c4087222aef" target="_top" xlink:title="EndScreen.init">
<polygon fill="white" stroke="black" points="162,-146.5 162,-165.5 248,-165.5 248,-146.5 162,-146.5"/>
<text text-anchor="middle" x="205" y="-153.5" font-family="Helvetica,sans-Serif" font-size="10.00">EndScreen.init</text>
</a>
</g>
</g>
<!-- Node1&#45;&gt;Node2 -->
<g id="edge1" class="edge"><title>Node1&#45;&gt;Node2</title>
<path fill="none" stroke="midnightblue" d="M87.4329,-203.459C110.349,-194.13 145.45,-179.838 171.147,-169.376"/>
<polygon fill="midnightblue" stroke="midnightblue" points="172.549,-172.584 180.491,-165.572 169.909,-166.101 172.549,-172.584"/>
</g>
<!-- Node22 -->
<g id="node22" class="node"><title>Node22</title>
<g id="a_node22"><a xlink:href="../../d6/d4f/class_item_box_world.html#a1890e6c53a4a73e44e9528009fde508d" target="_top" xlink:title="ItemBoxWorld.itemExists">
<polygon fill="white" stroke="black" points="1344,-104.5 1344,-123.5 1478,-123.5 1478,-104.5 1344,-104.5"/>
<text text-anchor="middle" x="1411" y="-111.5" font-family="Helvetica,sans-Serif" font-size="10.00">ItemBoxWorld.itemExists</text>
</a>
</g>
</g>
<!-- Node1&#45;&gt;Node22 -->
<g id="edge44" class="edge"><title>Node1&#45;&gt;Node22</title>
<path fill="none" stroke="midnightblue" d="M125.591,-218.778C175.944,-223.003 249.013,-228 313,-228 313,-228 313,-228 1057,-228 1162.67,-228 1198.67,-254.602 1294,-209 1314.99,-198.96 1312.44,-186.266 1330,-171 1347.81,-155.515 1369.74,-140.117 1386.13,-129.235"/>
<polygon fill="midnightblue" stroke="midnightblue" points="1388.16,-132.09 1394.61,-123.683 1384.32,-126.235 1388.16,-132.09"/>
</g>
<!-- Node3 -->
<g id="node3" class="node"><title>Node3</title>
<g id="a_node3"><a xlink:href="../../d2/db8/class_menu.html#a3c99ad09e9f2f975c1a0d0597642651a" target="_top" xlink:title="Menu.init">
<polygon fill="white" stroke="black" points="284,-118.5 284,-137.5 344,-137.5 344,-118.5 284,-118.5"/>
<text text-anchor="middle" x="314" y="-125.5" font-family="Helvetica,sans-Serif" font-size="10.00">Menu.init</text>
</a>
</g>
</g>
<!-- Node2&#45;&gt;Node3 -->
<g id="edge2" class="edge"><title>Node2&#45;&gt;Node3</title>
<path fill="none" stroke="midnightblue" d="M242.524,-146.442C252.604,-143.805 263.581,-140.932 273.806,-138.256"/>
<polygon fill="midnightblue" stroke="midnightblue" points="274.931,-141.58 283.719,-135.662 273.158,-134.808 274.931,-141.58"/>
</g>
<!-- Node4 -->
<g id="node4" class="node"><title>Node4</title>
<g id="a_node4"><a xlink:href="../../d2/db8/class_menu.html#a8a6e6125f0dc2dc7e19c6655ba6376a2" target="_top" xlink:title="Menu.addIntroText">
<polygon fill="white" stroke="black" points="380,-104.5 380,-123.5 484,-123.5 484,-104.5 380,-104.5"/>
<text text-anchor="middle" x="432" y="-111.5" font-family="Helvetica,sans-Serif" font-size="10.00">Menu.addIntroText</text>
</a>
</g>
</g>
<!-- Node3&#45;&gt;Node4 -->
<g id="edge3" class="edge"><title>Node3&#45;&gt;Node4</title>
<path fill="none" stroke="midnightblue" d="M344.272,-124.467C352.074,-123.526 360.804,-122.472 369.639,-121.406"/>
<polygon fill="midnightblue" stroke="midnightblue" points="370.106,-124.875 379.614,-120.202 369.267,-117.925 370.106,-124.875"/>
</g>
<!-- Node5 -->
<g id="node5" class="node"><title>Node5</title>
<g id="a_node5"><a xlink:href="../../db/d97/class_box_world.html#a55bf92d3f466bfaade0f6d199d8c9bd9" target="_top" xlink:title="BoxWorld.init">
<polygon fill="white" stroke="black" points="393.5,-142.5 393.5,-161.5 470.5,-161.5 470.5,-142.5 393.5,-142.5"/>
<text text-anchor="middle" x="432" y="-149.5" font-family="Helvetica,sans-Serif" font-size="10.00">BoxWorld.init</text>
</a>
</g>
</g>
<!-- Node3&#45;&gt;Node5 -->
<g id="edge4" class="edge"><title>Node3&#45;&gt;Node5</title>
<path fill="none" stroke="midnightblue" d="M344.272,-134.056C356.145,-136.513 370.168,-139.414 383.436,-142.159"/>
<polygon fill="midnightblue" stroke="midnightblue" points="382.886,-145.62 393.388,-144.218 384.305,-138.765 382.886,-145.62"/>
</g>
<!-- Node6 -->
<g id="node6" class="node"><title>Node6</title>
<g id="a_node6"><a xlink:href="../../db/d97/class_box_world.html#a69798621c944e846f045aaf3937505f9" target="_top" xlink:title="BoxWorld.addStarterObjects">
<polygon fill="white" stroke="black" points="1142.5,-66.5 1142.5,-85.5 1293.5,-85.5 1293.5,-66.5 1142.5,-66.5"/>
<text text-anchor="middle" x="1218" y="-73.5" font-family="Helvetica,sans-Serif" font-size="10.00">BoxWorld.addStarterObjects</text>
</a>
</g>
</g>
<!-- Node5&#45;&gt;Node6 -->
<g id="edge5" class="edge"><title>Node5&#45;&gt;Node6</title>
<path fill="none" stroke="midnightblue" d="M464.918,-142.452C534.248,-122.039 696.945,-76 754,-76 754,-76 754,-76 919,-76 990.893,-76 1072.54,-76 1132.17,-76"/>
<polygon fill="midnightblue" stroke="midnightblue" points="1132.29,-79.5001 1142.29,-76 1132.29,-72.5001 1132.29,-79.5001"/>
</g>
<!-- Node8 -->
<g id="node8" class="node"><title>Node8</title>
<g id="a_node8"><a xlink:href="../../db/d97/class_box_world.html#a726e747e023543658d7a345cc6466ccb" target="_top" xlink:title="BoxWorld.createScene">
<polygon fill="white" stroke="black" points="520,-142.5 520,-161.5 644,-161.5 644,-142.5 520,-142.5"/>
<text text-anchor="middle" x="582" y="-149.5" font-family="Helvetica,sans-Serif" font-size="10.00">BoxWorld.createScene</text>
</a>
</g>
</g>
<!-- Node5&#45;&gt;Node8 -->
<g id="edge7" class="edge"><title>Node5&#45;&gt;Node8</title>
<path fill="none" stroke="midnightblue" d="M470.73,-152C482.604,-152 496.135,-152 509.553,-152"/>
<polygon fill="midnightblue" stroke="midnightblue" points="509.763,-155.5 519.763,-152 509.763,-148.5 509.763,-155.5"/>
</g>
<!-- Node23 -->
<g id="node23" class="node"><title>Node23</title>
<g id="a_node23"><a xlink:href="../../db/d97/class_box_world.html#ad20a4e43406c44f4bbf201d1d1028998" target="_top" xlink:title="BoxWorld.start">
<polygon fill="white" stroke="black" points="1175,-180.5 1175,-199.5 1261,-199.5 1261,-180.5 1175,-180.5"/>
<text text-anchor="middle" x="1218" y="-187.5" font-family="Helvetica,sans-Serif" font-size="10.00">BoxWorld.start</text>
</a>
</g>
</g>
<!-- Node5&#45;&gt;Node23 -->
<g id="edge43" class="edge"><title>Node5&#45;&gt;Node23</title>
<path fill="none" stroke="midnightblue" d="M470.91,-161.436C486.09,-164.91 503.791,-168.583 520,-171 623.201,-186.388 649.658,-190 754,-190 754,-190 754,-190 919,-190 1004.9,-190 1104.72,-190 1164.28,-190"/>
<polygon fill="midnightblue" stroke="midnightblue" points="1164.56,-193.5 1174.56,-190 1164.56,-186.5 1164.56,-193.5"/>
</g>
<!-- Node7 -->
<g id="node7" class="node"><title>Node7</title>
<g id="a_node7"><a xlink:href="../../db/d97/class_box_world.html#a2542cc74ebeba6a9768a443a55186901" target="_top" xlink:title="BoxWorld.createObstacleArray">
<polygon fill="white" stroke="black" points="1330.5,-28.5 1330.5,-47.5 1491.5,-47.5 1491.5,-28.5 1330.5,-28.5"/>
<text text-anchor="middle" x="1411" y="-35.5" font-family="Helvetica,sans-Serif" font-size="10.00">BoxWorld.createObstacleArray</text>
</a>
</g>
</g>
<!-- Node6&#45;&gt;Node7 -->
<g id="edge6" class="edge"><title>Node6&#45;&gt;Node7</title>
<path fill="none" stroke="midnightblue" d="M1267.2,-66.411C1292.97,-61.2835 1324.89,-54.9328 1352.01,-49.5368"/>
<polygon fill="midnightblue" stroke="midnightblue" points="1353.02,-52.9041 1362.15,-47.5201 1351.66,-46.0387 1353.02,-52.9041"/>
</g>
<!-- Node9 -->
<g id="node9" class="node"><title>Node9</title>
<g id="a_node9"><a xlink:href="../../db/d97/class_box_world.html#aa7e2049d7be23e15fd2ec7fa2922ed79" target="_top" xlink:title="BoxWorld.handleKeyInput">
<polygon fill="white" stroke="black" points="687,-256.5 687,-275.5 823,-275.5 823,-256.5 687,-256.5"/>
<text text-anchor="middle" x="755" y="-263.5" font-family="Helvetica,sans-Serif" font-size="10.00">BoxWorld.handleKeyInput</text>
</a>
</g>
</g>
<!-- Node8&#45;&gt;Node9 -->
<g id="edge8" class="edge"><title>Node8&#45;&gt;Node9</title>
<path fill="none" stroke="midnightblue" d="M597.285,-161.523C626.885,-181.256 695.138,-226.758 731.013,-250.675"/>
<polygon fill="midnightblue" stroke="midnightblue" points="729.131,-253.627 739.393,-256.262 733.014,-247.803 729.131,-253.627"/>
</g>
<!-- Node32 -->
<g id="node32" class="node"><title>Node32</title>
<g id="a_node32"><a xlink:href="../../db/d97/class_box_world.html#a2d44485a181577acb4d79b6b81f26fff" target="_top" xlink:title="BoxWorld.handleKeyRelease">
<polygon fill="white" stroke="black" points="680.5,-142.5 680.5,-161.5 829.5,-161.5 829.5,-142.5 680.5,-142.5"/>
<text text-anchor="middle" x="755" y="-149.5" font-family="Helvetica,sans-Serif" font-size="10.00">BoxWorld.handleKeyRelease</text>
</a>
</g>
</g>
<!-- Node8&#45;&gt;Node32 -->
<g id="edge42" class="edge"><title>Node8&#45;&gt;Node32</title>
<path fill="none" stroke="midnightblue" d="M644.252,-152C652.655,-152 661.399,-152 670.121,-152"/>
<polygon fill="midnightblue" stroke="midnightblue" points="670.327,-155.5 680.327,-152 670.327,-148.5 670.327,-155.5"/>
</g>
<!-- Node10 -->
<g id="node10" class="node"><title>Node10</title>
<g id="a_node10"><a xlink:href="../../db/d97/class_box_world.html#adc4c9d78ffde3d052c4c92047eb98e55" target="_top" xlink:title="BoxWorld.allowMovement">
<polygon fill="white" stroke="black" points="1728.5,-256.5 1728.5,-275.5 1865.5,-275.5 1865.5,-256.5 1728.5,-256.5"/>
<text text-anchor="middle" x="1797" y="-263.5" font-family="Helvetica,sans-Serif" font-size="10.00">BoxWorld.allowMovement</text>
</a>
</g>
</g>
<!-- Node9&#45;&gt;Node10 -->
<g id="edge9" class="edge"><title>Node9&#45;&gt;Node10</title>
<path fill="none" stroke="midnightblue" d="M778.016,-275.625C826.862,-296.076 948.415,-342 1055,-342 1055,-342 1055,-342 1412,-342 1536.73,-342 1572.29,-358.016 1692,-323 1722.68,-314.028 1754.39,-294.979 1774.6,-281.373"/>
<polygon fill="midnightblue" stroke="midnightblue" points="1776.79,-284.117 1783.03,-275.56 1772.81,-278.354 1776.79,-284.117"/>
</g>
<!-- Node15 -->
<g id="node15" class="node"><title>Node15</title>
<g id="a_node15"><a xlink:href="../../db/d97/class_box_world.html#a04c6bf977c4292a5433649fb3745fd6b" target="_top" xlink:title="BoxWorld.reset">
<polygon fill="white" stroke="black" points="1367,-256.5 1367,-275.5 1455,-275.5 1455,-256.5 1367,-256.5"/>
<text text-anchor="middle" x="1411" y="-263.5" font-family="Helvetica,sans-Serif" font-size="10.00">BoxWorld.reset</text>
</a>
</g>
</g>
<!-- Node9&#45;&gt;Node15 -->
<g id="edge14" class="edge"><title>Node9&#45;&gt;Node15</title>
<path fill="none" stroke="midnightblue" d="M823.221,-266C953.58,-266 1238.3,-266 1356.7,-266"/>
<polygon fill="midnightblue" stroke="midnightblue" points="1356.96,-269.5 1366.96,-266 1356.96,-262.5 1356.96,-269.5"/>
</g>
<!-- Node16 -->
<g id="node16" class="node"><title>Node16</title>
<g id="a_node16"><a xlink:href="../../da/de2/class_sticky_box.html#aa1bb8f78f676b01c688d75d386758444" target="_top" xlink:title="StickyBox.setDirection">
<polygon fill="white" stroke="black" points="1548,-294.5 1548,-313.5 1672,-313.5 1672,-294.5 1548,-294.5"/>
<text text-anchor="middle" x="1610" y="-301.5" font-family="Helvetica,sans-Serif" font-size="10.00">StickyBox.setDirection</text>
</a>
</g>
</g>
<!-- Node9&#45;&gt;Node16 -->
<g id="edge17" class="edge"><title>Node9&#45;&gt;Node16</title>
<path fill="none" stroke="midnightblue" d="M802.124,-275.54C860.66,-286.796 964.866,-304 1055,-304 1055,-304 1055,-304 1219,-304 1330.29,-304 1459.45,-304 1537.65,-304"/>
<polygon fill="midnightblue" stroke="midnightblue" points="1537.87,-307.5 1547.87,-304 1537.87,-300.5 1537.87,-307.5"/>
</g>
<!-- Node18 -->
<g id="node18" class="node"><title>Node18</title>
<g id="a_node18"><a xlink:href="../../db/d97/class_box_world.html#aad670712776afe126e51791097027e05" target="_top" xlink:title="BoxWorld.winLevel">
<polygon fill="white" stroke="black" points="866.5,-142.5 866.5,-161.5 969.5,-161.5 969.5,-142.5 866.5,-142.5"/>
<text text-anchor="middle" x="918" y="-149.5" font-family="Helvetica,sans-Serif" font-size="10.00">BoxWorld.winLevel</text>
</a>
</g>
</g>
<!-- Node9&#45;&gt;Node18 -->
<g id="edge18" class="edge"><title>Node9&#45;&gt;Node18</title>
<path fill="none" stroke="midnightblue" d="M769.45,-256.477C797.2,-236.827 861.036,-191.627 894.926,-167.63"/>
<polygon fill="midnightblue" stroke="midnightblue" points="897.108,-170.373 903.247,-161.738 893.063,-164.66 897.108,-170.373"/>
</g>
<!-- Node11 -->
<g id="node11" class="node"><title>Node11</title>
<g id="a_node11"><a xlink:href="../../da/de2/class_sticky_box.html#a6ba3f89630df9d81df5644a3e5f4e387" target="_top" xlink:title="StickyBox.getXDirection">
<polygon fill="white" stroke="black" points="1902.5,-218.5 1902.5,-237.5 2033.5,-237.5 2033.5,-218.5 1902.5,-218.5"/>
<text text-anchor="middle" x="1968" y="-225.5" font-family="Helvetica,sans-Serif" font-size="10.00">StickyBox.getXDirection</text>
</a>
</g>
</g>
<!-- Node10&#45;&gt;Node11 -->
<g id="edge10" class="edge"><title>Node10&#45;&gt;Node11</title>
<path fill="none" stroke="midnightblue" d="M1840.65,-256.411C1863.15,-251.351 1890.95,-245.1 1914.74,-239.751"/>
<polygon fill="midnightblue" stroke="midnightblue" points="1915.67,-243.129 1924.66,-237.52 1914.14,-236.299 1915.67,-243.129"/>
</g>
<!-- Node12 -->
<g id="node12" class="node"><title>Node12</title>
<g id="a_node12"><a xlink:href="../../da/de2/class_sticky_box.html#ab0bd7cafb7f243e3951558ddb8728b96" target="_top" xlink:title="StickyBox.getXPrev">
<polygon fill="white" stroke="black" points="1913.5,-294.5 1913.5,-313.5 2022.5,-313.5 2022.5,-294.5 1913.5,-294.5"/>
<text text-anchor="middle" x="1968" y="-301.5" font-family="Helvetica,sans-Serif" font-size="10.00">StickyBox.getXPrev</text>
</a>
</g>
</g>
<!-- Node10&#45;&gt;Node12 -->
<g id="edge11" class="edge"><title>Node10&#45;&gt;Node12</title>
<path fill="none" stroke="midnightblue" d="M1840.65,-275.589C1863.15,-280.649 1890.95,-286.9 1914.74,-292.249"/>
<polygon fill="midnightblue" stroke="midnightblue" points="1914.14,-295.701 1924.66,-294.48 1915.67,-288.871 1914.14,-295.701"/>
</g>
<!-- Node13 -->
<g id="node13" class="node"><title>Node13</title>
<g id="a_node13"><a xlink:href="../../da/de2/class_sticky_box.html#a69e5ccf2a79159c03dea2e048df13318" target="_top" xlink:title="StickyBox.getYDirection">
<polygon fill="white" stroke="black" points="1903,-180.5 1903,-199.5 2033,-199.5 2033,-180.5 1903,-180.5"/>
<text text-anchor="middle" x="1968" y="-187.5" font-family="Helvetica,sans-Serif" font-size="10.00">StickyBox.getYDirection</text>
</a>
</g>
</g>
<!-- Node10&#45;&gt;Node13 -->
<g id="edge12" class="edge"><title>Node10&#45;&gt;Node13</title>
<path fill="none" stroke="midnightblue" d="M1812.99,-256.424C1832.75,-244.119 1868.9,-222.716 1902,-209 1907.5,-206.722 1913.36,-204.602 1919.23,-202.667"/>
<polygon fill="midnightblue" stroke="midnightblue" points="1920.56,-205.919 1929.05,-199.589 1918.47,-199.239 1920.56,-205.919"/>
</g>
<!-- Node14 -->
<g id="node14" class="node"><title>Node14</title>
<g id="a_node14"><a xlink:href="../../da/de2/class_sticky_box.html#a4c6abed944faed9d9b226079e99cfc24" target="_top" xlink:title="StickyBox.getYPrev">
<polygon fill="white" stroke="black" points="1914,-256.5 1914,-275.5 2022,-275.5 2022,-256.5 1914,-256.5"/>
<text text-anchor="middle" x="1968" y="-263.5" font-family="Helvetica,sans-Serif" font-size="10.00">StickyBox.getYPrev</text>
</a>
</g>
</g>
<!-- Node10&#45;&gt;Node14 -->
<g id="edge13" class="edge"><title>Node10&#45;&gt;Node14</title>
<path fill="none" stroke="midnightblue" d="M1865.76,-266C1878.25,-266 1891.24,-266 1903.59,-266"/>
<polygon fill="midnightblue" stroke="midnightblue" points="1903.78,-269.5 1913.78,-266 1903.78,-262.5 1903.78,-269.5"/>
</g>
<!-- Node15&#45;&gt;Node16 -->
<g id="edge15" class="edge"><title>Node15&#45;&gt;Node16</title>
<path fill="none" stroke="midnightblue" d="M1455.23,-274.339C1482.91,-279.678 1519.2,-286.678 1549.57,-292.536"/>
<polygon fill="midnightblue" stroke="midnightblue" points="1549.14,-296.018 1559.62,-294.475 1550.47,-289.145 1549.14,-296.018"/>
</g>
<!-- Node17 -->
<g id="node17" class="node"><title>Node17</title>
<g id="a_node17"><a xlink:href="../../da/de2/class_sticky_box.html#a5d95d2ed2e13f0d87a44311db77f9e36" target="_top" xlink:title="StickyBox.setPreviousDirection">
<polygon fill="white" stroke="black" points="1528,-256.5 1528,-275.5 1692,-275.5 1692,-256.5 1528,-256.5"/>
<text text-anchor="middle" x="1610" y="-263.5" font-family="Helvetica,sans-Serif" font-size="10.00">StickyBox.setPreviousDirection</text>
</a>
</g>
</g>
<!-- Node15&#45;&gt;Node17 -->
<g id="edge16" class="edge"><title>Node15&#45;&gt;Node17</title>
<path fill="none" stroke="midnightblue" d="M1455.23,-266C1473.61,-266 1495.79,-266 1517.52,-266"/>
<polygon fill="midnightblue" stroke="midnightblue" points="1517.78,-269.5 1527.78,-266 1517.78,-262.5 1517.78,-269.5"/>
</g>
<!-- Node19 -->
<g id="node19" class="node"><title>Node19</title>
<g id="a_node19"><a xlink:href="../../d6/d4f/class_item_box_world.html#aa559fc2680327b41fb376e2eda8e82e3" target="_top" xlink:title="ItemBoxWorld.init">
<polygon fill="white" stroke="black" points="1006.5,-104.5 1006.5,-123.5 1105.5,-123.5 1105.5,-104.5 1006.5,-104.5"/>
<text text-anchor="middle" x="1056" y="-111.5" font-family="Helvetica,sans-Serif" font-size="10.00">ItemBoxWorld.init</text>
</a>
</g>
</g>
<!-- Node18&#45;&gt;Node19 -->
<g id="edge19" class="edge"><title>Node18&#45;&gt;Node19</title>
<path fill="none" stroke="midnightblue" d="M953.319,-142.411C970.794,-137.528 992.241,-131.536 1010.93,-126.315"/>
<polygon fill="midnightblue" stroke="midnightblue" points="1012,-129.648 1020.69,-123.586 1010.12,-122.906 1012,-129.648"/>
</g>
<!-- Node19&#45;&gt;Node6 -->
<g id="edge23" class="edge"><title>Node19&#45;&gt;Node6</title>
<path fill="none" stroke="midnightblue" d="M1097.37,-104.411C1118.49,-99.3965 1144.53,-93.2119 1166.92,-87.8947"/>
<polygon fill="midnightblue" stroke="midnightblue" points="1167.99,-91.2361 1176.92,-85.5201 1166.38,-84.4256 1167.99,-91.2361"/>
</g>
<!-- Node19&#45;&gt;Node8 -->
<g id="edge24" class="edge"><title>Node19&#45;&gt;Node8</title>
<path fill="none" stroke="midnightblue" d="M1006.27,-114.253C934.546,-115.126 796.465,-118.717 680,-133 665.192,-134.816 649.255,-137.59 634.663,-140.461"/>
<polygon fill="midnightblue" stroke="midnightblue" points="633.915,-137.042 624.807,-142.454 635.302,-143.903 633.915,-137.042"/>
</g>
<!-- Node20 -->
<g id="node20" class="node"><title>Node20</title>
<g id="a_node20"><a xlink:href="../../d6/d4f/class_item_box_world.html#a7ead15fd9fd8095f928640161d48fdf8" target="_top" xlink:title="ItemBoxWorld.addAllItems">
<polygon fill="white" stroke="black" points="1147.5,-104.5 1147.5,-123.5 1288.5,-123.5 1288.5,-104.5 1147.5,-104.5"/>
<text text-anchor="middle" x="1218" y="-111.5" font-family="Helvetica,sans-Serif" font-size="10.00">ItemBoxWorld.addAllItems</text>
</a>
</g>
</g>
<!-- Node19&#45;&gt;Node20 -->
<g id="edge20" class="edge"><title>Node19&#45;&gt;Node20</title>
<path fill="none" stroke="midnightblue" d="M1105.87,-114C1115.76,-114 1126.41,-114 1137.05,-114"/>
<polygon fill="midnightblue" stroke="midnightblue" points="1137.22,-117.5 1147.22,-114 1137.22,-110.5 1137.22,-117.5"/>
</g>
<!-- Node19&#45;&gt;Node23 -->
<g id="edge25" class="edge"><title>Node19&#45;&gt;Node23</title>
<path fill="none" stroke="midnightblue" d="M1077.26,-123.625C1105.16,-136.874 1155.55,-160.813 1187.59,-176.031"/>
<polygon fill="midnightblue" stroke="midnightblue" points="1186.37,-179.324 1196.9,-180.453 1189.37,-173.001 1186.37,-179.324"/>
</g>
<!-- Node21 -->
<g id="node21" class="node"><title>Node21</title>
<g id="a_node21"><a xlink:href="../../d6/d4f/class_item_box_world.html#af1bcde0672796e926560684004ed8e81" target="_top" xlink:title="ItemBoxWorld.addSingleItem">
<polygon fill="white" stroke="black" points="1334,-66.5 1334,-85.5 1488,-85.5 1488,-66.5 1334,-66.5"/>
<text text-anchor="middle" x="1411" y="-73.5" font-family="Helvetica,sans-Serif" font-size="10.00">ItemBoxWorld.addSingleItem</text>
</a>
</g>
</g>
<!-- Node20&#45;&gt;Node21 -->
<g id="edge21" class="edge"><title>Node20&#45;&gt;Node21</title>
<path fill="none" stroke="midnightblue" d="M1267.2,-104.411C1292.97,-99.2835 1324.89,-92.9328 1352.01,-87.5368"/>
<polygon fill="midnightblue" stroke="midnightblue" points="1353.02,-90.9041 1362.15,-85.5201 1351.66,-84.0387 1353.02,-90.9041"/>
</g>
<!-- Node20&#45;&gt;Node22 -->
<g id="edge22" class="edge"><title>Node20&#45;&gt;Node22</title>
<path fill="none" stroke="midnightblue" d="M1288.77,-114C1303.4,-114 1318.9,-114 1333.76,-114"/>
<polygon fill="midnightblue" stroke="midnightblue" points="1333.92,-117.5 1343.92,-114 1333.92,-110.5 1333.92,-117.5"/>
</g>
<!-- Node24 -->
<g id="node24" class="node"><title>Node24</title>
<g id="a_node24"><a xlink:href="../../db/d97/class_box_world.html#a6794c083c2a0263c2f585f4ae4b7e39c" target="_top" xlink:title="BoxWorld.updateSprites">
<polygon fill="white" stroke="black" points="1345.5,-180.5 1345.5,-199.5 1476.5,-199.5 1476.5,-180.5 1345.5,-180.5"/>
<text text-anchor="middle" x="1411" y="-187.5" font-family="Helvetica,sans-Serif" font-size="10.00">BoxWorld.updateSprites</text>
</a>
</g>
</g>
<!-- Node23&#45;&gt;Node24 -->
<g id="edge26" class="edge"><title>Node23&#45;&gt;Node24</title>
<path fill="none" stroke="midnightblue" d="M1261.39,-190C1283.03,-190 1310,-190 1335,-190"/>
<polygon fill="midnightblue" stroke="midnightblue" points="1335.2,-193.5 1345.2,-190 1335.2,-186.5 1335.2,-193.5"/>
</g>
<!-- Node24&#45;&gt;Node11 -->
<g id="edge36" class="edge"><title>Node24&#45;&gt;Node11</title>
<path fill="none" stroke="midnightblue" d="M1462.07,-199.54C1482.45,-203.072 1506.28,-206.759 1528,-209 1655.56,-222.16 1804.88,-226.229 1892.38,-227.473"/>
<polygon fill="midnightblue" stroke="midnightblue" points="1892.43,-230.973 1902.48,-227.607 1892.53,-223.974 1892.43,-230.973"/>
</g>
<!-- Node24&#45;&gt;Node13 -->
<g id="edge37" class="edge"><title>Node24&#45;&gt;Node13</title>
<path fill="none" stroke="midnightblue" d="M1459.19,-180.487C1480.17,-176.722 1505.22,-172.853 1528,-171 1677.73,-158.819 1716.43,-157.054 1866,-171 1882.32,-172.522 1899.94,-175.399 1915.82,-178.462"/>
<polygon fill="midnightblue" stroke="midnightblue" points="1915.48,-181.963 1925.97,-180.489 1916.85,-175.098 1915.48,-181.963"/>
</g>
<!-- Node24&#45;&gt;Node16 -->
<g id="edge39" class="edge"><title>Node24&#45;&gt;Node16</title>
<path fill="none" stroke="midnightblue" d="M1427.39,-199.683C1444,-210.417 1470.9,-228.648 1492,-247 1509.56,-262.266 1507.83,-273.412 1528,-285 1531.91,-287.246 1536.07,-289.227 1540.36,-290.974"/>
<polygon fill="midnightblue" stroke="midnightblue" points="1539.33,-294.322 1549.92,-294.436 1541.71,-287.74 1539.33,-294.322"/>
</g>
<!-- Node24&#45;&gt;Node17 -->
<g id="edge40" class="edge"><title>Node24&#45;&gt;Node17</title>
<path fill="none" stroke="midnightblue" d="M1431.37,-199.644C1454.14,-210.751 1493.23,-229.121 1528,-242 1539.28,-246.177 1551.64,-250.14 1563.23,-253.597"/>
<polygon fill="midnightblue" stroke="midnightblue" points="1562.6,-257.058 1573.18,-256.499 1564.56,-250.338 1562.6,-257.058"/>
</g>
<!-- Node25 -->
<g id="node25" class="node"><title>Node25</title>
<g id="a_node25"><a xlink:href="../../db/d97/class_box_world.html#a4079bed8937c9f621decfbe1309e31e2" target="_top" xlink:title="BoxWorld.checkAllCollisions">
<polygon fill="white" stroke="black" points="1537,-66.5 1537,-85.5 1683,-85.5 1683,-66.5 1537,-66.5"/>
<text text-anchor="middle" x="1610" y="-73.5" font-family="Helvetica,sans-Serif" font-size="10.00">BoxWorld.checkAllCollisions</text>
</a>
</g>
</g>
<!-- Node24&#45;&gt;Node25 -->
<g id="edge27" class="edge"><title>Node24&#45;&gt;Node25</title>
<path fill="none" stroke="midnightblue" d="M1465.83,-180.415C1475.25,-176.984 1484.44,-172.326 1492,-166 1519.14,-143.303 1500.18,-116.859 1528,-95 1530.29,-93.2013 1532.72,-91.568 1535.26,-90.0853"/>
<polygon fill="midnightblue" stroke="midnightblue" points="1536.85,-93.2022 1544.23,-85.6025 1533.72,-86.9399 1536.85,-93.2022"/>
</g>
<!-- Node30 -->
<g id="node30" class="node"><title>Node30</title>
<g id="a_node30"><a xlink:href="../../da/de2/class_sticky_box.html#a185ee469367b376e6c5969a03d089d57" target="_top" xlink:title="StickyBox.move">
<polygon fill="white" stroke="black" points="1563.5,-104.5 1563.5,-123.5 1656.5,-123.5 1656.5,-104.5 1563.5,-104.5"/>
<text text-anchor="middle" x="1610" y="-111.5" font-family="Helvetica,sans-Serif" font-size="10.00">StickyBox.move</text>
</a>
</g>
</g>
<!-- Node24&#45;&gt;Node30 -->
<g id="edge38" class="edge"><title>Node24&#45;&gt;Node30</title>
<path fill="none" stroke="midnightblue" d="M1454.25,-180.481C1466.77,-176.831 1480.27,-172.049 1492,-166 1510.01,-156.707 1509.97,-147.262 1528,-138 1536.71,-133.523 1546.4,-129.749 1555.95,-126.615"/>
<polygon fill="midnightblue" stroke="midnightblue" points="1557.28,-129.867 1565.81,-123.578 1555.22,-123.177 1557.28,-129.867"/>
</g>
<!-- Node31 -->
<g id="node31" class="node"><title>Node31</title>
<g id="a_node31"><a xlink:href="../../da/de2/class_sticky_box.html#a59337f0aa3c7379a2cb9c76bdc621daf" target="_top" xlink:title="StickyBox.setStuck">
<polygon fill="white" stroke="black" points="1556,-180.5 1556,-199.5 1664,-199.5 1664,-180.5 1556,-180.5"/>
<text text-anchor="middle" x="1610" y="-187.5" font-family="Helvetica,sans-Serif" font-size="10.00">StickyBox.setStuck</text>
</a>
</g>
</g>
<!-- Node24&#45;&gt;Node31 -->
<g id="edge41" class="edge"><title>Node24&#45;&gt;Node31</title>
<path fill="none" stroke="midnightblue" d="M1476.51,-190C1498.69,-190 1523.49,-190 1545.59,-190"/>
<polygon fill="midnightblue" stroke="midnightblue" points="1545.86,-193.5 1555.86,-190 1545.86,-186.5 1545.86,-193.5"/>
</g>
<!-- Node25&#45;&gt;Node18 -->
<g id="edge35" class="edge"><title>Node25&#45;&gt;Node18</title>
<path fill="none" stroke="midnightblue" d="M1549.92,-85.5636C1542.28,-88.0234 1534.76,-91.1149 1528,-95 1507.83,-106.588 1513.22,-123.455 1492,-133 1402.08,-173.458 1108.11,-162.671 979.811,-155.728"/>
<polygon fill="midnightblue" stroke="midnightblue" points="979.937,-152.23 969.759,-155.173 979.551,-159.219 979.937,-152.23"/>
</g>
<!-- Node26 -->
<g id="node26" class="node"><title>Node26</title>
<g id="a_node26"><a xlink:href="../../db/d97/class_box_world.html#a55add11037cd6dc48556f2f42a9e11be" target="_top" xlink:title="BoxWorld.checkCollide">
<polygon fill="white" stroke="black" points="1736,-180.5 1736,-199.5 1858,-199.5 1858,-180.5 1736,-180.5"/>
<text text-anchor="middle" x="1797" y="-187.5" font-family="Helvetica,sans-Serif" font-size="10.00">BoxWorld.checkCollide</text>
</a>
</g>
</g>
<!-- Node25&#45;&gt;Node26 -->
<g id="edge28" class="edge"><title>Node25&#45;&gt;Node26</title>
<path fill="none" stroke="midnightblue" d="M1668.11,-85.5028C1676.38,-87.9796 1684.59,-91.092 1692,-95 1729.43,-114.738 1763.77,-151.195 1782.1,-172.752"/>
<polygon fill="midnightblue" stroke="midnightblue" points="1779.44,-175.025 1788.53,-180.475 1784.82,-170.549 1779.44,-175.025"/>
</g>
<!-- Node27 -->
<g id="node27" class="node"><title>Node27</title>
<g id="a_node27"><a xlink:href="../../db/d97/class_box_world.html#a72bacb2a6757900d8835249929fcc838" target="_top" xlink:title="BoxWorld.loseGame">
<polygon fill="white" stroke="black" points="1741,-28.5 1741,-47.5 1853,-47.5 1853,-28.5 1741,-28.5"/>
<text text-anchor="middle" x="1797" y="-35.5" font-family="Helvetica,sans-Serif" font-size="10.00">BoxWorld.loseGame</text>
</a>
</g>
</g>
<!-- Node25&#45;&gt;Node27 -->
<g id="edge31" class="edge"><title>Node25&#45;&gt;Node27</title>
<path fill="none" stroke="midnightblue" d="M1657.68,-66.411C1682.65,-61.2835 1713.56,-54.9328 1739.83,-49.5368"/>
<polygon fill="midnightblue" stroke="midnightblue" points="1740.56,-52.9606 1749.65,-47.5201 1739.15,-46.1038 1740.56,-52.9606"/>
</g>
<!-- Node29 -->
<g id="node29" class="node"><title>Node29</title>
<g id="a_node29"><a xlink:href="../../db/d97/class_box_world.html#ae6ffad41f7ba6122234157c72afe8f9c" target="_top" xlink:title="BoxWorld.onScreen">
<polygon fill="white" stroke="black" points="1742.5,-66.5 1742.5,-85.5 1851.5,-85.5 1851.5,-66.5 1742.5,-66.5"/>
<text text-anchor="middle" x="1797" y="-73.5" font-family="Helvetica,sans-Serif" font-size="10.00">BoxWorld.onScreen</text>
</a>
</g>
</g>
<!-- Node25&#45;&gt;Node29 -->
<g id="edge34" class="edge"><title>Node25&#45;&gt;Node29</title>
<path fill="none" stroke="midnightblue" d="M1683.06,-76C1699.28,-76 1716.4,-76 1732.26,-76"/>
<polygon fill="midnightblue" stroke="midnightblue" points="1732.48,-79.5001 1742.48,-76 1732.48,-72.5001 1732.48,-79.5001"/>
</g>
<!-- Node26&#45;&gt;Node11 -->
<g id="edge29" class="edge"><title>Node26&#45;&gt;Node11</title>
<path fill="none" stroke="midnightblue" d="M1840.65,-199.589C1863.15,-204.649 1890.95,-210.9 1914.74,-216.249"/>
<polygon fill="midnightblue" stroke="midnightblue" points="1914.14,-219.701 1924.66,-218.48 1915.67,-212.871 1914.14,-219.701"/>
</g>
<!-- Node26&#45;&gt;Node13 -->
<g id="edge30" class="edge"><title>Node26&#45;&gt;Node13</title>
<path fill="none" stroke="midnightblue" d="M1858.06,-190C1869.29,-190 1881.14,-190 1892.74,-190"/>
<polygon fill="midnightblue" stroke="midnightblue" points="1892.84,-193.5 1902.84,-190 1892.84,-186.5 1892.84,-193.5"/>
</g>
<!-- Node28 -->
<g id="node28" class="node"><title>Node28</title>
<g id="a_node28"><a xlink:href="../../d4/d2f/class_lose_screen.html#a34f2cc2c803500316c9b8d854854d758" target="_top" xlink:title="LoseScreen.init">
<polygon fill="white" stroke="black" points="1923,-9.5 1923,-28.5 2013,-28.5 2013,-9.5 1923,-9.5"/>
<text text-anchor="middle" x="1968" y="-16.5" font-family="Helvetica,sans-Serif" font-size="10.00">LoseScreen.init</text>
</a>
</g>
</g>
<!-- Node27&#45;&gt;Node28 -->
<g id="edge32" class="edge"><title>Node27&#45;&gt;Node28</title>
<path fill="none" stroke="midnightblue" d="M1853.34,-31.7787C1872.43,-29.632 1893.79,-27.2307 1912.79,-25.0943"/>
<polygon fill="midnightblue" stroke="midnightblue" points="1913.24,-28.5665 1922.78,-23.9711 1912.46,-21.6103 1913.24,-28.5665"/>
</g>
<!-- Node28&#45;&gt;Node3 -->
<g id="edge33" class="edge"><title>Node28&#45;&gt;Node3</title>
<path fill="none" stroke="midnightblue" d="M1922.92,-15.1322C1855.69,-9.57685 1723.49,-1.42109e-14 1611,-0 581,-0 581,-0 581,-0 479.088,-1.42109e-14 375.002,-77.2334 333.611,-111.714"/>
<polygon fill="midnightblue" stroke="midnightblue" points="331.115,-109.241 325.754,-118.379 335.644,-114.579 331.115,-109.241"/>
</g>
</g>
</svg>
