<?xml version="1.0" encoding="UTF-8" standalone="no"?>
<!DOCTYPE svg PUBLIC "-//W3C//DTD SVG 1.1//EN"
 "http://www.w3.org/Graphics/SVG/1.1/DTD/svg11.dtd">
<!-- Generated by graphviz version 2.36.0 (20140111.2315)
 -->
<!-- Title: ItemBoxWorld.init Pages: 1 -->
<svg width="1412pt" height="180pt"
 viewBox="0.00 0.00 1412.00 180.00" xmlns="http://www.w3.org/2000/svg" xmlns:xlink="http://www.w3.org/1999/xlink">
<g id="graph0" class="graph" transform="scale(1 1) rotate(0) translate(4 176)">
<title>ItemBoxWorld.init</title>
<polygon fill="white" stroke="none" points="-4,4 -4,-176 1408,-176 1408,4 -4,4"/>
<!-- Node1 -->
<g id="node1" class="node"><title>Node1</title>
<polygon fill="#bfbfbf" stroke="black" points="0.5,-95.5 0.5,-114.5 99.5,-114.5 99.5,-95.5 0.5,-95.5"/>
<text text-anchor="middle" x="50" y="-102.5" font-family="Helvetica,sans-Serif" font-size="10.00">ItemBoxWorld.init</text>
</g>
<!-- Node2 -->
<g id="node2" class="node"><title>Node2</title>
<g id="a_node2"><a xlink:href="../../db/d97/class_box_world.html#aad670712776afe126e51791097027e05" target="_top" xlink:title="BoxWorld.winLevel">
<polygon fill="white" stroke="black" points="136.5,-95.5 136.5,-114.5 239.5,-114.5 239.5,-95.5 136.5,-95.5"/>
<text text-anchor="middle" x="188" y="-102.5" font-family="Helvetica,sans-Serif" font-size="10.00">BoxWorld.winLevel</text>
</a>
</g>
</g>
<!-- Node1&#45;&gt;Node2 -->
<g id="edge1" class="edge"><title>Node1&#45;&gt;Node2</title>
<path fill="none" stroke="midnightblue" d="M109.915,-105C118.715,-105 127.722,-105 136.331,-105"/>
<polygon fill="midnightblue" stroke="midnightblue" points="109.715,-101.5 99.715,-105 109.715,-108.5 109.715,-101.5"/>
</g>
<!-- Node3 -->
<g id="node3" class="node"><title>Node3</title>
<g id="a_node3"><a xlink:href="../../db/d97/class_box_world.html#a4079bed8937c9f621decfbe1309e31e2" target="_top" xlink:title="BoxWorld.checkAllCollisions">
<polygon fill="white" stroke="black" points="276,-76.5 276,-95.5 422,-95.5 422,-76.5 276,-76.5"/>
<text text-anchor="middle" x="349" y="-83.5" font-family="Helvetica,sans-Serif" font-size="10.00">BoxWorld.checkAllCollisions</text>
</a>
</g>
</g>
<!-- Node2&#45;&gt;Node3 -->
<g id="edge2" class="edge"><title>Node2&#45;&gt;Node3</title>
<path fill="none" stroke="midnightblue" d="M249.879,-97.7251C258.33,-96.7152 267.079,-95.6698 275.713,-94.638"/>
<polygon fill="midnightblue" stroke="midnightblue" points="249.26,-94.2742 239.746,-98.936 250.09,-101.225 249.26,-94.2742"/>
</g>
<!-- Node14 -->
<g id="node14" class="node"><title>Node14</title>
<g id="a_node14"><a xlink:href="../../db/d97/class_box_world.html#aa7e2049d7be23e15fd2ec7fa2922ed79" target="_top" xlink:title="BoxWorld.handleKeyInput">
<polygon fill="white" stroke="black" points="281,-114.5 281,-133.5 417,-133.5 417,-114.5 281,-114.5"/>
<text text-anchor="middle" x="349" y="-121.5" font-family="Helvetica,sans-Serif" font-size="10.00">BoxWorld.handleKeyInput</text>
</a>
</g>
</g>
<!-- Node2&#45;&gt;Node14 -->
<g id="edge15" class="edge"><title>Node2&#45;&gt;Node14</title>
<path fill="none" stroke="midnightblue" d="M249.76,-112.261C259.946,-113.478 270.567,-114.747 280.901,-115.982"/>
<polygon fill="midnightblue" stroke="midnightblue" points="250.09,-108.775 239.746,-111.064 249.26,-115.726 250.09,-108.775"/>
</g>
<!-- Node4 -->
<g id="node4" class="node"><title>Node4</title>
<g id="a_node4"><a xlink:href="../../db/d97/class_box_world.html#a6794c083c2a0263c2f585f4ae4b7e39c" target="_top" xlink:title="BoxWorld.updateSprites">
<polygon fill="white" stroke="black" points="458.5,-76.5 458.5,-95.5 589.5,-95.5 589.5,-76.5 458.5,-76.5"/>
<text text-anchor="middle" x="524" y="-83.5" font-family="Helvetica,sans-Serif" font-size="10.00">BoxWorld.updateSprites</text>
</a>
</g>
</g>
<!-- Node3&#45;&gt;Node4 -->
<g id="edge3" class="edge"><title>Node3&#45;&gt;Node4</title>
<path fill="none" stroke="midnightblue" d="M432.354,-86C441.116,-86 449.936,-86 458.451,-86"/>
<polygon fill="midnightblue" stroke="midnightblue" points="432.115,-82.5001 422.115,-86 432.115,-89.5001 432.115,-82.5001"/>
</g>
<!-- Node5 -->
<g id="node5" class="node"><title>Node5</title>
<g id="a_node5"><a xlink:href="../../db/d97/class_box_world.html#ad20a4e43406c44f4bbf201d1d1028998" target="_top" xlink:title="BoxWorld.start">
<polygon fill="white" stroke="black" points="626,-38.5 626,-57.5 712,-57.5 712,-38.5 626,-38.5"/>
<text text-anchor="middle" x="669" y="-45.5" font-family="Helvetica,sans-Serif" font-size="10.00">BoxWorld.start</text>
</a>
</g>
</g>
<!-- Node4&#45;&gt;Node5 -->
<g id="edge4" class="edge"><title>Node4&#45;&gt;Node5</title>
<path fill="none" stroke="midnightblue" d="M570.813,-73.8258C590.587,-68.5713 613.384,-62.5134 631.927,-57.5859"/>
<polygon fill="midnightblue" stroke="midnightblue" points="569.851,-70.4601 561.085,-76.411 571.648,-77.2253 569.851,-70.4601"/>
</g>
<!-- Node5&#45;&gt;Node1 -->
<g id="edge5" class="edge"><title>Node5&#45;&gt;Node1</title>
<path fill="none" stroke="midnightblue" d="M615.89,-48.072C520.097,-49.0101 309.899,-54.8221 136,-86 121.116,-88.6685 104.89,-92.1514 90.6421,-95.4052"/>
<polygon fill="midnightblue" stroke="midnightblue" points="615.928,-51.5719 625.898,-47.9879 615.869,-44.5721 615.928,-51.5719"/>
</g>
<!-- Node6 -->
<g id="node6" class="node"><title>Node6</title>
<g id="a_node6"><a xlink:href="../../db/d97/class_box_world.html#a55bf92d3f466bfaade0f6d199d8c9bd9" target="_top" xlink:title="BoxWorld.init">
<polygon fill="white" stroke="black" points="748.5,-38.5 748.5,-57.5 825.5,-57.5 825.5,-38.5 748.5,-38.5"/>
<text text-anchor="middle" x="787" y="-45.5" font-family="Helvetica,sans-Serif" font-size="10.00">BoxWorld.init</text>
</a>
</g>
</g>
<!-- Node5&#45;&gt;Node6 -->
<g id="edge6" class="edge"><title>Node5&#45;&gt;Node6</title>
<path fill="none" stroke="midnightblue" d="M722.33,-48C731.062,-48 739.968,-48 748.244,-48"/>
<polygon fill="midnightblue" stroke="midnightblue" points="722.207,-44.5001 712.207,-48 722.207,-51.5001 722.207,-44.5001"/>
</g>
<!-- Node7 -->
<g id="node7" class="node"><title>Node7</title>
<g id="a_node7"><a xlink:href="../../d2/db8/class_menu.html#a3c99ad09e9f2f975c1a0d0597642651a" target="_top" xlink:title="Menu.init">
<polygon fill="white" stroke="black" points="862,-38.5 862,-57.5 922,-57.5 922,-38.5 862,-38.5"/>
<text text-anchor="middle" x="892" y="-45.5" font-family="Helvetica,sans-Serif" font-size="10.00">Menu.init</text>
</a>
</g>
</g>
<!-- Node6&#45;&gt;Node7 -->
<g id="edge7" class="edge"><title>Node6&#45;&gt;Node7</title>
<path fill="none" stroke="midnightblue" d="M836.034,-48C844.886,-48 853.875,-48 861.949,-48"/>
<polygon fill="midnightblue" stroke="midnightblue" points="835.769,-44.5001 825.769,-48 835.768,-51.5001 835.769,-44.5001"/>
</g>
<!-- Node8 -->
<g id="node8" class="node"><title>Node8</title>
<g id="a_node8"><a xlink:href="../../d1/de1/class_end_screen.html#a1264ffb72b3a3032443f9c4087222aef" target="_top" xlink:title="EndScreen.init">
<polygon fill="white" stroke="black" points="960,-0.5 960,-19.5 1046,-19.5 1046,-0.5 960,-0.5"/>
<text text-anchor="middle" x="1003" y="-7.5" font-family="Helvetica,sans-Serif" font-size="10.00">EndScreen.init</text>
</a>
</g>
</g>
<!-- Node7&#45;&gt;Node8 -->
<g id="edge8" class="edge"><title>Node7&#45;&gt;Node8</title>
<path fill="none" stroke="midnightblue" d="M930.209,-35.0282C944.73,-29.9656 961.079,-24.2659 974.503,-19.5859"/>
<polygon fill="midnightblue" stroke="midnightblue" points="928.796,-31.8141 920.505,-38.411 931.1,-38.4239 928.796,-31.8141"/>
</g>
<!-- Node11 -->
<g id="node11" class="node"><title>Node11</title>
<g id="a_node11"><a xlink:href="../../d4/d2f/class_lose_screen.html#a34f2cc2c803500316c9b8d854854d758" target="_top" xlink:title="LoseScreen.init">
<polygon fill="white" stroke="black" points="958,-38.5 958,-57.5 1048,-57.5 1048,-38.5 958,-38.5"/>
<text text-anchor="middle" x="1003" y="-45.5" font-family="Helvetica,sans-Serif" font-size="10.00">LoseScreen.init</text>
</a>
</g>
</g>
<!-- Node7&#45;&gt;Node11 -->
<g id="edge11" class="edge"><title>Node7&#45;&gt;Node11</title>
<path fill="none" stroke="midnightblue" d="M932.383,-48C940.679,-48 949.483,-48 957.938,-48"/>
<polygon fill="midnightblue" stroke="midnightblue" points="932.21,-44.5001 922.21,-48 932.21,-51.5001 932.21,-44.5001"/>
</g>
<!-- Node13 -->
<g id="node13" class="node"><title>Node13</title>
<g id="a_node13"><a xlink:href="../../d0/d4b/class_main.html#a7595d13c514a02c35aca322dd91d2063" target="_top" xlink:title="Main.start">
<polygon fill="white" stroke="black" points="970.5,-76.5 970.5,-95.5 1035.5,-95.5 1035.5,-76.5 970.5,-76.5"/>
<text text-anchor="middle" x="1003" y="-83.5" font-family="Helvetica,sans-Serif" font-size="10.00">Main.start</text>
</a>
</g>
</g>
<!-- Node7&#45;&gt;Node13 -->
<g id="edge14" class="edge"><title>Node7&#45;&gt;Node13</title>
<path fill="none" stroke="midnightblue" d="M930.209,-60.9718C944.73,-66.0344 961.079,-71.7341 974.503,-76.4141"/>
<polygon fill="midnightblue" stroke="midnightblue" points="931.1,-57.5761 920.505,-57.589 928.796,-64.1859 931.1,-57.5761"/>
</g>
<!-- Node9 -->
<g id="node9" class="node"><title>Node9</title>
<g id="a_node9"><a xlink:href="../../d6/d4f/class_item_box_world.html#a2ed12a6b39993faedc05cc682204476d" target="_top" xlink:title="ItemBoxWorld.winLevel">
<polygon fill="white" stroke="black" points="1084.5,-0.5 1084.5,-19.5 1209.5,-19.5 1209.5,-0.5 1084.5,-0.5"/>
<text text-anchor="middle" x="1147" y="-7.5" font-family="Helvetica,sans-Serif" font-size="10.00">ItemBoxWorld.winLevel</text>
</a>
</g>
</g>
<!-- Node8&#45;&gt;Node9 -->
<g id="edge9" class="edge"><title>Node8&#45;&gt;Node9</title>
<path fill="none" stroke="midnightblue" d="M1056.34,-10C1065.5,-10 1075.11,-10 1084.5,-10"/>
<polygon fill="midnightblue" stroke="midnightblue" points="1056.22,-6.5001 1046.22,-10 1056.22,-13.5001 1056.22,-6.5001"/>
</g>
<!-- Node10 -->
<g id="node10" class="node"><title>Node10</title>
<g id="a_node10"><a xlink:href="../../d6/d4f/class_item_box_world.html#ae442d947b4dafc944336ee27628d2175" target="_top" xlink:title="ItemBoxWorld.handleKeyInput">
<polygon fill="white" stroke="black" points="1246,-0.5 1246,-19.5 1404,-19.5 1404,-0.5 1246,-0.5"/>
<text text-anchor="middle" x="1325" y="-7.5" font-family="Helvetica,sans-Serif" font-size="10.00">ItemBoxWorld.handleKeyInput</text>
</a>
</g>
</g>
<!-- Node9&#45;&gt;Node10 -->
<g id="edge10" class="edge"><title>Node9&#45;&gt;Node10</title>
<path fill="none" stroke="midnightblue" d="M1219.57,-10C1228.2,-10 1237.05,-10 1245.77,-10"/>
<polygon fill="midnightblue" stroke="midnightblue" points="1219.56,-6.5001 1209.56,-10 1219.56,-13.5001 1219.56,-6.5001"/>
</g>
<!-- Node12 -->
<g id="node12" class="node"><title>Node12</title>
<g id="a_node12"><a xlink:href="../../db/d97/class_box_world.html#a72bacb2a6757900d8835249929fcc838" target="_top" xlink:title="BoxWorld.loseGame">
<polygon fill="white" stroke="black" points="1091,-76.5 1091,-95.5 1203,-95.5 1203,-76.5 1091,-76.5"/>
<text text-anchor="middle" x="1147" y="-83.5" font-family="Helvetica,sans-Serif" font-size="10.00">BoxWorld.loseGame</text>
</a>
</g>
</g>
<!-- Node11&#45;&gt;Node12 -->
<g id="edge12" class="edge"><title>Node11&#45;&gt;Node12</title>
<path fill="none" stroke="midnightblue" d="M1049.49,-60.1742C1069.13,-65.4287 1091.77,-71.4866 1110.18,-76.4141"/>
<polygon fill="midnightblue" stroke="midnightblue" points="1050.4,-56.7931 1039.83,-57.589 1048.59,-63.5552 1050.4,-56.7931"/>
</g>
<!-- Node12&#45;&gt;Node3 -->
<g id="edge13" class="edge"><title>Node12&#45;&gt;Node3</title>
<path fill="none" stroke="midnightblue" d="M1096.8,-97.833C1046.05,-108.986 964.472,-124 893,-124 668,-124 668,-124 668,-124 572.227,-124 461.368,-106.796 399.084,-95.54"/>
<polygon fill="midnightblue" stroke="midnightblue" points="1097.84,-101.187 1106.83,-95.589 1096.31,-94.3557 1097.84,-101.187"/>
</g>
<!-- Node15 -->
<g id="node15" class="node"><title>Node15</title>
<g id="a_node15"><a xlink:href="../../db/d97/class_box_world.html#a726e747e023543658d7a345cc6466ccb" target="_top" xlink:title="BoxWorld.createScene">
<polygon fill="white" stroke="black" points="462,-152.5 462,-171.5 586,-171.5 586,-152.5 462,-152.5"/>
<text text-anchor="middle" x="524" y="-159.5" font-family="Helvetica,sans-Serif" font-size="10.00">BoxWorld.createScene</text>
</a>
</g>
</g>
<!-- Node14&#45;&gt;Node15 -->
<g id="edge16" class="edge"><title>Node14&#45;&gt;Node15</title>
<path fill="none" stroke="midnightblue" d="M403.505,-135.753C427.967,-141.126 456.571,-147.409 479.659,-152.48"/>
<polygon fill="midnightblue" stroke="midnightblue" points="404.173,-132.316 393.655,-133.589 402.671,-139.153 404.173,-132.316"/>
</g>
<!-- Node15&#45;&gt;Node1 -->
<g id="edge17" class="edge"><title>Node15&#45;&gt;Node1</title>
<path fill="none" stroke="midnightblue" d="M451.732,-158.407C373.733,-153.684 245.226,-143.583 136,-124 121.116,-121.332 104.89,-117.849 90.6421,-114.595"/>
<polygon fill="midnightblue" stroke="midnightblue" points="451.737,-161.913 461.927,-159.01 452.151,-154.925 451.737,-161.913"/>
</g>
<!-- Node15&#45;&gt;Node6 -->
<g id="edge18" class="edge"><title>Node15&#45;&gt;Node6</title>
<path fill="none" stroke="midnightblue" d="M556.13,-148.403C609.627,-125.036 717.716,-77.8252 764.075,-57.5766"/>
<polygon fill="midnightblue" stroke="midnightblue" points="554.567,-145.266 546.804,-152.477 557.369,-151.681 554.567,-145.266"/>
</g>
</g>
</svg>
