<?xml version="1.0" encoding="UTF-8" standalone="no"?>
<!DOCTYPE svg PUBLIC "-//W3C//DTD SVG 1.1//EN"
 "http://www.w3.org/Graphics/SVG/1.1/DTD/svg11.dtd">
<!-- Generated by graphviz version 2.36.0 (20140111.2315)
 -->
<!-- Title: BoxWorld.createScene Pages: 1 -->
<!--zoomable 540 -->
<svg id="main" version="1.1" xmlns="http://www.w3.org/2000/svg" xmlns:xlink="http://www.w3.org/1999/xlink" xml:space="preserve" onload="init(evt)">
<style type="text/css"><![CDATA[
.edge:hover path { stroke: red; }
.edge:hover polygon { stroke: red; fill: red; }
]]></style>
<script type="text/javascript"><![CDATA[
var edges = document.getElementsByTagName('g');
if (edges && edges.length) {
  for (var i=0;i<edges.length;i++) {
    if (edges[i].id.substr(0,4)=='edge') {
      edges[i].setAttribute('class','edge');
    }
  }
}
]]></script>
        <defs>
                <circle id="rim" cx="0" cy="0" r="7"/>
                <circle id="rim2" cx="0" cy="0" r="3.5"/>
                <g id="zoomPlus">
                        <use xlink:href="#rim" fill="#404040">
                                <set attributeName="fill" to="#808080" begin="zoomplus.mouseover" end="zoomplus.mouseout"/>
                        </use>
                        <path d="M-4,0h8M0,-4v8" fill="none" stroke="white" stroke-width="1.5" pointer-events="none"/>
                </g>
                <g id="zoomMin">
                        <use xlink:href="#rim" fill="#404040">
                                <set attributeName="fill" to="#808080" begin="zoomminus.mouseover" end="zoomminus.mouseout"/>
                        </use>
                        <path d="M-4,0h8" fill="none" stroke="white" stroke-width="1.5" pointer-events="none"/>
                </g>
                <g id="dirArrow">
                        <path fill="none" stroke="white" stroke-width="1.5" d="M0,-3.0v7 M-2.5,-0.5L0,-3.0L2.5,-0.5"/>
                </g>
               <g id="resetDef">
                       <use xlink:href="#rim2" fill="#404040">
                               <set attributeName="fill" to="#808080" begin="reset.mouseover" end="reset.mouseout"/>
                       </use>
               </g>
        </defs>

<script type="text/javascript">
var viewWidth = 2168;
var viewHeight = 540;
var sectionId = 'dynsection-11';
</script>
<script xlink:href="../../svgpan.js"/>
<svg id="graph" class="graph">
<g id="viewport">
<title>BoxWorld.createScene</title>
<polygon fill="white" stroke="none" points="-4,4 -4,-536 2164,-536 2164,4 -4,4"/>
<!-- Node1 -->
<g id="node1" class="node"><title>Node1</title>
<polygon fill="#bfbfbf" stroke="black" points="0,-256.5 0,-275.5 124,-275.5 124,-256.5 0,-256.5"/>
<text text-anchor="middle" x="62" y="-263.5" font-family="Helvetica,sans-Serif" font-size="10.00">BoxWorld.createScene</text>
</g>
<!-- Node2 -->
<g id="node2" class="node"><title>Node2</title>
<g id="a_node2"><a xlink:href="../../db/d97/class_box_world.html#aa7e2049d7be23e15fd2ec7fa2922ed79" target="_top" xlink:title="BoxWorld.handleKeyInput">
<polygon fill="white" stroke="black" points="167,-446.5 167,-465.5 303,-465.5 303,-446.5 167,-446.5"/>
<text text-anchor="middle" x="235" y="-453.5" font-family="Helvetica,sans-Serif" font-size="10.00">BoxWorld.handleKeyInput</text>
</a>
</g>
</g>
<!-- Node1&#45;&gt;Node2 -->
<g id="edge1" class="edge"><title>Node1&#45;&gt;Node2</title>
<path fill="none" stroke="midnightblue" d="M71.715,-275.683C99.0372,-306.041 183.282,-399.647 218.39,-438.655"/>
<polygon fill="midnightblue" stroke="midnightblue" points="215.806,-441.017 225.097,-446.108 221.009,-436.334 215.806,-441.017"/>
</g>
<!-- Node37 -->
<g id="node37" class="node"><title>Node37</title>
<g id="a_node37"><a xlink:href="../../db/d97/class_box_world.html#a2d44485a181577acb4d79b6b81f26fff" target="_top" xlink:title="BoxWorld.handleKeyRelease">
<polygon fill="white" stroke="black" points="160.5,-275.5 160.5,-294.5 309.5,-294.5 309.5,-275.5 160.5,-275.5"/>
<text text-anchor="middle" x="235" y="-282.5" font-family="Helvetica,sans-Serif" font-size="10.00">BoxWorld.handleKeyRelease</text>
</a>
</g>
</g>
<!-- Node1&#45;&gt;Node37 -->
<g id="edge49" class="edge"><title>Node1&#45;&gt;Node37</title>
<path fill="none" stroke="midnightblue" d="M124.252,-272.806C132.655,-273.739 141.399,-274.711 150.121,-275.68"/>
<polygon fill="midnightblue" stroke="midnightblue" points="150.002,-279.188 160.327,-276.814 150.775,-272.231 150.002,-279.188"/>
</g>
<!-- Node3 -->
<g id="node3" class="node"><title>Node3</title>
<g id="a_node3"><a xlink:href="../../db/d97/class_box_world.html#adc4c9d78ffde3d052c4c92047eb98e55" target="_top" xlink:title="BoxWorld.allowMovement">
<polygon fill="white" stroke="black" points="1232.5,-332.5 1232.5,-351.5 1369.5,-351.5 1369.5,-332.5 1232.5,-332.5"/>
<text text-anchor="middle" x="1301" y="-339.5" font-family="Helvetica,sans-Serif" font-size="10.00">BoxWorld.allowMovement</text>
</a>
</g>
</g>
<!-- Node2&#45;&gt;Node3 -->
<g id="edge2" class="edge"><title>Node2&#45;&gt;Node3</title>
<path fill="none" stroke="midnightblue" d="M258.016,-465.625C306.862,-486.076 428.415,-532 535,-532 535,-532 535,-532 920,-532 1047.23,-532 1087.53,-522.499 1196,-456 1236.71,-431.044 1271.14,-385.58 1288.31,-360.261"/>
<polygon fill="midnightblue" stroke="midnightblue" points="1291.42,-361.899 1294.02,-351.628 1285.58,-358.037 1291.42,-361.899"/>
</g>
<!-- Node8 -->
<g id="node8" class="node"><title>Node8</title>
<g id="a_node8"><a xlink:href="../../da/de2/class_sticky_box.html#aa1bb8f78f676b01c688d75d386758444" target="_top" xlink:title="StickyBox.setDirection">
<polygon fill="white" stroke="black" points="1052,-427.5 1052,-446.5 1176,-446.5 1176,-427.5 1052,-427.5"/>
<text text-anchor="middle" x="1114" y="-434.5" font-family="Helvetica,sans-Serif" font-size="10.00">StickyBox.setDirection</text>
</a>
</g>
</g>
<!-- Node2&#45;&gt;Node8 -->
<g id="edge7" class="edge"><title>Node2&#45;&gt;Node8</title>
<path fill="none" stroke="midnightblue" d="M282.124,-465.54C340.66,-476.796 444.866,-494 535,-494 535,-494 535,-494 715,-494 841.333,-494 987.965,-465.51 1063.05,-448.814"/>
<polygon fill="midnightblue" stroke="midnightblue" points="1064.17,-452.149 1073.16,-446.541 1062.64,-445.32 1064.17,-452.149"/>
</g>
<!-- Node9 -->
<g id="node9" class="node"><title>Node9</title>
<g id="a_node9"><a xlink:href="../../db/d97/class_box_world.html#a04c6bf977c4292a5433649fb3745fd6b" target="_top" xlink:title="BoxWorld.reset">
<polygon fill="white" stroke="black" points="875,-427.5 875,-446.5 963,-446.5 963,-427.5 875,-427.5"/>
<text text-anchor="middle" x="919" y="-434.5" font-family="Helvetica,sans-Serif" font-size="10.00">BoxWorld.reset</text>
</a>
</g>
</g>
<!-- Node2&#45;&gt;Node9 -->
<g id="edge8" class="edge"><title>Node2&#45;&gt;Node9</title>
<path fill="none" stroke="midnightblue" d="M303.259,-454.126C438.608,-450.356 741.42,-441.919 864.474,-438.491"/>
<polygon fill="midnightblue" stroke="midnightblue" points="864.868,-441.982 874.766,-438.204 864.673,-434.984 864.868,-441.982"/>
</g>
<!-- Node11 -->
<g id="node11" class="node"><title>Node11</title>
<g id="a_node11"><a xlink:href="../../db/d97/class_box_world.html#aad670712776afe126e51791097027e05" target="_top" xlink:title="BoxWorld.winLevel">
<polygon fill="white" stroke="black" points="346.5,-275.5 346.5,-294.5 449.5,-294.5 449.5,-275.5 346.5,-275.5"/>
<text text-anchor="middle" x="398" y="-282.5" font-family="Helvetica,sans-Serif" font-size="10.00">BoxWorld.winLevel</text>
</a>
</g>
</g>
<!-- Node2&#45;&gt;Node11 -->
<g id="edge11" class="edge"><title>Node2&#45;&gt;Node11</title>
<path fill="none" stroke="midnightblue" d="M245.117,-446.316C271.352,-418.452 347.287,-337.801 380.79,-302.216"/>
<polygon fill="midnightblue" stroke="midnightblue" points="383.676,-304.257 387.983,-294.577 378.579,-299.459 383.676,-304.257"/>
</g>
<!-- Node4 -->
<g id="node4" class="node"><title>Node4</title>
<g id="a_node4"><a xlink:href="../../da/de2/class_sticky_box.html#a6ba3f89630df9d81df5644a3e5f4e387" target="_top" xlink:title="StickyBox.getXDirection">
<polygon fill="white" stroke="black" points="1406.5,-218.5 1406.5,-237.5 1537.5,-237.5 1537.5,-218.5 1406.5,-218.5"/>
<text text-anchor="middle" x="1472" y="-225.5" font-family="Helvetica,sans-Serif" font-size="10.00">StickyBox.getXDirection</text>
</a>
</g>
</g>
<!-- Node3&#45;&gt;Node4 -->
<g id="edge3" class="edge"><title>Node3&#45;&gt;Node4</title>
<path fill="none" stroke="midnightblue" d="M1316.12,-332.477C1345.25,-312.827 1412.26,-267.627 1447.83,-243.63"/>
<polygon fill="midnightblue" stroke="midnightblue" points="1450.23,-246.232 1456.56,-237.738 1446.32,-240.429 1450.23,-246.232"/>
</g>
<!-- Node5 -->
<g id="node5" class="node"><title>Node5</title>
<g id="a_node5"><a xlink:href="../../da/de2/class_sticky_box.html#ab0bd7cafb7f243e3951558ddb8728b96" target="_top" xlink:title="StickyBox.getXPrev">
<polygon fill="white" stroke="black" points="1417.5,-370.5 1417.5,-389.5 1526.5,-389.5 1526.5,-370.5 1417.5,-370.5"/>
<text text-anchor="middle" x="1472" y="-377.5" font-family="Helvetica,sans-Serif" font-size="10.00">StickyBox.getXPrev</text>
</a>
</g>
</g>
<!-- Node3&#45;&gt;Node5 -->
<g id="edge4" class="edge"><title>Node3&#45;&gt;Node5</title>
<path fill="none" stroke="midnightblue" d="M1344.65,-351.589C1367.15,-356.649 1394.95,-362.9 1418.74,-368.249"/>
<polygon fill="midnightblue" stroke="midnightblue" points="1418.14,-371.701 1428.66,-370.48 1419.67,-364.871 1418.14,-371.701"/>
</g>
<!-- Node6 -->
<g id="node6" class="node"><title>Node6</title>
<g id="a_node6"><a xlink:href="../../da/de2/class_sticky_box.html#a69e5ccf2a79159c03dea2e048df13318" target="_top" xlink:title="StickyBox.getYDirection">
<polygon fill="white" stroke="black" points="1407,-180.5 1407,-199.5 1537,-199.5 1537,-180.5 1407,-180.5"/>
<text text-anchor="middle" x="1472" y="-187.5" font-family="Helvetica,sans-Serif" font-size="10.00">StickyBox.getYDirection</text>
</a>
</g>
</g>
<!-- Node3&#45;&gt;Node6 -->
<g id="edge5" class="edge"><title>Node3&#45;&gt;Node6</title>
<path fill="none" stroke="midnightblue" d="M1306.82,-332.282C1319.49,-307.721 1356.26,-242.718 1406,-209 1409.05,-206.932 1412.33,-205.086 1415.73,-203.438"/>
<polygon fill="midnightblue" stroke="midnightblue" points="1417.13,-206.648 1424.97,-199.523 1414.39,-200.204 1417.13,-206.648"/>
</g>
<!-- Node7 -->
<g id="node7" class="node"><title>Node7</title>
<g id="a_node7"><a xlink:href="../../da/de2/class_sticky_box.html#a4c6abed944faed9d9b226079e99cfc24" target="_top" xlink:title="StickyBox.getYPrev">
<polygon fill="white" stroke="black" points="1418,-332.5 1418,-351.5 1526,-351.5 1526,-332.5 1418,-332.5"/>
<text text-anchor="middle" x="1472" y="-339.5" font-family="Helvetica,sans-Serif" font-size="10.00">StickyBox.getYPrev</text>
</a>
</g>
</g>
<!-- Node3&#45;&gt;Node7 -->
<g id="edge6" class="edge"><title>Node3&#45;&gt;Node7</title>
<path fill="none" stroke="midnightblue" d="M1369.76,-342C1382.25,-342 1395.24,-342 1407.59,-342"/>
<polygon fill="midnightblue" stroke="midnightblue" points="1407.78,-345.5 1417.78,-342 1407.78,-338.5 1407.78,-345.5"/>
</g>
<!-- Node9&#45;&gt;Node8 -->
<g id="edge9" class="edge"><title>Node9&#45;&gt;Node8</title>
<path fill="none" stroke="midnightblue" d="M963.313,-437C986.37,-437 1015.32,-437 1041.6,-437"/>
<polygon fill="midnightblue" stroke="midnightblue" points="1041.9,-440.5 1051.9,-437 1041.9,-433.5 1041.9,-440.5"/>
</g>
<!-- Node10 -->
<g id="node10" class="node"><title>Node10</title>
<g id="a_node10"><a xlink:href="../../da/de2/class_sticky_box.html#a5d95d2ed2e13f0d87a44311db77f9e36" target="_top" xlink:title="StickyBox.setPreviousDirection">
<polygon fill="white" stroke="black" points="1032,-370.5 1032,-389.5 1196,-389.5 1196,-370.5 1032,-370.5"/>
<text text-anchor="middle" x="1114" y="-377.5" font-family="Helvetica,sans-Serif" font-size="10.00">StickyBox.setPreviousDirection</text>
</a>
</g>
</g>
<!-- Node9&#45;&gt;Node10 -->
<g id="edge10" class="edge"><title>Node9&#45;&gt;Node10</title>
<path fill="none" stroke="midnightblue" d="M952.304,-427.459C984.869,-417.842 1035.28,-402.952 1070.95,-392.419"/>
<polygon fill="midnightblue" stroke="midnightblue" points="1071.99,-395.761 1080.59,-389.572 1070.01,-389.047 1071.99,-395.761"/>
</g>
<!-- Node12 -->
<g id="node12" class="node"><title>Node12</title>
<g id="a_node12"><a xlink:href="../../d6/d4f/class_item_box_world.html#aa559fc2680327b41fb376e2eda8e82e3" target="_top" xlink:title="ItemBoxWorld.init">
<polygon fill="white" stroke="black" points="486.5,-256.5 486.5,-275.5 585.5,-275.5 585.5,-256.5 486.5,-256.5"/>
<text text-anchor="middle" x="536" y="-263.5" font-family="Helvetica,sans-Serif" font-size="10.00">ItemBoxWorld.init</text>
</a>
</g>
</g>
<!-- Node11&#45;&gt;Node12 -->
<g id="edge12" class="edge"><title>Node11&#45;&gt;Node12</title>
<path fill="none" stroke="midnightblue" d="M449.641,-277.925C458.218,-276.727 467.189,-275.474 475.958,-274.249"/>
<polygon fill="midnightblue" stroke="midnightblue" points="476.704,-277.678 486.123,-272.828 475.735,-270.746 476.704,-277.678"/>
</g>
<!-- Node12&#45;&gt;Node1 -->
<g id="edge48" class="edge"><title>Node12&#45;&gt;Node1</title>
<path fill="none" stroke="midnightblue" d="M486.411,-266C402.803,-266 231.376,-266 134.247,-266"/>
<polygon fill="midnightblue" stroke="midnightblue" points="134.222,-262.5 124.222,-266 134.222,-269.5 134.222,-262.5"/>
</g>
<!-- Node13 -->
<g id="node13" class="node"><title>Node13</title>
<g id="a_node13"><a xlink:href="../../db/d97/class_box_world.html#a25c34c68bdd68debd7de01a4f3b98bb1" target="_top" xlink:title="BoxWorld.setStage">
<polygon fill="white" stroke="black" points="660.5,-408.5 660.5,-427.5 767.5,-427.5 767.5,-408.5 660.5,-408.5"/>
<text text-anchor="middle" x="714" y="-415.5" font-family="Helvetica,sans-Serif" font-size="10.00">BoxWorld.setStage</text>
</a>
</g>
</g>
<!-- Node12&#45;&gt;Node13 -->
<g id="edge13" class="edge"><title>Node12&#45;&gt;Node13</title>
<path fill="none" stroke="midnightblue" d="M540.144,-275.57C548.811,-300.356 575.537,-366.941 622,-399 630.369,-404.774 640.13,-408.858 650.091,-411.732"/>
<polygon fill="midnightblue" stroke="midnightblue" points="649.525,-415.198 660.075,-414.221 651.218,-408.406 649.525,-415.198"/>
</g>
<!-- Node14 -->
<g id="node14" class="node"><title>Node14</title>
<g id="a_node14"><a xlink:href="../../db/d97/class_box_world.html#a3735494d6eeffc036cd757eb21170eb0" target="_top" xlink:title="BoxWorld.setObstacleXCoordinates">
<polygon fill="white" stroke="black" points="622.5,-370.5 622.5,-389.5 805.5,-389.5 805.5,-370.5 622.5,-370.5"/>
<text text-anchor="middle" x="714" y="-377.5" font-family="Helvetica,sans-Serif" font-size="10.00">BoxWorld.setObstacleXCoordinates</text>
</a>
</g>
</g>
<!-- Node12&#45;&gt;Node14 -->
<g id="edge14" class="edge"><title>Node12&#45;&gt;Node14</title>
<path fill="none" stroke="midnightblue" d="M542.627,-275.637C554.563,-295.15 584.429,-339.32 622,-361 625.879,-363.238 629.987,-365.215 634.227,-366.96"/>
<polygon fill="midnightblue" stroke="midnightblue" points="633.093,-370.272 643.687,-370.422 635.499,-363.698 633.093,-370.272"/>
</g>
<!-- Node15 -->
<g id="node15" class="node"><title>Node15</title>
<g id="a_node15"><a xlink:href="../../db/d97/class_box_world.html#ab45827804913790744cdbaaf8a222256" target="_top" xlink:title="BoxWorld.setObstacleYCoordinates">
<polygon fill="white" stroke="black" points="623,-332.5 623,-351.5 805,-351.5 805,-332.5 623,-332.5"/>
<text text-anchor="middle" x="714" y="-339.5" font-family="Helvetica,sans-Serif" font-size="10.00">BoxWorld.setObstacleYCoordinates</text>
</a>
</g>
</g>
<!-- Node12&#45;&gt;Node15 -->
<g id="edge15" class="edge"><title>Node12&#45;&gt;Node15</title>
<path fill="none" stroke="midnightblue" d="M548.27,-275.667C563.809,-288.479 593.176,-310.872 622,-323 628.197,-325.607 634.786,-327.869 641.477,-329.829"/>
<polygon fill="midnightblue" stroke="midnightblue" points="640.751,-333.258 651.317,-332.489 642.577,-326.501 640.751,-333.258"/>
</g>
<!-- Node16 -->
<g id="node16" class="node"><title>Node16</title>
<g id="a_node16"><a xlink:href="../../db/d97/class_box_world.html#aeeaafc4ff103ded208e6c9393eb4ceca" target="_top" xlink:title="BoxWorld.setRoot">
<polygon fill="white" stroke="black" points="664.5,-294.5 664.5,-313.5 763.5,-313.5 763.5,-294.5 664.5,-294.5"/>
<text text-anchor="middle" x="714" y="-301.5" font-family="Helvetica,sans-Serif" font-size="10.00">BoxWorld.setRoot</text>
</a>
</g>
</g>
<!-- Node12&#45;&gt;Node16 -->
<g id="edge16" class="edge"><title>Node12&#45;&gt;Node16</title>
<path fill="none" stroke="midnightblue" d="M581.412,-275.589C604.951,-280.671 634.057,-286.955 658.905,-292.32"/>
<polygon fill="midnightblue" stroke="midnightblue" points="658.394,-295.791 668.907,-294.48 659.871,-288.948 658.394,-295.791"/>
</g>
<!-- Node17 -->
<g id="node17" class="node"><title>Node17</title>
<g id="a_node17"><a xlink:href="../../db/d97/class_box_world.html#a69798621c944e846f045aaf3937505f9" target="_top" xlink:title="BoxWorld.addStarterObjects">
<polygon fill="white" stroke="black" points="1810.5,-166.5 1810.5,-185.5 1961.5,-185.5 1961.5,-166.5 1810.5,-166.5"/>
<text text-anchor="middle" x="1886" y="-173.5" font-family="Helvetica,sans-Serif" font-size="10.00">BoxWorld.addStarterObjects</text>
</a>
</g>
</g>
<!-- Node12&#45;&gt;Node17 -->
<g id="edge17" class="edge"><title>Node12&#45;&gt;Node17</title>
<path fill="none" stroke="midnightblue" d="M585.951,-269.406C720.35,-278.733 1086.85,-304 1113,-304 1113,-304 1113,-304 1605,-304 1711.51,-304 1821.86,-226.443 1865.54,-192.071"/>
<polygon fill="midnightblue" stroke="midnightblue" points="1867.97,-194.603 1873.59,-185.621 1863.6,-189.139 1867.97,-194.603"/>
</g>
<!-- Node19 -->
<g id="node19" class="node"><title>Node19</title>
<g id="a_node19"><a xlink:href="../../d6/d4f/class_item_box_world.html#a7ead15fd9fd8095f928640161d48fdf8" target="_top" xlink:title="ItemBoxWorld.addAllItems">
<polygon fill="white" stroke="black" points="643.5,-218.5 643.5,-237.5 784.5,-237.5 784.5,-218.5 643.5,-218.5"/>
<text text-anchor="middle" x="714" y="-225.5" font-family="Helvetica,sans-Serif" font-size="10.00">ItemBoxWorld.addAllItems</text>
</a>
</g>
</g>
<!-- Node12&#45;&gt;Node19 -->
<g id="edge19" class="edge"><title>Node12&#45;&gt;Node19</title>
<path fill="none" stroke="midnightblue" d="M581.412,-256.411C604.951,-251.329 634.057,-245.045 658.905,-239.68"/>
<polygon fill="midnightblue" stroke="midnightblue" points="659.871,-243.052 668.907,-237.52 658.394,-236.209 659.871,-243.052"/>
</g>
<!-- Node23 -->
<g id="node23" class="node"><title>Node23</title>
<g id="a_node23"><a xlink:href="../../db/d97/class_box_world.html#ad20a4e43406c44f4bbf201d1d1028998" target="_top" xlink:title="BoxWorld.start">
<polygon fill="white" stroke="black" points="671,-180.5 671,-199.5 757,-199.5 757,-180.5 671,-180.5"/>
<text text-anchor="middle" x="714" y="-187.5" font-family="Helvetica,sans-Serif" font-size="10.00">BoxWorld.start</text>
</a>
</g>
</g>
<!-- Node12&#45;&gt;Node23 -->
<g id="edge24" class="edge"><title>Node12&#45;&gt;Node23</title>
<path fill="none" stroke="midnightblue" d="M548.27,-256.333C563.809,-243.521 593.176,-221.128 622,-209 634.09,-203.913 647.676,-200.141 660.588,-197.362"/>
<polygon fill="midnightblue" stroke="midnightblue" points="661.633,-200.722 670.759,-195.339 660.268,-193.857 661.633,-200.722"/>
</g>
<!-- Node35 -->
<g id="node35" class="node"><title>Node35</title>
<g id="a_node35"><a xlink:href="../../db/d97/class_box_world.html#a8d7d9f1ae1ebcd87ff73c09780b70629" target="_top" xlink:title="BoxWorld.setAnimation">
<polygon fill="white" stroke="black" points="650.5,-142.5 650.5,-161.5 777.5,-161.5 777.5,-142.5 650.5,-142.5"/>
<text text-anchor="middle" x="714" y="-149.5" font-family="Helvetica,sans-Serif" font-size="10.00">BoxWorld.setAnimation</text>
</a>
</g>
</g>
<!-- Node12&#45;&gt;Node35 -->
<g id="edge46" class="edge"><title>Node12&#45;&gt;Node35</title>
<path fill="none" stroke="midnightblue" d="M542.627,-256.363C554.563,-236.85 584.429,-192.68 622,-171 627.823,-167.64 634.161,-164.87 640.691,-162.588"/>
<polygon fill="midnightblue" stroke="midnightblue" points="641.85,-165.893 650.359,-159.58 639.771,-159.209 641.85,-165.893"/>
</g>
<!-- Node36 -->
<g id="node36" class="node"><title>Node36</title>
<g id="a_node36"><a xlink:href="../../db/d97/class_box_world.html#a61929851f1d60c397e1448e614f1d701" target="_top" xlink:title="BoxWorld.getAnimation">
<polygon fill="white" stroke="black" points="650,-104.5 650,-123.5 778,-123.5 778,-104.5 650,-104.5"/>
<text text-anchor="middle" x="714" y="-111.5" font-family="Helvetica,sans-Serif" font-size="10.00">BoxWorld.getAnimation</text>
</a>
</g>
</g>
<!-- Node12&#45;&gt;Node36 -->
<g id="edge47" class="edge"><title>Node12&#45;&gt;Node36</title>
<path fill="none" stroke="midnightblue" d="M540.144,-256.43C548.811,-231.644 575.537,-165.059 622,-133 627.534,-129.182 633.676,-126.103 640.082,-123.624"/>
<polygon fill="midnightblue" stroke="midnightblue" points="641.261,-126.92 649.617,-120.406 639.023,-120.288 641.261,-126.92"/>
</g>
<!-- Node18 -->
<g id="node18" class="node"><title>Node18</title>
<g id="a_node18"><a xlink:href="../../db/d97/class_box_world.html#a2542cc74ebeba6a9768a443a55186901" target="_top" xlink:title="BoxWorld.createObstacleArray">
<polygon fill="white" stroke="black" points="1998.5,-166.5 1998.5,-185.5 2159.5,-185.5 2159.5,-166.5 1998.5,-166.5"/>
<text text-anchor="middle" x="2079" y="-173.5" font-family="Helvetica,sans-Serif" font-size="10.00">BoxWorld.createObstacleArray</text>
</a>
</g>
</g>
<!-- Node17&#45;&gt;Node18 -->
<g id="edge18" class="edge"><title>Node17&#45;&gt;Node18</title>
<path fill="none" stroke="midnightblue" d="M1961.67,-176C1970.41,-176 1979.4,-176 1988.31,-176"/>
<polygon fill="midnightblue" stroke="midnightblue" points="1988.34,-179.5 1998.34,-176 1988.34,-172.5 1988.34,-179.5"/>
</g>
<!-- Node20 -->
<g id="node20" class="node"><title>Node20</title>
<g id="a_node20"><a xlink:href="../../d6/d4f/class_item_box_world.html#a1890e6c53a4a73e44e9528009fde508d" target="_top" xlink:title="ItemBoxWorld.itemExists">
<polygon fill="white" stroke="black" points="852,-256.5 852,-275.5 986,-275.5 986,-256.5 852,-256.5"/>
<text text-anchor="middle" x="919" y="-263.5" font-family="Helvetica,sans-Serif" font-size="10.00">ItemBoxWorld.itemExists</text>
</a>
</g>
</g>
<!-- Node19&#45;&gt;Node20 -->
<g id="edge20" class="edge"><title>Node19&#45;&gt;Node20</title>
<path fill="none" stroke="midnightblue" d="M765.963,-237.54C793.594,-242.712 827.933,-249.14 856.981,-254.578"/>
<polygon fill="midnightblue" stroke="midnightblue" points="856.542,-258.056 867.016,-256.456 857.83,-251.176 856.542,-258.056"/>
</g>
<!-- Node22 -->
<g id="node22" class="node"><title>Node22</title>
<g id="a_node22"><a xlink:href="../../d6/d4f/class_item_box_world.html#af1bcde0672796e926560684004ed8e81" target="_top" xlink:title="ItemBoxWorld.addSingleItem">
<polygon fill="white" stroke="black" points="842,-218.5 842,-237.5 996,-237.5 996,-218.5 842,-218.5"/>
<text text-anchor="middle" x="919" y="-225.5" font-family="Helvetica,sans-Serif" font-size="10.00">ItemBoxWorld.addSingleItem</text>
</a>
</g>
</g>
<!-- Node19&#45;&gt;Node22 -->
<g id="edge22" class="edge"><title>Node19&#45;&gt;Node22</title>
<path fill="none" stroke="midnightblue" d="M784.577,-228C799.735,-228 815.951,-228 831.67,-228"/>
<polygon fill="midnightblue" stroke="midnightblue" points="831.912,-231.5 841.912,-228 831.912,-224.5 831.912,-231.5"/>
</g>
<!-- Node21 -->
<g id="node21" class="node"><title>Node21</title>
<g id="a_node21"><a xlink:href="../../db/d97/class_box_world.html#abb95adb381902ecab1db85efdc1ea6ff" target="_top" xlink:title="BoxWorld.getRoot">
<polygon fill="white" stroke="black" points="1064,-256.5 1064,-275.5 1164,-275.5 1164,-256.5 1064,-256.5"/>
<text text-anchor="middle" x="1114" y="-263.5" font-family="Helvetica,sans-Serif" font-size="10.00">BoxWorld.getRoot</text>
</a>
</g>
</g>
<!-- Node20&#45;&gt;Node21 -->
<g id="edge21" class="edge"><title>Node20&#45;&gt;Node21</title>
<path fill="none" stroke="midnightblue" d="M986.15,-266C1008,-266 1032.16,-266 1053.48,-266"/>
<polygon fill="midnightblue" stroke="midnightblue" points="1053.7,-269.5 1063.7,-266 1053.7,-262.5 1053.7,-269.5"/>
</g>
<!-- Node22&#45;&gt;Node21 -->
<g id="edge23" class="edge"><title>Node22&#45;&gt;Node21</title>
<path fill="none" stroke="midnightblue" d="M968.702,-237.589C994.859,-242.739 1027.28,-249.123 1054.77,-254.534"/>
<polygon fill="midnightblue" stroke="midnightblue" points="1054.16,-257.982 1064.65,-256.48 1055.51,-251.114 1054.16,-257.982"/>
</g>
<!-- Node24 -->
<g id="node24" class="node"><title>Node24</title>
<g id="a_node24"><a xlink:href="../../db/d97/class_box_world.html#a6794c083c2a0263c2f585f4ae4b7e39c" target="_top" xlink:title="BoxWorld.updateSprites">
<polygon fill="white" stroke="black" points="853.5,-180.5 853.5,-199.5 984.5,-199.5 984.5,-180.5 853.5,-180.5"/>
<text text-anchor="middle" x="919" y="-187.5" font-family="Helvetica,sans-Serif" font-size="10.00">BoxWorld.updateSprites</text>
</a>
</g>
</g>
<!-- Node23&#45;&gt;Node24 -->
<g id="edge25" class="edge"><title>Node23&#45;&gt;Node24</title>
<path fill="none" stroke="midnightblue" d="M757.062,-190C781.89,-190 814.045,-190 843.078,-190"/>
<polygon fill="midnightblue" stroke="midnightblue" points="843.201,-193.5 853.2,-190 843.2,-186.5 843.201,-193.5"/>
</g>
<!-- Node24&#45;&gt;Node4 -->
<g id="edge42" class="edge"><title>Node24&#45;&gt;Node4</title>
<path fill="none" stroke="midnightblue" d="M984.768,-198.875C1000.22,-200.777 1016.68,-202.625 1032,-204 1159.61,-215.45 1308.61,-222.203 1396.09,-225.496"/>
<polygon fill="midnightblue" stroke="midnightblue" points="1396.06,-228.997 1406.19,-225.871 1396.32,-222.002 1396.06,-228.997"/>
</g>
<!-- Node24&#45;&gt;Node6 -->
<g id="edge43" class="edge"><title>Node24&#45;&gt;Node6</title>
<path fill="none" stroke="midnightblue" d="M984.556,-190C1087.38,-190 1287.81,-190 1396.54,-190"/>
<polygon fill="midnightblue" stroke="midnightblue" points="1396.77,-193.5 1406.77,-190 1396.77,-186.5 1396.77,-193.5"/>
</g>
<!-- Node24&#45;&gt;Node8 -->
<g id="edge44" class="edge"><title>Node24&#45;&gt;Node8</title>
<path fill="none" stroke="midnightblue" d="M983.756,-199.692C988.284,-202.18 992.453,-205.242 996,-209 1054.99,-271.502 979.325,-331.087 1032,-399 1040.42,-409.857 1052.69,-417.748 1065.15,-423.426"/>
<polygon fill="midnightblue" stroke="midnightblue" points="1064.07,-426.767 1074.65,-427.35 1066.74,-420.297 1064.07,-426.767"/>
</g>
<!-- Node24&#45;&gt;Node10 -->
<g id="edge41" class="edge"><title>Node24&#45;&gt;Node10</title>
<path fill="none" stroke="midnightblue" d="M980.135,-199.537C985.85,-202.017 991.267,-205.12 996,-209 1024.9,-232.696 1011.7,-253.618 1032,-285 1051.09,-314.511 1078.5,-344.754 1096.02,-362.961"/>
<polygon fill="midnightblue" stroke="midnightblue" points="1093.83,-365.721 1103.32,-370.433 1098.84,-360.831 1093.83,-365.721"/>
</g>
<!-- Node25 -->
<g id="node25" class="node"><title>Node25</title>
<g id="a_node25"><a xlink:href="../../db/d97/class_box_world.html#a4079bed8937c9f621decfbe1309e31e2" target="_top" xlink:title="BoxWorld.checkAllCollisions">
<polygon fill="white" stroke="black" points="1041,-66.5 1041,-85.5 1187,-85.5 1187,-66.5 1041,-66.5"/>
<text text-anchor="middle" x="1114" y="-73.5" font-family="Helvetica,sans-Serif" font-size="10.00">BoxWorld.checkAllCollisions</text>
</a>
</g>
</g>
<!-- Node24&#45;&gt;Node25 -->
<g id="edge26" class="edge"><title>Node24&#45;&gt;Node25</title>
<path fill="none" stroke="midnightblue" d="M928.219,-180.498C945.43,-161.232 987.375,-117.496 1032,-95 1036.64,-92.6623 1041.57,-90.6065 1046.62,-88.7995"/>
<polygon fill="midnightblue" stroke="midnightblue" points="1048.01,-92.0307 1056.44,-85.6225 1045.85,-85.3705 1048.01,-92.0307"/>
</g>
<!-- Node33 -->
<g id="node33" class="node"><title>Node33</title>
<g id="a_node33"><a xlink:href="../../da/de2/class_sticky_box.html#a59337f0aa3c7379a2cb9c76bdc621daf" target="_top" xlink:title="StickyBox.setStuck">
<polygon fill="white" stroke="black" points="1060,-142.5 1060,-161.5 1168,-161.5 1168,-142.5 1060,-142.5"/>
<text text-anchor="middle" x="1114" y="-149.5" font-family="Helvetica,sans-Serif" font-size="10.00">StickyBox.setStuck</text>
</a>
</g>
</g>
<!-- Node24&#45;&gt;Node33 -->
<g id="edge40" class="edge"><title>Node24&#45;&gt;Node33</title>
<path fill="none" stroke="midnightblue" d="M968.702,-180.411C994.859,-175.261 1027.28,-168.877 1054.77,-163.466"/>
<polygon fill="midnightblue" stroke="midnightblue" points="1055.51,-166.886 1064.65,-161.52 1054.16,-160.018 1055.51,-166.886"/>
</g>
<!-- Node34 -->
<g id="node34" class="node"><title>Node34</title>
<g id="a_node34"><a xlink:href="../../da/de2/class_sticky_box.html#a185ee469367b376e6c5969a03d089d57" target="_top" xlink:title="StickyBox.move">
<polygon fill="white" stroke="black" points="1067.5,-104.5 1067.5,-123.5 1160.5,-123.5 1160.5,-104.5 1067.5,-104.5"/>
<text text-anchor="middle" x="1114" y="-111.5" font-family="Helvetica,sans-Serif" font-size="10.00">StickyBox.move</text>
</a>
</g>
</g>
<!-- Node24&#45;&gt;Node34 -->
<g id="edge45" class="edge"><title>Node24&#45;&gt;Node34</title>
<path fill="none" stroke="midnightblue" d="M935.773,-180.43C956.971,-167.934 996.141,-146.113 1032,-133 1040.18,-130.008 1049,-127.372 1057.71,-125.089"/>
<polygon fill="midnightblue" stroke="midnightblue" points="1058.59,-128.476 1067.45,-122.662 1056.9,-121.684 1058.59,-128.476"/>
</g>
<!-- Node25&#45;&gt;Node11 -->
<g id="edge39" class="edge"><title>Node25&#45;&gt;Node11</title>
<path fill="none" stroke="midnightblue" d="M1055.72,-66.4899C961.511,-53.3728 769.61,-37.3788 622,-95 526.855,-132.141 443.761,-227.924 412.357,-267.496"/>
<polygon fill="midnightblue" stroke="midnightblue" points="409.534,-265.424 406.136,-275.46 415.05,-269.734 409.534,-265.424"/>
</g>
<!-- Node26 -->
<g id="node26" class="node"><title>Node26</title>
<g id="a_node26"><a xlink:href="../../db/d97/class_box_world.html#a55add11037cd6dc48556f2f42a9e11be" target="_top" xlink:title="BoxWorld.checkCollide">
<polygon fill="white" stroke="black" points="1240,-142.5 1240,-161.5 1362,-161.5 1362,-142.5 1240,-142.5"/>
<text text-anchor="middle" x="1301" y="-149.5" font-family="Helvetica,sans-Serif" font-size="10.00">BoxWorld.checkCollide</text>
</a>
</g>
</g>
<!-- Node25&#45;&gt;Node26 -->
<g id="edge27" class="edge"><title>Node25&#45;&gt;Node26</title>
<path fill="none" stroke="midnightblue" d="M1174.08,-85.5636C1181.72,-88.0234 1189.24,-91.1149 1196,-95 1216.17,-106.588 1212.08,-120.99 1232,-133 1235.6,-135.171 1239.46,-137.102 1243.44,-138.817"/>
<polygon fill="midnightblue" stroke="midnightblue" points="1242.3,-142.128 1252.89,-142.441 1244.81,-135.592 1242.3,-142.128"/>
</g>
<!-- Node27 -->
<g id="node27" class="node"><title>Node27</title>
<g id="a_node27"><a xlink:href="../../db/d97/class_box_world.html#a72bacb2a6757900d8835249929fcc838" target="_top" xlink:title="BoxWorld.loseGame">
<polygon fill="white" stroke="black" points="1245,-104.5 1245,-123.5 1357,-123.5 1357,-104.5 1245,-104.5"/>
<text text-anchor="middle" x="1301" y="-111.5" font-family="Helvetica,sans-Serif" font-size="10.00">BoxWorld.loseGame</text>
</a>
</g>
</g>
<!-- Node25&#45;&gt;Node27 -->
<g id="edge30" class="edge"><title>Node25&#45;&gt;Node27</title>
<path fill="none" stroke="midnightblue" d="M1161.68,-85.589C1186.65,-90.7165 1217.56,-97.0672 1243.83,-102.463"/>
<polygon fill="midnightblue" stroke="midnightblue" points="1243.15,-105.896 1253.65,-104.48 1244.56,-99.0394 1243.15,-105.896"/>
</g>
<!-- Node32 -->
<g id="node32" class="node"><title>Node32</title>
<g id="a_node32"><a xlink:href="../../db/d97/class_box_world.html#a167adb49603af3a303ee958011243b5f" target="_top" xlink:title="BoxWorld.onScreen">
<polygon fill="white" stroke="black" points="1246.5,-66.5 1246.5,-85.5 1355.5,-85.5 1355.5,-66.5 1246.5,-66.5"/>
<text text-anchor="middle" x="1301" y="-73.5" font-family="Helvetica,sans-Serif" font-size="10.00">BoxWorld.onScreen</text>
</a>
</g>
</g>
<!-- Node25&#45;&gt;Node32 -->
<g id="edge38" class="edge"><title>Node25&#45;&gt;Node32</title>
<path fill="none" stroke="midnightblue" d="M1187.06,-76C1203.28,-76 1220.4,-76 1236.26,-76"/>
<polygon fill="midnightblue" stroke="midnightblue" points="1236.48,-79.5001 1246.48,-76 1236.48,-72.5001 1236.48,-79.5001"/>
</g>
<!-- Node26&#45;&gt;Node4 -->
<g id="edge28" class="edge"><title>Node26&#45;&gt;Node4</title>
<path fill="none" stroke="midnightblue" d="M1316.99,-161.576C1336.75,-173.881 1372.9,-195.284 1406,-209 1411.5,-211.278 1417.36,-213.398 1423.23,-215.333"/>
<polygon fill="midnightblue" stroke="midnightblue" points="1422.47,-218.761 1433.05,-218.411 1424.56,-212.081 1422.47,-218.761"/>
</g>
<!-- Node26&#45;&gt;Node6 -->
<g id="edge29" class="edge"><title>Node26&#45;&gt;Node6</title>
<path fill="none" stroke="midnightblue" d="M1344.65,-161.589C1367.15,-166.649 1394.95,-172.9 1418.74,-178.249"/>
<polygon fill="midnightblue" stroke="midnightblue" points="1418.14,-181.701 1428.66,-180.48 1419.67,-174.871 1418.14,-181.701"/>
</g>
<!-- Node28 -->
<g id="node28" class="node"><title>Node28</title>
<g id="a_node28"><a xlink:href="../../d4/d2f/class_lose_screen.html#a34f2cc2c803500316c9b8d854854d758" target="_top" xlink:title="LoseScreen.init">
<polygon fill="white" stroke="black" points="1427,-85.5 1427,-104.5 1517,-104.5 1517,-85.5 1427,-85.5"/>
<text text-anchor="middle" x="1472" y="-92.5" font-family="Helvetica,sans-Serif" font-size="10.00">LoseScreen.init</text>
</a>
</g>
</g>
<!-- Node27&#45;&gt;Node28 -->
<g id="edge31" class="edge"><title>Node27&#45;&gt;Node28</title>
<path fill="none" stroke="midnightblue" d="M1357.34,-107.779C1376.43,-105.632 1397.79,-103.231 1416.79,-101.094"/>
<polygon fill="midnightblue" stroke="midnightblue" points="1417.24,-104.566 1426.78,-99.9711 1416.46,-97.6103 1417.24,-104.566"/>
</g>
<!-- Node29 -->
<g id="node29" class="node"><title>Node29</title>
<g id="a_node29"><a xlink:href="../../d2/db8/class_menu.html#a3c99ad09e9f2f975c1a0d0597642651a" target="_top" xlink:title="Menu.init">
<polygon fill="white" stroke="black" points="1574,-76.5 1574,-95.5 1634,-95.5 1634,-76.5 1574,-76.5"/>
<text text-anchor="middle" x="1604" y="-83.5" font-family="Helvetica,sans-Serif" font-size="10.00">Menu.init</text>
</a>
</g>
</g>
<!-- Node28&#45;&gt;Node29 -->
<g id="edge32" class="edge"><title>Node28&#45;&gt;Node29</title>
<path fill="none" stroke="midnightblue" d="M1517.01,-91.953C1532.07,-90.9107 1548.81,-89.7519 1563.48,-88.7357"/>
<polygon fill="midnightblue" stroke="midnightblue" points="1564.02,-92.2071 1573.75,-88.0247 1563.54,-85.2238 1564.02,-92.2071"/>
</g>
<!-- Node30 -->
<g id="node30" class="node"><title>Node30</title>
<g id="a_node30"><a xlink:href="../../d2/db8/class_menu.html#a8a6e6125f0dc2dc7e19c6655ba6376a2" target="_top" xlink:title="Menu.addIntroText">
<polygon fill="white" stroke="black" points="1670,-76.5 1670,-95.5 1774,-95.5 1774,-76.5 1670,-76.5"/>
<text text-anchor="middle" x="1722" y="-83.5" font-family="Helvetica,sans-Serif" font-size="10.00">Menu.addIntroText</text>
</a>
</g>
</g>
<!-- Node29&#45;&gt;Node30 -->
<g id="edge33" class="edge"><title>Node29&#45;&gt;Node30</title>
<path fill="none" stroke="midnightblue" d="M1634.27,-86C1641.99,-86 1650.62,-86 1659.35,-86"/>
<polygon fill="midnightblue" stroke="midnightblue" points="1659.61,-89.5001 1669.61,-86 1659.61,-82.5001 1659.61,-89.5001"/>
</g>
<!-- Node31 -->
<g id="node31" class="node"><title>Node31</title>
<g id="a_node31"><a xlink:href="../../db/d97/class_box_world.html#a55bf92d3f466bfaade0f6d199d8c9bd9" target="_top" xlink:title="BoxWorld.init">
<polygon fill="white" stroke="black" points="1683.5,-33.5 1683.5,-52.5 1760.5,-52.5 1760.5,-33.5 1683.5,-33.5"/>
<text text-anchor="middle" x="1722" y="-40.5" font-family="Helvetica,sans-Serif" font-size="10.00">BoxWorld.init</text>
</a>
</g>
</g>
<!-- Node29&#45;&gt;Node31 -->
<g id="edge34" class="edge"><title>Node29&#45;&gt;Node31</title>
<path fill="none" stroke="midnightblue" d="M1630.74,-76.4569C1646.96,-70.4445 1668.12,-62.6029 1685.87,-56.0227"/>
<polygon fill="midnightblue" stroke="midnightblue" points="1687.17,-59.274 1695.33,-52.5164 1684.73,-52.7105 1687.17,-59.274"/>
</g>
<!-- Node31&#45;&gt;Node1 -->
<g id="edge37" class="edge"><title>Node31&#45;&gt;Node1</title>
<path fill="none" stroke="midnightblue" d="M1687.62,-33.4569C1640.3,-20.7888 1550.78,-0 1473,-0 397,-0 397,-0 397,-0 237.953,-0 110.893,-186.845 73.9217,-247.343"/>
<polygon fill="midnightblue" stroke="midnightblue" points="70.7402,-245.842 68.5947,-256.217 76.7421,-249.445 70.7402,-245.842"/>
</g>
<!-- Node31&#45;&gt;Node17 -->
<g id="edge35" class="edge"><title>Node31&#45;&gt;Node17</title>
<path fill="none" stroke="midnightblue" d="M1747.53,-52.5309C1756.24,-56.427 1765.89,-61.3537 1774,-67 1812.92,-94.09 1850.66,-135.29 1870.54,-158.505"/>
<polygon fill="midnightblue" stroke="midnightblue" points="1868.12,-161.069 1877.25,-166.455 1873.47,-156.555 1868.12,-161.069"/>
</g>
<!-- Node31&#45;&gt;Node23 -->
<g id="edge36" class="edge"><title>Node31&#45;&gt;Node23</title>
<path fill="none" stroke="midnightblue" d="M1683.19,-41.764C1634.57,-40.2834 1547.5,-38 1473,-38 1300,-38 1300,-38 1300,-38 1180.59,-38 1147.12,-25.2671 1032,-57 923.545,-86.8965 912.19,-133.853 806,-171 793.739,-175.289 780.193,-178.759 767.381,-181.502"/>
<polygon fill="midnightblue" stroke="midnightblue" points="766.408,-178.128 757.303,-183.546 767.8,-184.988 766.408,-178.128"/>
</g>
</g>
</svg>
        <g id="navigator" transform="translate(0 0)" fill="#404254">
                <rect fill="#f2f5e9" fill-opacity="0.5" stroke="#606060" stroke-width=".5" x="0" y="0" width="60" height="60"/>
                <use id="zoomplus" xlink:href="#zoomPlus" x="17" y="9" onmousedown="handleZoom(evt,'in')"/>
                <use id="zoomminus" xlink:href="#zoomMin" x="42" y="9" onmousedown="handleZoom(evt,'out')"/>
                <use id="reset" xlink:href="#resetDef" x="30" y="36" onmousedown="handleReset()"/>
                <g id="arrowUp" xlink:href="#dirArrow" transform="translate(30 24)" onmousedown="handlePan(0,-1)">
                  <use xlink:href="#rim" fill="#404040">
                        <set attributeName="fill" to="#808080" begin="arrowUp.mouseover" end="arrowUp.mouseout"/>
                  </use>
                  <path fill="none" stroke="white" stroke-width="1.5" d="M0,-3.0v7 M-2.5,-0.5L0,-3.0L2.5,-0.5"/>
                </g>
                <g id="arrowRight" xlink:href="#dirArrow" transform="rotate(90) translate(36 -43)" onmousedown="handlePan(1,0)">
                  <use xlink:href="#rim" fill="#404040">
                        <set attributeName="fill" to="#808080" begin="arrowRight.mouseover" end="arrowRight.mouseout"/>
                  </use>
                  <path fill="none" stroke="white" stroke-width="1.5" d="M0,-3.0v7 M-2.5,-0.5L0,-3.0L2.5,-0.5"/>
                </g>
                <g id="arrowDown" xlink:href="#dirArrow" transform="rotate(180) translate(-30 -48)" onmousedown="handlePan(0,1)">
                  <use xlink:href="#rim" fill="#404040">
                        <set attributeName="fill" to="#808080" begin="arrowDown.mouseover" end="arrowDown.mouseout"/>
                  </use>
                  <path fill="none" stroke="white" stroke-width="1.5" d="M0,-3.0v7 M-2.5,-0.5L0,-3.0L2.5,-0.5"/>
                </g>
                <g id="arrowLeft" xlink:href="#dirArrow" transform="rotate(270) translate(-36 17)" onmousedown="handlePan(-1,0)">
                  <use xlink:href="#rim" fill="#404040">
                        <set attributeName="fill" to="#808080" begin="arrowLeft.mouseover" end="arrowLeft.mouseout"/>
                  </use>
                  <path fill="none" stroke="white" stroke-width="1.5" d="M0,-3.0v7 M-2.5,-0.5L0,-3.0L2.5,-0.5"/>
                </g>
        </g>
        <svg viewBox="0 0 15 15" width="100%" height="30px" preserveAspectRatio="xMaxYMin meet">
         <g id="arrow_out" transform="scale(0.3 0.3)">
          <a xlink:href="class_box_world_a726e747e023543658d7a345cc6466ccb_cgraph_org.svg" target="_base">
           <rect id="button" ry="5" rx="5" y="6" x="6" height="38" width="38"
                fill="#f2f5e9" fill-opacity="0.5" stroke="#606060" stroke-width="1.0"/>
           <path id="arrow"
             d="M 11.500037,31.436501 C 11.940474,20.09759 22.043105,11.32322 32.158766,21.979434 L 37.068811,17.246167 C 37.068811,17.246167 37.088388,32 37.088388,32 L 22.160133,31.978069 C 22.160133,31.978069 26.997745,27.140456 26.997745,27.140456 C 18.528582,18.264221 13.291696,25.230495 11.500037,31.436501 z"
             style="fill:#404040;"/>
          </a>
         </g>
        </svg>
</svg>
