<?xml version="1.0" encoding="UTF-8" standalone="no"?>
<!DOCTYPE svg PUBLIC "-//W3C//DTD SVG 1.1//EN"
 "http://www.w3.org/Graphics/SVG/1.1/DTD/svg11.dtd">
<!-- Generated by graphviz version 2.36.0 (20140111.2315)
 -->
<!-- Title: BoxWorld.checkCollide Pages: 1 -->
<svg width="1738pt" height="142pt"
 viewBox="0.00 0.00 1738.00 142.00" xmlns="http://www.w3.org/2000/svg" xmlns:xlink="http://www.w3.org/1999/xlink">
<g id="graph0" class="graph" transform="scale(1 1) rotate(0) translate(4 138)">
<title>BoxWorld.checkCollide</title>
<polygon fill="white" stroke="none" points="-4,4 -4,-138 1734,-138 1734,4 -4,4"/>
<!-- Node1 -->
<g id="node1" class="node"><title>Node1</title>
<polygon fill="#bfbfbf" stroke="black" points="0,-76.5 0,-95.5 122,-95.5 122,-76.5 0,-76.5"/>
<text text-anchor="middle" x="61" y="-83.5" font-family="Helvetica,sans-Serif" font-size="10.00">BoxWorld.checkCollide</text>
</g>
<!-- Node2 -->
<g id="node2" class="node"><title>Node2</title>
<g id="a_node2"><a xlink:href="../../d6/d4f/class_item_box_world.html#ad8a9b79d31264f523f05ed43aa490f0f" target="_top" xlink:title="ItemBoxWorld.checkAllCollisions">
<polygon fill="white" stroke="black" points="158,-95.5 158,-114.5 326,-114.5 326,-95.5 158,-95.5"/>
<text text-anchor="middle" x="242" y="-102.5" font-family="Helvetica,sans-Serif" font-size="10.00">ItemBoxWorld.checkAllCollisions</text>
</a>
</g>
</g>
<!-- Node1&#45;&gt;Node2 -->
<g id="edge1" class="edge"><title>Node1&#45;&gt;Node2</title>
<path fill="none" stroke="midnightblue" d="M132.216,-93.4531C140.621,-94.3452 149.264,-95.2627 157.83,-96.1719"/>
<polygon fill="midnightblue" stroke="midnightblue" points="132.416,-89.9547 122.102,-92.3796 131.677,-96.9156 132.416,-89.9547"/>
</g>
<!-- Node3 -->
<g id="node3" class="node"><title>Node3</title>
<g id="a_node3"><a xlink:href="../../db/d97/class_box_world.html#a4079bed8937c9f621decfbe1309e31e2" target="_top" xlink:title="BoxWorld.checkAllCollisions">
<polygon fill="white" stroke="black" points="169,-57.5 169,-76.5 315,-76.5 315,-57.5 169,-57.5"/>
<text text-anchor="middle" x="242" y="-64.5" font-family="Helvetica,sans-Serif" font-size="10.00">BoxWorld.checkAllCollisions</text>
</a>
</g>
</g>
<!-- Node1&#45;&gt;Node3 -->
<g id="edge2" class="edge"><title>Node1&#45;&gt;Node3</title>
<path fill="none" stroke="midnightblue" d="M132.125,-78.5566C144.22,-77.2727 156.811,-75.9363 168.956,-74.6472"/>
<polygon fill="midnightblue" stroke="midnightblue" points="131.677,-75.0844 122.102,-79.6204 132.416,-82.0453 131.677,-75.0844"/>
</g>
<!-- Node4 -->
<g id="node4" class="node"><title>Node4</title>
<g id="a_node4"><a xlink:href="../../db/d97/class_box_world.html#a6794c083c2a0263c2f585f4ae4b7e39c" target="_top" xlink:title="BoxWorld.updateSprites">
<polygon fill="white" stroke="black" points="362.5,-57.5 362.5,-76.5 493.5,-76.5 493.5,-57.5 362.5,-57.5"/>
<text text-anchor="middle" x="428" y="-64.5" font-family="Helvetica,sans-Serif" font-size="10.00">BoxWorld.updateSprites</text>
</a>
</g>
</g>
<!-- Node3&#45;&gt;Node4 -->
<g id="edge3" class="edge"><title>Node3&#45;&gt;Node4</title>
<path fill="none" stroke="midnightblue" d="M325.529,-67C337.922,-67 350.547,-67 362.491,-67"/>
<polygon fill="midnightblue" stroke="midnightblue" points="325.194,-63.5001 315.194,-67 325.194,-70.5001 325.194,-63.5001"/>
</g>
<!-- Node5 -->
<g id="node5" class="node"><title>Node5</title>
<g id="a_node5"><a xlink:href="../../db/d97/class_box_world.html#ad20a4e43406c44f4bbf201d1d1028998" target="_top" xlink:title="BoxWorld.start">
<polygon fill="white" stroke="black" points="530,-57.5 530,-76.5 616,-76.5 616,-57.5 530,-57.5"/>
<text text-anchor="middle" x="573" y="-64.5" font-family="Helvetica,sans-Serif" font-size="10.00">BoxWorld.start</text>
</a>
</g>
</g>
<!-- Node4&#45;&gt;Node5 -->
<g id="edge4" class="edge"><title>Node4&#45;&gt;Node5</title>
<path fill="none" stroke="midnightblue" d="M503.898,-67C512.837,-67 521.705,-67 529.941,-67"/>
<polygon fill="midnightblue" stroke="midnightblue" points="503.806,-63.5001 493.806,-67 503.806,-70.5001 503.806,-63.5001"/>
</g>
<!-- Node6 -->
<g id="node6" class="node"><title>Node6</title>
<g id="a_node6"><a xlink:href="../../db/d97/class_box_world.html#a55bf92d3f466bfaade0f6d199d8c9bd9" target="_top" xlink:title="BoxWorld.init">
<polygon fill="white" stroke="black" points="1260.5,-76.5 1260.5,-95.5 1337.5,-95.5 1337.5,-76.5 1260.5,-76.5"/>
<text text-anchor="middle" x="1299" y="-83.5" font-family="Helvetica,sans-Serif" font-size="10.00">BoxWorld.init</text>
</a>
</g>
</g>
<!-- Node5&#45;&gt;Node6 -->
<g id="edge5" class="edge"><title>Node5&#45;&gt;Node6</title>
<path fill="none" stroke="midnightblue" d="M626.401,-61.0209C679.802,-55.4509 765.056,-48 839,-48 839,-48 839,-48 997,-48 1098.24,-48 1124.17,-50.1295 1224,-67 1237.86,-69.3429 1252.93,-73.003 1265.83,-76.488"/>
<polygon fill="midnightblue" stroke="midnightblue" points="625.733,-57.572 616.158,-62.107 626.471,-64.5329 625.733,-57.572"/>
</g>
<!-- Node14 -->
<g id="node14" class="node"><title>Node14</title>
<g id="a_node14"><a xlink:href="../../d6/d4f/class_item_box_world.html#aa559fc2680327b41fb376e2eda8e82e3" target="_top" xlink:title="ItemBoxWorld.init">
<polygon fill="white" stroke="black" points="652.5,-76.5 652.5,-95.5 751.5,-95.5 751.5,-76.5 652.5,-76.5"/>
<text text-anchor="middle" x="702" y="-83.5" font-family="Helvetica,sans-Serif" font-size="10.00">ItemBoxWorld.init</text>
</a>
</g>
</g>
<!-- Node5&#45;&gt;Node14 -->
<g id="edge14" class="edge"><title>Node5&#45;&gt;Node14</title>
<path fill="none" stroke="midnightblue" d="M626.241,-74.8156C634.865,-76.1058 643.775,-77.4388 652.307,-78.7152"/>
<polygon fill="midnightblue" stroke="midnightblue" points="626.697,-71.3449 616.289,-73.3267 625.661,-78.2679 626.697,-71.3449"/>
</g>
<!-- Node7 -->
<g id="node7" class="node"><title>Node7</title>
<g id="a_node7"><a xlink:href="../../d2/db8/class_menu.html#a3c99ad09e9f2f975c1a0d0597642651a" target="_top" xlink:title="Menu.init">
<polygon fill="white" stroke="black" points="1374,-76.5 1374,-95.5 1434,-95.5 1434,-76.5 1374,-76.5"/>
<text text-anchor="middle" x="1404" y="-83.5" font-family="Helvetica,sans-Serif" font-size="10.00">Menu.init</text>
</a>
</g>
</g>
<!-- Node6&#45;&gt;Node7 -->
<g id="edge6" class="edge"><title>Node6&#45;&gt;Node7</title>
<path fill="none" stroke="midnightblue" d="M1348.03,-86C1356.89,-86 1365.87,-86 1373.95,-86"/>
<polygon fill="midnightblue" stroke="midnightblue" points="1347.77,-82.5001 1337.77,-86 1347.77,-89.5001 1347.77,-82.5001"/>
</g>
<!-- Node8 -->
<g id="node8" class="node"><title>Node8</title>
<g id="a_node8"><a xlink:href="../../d1/de1/class_end_screen.html#a1264ffb72b3a3032443f9c4087222aef" target="_top" xlink:title="EndScreen.init">
<polygon fill="white" stroke="black" points="1472,-76.5 1472,-95.5 1558,-95.5 1558,-76.5 1472,-76.5"/>
<text text-anchor="middle" x="1515" y="-83.5" font-family="Helvetica,sans-Serif" font-size="10.00">EndScreen.init</text>
</a>
</g>
</g>
<!-- Node7&#45;&gt;Node8 -->
<g id="edge7" class="edge"><title>Node7&#45;&gt;Node8</title>
<path fill="none" stroke="midnightblue" d="M1444.29,-86C1453.15,-86 1462.6,-86 1471.59,-86"/>
<polygon fill="midnightblue" stroke="midnightblue" points="1444.21,-82.5001 1434.21,-86 1444.21,-89.5001 1444.21,-82.5001"/>
</g>
<!-- Node10 -->
<g id="node10" class="node"><title>Node10</title>
<g id="a_node10"><a xlink:href="../../d4/d2f/class_lose_screen.html#a34f2cc2c803500316c9b8d854854d758" target="_top" xlink:title="LoseScreen.init">
<polygon fill="white" stroke="black" points="1470,-38.5 1470,-57.5 1560,-57.5 1560,-38.5 1470,-38.5"/>
<text text-anchor="middle" x="1515" y="-45.5" font-family="Helvetica,sans-Serif" font-size="10.00">LoseScreen.init</text>
</a>
</g>
</g>
<!-- Node7&#45;&gt;Node10 -->
<g id="edge9" class="edge"><title>Node7&#45;&gt;Node10</title>
<path fill="none" stroke="midnightblue" d="M1442.21,-73.0282C1456.73,-67.9656 1473.08,-62.2659 1486.5,-57.5859"/>
<polygon fill="midnightblue" stroke="midnightblue" points="1440.8,-69.8141 1432.51,-76.411 1443.1,-76.4239 1440.8,-69.8141"/>
</g>
<!-- Node13 -->
<g id="node13" class="node"><title>Node13</title>
<g id="a_node13"><a xlink:href="../../d0/d4b/class_main.html#a7595d13c514a02c35aca322dd91d2063" target="_top" xlink:title="Main.start">
<polygon fill="white" stroke="black" points="1482.5,-114.5 1482.5,-133.5 1547.5,-133.5 1547.5,-114.5 1482.5,-114.5"/>
<text text-anchor="middle" x="1515" y="-121.5" font-family="Helvetica,sans-Serif" font-size="10.00">Main.start</text>
</a>
</g>
</g>
<!-- Node7&#45;&gt;Node13 -->
<g id="edge13" class="edge"><title>Node7&#45;&gt;Node13</title>
<path fill="none" stroke="midnightblue" d="M1442.21,-98.9718C1456.73,-104.034 1473.08,-109.734 1486.5,-114.414"/>
<polygon fill="midnightblue" stroke="midnightblue" points="1443.1,-95.5761 1432.51,-95.589 1440.8,-102.186 1443.1,-95.5761"/>
</g>
<!-- Node9 -->
<g id="node9" class="node"><title>Node9</title>
<g id="a_node9"><a xlink:href="../../d6/d4f/class_item_box_world.html#a2ed12a6b39993faedc05cc682204476d" target="_top" xlink:title="ItemBoxWorld.winLevel">
<polygon fill="white" stroke="black" points="1600.5,-76.5 1600.5,-95.5 1725.5,-95.5 1725.5,-76.5 1600.5,-76.5"/>
<text text-anchor="middle" x="1663" y="-83.5" font-family="Helvetica,sans-Serif" font-size="10.00">ItemBoxWorld.winLevel</text>
</a>
</g>
</g>
<!-- Node8&#45;&gt;Node9 -->
<g id="edge8" class="edge"><title>Node8&#45;&gt;Node9</title>
<path fill="none" stroke="midnightblue" d="M1568.35,-86C1578.71,-86 1589.68,-86 1600.31,-86"/>
<polygon fill="midnightblue" stroke="midnightblue" points="1568.23,-82.5001 1558.23,-86 1568.23,-89.5001 1568.23,-82.5001"/>
</g>
<!-- Node11 -->
<g id="node11" class="node"><title>Node11</title>
<g id="a_node11"><a xlink:href="../../db/d97/class_box_world.html#a72bacb2a6757900d8835249929fcc838" target="_top" xlink:title="BoxWorld.loseGame">
<polygon fill="white" stroke="black" points="1607,-0.5 1607,-19.5 1719,-19.5 1719,-0.5 1607,-0.5"/>
<text text-anchor="middle" x="1663" y="-7.5" font-family="Helvetica,sans-Serif" font-size="10.00">BoxWorld.loseGame</text>
</a>
</g>
</g>
<!-- Node10&#45;&gt;Node11 -->
<g id="edge10" class="edge"><title>Node10&#45;&gt;Node11</title>
<path fill="none" stroke="midnightblue" d="M1562.54,-35.8879C1582.87,-30.5956 1606.37,-24.4787 1625.42,-19.5201"/>
<polygon fill="midnightblue" stroke="midnightblue" points="1561.64,-32.5049 1552.84,-38.411 1563.4,-39.2793 1561.64,-32.5049"/>
</g>
<!-- Node12 -->
<g id="node12" class="node"><title>Node12</title>
<g id="a_node12"><a xlink:href="../../d6/d4f/class_item_box_world.html#a295cf7212ad54fa599e2a2d85ee0523d" target="_top" xlink:title="ItemBoxWorld.loseGame">
<polygon fill="white" stroke="black" points="1596,-38.5 1596,-57.5 1730,-57.5 1730,-38.5 1596,-38.5"/>
<text text-anchor="middle" x="1663" y="-45.5" font-family="Helvetica,sans-Serif" font-size="10.00">ItemBoxWorld.loseGame</text>
</a>
</g>
</g>
<!-- Node10&#45;&gt;Node12 -->
<g id="edge12" class="edge"><title>Node10&#45;&gt;Node12</title>
<path fill="none" stroke="midnightblue" d="M1570.47,-48C1578.75,-48 1587.37,-48 1595.86,-48"/>
<polygon fill="midnightblue" stroke="midnightblue" points="1570.2,-44.5001 1560.2,-48 1570.2,-51.5001 1570.2,-44.5001"/>
</g>
<!-- Node11&#45;&gt;Node3 -->
<g id="edge11" class="edge"><title>Node11&#45;&gt;Node3</title>
<path fill="none" stroke="midnightblue" d="M1596.78,-10C1544.83,-10 1470.25,-10 1405,-10 572,-10 572,-10 572,-10 462.149,-10 334.654,-41.233 275.83,-57.4595"/>
<polygon fill="midnightblue" stroke="midnightblue" points="1596.85,-13.5001 1606.85,-10 1596.85,-6.5001 1596.85,-13.5001"/>
</g>
<!-- Node15 -->
<g id="node15" class="node"><title>Node15</title>
<g id="a_node15"><a xlink:href="../../db/d97/class_box_world.html#aad670712776afe126e51791097027e05" target="_top" xlink:title="BoxWorld.winLevel">
<polygon fill="white" stroke="black" points="788.5,-114.5 788.5,-133.5 891.5,-133.5 891.5,-114.5 788.5,-114.5"/>
<text text-anchor="middle" x="840" y="-121.5" font-family="Helvetica,sans-Serif" font-size="10.00">BoxWorld.winLevel</text>
</a>
</g>
</g>
<!-- Node14&#45;&gt;Node15 -->
<g id="edge15" class="edge"><title>Node14&#45;&gt;Node15</title>
<path fill="none" stroke="midnightblue" d="M747.087,-98.3183C765.772,-103.539 787.218,-109.532 804.692,-114.414"/>
<polygon fill="midnightblue" stroke="midnightblue" points="747.892,-94.9092 737.319,-95.589 746.008,-101.651 747.892,-94.9092"/>
</g>
<!-- Node15&#45;&gt;Node3 -->
<g id="edge16" class="edge"><title>Node15&#45;&gt;Node3</title>
<path fill="none" stroke="midnightblue" d="M778.283,-120.701C687.508,-115.42 511.124,-103.817 362,-86 340.603,-83.4436 317.16,-79.8686 296.782,-76.5084"/>
<polygon fill="midnightblue" stroke="midnightblue" points="778.205,-124.202 788.39,-121.283 778.608,-117.213 778.205,-124.202"/>
</g>
<!-- Node16 -->
<g id="node16" class="node"><title>Node16</title>
<g id="a_node16"><a xlink:href="../../db/d97/class_box_world.html#aa7e2049d7be23e15fd2ec7fa2922ed79" target="_top" xlink:title="BoxWorld.handleKeyInput">
<polygon fill="white" stroke="black" points="928,-114.5 928,-133.5 1064,-133.5 1064,-114.5 928,-114.5"/>
<text text-anchor="middle" x="996" y="-121.5" font-family="Helvetica,sans-Serif" font-size="10.00">BoxWorld.handleKeyInput</text>
</a>
</g>
</g>
<!-- Node15&#45;&gt;Node16 -->
<g id="edge17" class="edge"><title>Node15&#45;&gt;Node16</title>
<path fill="none" stroke="midnightblue" d="M902.075,-124C910.591,-124 919.378,-124 927.996,-124"/>
<polygon fill="midnightblue" stroke="midnightblue" points="901.852,-120.5 891.852,-124 901.852,-127.5 901.852,-120.5"/>
</g>
<!-- Node17 -->
<g id="node17" class="node"><title>Node17</title>
<g id="a_node17"><a xlink:href="../../db/d97/class_box_world.html#a726e747e023543658d7a345cc6466ccb" target="_top" xlink:title="BoxWorld.createScene">
<polygon fill="white" stroke="black" points="1100,-76.5 1100,-95.5 1224,-95.5 1224,-76.5 1100,-76.5"/>
<text text-anchor="middle" x="1162" y="-83.5" font-family="Helvetica,sans-Serif" font-size="10.00">BoxWorld.createScene</text>
</a>
</g>
</g>
<!-- Node16&#45;&gt;Node17 -->
<g id="edge18" class="edge"><title>Node16&#45;&gt;Node17</title>
<path fill="none" stroke="midnightblue" d="M1048.34,-112.104C1071.39,-106.763 1098.22,-100.546 1119.91,-95.5201"/>
<polygon fill="midnightblue" stroke="midnightblue" points="1047.34,-108.744 1038.38,-114.411 1048.92,-115.563 1047.34,-108.744"/>
</g>
<!-- Node17&#45;&gt;Node6 -->
<g id="edge19" class="edge"><title>Node17&#45;&gt;Node6</title>
<path fill="none" stroke="midnightblue" d="M1234.28,-86C1243.23,-86 1252.08,-86 1260.22,-86"/>
<polygon fill="midnightblue" stroke="midnightblue" points="1234.18,-82.5001 1224.18,-86 1234.18,-89.5001 1234.18,-82.5001"/>
</g>
<!-- Node17&#45;&gt;Node14 -->
<g id="edge20" class="edge"><title>Node17&#45;&gt;Node14</title>
<path fill="none" stroke="midnightblue" d="M1089.63,-86C995.569,-86 832.574,-86 751.58,-86"/>
<polygon fill="midnightblue" stroke="midnightblue" points="1089.91,-89.5001 1099.91,-86 1089.91,-82.5001 1089.91,-89.5001"/>
</g>
</g>
</svg>
