<?xml version="1.0" encoding="UTF-8" standalone="no"?>
<!DOCTYPE svg PUBLIC "-//W3C//DTD SVG 1.1//EN"
 "http://www.w3.org/Graphics/SVG/1.1/DTD/svg11.dtd">
<!-- Generated by graphviz version 2.36.0 (20140111.2315)
 -->
<!-- Title: BoxWorld.init Pages: 1 -->
<svg width="1562pt" height="170pt"
 viewBox="0.00 0.00 1562.00 170.00" xmlns="http://www.w3.org/2000/svg" xmlns:xlink="http://www.w3.org/1999/xlink">
<g id="graph0" class="graph" transform="scale(1 1) rotate(0) translate(4 166)">
<title>BoxWorld.init</title>
<polygon fill="white" stroke="none" points="-4,4 -4,-166 1558,-166 1558,4 -4,4"/>
<!-- Node1 -->
<g id="node1" class="node"><title>Node1</title>
<polygon fill="#bfbfbf" stroke="black" points="0.5,-28.5 0.5,-47.5 77.5,-47.5 77.5,-28.5 0.5,-28.5"/>
<text text-anchor="middle" x="39" y="-35.5" font-family="Helvetica,sans-Serif" font-size="10.00">BoxWorld.init</text>
</g>
<!-- Node2 -->
<g id="node2" class="node"><title>Node2</title>
<g id="a_node2"><a xlink:href="../../d2/db8/class_menu.html#a3c99ad09e9f2f975c1a0d0597642651a" target="_top" xlink:title="Menu.init">
<polygon fill="white" stroke="black" points="114,-85.5 114,-104.5 174,-104.5 174,-85.5 114,-85.5"/>
<text text-anchor="middle" x="144" y="-92.5" font-family="Helvetica,sans-Serif" font-size="10.00">Menu.init</text>
</a>
</g>
</g>
<!-- Node1&#45;&gt;Node2 -->
<g id="edge1" class="edge"><title>Node1&#45;&gt;Node2</title>
<path fill="none" stroke="midnightblue" d="M66.3715,-52.5939C85.0506,-62.9309 109.572,-76.5009 125.785,-85.4735"/>
<polygon fill="midnightblue" stroke="midnightblue" points="67.9168,-49.449 57.4725,-47.6693 64.5274,-55.5737 67.9168,-49.449"/>
</g>
<!-- Node3 -->
<g id="node3" class="node"><title>Node3</title>
<g id="a_node3"><a xlink:href="../../d1/de1/class_end_screen.html#a1264ffb72b3a3032443f9c4087222aef" target="_top" xlink:title="EndScreen.init">
<polygon fill="white" stroke="black" points="212,-66.5 212,-85.5 298,-85.5 298,-66.5 212,-66.5"/>
<text text-anchor="middle" x="255" y="-73.5" font-family="Helvetica,sans-Serif" font-size="10.00">EndScreen.init</text>
</a>
</g>
</g>
<!-- Node2&#45;&gt;Node3 -->
<g id="edge2" class="edge"><title>Node2&#45;&gt;Node3</title>
<path fill="none" stroke="midnightblue" d="M184.287,-88.1517C193.154,-86.6062 202.604,-84.959 211.592,-83.3922"/>
<polygon fill="midnightblue" stroke="midnightblue" points="183.46,-84.743 174.21,-89.9083 184.663,-91.6391 183.46,-84.743"/>
</g>
<!-- Node6 -->
<g id="node6" class="node"><title>Node6</title>
<g id="a_node6"><a xlink:href="../../d4/d2f/class_lose_screen.html#a34f2cc2c803500316c9b8d854854d758" target="_top" xlink:title="LoseScreen.init">
<polygon fill="white" stroke="black" points="210,-142.5 210,-161.5 300,-161.5 300,-142.5 210,-142.5"/>
<text text-anchor="middle" x="255" y="-149.5" font-family="Helvetica,sans-Serif" font-size="10.00">LoseScreen.init</text>
</a>
</g>
</g>
<!-- Node2&#45;&gt;Node6 -->
<g id="edge5" class="edge"><title>Node2&#45;&gt;Node6</title>
<path fill="none" stroke="midnightblue" d="M168.835,-109.87C180.964,-117.196 196.058,-125.947 210,-133 216.534,-136.305 223.775,-139.583 230.465,-142.462"/>
<polygon fill="midnightblue" stroke="midnightblue" points="170.563,-106.824 160.205,-104.597 166.913,-112.798 170.563,-106.824"/>
</g>
<!-- Node15 -->
<g id="node15" class="node"><title>Node15</title>
<g id="a_node15"><a xlink:href="../../d0/d4b/class_main.html#a7595d13c514a02c35aca322dd91d2063" target="_top" xlink:title="Main.start">
<polygon fill="white" stroke="black" points="222.5,-104.5 222.5,-123.5 287.5,-123.5 287.5,-104.5 222.5,-104.5"/>
<text text-anchor="middle" x="255" y="-111.5" font-family="Helvetica,sans-Serif" font-size="10.00">Main.start</text>
</a>
</g>
</g>
<!-- Node2&#45;&gt;Node15 -->
<g id="edge18" class="edge"><title>Node2&#45;&gt;Node15</title>
<path fill="none" stroke="midnightblue" d="M184.376,-101.864C196.878,-104.043 210.534,-106.423 222.413,-108.494"/>
<polygon fill="midnightblue" stroke="midnightblue" points="184.663,-98.3609 174.21,-100.092 183.46,-105.257 184.663,-98.3609"/>
</g>
<!-- Node4 -->
<g id="node4" class="node"><title>Node4</title>
<g id="a_node4"><a xlink:href="../../d6/d4f/class_item_box_world.html#a2ed12a6b39993faedc05cc682204476d" target="_top" xlink:title="ItemBoxWorld.winLevel">
<polygon fill="white" stroke="black" points="336.5,-66.5 336.5,-85.5 461.5,-85.5 461.5,-66.5 336.5,-66.5"/>
<text text-anchor="middle" x="399" y="-73.5" font-family="Helvetica,sans-Serif" font-size="10.00">ItemBoxWorld.winLevel</text>
</a>
</g>
</g>
<!-- Node3&#45;&gt;Node4 -->
<g id="edge3" class="edge"><title>Node3&#45;&gt;Node4</title>
<path fill="none" stroke="midnightblue" d="M308.34,-76C317.502,-76 327.111,-76 336.495,-76"/>
<polygon fill="midnightblue" stroke="midnightblue" points="308.22,-72.5001 298.22,-76 308.22,-79.5001 308.22,-72.5001"/>
</g>
<!-- Node5 -->
<g id="node5" class="node"><title>Node5</title>
<g id="a_node5"><a xlink:href="../../d6/d4f/class_item_box_world.html#ae442d947b4dafc944336ee27628d2175" target="_top" xlink:title="ItemBoxWorld.handleKeyInput">
<polygon fill="white" stroke="black" points="498,-66.5 498,-85.5 656,-85.5 656,-66.5 498,-66.5"/>
<text text-anchor="middle" x="577" y="-73.5" font-family="Helvetica,sans-Serif" font-size="10.00">ItemBoxWorld.handleKeyInput</text>
</a>
</g>
</g>
<!-- Node4&#45;&gt;Node5 -->
<g id="edge4" class="edge"><title>Node4&#45;&gt;Node5</title>
<path fill="none" stroke="midnightblue" d="M471.568,-76C480.2,-76 489.05,-76 497.771,-76"/>
<polygon fill="midnightblue" stroke="midnightblue" points="471.556,-72.5001 461.556,-76 471.556,-79.5001 471.556,-72.5001"/>
</g>
<!-- Node7 -->
<g id="node7" class="node"><title>Node7</title>
<g id="a_node7"><a xlink:href="../../db/d97/class_box_world.html#a72bacb2a6757900d8835249929fcc838" target="_top" xlink:title="BoxWorld.loseGame">
<polygon fill="white" stroke="black" points="343,-104.5 343,-123.5 455,-123.5 455,-104.5 343,-104.5"/>
<text text-anchor="middle" x="399" y="-111.5" font-family="Helvetica,sans-Serif" font-size="10.00">BoxWorld.loseGame</text>
</a>
</g>
</g>
<!-- Node6&#45;&gt;Node7 -->
<g id="edge6" class="edge"><title>Node6&#45;&gt;Node7</title>
<path fill="none" stroke="midnightblue" d="M301.493,-139.826C321.128,-134.571 343.766,-128.513 362.179,-123.586"/>
<polygon fill="midnightblue" stroke="midnightblue" points="300.588,-136.445 291.833,-142.411 302.397,-143.207 300.588,-136.445"/>
</g>
<!-- Node8 -->
<g id="node8" class="node"><title>Node8</title>
<g id="a_node8"><a xlink:href="../../db/d97/class_box_world.html#a4079bed8937c9f621decfbe1309e31e2" target="_top" xlink:title="BoxWorld.checkAllCollisions">
<polygon fill="white" stroke="black" points="504,-104.5 504,-123.5 650,-123.5 650,-104.5 504,-104.5"/>
<text text-anchor="middle" x="577" y="-111.5" font-family="Helvetica,sans-Serif" font-size="10.00">BoxWorld.checkAllCollisions</text>
</a>
</g>
</g>
<!-- Node7&#45;&gt;Node8 -->
<g id="edge7" class="edge"><title>Node7&#45;&gt;Node8</title>
<path fill="none" stroke="midnightblue" d="M465.528,-114C478.027,-114 491.175,-114 503.868,-114"/>
<polygon fill="midnightblue" stroke="midnightblue" points="465.205,-110.5 455.205,-114 465.205,-117.5 465.205,-110.5"/>
</g>
<!-- Node9 -->
<g id="node9" class="node"><title>Node9</title>
<g id="a_node9"><a xlink:href="../../db/d97/class_box_world.html#a6794c083c2a0263c2f585f4ae4b7e39c" target="_top" xlink:title="BoxWorld.updateSprites">
<polygon fill="white" stroke="black" points="692.5,-66.5 692.5,-85.5 823.5,-85.5 823.5,-66.5 692.5,-66.5"/>
<text text-anchor="middle" x="758" y="-73.5" font-family="Helvetica,sans-Serif" font-size="10.00">BoxWorld.updateSprites</text>
</a>
</g>
</g>
<!-- Node8&#45;&gt;Node9 -->
<g id="edge8" class="edge"><title>Node8&#45;&gt;Node9</title>
<path fill="none" stroke="midnightblue" d="M633.024,-102.319C658.408,-96.9301 688.161,-90.6139 712.156,-85.5201"/>
<polygon fill="midnightblue" stroke="midnightblue" points="632.224,-98.9106 623.169,-104.411 633.678,-105.758 632.224,-98.9106"/>
</g>
<!-- Node10 -->
<g id="node10" class="node"><title>Node10</title>
<g id="a_node10"><a xlink:href="../../db/d97/class_box_world.html#ad20a4e43406c44f4bbf201d1d1028998" target="_top" xlink:title="BoxWorld.start">
<polygon fill="white" stroke="black" points="860,-47.5 860,-66.5 946,-66.5 946,-47.5 860,-47.5"/>
<text text-anchor="middle" x="903" y="-54.5" font-family="Helvetica,sans-Serif" font-size="10.00">BoxWorld.start</text>
</a>
</g>
</g>
<!-- Node9&#45;&gt;Node10 -->
<g id="edge9" class="edge"><title>Node9&#45;&gt;Node10</title>
<path fill="none" stroke="midnightblue" d="M833.898,-66.0485C842.837,-64.8608 851.705,-63.6826 859.941,-62.5883"/>
<polygon fill="midnightblue" stroke="midnightblue" points="833.257,-62.6028 823.806,-67.3895 834.18,-69.5418 833.257,-62.6028"/>
</g>
<!-- Node10&#45;&gt;Node1 -->
<g id="edge10" class="edge"><title>Node10&#45;&gt;Node1</title>
<path fill="none" stroke="midnightblue" d="M849.609,-52.0349C785.591,-46.4053 673.942,-38 578,-38 254,-38 254,-38 254,-38 192.326,-38 120.655,-38 77.8835,-38"/>
<polygon fill="midnightblue" stroke="midnightblue" points="849.576,-55.5457 859.847,-52.9473 850.198,-48.5733 849.576,-55.5457"/>
</g>
<!-- Node11 -->
<g id="node11" class="node"><title>Node11</title>
<g id="a_node11"><a xlink:href="../../d6/d4f/class_item_box_world.html#aa559fc2680327b41fb376e2eda8e82e3" target="_top" xlink:title="ItemBoxWorld.init">
<polygon fill="white" stroke="black" points="982.5,-47.5 982.5,-66.5 1081.5,-66.5 1081.5,-47.5 982.5,-47.5"/>
<text text-anchor="middle" x="1032" y="-54.5" font-family="Helvetica,sans-Serif" font-size="10.00">ItemBoxWorld.init</text>
</a>
</g>
</g>
<!-- Node10&#45;&gt;Node11 -->
<g id="edge11" class="edge"><title>Node10&#45;&gt;Node11</title>
<path fill="none" stroke="midnightblue" d="M956.523,-57C965.059,-57 973.868,-57 982.307,-57"/>
<polygon fill="midnightblue" stroke="midnightblue" points="956.289,-53.5001 946.289,-57 956.289,-60.5001 956.289,-53.5001"/>
</g>
<!-- Node12 -->
<g id="node12" class="node"><title>Node12</title>
<g id="a_node12"><a xlink:href="../../db/d97/class_box_world.html#aad670712776afe126e51791097027e05" target="_top" xlink:title="BoxWorld.winLevel">
<polygon fill="white" stroke="black" points="1118.5,-75.5 1118.5,-94.5 1221.5,-94.5 1221.5,-75.5 1118.5,-75.5"/>
<text text-anchor="middle" x="1170" y="-82.5" font-family="Helvetica,sans-Serif" font-size="10.00">BoxWorld.winLevel</text>
</a>
</g>
</g>
<!-- Node11&#45;&gt;Node12 -->
<g id="edge12" class="edge"><title>Node11&#45;&gt;Node12</title>
<path fill="none" stroke="midnightblue" d="M1089.46,-68.624C1100.56,-70.9085 1112.07,-73.28 1122.79,-75.4854"/>
<polygon fill="midnightblue" stroke="midnightblue" points="1089.92,-65.1462 1079.42,-66.5577 1088.51,-72.0024 1089.92,-65.1462"/>
</g>
<!-- Node12&#45;&gt;Node8 -->
<g id="edge13" class="edge"><title>Node12&#45;&gt;Node8</title>
<path fill="none" stroke="midnightblue" d="M1108.12,-87.9873C998.336,-93.3744 767.704,-104.691 650.173,-110.459"/>
<polygon fill="midnightblue" stroke="midnightblue" points="1108.54,-91.4708 1118.36,-87.4848 1108.2,-84.4792 1108.54,-91.4708"/>
</g>
<!-- Node13 -->
<g id="node13" class="node"><title>Node13</title>
<g id="a_node13"><a xlink:href="../../db/d97/class_box_world.html#aa7e2049d7be23e15fd2ec7fa2922ed79" target="_top" xlink:title="BoxWorld.handleKeyInput">
<polygon fill="white" stroke="black" points="1258,-75.5 1258,-94.5 1394,-94.5 1394,-75.5 1258,-75.5"/>
<text text-anchor="middle" x="1326" y="-82.5" font-family="Helvetica,sans-Serif" font-size="10.00">BoxWorld.handleKeyInput</text>
</a>
</g>
</g>
<!-- Node12&#45;&gt;Node13 -->
<g id="edge14" class="edge"><title>Node12&#45;&gt;Node13</title>
<path fill="none" stroke="midnightblue" d="M1232.08,-85C1240.59,-85 1249.38,-85 1258,-85"/>
<polygon fill="midnightblue" stroke="midnightblue" points="1231.85,-81.5001 1221.85,-85 1231.85,-88.5001 1231.85,-81.5001"/>
</g>
<!-- Node14 -->
<g id="node14" class="node"><title>Node14</title>
<g id="a_node14"><a xlink:href="../../db/d97/class_box_world.html#a726e747e023543658d7a345cc6466ccb" target="_top" xlink:title="BoxWorld.createScene">
<polygon fill="white" stroke="black" points="1430,-37.5 1430,-56.5 1554,-56.5 1554,-37.5 1430,-37.5"/>
<text text-anchor="middle" x="1492" y="-44.5" font-family="Helvetica,sans-Serif" font-size="10.00">BoxWorld.createScene</text>
</a>
</g>
</g>
<!-- Node13&#45;&gt;Node14 -->
<g id="edge15" class="edge"><title>Node13&#45;&gt;Node14</title>
<path fill="none" stroke="midnightblue" d="M1378.34,-73.1039C1401.39,-67.7626 1428.22,-61.5463 1449.91,-56.5201"/>
<polygon fill="midnightblue" stroke="midnightblue" points="1377.34,-69.744 1368.38,-75.411 1378.92,-76.5633 1377.34,-69.744"/>
</g>
<!-- Node14&#45;&gt;Node1 -->
<g id="edge17" class="edge"><title>Node14&#45;&gt;Node1</title>
<path fill="none" stroke="midnightblue" d="M1441.88,-35.2375C1379.35,-21.3159 1267.81,-6.73073e-15 1171,-0 254,-0 254,-0 254,-0 189.098,-0 114.805,-17.1538 73.0379,-28.411"/>
<polygon fill="midnightblue" stroke="midnightblue" points="1441.34,-38.7016 1451.86,-37.4888 1442.88,-31.8733 1441.34,-38.7016"/>
</g>
<!-- Node14&#45;&gt;Node11 -->
<g id="edge16" class="edge"><title>Node14&#45;&gt;Node11</title>
<path fill="none" stroke="midnightblue" d="M1419.63,-48.5583C1325.57,-50.612 1162.57,-54.1709 1081.58,-55.9393"/>
<polygon fill="midnightblue" stroke="midnightblue" points="1419.99,-52.0513 1429.91,-48.3338 1419.84,-45.053 1419.99,-52.0513"/>
</g>
</g>
</svg>
