<?xml version="1.0" encoding="UTF-8" standalone="no"?>
<!DOCTYPE svg PUBLIC "-//W3C//DTD SVG 1.1//EN"
 "http://www.w3.org/Graphics/SVG/1.1/DTD/svg11.dtd">
<!-- Generated by graphviz version 2.36.0 (20140111.2315)
 -->
<!-- Title: BoxWorld.loseGame Pages: 1 -->
<svg width="2064pt" height="531pt"
 viewBox="0.00 0.00 2064.00 530.79" xmlns="http://www.w3.org/2000/svg" xmlns:xlink="http://www.w3.org/1999/xlink">
<g id="graph0" class="graph" transform="scale(1 1) rotate(0) translate(4 526.79)">
<title>BoxWorld.loseGame</title>
<polygon fill="white" stroke="none" points="-4,4 -4,-526.79 2060,-526.79 2060,4 -4,4"/>
<!-- Node1 -->
<g id="node1" class="node"><title>Node1</title>
<polygon fill="#bfbfbf" stroke="black" points="0,-469.504 0,-488.504 112,-488.504 112,-469.504 0,-469.504"/>
<text text-anchor="middle" x="56" y="-476.504" font-family="Helvetica,sans-Serif" font-size="10.00">BoxWorld.loseGame</text>
</g>
<!-- Node2 -->
<g id="node2" class="node"><title>Node2</title>
<g id="a_node2"><a xlink:href="../../d4/d2f/class_lose_screen.html#a34f2cc2c803500316c9b8d854854d758" target="_top" xlink:title="LoseScreen.init">
<polygon fill="white" stroke="black" points="148,-436.504 148,-455.504 238,-455.504 238,-436.504 148,-436.504"/>
<text text-anchor="middle" x="193" y="-443.504" font-family="Helvetica,sans-Serif" font-size="10.00">LoseScreen.init</text>
</a>
</g>
</g>
<!-- Node1&#45;&gt;Node2 -->
<g id="edge1" class="edge"><title>Node1&#45;&gt;Node2</title>
<path fill="none" stroke="midnightblue" d="M96.0476,-469.459C110.74,-465.868 127.634,-461.738 143.111,-457.955"/>
<polygon fill="midnightblue" stroke="midnightblue" points="144.157,-461.302 153.04,-455.528 142.495,-454.502 144.157,-461.302"/>
</g>
<!-- Node3 -->
<g id="node3" class="node"><title>Node3</title>
<g id="a_node3"><a xlink:href="../../d2/db8/class_menu.html#a3c99ad09e9f2f975c1a0d0597642651a" target="_top" xlink:title="Menu.init">
<polygon fill="white" stroke="black" points="274,-422.504 274,-441.504 334,-441.504 334,-422.504 274,-422.504"/>
<text text-anchor="middle" x="304" y="-429.504" font-family="Helvetica,sans-Serif" font-size="10.00">Menu.init</text>
</a>
</g>
</g>
<!-- Node2&#45;&gt;Node3 -->
<g id="edge2" class="edge"><title>Node2&#45;&gt;Node3</title>
<path fill="none" stroke="midnightblue" d="M238.02,-440.35C246.495,-439.262 255.322,-438.128 263.637,-437.06"/>
<polygon fill="midnightblue" stroke="midnightblue" points="264.36,-440.496 273.833,-435.75 263.468,-433.553 264.36,-440.496"/>
</g>
<!-- Node4 -->
<g id="node4" class="node"><title>Node4</title>
<g id="a_node4"><a xlink:href="../../d2/db8/class_menu.html#a8a6e6125f0dc2dc7e19c6655ba6376a2" target="_top" xlink:title="Menu.addIntroText">
<polygon fill="white" stroke="black" points="370,-422.504 370,-441.504 474,-441.504 474,-422.504 370,-422.504"/>
<text text-anchor="middle" x="422" y="-429.504" font-family="Helvetica,sans-Serif" font-size="10.00">Menu.addIntroText</text>
</a>
</g>
</g>
<!-- Node3&#45;&gt;Node4 -->
<g id="edge3" class="edge"><title>Node3&#45;&gt;Node4</title>
<path fill="none" stroke="midnightblue" d="M334.272,-432.004C341.99,-432.004 350.617,-432.004 359.354,-432.004"/>
<polygon fill="midnightblue" stroke="midnightblue" points="359.614,-435.504 369.614,-432.004 359.614,-428.504 359.614,-435.504"/>
</g>
<!-- Node5 -->
<g id="node5" class="node"><title>Node5</title>
<g id="a_node5"><a xlink:href="../../db/d97/class_box_world.html#a55bf92d3f466bfaade0f6d199d8c9bd9" target="_top" xlink:title="BoxWorld.init">
<polygon fill="white" stroke="black" points="383.5,-327.504 383.5,-346.504 460.5,-346.504 460.5,-327.504 383.5,-327.504"/>
<text text-anchor="middle" x="422" y="-334.504" font-family="Helvetica,sans-Serif" font-size="10.00">BoxWorld.init</text>
</a>
</g>
</g>
<!-- Node3&#45;&gt;Node5 -->
<g id="edge4" class="edge"><title>Node3&#45;&gt;Node5</title>
<path fill="none" stroke="midnightblue" d="M316.977,-422.195C336.965,-405.826 377.303,-372.79 401.454,-353.012"/>
<polygon fill="midnightblue" stroke="midnightblue" points="403.742,-355.662 409.261,-346.618 399.307,-350.246 403.742,-355.662"/>
</g>
<!-- Node6 -->
<g id="node6" class="node"><title>Node6</title>
<g id="a_node6"><a xlink:href="../../db/d97/class_box_world.html#a69798621c944e846f045aaf3937505f9" target="_top" xlink:title="BoxWorld.addStarterObjects">
<polygon fill="white" stroke="black" points="1148.5,-450.504 1148.5,-469.504 1299.5,-469.504 1299.5,-450.504 1148.5,-450.504"/>
<text text-anchor="middle" x="1224" y="-457.504" font-family="Helvetica,sans-Serif" font-size="10.00">BoxWorld.addStarterObjects</text>
</a>
</g>
</g>
<!-- Node5&#45;&gt;Node6 -->
<g id="edge5" class="edge"><title>Node5&#45;&gt;Node6</title>
<path fill="none" stroke="midnightblue" d="M439.772,-346.602C486.397,-372.348 622.151,-441.004 744,-441.004 744,-441.004 744,-441.004 909,-441.004 986.6,-441.004 1074.79,-446.857 1137.91,-452.066"/>
<polygon fill="midnightblue" stroke="midnightblue" points="1137.96,-455.582 1148.21,-452.929 1138.54,-448.607 1137.96,-455.582"/>
</g>
<!-- Node8 -->
<g id="node8" class="node"><title>Node8</title>
<g id="a_node8"><a xlink:href="../../db/d97/class_box_world.html#a726e747e023543658d7a345cc6466ccb" target="_top" xlink:title="BoxWorld.createScene">
<polygon fill="white" stroke="black" points="510,-298.504 510,-317.504 634,-317.504 634,-298.504 510,-298.504"/>
<text text-anchor="middle" x="572" y="-305.504" font-family="Helvetica,sans-Serif" font-size="10.00">BoxWorld.createScene</text>
</a>
</g>
</g>
<!-- Node5&#45;&gt;Node8 -->
<g id="edge7" class="edge"><title>Node5&#45;&gt;Node8</title>
<path fill="none" stroke="midnightblue" d="M460.73,-329.611C476.408,-326.539 494.973,-322.901 512.355,-319.495"/>
<polygon fill="midnightblue" stroke="midnightblue" points="513.281,-322.88 522.422,-317.523 511.935,-316.011 513.281,-322.88"/>
</g>
<!-- Node28 -->
<g id="node28" class="node"><title>Node28</title>
<g id="a_node28"><a xlink:href="../../db/d97/class_box_world.html#ad20a4e43406c44f4bbf201d1d1028998" target="_top" xlink:title="BoxWorld.start">
<polygon fill="white" stroke="black" points="1181,-108.504 1181,-127.504 1267,-127.504 1267,-108.504 1181,-108.504"/>
<text text-anchor="middle" x="1224" y="-115.504" font-family="Helvetica,sans-Serif" font-size="10.00">BoxWorld.start</text>
</a>
</g>
</g>
<!-- Node5&#45;&gt;Node28 -->
<g id="edge49" class="edge"><title>Node5&#45;&gt;Node28</title>
<path fill="none" stroke="midnightblue" d="M427.729,-327.345C448.825,-285.522 539.09,-119.527 670,-61.0041 854.107,21.3005 1106.08,-68.7214 1192.48,-104.594"/>
<polygon fill="midnightblue" stroke="midnightblue" points="1191.15,-107.829 1201.72,-108.487 1193.86,-101.378 1191.15,-107.829"/>
</g>
<!-- Node7 -->
<g id="node7" class="node"><title>Node7</title>
<g id="a_node7"><a xlink:href="../../db/d97/class_box_world.html#a2542cc74ebeba6a9768a443a55186901" target="_top" xlink:title="BoxWorld.createObstacleArray">
<polygon fill="white" stroke="black" points="1352.5,-450.504 1352.5,-469.504 1513.5,-469.504 1513.5,-450.504 1352.5,-450.504"/>
<text text-anchor="middle" x="1433" y="-457.504" font-family="Helvetica,sans-Serif" font-size="10.00">BoxWorld.createObstacleArray</text>
</a>
</g>
</g>
<!-- Node6&#45;&gt;Node7 -->
<g id="edge6" class="edge"><title>Node6&#45;&gt;Node7</title>
<path fill="none" stroke="midnightblue" d="M1299.73,-460.004C1313.52,-460.004 1328.06,-460.004 1342.24,-460.004"/>
<polygon fill="midnightblue" stroke="midnightblue" points="1342.49,-463.504 1352.49,-460.004 1342.49,-456.504 1342.49,-463.504"/>
</g>
<!-- Node9 -->
<g id="node9" class="node"><title>Node9</title>
<g id="a_node9"><a xlink:href="../../db/d97/class_box_world.html#aa7e2049d7be23e15fd2ec7fa2922ed79" target="_top" xlink:title="BoxWorld.handleKeyInput">
<polygon fill="white" stroke="black" points="677,-70.5041 677,-89.5041 813,-89.5041 813,-70.5041 677,-70.5041"/>
<text text-anchor="middle" x="745" y="-77.5041" font-family="Helvetica,sans-Serif" font-size="10.00">BoxWorld.handleKeyInput</text>
</a>
</g>
</g>
<!-- Node8&#45;&gt;Node9 -->
<g id="edge8" class="edge"><title>Node8&#45;&gt;Node9</title>
<path fill="none" stroke="midnightblue" d="M580.13,-298.497C606.204,-263.732 696.631,-143.162 730.793,-97.6132"/>
<polygon fill="midnightblue" stroke="midnightblue" points="733.64,-99.6513 736.84,-89.5512 728.04,-95.4512 733.64,-99.6513"/>
</g>
<!-- Node37 -->
<g id="node37" class="node"><title>Node37</title>
<g id="a_node37"><a xlink:href="../../db/d97/class_box_world.html#a2d44485a181577acb4d79b6b81f26fff" target="_top" xlink:title="BoxWorld.handleKeyRelease">
<polygon fill="white" stroke="black" points="670.5,-317.504 670.5,-336.504 819.5,-336.504 819.5,-317.504 670.5,-317.504"/>
<text text-anchor="middle" x="745" y="-324.504" font-family="Helvetica,sans-Serif" font-size="10.00">BoxWorld.handleKeyRelease</text>
</a>
</g>
</g>
<!-- Node8&#45;&gt;Node37 -->
<g id="edge48" class="edge"><title>Node8&#45;&gt;Node37</title>
<path fill="none" stroke="midnightblue" d="M634.252,-314.81C642.655,-315.744 651.399,-316.715 660.121,-317.684"/>
<polygon fill="midnightblue" stroke="midnightblue" points="660.002,-321.192 670.327,-318.818 660.775,-314.235 660.002,-321.192"/>
</g>
<!-- Node10 -->
<g id="node10" class="node"><title>Node10</title>
<g id="a_node10"><a xlink:href="../../db/d97/class_box_world.html#adc4c9d78ffde3d052c4c92047eb98e55" target="_top" xlink:title="BoxWorld.allowMovement">
<polygon fill="white" stroke="black" points="1750.5,-70.5041 1750.5,-89.5041 1887.5,-89.5041 1887.5,-70.5041 1750.5,-70.5041"/>
<text text-anchor="middle" x="1819" y="-77.5041" font-family="Helvetica,sans-Serif" font-size="10.00">BoxWorld.allowMovement</text>
</a>
</g>
</g>
<!-- Node9&#45;&gt;Node10 -->
<g id="edge9" class="edge"><title>Node9&#45;&gt;Node10</title>
<path fill="none" stroke="midnightblue" d="M768.016,-70.3786C816.862,-49.9281 938.415,-4.00405 1045,-4.00405 1045,-4.00405 1045,-4.00405 1434,-4.00405 1558.73,-4.00405 1594.29,12.0122 1714,-23.0041 1744.68,-31.9765 1776.39,-51.0249 1796.6,-64.6312"/>
<polygon fill="midnightblue" stroke="midnightblue" points="1794.81,-67.6504 1805.03,-70.444 1798.79,-61.887 1794.81,-67.6504"/>
</g>
<!-- Node15 -->
<g id="node15" class="node"><title>Node15</title>
<g id="a_node15"><a xlink:href="../../db/d97/class_box_world.html#a04c6bf977c4292a5433649fb3745fd6b" target="_top" xlink:title="BoxWorld.reset">
<polygon fill="white" stroke="black" points="1389,-70.5041 1389,-89.5041 1477,-89.5041 1477,-70.5041 1389,-70.5041"/>
<text text-anchor="middle" x="1433" y="-77.5041" font-family="Helvetica,sans-Serif" font-size="10.00">BoxWorld.reset</text>
</a>
</g>
</g>
<!-- Node9&#45;&gt;Node15 -->
<g id="edge14" class="edge"><title>Node9&#45;&gt;Node15</title>
<path fill="none" stroke="midnightblue" d="M813.026,-80.0041C948.976,-80.0041 1254.73,-80.0041 1378.49,-80.0041"/>
<polygon fill="midnightblue" stroke="midnightblue" points="1378.83,-83.5041 1388.83,-80.0041 1378.83,-76.5041 1378.83,-83.5041"/>
</g>
<!-- Node16 -->
<g id="node16" class="node"><title>Node16</title>
<g id="a_node16"><a xlink:href="../../da/de2/class_sticky_box.html#aa1bb8f78f676b01c688d75d386758444" target="_top" xlink:title="StickyBox.setDirection">
<polygon fill="white" stroke="black" points="1570,-32.5041 1570,-51.5041 1694,-51.5041 1694,-32.5041 1570,-32.5041"/>
<text text-anchor="middle" x="1632" y="-39.5041" font-family="Helvetica,sans-Serif" font-size="10.00">StickyBox.setDirection</text>
</a>
</g>
</g>
<!-- Node9&#45;&gt;Node16 -->
<g id="edge17" class="edge"><title>Node9&#45;&gt;Node16</title>
<path fill="none" stroke="midnightblue" d="M792.124,-70.4641C850.66,-59.2078 954.866,-42.0041 1045,-42.0041 1045,-42.0041 1045,-42.0041 1225,-42.0041 1342.28,-42.0041 1478.61,-42.0041 1559.69,-42.0041"/>
<polygon fill="midnightblue" stroke="midnightblue" points="1559.78,-45.5041 1569.78,-42.0041 1559.78,-38.5041 1559.78,-45.5041"/>
</g>
<!-- Node18 -->
<g id="node18" class="node"><title>Node18</title>
<g id="a_node18"><a xlink:href="../../db/d97/class_box_world.html#aad670712776afe126e51791097027e05" target="_top" xlink:title="BoxWorld.winLevel">
<polygon fill="white" stroke="black" points="856.5,-146.504 856.5,-165.504 959.5,-165.504 959.5,-146.504 856.5,-146.504"/>
<text text-anchor="middle" x="908" y="-153.504" font-family="Helvetica,sans-Serif" font-size="10.00">BoxWorld.winLevel</text>
</a>
</g>
</g>
<!-- Node9&#45;&gt;Node18 -->
<g id="edge18" class="edge"><title>Node9&#45;&gt;Node18</title>
<path fill="none" stroke="midnightblue" d="M766.391,-89.6295C794.456,-102.878 845.17,-126.817 877.408,-142.035"/>
<polygon fill="midnightblue" stroke="midnightblue" points="876.238,-145.353 886.775,-146.457 879.226,-139.023 876.238,-145.353"/>
</g>
<!-- Node11 -->
<g id="node11" class="node"><title>Node11</title>
<g id="a_node11"><a xlink:href="../../da/de2/class_sticky_box.html#a6ba3f89630df9d81df5644a3e5f4e387" target="_top" xlink:title="StickyBox.getXDirection">
<polygon fill="white" stroke="black" points="1924.5,-184.504 1924.5,-203.504 2055.5,-203.504 2055.5,-184.504 1924.5,-184.504"/>
<text text-anchor="middle" x="1990" y="-191.504" font-family="Helvetica,sans-Serif" font-size="10.00">StickyBox.getXDirection</text>
</a>
</g>
</g>
<!-- Node10&#45;&gt;Node11 -->
<g id="edge10" class="edge"><title>Node10&#45;&gt;Node11</title>
<path fill="none" stroke="midnightblue" d="M1834.12,-89.5275C1863.25,-109.177 1930.26,-154.377 1965.83,-178.374"/>
<polygon fill="midnightblue" stroke="midnightblue" points="1964.32,-181.575 1974.56,-184.266 1968.23,-175.772 1964.32,-181.575"/>
</g>
<!-- Node12 -->
<g id="node12" class="node"><title>Node12</title>
<g id="a_node12"><a xlink:href="../../da/de2/class_sticky_box.html#ab0bd7cafb7f243e3951558ddb8728b96" target="_top" xlink:title="StickyBox.getXPrev">
<polygon fill="white" stroke="black" points="1935.5,-32.5041 1935.5,-51.5041 2044.5,-51.5041 2044.5,-32.5041 1935.5,-32.5041"/>
<text text-anchor="middle" x="1990" y="-39.5041" font-family="Helvetica,sans-Serif" font-size="10.00">StickyBox.getXPrev</text>
</a>
</g>
</g>
<!-- Node10&#45;&gt;Node12 -->
<g id="edge11" class="edge"><title>Node10&#45;&gt;Node12</title>
<path fill="none" stroke="midnightblue" d="M1862.65,-70.415C1885.15,-65.3554 1912.95,-59.1045 1936.74,-53.7553"/>
<polygon fill="midnightblue" stroke="midnightblue" points="1937.67,-57.1327 1946.66,-51.5241 1936.14,-50.3032 1937.67,-57.1327"/>
</g>
<!-- Node13 -->
<g id="node13" class="node"><title>Node13</title>
<g id="a_node13"><a xlink:href="../../da/de2/class_sticky_box.html#a69e5ccf2a79159c03dea2e048df13318" target="_top" xlink:title="StickyBox.getYDirection">
<polygon fill="white" stroke="black" points="1925,-108.504 1925,-127.504 2055,-127.504 2055,-108.504 1925,-108.504"/>
<text text-anchor="middle" x="1990" y="-115.504" font-family="Helvetica,sans-Serif" font-size="10.00">StickyBox.getYDirection</text>
</a>
</g>
</g>
<!-- Node10&#45;&gt;Node13 -->
<g id="edge12" class="edge"><title>Node10&#45;&gt;Node13</title>
<path fill="none" stroke="midnightblue" d="M1862.65,-89.5931C1885.15,-94.6527 1912.95,-100.904 1936.74,-106.253"/>
<polygon fill="midnightblue" stroke="midnightblue" points="1936.14,-109.705 1946.66,-108.484 1937.67,-102.875 1936.14,-109.705"/>
</g>
<!-- Node14 -->
<g id="node14" class="node"><title>Node14</title>
<g id="a_node14"><a xlink:href="../../da/de2/class_sticky_box.html#a4c6abed944faed9d9b226079e99cfc24" target="_top" xlink:title="StickyBox.getYPrev">
<polygon fill="white" stroke="black" points="1936,-70.5041 1936,-89.5041 2044,-89.5041 2044,-70.5041 1936,-70.5041"/>
<text text-anchor="middle" x="1990" y="-77.5041" font-family="Helvetica,sans-Serif" font-size="10.00">StickyBox.getYPrev</text>
</a>
</g>
</g>
<!-- Node10&#45;&gt;Node14 -->
<g id="edge13" class="edge"><title>Node10&#45;&gt;Node14</title>
<path fill="none" stroke="midnightblue" d="M1887.76,-80.0041C1900.25,-80.0041 1913.24,-80.0041 1925.59,-80.0041"/>
<polygon fill="midnightblue" stroke="midnightblue" points="1925.78,-83.5041 1935.78,-80.0041 1925.78,-76.5041 1925.78,-83.5041"/>
</g>
<!-- Node15&#45;&gt;Node16 -->
<g id="edge15" class="edge"><title>Node15&#45;&gt;Node16</title>
<path fill="none" stroke="midnightblue" d="M1477.23,-71.6648C1504.91,-66.3258 1541.2,-59.3263 1571.57,-53.4677"/>
<polygon fill="midnightblue" stroke="midnightblue" points="1572.47,-56.8594 1581.62,-51.5287 1571.14,-49.9861 1572.47,-56.8594"/>
</g>
<!-- Node17 -->
<g id="node17" class="node"><title>Node17</title>
<g id="a_node17"><a xlink:href="../../da/de2/class_sticky_box.html#a5d95d2ed2e13f0d87a44311db77f9e36" target="_top" xlink:title="StickyBox.setPreviousDirection">
<polygon fill="white" stroke="black" points="1550,-70.5041 1550,-89.5041 1714,-89.5041 1714,-70.5041 1550,-70.5041"/>
<text text-anchor="middle" x="1632" y="-77.5041" font-family="Helvetica,sans-Serif" font-size="10.00">StickyBox.setPreviousDirection</text>
</a>
</g>
</g>
<!-- Node15&#45;&gt;Node17 -->
<g id="edge16" class="edge"><title>Node15&#45;&gt;Node17</title>
<path fill="none" stroke="midnightblue" d="M1477.23,-80.0041C1495.61,-80.0041 1517.79,-80.0041 1539.52,-80.0041"/>
<polygon fill="midnightblue" stroke="midnightblue" points="1539.78,-83.5041 1549.78,-80.0041 1539.78,-76.5041 1539.78,-83.5041"/>
</g>
<!-- Node19 -->
<g id="node19" class="node"><title>Node19</title>
<g id="a_node19"><a xlink:href="../../d6/d4f/class_item_box_world.html#aa559fc2680327b41fb376e2eda8e82e3" target="_top" xlink:title="ItemBoxWorld.init">
<polygon fill="white" stroke="black" points="996.5,-279.504 996.5,-298.504 1095.5,-298.504 1095.5,-279.504 996.5,-279.504"/>
<text text-anchor="middle" x="1046" y="-286.504" font-family="Helvetica,sans-Serif" font-size="10.00">ItemBoxWorld.init</text>
</a>
</g>
</g>
<!-- Node18&#45;&gt;Node19 -->
<g id="edge19" class="edge"><title>Node18&#45;&gt;Node19</title>
<path fill="none" stroke="midnightblue" d="M918.781,-165.569C941.606,-187.891 998.641,-243.668 1027.58,-271.965"/>
<polygon fill="midnightblue" stroke="midnightblue" points="1025.34,-274.677 1034.94,-279.167 1030.24,-269.673 1025.34,-274.677"/>
</g>
<!-- Node19&#45;&gt;Node6 -->
<g id="edge24" class="edge"><title>Node19&#45;&gt;Node6</title>
<path fill="none" stroke="midnightblue" d="M1049.39,-298.711C1056.64,-325.96 1081.07,-403.604 1132,-441.004 1134.52,-442.855 1137.18,-444.534 1139.95,-446.058"/>
<polygon fill="midnightblue" stroke="midnightblue" points="1138.55,-449.27 1149.08,-450.411 1141.56,-442.951 1138.55,-449.27"/>
</g>
<!-- Node19&#45;&gt;Node8 -->
<g id="edge47" class="edge"><title>Node19&#45;&gt;Node8</title>
<path fill="none" stroke="midnightblue" d="M996.411,-290.96C912.803,-294.326 741.376,-301.226 644.247,-305.136"/>
<polygon fill="midnightblue" stroke="midnightblue" points="644.073,-301.64 634.222,-305.54 644.355,-308.634 644.073,-301.64"/>
</g>
<!-- Node20 -->
<g id="node20" class="node"><title>Node20</title>
<g id="a_node20"><a xlink:href="../../db/d97/class_box_world.html#a25c34c68bdd68debd7de01a4f3b98bb1" target="_top" xlink:title="BoxWorld.setStage">
<polygon fill="white" stroke="black" points="1170.5,-222.504 1170.5,-241.504 1277.5,-241.504 1277.5,-222.504 1170.5,-222.504"/>
<text text-anchor="middle" x="1224" y="-229.504" font-family="Helvetica,sans-Serif" font-size="10.00">BoxWorld.setStage</text>
</a>
</g>
</g>
<!-- Node19&#45;&gt;Node20 -->
<g id="edge20" class="edge"><title>Node19&#45;&gt;Node20</title>
<path fill="none" stroke="midnightblue" d="M1065.45,-279.365C1082.37,-270.866 1108.32,-258.672 1132,-251.004 1141,-248.089 1150.66,-245.513 1160.19,-243.273"/>
<polygon fill="midnightblue" stroke="midnightblue" points="1161.05,-246.665 1170.05,-241.06 1159.52,-239.835 1161.05,-246.665"/>
</g>
<!-- Node21 -->
<g id="node21" class="node"><title>Node21</title>
<g id="a_node21"><a xlink:href="../../db/d97/class_box_world.html#a3735494d6eeffc036cd757eb21170eb0" target="_top" xlink:title="BoxWorld.setObstacleXCoordinates">
<polygon fill="white" stroke="black" points="1132.5,-412.504 1132.5,-431.504 1315.5,-431.504 1315.5,-412.504 1132.5,-412.504"/>
<text text-anchor="middle" x="1224" y="-419.504" font-family="Helvetica,sans-Serif" font-size="10.00">BoxWorld.setObstacleXCoordinates</text>
</a>
</g>
</g>
<!-- Node19&#45;&gt;Node21 -->
<g id="edge21" class="edge"><title>Node19&#45;&gt;Node21</title>
<path fill="none" stroke="midnightblue" d="M1051.29,-298.833C1061.63,-321.257 1090.17,-376.311 1132,-403.004 1135.18,-405.033 1138.54,-406.851 1142.02,-408.477"/>
<polygon fill="midnightblue" stroke="midnightblue" points="1140.88,-411.793 1151.46,-412.354 1143.54,-405.318 1140.88,-411.793"/>
</g>
<!-- Node22 -->
<g id="node22" class="node"><title>Node22</title>
<g id="a_node22"><a xlink:href="../../db/d97/class_box_world.html#ab45827804913790744cdbaaf8a222256" target="_top" xlink:title="BoxWorld.setObstacleYCoordinates">
<polygon fill="white" stroke="black" points="1133,-374.504 1133,-393.504 1315,-393.504 1315,-374.504 1133,-374.504"/>
<text text-anchor="middle" x="1224" y="-381.504" font-family="Helvetica,sans-Serif" font-size="10.00">BoxWorld.setObstacleYCoordinates</text>
</a>
</g>
</g>
<!-- Node19&#45;&gt;Node22 -->
<g id="edge22" class="edge"><title>Node19&#45;&gt;Node22</title>
<path fill="none" stroke="midnightblue" d="M1054.77,-298.691C1068.51,-315.104 1098.78,-348.226 1132,-365.004 1136.65,-367.354 1141.58,-369.413 1146.64,-371.218"/>
<polygon fill="midnightblue" stroke="midnightblue" points="1145.9,-374.657 1156.49,-374.385 1148.04,-367.992 1145.9,-374.657"/>
</g>
<!-- Node23 -->
<g id="node23" class="node"><title>Node23</title>
<g id="a_node23"><a xlink:href="../../db/d97/class_box_world.html#aeeaafc4ff103ded208e6c9393eb4ceca" target="_top" xlink:title="BoxWorld.setRoot">
<polygon fill="white" stroke="black" points="1174.5,-336.504 1174.5,-355.504 1273.5,-355.504 1273.5,-336.504 1174.5,-336.504"/>
<text text-anchor="middle" x="1224" y="-343.504" font-family="Helvetica,sans-Serif" font-size="10.00">BoxWorld.setRoot</text>
</a>
</g>
</g>
<!-- Node19&#45;&gt;Node23 -->
<g id="edge23" class="edge"><title>Node19&#45;&gt;Node23</title>
<path fill="none" stroke="midnightblue" d="M1065.45,-298.643C1082.37,-307.142 1108.32,-319.336 1132,-327.004 1142.35,-330.354 1153.55,-333.256 1164.44,-335.715"/>
<polygon fill="midnightblue" stroke="midnightblue" points="1163.81,-339.159 1174.32,-337.848 1165.29,-332.317 1163.81,-339.159"/>
</g>
<!-- Node24 -->
<g id="node24" class="node"><title>Node24</title>
<g id="a_node24"><a xlink:href="../../d6/d4f/class_item_box_world.html#a7ead15fd9fd8095f928640161d48fdf8" target="_top" xlink:title="ItemBoxWorld.addAllItems">
<polygon fill="white" stroke="black" points="1153.5,-184.504 1153.5,-203.504 1294.5,-203.504 1294.5,-184.504 1153.5,-184.504"/>
<text text-anchor="middle" x="1224" y="-191.504" font-family="Helvetica,sans-Serif" font-size="10.00">ItemBoxWorld.addAllItems</text>
</a>
</g>
</g>
<!-- Node19&#45;&gt;Node24 -->
<g id="edge25" class="edge"><title>Node19&#45;&gt;Node24</title>
<path fill="none" stroke="midnightblue" d="M1054.77,-279.317C1068.51,-262.905 1098.78,-229.782 1132,-213.004 1136.65,-210.654 1141.58,-208.595 1146.64,-206.79"/>
<polygon fill="midnightblue" stroke="midnightblue" points="1148.04,-210.016 1156.49,-203.624 1145.9,-203.351 1148.04,-210.016"/>
</g>
<!-- Node19&#45;&gt;Node28 -->
<g id="edge30" class="edge"><title>Node19&#45;&gt;Node28</title>
<path fill="none" stroke="midnightblue" d="M1052.58,-279.203C1064.87,-258.214 1096.06,-208.139 1132,-175.004 1150.76,-157.708 1175.47,-142.612 1194.41,-132.309"/>
<polygon fill="midnightblue" stroke="midnightblue" points="1196.26,-135.288 1203.46,-127.509 1192.98,-129.104 1196.26,-135.288"/>
</g>
<!-- Node35 -->
<g id="node35" class="node"><title>Node35</title>
<g id="a_node35"><a xlink:href="../../db/d97/class_box_world.html#a8d7d9f1ae1ebcd87ff73c09780b70629" target="_top" xlink:title="BoxWorld.setAnimation">
<polygon fill="white" stroke="black" points="1160.5,-298.504 1160.5,-317.504 1287.5,-317.504 1287.5,-298.504 1160.5,-298.504"/>
<text text-anchor="middle" x="1224" y="-305.504" font-family="Helvetica,sans-Serif" font-size="10.00">BoxWorld.setAnimation</text>
</a>
</g>
</g>
<!-- Node19&#45;&gt;Node35 -->
<g id="edge45" class="edge"><title>Node19&#45;&gt;Node35</title>
<path fill="none" stroke="midnightblue" d="M1095.56,-294.246C1112.47,-296.072 1131.83,-298.162 1150.27,-300.153"/>
<polygon fill="midnightblue" stroke="midnightblue" points="1150.08,-303.653 1160.4,-301.246 1150.84,-296.693 1150.08,-303.653"/>
</g>
<!-- Node36 -->
<g id="node36" class="node"><title>Node36</title>
<g id="a_node36"><a xlink:href="../../db/d97/class_box_world.html#a61929851f1d60c397e1448e614f1d701" target="_top" xlink:title="BoxWorld.getAnimation">
<polygon fill="white" stroke="black" points="1160,-260.504 1160,-279.504 1288,-279.504 1288,-260.504 1160,-260.504"/>
<text text-anchor="middle" x="1224" y="-267.504" font-family="Helvetica,sans-Serif" font-size="10.00">BoxWorld.getAnimation</text>
</a>
</g>
</g>
<!-- Node19&#45;&gt;Node36 -->
<g id="edge46" class="edge"><title>Node19&#45;&gt;Node36</title>
<path fill="none" stroke="midnightblue" d="M1095.56,-283.762C1112.3,-281.955 1131.44,-279.888 1149.71,-277.916"/>
<polygon fill="midnightblue" stroke="midnightblue" points="1150.19,-281.385 1159.75,-276.832 1149.43,-274.426 1150.19,-281.385"/>
</g>
<!-- Node25 -->
<g id="node25" class="node"><title>Node25</title>
<g id="a_node25"><a xlink:href="../../d6/d4f/class_item_box_world.html#a1890e6c53a4a73e44e9528009fde508d" target="_top" xlink:title="ItemBoxWorld.itemExists">
<polygon fill="white" stroke="black" points="1366,-222.504 1366,-241.504 1500,-241.504 1500,-222.504 1366,-222.504"/>
<text text-anchor="middle" x="1433" y="-229.504" font-family="Helvetica,sans-Serif" font-size="10.00">ItemBoxWorld.itemExists</text>
</a>
</g>
</g>
<!-- Node24&#45;&gt;Node25 -->
<g id="edge26" class="edge"><title>Node24&#45;&gt;Node25</title>
<path fill="none" stroke="midnightblue" d="M1276.97,-203.544C1305.27,-208.739 1340.46,-215.2 1370.17,-220.653"/>
<polygon fill="midnightblue" stroke="midnightblue" points="1369.54,-224.097 1380.01,-222.46 1370.81,-217.212 1369.54,-224.097"/>
</g>
<!-- Node27 -->
<g id="node27" class="node"><title>Node27</title>
<g id="a_node27"><a xlink:href="../../d6/d4f/class_item_box_world.html#af1bcde0672796e926560684004ed8e81" target="_top" xlink:title="ItemBoxWorld.addSingleItem">
<polygon fill="white" stroke="black" points="1356,-279.504 1356,-298.504 1510,-298.504 1510,-279.504 1356,-279.504"/>
<text text-anchor="middle" x="1433" y="-286.504" font-family="Helvetica,sans-Serif" font-size="10.00">ItemBoxWorld.addSingleItem</text>
</a>
</g>
</g>
<!-- Node24&#45;&gt;Node27 -->
<g id="edge28" class="edge"><title>Node24&#45;&gt;Node27</title>
<path fill="none" stroke="midnightblue" d="M1293.73,-203.622C1301.5,-206.074 1309.09,-209.149 1316,-213.004 1336.31,-224.343 1333.17,-237.337 1352,-251.004 1365.45,-260.765 1381.8,-269.057 1396.2,-275.38"/>
<polygon fill="midnightblue" stroke="midnightblue" points="1395.23,-278.769 1405.8,-279.437 1397.95,-272.321 1395.23,-278.769"/>
</g>
<!-- Node26 -->
<g id="node26" class="node"><title>Node26</title>
<g id="a_node26"><a xlink:href="../../db/d97/class_box_world.html#abb95adb381902ecab1db85efdc1ea6ff" target="_top" xlink:title="BoxWorld.getRoot">
<polygon fill="white" stroke="black" points="1582,-298.504 1582,-317.504 1682,-317.504 1682,-298.504 1582,-298.504"/>
<text text-anchor="middle" x="1632" y="-305.504" font-family="Helvetica,sans-Serif" font-size="10.00">BoxWorld.getRoot</text>
</a>
</g>
</g>
<!-- Node25&#45;&gt;Node26 -->
<g id="edge27" class="edge"><title>Node25&#45;&gt;Node26</title>
<path fill="none" stroke="midnightblue" d="M1454.84,-241.608C1471.05,-249.151 1494.07,-260.016 1514,-270.004 1530.17,-278.109 1533.06,-282.664 1550,-289.004 1557.05,-291.644 1564.6,-293.996 1572.13,-296.069"/>
<polygon fill="midnightblue" stroke="midnightblue" points="1571.44,-299.505 1582,-298.634 1573.2,-292.73 1571.44,-299.505"/>
</g>
<!-- Node27&#45;&gt;Node26 -->
<g id="edge29" class="edge"><title>Node27&#45;&gt;Node26</title>
<path fill="none" stroke="midnightblue" d="M1510.17,-296.35C1530.54,-298.315 1552.26,-300.41 1571.59,-302.274"/>
<polygon fill="midnightblue" stroke="midnightblue" points="1571.46,-305.778 1581.75,-303.254 1572.13,-298.81 1571.46,-305.778"/>
</g>
<!-- Node29 -->
<g id="node29" class="node"><title>Node29</title>
<g id="a_node29"><a xlink:href="../../db/d97/class_box_world.html#a6794c083c2a0263c2f585f4ae4b7e39c" target="_top" xlink:title="BoxWorld.updateSprites">
<polygon fill="white" stroke="black" points="1367.5,-108.504 1367.5,-127.504 1498.5,-127.504 1498.5,-108.504 1367.5,-108.504"/>
<text text-anchor="middle" x="1433" y="-115.504" font-family="Helvetica,sans-Serif" font-size="10.00">BoxWorld.updateSprites</text>
</a>
</g>
</g>
<!-- Node28&#45;&gt;Node29 -->
<g id="edge31" class="edge"><title>Node28&#45;&gt;Node29</title>
<path fill="none" stroke="midnightblue" d="M1267.14,-118.004C1293.05,-118.004 1327,-118.004 1357.35,-118.004"/>
<polygon fill="midnightblue" stroke="midnightblue" points="1357.49,-121.504 1367.49,-118.004 1357.49,-114.504 1357.49,-121.504"/>
</g>
<!-- Node29&#45;&gt;Node11 -->
<g id="edge41" class="edge"><title>Node29&#45;&gt;Node11</title>
<path fill="none" stroke="midnightblue" d="M1478.64,-127.548C1490.57,-131.114 1503.16,-135.843 1514,-142.004 1532.87,-152.727 1529.95,-166.7 1550,-175.004 1613.76,-201.405 1806.64,-199.98 1914.31,-196.873"/>
<polygon fill="midnightblue" stroke="midnightblue" points="1914.57,-200.367 1924.46,-196.568 1914.36,-193.37 1914.57,-200.367"/>
</g>
<!-- Node29&#45;&gt;Node13 -->
<g id="edge42" class="edge"><title>Node29&#45;&gt;Node13</title>
<path fill="none" stroke="midnightblue" d="M1498.75,-118.004C1602.35,-118.004 1804.82,-118.004 1914.36,-118.004"/>
<polygon fill="midnightblue" stroke="midnightblue" points="1914.66,-121.504 1924.66,-118.004 1914.66,-114.504 1914.66,-121.504"/>
</g>
<!-- Node29&#45;&gt;Node16 -->
<g id="edge43" class="edge"><title>Node29&#45;&gt;Node16</title>
<path fill="none" stroke="midnightblue" d="M1492.35,-108.373C1499.9,-105.924 1507.32,-102.853 1514,-99.0041 1534.16,-87.3879 1529.83,-72.5922 1550,-61.0041 1553.91,-58.758 1558.07,-56.7771 1562.36,-55.0302"/>
<polygon fill="midnightblue" stroke="midnightblue" points="1563.71,-58.2637 1571.92,-51.5676 1561.33,-51.682 1563.71,-58.2637"/>
</g>
<!-- Node29&#45;&gt;Node17 -->
<g id="edge40" class="edge"><title>Node29&#45;&gt;Node17</title>
<path fill="none" stroke="midnightblue" d="M1483.46,-108.464C1510.15,-103.314 1543.3,-96.92 1571.42,-91.4976"/>
<polygon fill="midnightblue" stroke="midnightblue" points="1572.37,-94.8787 1581.52,-89.5479 1571.04,-88.0054 1572.37,-94.8787"/>
</g>
<!-- Node30 -->
<g id="node30" class="node"><title>Node30</title>
<g id="a_node30"><a xlink:href="../../db/d97/class_box_world.html#a4079bed8937c9f621decfbe1309e31e2" target="_top" xlink:title="BoxWorld.checkAllCollisions">
<polygon fill="white" stroke="black" points="1559,-260.504 1559,-279.504 1705,-279.504 1705,-260.504 1559,-260.504"/>
<text text-anchor="middle" x="1632" y="-267.504" font-family="Helvetica,sans-Serif" font-size="10.00">BoxWorld.checkAllCollisions</text>
</a>
</g>
</g>
<!-- Node29&#45;&gt;Node30 -->
<g id="edge32" class="edge"><title>Node29&#45;&gt;Node30</title>
<path fill="none" stroke="midnightblue" d="M1491.09,-127.662C1499.54,-131.095 1507.56,-135.735 1514,-142.004 1550.57,-177.579 1512.36,-216.562 1550,-251.004 1551.69,-252.549 1553.48,-253.976 1555.35,-255.292"/>
<polygon fill="midnightblue" stroke="midnightblue" points="1553.63,-258.341 1564.02,-260.39 1557.18,-252.306 1553.63,-258.341"/>
</g>
<!-- Node33 -->
<g id="node33" class="node"><title>Node33</title>
<g id="a_node33"><a xlink:href="../../da/de2/class_sticky_box.html#a59337f0aa3c7379a2cb9c76bdc621daf" target="_top" xlink:title="StickyBox.setStuck">
<polygon fill="white" stroke="black" points="1578,-146.504 1578,-165.504 1686,-165.504 1686,-146.504 1578,-146.504"/>
<text text-anchor="middle" x="1632" y="-153.504" font-family="Helvetica,sans-Serif" font-size="10.00">StickyBox.setStuck</text>
</a>
</g>
</g>
<!-- Node29&#45;&gt;Node33 -->
<g id="edge39" class="edge"><title>Node29&#45;&gt;Node33</title>
<path fill="none" stroke="midnightblue" d="M1483.46,-127.544C1510.15,-132.694 1543.3,-139.088 1571.42,-144.511"/>
<polygon fill="midnightblue" stroke="midnightblue" points="1571.04,-148.003 1581.52,-146.46 1572.37,-141.129 1571.04,-148.003"/>
</g>
<!-- Node34 -->
<g id="node34" class="node"><title>Node34</title>
<g id="a_node34"><a xlink:href="../../da/de2/class_sticky_box.html#a185ee469367b376e6c5969a03d089d57" target="_top" xlink:title="StickyBox.move">
<polygon fill="white" stroke="black" points="1585.5,-222.504 1585.5,-241.504 1678.5,-241.504 1678.5,-222.504 1585.5,-222.504"/>
<text text-anchor="middle" x="1632" y="-229.504" font-family="Helvetica,sans-Serif" font-size="10.00">StickyBox.move</text>
</a>
</g>
</g>
<!-- Node29&#45;&gt;Node34 -->
<g id="edge44" class="edge"><title>Node29&#45;&gt;Node34</title>
<path fill="none" stroke="midnightblue" d="M1487.26,-127.624C1496.84,-131.053 1506.23,-135.701 1514,-142.004 1539.95,-163.052 1524.01,-187 1550,-208.004 1557.45,-214.026 1566.37,-218.537 1575.53,-221.916"/>
<polygon fill="midnightblue" stroke="midnightblue" points="1574.51,-225.266 1585.1,-225.044 1576.68,-218.612 1574.51,-225.266"/>
</g>
<!-- Node30&#45;&gt;Node1 -->
<g id="edge36" class="edge"><title>Node30&#45;&gt;Node1</title>
<path fill="none" stroke="midnightblue" d="M1562.32,-279.662C1557.78,-282.174 1553.6,-285.249 1550,-289.004 1490.55,-351.075 1578.35,-422.036 1514,-479.004 1417.62,-564.325 1353.72,-498.004 1225,-498.004 303,-498.004 303,-498.004 303,-498.004 241.614,-498.004 171.866,-492.05 122.355,-486.808"/>
<polygon fill="midnightblue" stroke="midnightblue" points="122.425,-483.295 112.108,-485.703 121.674,-490.255 122.425,-483.295"/>
</g>
<!-- Node30&#45;&gt;Node18 -->
<g id="edge38" class="edge"><title>Node30&#45;&gt;Node18</title>
<path fill="none" stroke="midnightblue" d="M1571.92,-260.44C1564.28,-257.981 1556.76,-254.889 1550,-251.004 1529.83,-239.416 1534.41,-224.178 1514,-213.004 1421.45,-162.321 1104.13,-156.042 969.824,-155.719"/>
<polygon fill="midnightblue" stroke="midnightblue" points="969.711,-152.219 959.706,-155.705 969.702,-159.219 969.711,-152.219"/>
</g>
<!-- Node31 -->
<g id="node31" class="node"><title>Node31</title>
<g id="a_node31"><a xlink:href="../../db/d97/class_box_world.html#a55add11037cd6dc48556f2f42a9e11be" target="_top" xlink:title="BoxWorld.checkCollide">
<polygon fill="white" stroke="black" points="1758,-260.504 1758,-279.504 1880,-279.504 1880,-260.504 1758,-260.504"/>
<text text-anchor="middle" x="1819" y="-267.504" font-family="Helvetica,sans-Serif" font-size="10.00">BoxWorld.checkCollide</text>
</a>
</g>
</g>
<!-- Node30&#45;&gt;Node31 -->
<g id="edge33" class="edge"><title>Node30&#45;&gt;Node31</title>
<path fill="none" stroke="midnightblue" d="M1705.06,-270.004C1719.1,-270.004 1733.8,-270.004 1747.78,-270.004"/>
<polygon fill="midnightblue" stroke="midnightblue" points="1747.82,-273.504 1757.82,-270.004 1747.82,-266.504 1747.82,-273.504"/>
</g>
<!-- Node32 -->
<g id="node32" class="node"><title>Node32</title>
<g id="a_node32"><a xlink:href="../../db/d97/class_box_world.html#a167adb49603af3a303ee958011243b5f" target="_top" xlink:title="BoxWorld.onScreen">
<polygon fill="white" stroke="black" points="1764.5,-222.504 1764.5,-241.504 1873.5,-241.504 1873.5,-222.504 1764.5,-222.504"/>
<text text-anchor="middle" x="1819" y="-229.504" font-family="Helvetica,sans-Serif" font-size="10.00">BoxWorld.onScreen</text>
</a>
</g>
</g>
<!-- Node30&#45;&gt;Node32 -->
<g id="edge37" class="edge"><title>Node30&#45;&gt;Node32</title>
<path fill="none" stroke="midnightblue" d="M1679.68,-260.415C1704.65,-255.288 1735.56,-248.937 1761.83,-243.541"/>
<polygon fill="midnightblue" stroke="midnightblue" points="1762.56,-246.965 1771.65,-241.524 1761.15,-240.108 1762.56,-246.965"/>
</g>
<!-- Node31&#45;&gt;Node11 -->
<g id="edge34" class="edge"><title>Node31&#45;&gt;Node11</title>
<path fill="none" stroke="midnightblue" d="M1860.46,-260.43C1869.66,-257.779 1879.28,-254.62 1888,-251.004 1915.94,-239.418 1945.86,-221.804 1965.82,-209.225"/>
<polygon fill="midnightblue" stroke="midnightblue" points="1967.97,-212.007 1974.51,-203.671 1964.2,-206.109 1967.97,-212.007"/>
</g>
<!-- Node31&#45;&gt;Node13 -->
<g id="edge35" class="edge"><title>Node31&#45;&gt;Node13</title>
<path fill="none" stroke="midnightblue" d="M1872.47,-260.419C1878.08,-257.961 1883.41,-254.875 1888,-251.004 1916.58,-226.913 1901.48,-204.834 1924,-175.004 1936.02,-159.085 1953.07,-144.334 1966.7,-133.827"/>
<polygon fill="midnightblue" stroke="midnightblue" points="1969.16,-136.358 1975.07,-127.566 1964.97,-130.753 1969.16,-136.358"/>
</g>
</g>
</svg>
