<?xml version="1.0" encoding="UTF-8" standalone="no"?>
<!DOCTYPE svg PUBLIC "-//W3C//DTD SVG 1.1//EN"
 "http://www.w3.org/Graphics/SVG/1.1/DTD/svg11.dtd">
<!-- Generated by graphviz version 2.36.0 (20140111.2315)
 -->
<!-- Title: BoxWorld.start Pages: 1 -->
<svg width="1558pt" height="162pt"
 viewBox="0.00 0.00 1558.00 162.01" xmlns="http://www.w3.org/2000/svg" xmlns:xlink="http://www.w3.org/1999/xlink">
<g id="graph0" class="graph" transform="scale(1 1) rotate(0) translate(4 158.009)">
<title>BoxWorld.start</title>
<polygon fill="white" stroke="none" points="-4,4 -4,-158.009 1554,-158.009 1554,4 -4,4"/>
<!-- Node1 -->
<g id="node1" class="node"><title>Node1</title>
<polygon fill="#bfbfbf" stroke="black" points="0,-28.5 0,-47.5 86,-47.5 86,-28.5 0,-28.5"/>
<text text-anchor="middle" x="43" y="-35.5" font-family="Helvetica,sans-Serif" font-size="10.00">BoxWorld.start</text>
</g>
<!-- Node2 -->
<g id="node2" class="node"><title>Node2</title>
<g id="a_node2"><a xlink:href="../../d6/d4f/class_item_box_world.html#aa559fc2680327b41fb376e2eda8e82e3" target="_top" xlink:title="ItemBoxWorld.init">
<polygon fill="white" stroke="black" points="122.5,-66.5 122.5,-85.5 221.5,-85.5 221.5,-66.5 122.5,-66.5"/>
<text text-anchor="middle" x="172" y="-73.5" font-family="Helvetica,sans-Serif" font-size="10.00">ItemBoxWorld.init</text>
</a>
</g>
</g>
<!-- Node1&#45;&gt;Node2 -->
<g id="edge1" class="edge"><title>Node1&#45;&gt;Node2</title>
<path fill="none" stroke="midnightblue" d="M85.8943,-50.5353C103.171,-55.7048 122.871,-61.5991 138.963,-66.4141"/>
<polygon fill="midnightblue" stroke="midnightblue" points="86.6311,-47.1025 76.0475,-47.589 84.6245,-53.8088 86.6311,-47.1025"/>
</g>
<!-- Node8 -->
<g id="node8" class="node"><title>Node8</title>
<g id="a_node8"><a xlink:href="../../db/d97/class_box_world.html#a55bf92d3f466bfaade0f6d199d8c9bd9" target="_top" xlink:title="BoxWorld.init">
<polygon fill="white" stroke="black" points="730.5,-66.5 730.5,-85.5 807.5,-85.5 807.5,-66.5 730.5,-66.5"/>
<text text-anchor="middle" x="769" y="-73.5" font-family="Helvetica,sans-Serif" font-size="10.00">BoxWorld.init</text>
</a>
</g>
</g>
<!-- Node1&#45;&gt;Node8 -->
<g id="edge18" class="edge"><title>Node1&#45;&gt;Node8</title>
<path fill="none" stroke="midnightblue" d="M96.48,-38C149.944,-38 235.245,-38 309,-38 309,-38 309,-38 467,-38 568.242,-38 594.174,-40.1295 694,-57 707.863,-59.3429 722.933,-63.003 735.834,-66.488"/>
<polygon fill="midnightblue" stroke="midnightblue" points="96.2246,-34.5001 86.2246,-38 96.2246,-41.5001 96.2246,-34.5001"/>
</g>
<!-- Node3 -->
<g id="node3" class="node"><title>Node3</title>
<g id="a_node3"><a xlink:href="../../db/d97/class_box_world.html#aad670712776afe126e51791097027e05" target="_top" xlink:title="BoxWorld.winLevel">
<polygon fill="white" stroke="black" points="258.5,-104.5 258.5,-123.5 361.5,-123.5 361.5,-104.5 258.5,-104.5"/>
<text text-anchor="middle" x="310" y="-111.5" font-family="Helvetica,sans-Serif" font-size="10.00">BoxWorld.winLevel</text>
</a>
</g>
</g>
<!-- Node2&#45;&gt;Node3 -->
<g id="edge2" class="edge"><title>Node2&#45;&gt;Node3</title>
<path fill="none" stroke="midnightblue" d="M217.087,-88.3183C235.772,-93.5393 257.218,-99.5316 274.692,-104.414"/>
<polygon fill="midnightblue" stroke="midnightblue" points="217.892,-84.9092 207.319,-85.589 216.008,-91.651 217.892,-84.9092"/>
</g>
<!-- Node4 -->
<g id="node4" class="node"><title>Node4</title>
<g id="a_node4"><a xlink:href="../../db/d97/class_box_world.html#a4079bed8937c9f621decfbe1309e31e2" target="_top" xlink:title="BoxWorld.checkAllCollisions">
<polygon fill="white" stroke="black" points="1236,-66.5 1236,-85.5 1382,-85.5 1382,-66.5 1236,-66.5"/>
<text text-anchor="middle" x="1309" y="-73.5" font-family="Helvetica,sans-Serif" font-size="10.00">BoxWorld.checkAllCollisions</text>
</a>
</g>
</g>
<!-- Node3&#45;&gt;Node4 -->
<g id="edge3" class="edge"><title>Node3&#45;&gt;Node4</title>
<path fill="none" stroke="midnightblue" d="M359.174,-125.722C371.75,-128.452 385.331,-131.109 398,-133 500.761,-148.341 527.101,-152 631,-152 631,-152 631,-152 986,-152 1081.49,-152 1108.42,-160.038 1200,-133 1236.19,-122.314 1274.27,-98.9311 1294.11,-85.6741"/>
<polygon fill="midnightblue" stroke="midnightblue" points="359.863,-122.29 349.341,-123.531 358.34,-129.122 359.863,-122.29"/>
</g>
<!-- Node6 -->
<g id="node6" class="node"><title>Node6</title>
<g id="a_node6"><a xlink:href="../../db/d97/class_box_world.html#aa7e2049d7be23e15fd2ec7fa2922ed79" target="_top" xlink:title="BoxWorld.handleKeyInput">
<polygon fill="white" stroke="black" points="398,-104.5 398,-123.5 534,-123.5 534,-104.5 398,-104.5"/>
<text text-anchor="middle" x="466" y="-111.5" font-family="Helvetica,sans-Serif" font-size="10.00">BoxWorld.handleKeyInput</text>
</a>
</g>
</g>
<!-- Node3&#45;&gt;Node6 -->
<g id="edge6" class="edge"><title>Node3&#45;&gt;Node6</title>
<path fill="none" stroke="midnightblue" d="M372.075,-114C380.591,-114 389.378,-114 397.996,-114"/>
<polygon fill="midnightblue" stroke="midnightblue" points="371.852,-110.5 361.852,-114 371.852,-117.5 371.852,-110.5"/>
</g>
<!-- Node5 -->
<g id="node5" class="node"><title>Node5</title>
<g id="a_node5"><a xlink:href="../../db/d97/class_box_world.html#a6794c083c2a0263c2f585f4ae4b7e39c" target="_top" xlink:title="BoxWorld.updateSprites">
<polygon fill="white" stroke="black" points="1418.5,-28.5 1418.5,-47.5 1549.5,-47.5 1549.5,-28.5 1418.5,-28.5"/>
<text text-anchor="middle" x="1484" y="-35.5" font-family="Helvetica,sans-Serif" font-size="10.00">BoxWorld.updateSprites</text>
</a>
</g>
</g>
<!-- Node4&#45;&gt;Node5 -->
<g id="edge4" class="edge"><title>Node4&#45;&gt;Node5</title>
<path fill="none" stroke="midnightblue" d="M1363.51,-64.2474C1387.97,-58.8742 1416.57,-52.5914 1439.66,-47.5201"/>
<polygon fill="midnightblue" stroke="midnightblue" points="1362.67,-60.847 1353.66,-66.411 1364.17,-67.684 1362.67,-60.847"/>
</g>
<!-- Node5&#45;&gt;Node1 -->
<g id="edge5" class="edge"><title>Node5&#45;&gt;Node1</title>
<path fill="none" stroke="midnightblue" d="M1419.13,-26.8403C1349.32,-15.6287 1234.06,-0 1134,-0 309,-0 309,-0 309,-0 229.059,-0 136.913,-17.1538 85.0498,-28.411"/>
<polygon fill="midnightblue" stroke="midnightblue" points="1418.66,-30.3099 1429.09,-28.46 1419.78,-23.4006 1418.66,-30.3099"/>
</g>
<!-- Node7 -->
<g id="node7" class="node"><title>Node7</title>
<g id="a_node7"><a xlink:href="../../db/d97/class_box_world.html#a726e747e023543658d7a345cc6466ccb" target="_top" xlink:title="BoxWorld.createScene">
<polygon fill="white" stroke="black" points="570,-66.5 570,-85.5 694,-85.5 694,-66.5 570,-66.5"/>
<text text-anchor="middle" x="632" y="-73.5" font-family="Helvetica,sans-Serif" font-size="10.00">BoxWorld.createScene</text>
</a>
</g>
</g>
<!-- Node6&#45;&gt;Node7 -->
<g id="edge7" class="edge"><title>Node6&#45;&gt;Node7</title>
<path fill="none" stroke="midnightblue" d="M518.341,-102.104C541.393,-96.7626 568.221,-90.5463 589.913,-85.5201"/>
<polygon fill="midnightblue" stroke="midnightblue" points="517.336,-98.744 508.384,-104.411 518.916,-105.563 517.336,-98.744"/>
</g>
<!-- Node7&#45;&gt;Node2 -->
<g id="edge8" class="edge"><title>Node7&#45;&gt;Node2</title>
<path fill="none" stroke="midnightblue" d="M559.632,-76C465.569,-76 302.574,-76 221.58,-76"/>
<polygon fill="midnightblue" stroke="midnightblue" points="559.912,-79.5001 569.912,-76 559.912,-72.5001 559.912,-79.5001"/>
</g>
<!-- Node7&#45;&gt;Node8 -->
<g id="edge9" class="edge"><title>Node7&#45;&gt;Node8</title>
<path fill="none" stroke="midnightblue" d="M704.282,-76C713.225,-76 722.08,-76 730.215,-76"/>
<polygon fill="midnightblue" stroke="midnightblue" points="704.18,-72.5001 694.18,-76 704.18,-79.5001 704.18,-72.5001"/>
</g>
<!-- Node9 -->
<g id="node9" class="node"><title>Node9</title>
<g id="a_node9"><a xlink:href="../../d2/db8/class_menu.html#a3c99ad09e9f2f975c1a0d0597642651a" target="_top" xlink:title="Menu.init">
<polygon fill="white" stroke="black" points="844,-66.5 844,-85.5 904,-85.5 904,-66.5 844,-66.5"/>
<text text-anchor="middle" x="874" y="-73.5" font-family="Helvetica,sans-Serif" font-size="10.00">Menu.init</text>
</a>
</g>
</g>
<!-- Node8&#45;&gt;Node9 -->
<g id="edge10" class="edge"><title>Node8&#45;&gt;Node9</title>
<path fill="none" stroke="midnightblue" d="M818.034,-76C826.886,-76 835.875,-76 843.949,-76"/>
<polygon fill="midnightblue" stroke="midnightblue" points="817.769,-72.5001 807.769,-76 817.768,-79.5001 817.769,-72.5001"/>
</g>
<!-- Node10 -->
<g id="node10" class="node"><title>Node10</title>
<g id="a_node10"><a xlink:href="../../d1/de1/class_end_screen.html#a1264ffb72b3a3032443f9c4087222aef" target="_top" xlink:title="EndScreen.init">
<polygon fill="white" stroke="black" points="942,-104.5 942,-123.5 1028,-123.5 1028,-104.5 942,-104.5"/>
<text text-anchor="middle" x="985" y="-111.5" font-family="Helvetica,sans-Serif" font-size="10.00">EndScreen.init</text>
</a>
</g>
</g>
<!-- Node9&#45;&gt;Node10 -->
<g id="edge11" class="edge"><title>Node9&#45;&gt;Node10</title>
<path fill="none" stroke="midnightblue" d="M912.209,-88.9718C926.73,-94.0344 943.079,-99.7341 956.503,-104.414"/>
<polygon fill="midnightblue" stroke="midnightblue" points="913.1,-85.5761 902.505,-85.589 910.796,-92.1859 913.1,-85.5761"/>
</g>
<!-- Node12 -->
<g id="node12" class="node"><title>Node12</title>
<g id="a_node12"><a xlink:href="../../d4/d2f/class_lose_screen.html#a34f2cc2c803500316c9b8d854854d758" target="_top" xlink:title="LoseScreen.init">
<polygon fill="white" stroke="black" points="940,-66.5 940,-85.5 1030,-85.5 1030,-66.5 940,-66.5"/>
<text text-anchor="middle" x="985" y="-73.5" font-family="Helvetica,sans-Serif" font-size="10.00">LoseScreen.init</text>
</a>
</g>
</g>
<!-- Node9&#45;&gt;Node12 -->
<g id="edge13" class="edge"><title>Node9&#45;&gt;Node12</title>
<path fill="none" stroke="midnightblue" d="M914.383,-76C922.679,-76 931.483,-76 939.938,-76"/>
<polygon fill="midnightblue" stroke="midnightblue" points="914.21,-72.5001 904.21,-76 914.21,-79.5001 914.21,-72.5001"/>
</g>
<!-- Node15 -->
<g id="node15" class="node"><title>Node15</title>
<g id="a_node15"><a xlink:href="../../d0/d4b/class_main.html#a7595d13c514a02c35aca322dd91d2063" target="_top" xlink:title="Main.start">
<polygon fill="white" stroke="black" points="952.5,-28.5 952.5,-47.5 1017.5,-47.5 1017.5,-28.5 952.5,-28.5"/>
<text text-anchor="middle" x="985" y="-35.5" font-family="Helvetica,sans-Serif" font-size="10.00">Main.start</text>
</a>
</g>
</g>
<!-- Node9&#45;&gt;Node15 -->
<g id="edge17" class="edge"><title>Node9&#45;&gt;Node15</title>
<path fill="none" stroke="midnightblue" d="M912.209,-63.0282C926.73,-57.9656 943.079,-52.2659 956.503,-47.5859"/>
<polygon fill="midnightblue" stroke="midnightblue" points="910.796,-59.8141 902.505,-66.411 913.1,-66.4239 910.796,-59.8141"/>
</g>
<!-- Node11 -->
<g id="node11" class="node"><title>Node11</title>
<g id="a_node11"><a xlink:href="../../d6/d4f/class_item_box_world.html#a2ed12a6b39993faedc05cc682204476d" target="_top" xlink:title="ItemBoxWorld.winLevel">
<polygon fill="white" stroke="black" points="1070.5,-104.5 1070.5,-123.5 1195.5,-123.5 1195.5,-104.5 1070.5,-104.5"/>
<text text-anchor="middle" x="1133" y="-111.5" font-family="Helvetica,sans-Serif" font-size="10.00">ItemBoxWorld.winLevel</text>
</a>
</g>
</g>
<!-- Node10&#45;&gt;Node11 -->
<g id="edge12" class="edge"><title>Node10&#45;&gt;Node11</title>
<path fill="none" stroke="midnightblue" d="M1038.35,-114C1048.71,-114 1059.68,-114 1070.31,-114"/>
<polygon fill="midnightblue" stroke="midnightblue" points="1038.23,-110.5 1028.23,-114 1038.23,-117.5 1038.23,-110.5"/>
</g>
<!-- Node13 -->
<g id="node13" class="node"><title>Node13</title>
<g id="a_node13"><a xlink:href="../../db/d97/class_box_world.html#a72bacb2a6757900d8835249929fcc838" target="_top" xlink:title="BoxWorld.loseGame">
<polygon fill="white" stroke="black" points="1077,-66.5 1077,-85.5 1189,-85.5 1189,-66.5 1077,-66.5"/>
<text text-anchor="middle" x="1133" y="-73.5" font-family="Helvetica,sans-Serif" font-size="10.00">BoxWorld.loseGame</text>
</a>
</g>
</g>
<!-- Node12&#45;&gt;Node13 -->
<g id="edge14" class="edge"><title>Node12&#45;&gt;Node13</title>
<path fill="none" stroke="midnightblue" d="M1040.43,-76C1052.33,-76 1064.92,-76 1076.84,-76"/>
<polygon fill="midnightblue" stroke="midnightblue" points="1040.2,-72.5001 1030.2,-76 1040.2,-79.5001 1040.2,-72.5001"/>
</g>
<!-- Node14 -->
<g id="node14" class="node"><title>Node14</title>
<g id="a_node14"><a xlink:href="../../d6/d4f/class_item_box_world.html#a295cf7212ad54fa599e2a2d85ee0523d" target="_top" xlink:title="ItemBoxWorld.loseGame">
<polygon fill="white" stroke="black" points="1066,-28.5 1066,-47.5 1200,-47.5 1200,-28.5 1066,-28.5"/>
<text text-anchor="middle" x="1133" y="-35.5" font-family="Helvetica,sans-Serif" font-size="10.00">ItemBoxWorld.loseGame</text>
</a>
</g>
</g>
<!-- Node12&#45;&gt;Node14 -->
<g id="edge16" class="edge"><title>Node12&#45;&gt;Node14</title>
<path fill="none" stroke="midnightblue" d="M1032.54,-63.8879C1052.87,-58.5956 1076.37,-52.4787 1095.42,-47.5201"/>
<polygon fill="midnightblue" stroke="midnightblue" points="1031.64,-60.5049 1022.84,-66.411 1033.4,-67.2793 1031.64,-60.5049"/>
</g>
<!-- Node13&#45;&gt;Node4 -->
<g id="edge15" class="edge"><title>Node13&#45;&gt;Node4</title>
<path fill="none" stroke="midnightblue" d="M1199.34,-76C1211.23,-76 1223.7,-76 1235.78,-76"/>
<polygon fill="midnightblue" stroke="midnightblue" points="1199.05,-72.5001 1189.05,-76 1199.05,-79.5001 1199.05,-72.5001"/>
</g>
</g>
</svg>
