<?xml version="1.0" encoding="UTF-8" standalone="no"?>
<!DOCTYPE svg PUBLIC "-//W3C//DTD SVG 1.1//EN"
 "http://www.w3.org/Graphics/SVG/1.1/DTD/svg11.dtd">
<!-- Generated by graphviz version 2.36.0 (20140111.2315)
 -->
<!-- Title: BoxWorld.checkAllCollisions Pages: 1 -->
<svg width="1558pt" height="142pt"
 viewBox="0.00 0.00 1558.00 142.00" xmlns="http://www.w3.org/2000/svg" xmlns:xlink="http://www.w3.org/1999/xlink">
<g id="graph0" class="graph" transform="scale(1 1) rotate(0) translate(4 138)">
<title>BoxWorld.checkAllCollisions</title>
<polygon fill="white" stroke="none" points="-4,4 -4,-138 1554,-138 1554,4 -4,4"/>
<!-- Node1 -->
<g id="node1" class="node"><title>Node1</title>
<polygon fill="#bfbfbf" stroke="black" points="0,-57.5 0,-76.5 146,-76.5 146,-57.5 0,-57.5"/>
<text text-anchor="middle" x="73" y="-64.5" font-family="Helvetica,sans-Serif" font-size="10.00">BoxWorld.checkAllCollisions</text>
</g>
<!-- Node2 -->
<g id="node2" class="node"><title>Node2</title>
<g id="a_node2"><a xlink:href="../../db/d97/class_box_world.html#a6794c083c2a0263c2f585f4ae4b7e39c" target="_top" xlink:title="BoxWorld.updateSprites">
<polygon fill="white" stroke="black" points="182.5,-57.5 182.5,-76.5 313.5,-76.5 313.5,-57.5 182.5,-57.5"/>
<text text-anchor="middle" x="248" y="-64.5" font-family="Helvetica,sans-Serif" font-size="10.00">BoxWorld.updateSprites</text>
</a>
</g>
</g>
<!-- Node1&#45;&gt;Node2 -->
<g id="edge1" class="edge"><title>Node1&#45;&gt;Node2</title>
<path fill="none" stroke="midnightblue" d="M156.354,-67C165.116,-67 173.936,-67 182.451,-67"/>
<polygon fill="midnightblue" stroke="midnightblue" points="156.115,-63.5001 146.115,-67 156.115,-70.5001 156.115,-63.5001"/>
</g>
<!-- Node3 -->
<g id="node3" class="node"><title>Node3</title>
<g id="a_node3"><a xlink:href="../../db/d97/class_box_world.html#ad20a4e43406c44f4bbf201d1d1028998" target="_top" xlink:title="BoxWorld.start">
<polygon fill="white" stroke="black" points="350,-57.5 350,-76.5 436,-76.5 436,-57.5 350,-57.5"/>
<text text-anchor="middle" x="393" y="-64.5" font-family="Helvetica,sans-Serif" font-size="10.00">BoxWorld.start</text>
</a>
</g>
</g>
<!-- Node2&#45;&gt;Node3 -->
<g id="edge2" class="edge"><title>Node2&#45;&gt;Node3</title>
<path fill="none" stroke="midnightblue" d="M323.898,-67C332.837,-67 341.705,-67 349.941,-67"/>
<polygon fill="midnightblue" stroke="midnightblue" points="323.806,-63.5001 313.806,-67 323.806,-70.5001 323.806,-63.5001"/>
</g>
<!-- Node4 -->
<g id="node4" class="node"><title>Node4</title>
<g id="a_node4"><a xlink:href="../../db/d97/class_box_world.html#a55bf92d3f466bfaade0f6d199d8c9bd9" target="_top" xlink:title="BoxWorld.init">
<polygon fill="white" stroke="black" points="1080.5,-76.5 1080.5,-95.5 1157.5,-95.5 1157.5,-76.5 1080.5,-76.5"/>
<text text-anchor="middle" x="1119" y="-83.5" font-family="Helvetica,sans-Serif" font-size="10.00">BoxWorld.init</text>
</a>
</g>
</g>
<!-- Node3&#45;&gt;Node4 -->
<g id="edge3" class="edge"><title>Node3&#45;&gt;Node4</title>
<path fill="none" stroke="midnightblue" d="M446.401,-61.0209C499.802,-55.4509 585.056,-48 659,-48 659,-48 659,-48 817,-48 918.242,-48 944.174,-50.1295 1044,-67 1057.86,-69.3429 1072.93,-73.003 1085.83,-76.488"/>
<polygon fill="midnightblue" stroke="midnightblue" points="445.733,-57.572 436.158,-62.107 446.471,-64.5329 445.733,-57.572"/>
</g>
<!-- Node12 -->
<g id="node12" class="node"><title>Node12</title>
<g id="a_node12"><a xlink:href="../../d6/d4f/class_item_box_world.html#aa559fc2680327b41fb376e2eda8e82e3" target="_top" xlink:title="ItemBoxWorld.init">
<polygon fill="white" stroke="black" points="472.5,-76.5 472.5,-95.5 571.5,-95.5 571.5,-76.5 472.5,-76.5"/>
<text text-anchor="middle" x="522" y="-83.5" font-family="Helvetica,sans-Serif" font-size="10.00">ItemBoxWorld.init</text>
</a>
</g>
</g>
<!-- Node3&#45;&gt;Node12 -->
<g id="edge12" class="edge"><title>Node3&#45;&gt;Node12</title>
<path fill="none" stroke="midnightblue" d="M446.241,-74.8156C454.865,-76.1058 463.775,-77.4388 472.307,-78.7152"/>
<polygon fill="midnightblue" stroke="midnightblue" points="446.697,-71.3449 436.289,-73.3267 445.661,-78.2679 446.697,-71.3449"/>
</g>
<!-- Node5 -->
<g id="node5" class="node"><title>Node5</title>
<g id="a_node5"><a xlink:href="../../d2/db8/class_menu.html#a3c99ad09e9f2f975c1a0d0597642651a" target="_top" xlink:title="Menu.init">
<polygon fill="white" stroke="black" points="1194,-76.5 1194,-95.5 1254,-95.5 1254,-76.5 1194,-76.5"/>
<text text-anchor="middle" x="1224" y="-83.5" font-family="Helvetica,sans-Serif" font-size="10.00">Menu.init</text>
</a>
</g>
</g>
<!-- Node4&#45;&gt;Node5 -->
<g id="edge4" class="edge"><title>Node4&#45;&gt;Node5</title>
<path fill="none" stroke="midnightblue" d="M1168.03,-86C1176.89,-86 1185.87,-86 1193.95,-86"/>
<polygon fill="midnightblue" stroke="midnightblue" points="1167.77,-82.5001 1157.77,-86 1167.77,-89.5001 1167.77,-82.5001"/>
</g>
<!-- Node6 -->
<g id="node6" class="node"><title>Node6</title>
<g id="a_node6"><a xlink:href="../../d1/de1/class_end_screen.html#a1264ffb72b3a3032443f9c4087222aef" target="_top" xlink:title="EndScreen.init">
<polygon fill="white" stroke="black" points="1292,-76.5 1292,-95.5 1378,-95.5 1378,-76.5 1292,-76.5"/>
<text text-anchor="middle" x="1335" y="-83.5" font-family="Helvetica,sans-Serif" font-size="10.00">EndScreen.init</text>
</a>
</g>
</g>
<!-- Node5&#45;&gt;Node6 -->
<g id="edge5" class="edge"><title>Node5&#45;&gt;Node6</title>
<path fill="none" stroke="midnightblue" d="M1264.29,-86C1273.15,-86 1282.6,-86 1291.59,-86"/>
<polygon fill="midnightblue" stroke="midnightblue" points="1264.21,-82.5001 1254.21,-86 1264.21,-89.5001 1264.21,-82.5001"/>
</g>
<!-- Node8 -->
<g id="node8" class="node"><title>Node8</title>
<g id="a_node8"><a xlink:href="../../d4/d2f/class_lose_screen.html#a34f2cc2c803500316c9b8d854854d758" target="_top" xlink:title="LoseScreen.init">
<polygon fill="white" stroke="black" points="1290,-38.5 1290,-57.5 1380,-57.5 1380,-38.5 1290,-38.5"/>
<text text-anchor="middle" x="1335" y="-45.5" font-family="Helvetica,sans-Serif" font-size="10.00">LoseScreen.init</text>
</a>
</g>
</g>
<!-- Node5&#45;&gt;Node8 -->
<g id="edge7" class="edge"><title>Node5&#45;&gt;Node8</title>
<path fill="none" stroke="midnightblue" d="M1262.21,-73.0282C1276.73,-67.9656 1293.08,-62.2659 1306.5,-57.5859"/>
<polygon fill="midnightblue" stroke="midnightblue" points="1260.8,-69.8141 1252.51,-76.411 1263.1,-76.4239 1260.8,-69.8141"/>
</g>
<!-- Node11 -->
<g id="node11" class="node"><title>Node11</title>
<g id="a_node11"><a xlink:href="../../d0/d4b/class_main.html#a7595d13c514a02c35aca322dd91d2063" target="_top" xlink:title="Main.start">
<polygon fill="white" stroke="black" points="1302.5,-114.5 1302.5,-133.5 1367.5,-133.5 1367.5,-114.5 1302.5,-114.5"/>
<text text-anchor="middle" x="1335" y="-121.5" font-family="Helvetica,sans-Serif" font-size="10.00">Main.start</text>
</a>
</g>
</g>
<!-- Node5&#45;&gt;Node11 -->
<g id="edge11" class="edge"><title>Node5&#45;&gt;Node11</title>
<path fill="none" stroke="midnightblue" d="M1262.21,-98.9718C1276.73,-104.034 1293.08,-109.734 1306.5,-114.414"/>
<polygon fill="midnightblue" stroke="midnightblue" points="1263.1,-95.5761 1252.51,-95.589 1260.8,-102.186 1263.1,-95.5761"/>
</g>
<!-- Node7 -->
<g id="node7" class="node"><title>Node7</title>
<g id="a_node7"><a xlink:href="../../d6/d4f/class_item_box_world.html#a2ed12a6b39993faedc05cc682204476d" target="_top" xlink:title="ItemBoxWorld.winLevel">
<polygon fill="white" stroke="black" points="1420.5,-76.5 1420.5,-95.5 1545.5,-95.5 1545.5,-76.5 1420.5,-76.5"/>
<text text-anchor="middle" x="1483" y="-83.5" font-family="Helvetica,sans-Serif" font-size="10.00">ItemBoxWorld.winLevel</text>
</a>
</g>
</g>
<!-- Node6&#45;&gt;Node7 -->
<g id="edge6" class="edge"><title>Node6&#45;&gt;Node7</title>
<path fill="none" stroke="midnightblue" d="M1388.35,-86C1398.71,-86 1409.68,-86 1420.31,-86"/>
<polygon fill="midnightblue" stroke="midnightblue" points="1388.23,-82.5001 1378.23,-86 1388.23,-89.5001 1388.23,-82.5001"/>
</g>
<!-- Node9 -->
<g id="node9" class="node"><title>Node9</title>
<g id="a_node9"><a xlink:href="../../db/d97/class_box_world.html#a72bacb2a6757900d8835249929fcc838" target="_top" xlink:title="BoxWorld.loseGame">
<polygon fill="white" stroke="black" points="1427,-0.5 1427,-19.5 1539,-19.5 1539,-0.5 1427,-0.5"/>
<text text-anchor="middle" x="1483" y="-7.5" font-family="Helvetica,sans-Serif" font-size="10.00">BoxWorld.loseGame</text>
</a>
</g>
</g>
<!-- Node8&#45;&gt;Node9 -->
<g id="edge8" class="edge"><title>Node8&#45;&gt;Node9</title>
<path fill="none" stroke="midnightblue" d="M1382.54,-35.8879C1402.87,-30.5956 1426.37,-24.4787 1445.42,-19.5201"/>
<polygon fill="midnightblue" stroke="midnightblue" points="1381.64,-32.5049 1372.84,-38.411 1383.4,-39.2793 1381.64,-32.5049"/>
</g>
<!-- Node10 -->
<g id="node10" class="node"><title>Node10</title>
<g id="a_node10"><a xlink:href="../../d6/d4f/class_item_box_world.html#a295cf7212ad54fa599e2a2d85ee0523d" target="_top" xlink:title="ItemBoxWorld.loseGame">
<polygon fill="white" stroke="black" points="1416,-38.5 1416,-57.5 1550,-57.5 1550,-38.5 1416,-38.5"/>
<text text-anchor="middle" x="1483" y="-45.5" font-family="Helvetica,sans-Serif" font-size="10.00">ItemBoxWorld.loseGame</text>
</a>
</g>
</g>
<!-- Node8&#45;&gt;Node10 -->
<g id="edge10" class="edge"><title>Node8&#45;&gt;Node10</title>
<path fill="none" stroke="midnightblue" d="M1390.47,-48C1398.75,-48 1407.37,-48 1415.86,-48"/>
<polygon fill="midnightblue" stroke="midnightblue" points="1390.2,-44.5001 1380.2,-48 1390.2,-51.5001 1390.2,-44.5001"/>
</g>
<!-- Node9&#45;&gt;Node1 -->
<g id="edge9" class="edge"><title>Node9&#45;&gt;Node1</title>
<path fill="none" stroke="midnightblue" d="M1416.78,-10C1364.83,-10 1290.25,-10 1225,-10 392,-10 392,-10 392,-10 285.713,-10 162.533,-41.233 105.71,-57.4595"/>
<polygon fill="midnightblue" stroke="midnightblue" points="1416.85,-13.5001 1426.85,-10 1416.85,-6.5001 1416.85,-13.5001"/>
</g>
<!-- Node13 -->
<g id="node13" class="node"><title>Node13</title>
<g id="a_node13"><a xlink:href="../../db/d97/class_box_world.html#aad670712776afe126e51791097027e05" target="_top" xlink:title="BoxWorld.winLevel">
<polygon fill="white" stroke="black" points="608.5,-114.5 608.5,-133.5 711.5,-133.5 711.5,-114.5 608.5,-114.5"/>
<text text-anchor="middle" x="660" y="-121.5" font-family="Helvetica,sans-Serif" font-size="10.00">BoxWorld.winLevel</text>
</a>
</g>
</g>
<!-- Node12&#45;&gt;Node13 -->
<g id="edge13" class="edge"><title>Node12&#45;&gt;Node13</title>
<path fill="none" stroke="midnightblue" d="M567.087,-98.3183C585.772,-103.539 607.218,-109.532 624.692,-114.414"/>
<polygon fill="midnightblue" stroke="midnightblue" points="567.892,-94.9092 557.319,-95.589 566.008,-101.651 567.892,-94.9092"/>
</g>
<!-- Node13&#45;&gt;Node1 -->
<g id="edge14" class="edge"><title>Node13&#45;&gt;Node1</title>
<path fill="none" stroke="midnightblue" d="M598.245,-121.006C507.422,-116.113 330.979,-104.995 182,-86 162.454,-83.5078 141.059,-79.9251 122.506,-76.5411"/>
<polygon fill="midnightblue" stroke="midnightblue" points="598.186,-124.508 608.358,-121.544 598.558,-117.517 598.186,-124.508"/>
</g>
<!-- Node14 -->
<g id="node14" class="node"><title>Node14</title>
<g id="a_node14"><a xlink:href="../../db/d97/class_box_world.html#aa7e2049d7be23e15fd2ec7fa2922ed79" target="_top" xlink:title="BoxWorld.handleKeyInput">
<polygon fill="white" stroke="black" points="748,-114.5 748,-133.5 884,-133.5 884,-114.5 748,-114.5"/>
<text text-anchor="middle" x="816" y="-121.5" font-family="Helvetica,sans-Serif" font-size="10.00">BoxWorld.handleKeyInput</text>
</a>
</g>
</g>
<!-- Node13&#45;&gt;Node14 -->
<g id="edge15" class="edge"><title>Node13&#45;&gt;Node14</title>
<path fill="none" stroke="midnightblue" d="M722.075,-124C730.591,-124 739.378,-124 747.996,-124"/>
<polygon fill="midnightblue" stroke="midnightblue" points="721.852,-120.5 711.852,-124 721.852,-127.5 721.852,-120.5"/>
</g>
<!-- Node15 -->
<g id="node15" class="node"><title>Node15</title>
<g id="a_node15"><a xlink:href="../../db/d97/class_box_world.html#a726e747e023543658d7a345cc6466ccb" target="_top" xlink:title="BoxWorld.createScene">
<polygon fill="white" stroke="black" points="920,-76.5 920,-95.5 1044,-95.5 1044,-76.5 920,-76.5"/>
<text text-anchor="middle" x="982" y="-83.5" font-family="Helvetica,sans-Serif" font-size="10.00">BoxWorld.createScene</text>
</a>
</g>
</g>
<!-- Node14&#45;&gt;Node15 -->
<g id="edge16" class="edge"><title>Node14&#45;&gt;Node15</title>
<path fill="none" stroke="midnightblue" d="M868.341,-112.104C891.393,-106.763 918.221,-100.546 939.913,-95.5201"/>
<polygon fill="midnightblue" stroke="midnightblue" points="867.336,-108.744 858.384,-114.411 868.916,-115.563 867.336,-108.744"/>
</g>
<!-- Node15&#45;&gt;Node4 -->
<g id="edge17" class="edge"><title>Node15&#45;&gt;Node4</title>
<path fill="none" stroke="midnightblue" d="M1054.28,-86C1063.23,-86 1072.08,-86 1080.22,-86"/>
<polygon fill="midnightblue" stroke="midnightblue" points="1054.18,-82.5001 1044.18,-86 1054.18,-89.5001 1054.18,-82.5001"/>
</g>
<!-- Node15&#45;&gt;Node12 -->
<g id="edge18" class="edge"><title>Node15&#45;&gt;Node12</title>
<path fill="none" stroke="midnightblue" d="M909.632,-86C815.569,-86 652.574,-86 571.58,-86"/>
<polygon fill="midnightblue" stroke="midnightblue" points="909.912,-89.5001 919.912,-86 909.912,-82.5001 909.912,-89.5001"/>
</g>
</g>
</svg>
