<?xml version="1.0" encoding="UTF-8" standalone="no"?>
<!DOCTYPE svg PUBLIC "-//W3C//DTD SVG 1.1//EN"
 "http://www.w3.org/Graphics/SVG/1.1/DTD/svg11.dtd">
<!-- Generated by graphviz version 2.36.0 (20140111.2315)
 -->
<!-- Title: BoxWorld.handleKeyInput Pages: 1 -->
<!--zoomable 468 -->
<svg id="main" version="1.1" xmlns="http://www.w3.org/2000/svg" xmlns:xlink="http://www.w3.org/1999/xlink" xml:space="preserve" onload="init(evt)">
<style type="text/css"><![CDATA[
.edge:hover path { stroke: red; }
.edge:hover polygon { stroke: red; fill: red; }
]]></style>
<script type="text/javascript"><![CDATA[
var edges = document.getElementsByTagName('g');
if (edges && edges.length) {
  for (var i=0;i<edges.length;i++) {
    if (edges[i].id.substr(0,4)=='edge') {
      edges[i].setAttribute('class','edge');
    }
  }
}
]]></script>
        <defs>
                <circle id="rim" cx="0" cy="0" r="7"/>
                <circle id="rim2" cx="0" cy="0" r="3.5"/>
                <g id="zoomPlus">
                        <use xlink:href="#rim" fill="#404040">
                                <set attributeName="fill" to="#808080" begin="zoomplus.mouseover" end="zoomplus.mouseout"/>
                        </use>
                        <path d="M-4,0h8M0,-4v8" fill="none" stroke="white" stroke-width="1.5" pointer-events="none"/>
                </g>
                <g id="zoomMin">
                        <use xlink:href="#rim" fill="#404040">
                                <set attributeName="fill" to="#808080" begin="zoomminus.mouseover" end="zoomminus.mouseout"/>
                        </use>
                        <path d="M-4,0h8" fill="none" stroke="white" stroke-width="1.5" pointer-events="none"/>
                </g>
                <g id="dirArrow">
                        <path fill="none" stroke="white" stroke-width="1.5" d="M0,-3.0v7 M-2.5,-0.5L0,-3.0L2.5,-0.5"/>
                </g>
               <g id="resetDef">
                       <use xlink:href="#rim2" fill="#404040">
                               <set attributeName="fill" to="#808080" begin="reset.mouseover" end="reset.mouseout"/>
                       </use>
               </g>
        </defs>

<script type="text/javascript">
var viewWidth = 1952;
var viewHeight = 468;
var sectionId = 'dynsection-13';
</script>
<script xlink:href="../../svgpan.js"/>
<svg id="graph" class="graph">
<g id="viewport">
<title>BoxWorld.handleKeyInput</title>
<polygon fill="white" stroke="none" points="-4,4 -4,-463.894 1948,-463.894 1948,4 -4,4"/>
<!-- Node1 -->
<g id="node1" class="node"><title>Node1</title>
<polygon fill="#bfbfbf" stroke="black" points="0,-370.5 0,-389.5 136,-389.5 136,-370.5 0,-370.5"/>
<text text-anchor="middle" x="68" y="-377.5" font-family="Helvetica,sans-Serif" font-size="10.00">BoxWorld.handleKeyInput</text>
</g>
<!-- Node2 -->
<g id="node2" class="node"><title>Node2</title>
<g id="a_node2"><a xlink:href="../../db/d97/class_box_world.html#adc4c9d78ffde3d052c4c92047eb98e55" target="_top" xlink:title="BoxWorld.allowMovement">
<polygon fill="white" stroke="black" points="1016.5,-370.5 1016.5,-389.5 1153.5,-389.5 1153.5,-370.5 1016.5,-370.5"/>
<text text-anchor="middle" x="1085" y="-377.5" font-family="Helvetica,sans-Serif" font-size="10.00">BoxWorld.allowMovement</text>
</a>
</g>
</g>
<!-- Node1&#45;&gt;Node2 -->
<g id="edge1" class="edge"><title>Node1&#45;&gt;Node2</title>
<path fill="none" stroke="midnightblue" d="M90.4782,-389.625C138.134,-410.076 256.757,-456 361,-456 361,-456 361,-456 704,-456 826.957,-456 862.005,-471.576 980,-437 1010.67,-428.013 1042.38,-408.967 1062.6,-395.366"/>
<polygon fill="midnightblue" stroke="midnightblue" points="1064.78,-398.111 1071.03,-389.555 1060.81,-392.347 1064.78,-398.111"/>
</g>
<!-- Node7 -->
<g id="node7" class="node"><title>Node7</title>
<g id="a_node7"><a xlink:href="../../db/d97/class_box_world.html#a04c6bf977c4292a5433649fb3745fd6b" target="_top" xlink:title="BoxWorld.reset">
<polygon fill="white" stroke="black" points="659,-408.5 659,-427.5 747,-427.5 747,-408.5 659,-408.5"/>
<text text-anchor="middle" x="703" y="-415.5" font-family="Helvetica,sans-Serif" font-size="10.00">BoxWorld.reset</text>
</a>
</g>
</g>
<!-- Node1&#45;&gt;Node7 -->
<g id="edge6" class="edge"><title>Node1&#45;&gt;Node7</title>
<path fill="none" stroke="midnightblue" d="M132.36,-389.523C145.442,-391.233 159.149,-392.838 172,-394 345.965,-409.73 553.033,-415.325 648.694,-417.169"/>
<polygon fill="midnightblue" stroke="midnightblue" points="648.911,-420.673 658.975,-417.361 649.042,-413.675 648.911,-420.673"/>
</g>
<!-- Node8 -->
<g id="node8" class="node"><title>Node8</title>
<g id="a_node8"><a xlink:href="../../da/de2/class_sticky_box.html#aa1bb8f78f676b01c688d75d386758444" target="_top" xlink:title="StickyBox.setDirection">
<polygon fill="white" stroke="black" points="836,-408.5 836,-427.5 960,-427.5 960,-408.5 836,-408.5"/>
<text text-anchor="middle" x="898" y="-415.5" font-family="Helvetica,sans-Serif" font-size="10.00">StickyBox.setDirection</text>
</a>
</g>
</g>
<!-- Node1&#45;&gt;Node8 -->
<g id="edge9" class="edge"><title>Node1&#45;&gt;Node8</title>
<path fill="none" stroke="midnightblue" d="M136.267,-380C195.451,-380 283.944,-380 361,-380 361,-380 361,-380 520,-380 635.864,-380 664.928,-385.479 780,-399 797.683,-401.078 816.777,-403.921 834.309,-406.776"/>
<polygon fill="midnightblue" stroke="midnightblue" points="833.991,-410.271 844.429,-408.452 835.135,-403.365 833.991,-410.271"/>
</g>
<!-- Node10 -->
<g id="node10" class="node"><title>Node10</title>
<g id="a_node10"><a xlink:href="../../db/d97/class_box_world.html#aad670712776afe126e51791097027e05" target="_top" xlink:title="BoxWorld.winLevel">
<polygon fill="white" stroke="black" points="172.5,-237.5 172.5,-256.5 275.5,-256.5 275.5,-237.5 172.5,-237.5"/>
<text text-anchor="middle" x="224" y="-244.5" font-family="Helvetica,sans-Serif" font-size="10.00">BoxWorld.winLevel</text>
</a>
</g>
</g>
<!-- Node1&#45;&gt;Node10 -->
<g id="edge10" class="edge"><title>Node1&#45;&gt;Node10</title>
<path fill="none" stroke="midnightblue" d="M80.0753,-370.435C106.032,-348.018 171.058,-291.859 203.689,-263.678"/>
<polygon fill="midnightblue" stroke="midnightblue" points="206.329,-266.022 211.61,-256.837 201.754,-260.725 206.329,-266.022"/>
</g>
<!-- Node3 -->
<g id="node3" class="node"><title>Node3</title>
<g id="a_node3"><a xlink:href="../../da/de2/class_sticky_box.html#a6ba3f89630df9d81df5644a3e5f4e387" target="_top" xlink:title="StickyBox.getXDirection">
<polygon fill="white" stroke="black" points="1190.5,-294.5 1190.5,-313.5 1321.5,-313.5 1321.5,-294.5 1190.5,-294.5"/>
<text text-anchor="middle" x="1256" y="-301.5" font-family="Helvetica,sans-Serif" font-size="10.00">StickyBox.getXDirection</text>
</a>
</g>
</g>
<!-- Node2&#45;&gt;Node3 -->
<g id="edge2" class="edge"><title>Node2&#45;&gt;Node3</title>
<path fill="none" stroke="midnightblue" d="M1107.4,-370.375C1136.99,-357.069 1190.56,-332.98 1224.37,-317.772"/>
<polygon fill="midnightblue" stroke="midnightblue" points="1226.09,-320.841 1233.77,-313.547 1223.21,-314.457 1226.09,-320.841"/>
</g>
<!-- Node4 -->
<g id="node4" class="node"><title>Node4</title>
<g id="a_node4"><a xlink:href="../../da/de2/class_sticky_box.html#ab0bd7cafb7f243e3951558ddb8728b96" target="_top" xlink:title="StickyBox.getXPrev">
<polygon fill="white" stroke="black" points="1201.5,-408.5 1201.5,-427.5 1310.5,-427.5 1310.5,-408.5 1201.5,-408.5"/>
<text text-anchor="middle" x="1256" y="-415.5" font-family="Helvetica,sans-Serif" font-size="10.00">StickyBox.getXPrev</text>
</a>
</g>
</g>
<!-- Node2&#45;&gt;Node4 -->
<g id="edge3" class="edge"><title>Node2&#45;&gt;Node4</title>
<path fill="none" stroke="midnightblue" d="M1128.65,-389.589C1151.15,-394.649 1178.95,-400.9 1202.74,-406.249"/>
<polygon fill="midnightblue" stroke="midnightblue" points="1202.14,-409.701 1212.66,-408.48 1203.67,-402.871 1202.14,-409.701"/>
</g>
<!-- Node5 -->
<g id="node5" class="node"><title>Node5</title>
<g id="a_node5"><a xlink:href="../../da/de2/class_sticky_box.html#a69e5ccf2a79159c03dea2e048df13318" target="_top" xlink:title="StickyBox.getYDirection">
<polygon fill="white" stroke="black" points="1191,-256.5 1191,-275.5 1321,-275.5 1321,-256.5 1191,-256.5"/>
<text text-anchor="middle" x="1256" y="-263.5" font-family="Helvetica,sans-Serif" font-size="10.00">StickyBox.getYDirection</text>
</a>
</g>
</g>
<!-- Node2&#45;&gt;Node5 -->
<g id="edge4" class="edge"><title>Node2&#45;&gt;Node5</title>
<path fill="none" stroke="midnightblue" d="M1093.82,-370.37C1109.85,-351.26 1148.44,-308.375 1190,-285 1193.91,-282.801 1198.1,-280.836 1202.4,-279.083"/>
<polygon fill="midnightblue" stroke="midnightblue" points="1203.74,-282.319 1211.91,-275.577 1201.32,-275.75 1203.74,-282.319"/>
</g>
<!-- Node6 -->
<g id="node6" class="node"><title>Node6</title>
<g id="a_node6"><a xlink:href="../../da/de2/class_sticky_box.html#a4c6abed944faed9d9b226079e99cfc24" target="_top" xlink:title="StickyBox.getYPrev">
<polygon fill="white" stroke="black" points="1202,-370.5 1202,-389.5 1310,-389.5 1310,-370.5 1202,-370.5"/>
<text text-anchor="middle" x="1256" y="-377.5" font-family="Helvetica,sans-Serif" font-size="10.00">StickyBox.getYPrev</text>
</a>
</g>
</g>
<!-- Node2&#45;&gt;Node6 -->
<g id="edge5" class="edge"><title>Node2&#45;&gt;Node6</title>
<path fill="none" stroke="midnightblue" d="M1153.76,-380C1166.25,-380 1179.24,-380 1191.59,-380"/>
<polygon fill="midnightblue" stroke="midnightblue" points="1191.78,-383.5 1201.78,-380 1191.78,-376.5 1191.78,-383.5"/>
</g>
<!-- Node7&#45;&gt;Node8 -->
<g id="edge7" class="edge"><title>Node7&#45;&gt;Node8</title>
<path fill="none" stroke="midnightblue" d="M747.313,-418C770.37,-418 799.318,-418 825.597,-418"/>
<polygon fill="midnightblue" stroke="midnightblue" points="825.902,-421.5 835.901,-418 825.901,-414.5 825.902,-421.5"/>
</g>
<!-- Node9 -->
<g id="node9" class="node"><title>Node9</title>
<g id="a_node9"><a xlink:href="../../da/de2/class_sticky_box.html#a5d95d2ed2e13f0d87a44311db77f9e36" target="_top" xlink:title="StickyBox.setPreviousDirection">
<polygon fill="white" stroke="black" points="816,-370.5 816,-389.5 980,-389.5 980,-370.5 816,-370.5"/>
<text text-anchor="middle" x="898" y="-377.5" font-family="Helvetica,sans-Serif" font-size="10.00">StickyBox.setPreviousDirection</text>
</a>
</g>
</g>
<!-- Node7&#45;&gt;Node9 -->
<g id="edge8" class="edge"><title>Node7&#45;&gt;Node9</title>
<path fill="none" stroke="midnightblue" d="M747.313,-409.472C774.255,-404.167 809.241,-397.279 838.613,-391.496"/>
<polygon fill="midnightblue" stroke="midnightblue" points="839.611,-394.867 848.746,-389.501 838.258,-387.999 839.611,-394.867"/>
</g>
<!-- Node11 -->
<g id="node11" class="node"><title>Node11</title>
<g id="a_node11"><a xlink:href="../../d6/d4f/class_item_box_world.html#aa559fc2680327b41fb376e2eda8e82e3" target="_top" xlink:title="ItemBoxWorld.init">
<polygon fill="white" stroke="black" points="312.5,-237.5 312.5,-256.5 411.5,-256.5 411.5,-237.5 312.5,-237.5"/>
<text text-anchor="middle" x="362" y="-244.5" font-family="Helvetica,sans-Serif" font-size="10.00">ItemBoxWorld.init</text>
</a>
</g>
</g>
<!-- Node10&#45;&gt;Node11 -->
<g id="edge11" class="edge"><title>Node10&#45;&gt;Node11</title>
<path fill="none" stroke="midnightblue" d="M275.641,-247C284.218,-247 293.189,-247 301.958,-247"/>
<polygon fill="midnightblue" stroke="midnightblue" points="302.123,-250.5 312.123,-247 302.123,-243.5 302.123,-250.5"/>
</g>
<!-- Node12 -->
<g id="node12" class="node"><title>Node12</title>
<g id="a_node12"><a xlink:href="../../db/d97/class_box_world.html#a69798621c944e846f045aaf3937505f9" target="_top" xlink:title="BoxWorld.addStarterObjects">
<polygon fill="white" stroke="black" points="1594.5,-227.5 1594.5,-246.5 1745.5,-246.5 1745.5,-227.5 1594.5,-227.5"/>
<text text-anchor="middle" x="1670" y="-234.5" font-family="Helvetica,sans-Serif" font-size="10.00">BoxWorld.addStarterObjects</text>
</a>
</g>
</g>
<!-- Node11&#45;&gt;Node12 -->
<g id="edge12" class="edge"><title>Node11&#45;&gt;Node12</title>
<path fill="none" stroke="midnightblue" d="M381.477,-256.555C398.414,-264.998 424.375,-277.156 448,-285 557.802,-321.458 586.304,-342 702,-342 702,-342 702,-342 1389,-342 1490.27,-342 1599.78,-281.039 1646.17,-252.016"/>
<polygon fill="midnightblue" stroke="midnightblue" points="1648.28,-254.824 1654.84,-246.503 1644.52,-248.917 1648.28,-254.824"/>
</g>
<!-- Node14 -->
<g id="node14" class="node"><title>Node14</title>
<g id="a_node14"><a xlink:href="../../d6/d4f/class_item_box_world.html#a7ead15fd9fd8095f928640161d48fdf8" target="_top" xlink:title="ItemBoxWorld.addAllItems">
<polygon fill="white" stroke="black" points="448.5,-256.5 448.5,-275.5 589.5,-275.5 589.5,-256.5 448.5,-256.5"/>
<text text-anchor="middle" x="519" y="-263.5" font-family="Helvetica,sans-Serif" font-size="10.00">ItemBoxWorld.addAllItems</text>
</a>
</g>
</g>
<!-- Node11&#45;&gt;Node14 -->
<g id="edge14" class="edge"><title>Node11&#45;&gt;Node14</title>
<path fill="none" stroke="midnightblue" d="M411.618,-252.96C420.068,-253.995 429.053,-255.097 438.081,-256.204"/>
<polygon fill="midnightblue" stroke="midnightblue" points="437.916,-259.709 448.268,-257.452 438.768,-252.761 437.916,-259.709"/>
</g>
<!-- Node17 -->
<g id="node17" class="node"><title>Node17</title>
<g id="a_node17"><a xlink:href="../../db/d97/class_box_world.html#ad20a4e43406c44f4bbf201d1d1028998" target="_top" xlink:title="BoxWorld.start">
<polygon fill="white" stroke="black" points="476,-218.5 476,-237.5 562,-237.5 562,-218.5 476,-218.5"/>
<text text-anchor="middle" x="519" y="-225.5" font-family="Helvetica,sans-Serif" font-size="10.00">BoxWorld.start</text>
</a>
</g>
</g>
<!-- Node11&#45;&gt;Node17 -->
<g id="edge17" class="edge"><title>Node11&#45;&gt;Node17</title>
<path fill="none" stroke="midnightblue" d="M411.618,-241.04C428.836,-238.93 448.274,-236.547 465.779,-234.401"/>
<polygon fill="midnightblue" stroke="midnightblue" points="466.331,-237.86 475.831,-233.169 465.48,-230.912 466.331,-237.86"/>
</g>
<!-- Node26 -->
<g id="node26" class="node"><title>Node26</title>
<g id="a_node26"><a xlink:href="../../db/d97/class_box_world.html#a726e747e023543658d7a345cc6466ccb" target="_top" xlink:title="BoxWorld.createScene">
<polygon fill="white" stroke="black" points="1608,-66.5 1608,-85.5 1732,-85.5 1732,-66.5 1608,-66.5"/>
<text text-anchor="middle" x="1670" y="-73.5" font-family="Helvetica,sans-Serif" font-size="10.00">BoxWorld.createScene</text>
</a>
</g>
</g>
<!-- Node11&#45;&gt;Node26 -->
<g id="edge41" class="edge"><title>Node11&#45;&gt;Node26</title>
<path fill="none" stroke="midnightblue" d="M400.886,-237.46C404.7,-236.12 408.467,-234.634 412,-233 429.454,-224.929 431.459,-218.807 448,-209 557.611,-144.012 574.571,-76 702,-76 702,-76 702,-76 1389,-76 1459.93,-76 1540.97,-76 1597.55,-76"/>
<polygon fill="midnightblue" stroke="midnightblue" points="1597.82,-79.5001 1607.82,-76 1597.82,-72.5001 1597.82,-79.5001"/>
</g>
<!-- Node13 -->
<g id="node13" class="node"><title>Node13</title>
<g id="a_node13"><a xlink:href="../../db/d97/class_box_world.html#a2542cc74ebeba6a9768a443a55186901" target="_top" xlink:title="BoxWorld.createObstacleArray">
<polygon fill="white" stroke="black" points="1782.5,-227.5 1782.5,-246.5 1943.5,-246.5 1943.5,-227.5 1782.5,-227.5"/>
<text text-anchor="middle" x="1863" y="-234.5" font-family="Helvetica,sans-Serif" font-size="10.00">BoxWorld.createObstacleArray</text>
</a>
</g>
</g>
<!-- Node12&#45;&gt;Node13 -->
<g id="edge13" class="edge"><title>Node12&#45;&gt;Node13</title>
<path fill="none" stroke="midnightblue" d="M1745.67,-237C1754.41,-237 1763.4,-237 1772.31,-237"/>
<polygon fill="midnightblue" stroke="midnightblue" points="1772.34,-240.5 1782.34,-237 1772.34,-233.5 1772.34,-240.5"/>
</g>
<!-- Node15 -->
<g id="node15" class="node"><title>Node15</title>
<g id="a_node15"><a xlink:href="../../d6/d4f/class_item_box_world.html#a1890e6c53a4a73e44e9528009fde508d" target="_top" xlink:title="ItemBoxWorld.itemExists">
<polygon fill="white" stroke="black" points="636,-294.5 636,-313.5 770,-313.5 770,-294.5 636,-294.5"/>
<text text-anchor="middle" x="703" y="-301.5" font-family="Helvetica,sans-Serif" font-size="10.00">ItemBoxWorld.itemExists</text>
</a>
</g>
</g>
<!-- Node14&#45;&gt;Node15 -->
<g id="edge15" class="edge"><title>Node14&#45;&gt;Node15</title>
<path fill="none" stroke="midnightblue" d="M565.926,-275.589C590.376,-280.694 620.633,-287.011 646.403,-292.392"/>
<polygon fill="midnightblue" stroke="midnightblue" points="645.9,-295.862 656.404,-294.48 647.33,-289.01 645.9,-295.862"/>
</g>
<!-- Node16 -->
<g id="node16" class="node"><title>Node16</title>
<g id="a_node16"><a xlink:href="../../d6/d4f/class_item_box_world.html#af1bcde0672796e926560684004ed8e81" target="_top" xlink:title="ItemBoxWorld.addSingleItem">
<polygon fill="white" stroke="black" points="626,-256.5 626,-275.5 780,-275.5 780,-256.5 626,-256.5"/>
<text text-anchor="middle" x="703" y="-263.5" font-family="Helvetica,sans-Serif" font-size="10.00">ItemBoxWorld.addSingleItem</text>
</a>
</g>
</g>
<!-- Node14&#45;&gt;Node16 -->
<g id="edge16" class="edge"><title>Node14&#45;&gt;Node16</title>
<path fill="none" stroke="midnightblue" d="M589.585,-266C598.096,-266 606.872,-266 615.592,-266"/>
<polygon fill="midnightblue" stroke="midnightblue" points="615.783,-269.5 625.783,-266 615.783,-262.5 615.783,-269.5"/>
</g>
<!-- Node18 -->
<g id="node18" class="node"><title>Node18</title>
<g id="a_node18"><a xlink:href="../../db/d97/class_box_world.html#a6794c083c2a0263c2f585f4ae4b7e39c" target="_top" xlink:title="BoxWorld.updateSprites">
<polygon fill="white" stroke="black" points="637.5,-218.5 637.5,-237.5 768.5,-237.5 768.5,-218.5 637.5,-218.5"/>
<text text-anchor="middle" x="703" y="-225.5" font-family="Helvetica,sans-Serif" font-size="10.00">BoxWorld.updateSprites</text>
</a>
</g>
</g>
<!-- Node17&#45;&gt;Node18 -->
<g id="edge18" class="edge"><title>Node17&#45;&gt;Node18</title>
<path fill="none" stroke="midnightblue" d="M562.212,-228C581.517,-228 604.982,-228 627.129,-228"/>
<polygon fill="midnightblue" stroke="midnightblue" points="627.193,-231.5 637.193,-228 627.193,-224.5 627.193,-231.5"/>
</g>
<!-- Node18&#45;&gt;Node3 -->
<g id="edge37" class="edge"><title>Node18&#45;&gt;Node3</title>
<path fill="none" stroke="midnightblue" d="M750.887,-237.509C760.673,-240.104 770.804,-243.257 780,-247 797.157,-253.983 798.331,-262.439 816,-268 939.315,-306.815 1091.21,-310.065 1180.16,-307.795"/>
<polygon fill="midnightblue" stroke="midnightblue" points="1180.53,-311.286 1190.42,-307.501 1180.32,-304.289 1180.53,-311.286"/>
</g>
<!-- Node18&#45;&gt;Node5 -->
<g id="edge38" class="edge"><title>Node18&#45;&gt;Node5</title>
<path fill="none" stroke="midnightblue" d="M752.055,-237.506C771.791,-241.056 794.917,-244.764 816,-247 943.701,-260.542 1093.28,-264.49 1180.74,-265.606"/>
<polygon fill="midnightblue" stroke="midnightblue" points="1180.79,-269.107 1190.84,-265.725 1180.88,-262.107 1180.79,-269.107"/>
</g>
<!-- Node18&#45;&gt;Node8 -->
<g id="edge39" class="edge"><title>Node18&#45;&gt;Node8</title>
<path fill="none" stroke="midnightblue" d="M767.211,-237.677C771.917,-240.161 776.273,-243.226 780,-247 828.785,-296.394 766.857,-349.962 816,-399 819.106,-402.099 822.615,-404.73 826.388,-406.961"/>
<polygon fill="midnightblue" stroke="midnightblue" points="825.084,-410.219 835.605,-411.47 828.16,-403.932 825.084,-410.219"/>
</g>
<!-- Node18&#45;&gt;Node9 -->
<g id="edge36" class="edge"><title>Node18&#45;&gt;Node9</title>
<path fill="none" stroke="midnightblue" d="M763.646,-237.505C769.522,-239.986 775.109,-243.099 780,-247 807.66,-269.061 793.387,-290.789 816,-318 831.807,-337.021 854.474,-353.741 871.811,-365.009"/>
<polygon fill="midnightblue" stroke="midnightblue" points="870.004,-368.007 880.328,-370.388 873.742,-362.088 870.004,-368.007"/>
</g>
<!-- Node19 -->
<g id="node19" class="node"><title>Node19</title>
<g id="a_node19"><a xlink:href="../../db/d97/class_box_world.html#a4079bed8937c9f621decfbe1309e31e2" target="_top" xlink:title="BoxWorld.checkAllCollisions">
<polygon fill="white" stroke="black" points="825,-142.5 825,-161.5 971,-161.5 971,-142.5 825,-142.5"/>
<text text-anchor="middle" x="898" y="-149.5" font-family="Helvetica,sans-Serif" font-size="10.00">BoxWorld.checkAllCollisions</text>
</a>
</g>
</g>
<!-- Node18&#45;&gt;Node19 -->
<g id="edge19" class="edge"><title>Node18&#45;&gt;Node19</title>
<path fill="none" stroke="midnightblue" d="M719.773,-218.43C740.971,-205.934 780.141,-184.113 816,-171 822.98,-168.448 830.426,-166.154 837.869,-164.117"/>
<polygon fill="midnightblue" stroke="midnightblue" points="838.813,-167.488 847.613,-161.589 837.054,-160.713 838.813,-167.488"/>
</g>
<!-- Node29 -->
<g id="node29" class="node"><title>Node29</title>
<g id="a_node29"><a xlink:href="../../da/de2/class_sticky_box.html#a59337f0aa3c7379a2cb9c76bdc621daf" target="_top" xlink:title="StickyBox.setStuck">
<polygon fill="white" stroke="black" points="844,-218.5 844,-237.5 952,-237.5 952,-218.5 844,-218.5"/>
<text text-anchor="middle" x="898" y="-225.5" font-family="Helvetica,sans-Serif" font-size="10.00">StickyBox.setStuck</text>
</a>
</g>
</g>
<!-- Node18&#45;&gt;Node29 -->
<g id="edge35" class="edge"><title>Node18&#45;&gt;Node29</title>
<path fill="none" stroke="midnightblue" d="M768.535,-228C789.535,-228 812.813,-228 833.72,-228"/>
<polygon fill="midnightblue" stroke="midnightblue" points="833.774,-231.5 843.773,-228 833.773,-224.5 833.774,-231.5"/>
</g>
<!-- Node30 -->
<g id="node30" class="node"><title>Node30</title>
<g id="a_node30"><a xlink:href="../../da/de2/class_sticky_box.html#a185ee469367b376e6c5969a03d089d57" target="_top" xlink:title="StickyBox.move">
<polygon fill="white" stroke="black" points="851.5,-180.5 851.5,-199.5 944.5,-199.5 944.5,-180.5 851.5,-180.5"/>
<text text-anchor="middle" x="898" y="-187.5" font-family="Helvetica,sans-Serif" font-size="10.00">StickyBox.move</text>
</a>
</g>
</g>
<!-- Node18&#45;&gt;Node30 -->
<g id="edge40" class="edge"><title>Node18&#45;&gt;Node30</title>
<path fill="none" stroke="midnightblue" d="M752.702,-218.411C779.654,-213.104 813.262,-206.487 841.261,-200.975"/>
<polygon fill="midnightblue" stroke="midnightblue" points="842.164,-204.364 851.3,-198.998 840.812,-197.496 842.164,-204.364"/>
</g>
<!-- Node19&#45;&gt;Node10 -->
<g id="edge34" class="edge"><title>Node19&#45;&gt;Node10</title>
<path fill="none" stroke="midnightblue" d="M824.612,-159.157C713.757,-170.622 495.488,-195.196 312,-228 300.11,-230.126 287.375,-232.723 275.417,-235.307"/>
<polygon fill="midnightblue" stroke="midnightblue" points="274.609,-231.901 265.592,-237.464 276.11,-238.739 274.609,-231.901"/>
</g>
<!-- Node20 -->
<g id="node20" class="node"><title>Node20</title>
<g id="a_node20"><a xlink:href="../../db/d97/class_box_world.html#a55add11037cd6dc48556f2f42a9e11be" target="_top" xlink:title="BoxWorld.checkCollide">
<polygon fill="white" stroke="black" points="1024,-218.5 1024,-237.5 1146,-237.5 1146,-218.5 1024,-218.5"/>
<text text-anchor="middle" x="1085" y="-225.5" font-family="Helvetica,sans-Serif" font-size="10.00">BoxWorld.checkCollide</text>
</a>
</g>
</g>
<!-- Node19&#45;&gt;Node20 -->
<g id="edge20" class="edge"><title>Node19&#45;&gt;Node20</title>
<path fill="none" stroke="midnightblue" d="M958.075,-161.564C965.722,-164.023 973.237,-167.115 980,-171 1000.17,-182.588 996.075,-196.99 1016,-209 1019.6,-211.171 1023.46,-213.102 1027.44,-214.817"/>
<polygon fill="midnightblue" stroke="midnightblue" points="1026.3,-218.128 1036.89,-218.441 1028.81,-211.592 1026.3,-218.128"/>
</g>
<!-- Node21 -->
<g id="node21" class="node"><title>Node21</title>
<g id="a_node21"><a xlink:href="../../db/d97/class_box_world.html#a72bacb2a6757900d8835249929fcc838" target="_top" xlink:title="BoxWorld.loseGame">
<polygon fill="white" stroke="black" points="1029,-180.5 1029,-199.5 1141,-199.5 1141,-180.5 1029,-180.5"/>
<text text-anchor="middle" x="1085" y="-187.5" font-family="Helvetica,sans-Serif" font-size="10.00">BoxWorld.loseGame</text>
</a>
</g>
</g>
<!-- Node19&#45;&gt;Node21 -->
<g id="edge23" class="edge"><title>Node19&#45;&gt;Node21</title>
<path fill="none" stroke="midnightblue" d="M945.683,-161.589C970.646,-166.716 1001.56,-173.067 1027.83,-178.463"/>
<polygon fill="midnightblue" stroke="midnightblue" points="1027.15,-181.896 1037.65,-180.48 1028.56,-175.039 1027.15,-181.896"/>
</g>
<!-- Node28 -->
<g id="node28" class="node"><title>Node28</title>
<g id="a_node28"><a xlink:href="../../db/d97/class_box_world.html#ae6ffad41f7ba6122234157c72afe8f9c" target="_top" xlink:title="BoxWorld.onScreen">
<polygon fill="white" stroke="black" points="1030.5,-142.5 1030.5,-161.5 1139.5,-161.5 1139.5,-142.5 1030.5,-142.5"/>
<text text-anchor="middle" x="1085" y="-149.5" font-family="Helvetica,sans-Serif" font-size="10.00">BoxWorld.onScreen</text>
</a>
</g>
</g>
<!-- Node19&#45;&gt;Node28 -->
<g id="edge33" class="edge"><title>Node19&#45;&gt;Node28</title>
<path fill="none" stroke="midnightblue" d="M971.056,-152C987.284,-152 1004.4,-152 1020.26,-152"/>
<polygon fill="midnightblue" stroke="midnightblue" points="1020.48,-155.5 1030.48,-152 1020.48,-148.5 1020.48,-155.5"/>
</g>
<!-- Node20&#45;&gt;Node3 -->
<g id="edge21" class="edge"><title>Node20&#45;&gt;Node3</title>
<path fill="none" stroke="midnightblue" d="M1100.99,-237.576C1120.75,-249.881 1156.9,-271.284 1190,-285 1195.5,-287.278 1201.36,-289.398 1207.23,-291.333"/>
<polygon fill="midnightblue" stroke="midnightblue" points="1206.47,-294.761 1217.05,-294.411 1208.56,-288.081 1206.47,-294.761"/>
</g>
<!-- Node20&#45;&gt;Node5 -->
<g id="edge22" class="edge"><title>Node20&#45;&gt;Node5</title>
<path fill="none" stroke="midnightblue" d="M1128.65,-237.589C1151.15,-242.649 1178.95,-248.9 1202.74,-254.249"/>
<polygon fill="midnightblue" stroke="midnightblue" points="1202.14,-257.701 1212.66,-256.48 1203.67,-250.871 1202.14,-257.701"/>
</g>
<!-- Node22 -->
<g id="node22" class="node"><title>Node22</title>
<g id="a_node22"><a xlink:href="../../d4/d2f/class_lose_screen.html#a34f2cc2c803500316c9b8d854854d758" target="_top" xlink:title="LoseScreen.init">
<polygon fill="white" stroke="black" points="1211,-175.5 1211,-194.5 1301,-194.5 1301,-175.5 1211,-175.5"/>
<text text-anchor="middle" x="1256" y="-182.5" font-family="Helvetica,sans-Serif" font-size="10.00">LoseScreen.init</text>
</a>
</g>
</g>
<!-- Node21&#45;&gt;Node22 -->
<g id="edge24" class="edge"><title>Node21&#45;&gt;Node22</title>
<path fill="none" stroke="midnightblue" d="M1141.34,-188.363C1160.34,-187.8 1181.59,-187.172 1200.53,-186.612"/>
<polygon fill="midnightblue" stroke="midnightblue" points="1200.89,-190.102 1210.78,-186.308 1200.68,-183.106 1200.89,-190.102"/>
</g>
<!-- Node23 -->
<g id="node23" class="node"><title>Node23</title>
<g id="a_node23"><a xlink:href="../../d2/db8/class_menu.html#a3c99ad09e9f2f975c1a0d0597642651a" target="_top" xlink:title="Menu.init">
<polygon fill="white" stroke="black" points="1358,-156.5 1358,-175.5 1418,-175.5 1418,-156.5 1358,-156.5"/>
<text text-anchor="middle" x="1388" y="-163.5" font-family="Helvetica,sans-Serif" font-size="10.00">Menu.init</text>
</a>
</g>
</g>
<!-- Node22&#45;&gt;Node23 -->
<g id="edge25" class="edge"><title>Node22&#45;&gt;Node23</title>
<path fill="none" stroke="midnightblue" d="M1301.01,-178.567C1316.07,-176.367 1332.81,-173.921 1347.48,-171.775"/>
<polygon fill="midnightblue" stroke="midnightblue" points="1348.37,-175.184 1357.75,-170.274 1347.35,-168.257 1348.37,-175.184"/>
</g>
<!-- Node24 -->
<g id="node24" class="node"><title>Node24</title>
<g id="a_node24"><a xlink:href="../../d2/db8/class_menu.html#a8a6e6125f0dc2dc7e19c6655ba6376a2" target="_top" xlink:title="Menu.addIntroText">
<polygon fill="white" stroke="black" points="1454,-156.5 1454,-175.5 1558,-175.5 1558,-156.5 1454,-156.5"/>
<text text-anchor="middle" x="1506" y="-163.5" font-family="Helvetica,sans-Serif" font-size="10.00">Menu.addIntroText</text>
</a>
</g>
</g>
<!-- Node23&#45;&gt;Node24 -->
<g id="edge26" class="edge"><title>Node23&#45;&gt;Node24</title>
<path fill="none" stroke="midnightblue" d="M1418.27,-166C1425.99,-166 1434.62,-166 1443.35,-166"/>
<polygon fill="midnightblue" stroke="midnightblue" points="1443.61,-169.5 1453.61,-166 1443.61,-162.5 1443.61,-169.5"/>
</g>
<!-- Node25 -->
<g id="node25" class="node"><title>Node25</title>
<g id="a_node25"><a xlink:href="../../db/d97/class_box_world.html#a55bf92d3f466bfaade0f6d199d8c9bd9" target="_top" xlink:title="BoxWorld.init">
<polygon fill="white" stroke="black" points="1467.5,-113.5 1467.5,-132.5 1544.5,-132.5 1544.5,-113.5 1467.5,-113.5"/>
<text text-anchor="middle" x="1506" y="-120.5" font-family="Helvetica,sans-Serif" font-size="10.00">BoxWorld.init</text>
</a>
</g>
</g>
<!-- Node23&#45;&gt;Node25 -->
<g id="edge27" class="edge"><title>Node23&#45;&gt;Node25</title>
<path fill="none" stroke="midnightblue" d="M1414.74,-156.457C1430.96,-150.444 1452.12,-142.603 1469.87,-136.023"/>
<polygon fill="midnightblue" stroke="midnightblue" points="1471.17,-139.274 1479.33,-132.516 1468.73,-132.71 1471.17,-139.274"/>
</g>
<!-- Node25&#45;&gt;Node12 -->
<g id="edge28" class="edge"><title>Node25&#45;&gt;Node12</title>
<path fill="none" stroke="midnightblue" d="M1530.47,-132.613C1539.35,-136.614 1549.38,-141.589 1558,-147 1593.43,-169.241 1630.34,-201.229 1651.41,-220.474"/>
<polygon fill="midnightblue" stroke="midnightblue" points="1649.21,-223.2 1658.93,-227.413 1653.96,-218.057 1649.21,-223.2"/>
</g>
<!-- Node25&#45;&gt;Node17 -->
<g id="edge29" class="edge"><title>Node25&#45;&gt;Node17</title>
<path fill="none" stroke="midnightblue" d="M1467.2,-120.775C1418.59,-118.11 1331.54,-114 1257,-114 897,-114 897,-114 897,-114 760.373,-114 607.357,-183.448 546.768,-213.935"/>
<polygon fill="midnightblue" stroke="midnightblue" points="545.175,-210.818 537.854,-218.477 548.353,-217.055 545.175,-210.818"/>
</g>
<!-- Node25&#45;&gt;Node26 -->
<g id="edge30" class="edge"><title>Node25&#45;&gt;Node26</title>
<path fill="none" stroke="midnightblue" d="M1539.78,-113.489C1564.73,-106.25 1599.28,-96.2277 1626.37,-88.3667"/>
<polygon fill="midnightblue" stroke="midnightblue" points="1627.36,-91.7254 1635.99,-85.5776 1625.41,-85.0026 1627.36,-91.7254"/>
</g>
<!-- Node26&#45;&gt;Node1 -->
<g id="edge31" class="edge"><title>Node26&#45;&gt;Node1</title>
<path fill="none" stroke="midnightblue" d="M1648.45,-66.3745C1602.83,-45.924 1489.24,-0 1389,-0 361,-0 361,-0 361,-0 177.42,-0 93.3757,-282.296 73.6647,-360.262"/>
<polygon fill="midnightblue" stroke="midnightblue" points="70.204,-359.679 71.2191,-370.225 77.0022,-361.348 70.204,-359.679"/>
</g>
<!-- Node27 -->
<g id="node27" class="node"><title>Node27</title>
<g id="a_node27"><a xlink:href="../../db/d97/class_box_world.html#a2d44485a181577acb4d79b6b81f26fff" target="_top" xlink:title="BoxWorld.handleKeyRelease">
<polygon fill="white" stroke="black" points="1788.5,-66.5 1788.5,-85.5 1937.5,-85.5 1937.5,-66.5 1788.5,-66.5"/>
<text text-anchor="middle" x="1863" y="-73.5" font-family="Helvetica,sans-Serif" font-size="10.00">BoxWorld.handleKeyRelease</text>
</a>
</g>
</g>
<!-- Node26&#45;&gt;Node27 -->
<g id="edge32" class="edge"><title>Node26&#45;&gt;Node27</title>
<path fill="none" stroke="midnightblue" d="M1732.22,-76C1746.9,-76 1762.83,-76 1778.33,-76"/>
<polygon fill="midnightblue" stroke="midnightblue" points="1778.44,-79.5001 1788.44,-76 1778.44,-72.5001 1778.44,-79.5001"/>
</g>
</g>
</svg>
        <g id="navigator" transform="translate(0 0)" fill="#404254">
                <rect fill="#f2f5e9" fill-opacity="0.5" stroke="#606060" stroke-width=".5" x="0" y="0" width="60" height="60"/>
                <use id="zoomplus" xlink:href="#zoomPlus" x="17" y="9" onmousedown="handleZoom(evt,'in')"/>
                <use id="zoomminus" xlink:href="#zoomMin" x="42" y="9" onmousedown="handleZoom(evt,'out')"/>
                <use id="reset" xlink:href="#resetDef" x="30" y="36" onmousedown="handleReset()"/>
                <g id="arrowUp" xlink:href="#dirArrow" transform="translate(30 24)" onmousedown="handlePan(0,-1)">
                  <use xlink:href="#rim" fill="#404040">
                        <set attributeName="fill" to="#808080" begin="arrowUp.mouseover" end="arrowUp.mouseout"/>
                  </use>
                  <path fill="none" stroke="white" stroke-width="1.5" d="M0,-3.0v7 M-2.5,-0.5L0,-3.0L2.5,-0.5"/>
                </g>
                <g id="arrowRight" xlink:href="#dirArrow" transform="rotate(90) translate(36 -43)" onmousedown="handlePan(1,0)">
                  <use xlink:href="#rim" fill="#404040">
                        <set attributeName="fill" to="#808080" begin="arrowRight.mouseover" end="arrowRight.mouseout"/>
                  </use>
                  <path fill="none" stroke="white" stroke-width="1.5" d="M0,-3.0v7 M-2.5,-0.5L0,-3.0L2.5,-0.5"/>
                </g>
                <g id="arrowDown" xlink:href="#dirArrow" transform="rotate(180) translate(-30 -48)" onmousedown="handlePan(0,1)">
                  <use xlink:href="#rim" fill="#404040">
                        <set attributeName="fill" to="#808080" begin="arrowDown.mouseover" end="arrowDown.mouseout"/>
                  </use>
                  <path fill="none" stroke="white" stroke-width="1.5" d="M0,-3.0v7 M-2.5,-0.5L0,-3.0L2.5,-0.5"/>
                </g>
                <g id="arrowLeft" xlink:href="#dirArrow" transform="rotate(270) translate(-36 17)" onmousedown="handlePan(-1,0)">
                  <use xlink:href="#rim" fill="#404040">
                        <set attributeName="fill" to="#808080" begin="arrowLeft.mouseover" end="arrowLeft.mouseout"/>
                  </use>
                  <path fill="none" stroke="white" stroke-width="1.5" d="M0,-3.0v7 M-2.5,-0.5L0,-3.0L2.5,-0.5"/>
                </g>
        </g>
        <svg viewBox="0 0 15 15" width="100%" height="30px" preserveAspectRatio="xMaxYMin meet">
         <g id="arrow_out" transform="scale(0.3 0.3)">
          <a xlink:href="class_box_world_aa7e2049d7be23e15fd2ec7fa2922ed79_cgraph_org.svg" target="_base">
           <rect id="button" ry="5" rx="5" y="6" x="6" height="38" width="38"
                fill="#f2f5e9" fill-opacity="0.5" stroke="#606060" stroke-width="1.0"/>
           <path id="arrow"
             d="M 11.500037,31.436501 C 11.940474,20.09759 22.043105,11.32322 32.158766,21.979434 L 37.068811,17.246167 C 37.068811,17.246167 37.088388,32 37.088388,32 L 22.160133,31.978069 C 22.160133,31.978069 26.997745,27.140456 26.997745,27.140456 C 18.528582,18.264221 13.291696,25.230495 11.500037,31.436501 z"
             style="fill:#404040;"/>
          </a>
         </g>
        </svg>
</svg>
