<?xml version="1.0" encoding="UTF-8" standalone="no"?>
<!DOCTYPE svg PUBLIC "-//W3C//DTD SVG 1.1//EN"
 "http://www.w3.org/Graphics/SVG/1.1/DTD/svg11.dtd">
<!-- Generated by graphviz version 2.36.0 (20140111.2315)
 -->
<!-- Title: BoxWorld.createObstacleArray Pages: 1 -->
<!--zoomable 170 -->
<svg id="main" version="1.1" xmlns="http://www.w3.org/2000/svg" xmlns:xlink="http://www.w3.org/1999/xlink" xml:space="preserve" onload="init(evt)">
<style type="text/css"><![CDATA[
.edge:hover path { stroke: red; }
.edge:hover polygon { stroke: red; fill: red; }
]]></style>
<script type="text/javascript"><![CDATA[
var edges = document.getElementsByTagName('g');
if (edges && edges.length) {
  for (var i=0;i<edges.length;i++) {
    if (edges[i].id.substr(0,4)=='edge') {
      edges[i].setAttribute('class','edge');
    }
  }
}
]]></script>
        <defs>
                <circle id="rim" cx="0" cy="0" r="7"/>
                <circle id="rim2" cx="0" cy="0" r="3.5"/>
                <g id="zoomPlus">
                        <use xlink:href="#rim" fill="#404040">
                                <set attributeName="fill" to="#808080" begin="zoomplus.mouseover" end="zoomplus.mouseout"/>
                        </use>
                        <path d="M-4,0h8M0,-4v8" fill="none" stroke="white" stroke-width="1.5" pointer-events="none"/>
                </g>
                <g id="zoomMin">
                        <use xlink:href="#rim" fill="#404040">
                                <set attributeName="fill" to="#808080" begin="zoomminus.mouseover" end="zoomminus.mouseout"/>
                        </use>
                        <path d="M-4,0h8" fill="none" stroke="white" stroke-width="1.5" pointer-events="none"/>
                </g>
                <g id="dirArrow">
                        <path fill="none" stroke="white" stroke-width="1.5" d="M0,-3.0v7 M-2.5,-0.5L0,-3.0L2.5,-0.5"/>
                </g>
               <g id="resetDef">
                       <use xlink:href="#rim2" fill="#404040">
                               <set attributeName="fill" to="#808080" begin="reset.mouseover" end="reset.mouseout"/>
                       </use>
               </g>
        </defs>

<script type="text/javascript">
var viewWidth = 1612;
var viewHeight = 170;
var sectionId = 'dynsection-10';
</script>
<script xlink:href="../../svgpan.js"/>
<svg id="graph" class="graph">
<g id="viewport">
<title>BoxWorld.createObstacleArray</title>
<polygon fill="white" stroke="none" points="-4,4 -4,-166 1608,-166 1608,4 -4,4"/>
<!-- Node1 -->
<g id="node1" class="node"><title>Node1</title>
<polygon fill="#bfbfbf" stroke="black" points="0.5,-133.5 0.5,-152.5 161.5,-152.5 161.5,-133.5 0.5,-133.5"/>
<text text-anchor="middle" x="81" y="-140.5" font-family="Helvetica,sans-Serif" font-size="10.00">BoxWorld.createObstacleArray</text>
</g>
<!-- Node2 -->
<g id="node2" class="node"><title>Node2</title>
<g id="a_node2"><a xlink:href="../../db/d97/class_box_world.html#a69798621c944e846f045aaf3937505f9" target="_top" xlink:title="BoxWorld.addStarterObjects">
<polygon fill="white" stroke="black" points="198.5,-133.5 198.5,-152.5 349.5,-152.5 349.5,-133.5 198.5,-133.5"/>
<text text-anchor="middle" x="274" y="-140.5" font-family="Helvetica,sans-Serif" font-size="10.00">BoxWorld.addStarterObjects</text>
</a>
</g>
</g>
<!-- Node1&#45;&gt;Node2 -->
<g id="edge1" class="edge"><title>Node1&#45;&gt;Node2</title>
<path fill="none" stroke="midnightblue" d="M171.673,-143C180.619,-143 189.634,-143 198.402,-143"/>
<polygon fill="midnightblue" stroke="midnightblue" points="171.618,-139.5 161.618,-143 171.618,-146.5 171.618,-139.5"/>
</g>
<!-- Node3 -->
<g id="node3" class="node"><title>Node3</title>
<g id="a_node3"><a xlink:href="../../d6/d4f/class_item_box_world.html#aa559fc2680327b41fb376e2eda8e82e3" target="_top" xlink:title="ItemBoxWorld.init">
<polygon fill="white" stroke="black" points="386.5,-95.5 386.5,-114.5 485.5,-114.5 485.5,-95.5 386.5,-95.5"/>
<text text-anchor="middle" x="436" y="-102.5" font-family="Helvetica,sans-Serif" font-size="10.00">ItemBoxWorld.init</text>
</a>
</g>
</g>
<!-- Node2&#45;&gt;Node3 -->
<g id="edge2" class="edge"><title>Node2&#45;&gt;Node3</title>
<path fill="none" stroke="midnightblue" d="M325.392,-131.032C347.813,-125.707 373.847,-119.524 394.916,-114.52"/>
<polygon fill="midnightblue" stroke="midnightblue" points="324.295,-127.695 315.375,-133.411 325.913,-134.505 324.295,-127.695"/>
</g>
<!-- Node8 -->
<g id="node8" class="node"><title>Node8</title>
<g id="a_node8"><a xlink:href="../../db/d97/class_box_world.html#a55bf92d3f466bfaade0f6d199d8c9bd9" target="_top" xlink:title="BoxWorld.init">
<polygon fill="white" stroke="black" points="1134.5,-111.5 1134.5,-130.5 1211.5,-130.5 1211.5,-111.5 1134.5,-111.5"/>
<text text-anchor="middle" x="1173" y="-118.5" font-family="Helvetica,sans-Serif" font-size="10.00">BoxWorld.init</text>
</a>
</g>
</g>
<!-- Node2&#45;&gt;Node8 -->
<g id="edge21" class="edge"><title>Node2&#45;&gt;Node8</title>
<path fill="none" stroke="midnightblue" d="M359.736,-151.283C419.324,-156.402 500.961,-162 573,-162 573,-162 573,-162 911,-162 991.728,-162 1084.82,-142.621 1135.12,-130.509"/>
<polygon fill="midnightblue" stroke="midnightblue" points="359.888,-147.783 349.622,-150.4 359.279,-154.756 359.888,-147.783"/>
</g>
<!-- Node4 -->
<g id="node4" class="node"><title>Node4</title>
<g id="a_node4"><a xlink:href="../../db/d97/class_box_world.html#aad670712776afe126e51791097027e05" target="_top" xlink:title="BoxWorld.winLevel">
<polygon fill="white" stroke="black" points="522.5,-38.5 522.5,-57.5 625.5,-57.5 625.5,-38.5 522.5,-38.5"/>
<text text-anchor="middle" x="574" y="-45.5" font-family="Helvetica,sans-Serif" font-size="10.00">BoxWorld.winLevel</text>
</a>
</g>
</g>
<!-- Node3&#45;&gt;Node4 -->
<g id="edge3" class="edge"><title>Node3&#45;&gt;Node4</title>
<path fill="none" stroke="midnightblue" d="M469.161,-91.5207C494.074,-81.0792 527.973,-66.8715 550.162,-57.5716"/>
<polygon fill="midnightblue" stroke="midnightblue" points="467.633,-88.3661 459.763,-95.4595 470.339,-94.822 467.633,-88.3661"/>
</g>
<!-- Node5 -->
<g id="node5" class="node"><title>Node5</title>
<g id="a_node5"><a xlink:href="../../db/d97/class_box_world.html#a4079bed8937c9f621decfbe1309e31e2" target="_top" xlink:title="BoxWorld.checkAllCollisions">
<polygon fill="white" stroke="black" points="662,-0.5 662,-19.5 808,-19.5 808,-0.5 662,-0.5"/>
<text text-anchor="middle" x="735" y="-7.5" font-family="Helvetica,sans-Serif" font-size="10.00">BoxWorld.checkAllCollisions</text>
</a>
</g>
</g>
<!-- Node4&#45;&gt;Node5 -->
<g id="edge4" class="edge"><title>Node4&#45;&gt;Node5</title>
<path fill="none" stroke="midnightblue" d="M625.077,-36.032C647.358,-30.7069 673.229,-24.5238 694.166,-19.5201"/>
<polygon fill="midnightblue" stroke="midnightblue" points="624.035,-32.6823 615.122,-38.411 625.662,-39.4906 624.035,-32.6823"/>
</g>
<!-- Node16 -->
<g id="node16" class="node"><title>Node16</title>
<g id="a_node16"><a xlink:href="../../db/d97/class_box_world.html#aa7e2049d7be23e15fd2ec7fa2922ed79" target="_top" xlink:title="BoxWorld.handleKeyInput">
<polygon fill="white" stroke="black" points="667,-38.5 667,-57.5 803,-57.5 803,-38.5 667,-38.5"/>
<text text-anchor="middle" x="735" y="-45.5" font-family="Helvetica,sans-Serif" font-size="10.00">BoxWorld.handleKeyInput</text>
</a>
</g>
</g>
<!-- Node4&#45;&gt;Node16 -->
<g id="edge17" class="edge"><title>Node4&#45;&gt;Node16</title>
<path fill="none" stroke="midnightblue" d="M635.76,-48C645.946,-48 656.567,-48 666.901,-48"/>
<polygon fill="midnightblue" stroke="midnightblue" points="635.746,-44.5001 625.746,-48 635.746,-51.5001 635.746,-44.5001"/>
</g>
<!-- Node6 -->
<g id="node6" class="node"><title>Node6</title>
<g id="a_node6"><a xlink:href="../../db/d97/class_box_world.html#a6794c083c2a0263c2f585f4ae4b7e39c" target="_top" xlink:title="BoxWorld.updateSprites">
<polygon fill="white" stroke="black" points="844.5,-38.5 844.5,-57.5 975.5,-57.5 975.5,-38.5 844.5,-38.5"/>
<text text-anchor="middle" x="910" y="-45.5" font-family="Helvetica,sans-Serif" font-size="10.00">BoxWorld.updateSprites</text>
</a>
</g>
</g>
<!-- Node5&#45;&gt;Node6 -->
<g id="edge5" class="edge"><title>Node5&#45;&gt;Node6</title>
<path fill="none" stroke="midnightblue" d="M789.505,-21.7526C813.967,-27.1258 842.571,-33.4086 865.659,-38.4799"/>
<polygon fill="midnightblue" stroke="midnightblue" points="790.173,-18.316 779.655,-19.589 788.671,-25.153 790.173,-18.316"/>
</g>
<!-- Node7 -->
<g id="node7" class="node"><title>Node7</title>
<g id="a_node7"><a xlink:href="../../db/d97/class_box_world.html#ad20a4e43406c44f4bbf201d1d1028998" target="_top" xlink:title="BoxWorld.start">
<polygon fill="white" stroke="black" points="1012,-76.5 1012,-95.5 1098,-95.5 1098,-76.5 1012,-76.5"/>
<text text-anchor="middle" x="1055" y="-83.5" font-family="Helvetica,sans-Serif" font-size="10.00">BoxWorld.start</text>
</a>
</g>
</g>
<!-- Node6&#45;&gt;Node7 -->
<g id="edge6" class="edge"><title>Node6&#45;&gt;Node7</title>
<path fill="none" stroke="midnightblue" d="M956.813,-60.1742C976.587,-65.4287 999.384,-71.4866 1017.93,-76.4141"/>
<polygon fill="midnightblue" stroke="midnightblue" points="957.648,-56.7747 947.085,-57.589 955.851,-63.5399 957.648,-56.7747"/>
</g>
<!-- Node7&#45;&gt;Node3 -->
<g id="edge16" class="edge"><title>Node7&#45;&gt;Node3</title>
<path fill="none" stroke="midnightblue" d="M1001.45,-87.6183C883.624,-91.2466 599.752,-99.9882 485.673,-103.501"/>
<polygon fill="midnightblue" stroke="midnightblue" points="1001.77,-91.1103 1011.65,-87.304 1001.55,-84.1136 1001.77,-91.1103"/>
</g>
<!-- Node7&#45;&gt;Node8 -->
<g id="edge7" class="edge"><title>Node7&#45;&gt;Node8</title>
<path fill="none" stroke="midnightblue" d="M1097.64,-98.5641C1111.71,-102.809 1127.17,-107.475 1140.34,-111.448"/>
<polygon fill="midnightblue" stroke="midnightblue" points="1098.28,-95.1018 1087.7,-95.5639 1096.26,-101.803 1098.28,-95.1018"/>
</g>
<!-- Node9 -->
<g id="node9" class="node"><title>Node9</title>
<g id="a_node9"><a xlink:href="../../d2/db8/class_menu.html#a3c99ad09e9f2f975c1a0d0597642651a" target="_top" xlink:title="Menu.init">
<polygon fill="white" stroke="black" points="1248,-92.5 1248,-111.5 1308,-111.5 1308,-92.5 1248,-92.5"/>
<text text-anchor="middle" x="1278" y="-99.5" font-family="Helvetica,sans-Serif" font-size="10.00">Menu.init</text>
</a>
</g>
</g>
<!-- Node8&#45;&gt;Node9 -->
<g id="edge8" class="edge"><title>Node8&#45;&gt;Node9</title>
<path fill="none" stroke="midnightblue" d="M1221.75,-112.193C1230.69,-110.543 1239.79,-108.864 1247.95,-107.359"/>
<polygon fill="midnightblue" stroke="midnightblue" points="1220.97,-108.777 1211.77,-114.033 1222.24,-115.661 1220.97,-108.777"/>
</g>
<!-- Node10 -->
<g id="node10" class="node"><title>Node10</title>
<g id="a_node10"><a xlink:href="../../d1/de1/class_end_screen.html#a1264ffb72b3a3032443f9c4087222aef" target="_top" xlink:title="EndScreen.init">
<polygon fill="white" stroke="black" points="1346,-83.5 1346,-102.5 1432,-102.5 1432,-83.5 1346,-83.5"/>
<text text-anchor="middle" x="1389" y="-90.5" font-family="Helvetica,sans-Serif" font-size="10.00">EndScreen.init</text>
</a>
</g>
</g>
<!-- Node9&#45;&gt;Node10 -->
<g id="edge9" class="edge"><title>Node9&#45;&gt;Node10</title>
<path fill="none" stroke="midnightblue" d="M1318.29,-98.7561C1327.15,-98.024 1336.6,-97.2437 1345.59,-96.5016"/>
<polygon fill="midnightblue" stroke="midnightblue" points="1317.89,-95.2771 1308.21,-99.5882 1318.46,-102.253 1317.89,-95.2771"/>
</g>
<!-- Node12 -->
<g id="node12" class="node"><title>Node12</title>
<g id="a_node12"><a xlink:href="../../d4/d2f/class_lose_screen.html#a34f2cc2c803500316c9b8d854854d758" target="_top" xlink:title="LoseScreen.init">
<polygon fill="white" stroke="black" points="1344,-43.5 1344,-62.5 1434,-62.5 1434,-43.5 1344,-43.5"/>
<text text-anchor="middle" x="1389" y="-50.5" font-family="Helvetica,sans-Serif" font-size="10.00">LoseScreen.init</text>
</a>
</g>
</g>
<!-- Node9&#45;&gt;Node12 -->
<g id="edge11" class="edge"><title>Node9&#45;&gt;Node12</title>
<path fill="none" stroke="midnightblue" d="M1309.61,-88.2397C1327.84,-80.0452 1350.51,-69.8522 1366.78,-62.5399"/>
<polygon fill="midnightblue" stroke="midnightblue" points="1307.96,-85.1435 1300.28,-92.436 1310.83,-91.528 1307.96,-85.1435"/>
</g>
<!-- Node15 -->
<g id="node15" class="node"><title>Node15</title>
<g id="a_node15"><a xlink:href="../../d0/d4b/class_main.html#a7595d13c514a02c35aca322dd91d2063" target="_top" xlink:title="Main.start">
<polygon fill="white" stroke="black" points="1356.5,-121.5 1356.5,-140.5 1421.5,-140.5 1421.5,-121.5 1356.5,-121.5"/>
<text text-anchor="middle" x="1389" y="-128.5" font-family="Helvetica,sans-Serif" font-size="10.00">Main.start</text>
</a>
</g>
</g>
<!-- Node9&#45;&gt;Node15 -->
<g id="edge15" class="edge"><title>Node9&#45;&gt;Node15</title>
<path fill="none" stroke="midnightblue" d="M1318,-112.377C1330.61,-115.73 1344.41,-119.404 1356.41,-122.596"/>
<polygon fill="midnightblue" stroke="midnightblue" points="1318.77,-108.96 1308.21,-109.771 1316.97,-115.725 1318.77,-108.96"/>
</g>
<!-- Node11 -->
<g id="node11" class="node"><title>Node11</title>
<g id="a_node11"><a xlink:href="../../d6/d4f/class_item_box_world.html#a2ed12a6b39993faedc05cc682204476d" target="_top" xlink:title="ItemBoxWorld.winLevel">
<polygon fill="white" stroke="black" points="1474.5,-83.5 1474.5,-102.5 1599.5,-102.5 1599.5,-83.5 1474.5,-83.5"/>
<text text-anchor="middle" x="1537" y="-90.5" font-family="Helvetica,sans-Serif" font-size="10.00">ItemBoxWorld.winLevel</text>
</a>
</g>
</g>
<!-- Node10&#45;&gt;Node11 -->
<g id="edge10" class="edge"><title>Node10&#45;&gt;Node11</title>
<path fill="none" stroke="midnightblue" d="M1442.35,-93C1452.71,-93 1463.68,-93 1474.31,-93"/>
<polygon fill="midnightblue" stroke="midnightblue" points="1442.23,-89.5001 1432.23,-93 1442.23,-96.5001 1442.23,-89.5001"/>
</g>
<!-- Node13 -->
<g id="node13" class="node"><title>Node13</title>
<g id="a_node13"><a xlink:href="../../db/d97/class_box_world.html#a72bacb2a6757900d8835249929fcc838" target="_top" xlink:title="BoxWorld.loseGame">
<polygon fill="white" stroke="black" points="1481,-2.5 1481,-21.5 1593,-21.5 1593,-2.5 1481,-2.5"/>
<text text-anchor="middle" x="1537" y="-9.5" font-family="Helvetica,sans-Serif" font-size="10.00">BoxWorld.loseGame</text>
</a>
</g>
</g>
<!-- Node12&#45;&gt;Node13 -->
<g id="edge12" class="edge"><title>Node12&#45;&gt;Node13</title>
<path fill="none" stroke="midnightblue" d="M1433.6,-40.7569C1455.51,-34.6024 1481.67,-27.2557 1502.07,-21.5286"/>
<polygon fill="midnightblue" stroke="midnightblue" points="1432.54,-37.4174 1423.86,-43.4907 1434.44,-44.1567 1432.54,-37.4174"/>
</g>
<!-- Node14 -->
<g id="node14" class="node"><title>Node14</title>
<g id="a_node14"><a xlink:href="../../d6/d4f/class_item_box_world.html#a295cf7212ad54fa599e2a2d85ee0523d" target="_top" xlink:title="ItemBoxWorld.loseGame">
<polygon fill="white" stroke="black" points="1470,-43.5 1470,-62.5 1604,-62.5 1604,-43.5 1470,-43.5"/>
<text text-anchor="middle" x="1537" y="-50.5" font-family="Helvetica,sans-Serif" font-size="10.00">ItemBoxWorld.loseGame</text>
</a>
</g>
</g>
<!-- Node12&#45;&gt;Node14 -->
<g id="edge14" class="edge"><title>Node12&#45;&gt;Node14</title>
<path fill="none" stroke="midnightblue" d="M1444.47,-53C1452.75,-53 1461.37,-53 1469.86,-53"/>
<polygon fill="midnightblue" stroke="midnightblue" points="1444.2,-49.5001 1434.2,-53 1444.2,-56.5001 1444.2,-49.5001"/>
</g>
<!-- Node13&#45;&gt;Node5 -->
<g id="edge13" class="edge"><title>Node13&#45;&gt;Node5</title>
<path fill="none" stroke="midnightblue" d="M1470.78,-11.2124C1418.83,-10.6527 1344.26,-10 1279,-10 1054,-10 1054,-10 1054,-10 969.669,-10 872.759,-10 808.305,-10"/>
<polygon fill="midnightblue" stroke="midnightblue" points="1470.82,-14.713 1480.85,-11.3229 1470.89,-7.71339 1470.82,-14.713"/>
</g>
<!-- Node17 -->
<g id="node17" class="node"><title>Node17</title>
<g id="a_node17"><a xlink:href="../../db/d97/class_box_world.html#a726e747e023543658d7a345cc6466ccb" target="_top" xlink:title="BoxWorld.createScene">
<polygon fill="white" stroke="black" points="848,-114.5 848,-133.5 972,-133.5 972,-114.5 848,-114.5"/>
<text text-anchor="middle" x="910" y="-121.5" font-family="Helvetica,sans-Serif" font-size="10.00">BoxWorld.createScene</text>
</a>
</g>
</g>
<!-- Node16&#45;&gt;Node17 -->
<g id="edge18" class="edge"><title>Node16&#45;&gt;Node17</title>
<path fill="none" stroke="midnightblue" d="M767.109,-61.6662C801.781,-76.8978 856.947,-101.133 887.267,-114.453"/>
<polygon fill="midnightblue" stroke="midnightblue" points="768.474,-58.4432 757.911,-57.6255 765.658,-64.852 768.474,-58.4432"/>
</g>
<!-- Node17&#45;&gt;Node3 -->
<g id="edge20" class="edge"><title>Node17&#45;&gt;Node3</title>
<path fill="none" stroke="midnightblue" d="M837.944,-121.14C740.905,-117.233 569.45,-110.332 485.735,-106.962"/>
<polygon fill="midnightblue" stroke="midnightblue" points="837.826,-124.638 847.959,-121.543 838.108,-117.643 837.826,-124.638"/>
</g>
<!-- Node17&#45;&gt;Node8 -->
<g id="edge19" class="edge"><title>Node17&#45;&gt;Node8</title>
<path fill="none" stroke="midnightblue" d="M982.43,-123.179C1031.47,-122.615 1094.61,-121.89 1134.21,-121.434"/>
<polygon fill="midnightblue" stroke="midnightblue" points="982.152,-119.682 972.193,-123.297 982.233,-126.681 982.152,-119.682"/>
</g>
</g>
</svg>
        <g id="navigator" transform="translate(0 0)" fill="#404254">
                <rect fill="#f2f5e9" fill-opacity="0.5" stroke="#606060" stroke-width=".5" x="0" y="0" width="60" height="60"/>
                <use id="zoomplus" xlink:href="#zoomPlus" x="17" y="9" onmousedown="handleZoom(evt,'in')"/>
                <use id="zoomminus" xlink:href="#zoomMin" x="42" y="9" onmousedown="handleZoom(evt,'out')"/>
                <use id="reset" xlink:href="#resetDef" x="30" y="36" onmousedown="handleReset()"/>
                <g id="arrowUp" xlink:href="#dirArrow" transform="translate(30 24)" onmousedown="handlePan(0,-1)">
                  <use xlink:href="#rim" fill="#404040">
                        <set attributeName="fill" to="#808080" begin="arrowUp.mouseover" end="arrowUp.mouseout"/>
                  </use>
                  <path fill="none" stroke="white" stroke-width="1.5" d="M0,-3.0v7 M-2.5,-0.5L0,-3.0L2.5,-0.5"/>
                </g>
                <g id="arrowRight" xlink:href="#dirArrow" transform="rotate(90) translate(36 -43)" onmousedown="handlePan(1,0)">
                  <use xlink:href="#rim" fill="#404040">
                        <set attributeName="fill" to="#808080" begin="arrowRight.mouseover" end="arrowRight.mouseout"/>
                  </use>
                  <path fill="none" stroke="white" stroke-width="1.5" d="M0,-3.0v7 M-2.5,-0.5L0,-3.0L2.5,-0.5"/>
                </g>
                <g id="arrowDown" xlink:href="#dirArrow" transform="rotate(180) translate(-30 -48)" onmousedown="handlePan(0,1)">
                  <use xlink:href="#rim" fill="#404040">
                        <set attributeName="fill" to="#808080" begin="arrowDown.mouseover" end="arrowDown.mouseout"/>
                  </use>
                  <path fill="none" stroke="white" stroke-width="1.5" d="M0,-3.0v7 M-2.5,-0.5L0,-3.0L2.5,-0.5"/>
                </g>
                <g id="arrowLeft" xlink:href="#dirArrow" transform="rotate(270) translate(-36 17)" onmousedown="handlePan(-1,0)">
                  <use xlink:href="#rim" fill="#404040">
                        <set attributeName="fill" to="#808080" begin="arrowLeft.mouseover" end="arrowLeft.mouseout"/>
                  </use>
                  <path fill="none" stroke="white" stroke-width="1.5" d="M0,-3.0v7 M-2.5,-0.5L0,-3.0L2.5,-0.5"/>
                </g>
        </g>
        <svg viewBox="0 0 15 15" width="100%" height="30px" preserveAspectRatio="xMaxYMin meet">
         <g id="arrow_out" transform="scale(0.3 0.3)">
          <a xlink:href="class_box_world_a2542cc74ebeba6a9768a443a55186901_icgraph_org.svg" target="_base">
           <rect id="button" ry="5" rx="5" y="6" x="6" height="38" width="38"
                fill="#f2f5e9" fill-opacity="0.5" stroke="#606060" stroke-width="1.0"/>
           <path id="arrow"
             d="M 11.500037,31.436501 C 11.940474,20.09759 22.043105,11.32322 32.158766,21.979434 L 37.068811,17.246167 C 37.068811,17.246167 37.088388,32 37.088388,32 L 22.160133,31.978069 C 22.160133,31.978069 26.997745,27.140456 26.997745,27.140456 C 18.528582,18.264221 13.291696,25.230495 11.500037,31.436501 z"
             style="fill:#404040;"/>
          </a>
         </g>
        </svg>
</svg>
