<?xml version="1.0" encoding="UTF-8" standalone="no"?>
<!DOCTYPE svg PUBLIC "-//W3C//DTD SVG 1.1//EN"
 "http://www.w3.org/Graphics/SVG/1.1/DTD/svg11.dtd">
<!-- Generated by graphviz version 2.36.0 (20140111.2315)
 -->
<!-- Title: BoxWorld.updateSprites Pages: 1 -->
<svg width="2106pt" height="491pt"
 viewBox="0.00 0.00 2106.00 491.48" xmlns="http://www.w3.org/2000/svg" xmlns:xlink="http://www.w3.org/1999/xlink">
<g id="graph0" class="graph" transform="scale(1 1) rotate(0) translate(4 487.482)">
<title>BoxWorld.updateSprites</title>
<polygon fill="white" stroke="none" points="-4,4 -4,-487.482 2102,-487.482 2102,4 -4,4"/>
<!-- Node1 -->
<g id="node1" class="node"><title>Node1</title>
<polygon fill="#bfbfbf" stroke="black" points="0.5,-131.982 0.5,-150.982 131.5,-150.982 131.5,-131.982 0.5,-131.982"/>
<text text-anchor="middle" x="66" y="-138.982" font-family="Helvetica,sans-Serif" font-size="10.00">BoxWorld.updateSprites</text>
</g>
<!-- Node2 -->
<g id="node2" class="node"><title>Node2</title>
<g id="a_node2"><a xlink:href="../../db/d97/class_box_world.html#a4079bed8937c9f621decfbe1309e31e2" target="_top" xlink:title="BoxWorld.checkAllCollisions">
<polygon fill="white" stroke="black" points="168,-150.982 168,-169.982 314,-169.982 314,-150.982 168,-150.982"/>
<text text-anchor="middle" x="241" y="-157.982" font-family="Helvetica,sans-Serif" font-size="10.00">BoxWorld.checkAllCollisions</text>
</a>
</g>
</g>
<!-- Node1&#45;&gt;Node2 -->
<g id="edge1" class="edge"><title>Node1&#45;&gt;Node2</title>
<path fill="none" stroke="midnightblue" d="M131.911,-148.611C140.318,-149.534 149.016,-150.49 157.659,-151.439"/>
<polygon fill="midnightblue" stroke="midnightblue" points="157.436,-154.935 167.758,-152.548 158.2,-147.977 157.436,-154.935"/>
</g>
<!-- Node4 -->
<g id="node4" class="node"><title>Node4</title>
<g id="a_node4"><a xlink:href="../../da/de2/class_sticky_box.html#a6ba3f89630df9d81df5644a3e5f4e387" target="_top" xlink:title="StickyBox.getXDirection">
<polygon fill="white" stroke="black" points="1396.5,-169.982 1396.5,-188.982 1527.5,-188.982 1527.5,-169.982 1396.5,-169.982"/>
<text text-anchor="middle" x="1462" y="-176.982" font-family="Helvetica,sans-Serif" font-size="10.00">StickyBox.getXDirection</text>
</a>
</g>
</g>
<!-- Node1&#45;&gt;Node4 -->
<g id="edge44" class="edge"><title>Node1&#45;&gt;Node4</title>
<path fill="none" stroke="midnightblue" d="M131.567,-137.448C182.22,-132.888 253.957,-123.322 314,-103.482 331.178,-97.8058 332.675,-89.6922 350,-84.482 432.117,-59.7866 456.25,-65.482 542,-65.482 542,-65.482 542,-65.482 1096,-65.482 1228.38,-65.482 1375.98,-134.645 1434.78,-165.228"/>
<polygon fill="midnightblue" stroke="midnightblue" points="1433.27,-168.393 1443.75,-169.958 1436.54,-162.2 1433.27,-168.393"/>
</g>
<!-- Node5 -->
<g id="node5" class="node"><title>Node5</title>
<g id="a_node5"><a xlink:href="../../da/de2/class_sticky_box.html#a69e5ccf2a79159c03dea2e048df13318" target="_top" xlink:title="StickyBox.getYDirection">
<polygon fill="white" stroke="black" points="1397,-207.982 1397,-226.982 1527,-226.982 1527,-207.982 1397,-207.982"/>
<text text-anchor="middle" x="1462" y="-214.982" font-family="Helvetica,sans-Serif" font-size="10.00">StickyBox.getYDirection</text>
</a>
</g>
</g>
<!-- Node1&#45;&gt;Node5 -->
<g id="edge45" class="edge"><title>Node1&#45;&gt;Node5</title>
<path fill="none" stroke="midnightblue" d="M78.4222,-150.99C119.599,-184.267 265.38,-293.482 405,-293.482 405,-293.482 405,-293.482 923,-293.482 1051.3,-293.482 1078.89,-253.949 1206,-236.482 1266.48,-228.17 1335.57,-223.306 1386.57,-220.583"/>
<polygon fill="midnightblue" stroke="midnightblue" points="1387.04,-224.064 1396.84,-220.05 1386.67,-217.073 1387.04,-224.064"/>
</g>
<!-- Node19 -->
<g id="node19" class="node"><title>Node19</title>
<g id="a_node19"><a xlink:href="../../da/de2/class_sticky_box.html#aa1bb8f78f676b01c688d75d386758444" target="_top" xlink:title="StickyBox.setDirection">
<polygon fill="white" stroke="black" points="1400,-397.982 1400,-416.982 1524,-416.982 1524,-397.982 1400,-397.982"/>
<text text-anchor="middle" x="1462" y="-404.982" font-family="Helvetica,sans-Serif" font-size="10.00">StickyBox.setDirection</text>
</a>
</g>
</g>
<!-- Node1&#45;&gt;Node19 -->
<g id="edge47" class="edge"><title>Node1&#45;&gt;Node19</title>
<path fill="none" stroke="midnightblue" d="M72.6927,-151.265C101.43,-199.254 235.866,-407.482 405,-407.482 405,-407.482 405,-407.482 1096,-407.482 1198.13,-407.482 1316.33,-407.482 1389.89,-407.482"/>
<polygon fill="midnightblue" stroke="midnightblue" points="1389.97,-410.982 1399.97,-407.482 1389.97,-403.982 1389.97,-410.982"/>
</g>
<!-- Node20 -->
<g id="node20" class="node"><title>Node20</title>
<g id="a_node20"><a xlink:href="../../da/de2/class_sticky_box.html#a5d95d2ed2e13f0d87a44311db77f9e36" target="_top" xlink:title="StickyBox.setPreviousDirection">
<polygon fill="white" stroke="black" points="1380,-454.982 1380,-473.982 1544,-473.982 1544,-454.982 1380,-454.982"/>
<text text-anchor="middle" x="1462" y="-461.982" font-family="Helvetica,sans-Serif" font-size="10.00">StickyBox.setPreviousDirection</text>
</a>
</g>
</g>
<!-- Node1&#45;&gt;Node20 -->
<g id="edge48" class="edge"><title>Node1&#45;&gt;Node20</title>
<path fill="none" stroke="midnightblue" d="M69.5577,-151.274C78.2992,-183.121 109.721,-285.279 168,-347.482 251.033,-436.106 283.556,-483.482 405,-483.482 405,-483.482 405,-483.482 1096,-483.482 1189.33,-483.482 1295.9,-477.21 1369.69,-471.873"/>
<polygon fill="midnightblue" stroke="midnightblue" points="1370.16,-475.348 1379.88,-471.127 1369.65,-468.367 1370.16,-475.348"/>
</g>
<!-- Node36 -->
<g id="node36" class="node"><title>Node36</title>
<g id="a_node36"><a xlink:href="../../da/de2/class_sticky_box.html#a185ee469367b376e6c5969a03d089d57" target="_top" xlink:title="StickyBox.move">
<polygon fill="white" stroke="black" points="194.5,-74.982 194.5,-93.982 287.5,-93.982 287.5,-74.982 194.5,-74.982"/>
<text text-anchor="middle" x="241" y="-81.982" font-family="Helvetica,sans-Serif" font-size="10.00">StickyBox.move</text>
</a>
</g>
</g>
<!-- Node1&#45;&gt;Node36 -->
<g id="edge46" class="edge"><title>Node1&#45;&gt;Node36</title>
<path fill="none" stroke="midnightblue" d="M95.9563,-131.941C124.772,-122.447 169.182,-107.815 201.071,-97.3083"/>
<polygon fill="midnightblue" stroke="midnightblue" points="202.547,-100.507 210.949,-94.0536 200.356,-93.8588 202.547,-100.507"/>
</g>
<!-- Node37 -->
<g id="node37" class="node"><title>Node37</title>
<g id="a_node37"><a xlink:href="../../da/de2/class_sticky_box.html#a59337f0aa3c7379a2cb9c76bdc621daf" target="_top" xlink:title="StickyBox.setStuck">
<polygon fill="white" stroke="black" points="187,-36.982 187,-55.982 295,-55.982 295,-36.982 187,-36.982"/>
<text text-anchor="middle" x="241" y="-43.982" font-family="Helvetica,sans-Serif" font-size="10.00">StickyBox.setStuck</text>
</a>
</g>
</g>
<!-- Node1&#45;&gt;Node37 -->
<g id="edge49" class="edge"><title>Node1&#45;&gt;Node37</title>
<path fill="none" stroke="midnightblue" d="M77.0097,-131.797C94.204,-115.687 131.077,-83.3884 168,-65.482 172.871,-63.1197 178.075,-61.0219 183.373,-59.1652"/>
<polygon fill="midnightblue" stroke="midnightblue" points="184.512,-62.4754 192.958,-56.0786 182.366,-55.8123 184.512,-62.4754"/>
</g>
<!-- Node3 -->
<g id="node3" class="node"><title>Node3</title>
<g id="a_node3"><a xlink:href="../../db/d97/class_box_world.html#a55add11037cd6dc48556f2f42a9e11be" target="_top" xlink:title="BoxWorld.checkCollide">
<polygon fill="white" stroke="black" points="1214,-169.982 1214,-188.982 1336,-188.982 1336,-169.982 1214,-169.982"/>
<text text-anchor="middle" x="1275" y="-176.982" font-family="Helvetica,sans-Serif" font-size="10.00">BoxWorld.checkCollide</text>
</a>
</g>
</g>
<!-- Node2&#45;&gt;Node3 -->
<g id="edge2" class="edge"><title>Node2&#45;&gt;Node3</title>
<path fill="none" stroke="midnightblue" d="M314.054,-167.611C374.773,-173.002 463.979,-179.482 542,-179.482 542,-179.482 542,-179.482 923,-179.482 1020.29,-179.482 1132.74,-179.482 1203.61,-179.482"/>
<polygon fill="midnightblue" stroke="midnightblue" points="1203.75,-182.982 1213.75,-179.482 1203.75,-175.982 1203.75,-182.982"/>
</g>
<!-- Node6 -->
<g id="node6" class="node"><title>Node6</title>
<g id="a_node6"><a xlink:href="../../db/d97/class_box_world.html#a72bacb2a6757900d8835249929fcc838" target="_top" xlink:title="BoxWorld.loseGame">
<polygon fill="white" stroke="black" points="350,-93.982 350,-112.982 462,-112.982 462,-93.982 350,-93.982"/>
<text text-anchor="middle" x="406" y="-100.982" font-family="Helvetica,sans-Serif" font-size="10.00">BoxWorld.loseGame</text>
</a>
</g>
</g>
<!-- Node2&#45;&gt;Node6 -->
<g id="edge5" class="edge"><title>Node2&#45;&gt;Node6</title>
<path fill="none" stroke="midnightblue" d="M271.889,-150.883C284.879,-146.618 300.243,-141.446 314,-136.482 330.148,-130.655 333.884,-128.397 350,-122.482 355.529,-120.453 361.392,-118.363 367.15,-116.344"/>
<polygon fill="midnightblue" stroke="midnightblue" points="368.366,-119.627 376.664,-113.039 366.069,-113.015 368.366,-119.627"/>
</g>
<!-- Node21 -->
<g id="node21" class="node"><title>Node21</title>
<g id="a_node21"><a xlink:href="../../db/d97/class_box_world.html#aad670712776afe126e51791097027e05" target="_top" xlink:title="BoxWorld.winLevel">
<polygon fill="white" stroke="black" points="1223.5,-359.982 1223.5,-378.982 1326.5,-378.982 1326.5,-359.982 1223.5,-359.982"/>
<text text-anchor="middle" x="1275" y="-366.982" font-family="Helvetica,sans-Serif" font-size="10.00">BoxWorld.winLevel</text>
</a>
</g>
</g>
<!-- Node2&#45;&gt;Node21 -->
<g id="edge43" class="edge"><title>Node2&#45;&gt;Node21</title>
<path fill="none" stroke="midnightblue" d="M259.31,-170.114C304.391,-194.266 429.731,-255.482 542,-255.482 542,-255.482 542,-255.482 773,-255.482 890.618,-255.482 905.241,-324.709 1020,-350.482 1084.92,-365.062 1161.27,-369.067 1213.19,-369.891"/>
<polygon fill="midnightblue" stroke="midnightblue" points="1213.2,-373.391 1223.24,-370.015 1213.28,-366.391 1213.2,-373.391"/>
</g>
<!-- Node35 -->
<g id="node35" class="node"><title>Node35</title>
<g id="a_node35"><a xlink:href="../../db/d97/class_box_world.html#a167adb49603af3a303ee958011243b5f" target="_top" xlink:title="BoxWorld.onScreen">
<polygon fill="white" stroke="black" points="351.5,-131.982 351.5,-150.982 460.5,-150.982 460.5,-131.982 351.5,-131.982"/>
<text text-anchor="middle" x="406" y="-138.982" font-family="Helvetica,sans-Serif" font-size="10.00">BoxWorld.onScreen</text>
</a>
</g>
</g>
<!-- Node2&#45;&gt;Node35 -->
<g id="edge42" class="edge"><title>Node2&#45;&gt;Node35</title>
<path fill="none" stroke="midnightblue" d="M314.443,-152.038C323.366,-150.998 332.435,-149.94 341.216,-148.917"/>
<polygon fill="midnightblue" stroke="midnightblue" points="341.837,-152.368 351.365,-147.734 341.027,-145.415 341.837,-152.368"/>
</g>
<!-- Node3&#45;&gt;Node4 -->
<g id="edge3" class="edge"><title>Node3&#45;&gt;Node4</title>
<path fill="none" stroke="midnightblue" d="M1336.06,-179.482C1352.05,-179.482 1369.52,-179.482 1386.2,-179.482"/>
<polygon fill="midnightblue" stroke="midnightblue" points="1386.45,-182.982 1396.45,-179.482 1386.45,-175.982 1386.45,-182.982"/>
</g>
<!-- Node3&#45;&gt;Node5 -->
<g id="edge4" class="edge"><title>Node3&#45;&gt;Node5</title>
<path fill="none" stroke="midnightblue" d="M1322.68,-189.071C1347.65,-194.198 1378.56,-200.549 1404.83,-205.945"/>
<polygon fill="midnightblue" stroke="midnightblue" points="1404.15,-209.378 1414.65,-207.962 1405.56,-202.521 1404.15,-209.378"/>
</g>
<!-- Node7 -->
<g id="node7" class="node"><title>Node7</title>
<g id="a_node7"><a xlink:href="../../d4/d2f/class_lose_screen.html#a34f2cc2c803500316c9b8d854854d758" target="_top" xlink:title="LoseScreen.init">
<polygon fill="white" stroke="black" points="498,-93.982 498,-112.982 588,-112.982 588,-93.982 498,-93.982"/>
<text text-anchor="middle" x="543" y="-100.982" font-family="Helvetica,sans-Serif" font-size="10.00">LoseScreen.init</text>
</a>
</g>
</g>
<!-- Node6&#45;&gt;Node7 -->
<g id="edge6" class="edge"><title>Node6&#45;&gt;Node7</title>
<path fill="none" stroke="midnightblue" d="M462.299,-103.482C470.686,-103.482 479.332,-103.482 487.697,-103.482"/>
<polygon fill="midnightblue" stroke="midnightblue" points="487.724,-106.982 497.724,-103.482 487.724,-99.9821 487.724,-106.982"/>
</g>
<!-- Node8 -->
<g id="node8" class="node"><title>Node8</title>
<g id="a_node8"><a xlink:href="../../d2/db8/class_menu.html#a3c99ad09e9f2f975c1a0d0597642651a" target="_top" xlink:title="Menu.init">
<polygon fill="white" stroke="black" points="624,-93.982 624,-112.982 684,-112.982 684,-93.982 624,-93.982"/>
<text text-anchor="middle" x="654" y="-100.982" font-family="Helvetica,sans-Serif" font-size="10.00">Menu.init</text>
</a>
</g>
</g>
<!-- Node7&#45;&gt;Node8 -->
<g id="edge7" class="edge"><title>Node7&#45;&gt;Node8</title>
<path fill="none" stroke="midnightblue" d="M588.02,-103.482C596.495,-103.482 605.322,-103.482 613.637,-103.482"/>
<polygon fill="midnightblue" stroke="midnightblue" points="613.833,-106.982 623.833,-103.482 613.832,-99.9821 613.833,-106.982"/>
</g>
<!-- Node9 -->
<g id="node9" class="node"><title>Node9</title>
<g id="a_node9"><a xlink:href="../../d2/db8/class_menu.html#a8a6e6125f0dc2dc7e19c6655ba6376a2" target="_top" xlink:title="Menu.addIntroText">
<polygon fill="white" stroke="black" points="720,-131.982 720,-150.982 824,-150.982 824,-131.982 720,-131.982"/>
<text text-anchor="middle" x="772" y="-138.982" font-family="Helvetica,sans-Serif" font-size="10.00">Menu.addIntroText</text>
</a>
</g>
</g>
<!-- Node8&#45;&gt;Node9 -->
<g id="edge8" class="edge"><title>Node8&#45;&gt;Node9</title>
<path fill="none" stroke="midnightblue" d="M684.272,-113.071C698.697,-117.796 716.293,-123.561 731.857,-128.659"/>
<polygon fill="midnightblue" stroke="midnightblue" points="731.145,-132.109 741.738,-131.896 733.324,-125.457 731.145,-132.109"/>
</g>
<!-- Node10 -->
<g id="node10" class="node"><title>Node10</title>
<g id="a_node10"><a xlink:href="../../db/d97/class_box_world.html#a55bf92d3f466bfaade0f6d199d8c9bd9" target="_top" xlink:title="BoxWorld.init">
<polygon fill="white" stroke="black" points="733.5,-93.982 733.5,-112.982 810.5,-112.982 810.5,-93.982 733.5,-93.982"/>
<text text-anchor="middle" x="772" y="-100.982" font-family="Helvetica,sans-Serif" font-size="10.00">BoxWorld.init</text>
</a>
</g>
</g>
<!-- Node8&#45;&gt;Node10 -->
<g id="edge9" class="edge"><title>Node8&#45;&gt;Node10</title>
<path fill="none" stroke="midnightblue" d="M684.272,-103.482C696.029,-103.482 709.893,-103.482 723.046,-103.482"/>
<polygon fill="midnightblue" stroke="midnightblue" points="723.388,-106.982 733.388,-103.482 723.388,-99.9821 723.388,-106.982"/>
</g>
<!-- Node11 -->
<g id="node11" class="node"><title>Node11</title>
<g id="a_node11"><a xlink:href="../../db/d97/class_box_world.html#a69798621c944e846f045aaf3937505f9" target="_top" xlink:title="BoxWorld.addStarterObjects">
<polygon fill="white" stroke="black" points="1596.5,-150.982 1596.5,-169.982 1747.5,-169.982 1747.5,-150.982 1596.5,-150.982"/>
<text text-anchor="middle" x="1672" y="-157.982" font-family="Helvetica,sans-Serif" font-size="10.00">BoxWorld.addStarterObjects</text>
</a>
</g>
</g>
<!-- Node10&#45;&gt;Node11 -->
<g id="edge10" class="edge"><title>Node10&#45;&gt;Node11</title>
<path fill="none" stroke="midnightblue" d="M810.877,-110.899C870.744,-121.958 991.023,-141.482 1094,-141.482 1094,-141.482 1094,-141.482 1276,-141.482 1383.15,-141.482 1506.47,-148.544 1586.41,-154.057"/>
<polygon fill="midnightblue" stroke="midnightblue" points="1586.21,-157.551 1596.43,-154.756 1586.7,-150.568 1586.21,-157.551"/>
</g>
<!-- Node13 -->
<g id="node13" class="node"><title>Node13</title>
<g id="a_node13"><a xlink:href="../../db/d97/class_box_world.html#a726e747e023543658d7a345cc6466ccb" target="_top" xlink:title="BoxWorld.createScene">
<polygon fill="white" stroke="black" points="860,-207.982 860,-226.982 984,-226.982 984,-207.982 860,-207.982"/>
<text text-anchor="middle" x="922" y="-214.982" font-family="Helvetica,sans-Serif" font-size="10.00">BoxWorld.createScene</text>
</a>
</g>
</g>
<!-- Node10&#45;&gt;Node13 -->
<g id="edge12" class="edge"><title>Node10&#45;&gt;Node13</title>
<path fill="none" stroke="midnightblue" d="M804.998,-113.06C811.528,-115.65 818.177,-118.784 824,-122.482 833.152,-128.294 879.243,-174.813 904.457,-200.531"/>
<polygon fill="midnightblue" stroke="midnightblue" points="902.051,-203.078 911.547,-207.777 907.055,-198.182 902.051,-203.078"/>
</g>
<!-- Node31 -->
<g id="node31" class="node"><title>Node31</title>
<g id="a_node31"><a xlink:href="../../db/d97/class_box_world.html#ad20a4e43406c44f4bbf201d1d1028998" target="_top" xlink:title="BoxWorld.start">
<polygon fill="white" stroke="black" points="1629,-93.982 1629,-112.982 1715,-112.982 1715,-93.982 1629,-93.982"/>
<text text-anchor="middle" x="1672" y="-100.982" font-family="Helvetica,sans-Serif" font-size="10.00">BoxWorld.start</text>
</a>
</g>
</g>
<!-- Node10&#45;&gt;Node31 -->
<g id="edge41" class="edge"><title>Node10&#45;&gt;Node31</title>
<path fill="none" stroke="midnightblue" d="M810.558,-103.482C870.491,-103.482 991.458,-103.482 1094,-103.482 1094,-103.482 1094,-103.482 1276,-103.482 1398.8,-103.482 1543.09,-103.482 1618.7,-103.482"/>
<polygon fill="midnightblue" stroke="midnightblue" points="1618.91,-106.982 1628.91,-103.482 1618.91,-99.9821 1618.91,-106.982"/>
</g>
<!-- Node12 -->
<g id="node12" class="node"><title>Node12</title>
<g id="a_node12"><a xlink:href="../../db/d97/class_box_world.html#a2542cc74ebeba6a9768a443a55186901" target="_top" xlink:title="BoxWorld.createObstacleArray">
<polygon fill="white" stroke="black" points="1800.5,-150.982 1800.5,-169.982 1961.5,-169.982 1961.5,-150.982 1800.5,-150.982"/>
<text text-anchor="middle" x="1881" y="-157.982" font-family="Helvetica,sans-Serif" font-size="10.00">BoxWorld.createObstacleArray</text>
</a>
</g>
</g>
<!-- Node11&#45;&gt;Node12 -->
<g id="edge11" class="edge"><title>Node11&#45;&gt;Node12</title>
<path fill="none" stroke="midnightblue" d="M1747.73,-160.482C1761.52,-160.482 1776.06,-160.482 1790.24,-160.482"/>
<polygon fill="midnightblue" stroke="midnightblue" points="1790.49,-163.982 1800.49,-160.482 1790.49,-156.982 1790.49,-163.982"/>
</g>
<!-- Node14 -->
<g id="node14" class="node"><title>Node14</title>
<g id="a_node14"><a xlink:href="../../db/d97/class_box_world.html#aa7e2049d7be23e15fd2ec7fa2922ed79" target="_top" xlink:title="BoxWorld.handleKeyInput">
<polygon fill="white" stroke="black" points="1027,-321.982 1027,-340.982 1163,-340.982 1163,-321.982 1027,-321.982"/>
<text text-anchor="middle" x="1095" y="-328.982" font-family="Helvetica,sans-Serif" font-size="10.00">BoxWorld.handleKeyInput</text>
</a>
</g>
</g>
<!-- Node13&#45;&gt;Node14 -->
<g id="edge13" class="edge"><title>Node13&#45;&gt;Node14</title>
<path fill="none" stroke="midnightblue" d="M952.721,-227.061C962.956,-230.903 974.281,-235.784 984,-241.482 993.735,-247.19 1045.73,-290.7 1074.62,-315.07"/>
<polygon fill="midnightblue" stroke="midnightblue" points="1072.53,-317.893 1082.43,-321.673 1077.05,-312.546 1072.53,-317.893"/>
</g>
<!-- Node34 -->
<g id="node34" class="node"><title>Node34</title>
<g id="a_node34"><a xlink:href="../../db/d97/class_box_world.html#a2d44485a181577acb4d79b6b81f26fff" target="_top" xlink:title="BoxWorld.handleKeyRelease">
<polygon fill="white" stroke="black" points="1020.5,-207.982 1020.5,-226.982 1169.5,-226.982 1169.5,-207.982 1020.5,-207.982"/>
<text text-anchor="middle" x="1095" y="-214.982" font-family="Helvetica,sans-Serif" font-size="10.00">BoxWorld.handleKeyRelease</text>
</a>
</g>
</g>
<!-- Node13&#45;&gt;Node34 -->
<g id="edge40" class="edge"><title>Node13&#45;&gt;Node34</title>
<path fill="none" stroke="midnightblue" d="M984.252,-217.482C992.655,-217.482 1001.4,-217.482 1010.12,-217.482"/>
<polygon fill="midnightblue" stroke="midnightblue" points="1010.33,-220.982 1020.33,-217.482 1010.33,-213.982 1010.33,-220.982"/>
</g>
<!-- Node15 -->
<g id="node15" class="node"><title>Node15</title>
<g id="a_node15"><a xlink:href="../../db/d97/class_box_world.html#adc4c9d78ffde3d052c4c92047eb98e55" target="_top" xlink:title="BoxWorld.allowMovement">
<polygon fill="white" stroke="black" points="1206.5,-245.982 1206.5,-264.982 1343.5,-264.982 1343.5,-245.982 1206.5,-245.982"/>
<text text-anchor="middle" x="1275" y="-252.982" font-family="Helvetica,sans-Serif" font-size="10.00">BoxWorld.allowMovement</text>
</a>
</g>
</g>
<!-- Node14&#45;&gt;Node15 -->
<g id="edge14" class="edge"><title>Node14&#45;&gt;Node15</title>
<path fill="none" stroke="midnightblue" d="M1129.17,-321.891C1142.07,-317.859 1156.88,-312.856 1170,-307.482 1197.22,-296.338 1227.14,-281.037 1247.87,-269.919"/>
<polygon fill="midnightblue" stroke="midnightblue" points="1249.58,-272.974 1256.71,-265.136 1246.25,-266.818 1249.58,-272.974"/>
</g>
<!-- Node18 -->
<g id="node18" class="node"><title>Node18</title>
<g id="a_node18"><a xlink:href="../../db/d97/class_box_world.html#a04c6bf977c4292a5433649fb3745fd6b" target="_top" xlink:title="BoxWorld.reset">
<polygon fill="white" stroke="black" points="1231,-435.982 1231,-454.982 1319,-454.982 1319,-435.982 1231,-435.982"/>
<text text-anchor="middle" x="1275" y="-442.982" font-family="Helvetica,sans-Serif" font-size="10.00">BoxWorld.reset</text>
</a>
</g>
</g>
<!-- Node14&#45;&gt;Node18 -->
<g id="edge19" class="edge"><title>Node14&#45;&gt;Node18</title>
<path fill="none" stroke="midnightblue" d="M1110.87,-341.005C1141.68,-360.738 1212.73,-406.24 1250.07,-430.157"/>
<polygon fill="midnightblue" stroke="midnightblue" points="1248.49,-433.298 1258.79,-435.744 1252.26,-427.403 1248.49,-433.298"/>
</g>
<!-- Node14&#45;&gt;Node19 -->
<g id="edge22" class="edge"><title>Node14&#45;&gt;Node19</title>
<path fill="none" stroke="midnightblue" d="M1163.2,-329.868C1213.76,-330.267 1284.3,-334.287 1344,-350.482 1378.12,-359.737 1414.23,-378.967 1437.16,-392.525"/>
<polygon fill="midnightblue" stroke="midnightblue" points="1435.47,-395.596 1445.84,-397.764 1439.09,-389.602 1435.47,-395.596"/>
</g>
<!-- Node14&#45;&gt;Node21 -->
<g id="edge23" class="edge"><title>Node14&#45;&gt;Node21</title>
<path fill="none" stroke="midnightblue" d="M1140.92,-341.071C1164.83,-346.176 1194.42,-352.493 1219.62,-357.874"/>
<polygon fill="midnightblue" stroke="midnightblue" points="1218.9,-361.297 1229.41,-359.962 1220.36,-354.451 1218.9,-361.297"/>
</g>
<!-- Node15&#45;&gt;Node4 -->
<g id="edge15" class="edge"><title>Node15&#45;&gt;Node4</title>
<path fill="none" stroke="midnightblue" d="M1290.54,-245.846C1310.11,-233.276 1346.35,-211.373 1380,-198.482 1386.68,-195.924 1393.8,-193.645 1400.95,-191.632"/>
<polygon fill="midnightblue" stroke="midnightblue" points="1401.9,-195 1410.67,-189.052 1400.11,-188.235 1401.9,-195"/>
</g>
<!-- Node15&#45;&gt;Node5 -->
<g id="edge17" class="edge"><title>Node15&#45;&gt;Node5</title>
<path fill="none" stroke="midnightblue" d="M1322.68,-245.893C1347.65,-240.766 1378.56,-234.415 1404.83,-229.019"/>
<polygon fill="midnightblue" stroke="midnightblue" points="1405.56,-232.443 1414.65,-227.002 1404.15,-225.586 1405.56,-232.443"/>
</g>
<!-- Node16 -->
<g id="node16" class="node"><title>Node16</title>
<g id="a_node16"><a xlink:href="../../da/de2/class_sticky_box.html#ab0bd7cafb7f243e3951558ddb8728b96" target="_top" xlink:title="StickyBox.getXPrev">
<polygon fill="white" stroke="black" points="1407.5,-245.982 1407.5,-264.982 1516.5,-264.982 1516.5,-245.982 1407.5,-245.982"/>
<text text-anchor="middle" x="1462" y="-252.982" font-family="Helvetica,sans-Serif" font-size="10.00">StickyBox.getXPrev</text>
</a>
</g>
</g>
<!-- Node15&#45;&gt;Node16 -->
<g id="edge16" class="edge"><title>Node15&#45;&gt;Node16</title>
<path fill="none" stroke="midnightblue" d="M1343.57,-255.482C1361.09,-255.482 1379.89,-255.482 1397.21,-255.482"/>
<polygon fill="midnightblue" stroke="midnightblue" points="1397.21,-258.982 1407.21,-255.482 1397.21,-251.982 1397.21,-258.982"/>
</g>
<!-- Node17 -->
<g id="node17" class="node"><title>Node17</title>
<g id="a_node17"><a xlink:href="../../da/de2/class_sticky_box.html#a4c6abed944faed9d9b226079e99cfc24" target="_top" xlink:title="StickyBox.getYPrev">
<polygon fill="white" stroke="black" points="1408,-283.982 1408,-302.982 1516,-302.982 1516,-283.982 1408,-283.982"/>
<text text-anchor="middle" x="1462" y="-290.982" font-family="Helvetica,sans-Serif" font-size="10.00">StickyBox.getYPrev</text>
</a>
</g>
</g>
<!-- Node15&#45;&gt;Node17 -->
<g id="edge18" class="edge"><title>Node15&#45;&gt;Node17</title>
<path fill="none" stroke="midnightblue" d="M1322.68,-265.071C1347.65,-270.198 1378.56,-276.549 1404.83,-281.945"/>
<polygon fill="midnightblue" stroke="midnightblue" points="1404.15,-285.378 1414.65,-283.962 1405.56,-278.521 1404.15,-285.378"/>
</g>
<!-- Node18&#45;&gt;Node19 -->
<g id="edge20" class="edge"><title>Node18&#45;&gt;Node19</title>
<path fill="none" stroke="midnightblue" d="M1319.37,-436.573C1344.87,-431.337 1377.37,-424.66 1404.81,-419.024"/>
<polygon fill="midnightblue" stroke="midnightblue" points="1405.57,-422.44 1414.66,-417 1404.16,-415.583 1405.57,-422.44"/>
</g>
<!-- Node18&#45;&gt;Node20 -->
<g id="edge21" class="edge"><title>Node18&#45;&gt;Node20</title>
<path fill="none" stroke="midnightblue" d="M1319.37,-449.937C1334.46,-451.486 1352.01,-453.288 1369.5,-455.085"/>
<polygon fill="midnightblue" stroke="midnightblue" points="1369.47,-458.6 1379.78,-456.14 1370.19,-451.637 1369.47,-458.6"/>
</g>
<!-- Node22 -->
<g id="node22" class="node"><title>Node22</title>
<g id="a_node22"><a xlink:href="../../d6/d4f/class_item_box_world.html#aa559fc2680327b41fb376e2eda8e82e3" target="_top" xlink:title="ItemBoxWorld.init">
<polygon fill="white" stroke="black" points="1412.5,-321.982 1412.5,-340.982 1511.5,-340.982 1511.5,-321.982 1412.5,-321.982"/>
<text text-anchor="middle" x="1462" y="-328.982" font-family="Helvetica,sans-Serif" font-size="10.00">ItemBoxWorld.init</text>
</a>
</g>
</g>
<!-- Node21&#45;&gt;Node22 -->
<g id="edge24" class="edge"><title>Node21&#45;&gt;Node22</title>
<path fill="none" stroke="midnightblue" d="M1322.68,-359.893C1347.65,-354.766 1378.56,-348.415 1404.83,-343.019"/>
<polygon fill="midnightblue" stroke="midnightblue" points="1405.56,-346.443 1414.65,-341.002 1404.15,-339.586 1405.56,-346.443"/>
</g>
<!-- Node22&#45;&gt;Node11 -->
<g id="edge29" class="edge"><title>Node22&#45;&gt;Node11</title>
<path fill="none" stroke="midnightblue" d="M1511.51,-328.448C1523.32,-325.613 1535.1,-320.732 1544,-312.482 1582.96,-276.356 1544.15,-237.699 1580,-198.482 1590.23,-187.291 1604.27,-179.295 1618.27,-173.623"/>
<polygon fill="midnightblue" stroke="midnightblue" points="1619.74,-176.811 1627.9,-170.056 1617.31,-170.246 1619.74,-176.811"/>
</g>
<!-- Node22&#45;&gt;Node13 -->
<g id="edge39" class="edge"><title>Node22&#45;&gt;Node13</title>
<path fill="none" stroke="midnightblue" d="M1415.81,-321.905C1317.47,-301.069 1084.39,-251.68 977.851,-229.105"/>
<polygon fill="midnightblue" stroke="midnightblue" points="978.453,-225.654 967.944,-227.005 977.001,-232.502 978.453,-225.654"/>
</g>
<!-- Node23 -->
<g id="node23" class="node"><title>Node23</title>
<g id="a_node23"><a xlink:href="../../db/d97/class_box_world.html#a25c34c68bdd68debd7de01a4f3b98bb1" target="_top" xlink:title="BoxWorld.setStage">
<polygon fill="white" stroke="black" points="1618.5,-321.982 1618.5,-340.982 1725.5,-340.982 1725.5,-321.982 1618.5,-321.982"/>
<text text-anchor="middle" x="1672" y="-328.982" font-family="Helvetica,sans-Serif" font-size="10.00">BoxWorld.setStage</text>
</a>
</g>
</g>
<!-- Node22&#45;&gt;Node23 -->
<g id="edge25" class="edge"><title>Node22&#45;&gt;Node23</title>
<path fill="none" stroke="midnightblue" d="M1511.5,-331.482C1540.3,-331.482 1577.12,-331.482 1608.13,-331.482"/>
<polygon fill="midnightblue" stroke="midnightblue" points="1608.41,-334.982 1618.41,-331.482 1608.41,-327.982 1608.41,-334.982"/>
</g>
<!-- Node24 -->
<g id="node24" class="node"><title>Node24</title>
<g id="a_node24"><a xlink:href="../../db/d97/class_box_world.html#a3735494d6eeffc036cd757eb21170eb0" target="_top" xlink:title="BoxWorld.setObstacleXCoordinates">
<polygon fill="white" stroke="black" points="1580.5,-283.982 1580.5,-302.982 1763.5,-302.982 1763.5,-283.982 1580.5,-283.982"/>
<text text-anchor="middle" x="1672" y="-290.982" font-family="Helvetica,sans-Serif" font-size="10.00">BoxWorld.setObstacleXCoordinates</text>
</a>
</g>
</g>
<!-- Node22&#45;&gt;Node24 -->
<g id="edge26" class="edge"><title>Node22&#45;&gt;Node24</title>
<path fill="none" stroke="midnightblue" d="M1511.5,-322.621C1540.53,-317.317 1577.72,-310.523 1608.89,-304.83"/>
<polygon fill="midnightblue" stroke="midnightblue" points="1609.57,-308.263 1618.78,-303.023 1608.31,-301.377 1609.57,-308.263"/>
</g>
<!-- Node25 -->
<g id="node25" class="node"><title>Node25</title>
<g id="a_node25"><a xlink:href="../../db/d97/class_box_world.html#ab45827804913790744cdbaaf8a222256" target="_top" xlink:title="BoxWorld.setObstacleYCoordinates">
<polygon fill="white" stroke="black" points="1581,-245.982 1581,-264.982 1763,-264.982 1763,-245.982 1581,-245.982"/>
<text text-anchor="middle" x="1672" y="-252.982" font-family="Helvetica,sans-Serif" font-size="10.00">BoxWorld.setObstacleYCoordinates</text>
</a>
</g>
</g>
<!-- Node22&#45;&gt;Node25 -->
<g id="edge27" class="edge"><title>Node22&#45;&gt;Node25</title>
<path fill="none" stroke="midnightblue" d="M1511.85,-324.838C1522.89,-322.05 1534.23,-318.094 1544,-312.482 1564.17,-300.894 1559.69,-285.821 1580,-274.482 1583.99,-272.254 1588.21,-270.286 1592.57,-268.548"/>
<polygon fill="midnightblue" stroke="midnightblue" points="1594.02,-271.747 1602.27,-265.099 1591.68,-265.151 1594.02,-271.747"/>
</g>
<!-- Node26 -->
<g id="node26" class="node"><title>Node26</title>
<g id="a_node26"><a xlink:href="../../db/d97/class_box_world.html#aeeaafc4ff103ded208e6c9393eb4ceca" target="_top" xlink:title="BoxWorld.setRoot">
<polygon fill="white" stroke="black" points="1622.5,-207.982 1622.5,-226.982 1721.5,-226.982 1721.5,-207.982 1622.5,-207.982"/>
<text text-anchor="middle" x="1672" y="-214.982" font-family="Helvetica,sans-Serif" font-size="10.00">BoxWorld.setRoot</text>
</a>
</g>
</g>
<!-- Node22&#45;&gt;Node26 -->
<g id="edge28" class="edge"><title>Node22&#45;&gt;Node26</title>
<path fill="none" stroke="midnightblue" d="M1511.62,-327.396C1523.16,-324.548 1534.79,-319.924 1544,-312.482 1573.08,-288.998 1550.64,-259.607 1580,-236.482 1589.22,-229.222 1600.54,-224.553 1612.03,-221.589"/>
<polygon fill="midnightblue" stroke="midnightblue" points="1613.08,-224.941 1622.12,-219.401 1611.6,-218.1 1613.08,-224.941"/>
</g>
<!-- Node27 -->
<g id="node27" class="node"><title>Node27</title>
<g id="a_node27"><a xlink:href="../../d6/d4f/class_item_box_world.html#a7ead15fd9fd8095f928640161d48fdf8" target="_top" xlink:title="ItemBoxWorld.addAllItems">
<polygon fill="white" stroke="black" points="1601.5,-435.982 1601.5,-454.982 1742.5,-454.982 1742.5,-435.982 1601.5,-435.982"/>
<text text-anchor="middle" x="1672" y="-442.982" font-family="Helvetica,sans-Serif" font-size="10.00">ItemBoxWorld.addAllItems</text>
</a>
</g>
</g>
<!-- Node22&#45;&gt;Node27 -->
<g id="edge30" class="edge"><title>Node22&#45;&gt;Node27</title>
<path fill="none" stroke="midnightblue" d="M1478.6,-341.13C1495.42,-351.834 1522.67,-370.04 1544,-388.482 1561.6,-403.696 1559.69,-415.143 1580,-426.482 1583.99,-428.71 1588.21,-430.678 1592.57,-432.416"/>
<polygon fill="midnightblue" stroke="midnightblue" points="1591.68,-435.813 1602.27,-435.864 1594.02,-429.217 1591.68,-435.813"/>
</g>
<!-- Node22&#45;&gt;Node31 -->
<g id="edge35" class="edge"><title>Node22&#45;&gt;Node31</title>
<path fill="none" stroke="midnightblue" d="M1511.65,-329.128C1523.61,-326.307 1535.42,-321.262 1544,-312.482 1598.29,-256.938 1530.48,-201.314 1580,-141.482 1590.03,-129.364 1604.58,-121.05 1619.12,-115.37"/>
<polygon fill="midnightblue" stroke="midnightblue" points="1620.36,-118.642 1628.62,-112.004 1618.02,-112.044 1620.36,-118.642"/>
</g>
<!-- Node32 -->
<g id="node32" class="node"><title>Node32</title>
<g id="a_node32"><a xlink:href="../../db/d97/class_box_world.html#a8d7d9f1ae1ebcd87ff73c09780b70629" target="_top" xlink:title="BoxWorld.setAnimation">
<polygon fill="white" stroke="black" points="1608.5,-397.982 1608.5,-416.982 1735.5,-416.982 1735.5,-397.982 1608.5,-397.982"/>
<text text-anchor="middle" x="1672" y="-404.982" font-family="Helvetica,sans-Serif" font-size="10.00">BoxWorld.setAnimation</text>
</a>
</g>
</g>
<!-- Node22&#45;&gt;Node32 -->
<g id="edge37" class="edge"><title>Node22&#45;&gt;Node32</title>
<path fill="none" stroke="midnightblue" d="M1479.49,-341.147C1501.65,-353.747 1542.59,-375.684 1580,-388.482 1587.9,-391.185 1596.33,-393.572 1604.74,-395.66"/>
<polygon fill="midnightblue" stroke="midnightblue" points="1604.05,-399.092 1614.59,-397.974 1605.65,-392.278 1604.05,-399.092"/>
</g>
<!-- Node33 -->
<g id="node33" class="node"><title>Node33</title>
<g id="a_node33"><a xlink:href="../../db/d97/class_box_world.html#a61929851f1d60c397e1448e614f1d701" target="_top" xlink:title="BoxWorld.getAnimation">
<polygon fill="white" stroke="black" points="1608,-359.982 1608,-378.982 1736,-378.982 1736,-359.982 1608,-359.982"/>
<text text-anchor="middle" x="1672" y="-366.982" font-family="Helvetica,sans-Serif" font-size="10.00">BoxWorld.getAnimation</text>
</a>
</g>
</g>
<!-- Node22&#45;&gt;Node33 -->
<g id="edge38" class="edge"><title>Node22&#45;&gt;Node33</title>
<path fill="none" stroke="midnightblue" d="M1511.5,-340.343C1540.53,-345.647 1577.72,-352.441 1608.89,-358.134"/>
<polygon fill="midnightblue" stroke="midnightblue" points="1608.31,-361.587 1618.78,-359.941 1609.57,-354.701 1608.31,-361.587"/>
</g>
<!-- Node28 -->
<g id="node28" class="node"><title>Node28</title>
<g id="a_node28"><a xlink:href="../../d6/d4f/class_item_box_world.html#a1890e6c53a4a73e44e9528009fde508d" target="_top" xlink:title="ItemBoxWorld.itemExists">
<polygon fill="white" stroke="black" points="1814,-454.982 1814,-473.982 1948,-473.982 1948,-454.982 1814,-454.982"/>
<text text-anchor="middle" x="1881" y="-461.982" font-family="Helvetica,sans-Serif" font-size="10.00">ItemBoxWorld.itemExists</text>
</a>
</g>
</g>
<!-- Node27&#45;&gt;Node28 -->
<g id="edge31" class="edge"><title>Node27&#45;&gt;Node28</title>
<path fill="none" stroke="midnightblue" d="M1742.5,-451.862C1762.2,-453.669 1783.74,-455.646 1803.8,-457.488"/>
<polygon fill="midnightblue" stroke="midnightblue" points="1803.55,-460.98 1813.83,-458.409 1804.19,-454.009 1803.55,-460.98"/>
</g>
<!-- Node30 -->
<g id="node30" class="node"><title>Node30</title>
<g id="a_node30"><a xlink:href="../../d6/d4f/class_item_box_world.html#af1bcde0672796e926560684004ed8e81" target="_top" xlink:title="ItemBoxWorld.addSingleItem">
<polygon fill="white" stroke="black" points="1804,-416.982 1804,-435.982 1958,-435.982 1958,-416.982 1804,-416.982"/>
<text text-anchor="middle" x="1881" y="-423.982" font-family="Helvetica,sans-Serif" font-size="10.00">ItemBoxWorld.addSingleItem</text>
</a>
</g>
</g>
<!-- Node27&#45;&gt;Node30 -->
<g id="edge33" class="edge"><title>Node27&#45;&gt;Node30</title>
<path fill="none" stroke="midnightblue" d="M1742.5,-439.102C1759,-437.588 1776.79,-435.955 1793.92,-434.383"/>
<polygon fill="midnightblue" stroke="midnightblue" points="1794.28,-437.864 1803.92,-433.465 1793.64,-430.894 1794.28,-437.864"/>
</g>
<!-- Node29 -->
<g id="node29" class="node"><title>Node29</title>
<g id="a_node29"><a xlink:href="../../db/d97/class_box_world.html#abb95adb381902ecab1db85efdc1ea6ff" target="_top" xlink:title="BoxWorld.getRoot">
<polygon fill="white" stroke="black" points="1998,-435.982 1998,-454.982 2098,-454.982 2098,-435.982 1998,-435.982"/>
<text text-anchor="middle" x="2048" y="-442.982" font-family="Helvetica,sans-Serif" font-size="10.00">BoxWorld.getRoot</text>
</a>
</g>
</g>
<!-- Node28&#45;&gt;Node29 -->
<g id="edge32" class="edge"><title>Node28&#45;&gt;Node29</title>
<path fill="none" stroke="midnightblue" d="M1948.16,-456.863C1961.25,-455.356 1974.91,-453.783 1987.75,-452.305"/>
<polygon fill="midnightblue" stroke="midnightblue" points="1988.31,-455.763 1997.85,-451.142 1987.51,-448.809 1988.31,-455.763"/>
</g>
<!-- Node30&#45;&gt;Node29 -->
<g id="edge34" class="edge"><title>Node30&#45;&gt;Node29</title>
<path fill="none" stroke="midnightblue" d="M1958.22,-435.259C1968.14,-436.401 1978.19,-437.558 1987.77,-438.662"/>
<polygon fill="midnightblue" stroke="midnightblue" points="1987.63,-442.169 1997.97,-439.836 1988.44,-435.215 1987.63,-442.169"/>
</g>
<!-- Node31&#45;&gt;Node1 -->
<g id="edge36" class="edge"><title>Node31&#45;&gt;Node1</title>
<path fill="none" stroke="midnightblue" d="M1647.87,-93.8501C1587.72,-69.6983 1420.94,-8.48196 1276,-8.48196 405,-8.48196 405,-8.48196 405,-8.48196 299.329,-8.48196 262.551,19.7044 168,-27.482 125.412,-48.7357 92.7798,-96.463 77.1584,-122.927"/>
<polygon fill="midnightblue" stroke="midnightblue" points="73.9376,-121.509 72.0189,-131.928 80.0166,-124.98 73.9376,-121.509"/>
</g>
</g>
</svg>
