<?xml version="1.0" encoding="UTF-8" standalone="no"?>
<!DOCTYPE svg PUBLIC "-//W3C//DTD SVG 1.1//EN"
 "http://www.w3.org/Graphics/SVG/1.1/DTD/svg11.dtd">
<!-- Generated by graphviz version 2.36.0 (20140111.2315)
 -->
<!-- Title: BoxWorld.createScene Pages: 1 -->
<!--zoomable 170 -->
<svg id="main" version="1.1" xmlns="http://www.w3.org/2000/svg" xmlns:xlink="http://www.w3.org/1999/xlink" xml:space="preserve" onload="init(evt)">
<style type="text/css"><![CDATA[
.edge:hover path { stroke: red; }
.edge:hover polygon { stroke: red; fill: red; }
]]></style>
<script type="text/javascript"><![CDATA[
var edges = document.getElementsByTagName('g');
if (edges && edges.length) {
  for (var i=0;i<edges.length;i++) {
    if (edges[i].id.substr(0,4)=='edge') {
      edges[i].setAttribute('class','edge');
    }
  }
}
]]></script>
        <defs>
                <circle id="rim" cx="0" cy="0" r="7"/>
                <circle id="rim2" cx="0" cy="0" r="3.5"/>
                <g id="zoomPlus">
                        <use xlink:href="#rim" fill="#404040">
                                <set attributeName="fill" to="#808080" begin="zoomplus.mouseover" end="zoomplus.mouseout"/>
                        </use>
                        <path d="M-4,0h8M0,-4v8" fill="none" stroke="white" stroke-width="1.5" pointer-events="none"/>
                </g>
                <g id="zoomMin">
                        <use xlink:href="#rim" fill="#404040">
                                <set attributeName="fill" to="#808080" begin="zoomminus.mouseover" end="zoomminus.mouseout"/>
                        </use>
                        <path d="M-4,0h8" fill="none" stroke="white" stroke-width="1.5" pointer-events="none"/>
                </g>
                <g id="dirArrow">
                        <path fill="none" stroke="white" stroke-width="1.5" d="M0,-3.0v7 M-2.5,-0.5L0,-3.0L2.5,-0.5"/>
                </g>
               <g id="resetDef">
                       <use xlink:href="#rim2" fill="#404040">
                               <set attributeName="fill" to="#808080" begin="reset.mouseover" end="reset.mouseout"/>
                       </use>
               </g>
        </defs>

<script type="text/javascript">
var viewWidth = 1386;
var viewHeight = 170;
var sectionId = 'dynsection-12';
</script>
<script xlink:href="../../svgpan.js"/>
<svg id="graph" class="graph">
<g id="viewport">
<title>BoxWorld.createScene</title>
<polygon fill="white" stroke="none" points="-4,4 -4,-166 1382,-166 1382,4 -4,4"/>
<!-- Node1 -->
<g id="node1" class="node"><title>Node1</title>
<polygon fill="#bfbfbf" stroke="black" points="0,-28.5 0,-47.5 124,-47.5 124,-28.5 0,-28.5"/>
<text text-anchor="middle" x="62" y="-35.5" font-family="Helvetica,sans-Serif" font-size="10.00">BoxWorld.createScene</text>
</g>
<!-- Node2 -->
<g id="node2" class="node"><title>Node2</title>
<g id="a_node2"><a xlink:href="../../d6/d4f/class_item_box_world.html#aa559fc2680327b41fb376e2eda8e82e3" target="_top" xlink:title="ItemBoxWorld.init">
<polygon fill="white" stroke="black" points="160.5,-66.5 160.5,-85.5 259.5,-85.5 259.5,-66.5 160.5,-66.5"/>
<text text-anchor="middle" x="210" y="-73.5" font-family="Helvetica,sans-Serif" font-size="10.00">ItemBoxWorld.init</text>
</a>
</g>
</g>
<!-- Node1&#45;&gt;Node2 -->
<g id="edge1" class="edge"><title>Node1&#45;&gt;Node2</title>
<path fill="none" stroke="midnightblue" d="M109.536,-50.1121C129.87,-55.4044 153.371,-61.5213 172.423,-66.4799"/>
<polygon fill="midnightblue" stroke="midnightblue" points="110.401,-46.7207 99.842,-47.589 108.638,-53.4951 110.401,-46.7207"/>
</g>
<!-- Node7 -->
<g id="node7" class="node"><title>Node7</title>
<g id="a_node7"><a xlink:href="../../db/d97/class_box_world.html#a55bf92d3f466bfaade0f6d199d8c9bd9" target="_top" xlink:title="BoxWorld.init">
<polygon fill="white" stroke="black" points="908.5,-66.5 908.5,-85.5 985.5,-85.5 985.5,-66.5 908.5,-66.5"/>
<text text-anchor="middle" x="947" y="-73.5" font-family="Helvetica,sans-Serif" font-size="10.00">BoxWorld.init</text>
</a>
</g>
</g>
<!-- Node1&#45;&gt;Node7 -->
<g id="edge18" class="edge"><title>Node1&#45;&gt;Node7</title>
<path fill="none" stroke="midnightblue" d="M116.885,-26.4456C173.797,-15.2656 266.285,-0 347,-0 347,-0 347,-0 685,-0 778.917,-0 884.535,-45.924 926.912,-66.3745"/>
<polygon fill="midnightblue" stroke="midnightblue" points="116.151,-23.0229 107.029,-28.411 117.52,-29.8878 116.151,-23.0229"/>
</g>
<!-- Node3 -->
<g id="node3" class="node"><title>Node3</title>
<g id="a_node3"><a xlink:href="../../db/d97/class_box_world.html#aad670712776afe126e51791097027e05" target="_top" xlink:title="BoxWorld.winLevel">
<polygon fill="white" stroke="black" points="296.5,-66.5 296.5,-85.5 399.5,-85.5 399.5,-66.5 296.5,-66.5"/>
<text text-anchor="middle" x="348" y="-73.5" font-family="Helvetica,sans-Serif" font-size="10.00">BoxWorld.winLevel</text>
</a>
</g>
</g>
<!-- Node2&#45;&gt;Node3 -->
<g id="edge2" class="edge"><title>Node2&#45;&gt;Node3</title>
<path fill="none" stroke="midnightblue" d="M269.915,-76C278.715,-76 287.722,-76 296.331,-76"/>
<polygon fill="midnightblue" stroke="midnightblue" points="269.715,-72.5001 259.715,-76 269.715,-79.5001 269.715,-72.5001"/>
</g>
<!-- Node4 -->
<g id="node4" class="node"><title>Node4</title>
<g id="a_node4"><a xlink:href="../../db/d97/class_box_world.html#a4079bed8937c9f621decfbe1309e31e2" target="_top" xlink:title="BoxWorld.checkAllCollisions">
<polygon fill="white" stroke="black" points="436,-66.5 436,-85.5 582,-85.5 582,-66.5 436,-66.5"/>
<text text-anchor="middle" x="509" y="-73.5" font-family="Helvetica,sans-Serif" font-size="10.00">BoxWorld.checkAllCollisions</text>
</a>
</g>
</g>
<!-- Node3&#45;&gt;Node4 -->
<g id="edge3" class="edge"><title>Node3&#45;&gt;Node4</title>
<path fill="none" stroke="midnightblue" d="M409.879,-76C418.33,-76 427.079,-76 435.713,-76"/>
<polygon fill="midnightblue" stroke="midnightblue" points="409.746,-72.5001 399.746,-76 409.746,-79.5001 409.746,-72.5001"/>
</g>
<!-- Node15 -->
<g id="node15" class="node"><title>Node15</title>
<g id="a_node15"><a xlink:href="../../db/d97/class_box_world.html#aa7e2049d7be23e15fd2ec7fa2922ed79" target="_top" xlink:title="BoxWorld.handleKeyInput">
<polygon fill="white" stroke="black" points="441,-28.5 441,-47.5 577,-47.5 577,-28.5 441,-28.5"/>
<text text-anchor="middle" x="509" y="-35.5" font-family="Helvetica,sans-Serif" font-size="10.00">BoxWorld.handleKeyInput</text>
</a>
</g>
</g>
<!-- Node3&#45;&gt;Node15 -->
<g id="edge16" class="edge"><title>Node3&#45;&gt;Node15</title>
<path fill="none" stroke="midnightblue" d="M399.077,-64.032C421.358,-58.7069 447.229,-52.5238 468.166,-47.5201"/>
<polygon fill="midnightblue" stroke="midnightblue" points="398.035,-60.6823 389.122,-66.411 399.662,-67.4906 398.035,-60.6823"/>
</g>
<!-- Node5 -->
<g id="node5" class="node"><title>Node5</title>
<g id="a_node5"><a xlink:href="../../db/d97/class_box_world.html#a6794c083c2a0263c2f585f4ae4b7e39c" target="_top" xlink:title="BoxWorld.updateSprites">
<polygon fill="white" stroke="black" points="618.5,-66.5 618.5,-85.5 749.5,-85.5 749.5,-66.5 618.5,-66.5"/>
<text text-anchor="middle" x="684" y="-73.5" font-family="Helvetica,sans-Serif" font-size="10.00">BoxWorld.updateSprites</text>
</a>
</g>
</g>
<!-- Node4&#45;&gt;Node5 -->
<g id="edge4" class="edge"><title>Node4&#45;&gt;Node5</title>
<path fill="none" stroke="midnightblue" d="M592.354,-76C601.116,-76 609.936,-76 618.451,-76"/>
<polygon fill="midnightblue" stroke="midnightblue" points="592.115,-72.5001 582.115,-76 592.115,-79.5001 592.115,-72.5001"/>
</g>
<!-- Node6 -->
<g id="node6" class="node"><title>Node6</title>
<g id="a_node6"><a xlink:href="../../db/d97/class_box_world.html#ad20a4e43406c44f4bbf201d1d1028998" target="_top" xlink:title="BoxWorld.start">
<polygon fill="white" stroke="black" points="786,-66.5 786,-85.5 872,-85.5 872,-66.5 786,-66.5"/>
<text text-anchor="middle" x="829" y="-73.5" font-family="Helvetica,sans-Serif" font-size="10.00">BoxWorld.start</text>
</a>
</g>
</g>
<!-- Node5&#45;&gt;Node6 -->
<g id="edge5" class="edge"><title>Node5&#45;&gt;Node6</title>
<path fill="none" stroke="midnightblue" d="M759.898,-76C768.837,-76 777.705,-76 785.941,-76"/>
<polygon fill="midnightblue" stroke="midnightblue" points="759.806,-72.5001 749.806,-76 759.806,-79.5001 759.806,-72.5001"/>
</g>
<!-- Node6&#45;&gt;Node2 -->
<g id="edge15" class="edge"><title>Node6&#45;&gt;Node2</title>
<path fill="none" stroke="midnightblue" d="M786.491,-88.0561C774.793,-90.9204 761.987,-93.561 750,-95 549.66,-119.049 496.559,-117.142 296,-95 279.167,-93.1416 260.793,-89.2725 245.449,-85.5079"/>
<polygon fill="midnightblue" stroke="midnightblue" points="787.62,-91.3799 796.437,-85.506 785.881,-84.5993 787.62,-91.3799"/>
</g>
<!-- Node6&#45;&gt;Node7 -->
<g id="edge6" class="edge"><title>Node6&#45;&gt;Node7</title>
<path fill="none" stroke="midnightblue" d="M882.33,-76C891.062,-76 899.968,-76 908.244,-76"/>
<polygon fill="midnightblue" stroke="midnightblue" points="882.207,-72.5001 872.207,-76 882.207,-79.5001 882.207,-72.5001"/>
</g>
<!-- Node8 -->
<g id="node8" class="node"><title>Node8</title>
<g id="a_node8"><a xlink:href="../../d2/db8/class_menu.html#a3c99ad09e9f2f975c1a0d0597642651a" target="_top" xlink:title="Menu.init">
<polygon fill="white" stroke="black" points="1022,-85.5 1022,-104.5 1082,-104.5 1082,-85.5 1022,-85.5"/>
<text text-anchor="middle" x="1052" y="-92.5" font-family="Helvetica,sans-Serif" font-size="10.00">Menu.init</text>
</a>
</g>
</g>
<!-- Node7&#45;&gt;Node8 -->
<g id="edge7" class="edge"><title>Node7&#45;&gt;Node8</title>
<path fill="none" stroke="midnightblue" d="M995.745,-84.8074C1004.69,-86.4574 1013.79,-88.1355 1021.95,-89.6411"/>
<polygon fill="midnightblue" stroke="midnightblue" points="996.238,-81.3392 985.769,-82.967 994.968,-88.2231 996.238,-81.3392"/>
</g>
<!-- Node9 -->
<g id="node9" class="node"><title>Node9</title>
<g id="a_node9"><a xlink:href="../../d1/de1/class_end_screen.html#a1264ffb72b3a3032443f9c4087222aef" target="_top" xlink:title="EndScreen.init">
<polygon fill="white" stroke="black" points="1120,-142.5 1120,-161.5 1206,-161.5 1206,-142.5 1120,-142.5"/>
<text text-anchor="middle" x="1163" y="-149.5" font-family="Helvetica,sans-Serif" font-size="10.00">EndScreen.init</text>
</a>
</g>
</g>
<!-- Node8&#45;&gt;Node9 -->
<g id="edge8" class="edge"><title>Node8&#45;&gt;Node9</title>
<path fill="none" stroke="midnightblue" d="M1076.83,-109.87C1088.96,-117.196 1104.06,-125.947 1118,-133 1124.53,-136.305 1131.77,-139.583 1138.46,-142.462"/>
<polygon fill="midnightblue" stroke="midnightblue" points="1078.56,-106.824 1068.2,-104.597 1074.91,-112.798 1078.56,-106.824"/>
</g>
<!-- Node11 -->
<g id="node11" class="node"><title>Node11</title>
<g id="a_node11"><a xlink:href="../../d4/d2f/class_lose_screen.html#a34f2cc2c803500316c9b8d854854d758" target="_top" xlink:title="LoseScreen.init">
<polygon fill="white" stroke="black" points="1118,-104.5 1118,-123.5 1208,-123.5 1208,-104.5 1118,-104.5"/>
<text text-anchor="middle" x="1163" y="-111.5" font-family="Helvetica,sans-Serif" font-size="10.00">LoseScreen.init</text>
</a>
</g>
</g>
<!-- Node8&#45;&gt;Node11 -->
<g id="edge10" class="edge"><title>Node8&#45;&gt;Node11</title>
<path fill="none" stroke="midnightblue" d="M1092.11,-101.817C1100.48,-103.277 1109.39,-104.829 1117.94,-106.319"/>
<polygon fill="midnightblue" stroke="midnightblue" points="1092.66,-98.361 1082.21,-100.092 1091.46,-105.257 1092.66,-98.361"/>
</g>
<!-- Node14 -->
<g id="node14" class="node"><title>Node14</title>
<g id="a_node14"><a xlink:href="../../d0/d4b/class_main.html#a7595d13c514a02c35aca322dd91d2063" target="_top" xlink:title="Main.start">
<polygon fill="white" stroke="black" points="1130.5,-66.5 1130.5,-85.5 1195.5,-85.5 1195.5,-66.5 1130.5,-66.5"/>
<text text-anchor="middle" x="1163" y="-73.5" font-family="Helvetica,sans-Serif" font-size="10.00">Main.start</text>
</a>
</g>
</g>
<!-- Node8&#45;&gt;Node14 -->
<g id="edge14" class="edge"><title>Node8&#45;&gt;Node14</title>
<path fill="none" stroke="midnightblue" d="M1092.38,-88.1362C1104.88,-85.957 1118.53,-83.5767 1130.41,-81.506"/>
<polygon fill="midnightblue" stroke="midnightblue" points="1091.46,-84.743 1082.21,-89.9083 1092.66,-91.6391 1091.46,-84.743"/>
</g>
<!-- Node10 -->
<g id="node10" class="node"><title>Node10</title>
<g id="a_node10"><a xlink:href="../../d6/d4f/class_item_box_world.html#a2ed12a6b39993faedc05cc682204476d" target="_top" xlink:title="ItemBoxWorld.winLevel">
<polygon fill="white" stroke="black" points="1248.5,-142.5 1248.5,-161.5 1373.5,-161.5 1373.5,-142.5 1248.5,-142.5"/>
<text text-anchor="middle" x="1311" y="-149.5" font-family="Helvetica,sans-Serif" font-size="10.00">ItemBoxWorld.winLevel</text>
</a>
</g>
</g>
<!-- Node9&#45;&gt;Node10 -->
<g id="edge9" class="edge"><title>Node9&#45;&gt;Node10</title>
<path fill="none" stroke="midnightblue" d="M1216.35,-152C1226.71,-152 1237.68,-152 1248.31,-152"/>
<polygon fill="midnightblue" stroke="midnightblue" points="1216.23,-148.5 1206.23,-152 1216.23,-155.5 1216.23,-148.5"/>
</g>
<!-- Node12 -->
<g id="node12" class="node"><title>Node12</title>
<g id="a_node12"><a xlink:href="../../db/d97/class_box_world.html#a72bacb2a6757900d8835249929fcc838" target="_top" xlink:title="BoxWorld.loseGame">
<polygon fill="white" stroke="black" points="1255,-47.5 1255,-66.5 1367,-66.5 1367,-47.5 1255,-47.5"/>
<text text-anchor="middle" x="1311" y="-54.5" font-family="Helvetica,sans-Serif" font-size="10.00">BoxWorld.loseGame</text>
</a>
</g>
</g>
<!-- Node11&#45;&gt;Node12 -->
<g id="edge11" class="edge"><title>Node11&#45;&gt;Node12</title>
<path fill="none" stroke="midnightblue" d="M1197.82,-100.797C1224.63,-90.331 1261.45,-75.9538 1285.48,-66.5716"/>
<polygon fill="midnightblue" stroke="midnightblue" points="1196.48,-97.5623 1188.44,-104.459 1199.03,-104.083 1196.48,-97.5623"/>
</g>
<!-- Node13 -->
<g id="node13" class="node"><title>Node13</title>
<g id="a_node13"><a xlink:href="../../d6/d4f/class_item_box_world.html#a295cf7212ad54fa599e2a2d85ee0523d" target="_top" xlink:title="ItemBoxWorld.loseGame">
<polygon fill="white" stroke="black" points="1244,-104.5 1244,-123.5 1378,-123.5 1378,-104.5 1244,-104.5"/>
<text text-anchor="middle" x="1311" y="-111.5" font-family="Helvetica,sans-Serif" font-size="10.00">ItemBoxWorld.loseGame</text>
</a>
</g>
</g>
<!-- Node11&#45;&gt;Node13 -->
<g id="edge13" class="edge"><title>Node11&#45;&gt;Node13</title>
<path fill="none" stroke="midnightblue" d="M1218.47,-114C1226.75,-114 1235.37,-114 1243.86,-114"/>
<polygon fill="midnightblue" stroke="midnightblue" points="1218.2,-110.5 1208.2,-114 1218.2,-117.5 1218.2,-110.5"/>
</g>
<!-- Node12&#45;&gt;Node4 -->
<g id="edge12" class="edge"><title>Node12&#45;&gt;Node4</title>
<path fill="none" stroke="midnightblue" d="M1244.87,-49.518C1192.98,-44.2011 1118.43,-38 1053,-38 828,-38 828,-38 828,-38 732.227,-38 621.368,-55.2037 559.084,-66.46"/>
<polygon fill="midnightblue" stroke="midnightblue" points="1244.63,-53.0116 1254.94,-50.5675 1245.36,-46.0494 1244.63,-53.0116"/>
</g>
<!-- Node15&#45;&gt;Node1 -->
<g id="edge17" class="edge"><title>Node15&#45;&gt;Node1</title>
<path fill="none" stroke="midnightblue" d="M430.606,-38C343.639,-38 204.221,-38 124.408,-38"/>
<polygon fill="midnightblue" stroke="midnightblue" points="430.682,-41.5001 440.682,-38 430.682,-34.5001 430.682,-41.5001"/>
</g>
</g>
</svg>
        <g id="navigator" transform="translate(0 0)" fill="#404254">
                <rect fill="#f2f5e9" fill-opacity="0.5" stroke="#606060" stroke-width=".5" x="0" y="0" width="60" height="60"/>
                <use id="zoomplus" xlink:href="#zoomPlus" x="17" y="9" onmousedown="handleZoom(evt,'in')"/>
                <use id="zoomminus" xlink:href="#zoomMin" x="42" y="9" onmousedown="handleZoom(evt,'out')"/>
                <use id="reset" xlink:href="#resetDef" x="30" y="36" onmousedown="handleReset()"/>
                <g id="arrowUp" xlink:href="#dirArrow" transform="translate(30 24)" onmousedown="handlePan(0,-1)">
                  <use xlink:href="#rim" fill="#404040">
                        <set attributeName="fill" to="#808080" begin="arrowUp.mouseover" end="arrowUp.mouseout"/>
                  </use>
                  <path fill="none" stroke="white" stroke-width="1.5" d="M0,-3.0v7 M-2.5,-0.5L0,-3.0L2.5,-0.5"/>
                </g>
                <g id="arrowRight" xlink:href="#dirArrow" transform="rotate(90) translate(36 -43)" onmousedown="handlePan(1,0)">
                  <use xlink:href="#rim" fill="#404040">
                        <set attributeName="fill" to="#808080" begin="arrowRight.mouseover" end="arrowRight.mouseout"/>
                  </use>
                  <path fill="none" stroke="white" stroke-width="1.5" d="M0,-3.0v7 M-2.5,-0.5L0,-3.0L2.5,-0.5"/>
                </g>
                <g id="arrowDown" xlink:href="#dirArrow" transform="rotate(180) translate(-30 -48)" onmousedown="handlePan(0,1)">
                  <use xlink:href="#rim" fill="#404040">
                        <set attributeName="fill" to="#808080" begin="arrowDown.mouseover" end="arrowDown.mouseout"/>
                  </use>
                  <path fill="none" stroke="white" stroke-width="1.5" d="M0,-3.0v7 M-2.5,-0.5L0,-3.0L2.5,-0.5"/>
                </g>
                <g id="arrowLeft" xlink:href="#dirArrow" transform="rotate(270) translate(-36 17)" onmousedown="handlePan(-1,0)">
                  <use xlink:href="#rim" fill="#404040">
                        <set attributeName="fill" to="#808080" begin="arrowLeft.mouseover" end="arrowLeft.mouseout"/>
                  </use>
                  <path fill="none" stroke="white" stroke-width="1.5" d="M0,-3.0v7 M-2.5,-0.5L0,-3.0L2.5,-0.5"/>
                </g>
        </g>
        <svg viewBox="0 0 15 15" width="100%" height="30px" preserveAspectRatio="xMaxYMin meet">
         <g id="arrow_out" transform="scale(0.3 0.3)">
          <a xlink:href="class_box_world_a726e747e023543658d7a345cc6466ccb_icgraph_org.svg" target="_base">
           <rect id="button" ry="5" rx="5" y="6" x="6" height="38" width="38"
                fill="#f2f5e9" fill-opacity="0.5" stroke="#606060" stroke-width="1.0"/>
           <path id="arrow"
             d="M 11.500037,31.436501 C 11.940474,20.09759 22.043105,11.32322 32.158766,21.979434 L 37.068811,17.246167 C 37.068811,17.246167 37.088388,32 37.088388,32 L 22.160133,31.978069 C 22.160133,31.978069 26.997745,27.140456 26.997745,27.140456 C 18.528582,18.264221 13.291696,25.230495 11.500037,31.436501 z"
             style="fill:#404040;"/>
          </a>
         </g>
        </svg>
</svg>
