<?xml version="1.0" encoding="UTF-8" standalone="no"?>
<!DOCTYPE svg PUBLIC "-//W3C//DTD SVG 1.1//EN"
 "http://www.w3.org/Graphics/SVG/1.1/DTD/svg11.dtd">
<!-- Generated by graphviz version 2.36.0 (20140111.2315)
 -->
<!-- Title: BoxWorld.checkAllCollisions Pages: 1 -->
<svg width="1744pt" height="132pt"
 viewBox="0.00 0.00 1744.00 132.00" xmlns="http://www.w3.org/2000/svg" xmlns:xlink="http://www.w3.org/1999/xlink">
<g id="graph0" class="graph" transform="scale(1 1) rotate(0) translate(4 128)">
<title>BoxWorld.checkAllCollisions</title>
<polygon fill="white" stroke="none" points="-4,4 -4,-128 1740,-128 1740,4 -4,4"/>
<!-- Node1 -->
<g id="node1" class="node"><title>Node1</title>
<polygon fill="#bfbfbf" stroke="black" points="0,-47.5 0,-66.5 146,-66.5 146,-47.5 0,-47.5"/>
<text text-anchor="middle" x="73" y="-54.5" font-family="Helvetica,sans-Serif" font-size="10.00">BoxWorld.checkAllCollisions</text>
</g>
<!-- Node2 -->
<g id="node2" class="node"><title>Node2</title>
<g id="a_node2"><a xlink:href="../../db/d97/class_box_world.html#a6794c083c2a0263c2f585f4ae4b7e39c" target="_top" xlink:title="BoxWorld.updateSprites">
<polygon fill="white" stroke="black" points="182.5,-47.5 182.5,-66.5 313.5,-66.5 313.5,-47.5 182.5,-47.5"/>
<text text-anchor="middle" x="248" y="-54.5" font-family="Helvetica,sans-Serif" font-size="10.00">BoxWorld.updateSprites</text>
</a>
</g>
</g>
<!-- Node1&#45;&gt;Node2 -->
<g id="edge1" class="edge"><title>Node1&#45;&gt;Node2</title>
<path fill="none" stroke="midnightblue" d="M156.354,-57C165.116,-57 173.936,-57 182.451,-57"/>
<polygon fill="midnightblue" stroke="midnightblue" points="156.115,-53.5001 146.115,-57 156.115,-60.5001 156.115,-53.5001"/>
</g>
<!-- Node3 -->
<g id="node3" class="node"><title>Node3</title>
<g id="a_node3"><a xlink:href="../../db/d97/class_box_world.html#ad20a4e43406c44f4bbf201d1d1028998" target="_top" xlink:title="BoxWorld.start">
<polygon fill="white" stroke="black" points="350,-47.5 350,-66.5 436,-66.5 436,-47.5 350,-47.5"/>
<text text-anchor="middle" x="393" y="-54.5" font-family="Helvetica,sans-Serif" font-size="10.00">BoxWorld.start</text>
</a>
</g>
</g>
<!-- Node2&#45;&gt;Node3 -->
<g id="edge2" class="edge"><title>Node2&#45;&gt;Node3</title>
<path fill="none" stroke="midnightblue" d="M323.898,-57C332.837,-57 341.705,-57 349.941,-57"/>
<polygon fill="midnightblue" stroke="midnightblue" points="323.806,-53.5001 313.806,-57 323.806,-60.5001 323.806,-53.5001"/>
</g>
<!-- Node4 -->
<g id="node4" class="node"><title>Node4</title>
<g id="a_node4"><a xlink:href="../../db/d97/class_box_world.html#a55bf92d3f466bfaade0f6d199d8c9bd9" target="_top" xlink:title="BoxWorld.init">
<polygon fill="white" stroke="black" points="1080.5,-66.5 1080.5,-85.5 1157.5,-85.5 1157.5,-66.5 1080.5,-66.5"/>
<text text-anchor="middle" x="1119" y="-73.5" font-family="Helvetica,sans-Serif" font-size="10.00">BoxWorld.init</text>
</a>
</g>
</g>
<!-- Node3&#45;&gt;Node4 -->
<g id="edge3" class="edge"><title>Node3&#45;&gt;Node4</title>
<path fill="none" stroke="midnightblue" d="M446.401,-51.0209C499.802,-45.4509 585.056,-38 659,-38 659,-38 659,-38 817,-38 918.242,-38 944.174,-40.1295 1044,-57 1057.86,-59.3429 1072.93,-63.003 1085.83,-66.488"/>
<polygon fill="midnightblue" stroke="midnightblue" points="445.733,-47.572 436.158,-52.107 446.471,-54.5329 445.733,-47.572"/>
</g>
<!-- Node12 -->
<g id="node12" class="node"><title>Node12</title>
<g id="a_node12"><a xlink:href="../../d6/d4f/class_item_box_world.html#aa559fc2680327b41fb376e2eda8e82e3" target="_top" xlink:title="ItemBoxWorld.init">
<polygon fill="white" stroke="black" points="472.5,-66.5 472.5,-85.5 571.5,-85.5 571.5,-66.5 472.5,-66.5"/>
<text text-anchor="middle" x="522" y="-73.5" font-family="Helvetica,sans-Serif" font-size="10.00">ItemBoxWorld.init</text>
</a>
</g>
</g>
<!-- Node3&#45;&gt;Node12 -->
<g id="edge12" class="edge"><title>Node3&#45;&gt;Node12</title>
<path fill="none" stroke="midnightblue" d="M446.241,-64.8156C454.865,-66.1058 463.775,-67.4388 472.307,-68.7152"/>
<polygon fill="midnightblue" stroke="midnightblue" points="446.697,-61.3449 436.289,-63.3267 445.661,-68.2679 446.697,-61.3449"/>
</g>
<!-- Node5 -->
<g id="node5" class="node"><title>Node5</title>
<g id="a_node5"><a xlink:href="../../d2/db8/class_menu.html#a3c99ad09e9f2f975c1a0d0597642651a" target="_top" xlink:title="Menu.init">
<polygon fill="white" stroke="black" points="1194,-66.5 1194,-85.5 1254,-85.5 1254,-66.5 1194,-66.5"/>
<text text-anchor="middle" x="1224" y="-73.5" font-family="Helvetica,sans-Serif" font-size="10.00">Menu.init</text>
</a>
</g>
</g>
<!-- Node4&#45;&gt;Node5 -->
<g id="edge4" class="edge"><title>Node4&#45;&gt;Node5</title>
<path fill="none" stroke="midnightblue" d="M1168.03,-76C1176.89,-76 1185.87,-76 1193.95,-76"/>
<polygon fill="midnightblue" stroke="midnightblue" points="1167.77,-72.5001 1157.77,-76 1167.77,-79.5001 1167.77,-72.5001"/>
</g>
<!-- Node6 -->
<g id="node6" class="node"><title>Node6</title>
<g id="a_node6"><a xlink:href="../../d1/de1/class_end_screen.html#a1264ffb72b3a3032443f9c4087222aef" target="_top" xlink:title="EndScreen.init">
<polygon fill="white" stroke="black" points="1292,-66.5 1292,-85.5 1378,-85.5 1378,-66.5 1292,-66.5"/>
<text text-anchor="middle" x="1335" y="-73.5" font-family="Helvetica,sans-Serif" font-size="10.00">EndScreen.init</text>
</a>
</g>
</g>
<!-- Node5&#45;&gt;Node6 -->
<g id="edge5" class="edge"><title>Node5&#45;&gt;Node6</title>
<path fill="none" stroke="midnightblue" d="M1264.29,-76C1273.15,-76 1282.6,-76 1291.59,-76"/>
<polygon fill="midnightblue" stroke="midnightblue" points="1264.21,-72.5001 1254.21,-76 1264.21,-79.5001 1264.21,-72.5001"/>
</g>
<!-- Node9 -->
<g id="node9" class="node"><title>Node9</title>
<g id="a_node9"><a xlink:href="../../d4/d2f/class_lose_screen.html#a34f2cc2c803500316c9b8d854854d758" target="_top" xlink:title="LoseScreen.init">
<polygon fill="white" stroke="black" points="1290,-28.5 1290,-47.5 1380,-47.5 1380,-28.5 1290,-28.5"/>
<text text-anchor="middle" x="1335" y="-35.5" font-family="Helvetica,sans-Serif" font-size="10.00">LoseScreen.init</text>
</a>
</g>
</g>
<!-- Node5&#45;&gt;Node9 -->
<g id="edge8" class="edge"><title>Node5&#45;&gt;Node9</title>
<path fill="none" stroke="midnightblue" d="M1262.21,-63.0282C1276.73,-57.9656 1293.08,-52.2659 1306.5,-47.5859"/>
<polygon fill="midnightblue" stroke="midnightblue" points="1260.8,-59.8141 1252.51,-66.411 1263.1,-66.4239 1260.8,-59.8141"/>
</g>
<!-- Node11 -->
<g id="node11" class="node"><title>Node11</title>
<g id="a_node11"><a xlink:href="../../d0/d4b/class_main.html#a7595d13c514a02c35aca322dd91d2063" target="_top" xlink:title="Main.start">
<polygon fill="white" stroke="black" points="1302.5,-104.5 1302.5,-123.5 1367.5,-123.5 1367.5,-104.5 1302.5,-104.5"/>
<text text-anchor="middle" x="1335" y="-111.5" font-family="Helvetica,sans-Serif" font-size="10.00">Main.start</text>
</a>
</g>
</g>
<!-- Node5&#45;&gt;Node11 -->
<g id="edge11" class="edge"><title>Node5&#45;&gt;Node11</title>
<path fill="none" stroke="midnightblue" d="M1262.21,-88.9718C1276.73,-94.0344 1293.08,-99.7341 1306.5,-104.414"/>
<polygon fill="midnightblue" stroke="midnightblue" points="1263.1,-85.5761 1252.51,-85.589 1260.8,-92.1859 1263.1,-85.5761"/>
</g>
<!-- Node7 -->
<g id="node7" class="node"><title>Node7</title>
<g id="a_node7"><a xlink:href="../../d6/d4f/class_item_box_world.html#a2ed12a6b39993faedc05cc682204476d" target="_top" xlink:title="ItemBoxWorld.winLevel">
<polygon fill="white" stroke="black" points="1416.5,-66.5 1416.5,-85.5 1541.5,-85.5 1541.5,-66.5 1416.5,-66.5"/>
<text text-anchor="middle" x="1479" y="-73.5" font-family="Helvetica,sans-Serif" font-size="10.00">ItemBoxWorld.winLevel</text>
</a>
</g>
</g>
<!-- Node6&#45;&gt;Node7 -->
<g id="edge6" class="edge"><title>Node6&#45;&gt;Node7</title>
<path fill="none" stroke="midnightblue" d="M1388.34,-76C1397.5,-76 1407.11,-76 1416.5,-76"/>
<polygon fill="midnightblue" stroke="midnightblue" points="1388.22,-72.5001 1378.22,-76 1388.22,-79.5001 1388.22,-72.5001"/>
</g>
<!-- Node8 -->
<g id="node8" class="node"><title>Node8</title>
<g id="a_node8"><a xlink:href="../../d6/d4f/class_item_box_world.html#ae442d947b4dafc944336ee27628d2175" target="_top" xlink:title="ItemBoxWorld.handleKeyInput">
<polygon fill="white" stroke="black" points="1578,-66.5 1578,-85.5 1736,-85.5 1736,-66.5 1578,-66.5"/>
<text text-anchor="middle" x="1657" y="-73.5" font-family="Helvetica,sans-Serif" font-size="10.00">ItemBoxWorld.handleKeyInput</text>
</a>
</g>
</g>
<!-- Node7&#45;&gt;Node8 -->
<g id="edge7" class="edge"><title>Node7&#45;&gt;Node8</title>
<path fill="none" stroke="midnightblue" d="M1551.57,-76C1560.2,-76 1569.05,-76 1577.77,-76"/>
<polygon fill="midnightblue" stroke="midnightblue" points="1551.56,-72.5001 1541.56,-76 1551.56,-79.5001 1551.56,-72.5001"/>
</g>
<!-- Node10 -->
<g id="node10" class="node"><title>Node10</title>
<g id="a_node10"><a xlink:href="../../db/d97/class_box_world.html#a72bacb2a6757900d8835249929fcc838" target="_top" xlink:title="BoxWorld.loseGame">
<polygon fill="white" stroke="black" points="1423,-9.5 1423,-28.5 1535,-28.5 1535,-9.5 1423,-9.5"/>
<text text-anchor="middle" x="1479" y="-16.5" font-family="Helvetica,sans-Serif" font-size="10.00">BoxWorld.loseGame</text>
</a>
</g>
</g>
<!-- Node9&#45;&gt;Node10 -->
<g id="edge9" class="edge"><title>Node9&#45;&gt;Node10</title>
<path fill="none" stroke="midnightblue" d="M1390.2,-30.7473C1400.9,-29.3165 1412.13,-27.8135 1422.85,-26.3786"/>
<polygon fill="midnightblue" stroke="midnightblue" points="1389.6,-27.2971 1380.15,-32.0924 1390.53,-34.2352 1389.6,-27.2971"/>
</g>
<!-- Node10&#45;&gt;Node1 -->
<g id="edge10" class="edge"><title>Node10&#45;&gt;Node1</title>
<path fill="none" stroke="midnightblue" d="M1412.59,-11.3825C1361.56,-6.09633 1288.87,-0 1225,-0 392,-0 392,-0 392,-0 285.713,-0 162.533,-31.233 105.71,-47.4595"/>
<polygon fill="midnightblue" stroke="midnightblue" points="1412.5,-14.8929 1422.81,-12.4613 1413.24,-7.93152 1412.5,-14.8929"/>
</g>
<!-- Node13 -->
<g id="node13" class="node"><title>Node13</title>
<g id="a_node13"><a xlink:href="../../db/d97/class_box_world.html#aad670712776afe126e51791097027e05" target="_top" xlink:title="BoxWorld.winLevel">
<polygon fill="white" stroke="black" points="608.5,-104.5 608.5,-123.5 711.5,-123.5 711.5,-104.5 608.5,-104.5"/>
<text text-anchor="middle" x="660" y="-111.5" font-family="Helvetica,sans-Serif" font-size="10.00">BoxWorld.winLevel</text>
</a>
</g>
</g>
<!-- Node12&#45;&gt;Node13 -->
<g id="edge13" class="edge"><title>Node12&#45;&gt;Node13</title>
<path fill="none" stroke="midnightblue" d="M567.087,-88.3183C585.772,-93.5393 607.218,-99.5316 624.692,-104.414"/>
<polygon fill="midnightblue" stroke="midnightblue" points="567.892,-84.9092 557.319,-85.589 566.008,-91.651 567.892,-84.9092"/>
</g>
<!-- Node13&#45;&gt;Node1 -->
<g id="edge14" class="edge"><title>Node13&#45;&gt;Node1</title>
<path fill="none" stroke="midnightblue" d="M598.245,-111.006C507.422,-106.113 330.979,-94.9955 182,-76 162.454,-73.5078 141.059,-69.9251 122.506,-66.5411"/>
<polygon fill="midnightblue" stroke="midnightblue" points="598.186,-114.508 608.358,-111.544 598.558,-107.517 598.186,-114.508"/>
</g>
<!-- Node14 -->
<g id="node14" class="node"><title>Node14</title>
<g id="a_node14"><a xlink:href="../../db/d97/class_box_world.html#aa7e2049d7be23e15fd2ec7fa2922ed79" target="_top" xlink:title="BoxWorld.handleKeyInput">
<polygon fill="white" stroke="black" points="748,-104.5 748,-123.5 884,-123.5 884,-104.5 748,-104.5"/>
<text text-anchor="middle" x="816" y="-111.5" font-family="Helvetica,sans-Serif" font-size="10.00">BoxWorld.handleKeyInput</text>
</a>
</g>
</g>
<!-- Node13&#45;&gt;Node14 -->
<g id="edge15" class="edge"><title>Node13&#45;&gt;Node14</title>
<path fill="none" stroke="midnightblue" d="M722.075,-114C730.591,-114 739.378,-114 747.996,-114"/>
<polygon fill="midnightblue" stroke="midnightblue" points="721.852,-110.5 711.852,-114 721.852,-117.5 721.852,-110.5"/>
</g>
<!-- Node15 -->
<g id="node15" class="node"><title>Node15</title>
<g id="a_node15"><a xlink:href="../../db/d97/class_box_world.html#a726e747e023543658d7a345cc6466ccb" target="_top" xlink:title="BoxWorld.createScene">
<polygon fill="white" stroke="black" points="920,-66.5 920,-85.5 1044,-85.5 1044,-66.5 920,-66.5"/>
<text text-anchor="middle" x="982" y="-73.5" font-family="Helvetica,sans-Serif" font-size="10.00">BoxWorld.createScene</text>
</a>
</g>
</g>
<!-- Node14&#45;&gt;Node15 -->
<g id="edge16" class="edge"><title>Node14&#45;&gt;Node15</title>
<path fill="none" stroke="midnightblue" d="M868.341,-102.104C891.393,-96.7626 918.221,-90.5463 939.913,-85.5201"/>
<polygon fill="midnightblue" stroke="midnightblue" points="867.336,-98.744 858.384,-104.411 868.916,-105.563 867.336,-98.744"/>
</g>
<!-- Node15&#45;&gt;Node4 -->
<g id="edge17" class="edge"><title>Node15&#45;&gt;Node4</title>
<path fill="none" stroke="midnightblue" d="M1054.28,-76C1063.23,-76 1072.08,-76 1080.22,-76"/>
<polygon fill="midnightblue" stroke="midnightblue" points="1054.18,-72.5001 1044.18,-76 1054.18,-79.5001 1054.18,-72.5001"/>
</g>
<!-- Node15&#45;&gt;Node12 -->
<g id="edge18" class="edge"><title>Node15&#45;&gt;Node12</title>
<path fill="none" stroke="midnightblue" d="M909.632,-76C815.569,-76 652.574,-76 571.58,-76"/>
<polygon fill="midnightblue" stroke="midnightblue" points="909.912,-79.5001 919.912,-76 909.912,-72.5001 909.912,-79.5001"/>
</g>
</g>
</svg>
