<?xml version="1.0" encoding="UTF-8" standalone="no"?>
<!DOCTYPE svg PUBLIC "-//W3C//DTD SVG 1.1//EN"
 "http://www.w3.org/Graphics/SVG/1.1/DTD/svg11.dtd">
<!-- Generated by graphviz version 2.36.0 (20140111.2315)
 -->
<!-- Title: BoxWorld.handleKeyInput Pages: 1 -->
<!--zoomable 540 -->
<svg id="main" version="1.1" xmlns="http://www.w3.org/2000/svg" xmlns:xlink="http://www.w3.org/1999/xlink" xml:space="preserve" onload="init(evt)">
<style type="text/css"><![CDATA[
.edge:hover path { stroke: red; }
.edge:hover polygon { stroke: red; fill: red; }
]]></style>
<script type="text/javascript"><![CDATA[
var edges = document.getElementsByTagName('g');
if (edges && edges.length) {
  for (var i=0;i<edges.length;i++) {
    if (edges[i].id.substr(0,4)=='edge') {
      edges[i].setAttribute('class','edge');
    }
  }
}
]]></script>
        <defs>
                <circle id="rim" cx="0" cy="0" r="7"/>
                <circle id="rim2" cx="0" cy="0" r="3.5"/>
                <g id="zoomPlus">
                        <use xlink:href="#rim" fill="#404040">
                                <set attributeName="fill" to="#808080" begin="zoomplus.mouseover" end="zoomplus.mouseout"/>
                        </use>
                        <path d="M-4,0h8M0,-4v8" fill="none" stroke="white" stroke-width="1.5" pointer-events="none"/>
                </g>
                <g id="zoomMin">
                        <use xlink:href="#rim" fill="#404040">
                                <set attributeName="fill" to="#808080" begin="zoomminus.mouseover" end="zoomminus.mouseout"/>
                        </use>
                        <path d="M-4,0h8" fill="none" stroke="white" stroke-width="1.5" pointer-events="none"/>
                </g>
                <g id="dirArrow">
                        <path fill="none" stroke="white" stroke-width="1.5" d="M0,-3.0v7 M-2.5,-0.5L0,-3.0L2.5,-0.5"/>
                </g>
               <g id="resetDef">
                       <use xlink:href="#rim2" fill="#404040">
                               <set attributeName="fill" to="#808080" begin="reset.mouseover" end="reset.mouseout"/>
                       </use>
               </g>
        </defs>

<script type="text/javascript">
var viewWidth = 1994;
var viewHeight = 540;
var sectionId = 'dynsection-16';
</script>
<script xlink:href="../../svgpan.js"/>
<svg id="graph" class="graph">
<g id="viewport">
<title>BoxWorld.handleKeyInput</title>
<polygon fill="white" stroke="none" points="-4,4 -4,-536 1990,-536 1990,4 -4,4"/>
<!-- Node1 -->
<g id="node1" class="node"><title>Node1</title>
<polygon fill="#bfbfbf" stroke="black" points="0,-446.5 0,-465.5 136,-465.5 136,-446.5 0,-446.5"/>
<text text-anchor="middle" x="68" y="-453.5" font-family="Helvetica,sans-Serif" font-size="10.00">BoxWorld.handleKeyInput</text>
</g>
<!-- Node2 -->
<g id="node2" class="node"><title>Node2</title>
<g id="a_node2"><a xlink:href="../../db/d97/class_box_world.html#adc4c9d78ffde3d052c4c92047eb98e55" target="_top" xlink:title="BoxWorld.allowMovement">
<polygon fill="white" stroke="black" points="1058.5,-408.5 1058.5,-427.5 1195.5,-427.5 1195.5,-408.5 1058.5,-408.5"/>
<text text-anchor="middle" x="1127" y="-415.5" font-family="Helvetica,sans-Serif" font-size="10.00">BoxWorld.allowMovement</text>
</a>
</g>
</g>
<!-- Node1&#45;&gt;Node2 -->
<g id="edge1" class="edge"><title>Node1&#45;&gt;Node2</title>
<path fill="none" stroke="midnightblue" d="M90.4782,-465.625C138.134,-486.076 256.757,-532 361,-532 361,-532 361,-532 746,-532 871.255,-532 904.447,-518.245 1022,-475 1051.49,-464.15 1082.78,-445.977 1103.25,-433.07"/>
<polygon fill="midnightblue" stroke="midnightblue" points="1105.32,-435.901 1111.84,-427.555 1101.54,-430.01 1105.32,-435.901"/>
</g>
<!-- Node7 -->
<g id="node7" class="node"><title>Node7</title>
<g id="a_node7"><a xlink:href="../../db/d97/class_box_world.html#a04c6bf977c4292a5433649fb3745fd6b" target="_top" xlink:title="BoxWorld.reset">
<polygon fill="white" stroke="black" points="701,-484.5 701,-503.5 789,-503.5 789,-484.5 701,-484.5"/>
<text text-anchor="middle" x="745" y="-491.5" font-family="Helvetica,sans-Serif" font-size="10.00">BoxWorld.reset</text>
</a>
</g>
</g>
<!-- Node1&#45;&gt;Node7 -->
<g id="edge6" class="edge"><title>Node1&#45;&gt;Node7</title>
<path fill="none" stroke="midnightblue" d="M132.082,-465.521C145.248,-467.241 159.057,-468.851 172,-470 362.284,-486.887 589.262,-491.945 690.58,-493.418"/>
<polygon fill="midnightblue" stroke="midnightblue" points="690.81,-496.921 700.858,-493.561 690.907,-489.922 690.81,-496.921"/>
</g>
<!-- Node8 -->
<g id="node8" class="node"><title>Node8</title>
<g id="a_node8"><a xlink:href="../../da/de2/class_sticky_box.html#aa1bb8f78f676b01c688d75d386758444" target="_top" xlink:title="StickyBox.setDirection">
<polygon fill="white" stroke="black" points="878,-446.5 878,-465.5 1002,-465.5 1002,-446.5 878,-446.5"/>
<text text-anchor="middle" x="940" y="-453.5" font-family="Helvetica,sans-Serif" font-size="10.00">StickyBox.setDirection</text>
</a>
</g>
</g>
<!-- Node1&#45;&gt;Node8 -->
<g id="edge9" class="edge"><title>Node1&#45;&gt;Node8</title>
<path fill="none" stroke="midnightblue" d="M136.267,-456C195.451,-456 283.944,-456 361,-456 361,-456 361,-456 541,-456 655.236,-456 787.917,-456 867.574,-456"/>
<polygon fill="midnightblue" stroke="midnightblue" points="867.976,-459.5 877.976,-456 867.976,-452.5 867.976,-459.5"/>
</g>
<!-- Node10 -->
<g id="node10" class="node"><title>Node10</title>
<g id="a_node10"><a xlink:href="../../db/d97/class_box_world.html#aad670712776afe126e51791097027e05" target="_top" xlink:title="BoxWorld.winLevel">
<polygon fill="white" stroke="black" points="172.5,-237.5 172.5,-256.5 275.5,-256.5 275.5,-237.5 172.5,-237.5"/>
<text text-anchor="middle" x="224" y="-244.5" font-family="Helvetica,sans-Serif" font-size="10.00">BoxWorld.winLevel</text>
</a>
</g>
</g>
<!-- Node1&#45;&gt;Node10 -->
<g id="edge10" class="edge"><title>Node1&#45;&gt;Node10</title>
<path fill="none" stroke="midnightblue" d="M76.0172,-446.477C99.9184,-414.039 178.407,-307.519 209.826,-264.879"/>
<polygon fill="midnightblue" stroke="midnightblue" points="212.827,-266.706 215.942,-256.579 207.192,-262.554 212.827,-266.706"/>
</g>
<!-- Node3 -->
<g id="node3" class="node"><title>Node3</title>
<g id="a_node3"><a xlink:href="../../da/de2/class_sticky_box.html#a6ba3f89630df9d81df5644a3e5f4e387" target="_top" xlink:title="StickyBox.getXDirection">
<polygon fill="white" stroke="black" points="1232.5,-294.5 1232.5,-313.5 1363.5,-313.5 1363.5,-294.5 1232.5,-294.5"/>
<text text-anchor="middle" x="1298" y="-301.5" font-family="Helvetica,sans-Serif" font-size="10.00">StickyBox.getXDirection</text>
</a>
</g>
</g>
<!-- Node2&#45;&gt;Node3 -->
<g id="edge2" class="edge"><title>Node2&#45;&gt;Node3</title>
<path fill="none" stroke="midnightblue" d="M1142.12,-408.477C1171.25,-388.827 1238.26,-343.627 1273.83,-319.63"/>
<polygon fill="midnightblue" stroke="midnightblue" points="1276.23,-322.232 1282.56,-313.738 1272.32,-316.429 1276.23,-322.232"/>
</g>
<!-- Node4 -->
<g id="node4" class="node"><title>Node4</title>
<g id="a_node4"><a xlink:href="../../da/de2/class_sticky_box.html#ab0bd7cafb7f243e3951558ddb8728b96" target="_top" xlink:title="StickyBox.getXPrev">
<polygon fill="white" stroke="black" points="1243.5,-446.5 1243.5,-465.5 1352.5,-465.5 1352.5,-446.5 1243.5,-446.5"/>
<text text-anchor="middle" x="1298" y="-453.5" font-family="Helvetica,sans-Serif" font-size="10.00">StickyBox.getXPrev</text>
</a>
</g>
</g>
<!-- Node2&#45;&gt;Node4 -->
<g id="edge3" class="edge"><title>Node2&#45;&gt;Node4</title>
<path fill="none" stroke="midnightblue" d="M1170.65,-427.589C1193.15,-432.649 1220.95,-438.9 1244.74,-444.249"/>
<polygon fill="midnightblue" stroke="midnightblue" points="1244.14,-447.701 1254.66,-446.48 1245.67,-440.871 1244.14,-447.701"/>
</g>
<!-- Node5 -->
<g id="node5" class="node"><title>Node5</title>
<g id="a_node5"><a xlink:href="../../da/de2/class_sticky_box.html#a69e5ccf2a79159c03dea2e048df13318" target="_top" xlink:title="StickyBox.getYDirection">
<polygon fill="white" stroke="black" points="1233,-256.5 1233,-275.5 1363,-275.5 1363,-256.5 1233,-256.5"/>
<text text-anchor="middle" x="1298" y="-263.5" font-family="Helvetica,sans-Serif" font-size="10.00">StickyBox.getYDirection</text>
</a>
</g>
</g>
<!-- Node2&#45;&gt;Node5 -->
<g id="edge4" class="edge"><title>Node2&#45;&gt;Node5</title>
<path fill="none" stroke="midnightblue" d="M1132.82,-408.282C1145.49,-383.721 1182.26,-318.718 1232,-285 1235.05,-282.932 1238.33,-281.086 1241.73,-279.438"/>
<polygon fill="midnightblue" stroke="midnightblue" points="1243.13,-282.648 1250.97,-275.523 1240.39,-276.204 1243.13,-282.648"/>
</g>
<!-- Node6 -->
<g id="node6" class="node"><title>Node6</title>
<g id="a_node6"><a xlink:href="../../da/de2/class_sticky_box.html#a4c6abed944faed9d9b226079e99cfc24" target="_top" xlink:title="StickyBox.getYPrev">
<polygon fill="white" stroke="black" points="1244,-408.5 1244,-427.5 1352,-427.5 1352,-408.5 1244,-408.5"/>
<text text-anchor="middle" x="1298" y="-415.5" font-family="Helvetica,sans-Serif" font-size="10.00">StickyBox.getYPrev</text>
</a>
</g>
</g>
<!-- Node2&#45;&gt;Node6 -->
<g id="edge5" class="edge"><title>Node2&#45;&gt;Node6</title>
<path fill="none" stroke="midnightblue" d="M1195.76,-418C1208.25,-418 1221.24,-418 1233.59,-418"/>
<polygon fill="midnightblue" stroke="midnightblue" points="1233.78,-421.5 1243.78,-418 1233.78,-414.5 1233.78,-421.5"/>
</g>
<!-- Node7&#45;&gt;Node8 -->
<g id="edge7" class="edge"><title>Node7&#45;&gt;Node8</title>
<path fill="none" stroke="midnightblue" d="M789.313,-485.472C816.255,-480.167 851.241,-473.279 880.613,-467.496"/>
<polygon fill="midnightblue" stroke="midnightblue" points="881.611,-470.867 890.746,-465.501 880.258,-463.999 881.611,-470.867"/>
</g>
<!-- Node9 -->
<g id="node9" class="node"><title>Node9</title>
<g id="a_node9"><a xlink:href="../../da/de2/class_sticky_box.html#a5d95d2ed2e13f0d87a44311db77f9e36" target="_top" xlink:title="StickyBox.setPreviousDirection">
<polygon fill="white" stroke="black" points="858,-408.5 858,-427.5 1022,-427.5 1022,-408.5 858,-408.5"/>
<text text-anchor="middle" x="940" y="-415.5" font-family="Helvetica,sans-Serif" font-size="10.00">StickyBox.setPreviousDirection</text>
</a>
</g>
</g>
<!-- Node7&#45;&gt;Node9 -->
<g id="edge8" class="edge"><title>Node7&#45;&gt;Node9</title>
<path fill="none" stroke="midnightblue" d="M761.773,-484.43C782.971,-471.934 822.141,-450.113 858,-437 864.98,-434.448 872.426,-432.154 879.869,-430.117"/>
<polygon fill="midnightblue" stroke="midnightblue" points="880.813,-433.488 889.613,-427.589 879.054,-426.713 880.813,-433.488"/>
</g>
<!-- Node11 -->
<g id="node11" class="node"><title>Node11</title>
<g id="a_node11"><a xlink:href="../../d6/d4f/class_item_box_world.html#aa559fc2680327b41fb376e2eda8e82e3" target="_top" xlink:title="ItemBoxWorld.init">
<polygon fill="white" stroke="black" points="312.5,-237.5 312.5,-256.5 411.5,-256.5 411.5,-237.5 312.5,-237.5"/>
<text text-anchor="middle" x="362" y="-244.5" font-family="Helvetica,sans-Serif" font-size="10.00">ItemBoxWorld.init</text>
</a>
</g>
</g>
<!-- Node10&#45;&gt;Node11 -->
<g id="edge11" class="edge"><title>Node10&#45;&gt;Node11</title>
<path fill="none" stroke="midnightblue" d="M275.641,-247C284.218,-247 293.189,-247 301.958,-247"/>
<polygon fill="midnightblue" stroke="midnightblue" points="302.123,-250.5 312.123,-247 302.123,-243.5 302.123,-250.5"/>
</g>
<!-- Node12 -->
<g id="node12" class="node"><title>Node12</title>
<g id="a_node12"><a xlink:href="../../db/d97/class_box_world.html#a25c34c68bdd68debd7de01a4f3b98bb1" target="_top" xlink:title="BoxWorld.setStage">
<polygon fill="white" stroke="black" points="486.5,-408.5 486.5,-427.5 593.5,-427.5 593.5,-408.5 486.5,-408.5"/>
<text text-anchor="middle" x="540" y="-415.5" font-family="Helvetica,sans-Serif" font-size="10.00">BoxWorld.setStage</text>
</a>
</g>
</g>
<!-- Node11&#45;&gt;Node12 -->
<g id="edge12" class="edge"><title>Node11&#45;&gt;Node12</title>
<path fill="none" stroke="midnightblue" d="M365.393,-256.707C372.644,-283.956 397.066,-361.6 448,-399 456.38,-405.153 466.304,-409.413 476.464,-412.342"/>
<polygon fill="midnightblue" stroke="midnightblue" points="475.688,-415.755 486.236,-414.761 477.37,-408.96 475.688,-415.755"/>
</g>
<!-- Node13 -->
<g id="node13" class="node"><title>Node13</title>
<g id="a_node13"><a xlink:href="../../db/d97/class_box_world.html#a3735494d6eeffc036cd757eb21170eb0" target="_top" xlink:title="BoxWorld.setObstacleXCoordinates">
<polygon fill="white" stroke="black" points="448.5,-370.5 448.5,-389.5 631.5,-389.5 631.5,-370.5 448.5,-370.5"/>
<text text-anchor="middle" x="540" y="-377.5" font-family="Helvetica,sans-Serif" font-size="10.00">BoxWorld.setObstacleXCoordinates</text>
</a>
</g>
</g>
<!-- Node11&#45;&gt;Node13 -->
<g id="edge13" class="edge"><title>Node11&#45;&gt;Node13</title>
<path fill="none" stroke="midnightblue" d="M367.292,-256.829C377.626,-279.253 406.169,-334.307 448,-361 451.18,-363.029 454.538,-364.847 458.016,-366.473"/>
<polygon fill="midnightblue" stroke="midnightblue" points="456.877,-369.789 467.457,-370.35 459.536,-363.314 456.877,-369.789"/>
</g>
<!-- Node14 -->
<g id="node14" class="node"><title>Node14</title>
<g id="a_node14"><a xlink:href="../../db/d97/class_box_world.html#ab45827804913790744cdbaaf8a222256" target="_top" xlink:title="BoxWorld.setObstacleYCoordinates">
<polygon fill="white" stroke="black" points="449,-332.5 449,-351.5 631,-351.5 631,-332.5 449,-332.5"/>
<text text-anchor="middle" x="540" y="-339.5" font-family="Helvetica,sans-Serif" font-size="10.00">BoxWorld.setObstacleYCoordinates</text>
</a>
</g>
</g>
<!-- Node11&#45;&gt;Node14 -->
<g id="edge14" class="edge"><title>Node11&#45;&gt;Node14</title>
<path fill="none" stroke="midnightblue" d="M370.774,-256.687C384.511,-273.099 414.781,-306.222 448,-323 452.653,-325.35 457.58,-327.409 462.638,-329.214"/>
<polygon fill="midnightblue" stroke="midnightblue" points="461.898,-332.653 472.489,-332.38 464.04,-325.988 461.898,-332.653"/>
</g>
<!-- Node15 -->
<g id="node15" class="node"><title>Node15</title>
<g id="a_node15"><a xlink:href="../../db/d97/class_box_world.html#aeeaafc4ff103ded208e6c9393eb4ceca" target="_top" xlink:title="BoxWorld.setRoot">
<polygon fill="white" stroke="black" points="490.5,-294.5 490.5,-313.5 589.5,-313.5 589.5,-294.5 490.5,-294.5"/>
<text text-anchor="middle" x="540" y="-301.5" font-family="Helvetica,sans-Serif" font-size="10.00">BoxWorld.setRoot</text>
</a>
</g>
</g>
<!-- Node11&#45;&gt;Node15 -->
<g id="edge15" class="edge"><title>Node11&#45;&gt;Node15</title>
<path fill="none" stroke="midnightblue" d="M385.479,-256.525C402.471,-263.529 426.47,-273.006 448,-280 461.126,-284.264 475.497,-288.327 488.863,-291.857"/>
<polygon fill="midnightblue" stroke="midnightblue" points="488.292,-295.325 498.851,-294.448 490.05,-288.549 488.292,-295.325"/>
</g>
<!-- Node16 -->
<g id="node16" class="node"><title>Node16</title>
<g id="a_node16"><a xlink:href="../../db/d97/class_box_world.html#a69798621c944e846f045aaf3937505f9" target="_top" xlink:title="BoxWorld.addStarterObjects">
<polygon fill="white" stroke="black" points="1636.5,-237.5 1636.5,-256.5 1787.5,-256.5 1787.5,-237.5 1636.5,-237.5"/>
<text text-anchor="middle" x="1712" y="-244.5" font-family="Helvetica,sans-Serif" font-size="10.00">BoxWorld.addStarterObjects</text>
</a>
</g>
</g>
<!-- Node11&#45;&gt;Node16 -->
<g id="edge16" class="edge"><title>Node11&#45;&gt;Node16</title>
<path fill="none" stroke="midnightblue" d="M411.672,-249.145C478.99,-252.899 596.27,-262.521 632,-285 656.415,-300.36 643.395,-323.947 668,-339 701.923,-359.753 1093.31,-380 1126,-380 1126,-380 1126,-380 1431,-380 1538.74,-380 1649.22,-298.655 1692.25,-263.198"/>
<polygon fill="midnightblue" stroke="midnightblue" points="1694.75,-265.672 1700.16,-256.565 1690.25,-260.308 1694.75,-265.672"/>
</g>
<!-- Node18 -->
<g id="node18" class="node"><title>Node18</title>
<g id="a_node18"><a xlink:href="../../d6/d4f/class_item_box_world.html#a7ead15fd9fd8095f928640161d48fdf8" target="_top" xlink:title="ItemBoxWorld.addAllItems">
<polygon fill="white" stroke="black" points="469.5,-218.5 469.5,-237.5 610.5,-237.5 610.5,-218.5 469.5,-218.5"/>
<text text-anchor="middle" x="540" y="-225.5" font-family="Helvetica,sans-Serif" font-size="10.00">ItemBoxWorld.addAllItems</text>
</a>
</g>
</g>
<!-- Node11&#45;&gt;Node18 -->
<g id="edge18" class="edge"><title>Node11&#45;&gt;Node18</title>
<path fill="none" stroke="midnightblue" d="M411.559,-241.758C426.304,-240.166 442.913,-238.373 459.148,-236.62"/>
<polygon fill="midnightblue" stroke="midnightblue" points="459.622,-240.09 469.188,-235.536 458.87,-233.13 459.622,-240.09"/>
</g>
<!-- Node22 -->
<g id="node22" class="node"><title>Node22</title>
<g id="a_node22"><a xlink:href="../../db/d97/class_box_world.html#ad20a4e43406c44f4bbf201d1d1028998" target="_top" xlink:title="BoxWorld.start">
<polygon fill="white" stroke="black" points="497,-180.5 497,-199.5 583,-199.5 583,-180.5 497,-180.5"/>
<text text-anchor="middle" x="540" y="-187.5" font-family="Helvetica,sans-Serif" font-size="10.00">BoxWorld.start</text>
</a>
</g>
</g>
<!-- Node11&#45;&gt;Node22 -->
<g id="edge23" class="edge"><title>Node11&#45;&gt;Node22</title>
<path fill="none" stroke="midnightblue" d="M381.45,-237.361C398.368,-228.862 424.317,-216.668 448,-209 460.358,-204.999 473.94,-201.636 486.755,-198.904"/>
<polygon fill="midnightblue" stroke="midnightblue" points="487.731,-202.278 496.83,-196.85 486.332,-195.419 487.731,-202.278"/>
</g>
<!-- Node31 -->
<g id="node31" class="node"><title>Node31</title>
<g id="a_node31"><a xlink:href="../../db/d97/class_box_world.html#a726e747e023543658d7a345cc6466ccb" target="_top" xlink:title="BoxWorld.createScene">
<polygon fill="white" stroke="black" points="1650,-66.5 1650,-85.5 1774,-85.5 1774,-66.5 1650,-66.5"/>
<text text-anchor="middle" x="1712" y="-73.5" font-family="Helvetica,sans-Serif" font-size="10.00">BoxWorld.createScene</text>
</a>
</g>
</g>
<!-- Node11&#45;&gt;Node31 -->
<g id="edge49" class="edge"><title>Node11&#45;&gt;Node31</title>
<path fill="none" stroke="midnightblue" d="M370.76,-237.283C384.474,-220.826 414.711,-187.638 448,-171 460.379,-164.813 929.754,-76 939,-76 939,-76 939,-76 1431,-76 1501.93,-76 1582.97,-76 1639.55,-76"/>
<polygon fill="midnightblue" stroke="midnightblue" points="1639.82,-79.5001 1649.82,-76 1639.82,-72.5001 1639.82,-79.5001"/>
</g>
<!-- Node36 -->
<g id="node36" class="node"><title>Node36</title>
<g id="a_node36"><a xlink:href="../../db/d97/class_box_world.html#a8d7d9f1ae1ebcd87ff73c09780b70629" target="_top" xlink:title="BoxWorld.setAnimation">
<polygon fill="white" stroke="black" points="476.5,-104.5 476.5,-123.5 603.5,-123.5 603.5,-104.5 476.5,-104.5"/>
<text text-anchor="middle" x="540" y="-111.5" font-family="Helvetica,sans-Serif" font-size="10.00">BoxWorld.setAnimation</text>
</a>
</g>
</g>
<!-- Node11&#45;&gt;Node36 -->
<g id="edge47" class="edge"><title>Node11&#45;&gt;Node36</title>
<path fill="none" stroke="midnightblue" d="M367.672,-237.429C378.593,-216.091 407.938,-164.429 448,-138 454.787,-133.522 462.374,-129.879 470.194,-126.914"/>
<polygon fill="midnightblue" stroke="midnightblue" points="471.482,-130.173 479.81,-123.624 469.215,-123.55 471.482,-130.173"/>
</g>
<!-- Node37 -->
<g id="node37" class="node"><title>Node37</title>
<g id="a_node37"><a xlink:href="../../db/d97/class_box_world.html#a61929851f1d60c397e1448e614f1d701" target="_top" xlink:title="BoxWorld.getAnimation">
<polygon fill="white" stroke="black" points="476,-66.5 476,-85.5 604,-85.5 604,-66.5 476,-66.5"/>
<text text-anchor="middle" x="540" y="-73.5" font-family="Helvetica,sans-Serif" font-size="10.00">BoxWorld.getAnimation</text>
</a>
</g>
</g>
<!-- Node11&#45;&gt;Node37 -->
<g id="edge48" class="edge"><title>Node11&#45;&gt;Node37</title>
<path fill="none" stroke="midnightblue" d="M365.393,-237.293C372.644,-210.044 397.066,-132.4 448,-95 453.506,-90.9567 459.68,-87.731 466.149,-85.1631"/>
<polygon fill="midnightblue" stroke="midnightblue" points="467.473,-88.4092 475.795,-81.853 465.201,-81.7882 467.473,-88.4092"/>
</g>
<!-- Node17 -->
<g id="node17" class="node"><title>Node17</title>
<g id="a_node17"><a xlink:href="../../db/d97/class_box_world.html#a2542cc74ebeba6a9768a443a55186901" target="_top" xlink:title="BoxWorld.createObstacleArray">
<polygon fill="white" stroke="black" points="1824.5,-237.5 1824.5,-256.5 1985.5,-256.5 1985.5,-237.5 1824.5,-237.5"/>
<text text-anchor="middle" x="1905" y="-244.5" font-family="Helvetica,sans-Serif" font-size="10.00">BoxWorld.createObstacleArray</text>
</a>
</g>
</g>
<!-- Node16&#45;&gt;Node17 -->
<g id="edge17" class="edge"><title>Node16&#45;&gt;Node17</title>
<path fill="none" stroke="midnightblue" d="M1787.67,-247C1796.41,-247 1805.4,-247 1814.31,-247"/>
<polygon fill="midnightblue" stroke="midnightblue" points="1814.34,-250.5 1824.34,-247 1814.34,-243.5 1814.34,-250.5"/>
</g>
<!-- Node19 -->
<g id="node19" class="node"><title>Node19</title>
<g id="a_node19"><a xlink:href="../../d6/d4f/class_item_box_world.html#a1890e6c53a4a73e44e9528009fde508d" target="_top" xlink:title="ItemBoxWorld.itemExists">
<polygon fill="white" stroke="black" points="678,-310.5 678,-329.5 812,-329.5 812,-310.5 678,-310.5"/>
<text text-anchor="middle" x="745" y="-317.5" font-family="Helvetica,sans-Serif" font-size="10.00">ItemBoxWorld.itemExists</text>
</a>
</g>
</g>
<!-- Node18&#45;&gt;Node19 -->
<g id="edge19" class="edge"><title>Node18&#45;&gt;Node19</title>
<path fill="none" stroke="midnightblue" d="M597.935,-237.593C609.721,-241.039 621.679,-245.702 632,-252 652.416,-264.459 648.199,-278.584 668,-292 676.91,-298.037 687.286,-302.967 697.454,-306.912"/>
<polygon fill="midnightblue" stroke="midnightblue" points="696.491,-310.286 707.086,-310.397 698.873,-303.703 696.491,-310.286"/>
</g>
<!-- Node21 -->
<g id="node21" class="node"><title>Node21</title>
<g id="a_node21"><a xlink:href="../../d6/d4f/class_item_box_world.html#af1bcde0672796e926560684004ed8e81" target="_top" xlink:title="ItemBoxWorld.addSingleItem">
<polygon fill="white" stroke="black" points="668,-263.5 668,-282.5 822,-282.5 822,-263.5 668,-263.5"/>
<text text-anchor="middle" x="745" y="-270.5" font-family="Helvetica,sans-Serif" font-size="10.00">ItemBoxWorld.addSingleItem</text>
</a>
</g>
</g>
<!-- Node18&#45;&gt;Node21 -->
<g id="edge21" class="edge"><title>Node18&#45;&gt;Node21</title>
<path fill="none" stroke="midnightblue" d="M584.051,-237.543C615.271,-244.464 657.683,-253.866 690.989,-261.249"/>
<polygon fill="midnightblue" stroke="midnightblue" points="690.49,-264.723 701.011,-263.47 692.005,-257.889 690.49,-264.723"/>
</g>
<!-- Node20 -->
<g id="node20" class="node"><title>Node20</title>
<g id="a_node20"><a xlink:href="../../db/d97/class_box_world.html#abb95adb381902ecab1db85efdc1ea6ff" target="_top" xlink:title="BoxWorld.getRoot">
<polygon fill="white" stroke="black" points="890,-332.5 890,-351.5 990,-351.5 990,-332.5 890,-332.5"/>
<text text-anchor="middle" x="940" y="-339.5" font-family="Helvetica,sans-Serif" font-size="10.00">BoxWorld.getRoot</text>
</a>
</g>
</g>
<!-- Node19&#45;&gt;Node20 -->
<g id="edge20" class="edge"><title>Node19&#45;&gt;Node20</title>
<path fill="none" stroke="midnightblue" d="M812.15,-327.54C833.999,-330.031 858.16,-332.785 879.483,-335.216"/>
<polygon fill="midnightblue" stroke="midnightblue" points="879.367,-338.725 889.699,-336.38 880.16,-331.77 879.367,-338.725"/>
</g>
<!-- Node21&#45;&gt;Node20 -->
<g id="edge22" class="edge"><title>Node21&#45;&gt;Node20</title>
<path fill="none" stroke="midnightblue" d="M773.666,-282.53C788.178,-287.696 806.18,-294.366 822,-301 838.317,-307.843 841.469,-311.69 858,-318 869.022,-322.207 881.115,-326.14 892.517,-329.555"/>
<polygon fill="midnightblue" stroke="midnightblue" points="891.734,-332.973 902.315,-332.417 893.697,-326.254 891.734,-332.973"/>
</g>
<!-- Node23 -->
<g id="node23" class="node"><title>Node23</title>
<g id="a_node23"><a xlink:href="../../db/d97/class_box_world.html#a6794c083c2a0263c2f585f4ae4b7e39c" target="_top" xlink:title="BoxWorld.updateSprites">
<polygon fill="white" stroke="black" points="679.5,-220.5 679.5,-239.5 810.5,-239.5 810.5,-220.5 679.5,-220.5"/>
<text text-anchor="middle" x="745" y="-227.5" font-family="Helvetica,sans-Serif" font-size="10.00">BoxWorld.updateSprites</text>
</a>
</g>
</g>
<!-- Node22&#45;&gt;Node23 -->
<g id="edge24" class="edge"><title>Node22&#45;&gt;Node23</title>
<path fill="none" stroke="midnightblue" d="M583.062,-198.288C612.741,-204.136 652.889,-212.047 685.66,-218.504"/>
<polygon fill="midnightblue" stroke="midnightblue" points="685.086,-221.959 695.574,-220.458 686.439,-215.091 685.086,-221.959"/>
</g>
<!-- Node23&#45;&gt;Node3 -->
<g id="edge43" class="edge"><title>Node23&#45;&gt;Node3</title>
<path fill="none" stroke="midnightblue" d="M777.153,-239.524C790.938,-243.819 807.32,-249.034 822,-254 838.114,-259.451 841.382,-263.366 858,-267 983.779,-294.508 1133.96,-301.838 1222.07,-303.632"/>
<polygon fill="midnightblue" stroke="midnightblue" points="1222.17,-307.135 1232.24,-303.82 1222.3,-300.136 1222.17,-307.135"/>
</g>
<!-- Node23&#45;&gt;Node5 -->
<g id="edge44" class="edge"><title>Node23&#45;&gt;Node5</title>
<path fill="none" stroke="midnightblue" d="M800.826,-239.524C818.973,-242.355 839.306,-245.182 858,-247 985.814,-259.43 1135.35,-263.728 1222.78,-265.215"/>
<polygon fill="midnightblue" stroke="midnightblue" points="1222.82,-268.715 1232.87,-265.378 1222.93,-261.716 1222.82,-268.715"/>
</g>
<!-- Node23&#45;&gt;Node8 -->
<g id="edge45" class="edge"><title>Node23&#45;&gt;Node8</title>
<path fill="none" stroke="midnightblue" d="M801.318,-239.609C809.114,-243.052 816.374,-247.708 822,-254 877.252,-315.792 800.456,-377.336 858,-437 861.188,-440.306 864.834,-443.083 868.775,-445.413"/>
<polygon fill="midnightblue" stroke="midnightblue" points="867.288,-448.582 877.809,-449.829 870.362,-442.293 867.288,-448.582"/>
</g>
<!-- Node23&#45;&gt;Node9 -->
<g id="edge42" class="edge"><title>Node23&#45;&gt;Node9</title>
<path fill="none" stroke="midnightblue" d="M799.07,-239.623C807.522,-243.052 815.581,-247.7 822,-254 857.809,-289.146 827.993,-320.787 858,-361 871.449,-379.023 892.297,-393.508 909.473,-403.365"/>
<polygon fill="midnightblue" stroke="midnightblue" points="908.118,-406.614 918.568,-408.359 911.487,-400.478 908.118,-406.614"/>
</g>
<!-- Node24 -->
<g id="node24" class="node"><title>Node24</title>
<g id="a_node24"><a xlink:href="../../db/d97/class_box_world.html#a4079bed8937c9f621decfbe1309e31e2" target="_top" xlink:title="BoxWorld.checkAllCollisions">
<polygon fill="white" stroke="black" points="867,-142.5 867,-161.5 1013,-161.5 1013,-142.5 867,-142.5"/>
<text text-anchor="middle" x="940" y="-149.5" font-family="Helvetica,sans-Serif" font-size="10.00">BoxWorld.checkAllCollisions</text>
</a>
</g>
</g>
<!-- Node23&#45;&gt;Node24 -->
<g id="edge25" class="edge"><title>Node23&#45;&gt;Node24</title>
<path fill="none" stroke="midnightblue" d="M761.361,-220.283C782.417,-207.349 821.767,-184.54 858,-171 864.791,-168.462 872.032,-166.19 879.286,-164.175"/>
<polygon fill="midnightblue" stroke="midnightblue" points="880.361,-167.512 889.145,-161.588 878.584,-160.741 880.361,-167.512"/>
</g>
<!-- Node34 -->
<g id="node34" class="node"><title>Node34</title>
<g id="a_node34"><a xlink:href="../../da/de2/class_sticky_box.html#a59337f0aa3c7379a2cb9c76bdc621daf" target="_top" xlink:title="StickyBox.setStuck">
<polygon fill="white" stroke="black" points="886,-218.5 886,-237.5 994,-237.5 994,-218.5 886,-218.5"/>
<text text-anchor="middle" x="940" y="-225.5" font-family="Helvetica,sans-Serif" font-size="10.00">StickyBox.setStuck</text>
</a>
</g>
</g>
<!-- Node23&#45;&gt;Node34 -->
<g id="edge41" class="edge"><title>Node23&#45;&gt;Node34</title>
<path fill="none" stroke="midnightblue" d="M810.535,-229.331C831.535,-229.114 854.813,-228.872 875.72,-228.656"/>
<polygon fill="midnightblue" stroke="midnightblue" points="875.81,-232.155 885.773,-228.552 875.738,-225.155 875.81,-232.155"/>
</g>
<!-- Node35 -->
<g id="node35" class="node"><title>Node35</title>
<g id="a_node35"><a xlink:href="../../da/de2/class_sticky_box.html#a185ee469367b376e6c5969a03d089d57" target="_top" xlink:title="StickyBox.move">
<polygon fill="white" stroke="black" points="893.5,-180.5 893.5,-199.5 986.5,-199.5 986.5,-180.5 893.5,-180.5"/>
<text text-anchor="middle" x="940" y="-187.5" font-family="Helvetica,sans-Serif" font-size="10.00">StickyBox.move</text>
</a>
</g>
</g>
<!-- Node23&#45;&gt;Node35 -->
<g id="edge46" class="edge"><title>Node23&#45;&gt;Node35</title>
<path fill="none" stroke="midnightblue" d="M792.228,-220.419C819.661,-214.733 854.615,-207.489 883.529,-201.497"/>
<polygon fill="midnightblue" stroke="midnightblue" points="884.401,-204.89 893.482,-199.434 882.98,-198.036 884.401,-204.89"/>
</g>
<!-- Node24&#45;&gt;Node10 -->
<g id="edge40" class="edge"><title>Node24&#45;&gt;Node10</title>
<path fill="none" stroke="midnightblue" d="M921.939,-142.262C857.843,-107.001 626.024,8.55572 448,-57 352.154,-92.2943 269.459,-189.128 238.26,-229.238"/>
<polygon fill="midnightblue" stroke="midnightblue" points="235.377,-227.245 232.081,-237.314 240.937,-231.499 235.377,-227.245"/>
</g>
<!-- Node25 -->
<g id="node25" class="node"><title>Node25</title>
<g id="a_node25"><a xlink:href="../../db/d97/class_box_world.html#a55add11037cd6dc48556f2f42a9e11be" target="_top" xlink:title="BoxWorld.checkCollide">
<polygon fill="white" stroke="black" points="1066,-218.5 1066,-237.5 1188,-237.5 1188,-218.5 1066,-218.5"/>
<text text-anchor="middle" x="1127" y="-225.5" font-family="Helvetica,sans-Serif" font-size="10.00">BoxWorld.checkCollide</text>
</a>
</g>
</g>
<!-- Node24&#45;&gt;Node25 -->
<g id="edge26" class="edge"><title>Node24&#45;&gt;Node25</title>
<path fill="none" stroke="midnightblue" d="M1000.08,-161.564C1007.72,-164.023 1015.24,-167.115 1022,-171 1042.17,-182.588 1038.08,-196.99 1058,-209 1061.6,-211.171 1065.46,-213.102 1069.44,-214.817"/>
<polygon fill="midnightblue" stroke="midnightblue" points="1068.3,-218.128 1078.89,-218.441 1070.81,-211.592 1068.3,-218.128"/>
</g>
<!-- Node26 -->
<g id="node26" class="node"><title>Node26</title>
<g id="a_node26"><a xlink:href="../../db/d97/class_box_world.html#a72bacb2a6757900d8835249929fcc838" target="_top" xlink:title="BoxWorld.loseGame">
<polygon fill="white" stroke="black" points="1071,-180.5 1071,-199.5 1183,-199.5 1183,-180.5 1071,-180.5"/>
<text text-anchor="middle" x="1127" y="-187.5" font-family="Helvetica,sans-Serif" font-size="10.00">BoxWorld.loseGame</text>
</a>
</g>
</g>
<!-- Node24&#45;&gt;Node26 -->
<g id="edge29" class="edge"><title>Node24&#45;&gt;Node26</title>
<path fill="none" stroke="midnightblue" d="M987.683,-161.589C1012.65,-166.716 1043.56,-173.067 1069.83,-178.463"/>
<polygon fill="midnightblue" stroke="midnightblue" points="1069.15,-181.896 1079.65,-180.48 1070.56,-175.039 1069.15,-181.896"/>
</g>
<!-- Node33 -->
<g id="node33" class="node"><title>Node33</title>
<g id="a_node33"><a xlink:href="../../db/d97/class_box_world.html#a167adb49603af3a303ee958011243b5f" target="_top" xlink:title="BoxWorld.onScreen">
<polygon fill="white" stroke="black" points="1072.5,-142.5 1072.5,-161.5 1181.5,-161.5 1181.5,-142.5 1072.5,-142.5"/>
<text text-anchor="middle" x="1127" y="-149.5" font-family="Helvetica,sans-Serif" font-size="10.00">BoxWorld.onScreen</text>
</a>
</g>
</g>
<!-- Node24&#45;&gt;Node33 -->
<g id="edge39" class="edge"><title>Node24&#45;&gt;Node33</title>
<path fill="none" stroke="midnightblue" d="M1013.06,-152C1029.28,-152 1046.4,-152 1062.26,-152"/>
<polygon fill="midnightblue" stroke="midnightblue" points="1062.48,-155.5 1072.48,-152 1062.48,-148.5 1062.48,-155.5"/>
</g>
<!-- Node25&#45;&gt;Node3 -->
<g id="edge27" class="edge"><title>Node25&#45;&gt;Node3</title>
<path fill="none" stroke="midnightblue" d="M1142.99,-237.576C1162.75,-249.881 1198.9,-271.284 1232,-285 1237.5,-287.278 1243.36,-289.398 1249.23,-291.333"/>
<polygon fill="midnightblue" stroke="midnightblue" points="1248.47,-294.761 1259.05,-294.411 1250.56,-288.081 1248.47,-294.761"/>
</g>
<!-- Node25&#45;&gt;Node5 -->
<g id="edge28" class="edge"><title>Node25&#45;&gt;Node5</title>
<path fill="none" stroke="midnightblue" d="M1170.65,-237.589C1193.15,-242.649 1220.95,-248.9 1244.74,-254.249"/>
<polygon fill="midnightblue" stroke="midnightblue" points="1244.14,-257.701 1254.66,-256.48 1245.67,-250.871 1244.14,-257.701"/>
</g>
<!-- Node27 -->
<g id="node27" class="node"><title>Node27</title>
<g id="a_node27"><a xlink:href="../../d4/d2f/class_lose_screen.html#a34f2cc2c803500316c9b8d854854d758" target="_top" xlink:title="LoseScreen.init">
<polygon fill="white" stroke="black" points="1253,-161.5 1253,-180.5 1343,-180.5 1343,-161.5 1253,-161.5"/>
<text text-anchor="middle" x="1298" y="-168.5" font-family="Helvetica,sans-Serif" font-size="10.00">LoseScreen.init</text>
</a>
</g>
</g>
<!-- Node26&#45;&gt;Node27 -->
<g id="edge30" class="edge"><title>Node26&#45;&gt;Node27</title>
<path fill="none" stroke="midnightblue" d="M1183.34,-183.779C1202.43,-181.632 1223.79,-179.231 1242.79,-177.094"/>
<polygon fill="midnightblue" stroke="midnightblue" points="1243.24,-180.566 1252.78,-175.971 1242.46,-173.61 1243.24,-180.566"/>
</g>
<!-- Node28 -->
<g id="node28" class="node"><title>Node28</title>
<g id="a_node28"><a xlink:href="../../d2/db8/class_menu.html#a3c99ad09e9f2f975c1a0d0597642651a" target="_top" xlink:title="Menu.init">
<polygon fill="white" stroke="black" points="1400,-152.5 1400,-171.5 1460,-171.5 1460,-152.5 1400,-152.5"/>
<text text-anchor="middle" x="1430" y="-159.5" font-family="Helvetica,sans-Serif" font-size="10.00">Menu.init</text>
</a>
</g>
</g>
<!-- Node27&#45;&gt;Node28 -->
<g id="edge31" class="edge"><title>Node27&#45;&gt;Node28</title>
<path fill="none" stroke="midnightblue" d="M1343.01,-167.953C1358.07,-166.911 1374.81,-165.752 1389.48,-164.736"/>
<polygon fill="midnightblue" stroke="midnightblue" points="1390.02,-168.207 1399.75,-164.025 1389.54,-161.224 1390.02,-168.207"/>
</g>
<!-- Node29 -->
<g id="node29" class="node"><title>Node29</title>
<g id="a_node29"><a xlink:href="../../d2/db8/class_menu.html#a8a6e6125f0dc2dc7e19c6655ba6376a2" target="_top" xlink:title="Menu.addIntroText">
<polygon fill="white" stroke="black" points="1496,-152.5 1496,-171.5 1600,-171.5 1600,-152.5 1496,-152.5"/>
<text text-anchor="middle" x="1548" y="-159.5" font-family="Helvetica,sans-Serif" font-size="10.00">Menu.addIntroText</text>
</a>
</g>
</g>
<!-- Node28&#45;&gt;Node29 -->
<g id="edge32" class="edge"><title>Node28&#45;&gt;Node29</title>
<path fill="none" stroke="midnightblue" d="M1460.27,-162C1467.99,-162 1476.62,-162 1485.35,-162"/>
<polygon fill="midnightblue" stroke="midnightblue" points="1485.61,-165.5 1495.61,-162 1485.61,-158.5 1485.61,-165.5"/>
</g>
<!-- Node30 -->
<g id="node30" class="node"><title>Node30</title>
<g id="a_node30"><a xlink:href="../../db/d97/class_box_world.html#a55bf92d3f466bfaade0f6d199d8c9bd9" target="_top" xlink:title="BoxWorld.init">
<polygon fill="white" stroke="black" points="1509.5,-109.5 1509.5,-128.5 1586.5,-128.5 1586.5,-109.5 1509.5,-109.5"/>
<text text-anchor="middle" x="1548" y="-116.5" font-family="Helvetica,sans-Serif" font-size="10.00">BoxWorld.init</text>
</a>
</g>
</g>
<!-- Node28&#45;&gt;Node30 -->
<g id="edge33" class="edge"><title>Node28&#45;&gt;Node30</title>
<path fill="none" stroke="midnightblue" d="M1456.74,-152.457C1472.96,-146.444 1494.12,-138.603 1511.87,-132.023"/>
<polygon fill="midnightblue" stroke="midnightblue" points="1513.17,-135.274 1521.33,-128.516 1510.73,-128.71 1513.17,-135.274"/>
</g>
<!-- Node30&#45;&gt;Node16 -->
<g id="edge34" class="edge"><title>Node30&#45;&gt;Node16</title>
<path fill="none" stroke="midnightblue" d="M1573.2,-128.52C1581.97,-132.446 1591.74,-137.394 1600,-143 1637.97,-168.776 1675.55,-207.487 1695.76,-229.69"/>
<polygon fill="midnightblue" stroke="midnightblue" points="1693.34,-232.229 1702.62,-237.33 1698.54,-227.551 1693.34,-232.229"/>
</g>
<!-- Node30&#45;&gt;Node22 -->
<g id="edge35" class="edge"><title>Node30&#45;&gt;Node22</title>
<path fill="none" stroke="midnightblue" d="M1509.19,-117.764C1460.57,-116.283 1373.5,-114 1299,-114 939,-114 939,-114 939,-114 871.45,-114 681.259,-156.773 590.454,-178.142"/>
<polygon fill="midnightblue" stroke="midnightblue" points="589.6,-174.747 580.672,-180.452 591.209,-181.56 589.6,-174.747"/>
</g>
<!-- Node30&#45;&gt;Node31 -->
<g id="edge36" class="edge"><title>Node30&#45;&gt;Node31</title>
<path fill="none" stroke="midnightblue" d="M1584.95,-109.457C1608.65,-103.166 1639.9,-94.8729 1665.35,-88.1172"/>
<polygon fill="midnightblue" stroke="midnightblue" points="1666.38,-91.4648 1675.15,-85.5164 1664.58,-84.6991 1666.38,-91.4648"/>
</g>
<!-- Node31&#45;&gt;Node1 -->
<g id="edge37" class="edge"><title>Node31&#45;&gt;Node1</title>
<path fill="none" stroke="midnightblue" d="M1690.45,-66.3745C1644.83,-45.924 1531.24,-0 1431,-0 361,-0 361,-0 361,-0 150.476,-0 84.8257,-348.955 71.6858,-436.342"/>
<polygon fill="midnightblue" stroke="midnightblue" points="68.1877,-436.079 70.2251,-446.476 75.1161,-437.077 68.1877,-436.079"/>
</g>
<!-- Node32 -->
<g id="node32" class="node"><title>Node32</title>
<g id="a_node32"><a xlink:href="../../db/d97/class_box_world.html#a2d44485a181577acb4d79b6b81f26fff" target="_top" xlink:title="BoxWorld.handleKeyRelease">
<polygon fill="white" stroke="black" points="1830.5,-66.5 1830.5,-85.5 1979.5,-85.5 1979.5,-66.5 1830.5,-66.5"/>
<text text-anchor="middle" x="1905" y="-73.5" font-family="Helvetica,sans-Serif" font-size="10.00">BoxWorld.handleKeyRelease</text>
</a>
</g>
</g>
<!-- Node31&#45;&gt;Node32 -->
<g id="edge38" class="edge"><title>Node31&#45;&gt;Node32</title>
<path fill="none" stroke="midnightblue" d="M1774.22,-76C1788.9,-76 1804.83,-76 1820.33,-76"/>
<polygon fill="midnightblue" stroke="midnightblue" points="1820.44,-79.5001 1830.44,-76 1820.44,-72.5001 1820.44,-79.5001"/>
</g>
</g>
</svg>
        <g id="navigator" transform="translate(0 0)" fill="#404254">
                <rect fill="#f2f5e9" fill-opacity="0.5" stroke="#606060" stroke-width=".5" x="0" y="0" width="60" height="60"/>
                <use id="zoomplus" xlink:href="#zoomPlus" x="17" y="9" onmousedown="handleZoom(evt,'in')"/>
                <use id="zoomminus" xlink:href="#zoomMin" x="42" y="9" onmousedown="handleZoom(evt,'out')"/>
                <use id="reset" xlink:href="#resetDef" x="30" y="36" onmousedown="handleReset()"/>
                <g id="arrowUp" xlink:href="#dirArrow" transform="translate(30 24)" onmousedown="handlePan(0,-1)">
                  <use xlink:href="#rim" fill="#404040">
                        <set attributeName="fill" to="#808080" begin="arrowUp.mouseover" end="arrowUp.mouseout"/>
                  </use>
                  <path fill="none" stroke="white" stroke-width="1.5" d="M0,-3.0v7 M-2.5,-0.5L0,-3.0L2.5,-0.5"/>
                </g>
                <g id="arrowRight" xlink:href="#dirArrow" transform="rotate(90) translate(36 -43)" onmousedown="handlePan(1,0)">
                  <use xlink:href="#rim" fill="#404040">
                        <set attributeName="fill" to="#808080" begin="arrowRight.mouseover" end="arrowRight.mouseout"/>
                  </use>
                  <path fill="none" stroke="white" stroke-width="1.5" d="M0,-3.0v7 M-2.5,-0.5L0,-3.0L2.5,-0.5"/>
                </g>
                <g id="arrowDown" xlink:href="#dirArrow" transform="rotate(180) translate(-30 -48)" onmousedown="handlePan(0,1)">
                  <use xlink:href="#rim" fill="#404040">
                        <set attributeName="fill" to="#808080" begin="arrowDown.mouseover" end="arrowDown.mouseout"/>
                  </use>
                  <path fill="none" stroke="white" stroke-width="1.5" d="M0,-3.0v7 M-2.5,-0.5L0,-3.0L2.5,-0.5"/>
                </g>
                <g id="arrowLeft" xlink:href="#dirArrow" transform="rotate(270) translate(-36 17)" onmousedown="handlePan(-1,0)">
                  <use xlink:href="#rim" fill="#404040">
                        <set attributeName="fill" to="#808080" begin="arrowLeft.mouseover" end="arrowLeft.mouseout"/>
                  </use>
                  <path fill="none" stroke="white" stroke-width="1.5" d="M0,-3.0v7 M-2.5,-0.5L0,-3.0L2.5,-0.5"/>
                </g>
        </g>
        <svg viewBox="0 0 15 15" width="100%" height="30px" preserveAspectRatio="xMaxYMin meet">
         <g id="arrow_out" transform="scale(0.3 0.3)">
          <a xlink:href="class_box_world_aa7e2049d7be23e15fd2ec7fa2922ed79_cgraph_org.svg" target="_base">
           <rect id="button" ry="5" rx="5" y="6" x="6" height="38" width="38"
                fill="#f2f5e9" fill-opacity="0.5" stroke="#606060" stroke-width="1.0"/>
           <path id="arrow"
             d="M 11.500037,31.436501 C 11.940474,20.09759 22.043105,11.32322 32.158766,21.979434 L 37.068811,17.246167 C 37.068811,17.246167 37.088388,32 37.088388,32 L 22.160133,31.978069 C 22.160133,31.978069 26.997745,27.140456 26.997745,27.140456 C 18.528582,18.264221 13.291696,25.230495 11.500037,31.436501 z"
             style="fill:#404040;"/>
          </a>
         </g>
        </svg>
</svg>
