<?xml version="1.0" encoding="UTF-8" standalone="no"?>
<!DOCTYPE svg PUBLIC "-//W3C//DTD SVG 1.1//EN"
 "http://www.w3.org/Graphics/SVG/1.1/DTD/svg11.dtd">
<!-- Generated by graphviz version 2.36.0 (20140111.2315)
 -->
<!-- Title: BoxWorld.handleKeyRelease Pages: 1 -->
<!--zoomable 170 -->
<svg id="main" version="1.1" xmlns="http://www.w3.org/2000/svg" xmlns:xlink="http://www.w3.org/1999/xlink" xml:space="preserve" onload="init(evt)">
<style type="text/css"><![CDATA[
.edge:hover path { stroke: red; }
.edge:hover polygon { stroke: red; fill: red; }
]]></style>
<script type="text/javascript"><![CDATA[
var edges = document.getElementsByTagName('g');
if (edges && edges.length) {
  for (var i=0;i<edges.length;i++) {
    if (edges[i].id.substr(0,4)=='edge') {
      edges[i].setAttribute('class','edge');
    }
  }
}
]]></script>
        <defs>
                <circle id="rim" cx="0" cy="0" r="7"/>
                <circle id="rim2" cx="0" cy="0" r="3.5"/>
                <g id="zoomPlus">
                        <use xlink:href="#rim" fill="#404040">
                                <set attributeName="fill" to="#808080" begin="zoomplus.mouseover" end="zoomplus.mouseout"/>
                        </use>
                        <path d="M-4,0h8M0,-4v8" fill="none" stroke="white" stroke-width="1.5" pointer-events="none"/>
                </g>
                <g id="zoomMin">
                        <use xlink:href="#rim" fill="#404040">
                                <set attributeName="fill" to="#808080" begin="zoomminus.mouseover" end="zoomminus.mouseout"/>
                        </use>
                        <path d="M-4,0h8" fill="none" stroke="white" stroke-width="1.5" pointer-events="none"/>
                </g>
                <g id="dirArrow">
                        <path fill="none" stroke="white" stroke-width="1.5" d="M0,-3.0v7 M-2.5,-0.5L0,-3.0L2.5,-0.5"/>
                </g>
               <g id="resetDef">
                       <use xlink:href="#rim2" fill="#404040">
                               <set attributeName="fill" to="#808080" begin="reset.mouseover" end="reset.mouseout"/>
                       </use>
               </g>
        </defs>

<script type="text/javascript">
var viewWidth = 1572;
var viewHeight = 170;
var sectionId = 'dynsection-15';
</script>
<script xlink:href="../../svgpan.js"/>
<svg id="graph" class="graph">
<g id="viewport">
<title>BoxWorld.handleKeyRelease</title>
<polygon fill="white" stroke="none" points="-4,4 -4,-166 1568,-166 1568,4 -4,4"/>
<!-- Node1 -->
<g id="node1" class="node"><title>Node1</title>
<polygon fill="#bfbfbf" stroke="black" points="0.5,-28.5 0.5,-47.5 149.5,-47.5 149.5,-28.5 0.5,-28.5"/>
<text text-anchor="middle" x="75" y="-35.5" font-family="Helvetica,sans-Serif" font-size="10.00">BoxWorld.handleKeyRelease</text>
</g>
<!-- Node2 -->
<g id="node2" class="node"><title>Node2</title>
<g id="a_node2"><a xlink:href="../../db/d97/class_box_world.html#a726e747e023543658d7a345cc6466ccb" target="_top" xlink:title="BoxWorld.createScene">
<polygon fill="white" stroke="black" points="186,-28.5 186,-47.5 310,-47.5 310,-28.5 186,-28.5"/>
<text text-anchor="middle" x="248" y="-35.5" font-family="Helvetica,sans-Serif" font-size="10.00">BoxWorld.createScene</text>
</a>
</g>
</g>
<!-- Node1&#45;&gt;Node2 -->
<g id="edge1" class="edge"><title>Node1&#45;&gt;Node2</title>
<path fill="none" stroke="midnightblue" d="M159.515,-38C168.404,-38 177.322,-38 185.884,-38"/>
<polygon fill="midnightblue" stroke="midnightblue" points="159.512,-34.5001 149.512,-38 159.512,-41.5001 159.512,-34.5001"/>
</g>
<!-- Node3 -->
<g id="node3" class="node"><title>Node3</title>
<g id="a_node3"><a xlink:href="../../d6/d4f/class_item_box_world.html#aa559fc2680327b41fb376e2eda8e82e3" target="_top" xlink:title="ItemBoxWorld.init">
<polygon fill="white" stroke="black" points="346.5,-66.5 346.5,-85.5 445.5,-85.5 445.5,-66.5 346.5,-66.5"/>
<text text-anchor="middle" x="396" y="-73.5" font-family="Helvetica,sans-Serif" font-size="10.00">ItemBoxWorld.init</text>
</a>
</g>
</g>
<!-- Node2&#45;&gt;Node3 -->
<g id="edge2" class="edge"><title>Node2&#45;&gt;Node3</title>
<path fill="none" stroke="midnightblue" d="M295.536,-50.1121C315.87,-55.4044 339.371,-61.5213 358.423,-66.4799"/>
<polygon fill="midnightblue" stroke="midnightblue" points="296.401,-46.7207 285.842,-47.589 294.638,-53.4951 296.401,-46.7207"/>
</g>
<!-- Node8 -->
<g id="node8" class="node"><title>Node8</title>
<g id="a_node8"><a xlink:href="../../db/d97/class_box_world.html#a55bf92d3f466bfaade0f6d199d8c9bd9" target="_top" xlink:title="BoxWorld.init">
<polygon fill="white" stroke="black" points="1094.5,-66.5 1094.5,-85.5 1171.5,-85.5 1171.5,-66.5 1094.5,-66.5"/>
<text text-anchor="middle" x="1133" y="-73.5" font-family="Helvetica,sans-Serif" font-size="10.00">BoxWorld.init</text>
</a>
</g>
</g>
<!-- Node2&#45;&gt;Node8 -->
<g id="edge19" class="edge"><title>Node2&#45;&gt;Node8</title>
<path fill="none" stroke="midnightblue" d="M302.885,-26.4456C359.797,-15.2656 452.285,-0 533,-0 533,-0 533,-0 871,-0 964.917,-0 1070.54,-45.924 1112.91,-66.3745"/>
<polygon fill="midnightblue" stroke="midnightblue" points="302.151,-23.0229 293.029,-28.411 303.52,-29.8878 302.151,-23.0229"/>
</g>
<!-- Node4 -->
<g id="node4" class="node"><title>Node4</title>
<g id="a_node4"><a xlink:href="../../db/d97/class_box_world.html#aad670712776afe126e51791097027e05" target="_top" xlink:title="BoxWorld.winLevel">
<polygon fill="white" stroke="black" points="482.5,-66.5 482.5,-85.5 585.5,-85.5 585.5,-66.5 482.5,-66.5"/>
<text text-anchor="middle" x="534" y="-73.5" font-family="Helvetica,sans-Serif" font-size="10.00">BoxWorld.winLevel</text>
</a>
</g>
</g>
<!-- Node3&#45;&gt;Node4 -->
<g id="edge3" class="edge"><title>Node3&#45;&gt;Node4</title>
<path fill="none" stroke="midnightblue" d="M455.915,-76C464.715,-76 473.722,-76 482.331,-76"/>
<polygon fill="midnightblue" stroke="midnightblue" points="455.715,-72.5001 445.715,-76 455.715,-79.5001 455.715,-72.5001"/>
</g>
<!-- Node5 -->
<g id="node5" class="node"><title>Node5</title>
<g id="a_node5"><a xlink:href="../../db/d97/class_box_world.html#a4079bed8937c9f621decfbe1309e31e2" target="_top" xlink:title="BoxWorld.checkAllCollisions">
<polygon fill="white" stroke="black" points="622,-66.5 622,-85.5 768,-85.5 768,-66.5 622,-66.5"/>
<text text-anchor="middle" x="695" y="-73.5" font-family="Helvetica,sans-Serif" font-size="10.00">BoxWorld.checkAllCollisions</text>
</a>
</g>
</g>
<!-- Node4&#45;&gt;Node5 -->
<g id="edge4" class="edge"><title>Node4&#45;&gt;Node5</title>
<path fill="none" stroke="midnightblue" d="M595.879,-76C604.33,-76 613.079,-76 621.713,-76"/>
<polygon fill="midnightblue" stroke="midnightblue" points="595.746,-72.5001 585.746,-76 595.746,-79.5001 595.746,-72.5001"/>
</g>
<!-- Node16 -->
<g id="node16" class="node"><title>Node16</title>
<g id="a_node16"><a xlink:href="../../db/d97/class_box_world.html#aa7e2049d7be23e15fd2ec7fa2922ed79" target="_top" xlink:title="BoxWorld.handleKeyInput">
<polygon fill="white" stroke="black" points="627,-28.5 627,-47.5 763,-47.5 763,-28.5 627,-28.5"/>
<text text-anchor="middle" x="695" y="-35.5" font-family="Helvetica,sans-Serif" font-size="10.00">BoxWorld.handleKeyInput</text>
</a>
</g>
</g>
<!-- Node4&#45;&gt;Node16 -->
<g id="edge17" class="edge"><title>Node4&#45;&gt;Node16</title>
<path fill="none" stroke="midnightblue" d="M585.077,-64.032C607.358,-58.7069 633.229,-52.5238 654.166,-47.5201"/>
<polygon fill="midnightblue" stroke="midnightblue" points="584.035,-60.6823 575.122,-66.411 585.662,-67.4906 584.035,-60.6823"/>
</g>
<!-- Node6 -->
<g id="node6" class="node"><title>Node6</title>
<g id="a_node6"><a xlink:href="../../db/d97/class_box_world.html#a6794c083c2a0263c2f585f4ae4b7e39c" target="_top" xlink:title="BoxWorld.updateSprites">
<polygon fill="white" stroke="black" points="804.5,-66.5 804.5,-85.5 935.5,-85.5 935.5,-66.5 804.5,-66.5"/>
<text text-anchor="middle" x="870" y="-73.5" font-family="Helvetica,sans-Serif" font-size="10.00">BoxWorld.updateSprites</text>
</a>
</g>
</g>
<!-- Node5&#45;&gt;Node6 -->
<g id="edge5" class="edge"><title>Node5&#45;&gt;Node6</title>
<path fill="none" stroke="midnightblue" d="M778.354,-76C787.116,-76 795.936,-76 804.451,-76"/>
<polygon fill="midnightblue" stroke="midnightblue" points="778.115,-72.5001 768.115,-76 778.115,-79.5001 778.115,-72.5001"/>
</g>
<!-- Node7 -->
<g id="node7" class="node"><title>Node7</title>
<g id="a_node7"><a xlink:href="../../db/d97/class_box_world.html#ad20a4e43406c44f4bbf201d1d1028998" target="_top" xlink:title="BoxWorld.start">
<polygon fill="white" stroke="black" points="972,-66.5 972,-85.5 1058,-85.5 1058,-66.5 972,-66.5"/>
<text text-anchor="middle" x="1015" y="-73.5" font-family="Helvetica,sans-Serif" font-size="10.00">BoxWorld.start</text>
</a>
</g>
</g>
<!-- Node6&#45;&gt;Node7 -->
<g id="edge6" class="edge"><title>Node6&#45;&gt;Node7</title>
<path fill="none" stroke="midnightblue" d="M945.898,-76C954.837,-76 963.705,-76 971.941,-76"/>
<polygon fill="midnightblue" stroke="midnightblue" points="945.806,-72.5001 935.806,-76 945.806,-79.5001 945.806,-72.5001"/>
</g>
<!-- Node7&#45;&gt;Node3 -->
<g id="edge16" class="edge"><title>Node7&#45;&gt;Node3</title>
<path fill="none" stroke="midnightblue" d="M972.491,-88.0561C960.793,-90.9204 947.987,-93.561 936,-95 735.66,-119.049 682.559,-117.142 482,-95 465.167,-93.1416 446.793,-89.2725 431.449,-85.5079"/>
<polygon fill="midnightblue" stroke="midnightblue" points="973.62,-91.3799 982.437,-85.506 971.881,-84.5993 973.62,-91.3799"/>
</g>
<!-- Node7&#45;&gt;Node8 -->
<g id="edge7" class="edge"><title>Node7&#45;&gt;Node8</title>
<path fill="none" stroke="midnightblue" d="M1068.33,-76C1077.06,-76 1085.97,-76 1094.24,-76"/>
<polygon fill="midnightblue" stroke="midnightblue" points="1068.21,-72.5001 1058.21,-76 1068.21,-79.5001 1068.21,-72.5001"/>
</g>
<!-- Node9 -->
<g id="node9" class="node"><title>Node9</title>
<g id="a_node9"><a xlink:href="../../d2/db8/class_menu.html#a3c99ad09e9f2f975c1a0d0597642651a" target="_top" xlink:title="Menu.init">
<polygon fill="white" stroke="black" points="1208,-85.5 1208,-104.5 1268,-104.5 1268,-85.5 1208,-85.5"/>
<text text-anchor="middle" x="1238" y="-92.5" font-family="Helvetica,sans-Serif" font-size="10.00">Menu.init</text>
</a>
</g>
</g>
<!-- Node8&#45;&gt;Node9 -->
<g id="edge8" class="edge"><title>Node8&#45;&gt;Node9</title>
<path fill="none" stroke="midnightblue" d="M1181.75,-84.8074C1190.69,-86.4574 1199.79,-88.1355 1207.95,-89.6411"/>
<polygon fill="midnightblue" stroke="midnightblue" points="1182.24,-81.3392 1171.77,-82.967 1180.97,-88.2231 1182.24,-81.3392"/>
</g>
<!-- Node10 -->
<g id="node10" class="node"><title>Node10</title>
<g id="a_node10"><a xlink:href="../../d1/de1/class_end_screen.html#a1264ffb72b3a3032443f9c4087222aef" target="_top" xlink:title="EndScreen.init">
<polygon fill="white" stroke="black" points="1306,-142.5 1306,-161.5 1392,-161.5 1392,-142.5 1306,-142.5"/>
<text text-anchor="middle" x="1349" y="-149.5" font-family="Helvetica,sans-Serif" font-size="10.00">EndScreen.init</text>
</a>
</g>
</g>
<!-- Node9&#45;&gt;Node10 -->
<g id="edge9" class="edge"><title>Node9&#45;&gt;Node10</title>
<path fill="none" stroke="midnightblue" d="M1262.83,-109.87C1274.96,-117.196 1290.06,-125.947 1304,-133 1310.53,-136.305 1317.77,-139.583 1324.46,-142.462"/>
<polygon fill="midnightblue" stroke="midnightblue" points="1264.56,-106.824 1254.2,-104.597 1260.91,-112.798 1264.56,-106.824"/>
</g>
<!-- Node12 -->
<g id="node12" class="node"><title>Node12</title>
<g id="a_node12"><a xlink:href="../../d4/d2f/class_lose_screen.html#a34f2cc2c803500316c9b8d854854d758" target="_top" xlink:title="LoseScreen.init">
<polygon fill="white" stroke="black" points="1304,-104.5 1304,-123.5 1394,-123.5 1394,-104.5 1304,-104.5"/>
<text text-anchor="middle" x="1349" y="-111.5" font-family="Helvetica,sans-Serif" font-size="10.00">LoseScreen.init</text>
</a>
</g>
</g>
<!-- Node9&#45;&gt;Node12 -->
<g id="edge11" class="edge"><title>Node9&#45;&gt;Node12</title>
<path fill="none" stroke="midnightblue" d="M1278.11,-101.817C1286.48,-103.277 1295.39,-104.829 1303.94,-106.319"/>
<polygon fill="midnightblue" stroke="midnightblue" points="1278.66,-98.361 1268.21,-100.092 1277.46,-105.257 1278.66,-98.361"/>
</g>
<!-- Node15 -->
<g id="node15" class="node"><title>Node15</title>
<g id="a_node15"><a xlink:href="../../d0/d4b/class_main.html#a7595d13c514a02c35aca322dd91d2063" target="_top" xlink:title="Main.start">
<polygon fill="white" stroke="black" points="1316.5,-66.5 1316.5,-85.5 1381.5,-85.5 1381.5,-66.5 1316.5,-66.5"/>
<text text-anchor="middle" x="1349" y="-73.5" font-family="Helvetica,sans-Serif" font-size="10.00">Main.start</text>
</a>
</g>
</g>
<!-- Node9&#45;&gt;Node15 -->
<g id="edge15" class="edge"><title>Node9&#45;&gt;Node15</title>
<path fill="none" stroke="midnightblue" d="M1278.38,-88.1362C1290.88,-85.957 1304.53,-83.5767 1316.41,-81.506"/>
<polygon fill="midnightblue" stroke="midnightblue" points="1277.46,-84.743 1268.21,-89.9083 1278.66,-91.6391 1277.46,-84.743"/>
</g>
<!-- Node11 -->
<g id="node11" class="node"><title>Node11</title>
<g id="a_node11"><a xlink:href="../../d6/d4f/class_item_box_world.html#a2ed12a6b39993faedc05cc682204476d" target="_top" xlink:title="ItemBoxWorld.winLevel">
<polygon fill="white" stroke="black" points="1434.5,-142.5 1434.5,-161.5 1559.5,-161.5 1559.5,-142.5 1434.5,-142.5"/>
<text text-anchor="middle" x="1497" y="-149.5" font-family="Helvetica,sans-Serif" font-size="10.00">ItemBoxWorld.winLevel</text>
</a>
</g>
</g>
<!-- Node10&#45;&gt;Node11 -->
<g id="edge10" class="edge"><title>Node10&#45;&gt;Node11</title>
<path fill="none" stroke="midnightblue" d="M1402.35,-152C1412.71,-152 1423.68,-152 1434.31,-152"/>
<polygon fill="midnightblue" stroke="midnightblue" points="1402.23,-148.5 1392.23,-152 1402.23,-155.5 1402.23,-148.5"/>
</g>
<!-- Node13 -->
<g id="node13" class="node"><title>Node13</title>
<g id="a_node13"><a xlink:href="../../db/d97/class_box_world.html#a72bacb2a6757900d8835249929fcc838" target="_top" xlink:title="BoxWorld.loseGame">
<polygon fill="white" stroke="black" points="1441,-47.5 1441,-66.5 1553,-66.5 1553,-47.5 1441,-47.5"/>
<text text-anchor="middle" x="1497" y="-54.5" font-family="Helvetica,sans-Serif" font-size="10.00">BoxWorld.loseGame</text>
</a>
</g>
</g>
<!-- Node12&#45;&gt;Node13 -->
<g id="edge12" class="edge"><title>Node12&#45;&gt;Node13</title>
<path fill="none" stroke="midnightblue" d="M1383.82,-100.797C1410.63,-90.331 1447.45,-75.9538 1471.48,-66.5716"/>
<polygon fill="midnightblue" stroke="midnightblue" points="1382.48,-97.5623 1374.44,-104.459 1385.03,-104.083 1382.48,-97.5623"/>
</g>
<!-- Node14 -->
<g id="node14" class="node"><title>Node14</title>
<g id="a_node14"><a xlink:href="../../d6/d4f/class_item_box_world.html#a295cf7212ad54fa599e2a2d85ee0523d" target="_top" xlink:title="ItemBoxWorld.loseGame">
<polygon fill="white" stroke="black" points="1430,-104.5 1430,-123.5 1564,-123.5 1564,-104.5 1430,-104.5"/>
<text text-anchor="middle" x="1497" y="-111.5" font-family="Helvetica,sans-Serif" font-size="10.00">ItemBoxWorld.loseGame</text>
</a>
</g>
</g>
<!-- Node12&#45;&gt;Node14 -->
<g id="edge14" class="edge"><title>Node12&#45;&gt;Node14</title>
<path fill="none" stroke="midnightblue" d="M1404.47,-114C1412.75,-114 1421.37,-114 1429.86,-114"/>
<polygon fill="midnightblue" stroke="midnightblue" points="1404.2,-110.5 1394.2,-114 1404.2,-117.5 1404.2,-110.5"/>
</g>
<!-- Node13&#45;&gt;Node5 -->
<g id="edge13" class="edge"><title>Node13&#45;&gt;Node5</title>
<path fill="none" stroke="midnightblue" d="M1430.87,-49.518C1378.98,-44.2011 1304.43,-38 1239,-38 1014,-38 1014,-38 1014,-38 918.227,-38 807.368,-55.2037 745.084,-66.46"/>
<polygon fill="midnightblue" stroke="midnightblue" points="1430.63,-53.0116 1440.94,-50.5675 1431.36,-46.0494 1430.63,-53.0116"/>
</g>
<!-- Node16&#45;&gt;Node2 -->
<g id="edge18" class="edge"><title>Node16&#45;&gt;Node2</title>
<path fill="none" stroke="midnightblue" d="M616.606,-38C529.639,-38 390.221,-38 310.408,-38"/>
<polygon fill="midnightblue" stroke="midnightblue" points="616.682,-41.5001 626.682,-38 616.682,-34.5001 616.682,-41.5001"/>
</g>
</g>
</svg>
        <g id="navigator" transform="translate(0 0)" fill="#404254">
                <rect fill="#f2f5e9" fill-opacity="0.5" stroke="#606060" stroke-width=".5" x="0" y="0" width="60" height="60"/>
                <use id="zoomplus" xlink:href="#zoomPlus" x="17" y="9" onmousedown="handleZoom(evt,'in')"/>
                <use id="zoomminus" xlink:href="#zoomMin" x="42" y="9" onmousedown="handleZoom(evt,'out')"/>
                <use id="reset" xlink:href="#resetDef" x="30" y="36" onmousedown="handleReset()"/>
                <g id="arrowUp" xlink:href="#dirArrow" transform="translate(30 24)" onmousedown="handlePan(0,-1)">
                  <use xlink:href="#rim" fill="#404040">
                        <set attributeName="fill" to="#808080" begin="arrowUp.mouseover" end="arrowUp.mouseout"/>
                  </use>
                  <path fill="none" stroke="white" stroke-width="1.5" d="M0,-3.0v7 M-2.5,-0.5L0,-3.0L2.5,-0.5"/>
                </g>
                <g id="arrowRight" xlink:href="#dirArrow" transform="rotate(90) translate(36 -43)" onmousedown="handlePan(1,0)">
                  <use xlink:href="#rim" fill="#404040">
                        <set attributeName="fill" to="#808080" begin="arrowRight.mouseover" end="arrowRight.mouseout"/>
                  </use>
                  <path fill="none" stroke="white" stroke-width="1.5" d="M0,-3.0v7 M-2.5,-0.5L0,-3.0L2.5,-0.5"/>
                </g>
                <g id="arrowDown" xlink:href="#dirArrow" transform="rotate(180) translate(-30 -48)" onmousedown="handlePan(0,1)">
                  <use xlink:href="#rim" fill="#404040">
                        <set attributeName="fill" to="#808080" begin="arrowDown.mouseover" end="arrowDown.mouseout"/>
                  </use>
                  <path fill="none" stroke="white" stroke-width="1.5" d="M0,-3.0v7 M-2.5,-0.5L0,-3.0L2.5,-0.5"/>
                </g>
                <g id="arrowLeft" xlink:href="#dirArrow" transform="rotate(270) translate(-36 17)" onmousedown="handlePan(-1,0)">
                  <use xlink:href="#rim" fill="#404040">
                        <set attributeName="fill" to="#808080" begin="arrowLeft.mouseover" end="arrowLeft.mouseout"/>
                  </use>
                  <path fill="none" stroke="white" stroke-width="1.5" d="M0,-3.0v7 M-2.5,-0.5L0,-3.0L2.5,-0.5"/>
                </g>
        </g>
        <svg viewBox="0 0 15 15" width="100%" height="30px" preserveAspectRatio="xMaxYMin meet">
         <g id="arrow_out" transform="scale(0.3 0.3)">
          <a xlink:href="class_box_world_a2d44485a181577acb4d79b6b81f26fff_icgraph_org.svg" target="_base">
           <rect id="button" ry="5" rx="5" y="6" x="6" height="38" width="38"
                fill="#f2f5e9" fill-opacity="0.5" stroke="#606060" stroke-width="1.0"/>
           <path id="arrow"
             d="M 11.500037,31.436501 C 11.940474,20.09759 22.043105,11.32322 32.158766,21.979434 L 37.068811,17.246167 C 37.068811,17.246167 37.088388,32 37.088388,32 L 22.160133,31.978069 C 22.160133,31.978069 26.997745,27.140456 26.997745,27.140456 C 18.528582,18.264221 13.291696,25.230495 11.500037,31.436501 z"
             style="fill:#404040;"/>
          </a>
         </g>
        </svg>
</svg>
