<?xml version="1.0" encoding="UTF-8" standalone="no"?>
<!DOCTYPE svg PUBLIC "-//W3C//DTD SVG 1.1//EN"
 "http://www.w3.org/Graphics/SVG/1.1/DTD/svg11.dtd">
<!-- Generated by graphviz version 2.36.0 (20140111.2315)
 -->
<!-- Title: BoxWorld.winLevel Pages: 1 -->
<!--zoomable 540 -->
<svg id="main" version="1.1" xmlns="http://www.w3.org/2000/svg" xmlns:xlink="http://www.w3.org/1999/xlink" xml:space="preserve" onload="init(evt)">
<style type="text/css"><![CDATA[
.edge:hover path { stroke: red; }
.edge:hover polygon { stroke: red; fill: red; }
]]></style>
<script type="text/javascript"><![CDATA[
var edges = document.getElementsByTagName('g');
if (edges && edges.length) {
  for (var i=0;i<edges.length;i++) {
    if (edges[i].id.substr(0,4)=='edge') {
      edges[i].setAttribute('class','edge');
    }
  }
}
]]></script>
        <defs>
                <circle id="rim" cx="0" cy="0" r="7"/>
                <circle id="rim2" cx="0" cy="0" r="3.5"/>
                <g id="zoomPlus">
                        <use xlink:href="#rim" fill="#404040">
                                <set attributeName="fill" to="#808080" begin="zoomplus.mouseover" end="zoomplus.mouseout"/>
                        </use>
                        <path d="M-4,0h8M0,-4v8" fill="none" stroke="white" stroke-width="1.5" pointer-events="none"/>
                </g>
                <g id="zoomMin">
                        <use xlink:href="#rim" fill="#404040">
                                <set attributeName="fill" to="#808080" begin="zoomminus.mouseover" end="zoomminus.mouseout"/>
                        </use>
                        <path d="M-4,0h8" fill="none" stroke="white" stroke-width="1.5" pointer-events="none"/>
                </g>
                <g id="dirArrow">
                        <path fill="none" stroke="white" stroke-width="1.5" d="M0,-3.0v7 M-2.5,-0.5L0,-3.0L2.5,-0.5"/>
                </g>
               <g id="resetDef">
                       <use xlink:href="#rim2" fill="#404040">
                               <set attributeName="fill" to="#808080" begin="reset.mouseover" end="reset.mouseout"/>
                       </use>
               </g>
        </defs>

<script type="text/javascript">
var viewWidth = 2110;
var viewHeight = 540;
var sectionId = 'dynsection-35';
</script>
<script xlink:href="../../svgpan.js"/>
<svg id="graph" class="graph">
<g id="viewport">
<title>BoxWorld.winLevel</title>
<polygon fill="white" stroke="none" points="-4,4 -4,-536 2106,-536 2106,4 -4,4"/>
<!-- Node1 -->
<g id="node1" class="node"><title>Node1</title>
<polygon fill="#bfbfbf" stroke="black" points="0.5,-313.5 0.5,-332.5 103.5,-332.5 103.5,-313.5 0.5,-313.5"/>
<text text-anchor="middle" x="52" y="-320.5" font-family="Helvetica,sans-Serif" font-size="10.00">BoxWorld.winLevel</text>
</g>
<!-- Node2 -->
<g id="node2" class="node"><title>Node2</title>
<g id="a_node2"><a xlink:href="../../d6/d4f/class_item_box_world.html#aa559fc2680327b41fb376e2eda8e82e3" target="_top" xlink:title="ItemBoxWorld.init">
<polygon fill="white" stroke="black" points="140.5,-313.5 140.5,-332.5 239.5,-332.5 239.5,-313.5 140.5,-313.5"/>
<text text-anchor="middle" x="190" y="-320.5" font-family="Helvetica,sans-Serif" font-size="10.00">ItemBoxWorld.init</text>
</a>
</g>
</g>
<!-- Node1&#45;&gt;Node2 -->
<g id="edge1" class="edge"><title>Node1&#45;&gt;Node2</title>
<path fill="none" stroke="midnightblue" d="M103.641,-323C112.218,-323 121.189,-323 129.958,-323"/>
<polygon fill="midnightblue" stroke="midnightblue" points="130.123,-326.5 140.123,-323 130.123,-319.5 130.123,-326.5"/>
</g>
<!-- Node3 -->
<g id="node3" class="node"><title>Node3</title>
<g id="a_node3"><a xlink:href="../../db/d97/class_box_world.html#a25c34c68bdd68debd7de01a4f3b98bb1" target="_top" xlink:title="BoxWorld.setStage">
<polygon fill="white" stroke="black" points="314.5,-370.5 314.5,-389.5 421.5,-389.5 421.5,-370.5 314.5,-370.5"/>
<text text-anchor="middle" x="368" y="-377.5" font-family="Helvetica,sans-Serif" font-size="10.00">BoxWorld.setStage</text>
</a>
</g>
</g>
<!-- Node2&#45;&gt;Node3 -->
<g id="edge2" class="edge"><title>Node2&#45;&gt;Node3</title>
<path fill="none" stroke="midnightblue" d="M209.45,-332.639C226.368,-341.138 252.317,-353.332 276,-361 285.003,-363.915 294.655,-366.491 304.188,-368.731"/>
<polygon fill="midnightblue" stroke="midnightblue" points="303.522,-372.169 314.045,-370.944 305.055,-365.339 303.522,-372.169"/>
</g>
<!-- Node4 -->
<g id="node4" class="node"><title>Node4</title>
<g id="a_node4"><a xlink:href="../../db/d97/class_box_world.html#a3735494d6eeffc036cd757eb21170eb0" target="_top" xlink:title="BoxWorld.setObstacleXCoordinates">
<polygon fill="white" stroke="black" points="276.5,-332.5 276.5,-351.5 459.5,-351.5 459.5,-332.5 276.5,-332.5"/>
<text text-anchor="middle" x="368" y="-339.5" font-family="Helvetica,sans-Serif" font-size="10.00">BoxWorld.setObstacleXCoordinates</text>
</a>
</g>
</g>
<!-- Node2&#45;&gt;Node4 -->
<g id="edge3" class="edge"><title>Node2&#45;&gt;Node4</title>
<path fill="none" stroke="midnightblue" d="M239.559,-328.242C248.716,-329.231 258.592,-330.297 268.65,-331.383"/>
<polygon fill="midnightblue" stroke="midnightblue" points="268.432,-334.879 278.75,-332.473 269.184,-327.92 268.432,-334.879"/>
</g>
<!-- Node5 -->
<g id="node5" class="node"><title>Node5</title>
<g id="a_node5"><a xlink:href="../../db/d97/class_box_world.html#ab45827804913790744cdbaaf8a222256" target="_top" xlink:title="BoxWorld.setObstacleYCoordinates">
<polygon fill="white" stroke="black" points="277,-294.5 277,-313.5 459,-313.5 459,-294.5 277,-294.5"/>
<text text-anchor="middle" x="368" y="-301.5" font-family="Helvetica,sans-Serif" font-size="10.00">BoxWorld.setObstacleYCoordinates</text>
</a>
</g>
</g>
<!-- Node2&#45;&gt;Node5 -->
<g id="edge4" class="edge"><title>Node2&#45;&gt;Node5</title>
<path fill="none" stroke="midnightblue" d="M239.559,-317.758C248.716,-316.769 258.592,-315.703 268.65,-314.617"/>
<polygon fill="midnightblue" stroke="midnightblue" points="269.184,-318.08 278.75,-313.527 268.432,-311.121 269.184,-318.08"/>
</g>
<!-- Node6 -->
<g id="node6" class="node"><title>Node6</title>
<g id="a_node6"><a xlink:href="../../db/d97/class_box_world.html#aeeaafc4ff103ded208e6c9393eb4ceca" target="_top" xlink:title="BoxWorld.setRoot">
<polygon fill="white" stroke="black" points="318.5,-256.5 318.5,-275.5 417.5,-275.5 417.5,-256.5 318.5,-256.5"/>
<text text-anchor="middle" x="368" y="-263.5" font-family="Helvetica,sans-Serif" font-size="10.00">BoxWorld.setRoot</text>
</a>
</g>
</g>
<!-- Node2&#45;&gt;Node6 -->
<g id="edge5" class="edge"><title>Node2&#45;&gt;Node6</title>
<path fill="none" stroke="midnightblue" d="M209.45,-313.361C226.368,-304.862 252.317,-292.668 276,-285 286.345,-281.651 297.548,-278.748 308.441,-276.289"/>
<polygon fill="midnightblue" stroke="midnightblue" points="309.287,-279.687 318.324,-274.156 307.81,-272.845 309.287,-279.687"/>
</g>
<!-- Node7 -->
<g id="node7" class="node"><title>Node7</title>
<g id="a_node7"><a xlink:href="../../db/d97/class_box_world.html#a69798621c944e846f045aaf3937505f9" target="_top" xlink:title="BoxWorld.addStarterObjects">
<polygon fill="white" stroke="black" points="1378.5,-142.5 1378.5,-161.5 1529.5,-161.5 1529.5,-142.5 1378.5,-142.5"/>
<text text-anchor="middle" x="1454" y="-149.5" font-family="Helvetica,sans-Serif" font-size="10.00">BoxWorld.addStarterObjects</text>
</a>
</g>
</g>
<!-- Node2&#45;&gt;Node7 -->
<g id="edge6" class="edge"><title>Node2&#45;&gt;Node7</title>
<path fill="none" stroke="midnightblue" d="M195.394,-313.326C205.942,-291.228 234.905,-236.813 276,-209 519.122,-44.4583 629.432,-76 923,-76 923,-76 923,-76 1062,-76 1193.16,-76 1344.6,-117.72 1414.27,-139.338"/>
<polygon fill="midnightblue" stroke="midnightblue" points="1413.36,-142.719 1423.95,-142.375 1415.45,-136.04 1413.36,-142.719"/>
</g>
<!-- Node9 -->
<g id="node9" class="node"><title>Node9</title>
<g id="a_node9"><a xlink:href="../../d6/d4f/class_item_box_world.html#a7ead15fd9fd8095f928640161d48fdf8" target="_top" xlink:title="ItemBoxWorld.addAllItems">
<polygon fill="white" stroke="black" points="297.5,-38.5 297.5,-57.5 438.5,-57.5 438.5,-38.5 297.5,-38.5"/>
<text text-anchor="middle" x="368" y="-45.5" font-family="Helvetica,sans-Serif" font-size="10.00">ItemBoxWorld.addAllItems</text>
</a>
</g>
</g>
<!-- Node2&#45;&gt;Node9 -->
<g id="edge8" class="edge"><title>Node2&#45;&gt;Node9</title>
<path fill="none" stroke="midnightblue" d="M194.541,-313.381C204.812,-286.104 236.419,-206.452 276,-148 297.748,-115.884 329.332,-83.5664 348.995,-64.6868"/>
<polygon fill="midnightblue" stroke="midnightblue" points="351.534,-67.1025 356.387,-57.6841 346.72,-62.0208 351.534,-67.1025"/>
</g>
<!-- Node13 -->
<g id="node13" class="node"><title>Node13</title>
<g id="a_node13"><a xlink:href="../../db/d97/class_box_world.html#ad20a4e43406c44f4bbf201d1d1028998" target="_top" xlink:title="BoxWorld.start">
<polygon fill="white" stroke="black" points="325,-218.5 325,-237.5 411,-237.5 411,-218.5 325,-218.5"/>
<text text-anchor="middle" x="368" y="-225.5" font-family="Helvetica,sans-Serif" font-size="10.00">BoxWorld.start</text>
</a>
</g>
</g>
<!-- Node2&#45;&gt;Node13 -->
<g id="edge13" class="edge"><title>Node2&#45;&gt;Node13</title>
<path fill="none" stroke="midnightblue" d="M198.774,-313.313C212.511,-296.901 242.781,-263.778 276,-247 287.939,-240.97 301.685,-236.853 314.817,-234.042"/>
<polygon fill="midnightblue" stroke="midnightblue" points="315.542,-237.467 324.699,-232.137 314.217,-230.593 315.542,-237.467"/>
</g>
<!-- Node24 -->
<g id="node24" class="node"><title>Node24</title>
<g id="a_node24"><a xlink:href="../../db/d97/class_box_world.html#a726e747e023543658d7a345cc6466ccb" target="_top" xlink:title="BoxWorld.createScene">
<polygon fill="white" stroke="black" points="1392,-446.5 1392,-465.5 1516,-465.5 1516,-446.5 1392,-446.5"/>
<text text-anchor="middle" x="1454" y="-453.5" font-family="Helvetica,sans-Serif" font-size="10.00">BoxWorld.createScene</text>
</a>
</g>
</g>
<!-- Node2&#45;&gt;Node24 -->
<g id="edge49" class="edge"><title>Node2&#45;&gt;Node24</title>
<path fill="none" stroke="midnightblue" d="M193.045,-332.68C199.5,-360.548 222.29,-441.139 276,-475 387.515,-545.304 440.174,-494 572,-494 572,-494 572,-494 1173,-494 1252.43,-494 1343.4,-478.798 1399.53,-467.624"/>
<polygon fill="midnightblue" stroke="midnightblue" points="1400.49,-471.001 1409.6,-465.589 1399.1,-464.14 1400.49,-471.001"/>
</g>
<!-- Node36 -->
<g id="node36" class="node"><title>Node36</title>
<g id="a_node36"><a xlink:href="../../db/d97/class_box_world.html#a8d7d9f1ae1ebcd87ff73c09780b70629" target="_top" xlink:title="BoxWorld.setAnimation">
<polygon fill="white" stroke="black" points="304.5,-446.5 304.5,-465.5 431.5,-465.5 431.5,-446.5 304.5,-446.5"/>
<text text-anchor="middle" x="368" y="-453.5" font-family="Helvetica,sans-Serif" font-size="10.00">BoxWorld.setAnimation</text>
</a>
</g>
</g>
<!-- Node2&#45;&gt;Node36 -->
<g id="edge47" class="edge"><title>Node2&#45;&gt;Node36</title>
<path fill="none" stroke="midnightblue" d="M195.292,-332.829C205.626,-355.253 234.169,-410.307 276,-437 281.759,-440.675 288.101,-443.654 294.677,-446.067"/>
<polygon fill="midnightblue" stroke="midnightblue" points="293.845,-449.476 304.436,-449.212 295.992,-442.813 293.845,-449.476"/>
</g>
<!-- Node37 -->
<g id="node37" class="node"><title>Node37</title>
<g id="a_node37"><a xlink:href="../../db/d97/class_box_world.html#a61929851f1d60c397e1448e614f1d701" target="_top" xlink:title="BoxWorld.getAnimation">
<polygon fill="white" stroke="black" points="304,-408.5 304,-427.5 432,-427.5 432,-408.5 304,-408.5"/>
<text text-anchor="middle" x="368" y="-415.5" font-family="Helvetica,sans-Serif" font-size="10.00">BoxWorld.getAnimation</text>
</a>
</g>
</g>
<!-- Node2&#45;&gt;Node37 -->
<g id="edge48" class="edge"><title>Node2&#45;&gt;Node37</title>
<path fill="none" stroke="midnightblue" d="M198.774,-332.687C212.511,-349.099 242.781,-382.222 276,-399 281.672,-401.865 287.753,-404.298 293.981,-406.364"/>
<polygon fill="midnightblue" stroke="midnightblue" points="293.27,-409.805 303.853,-409.319 295.277,-403.099 293.27,-409.805"/>
</g>
<!-- Node8 -->
<g id="node8" class="node"><title>Node8</title>
<g id="a_node8"><a xlink:href="../../db/d97/class_box_world.html#a2542cc74ebeba6a9768a443a55186901" target="_top" xlink:title="BoxWorld.createObstacleArray">
<polygon fill="white" stroke="black" points="1566.5,-142.5 1566.5,-161.5 1727.5,-161.5 1727.5,-142.5 1566.5,-142.5"/>
<text text-anchor="middle" x="1647" y="-149.5" font-family="Helvetica,sans-Serif" font-size="10.00">BoxWorld.createObstacleArray</text>
</a>
</g>
</g>
<!-- Node7&#45;&gt;Node8 -->
<g id="edge7" class="edge"><title>Node7&#45;&gt;Node8</title>
<path fill="none" stroke="midnightblue" d="M1529.67,-152C1538.41,-152 1547.4,-152 1556.31,-152"/>
<polygon fill="midnightblue" stroke="midnightblue" points="1556.34,-155.5 1566.34,-152 1556.34,-148.5 1556.34,-155.5"/>
</g>
<!-- Node10 -->
<g id="node10" class="node"><title>Node10</title>
<g id="a_node10"><a xlink:href="../../d6/d4f/class_item_box_world.html#a1890e6c53a4a73e44e9528009fde508d" target="_top" xlink:title="ItemBoxWorld.itemExists">
<polygon fill="white" stroke="black" points="506,-38.5 506,-57.5 640,-57.5 640,-38.5 506,-38.5"/>
<text text-anchor="middle" x="573" y="-45.5" font-family="Helvetica,sans-Serif" font-size="10.00">ItemBoxWorld.itemExists</text>
</a>
</g>
</g>
<!-- Node9&#45;&gt;Node10 -->
<g id="edge9" class="edge"><title>Node9&#45;&gt;Node10</title>
<path fill="none" stroke="midnightblue" d="M438.577,-48C457.062,-48 477.12,-48 495.931,-48"/>
<polygon fill="midnightblue" stroke="midnightblue" points="495.937,-51.5001 505.937,-48 495.937,-44.5001 495.937,-51.5001"/>
</g>
<!-- Node12 -->
<g id="node12" class="node"><title>Node12</title>
<g id="a_node12"><a xlink:href="../../d6/d4f/class_item_box_world.html#af1bcde0672796e926560684004ed8e81" target="_top" xlink:title="ItemBoxWorld.addSingleItem">
<polygon fill="white" stroke="black" points="496,-0.5 496,-19.5 650,-19.5 650,-0.5 496,-0.5"/>
<text text-anchor="middle" x="573" y="-7.5" font-family="Helvetica,sans-Serif" font-size="10.00">ItemBoxWorld.addSingleItem</text>
</a>
</g>
</g>
<!-- Node9&#45;&gt;Node12 -->
<g id="edge11" class="edge"><title>Node9&#45;&gt;Node12</title>
<path fill="none" stroke="midnightblue" d="M419.963,-38.46C447.594,-33.2878 481.933,-26.8599 510.981,-21.4222"/>
<polygon fill="midnightblue" stroke="midnightblue" points="511.83,-24.8242 521.016,-19.5439 510.542,-17.9437 511.83,-24.8242"/>
</g>
<!-- Node11 -->
<g id="node11" class="node"><title>Node11</title>
<g id="a_node11"><a xlink:href="../../db/d97/class_box_world.html#abb95adb381902ecab1db85efdc1ea6ff" target="_top" xlink:title="BoxWorld.getRoot">
<polygon fill="white" stroke="black" points="709,-19.5 709,-38.5 809,-38.5 809,-19.5 709,-19.5"/>
<text text-anchor="middle" x="759" y="-26.5" font-family="Helvetica,sans-Serif" font-size="10.00">BoxWorld.getRoot</text>
</a>
</g>
</g>
<!-- Node10&#45;&gt;Node11 -->
<g id="edge10" class="edge"><title>Node10&#45;&gt;Node11</title>
<path fill="none" stroke="midnightblue" d="M640.168,-41.1674C659.293,-39.1926 680.039,-37.0504 698.716,-35.1217"/>
<polygon fill="midnightblue" stroke="midnightblue" points="699.268,-38.5834 708.856,-34.0747 698.549,-31.6204 699.268,-38.5834"/>
</g>
<!-- Node12&#45;&gt;Node11 -->
<g id="edge12" class="edge"><title>Node12&#45;&gt;Node11</title>
<path fill="none" stroke="midnightblue" d="M650.168,-17.8652C666.469,-19.5485 683.454,-21.3024 698.992,-22.9068"/>
<polygon fill="midnightblue" stroke="midnightblue" points="698.666,-26.3916 708.972,-23.9374 699.385,-19.4286 698.666,-26.3916"/>
</g>
<!-- Node14 -->
<g id="node14" class="node"><title>Node14</title>
<g id="a_node14"><a xlink:href="../../db/d97/class_box_world.html#a6794c083c2a0263c2f585f4ae4b7e39c" target="_top" xlink:title="BoxWorld.updateSprites">
<polygon fill="white" stroke="black" points="507.5,-313.5 507.5,-332.5 638.5,-332.5 638.5,-313.5 507.5,-313.5"/>
<text text-anchor="middle" x="573" y="-320.5" font-family="Helvetica,sans-Serif" font-size="10.00">BoxWorld.updateSprites</text>
</a>
</g>
</g>
<!-- Node13&#45;&gt;Node14 -->
<g id="edge14" class="edge"><title>Node13&#45;&gt;Node14</title>
<path fill="none" stroke="midnightblue" d="M411.351,-232.039C427.246,-234.768 445.065,-239.34 460,-247 479.313,-256.905 478.441,-267.24 496,-280 510.788,-290.747 528.508,-300.91 543.115,-308.655"/>
<polygon fill="midnightblue" stroke="midnightblue" points="541.716,-311.872 552.204,-313.377 544.944,-305.66 541.716,-311.872"/>
</g>
<!-- Node15 -->
<g id="node15" class="node"><title>Node15</title>
<g id="a_node15"><a xlink:href="../../db/d97/class_box_world.html#a4079bed8937c9f621decfbe1309e31e2" target="_top" xlink:title="BoxWorld.checkAllCollisions">
<polygon fill="white" stroke="black" points="686,-180.5 686,-199.5 832,-199.5 832,-180.5 686,-180.5"/>
<text text-anchor="middle" x="759" y="-187.5" font-family="Helvetica,sans-Serif" font-size="10.00">BoxWorld.checkAllCollisions</text>
</a>
</g>
</g>
<!-- Node14&#45;&gt;Node15 -->
<g id="edge15" class="edge"><title>Node14&#45;&gt;Node15</title>
<path fill="none" stroke="midnightblue" d="M587.233,-313.435C618.51,-290.827 697.266,-233.9 735.914,-205.964"/>
<polygon fill="midnightblue" stroke="midnightblue" points="738.337,-208.532 744.391,-199.837 734.236,-202.859 738.337,-208.532"/>
</g>
<!-- Node17 -->
<g id="node17" class="node"><title>Node17</title>
<g id="a_node17"><a xlink:href="../../da/de2/class_sticky_box.html#a6ba3f89630df9d81df5644a3e5f4e387" target="_top" xlink:title="StickyBox.getXDirection">
<polygon fill="white" stroke="black" points="1954.5,-294.5 1954.5,-313.5 2085.5,-313.5 2085.5,-294.5 1954.5,-294.5"/>
<text text-anchor="middle" x="2020" y="-301.5" font-family="Helvetica,sans-Serif" font-size="10.00">StickyBox.getXDirection</text>
</a>
</g>
</g>
<!-- Node14&#45;&gt;Node17 -->
<g id="edge41" class="edge"><title>Node14&#45;&gt;Node17</title>
<path fill="none" stroke="midnightblue" d="M638.587,-317.376C708.595,-311.774 823.636,-304 923,-304 923,-304 923,-304 1648,-304 1750.58,-304 1869.11,-304 1944.05,-304"/>
<polygon fill="midnightblue" stroke="midnightblue" points="1944.33,-307.5 1954.33,-304 1944.33,-300.5 1944.33,-307.5"/>
</g>
<!-- Node18 -->
<g id="node18" class="node"><title>Node18</title>
<g id="a_node18"><a xlink:href="../../da/de2/class_sticky_box.html#a69e5ccf2a79159c03dea2e048df13318" target="_top" xlink:title="StickyBox.getYDirection">
<polygon fill="white" stroke="black" points="1955,-218.5 1955,-237.5 2085,-237.5 2085,-218.5 1955,-218.5"/>
<text text-anchor="middle" x="2020" y="-225.5" font-family="Helvetica,sans-Serif" font-size="10.00">StickyBox.getYDirection</text>
</a>
</g>
</g>
<!-- Node14&#45;&gt;Node18 -->
<g id="edge42" class="edge"><title>Node14&#45;&gt;Node18</title>
<path fill="none" stroke="midnightblue" d="M578.167,-313.342C590.39,-286.22 628.918,-208.881 686,-171 776.268,-111.095 814.663,-114 923,-114 923,-114 923,-114 1648,-114 1782.36,-114 1932.5,-183.163 1992.32,-213.746"/>
<polygon fill="midnightblue" stroke="midnightblue" points="1990.96,-216.985 2001.45,-218.477 1994.18,-210.769 1990.96,-216.985"/>
</g>
<!-- Node30 -->
<g id="node30" class="node"><title>Node30</title>
<g id="a_node30"><a xlink:href="../../da/de2/class_sticky_box.html#aa1bb8f78f676b01c688d75d386758444" target="_top" xlink:title="StickyBox.setDirection">
<polygon fill="white" stroke="black" points="1958,-446.5 1958,-465.5 2082,-465.5 2082,-446.5 1958,-446.5"/>
<text text-anchor="middle" x="2020" y="-453.5" font-family="Helvetica,sans-Serif" font-size="10.00">StickyBox.setDirection</text>
</a>
</g>
</g>
<!-- Node14&#45;&gt;Node30 -->
<g id="edge44" class="edge"><title>Node14&#45;&gt;Node30</title>
<path fill="none" stroke="midnightblue" d="M584.096,-332.597C602.588,-349.5 643.88,-384.191 686,-399 785.689,-434.051 817.329,-418 923,-418 923,-418 923,-418 1648,-418 1754.52,-418 1877.34,-433.693 1951.53,-444.909"/>
<polygon fill="midnightblue" stroke="midnightblue" points="1951.25,-448.408 1961.67,-446.46 1952.31,-441.488 1951.25,-448.408"/>
</g>
<!-- Node31 -->
<g id="node31" class="node"><title>Node31</title>
<g id="a_node31"><a xlink:href="../../da/de2/class_sticky_box.html#a5d95d2ed2e13f0d87a44311db77f9e36" target="_top" xlink:title="StickyBox.setPreviousDirection">
<polygon fill="white" stroke="black" points="1938,-503.5 1938,-522.5 2102,-522.5 2102,-503.5 1938,-503.5"/>
<text text-anchor="middle" x="2020" y="-510.5" font-family="Helvetica,sans-Serif" font-size="10.00">StickyBox.setPreviousDirection</text>
</a>
</g>
</g>
<!-- Node14&#45;&gt;Node31 -->
<g id="edge45" class="edge"><title>Node14&#45;&gt;Node31</title>
<path fill="none" stroke="midnightblue" d="M581.154,-332.533C597.271,-353.212 638.726,-402.09 686,-424 782.435,-468.695 816.711,-456 923,-456 923,-456 923,-456 1173,-456 1349.49,-456 1389.96,-500.3 1566,-513 1691.13,-522.027 1836.21,-519.804 1927.79,-516.846"/>
<polygon fill="midnightblue" stroke="midnightblue" points="1927.98,-520.342 1937.86,-516.511 1927.75,-513.346 1927.98,-520.342"/>
</g>
<!-- Node34 -->
<g id="node34" class="node"><title>Node34</title>
<g id="a_node34"><a xlink:href="../../da/de2/class_sticky_box.html#a185ee469367b376e6c5969a03d089d57" target="_top" xlink:title="StickyBox.move">
<polygon fill="white" stroke="black" points="712.5,-370.5 712.5,-389.5 805.5,-389.5 805.5,-370.5 712.5,-370.5"/>
<text text-anchor="middle" x="759" y="-377.5" font-family="Helvetica,sans-Serif" font-size="10.00">StickyBox.move</text>
</a>
</g>
</g>
<!-- Node14&#45;&gt;Node34 -->
<g id="edge43" class="edge"><title>Node14&#45;&gt;Node34</title>
<path fill="none" stroke="midnightblue" d="M600.536,-332.581C623.126,-340.598 656.509,-352.117 686,-361 693.744,-363.333 702.004,-365.66 710.064,-367.845"/>
<polygon fill="midnightblue" stroke="midnightblue" points="709.184,-371.233 719.748,-370.431 710.99,-364.47 709.184,-371.233"/>
</g>
<!-- Node35 -->
<g id="node35" class="node"><title>Node35</title>
<g id="a_node35"><a xlink:href="../../da/de2/class_sticky_box.html#a59337f0aa3c7379a2cb9c76bdc621daf" target="_top" xlink:title="StickyBox.setStuck">
<polygon fill="white" stroke="black" points="705,-332.5 705,-351.5 813,-351.5 813,-332.5 705,-332.5"/>
<text text-anchor="middle" x="759" y="-339.5" font-family="Helvetica,sans-Serif" font-size="10.00">StickyBox.setStuck</text>
</a>
</g>
</g>
<!-- Node14&#45;&gt;Node35 -->
<g id="edge46" class="edge"><title>Node14&#45;&gt;Node35</title>
<path fill="none" stroke="midnightblue" d="M638.613,-329.672C656.789,-331.549 676.534,-333.588 694.636,-335.457"/>
<polygon fill="midnightblue" stroke="midnightblue" points="694.484,-338.96 704.791,-336.506 695.203,-331.997 694.484,-338.96"/>
</g>
<!-- Node15&#45;&gt;Node1 -->
<g id="edge40" class="edge"><title>Node15&#45;&gt;Node1</title>
<path fill="none" stroke="midnightblue" d="M685.945,-183.329C590.464,-176.626 417.576,-171.945 276,-209 196.753,-229.741 113.372,-281.695 74.861,-307.688"/>
<polygon fill="midnightblue" stroke="midnightblue" points="72.7704,-304.878 66.4892,-313.41 76.7201,-310.657 72.7704,-304.878"/>
</g>
<!-- Node16 -->
<g id="node16" class="node"><title>Node16</title>
<g id="a_node16"><a xlink:href="../../db/d97/class_box_world.html#a55add11037cd6dc48556f2f42a9e11be" target="_top" xlink:title="BoxWorld.checkCollide">
<polygon fill="white" stroke="black" points="1772,-218.5 1772,-237.5 1894,-237.5 1894,-218.5 1772,-218.5"/>
<text text-anchor="middle" x="1833" y="-225.5" font-family="Helvetica,sans-Serif" font-size="10.00">BoxWorld.checkCollide</text>
</a>
</g>
</g>
<!-- Node15&#45;&gt;Node16 -->
<g id="edge16" class="edge"><title>Node15&#45;&gt;Node16</title>
<path fill="none" stroke="midnightblue" d="M832.135,-190C892.903,-190 982.135,-190 1060,-190 1060,-190 1060,-190 1455,-190 1563.22,-190 1688.04,-205.693 1763.43,-216.909"/>
<polygon fill="midnightblue" stroke="midnightblue" points="1763.33,-220.433 1773.74,-218.46 1764.37,-213.51 1763.33,-220.433"/>
</g>
<!-- Node19 -->
<g id="node19" class="node"><title>Node19</title>
<g id="a_node19"><a xlink:href="../../db/d97/class_box_world.html#a72bacb2a6757900d8835249929fcc838" target="_top" xlink:title="BoxWorld.loseGame">
<polygon fill="white" stroke="black" points="868,-218.5 868,-237.5 980,-237.5 980,-218.5 868,-218.5"/>
<text text-anchor="middle" x="924" y="-225.5" font-family="Helvetica,sans-Serif" font-size="10.00">BoxWorld.loseGame</text>
</a>
</g>
</g>
<!-- Node15&#45;&gt;Node19 -->
<g id="edge19" class="edge"><title>Node15&#45;&gt;Node19</title>
<path fill="none" stroke="midnightblue" d="M801.132,-199.589C822.738,-204.626 849.409,-210.844 872.286,-216.177"/>
<polygon fill="midnightblue" stroke="midnightblue" points="871.63,-219.618 882.164,-218.48 873.22,-212.801 871.63,-219.618"/>
</g>
<!-- Node33 -->
<g id="node33" class="node"><title>Node33</title>
<g id="a_node33"><a xlink:href="../../db/d97/class_box_world.html#a167adb49603af3a303ee958011243b5f" target="_top" xlink:title="BoxWorld.onScreen">
<polygon fill="white" stroke="black" points="869.5,-142.5 869.5,-161.5 978.5,-161.5 978.5,-142.5 869.5,-142.5"/>
<text text-anchor="middle" x="924" y="-149.5" font-family="Helvetica,sans-Serif" font-size="10.00">BoxWorld.onScreen</text>
</a>
</g>
</g>
<!-- Node15&#45;&gt;Node33 -->
<g id="edge39" class="edge"><title>Node15&#45;&gt;Node33</title>
<path fill="none" stroke="midnightblue" d="M801.132,-180.411C822.738,-175.374 849.409,-169.156 872.286,-163.823"/>
<polygon fill="midnightblue" stroke="midnightblue" points="873.22,-167.199 882.164,-161.52 871.63,-160.382 873.22,-167.199"/>
</g>
<!-- Node16&#45;&gt;Node17 -->
<g id="edge17" class="edge"><title>Node16&#45;&gt;Node17</title>
<path fill="none" stroke="midnightblue" d="M1857.43,-237.625C1890.1,-251.045 1949.46,-275.434 1986.42,-290.617"/>
<polygon fill="midnightblue" stroke="midnightblue" points="1985.18,-293.89 1995.76,-294.453 1987.84,-287.415 1985.18,-293.89"/>
</g>
<!-- Node16&#45;&gt;Node18 -->
<g id="edge18" class="edge"><title>Node16&#45;&gt;Node18</title>
<path fill="none" stroke="midnightblue" d="M1894.06,-228C1910.14,-228 1927.71,-228 1944.47,-228"/>
<polygon fill="midnightblue" stroke="midnightblue" points="1944.77,-231.5 1954.77,-228 1944.77,-224.5 1944.77,-231.5"/>
</g>
<!-- Node20 -->
<g id="node20" class="node"><title>Node20</title>
<g id="a_node20"><a xlink:href="../../d4/d2f/class_lose_screen.html#a34f2cc2c803500316c9b8d854854d758" target="_top" xlink:title="LoseScreen.init">
<polygon fill="white" stroke="black" points="1016,-218.5 1016,-237.5 1106,-237.5 1106,-218.5 1016,-218.5"/>
<text text-anchor="middle" x="1061" y="-225.5" font-family="Helvetica,sans-Serif" font-size="10.00">LoseScreen.init</text>
</a>
</g>
</g>
<!-- Node19&#45;&gt;Node20 -->
<g id="edge20" class="edge"><title>Node19&#45;&gt;Node20</title>
<path fill="none" stroke="midnightblue" d="M980.299,-228C988.686,-228 997.332,-228 1005.7,-228"/>
<polygon fill="midnightblue" stroke="midnightblue" points="1005.72,-231.5 1015.72,-228 1005.72,-224.5 1005.72,-231.5"/>
</g>
<!-- Node21 -->
<g id="node21" class="node"><title>Node21</title>
<g id="a_node21"><a xlink:href="../../d2/db8/class_menu.html#a3c99ad09e9f2f975c1a0d0597642651a" target="_top" xlink:title="Menu.init">
<polygon fill="white" stroke="black" points="1142,-218.5 1142,-237.5 1202,-237.5 1202,-218.5 1142,-218.5"/>
<text text-anchor="middle" x="1172" y="-225.5" font-family="Helvetica,sans-Serif" font-size="10.00">Menu.init</text>
</a>
</g>
</g>
<!-- Node20&#45;&gt;Node21 -->
<g id="edge21" class="edge"><title>Node20&#45;&gt;Node21</title>
<path fill="none" stroke="midnightblue" d="M1106.02,-228C1114.5,-228 1123.32,-228 1131.64,-228"/>
<polygon fill="midnightblue" stroke="midnightblue" points="1131.83,-231.5 1141.83,-228 1131.83,-224.5 1131.83,-231.5"/>
</g>
<!-- Node22 -->
<g id="node22" class="node"><title>Node22</title>
<g id="a_node22"><a xlink:href="../../d2/db8/class_menu.html#a8a6e6125f0dc2dc7e19c6655ba6376a2" target="_top" xlink:title="Menu.addIntroText">
<polygon fill="white" stroke="black" points="1238,-218.5 1238,-237.5 1342,-237.5 1342,-218.5 1238,-218.5"/>
<text text-anchor="middle" x="1290" y="-225.5" font-family="Helvetica,sans-Serif" font-size="10.00">Menu.addIntroText</text>
</a>
</g>
</g>
<!-- Node21&#45;&gt;Node22 -->
<g id="edge22" class="edge"><title>Node21&#45;&gt;Node22</title>
<path fill="none" stroke="midnightblue" d="M1202.27,-228C1209.99,-228 1218.62,-228 1227.35,-228"/>
<polygon fill="midnightblue" stroke="midnightblue" points="1227.61,-231.5 1237.61,-228 1227.61,-224.5 1227.61,-231.5"/>
</g>
<!-- Node23 -->
<g id="node23" class="node"><title>Node23</title>
<g id="a_node23"><a xlink:href="../../db/d97/class_box_world.html#a55bf92d3f466bfaade0f6d199d8c9bd9" target="_top" xlink:title="BoxWorld.init">
<polygon fill="white" stroke="black" points="1251.5,-256.5 1251.5,-275.5 1328.5,-275.5 1328.5,-256.5 1251.5,-256.5"/>
<text text-anchor="middle" x="1290" y="-263.5" font-family="Helvetica,sans-Serif" font-size="10.00">BoxWorld.init</text>
</a>
</g>
</g>
<!-- Node21&#45;&gt;Node23 -->
<g id="edge23" class="edge"><title>Node21&#45;&gt;Node23</title>
<path fill="none" stroke="midnightblue" d="M1202.27,-237.589C1216.7,-242.314 1234.29,-248.079 1249.86,-253.177"/>
<polygon fill="midnightblue" stroke="midnightblue" points="1249.14,-256.627 1259.74,-256.414 1251.32,-249.975 1249.14,-256.627"/>
</g>
<!-- Node23&#45;&gt;Node7 -->
<g id="edge24" class="edge"><title>Node23&#45;&gt;Node7</title>
<path fill="none" stroke="midnightblue" d="M1322.01,-256.434C1328.8,-253.799 1335.81,-250.644 1342,-247 1379.43,-224.954 1416.46,-189.887 1436.87,-169.088"/>
<polygon fill="midnightblue" stroke="midnightblue" points="1439.65,-171.247 1444.08,-161.623 1434.62,-166.383 1439.65,-171.247"/>
</g>
<!-- Node23&#45;&gt;Node13 -->
<g id="edge38" class="edge"><title>Node23&#45;&gt;Node13</title>
<path fill="none" stroke="midnightblue" d="M1251.24,-266C1206.2,-266 1128.6,-266 1062,-266 758,-266 758,-266 758,-266 636.971,-266 495.76,-247.554 421.24,-236.365"/>
<polygon fill="midnightblue" stroke="midnightblue" points="421.588,-232.878 411.176,-234.838 420.538,-239.799 421.588,-232.878"/>
</g>
<!-- Node23&#45;&gt;Node24 -->
<g id="edge25" class="edge"><title>Node23&#45;&gt;Node24</title>
<path fill="none" stroke="midnightblue" d="M1299.26,-275.683C1325.03,-305.914 1404.28,-398.865 1437.79,-438.163"/>
<polygon fill="midnightblue" stroke="midnightblue" points="1435.41,-440.77 1444.57,-446.108 1440.74,-436.228 1435.41,-440.77"/>
</g>
<!-- Node25 -->
<g id="node25" class="node"><title>Node25</title>
<g id="a_node25"><a xlink:href="../../db/d97/class_box_world.html#aa7e2049d7be23e15fd2ec7fa2922ed79" target="_top" xlink:title="BoxWorld.handleKeyInput">
<polygon fill="white" stroke="black" points="1579,-484.5 1579,-503.5 1715,-503.5 1715,-484.5 1579,-484.5"/>
<text text-anchor="middle" x="1647" y="-491.5" font-family="Helvetica,sans-Serif" font-size="10.00">BoxWorld.handleKeyInput</text>
</a>
</g>
</g>
<!-- Node24&#45;&gt;Node25 -->
<g id="edge26" class="edge"><title>Node24&#45;&gt;Node25</title>
<path fill="none" stroke="midnightblue" d="M1503.2,-465.589C1528.97,-470.716 1560.89,-477.067 1588.01,-482.463"/>
<polygon fill="midnightblue" stroke="midnightblue" points="1587.66,-485.961 1598.15,-484.48 1589.02,-479.096 1587.66,-485.961"/>
</g>
<!-- Node32 -->
<g id="node32" class="node"><title>Node32</title>
<g id="a_node32"><a xlink:href="../../db/d97/class_box_world.html#a2d44485a181577acb4d79b6b81f26fff" target="_top" xlink:title="BoxWorld.handleKeyRelease">
<polygon fill="white" stroke="black" points="1572.5,-446.5 1572.5,-465.5 1721.5,-465.5 1721.5,-446.5 1572.5,-446.5"/>
<text text-anchor="middle" x="1647" y="-453.5" font-family="Helvetica,sans-Serif" font-size="10.00">BoxWorld.handleKeyRelease</text>
</a>
</g>
</g>
<!-- Node24&#45;&gt;Node32 -->
<g id="edge37" class="edge"><title>Node24&#45;&gt;Node32</title>
<path fill="none" stroke="midnightblue" d="M1516.22,-456C1530.9,-456 1546.83,-456 1562.33,-456"/>
<polygon fill="midnightblue" stroke="midnightblue" points="1562.44,-459.5 1572.44,-456 1562.44,-452.5 1562.44,-459.5"/>
</g>
<!-- Node25&#45;&gt;Node1 -->
<g id="edge36" class="edge"><title>Node25&#45;&gt;Node1</title>
<path fill="none" stroke="midnightblue" d="M1578.77,-502.813C1487.19,-514.039 1317.99,-532 1173,-532 367,-532 367,-532 367,-532 229.239,-532 105.851,-390.866 66.2417,-340.554"/>
<polygon fill="midnightblue" stroke="midnightblue" points="68.9159,-338.29 60.0281,-332.523 63.3797,-342.574 68.9159,-338.29"/>
</g>
<!-- Node26 -->
<g id="node26" class="node"><title>Node26</title>
<g id="a_node26"><a xlink:href="../../db/d97/class_box_world.html#adc4c9d78ffde3d052c4c92047eb98e55" target="_top" xlink:title="BoxWorld.allowMovement">
<polygon fill="white" stroke="black" points="1764.5,-332.5 1764.5,-351.5 1901.5,-351.5 1901.5,-332.5 1764.5,-332.5"/>
<text text-anchor="middle" x="1833" y="-339.5" font-family="Helvetica,sans-Serif" font-size="10.00">BoxWorld.allowMovement</text>
</a>
</g>
</g>
<!-- Node25&#45;&gt;Node26 -->
<g id="edge27" class="edge"><title>Node25&#45;&gt;Node26</title>
<path fill="none" stroke="midnightblue" d="M1708.36,-484.375C1715.28,-481.925 1721.99,-478.853 1728,-475 1751.58,-459.88 1797.92,-393.199 1819.89,-360.378"/>
<polygon fill="midnightblue" stroke="midnightblue" points="1823.02,-361.996 1825.64,-351.73 1817.19,-358.121 1823.02,-361.996"/>
</g>
<!-- Node29 -->
<g id="node29" class="node"><title>Node29</title>
<g id="a_node29"><a xlink:href="../../db/d97/class_box_world.html#a04c6bf977c4292a5433649fb3745fd6b" target="_top" xlink:title="BoxWorld.reset">
<polygon fill="white" stroke="black" points="1789,-484.5 1789,-503.5 1877,-503.5 1877,-484.5 1789,-484.5"/>
<text text-anchor="middle" x="1833" y="-491.5" font-family="Helvetica,sans-Serif" font-size="10.00">BoxWorld.reset</text>
</a>
</g>
</g>
<!-- Node25&#45;&gt;Node29 -->
<g id="edge32" class="edge"><title>Node25&#45;&gt;Node29</title>
<path fill="none" stroke="midnightblue" d="M1715.21,-494C1736.19,-494 1759.03,-494 1778.9,-494"/>
<polygon fill="midnightblue" stroke="midnightblue" points="1779,-497.5 1789,-494 1779,-490.5 1779,-497.5"/>
</g>
<!-- Node25&#45;&gt;Node30 -->
<g id="edge35" class="edge"><title>Node25&#45;&gt;Node30</title>
<path fill="none" stroke="midnightblue" d="M1700.12,-484.461C1720.05,-481.077 1743.03,-477.494 1764,-475 1825.76,-467.656 1896.29,-462.66 1947.5,-459.641"/>
<polygon fill="midnightblue" stroke="midnightblue" points="1948.02,-463.117 1957.8,-459.045 1947.61,-456.129 1948.02,-463.117"/>
</g>
<!-- Node26&#45;&gt;Node17 -->
<g id="edge28" class="edge"><title>Node26&#45;&gt;Node17</title>
<path fill="none" stroke="midnightblue" d="M1880.68,-332.411C1905.65,-327.284 1936.56,-320.933 1962.83,-315.537"/>
<polygon fill="midnightblue" stroke="midnightblue" points="1963.56,-318.961 1972.65,-313.52 1962.15,-312.104 1963.56,-318.961"/>
</g>
<!-- Node26&#45;&gt;Node18 -->
<g id="edge30" class="edge"><title>Node26&#45;&gt;Node18</title>
<path fill="none" stroke="midnightblue" d="M1849.45,-332.477C1881.69,-312.61 1956.32,-266.626 1994.91,-242.844"/>
<polygon fill="midnightblue" stroke="midnightblue" points="1996.78,-245.802 2003.46,-237.577 1993.11,-239.843 1996.78,-245.802"/>
</g>
<!-- Node27 -->
<g id="node27" class="node"><title>Node27</title>
<g id="a_node27"><a xlink:href="../../da/de2/class_sticky_box.html#ab0bd7cafb7f243e3951558ddb8728b96" target="_top" xlink:title="StickyBox.getXPrev">
<polygon fill="white" stroke="black" points="1965.5,-370.5 1965.5,-389.5 2074.5,-389.5 2074.5,-370.5 1965.5,-370.5"/>
<text text-anchor="middle" x="2020" y="-377.5" font-family="Helvetica,sans-Serif" font-size="10.00">StickyBox.getXPrev</text>
</a>
</g>
</g>
<!-- Node26&#45;&gt;Node27 -->
<g id="edge29" class="edge"><title>Node26&#45;&gt;Node27</title>
<path fill="none" stroke="midnightblue" d="M1880.68,-351.589C1905.65,-356.716 1936.56,-363.067 1962.83,-368.463"/>
<polygon fill="midnightblue" stroke="midnightblue" points="1962.15,-371.896 1972.65,-370.48 1963.56,-365.039 1962.15,-371.896"/>
</g>
<!-- Node28 -->
<g id="node28" class="node"><title>Node28</title>
<g id="a_node28"><a xlink:href="../../da/de2/class_sticky_box.html#a4c6abed944faed9d9b226079e99cfc24" target="_top" xlink:title="StickyBox.getYPrev">
<polygon fill="white" stroke="black" points="1966,-332.5 1966,-351.5 2074,-351.5 2074,-332.5 1966,-332.5"/>
<text text-anchor="middle" x="2020" y="-339.5" font-family="Helvetica,sans-Serif" font-size="10.00">StickyBox.getYPrev</text>
</a>
</g>
</g>
<!-- Node26&#45;&gt;Node28 -->
<g id="edge31" class="edge"><title>Node26&#45;&gt;Node28</title>
<path fill="none" stroke="midnightblue" d="M1901.57,-342C1919.26,-342 1938.27,-342 1955.72,-342"/>
<polygon fill="midnightblue" stroke="midnightblue" points="1955.8,-345.5 1965.8,-342 1955.8,-338.5 1955.8,-345.5"/>
</g>
<!-- Node29&#45;&gt;Node30 -->
<g id="edge33" class="edge"><title>Node29&#45;&gt;Node30</title>
<path fill="none" stroke="midnightblue" d="M1877.37,-485.091C1902.87,-479.855 1935.37,-473.178 1962.81,-467.542"/>
<polygon fill="midnightblue" stroke="midnightblue" points="1963.57,-470.958 1972.66,-465.518 1962.16,-464.101 1963.57,-470.958"/>
</g>
<!-- Node29&#45;&gt;Node31 -->
<g id="edge34" class="edge"><title>Node29&#45;&gt;Node31</title>
<path fill="none" stroke="midnightblue" d="M1877.37,-498.455C1892.46,-500.004 1910.01,-501.806 1927.5,-503.603"/>
<polygon fill="midnightblue" stroke="midnightblue" points="1927.47,-507.118 1937.78,-504.658 1928.19,-500.155 1927.47,-507.118"/>
</g>
</g>
</svg>
        <g id="navigator" transform="translate(0 0)" fill="#404254">
                <rect fill="#f2f5e9" fill-opacity="0.5" stroke="#606060" stroke-width=".5" x="0" y="0" width="60" height="60"/>
                <use id="zoomplus" xlink:href="#zoomPlus" x="17" y="9" onmousedown="handleZoom(evt,'in')"/>
                <use id="zoomminus" xlink:href="#zoomMin" x="42" y="9" onmousedown="handleZoom(evt,'out')"/>
                <use id="reset" xlink:href="#resetDef" x="30" y="36" onmousedown="handleReset()"/>
                <g id="arrowUp" xlink:href="#dirArrow" transform="translate(30 24)" onmousedown="handlePan(0,-1)">
                  <use xlink:href="#rim" fill="#404040">
                        <set attributeName="fill" to="#808080" begin="arrowUp.mouseover" end="arrowUp.mouseout"/>
                  </use>
                  <path fill="none" stroke="white" stroke-width="1.5" d="M0,-3.0v7 M-2.5,-0.5L0,-3.0L2.5,-0.5"/>
                </g>
                <g id="arrowRight" xlink:href="#dirArrow" transform="rotate(90) translate(36 -43)" onmousedown="handlePan(1,0)">
                  <use xlink:href="#rim" fill="#404040">
                        <set attributeName="fill" to="#808080" begin="arrowRight.mouseover" end="arrowRight.mouseout"/>
                  </use>
                  <path fill="none" stroke="white" stroke-width="1.5" d="M0,-3.0v7 M-2.5,-0.5L0,-3.0L2.5,-0.5"/>
                </g>
                <g id="arrowDown" xlink:href="#dirArrow" transform="rotate(180) translate(-30 -48)" onmousedown="handlePan(0,1)">
                  <use xlink:href="#rim" fill="#404040">
                        <set attributeName="fill" to="#808080" begin="arrowDown.mouseover" end="arrowDown.mouseout"/>
                  </use>
                  <path fill="none" stroke="white" stroke-width="1.5" d="M0,-3.0v7 M-2.5,-0.5L0,-3.0L2.5,-0.5"/>
                </g>
                <g id="arrowLeft" xlink:href="#dirArrow" transform="rotate(270) translate(-36 17)" onmousedown="handlePan(-1,0)">
                  <use xlink:href="#rim" fill="#404040">
                        <set attributeName="fill" to="#808080" begin="arrowLeft.mouseover" end="arrowLeft.mouseout"/>
                  </use>
                  <path fill="none" stroke="white" stroke-width="1.5" d="M0,-3.0v7 M-2.5,-0.5L0,-3.0L2.5,-0.5"/>
                </g>
        </g>
        <svg viewBox="0 0 15 15" width="100%" height="30px" preserveAspectRatio="xMaxYMin meet">
         <g id="arrow_out" transform="scale(0.3 0.3)">
          <a xlink:href="class_box_world_aad670712776afe126e51791097027e05_cgraph_org.svg" target="_base">
           <rect id="button" ry="5" rx="5" y="6" x="6" height="38" width="38"
                fill="#f2f5e9" fill-opacity="0.5" stroke="#606060" stroke-width="1.0"/>
           <path id="arrow"
             d="M 11.500037,31.436501 C 11.940474,20.09759 22.043105,11.32322 32.158766,21.979434 L 37.068811,17.246167 C 37.068811,17.246167 37.088388,32 37.088388,32 L 22.160133,31.978069 C 22.160133,31.978069 26.997745,27.140456 26.997745,27.140456 C 18.528582,18.264221 13.291696,25.230495 11.500037,31.436501 z"
             style="fill:#404040;"/>
          </a>
         </g>
        </svg>
</svg>
