<?xml version="1.0" encoding="UTF-8" standalone="no"?>
<!DOCTYPE svg PUBLIC "-//W3C//DTD SVG 1.1//EN"
 "http://www.w3.org/Graphics/SVG/1.1/DTD/svg11.dtd">
<!-- Generated by graphviz version 2.36.0 (20140111.2315)
 -->
<!-- Title: BoxWorld.updateSprites Pages: 1 -->
<!--zoomable 512 -->
<svg id="main" version="1.1" xmlns="http://www.w3.org/2000/svg" xmlns:xlink="http://www.w3.org/1999/xlink" xml:space="preserve" onload="init(evt)">
<style type="text/css"><![CDATA[
.edge:hover path { stroke: red; }
.edge:hover polygon { stroke: red; fill: red; }
]]></style>
<script type="text/javascript"><![CDATA[
var edges = document.getElementsByTagName('g');
if (edges && edges.length) {
  for (var i=0;i<edges.length;i++) {
    if (edges[i].id.substr(0,4)=='edge') {
      edges[i].setAttribute('class','edge');
    }
  }
}
]]></script>
        <defs>
                <circle id="rim" cx="0" cy="0" r="7"/>
                <circle id="rim2" cx="0" cy="0" r="3.5"/>
                <g id="zoomPlus">
                        <use xlink:href="#rim" fill="#404040">
                                <set attributeName="fill" to="#808080" begin="zoomplus.mouseover" end="zoomplus.mouseout"/>
                        </use>
                        <path d="M-4,0h8M0,-4v8" fill="none" stroke="white" stroke-width="1.5" pointer-events="none"/>
                </g>
                <g id="zoomMin">
                        <use xlink:href="#rim" fill="#404040">
                                <set attributeName="fill" to="#808080" begin="zoomminus.mouseover" end="zoomminus.mouseout"/>
                        </use>
                        <path d="M-4,0h8" fill="none" stroke="white" stroke-width="1.5" pointer-events="none"/>
                </g>
                <g id="dirArrow">
                        <path fill="none" stroke="white" stroke-width="1.5" d="M0,-3.0v7 M-2.5,-0.5L0,-3.0L2.5,-0.5"/>
                </g>
               <g id="resetDef">
                       <use xlink:href="#rim2" fill="#404040">
                               <set attributeName="fill" to="#808080" begin="reset.mouseover" end="reset.mouseout"/>
                       </use>
               </g>
        </defs>

<script type="text/javascript">
var viewWidth = 1938;
var viewHeight = 512;
var sectionId = 'dynsection-25';
</script>
<script xlink:href="../../svgpan.js"/>
<svg id="graph" class="graph">
<g id="viewport">
<title>BoxWorld.updateSprites</title>
<polygon fill="white" stroke="none" points="-4,4 -4,-508.211 1934,-508.211 1934,4 -4,4"/>
<!-- Node1 -->
<g id="node1" class="node"><title>Node1</title>
<polygon fill="#bfbfbf" stroke="black" points="0.5,-228.5 0.5,-247.5 131.5,-247.5 131.5,-228.5 0.5,-228.5"/>
<text text-anchor="middle" x="66" y="-235.5" font-family="Helvetica,sans-Serif" font-size="10.00">BoxWorld.updateSprites</text>
</g>
<!-- Node2 -->
<g id="node2" class="node"><title>Node2</title>
<g id="a_node2"><a xlink:href="../../db/d97/class_box_world.html#a4079bed8937c9f621decfbe1309e31e2" target="_top" xlink:title="BoxWorld.checkAllCollisions">
<polygon fill="white" stroke="black" points="168,-304.5 168,-323.5 314,-323.5 314,-304.5 168,-304.5"/>
<text text-anchor="middle" x="241" y="-311.5" font-family="Helvetica,sans-Serif" font-size="10.00">BoxWorld.checkAllCollisions</text>
</a>
</g>
</g>
<!-- Node1&#45;&gt;Node2 -->
<g id="edge1" class="edge"><title>Node1&#45;&gt;Node2</title>
<path fill="none" stroke="midnightblue" d="M88.9106,-247.625C119.328,-260.988 174.502,-285.227 209.094,-300.423"/>
<polygon fill="midnightblue" stroke="midnightblue" points="207.704,-303.635 218.267,-304.453 210.52,-297.226 207.704,-303.635"/>
</g>
<!-- Node4 -->
<g id="node4" class="node"><title>Node4</title>
<g id="a_node4"><a xlink:href="../../da/de2/class_sticky_box.html#a6ba3f89630df9d81df5644a3e5f4e387" target="_top" xlink:title="StickyBox.getXDirection">
<polygon fill="white" stroke="black" points="1396.5,-418.5 1396.5,-437.5 1527.5,-437.5 1527.5,-418.5 1396.5,-418.5"/>
<text text-anchor="middle" x="1462" y="-425.5" font-family="Helvetica,sans-Serif" font-size="10.00">StickyBox.getXDirection</text>
</a>
</g>
</g>
<!-- Node1&#45;&gt;Node4 -->
<g id="edge36" class="edge"><title>Node1&#45;&gt;Node4</title>
<path fill="none" stroke="midnightblue" d="M70.8299,-247.685C81.8012,-274.194 115.939,-348.581 168,-388 256.408,-454.939 294.109,-466 405,-466 405,-466 405,-466 1096,-466 1206.55,-466 1234.23,-460.094 1344,-447 1361.68,-444.891 1380.77,-442.037 1398.3,-439.183"/>
<polygon fill="midnightblue" stroke="midnightblue" points="1399.13,-442.594 1408.42,-437.509 1397.99,-435.688 1399.13,-442.594"/>
</g>
<!-- Node5 -->
<g id="node5" class="node"><title>Node5</title>
<g id="a_node5"><a xlink:href="../../da/de2/class_sticky_box.html#a69e5ccf2a79159c03dea2e048df13318" target="_top" xlink:title="StickyBox.getYDirection">
<polygon fill="white" stroke="black" points="1397,-380.5 1397,-399.5 1527,-399.5 1527,-380.5 1397,-380.5"/>
<text text-anchor="middle" x="1462" y="-387.5" font-family="Helvetica,sans-Serif" font-size="10.00">StickyBox.getYDirection</text>
</a>
</g>
</g>
<!-- Node1&#45;&gt;Node5 -->
<g id="edge37" class="edge"><title>Node1&#45;&gt;Node5</title>
<path fill="none" stroke="midnightblue" d="M74.9756,-247.597C90.9292,-266.274 128.633,-307.877 168,-333 263.661,-394.048 291.519,-428 405,-428 405,-428 405,-428 773,-428 890.744,-428 1234.22,-405.531 1386.65,-395.148"/>
<polygon fill="midnightblue" stroke="midnightblue" points="1387.11,-398.625 1396.85,-394.452 1386.63,-391.641 1387.11,-398.625"/>
</g>
<!-- Node19 -->
<g id="node19" class="node"><title>Node19</title>
<g id="a_node19"><a xlink:href="../../da/de2/class_sticky_box.html#aa1bb8f78f676b01c688d75d386758444" target="_top" xlink:title="StickyBox.setDirection">
<polygon fill="white" stroke="black" points="1400,-152.5 1400,-171.5 1524,-171.5 1524,-152.5 1400,-152.5"/>
<text text-anchor="middle" x="1462" y="-159.5" font-family="Helvetica,sans-Serif" font-size="10.00">StickyBox.setDirection</text>
</a>
</g>
</g>
<!-- Node1&#45;&gt;Node19 -->
<g id="edge39" class="edge"><title>Node1&#45;&gt;Node19</title>
<path fill="none" stroke="midnightblue" d="M92.0068,-228.375C147.46,-207.924 285.31,-162 405,-162 405,-162 405,-162 923,-162 1110.3,-162 1157.3,-127.94 1344,-143 1363.47,-144.571 1384.59,-147.59 1403.46,-150.766"/>
<polygon fill="midnightblue" stroke="midnightblue" points="1402.94,-154.229 1413.4,-152.487 1404.14,-147.331 1402.94,-154.229"/>
</g>
<!-- Node20 -->
<g id="node20" class="node"><title>Node20</title>
<g id="a_node20"><a xlink:href="../../da/de2/class_sticky_box.html#a5d95d2ed2e13f0d87a44311db77f9e36" target="_top" xlink:title="StickyBox.setPreviousDirection">
<polygon fill="white" stroke="black" points="1380,-95.5 1380,-114.5 1544,-114.5 1544,-95.5 1380,-95.5"/>
<text text-anchor="middle" x="1462" y="-102.5" font-family="Helvetica,sans-Serif" font-size="10.00">StickyBox.setPreviousDirection</text>
</a>
</g>
</g>
<!-- Node1&#45;&gt;Node20 -->
<g id="edge40" class="edge"><title>Node1&#45;&gt;Node20</title>
<path fill="none" stroke="midnightblue" d="M78.4222,-228.492C119.599,-195.215 265.38,-86 405,-86 405,-86 405,-86 1096,-86 1189.33,-86 1295.9,-92.2718 1369.69,-97.6086"/>
<polygon fill="midnightblue" stroke="midnightblue" points="1369.65,-101.115 1379.88,-98.3547 1370.16,-94.1337 1369.65,-101.115"/>
</g>
<!-- Node29 -->
<g id="node29" class="node"><title>Node29</title>
<g id="a_node29"><a xlink:href="../../da/de2/class_sticky_box.html#a185ee469367b376e6c5969a03d089d57" target="_top" xlink:title="StickyBox.move">
<polygon fill="white" stroke="black" points="194.5,-38.5 194.5,-57.5 287.5,-57.5 287.5,-38.5 194.5,-38.5"/>
<text text-anchor="middle" x="241" y="-45.5" font-family="Helvetica,sans-Serif" font-size="10.00">StickyBox.move</text>
</a>
</g>
</g>
<!-- Node1&#45;&gt;Node29 -->
<g id="edge38" class="edge"><title>Node1&#45;&gt;Node29</title>
<path fill="none" stroke="midnightblue" d="M70.2453,-228.124C80.1275,-199.573 112.603,-116.157 168,-72 173.33,-67.7511 179.447,-64.2394 185.814,-61.3404"/>
<polygon fill="midnightblue" stroke="midnightblue" points="187.303,-64.5134 195.259,-57.5169 184.677,-58.0249 187.303,-64.5134"/>
</g>
<!-- Node30 -->
<g id="node30" class="node"><title>Node30</title>
<g id="a_node30"><a xlink:href="../../da/de2/class_sticky_box.html#a59337f0aa3c7379a2cb9c76bdc621daf" target="_top" xlink:title="StickyBox.setStuck">
<polygon fill="white" stroke="black" points="187,-0.5 187,-19.5 295,-19.5 295,-0.5 187,-0.5"/>
<text text-anchor="middle" x="241" y="-7.5" font-family="Helvetica,sans-Serif" font-size="10.00">StickyBox.setStuck</text>
</a>
</g>
</g>
<!-- Node1&#45;&gt;Node30 -->
<g id="edge41" class="edge"><title>Node1&#45;&gt;Node30</title>
<path fill="none" stroke="midnightblue" d="M68.7071,-228.342C75.1054,-195.091 100.828,-84.363 168,-29 170.915,-26.5975 174.102,-24.496 177.462,-22.6579"/>
<polygon fill="midnightblue" stroke="midnightblue" points="179.088,-25.7622 186.69,-18.3823 176.145,-19.4109 179.088,-25.7622"/>
</g>
<!-- Node3 -->
<g id="node3" class="node"><title>Node3</title>
<g id="a_node3"><a xlink:href="../../db/d97/class_box_world.html#a55add11037cd6dc48556f2f42a9e11be" target="_top" xlink:title="BoxWorld.checkCollide">
<polygon fill="white" stroke="black" points="1214,-418.5 1214,-437.5 1336,-437.5 1336,-418.5 1214,-418.5"/>
<text text-anchor="middle" x="1275" y="-425.5" font-family="Helvetica,sans-Serif" font-size="10.00">BoxWorld.checkCollide</text>
</a>
</g>
</g>
<!-- Node2&#45;&gt;Node3 -->
<g id="edge2" class="edge"><title>Node2&#45;&gt;Node3</title>
<path fill="none" stroke="midnightblue" d="M255.904,-323.623C275.764,-336.82 313.861,-360.132 350,-371 432.117,-395.695 456.25,-390 542,-390 542,-390 542,-390 773,-390 927.173,-390 1107.27,-408.113 1204.01,-419.329"/>
<polygon fill="midnightblue" stroke="midnightblue" points="1203.62,-422.807 1213.96,-420.492 1204.43,-415.855 1203.62,-422.807"/>
</g>
<!-- Node6 -->
<g id="node6" class="node"><title>Node6</title>
<g id="a_node6"><a xlink:href="../../db/d97/class_box_world.html#a72bacb2a6757900d8835249929fcc838" target="_top" xlink:title="BoxWorld.loseGame">
<polygon fill="white" stroke="black" points="350,-266.5 350,-285.5 462,-285.5 462,-266.5 350,-266.5"/>
<text text-anchor="middle" x="406" y="-273.5" font-family="Helvetica,sans-Serif" font-size="10.00">BoxWorld.loseGame</text>
</a>
</g>
</g>
<!-- Node2&#45;&gt;Node6 -->
<g id="edge5" class="edge"><title>Node2&#45;&gt;Node6</title>
<path fill="none" stroke="midnightblue" d="M283.132,-304.411C304.738,-299.374 331.409,-293.156 354.286,-287.823"/>
<polygon fill="midnightblue" stroke="midnightblue" points="355.22,-291.199 364.164,-285.52 353.63,-284.382 355.22,-291.199"/>
</g>
<!-- Node21 -->
<g id="node21" class="node"><title>Node21</title>
<g id="a_node21"><a xlink:href="../../db/d97/class_box_world.html#aad670712776afe126e51791097027e05" target="_top" xlink:title="BoxWorld.winLevel">
<polygon fill="white" stroke="black" points="1223.5,-228.5 1223.5,-247.5 1326.5,-247.5 1326.5,-228.5 1223.5,-228.5"/>
<text text-anchor="middle" x="1275" y="-235.5" font-family="Helvetica,sans-Serif" font-size="10.00">BoxWorld.winLevel</text>
</a>
</g>
</g>
<!-- Node2&#45;&gt;Node21 -->
<g id="edge35" class="edge"><title>Node2&#45;&gt;Node21</title>
<path fill="none" stroke="midnightblue" d="M314.135,-314C374.903,-314 464.135,-314 542,-314 542,-314 542,-314 923,-314 1040.53,-314 1175.29,-272.792 1238.18,-251.063"/>
<polygon fill="midnightblue" stroke="midnightblue" points="1239.72,-254.233 1248,-247.625 1237.4,-247.626 1239.72,-254.233"/>
</g>
<!-- Node28 -->
<g id="node28" class="node"><title>Node28</title>
<g id="a_node28"><a xlink:href="../../db/d97/class_box_world.html#ae6ffad41f7ba6122234157c72afe8f9c" target="_top" xlink:title="BoxWorld.onScreen">
<polygon fill="white" stroke="black" points="351.5,-342.5 351.5,-361.5 460.5,-361.5 460.5,-342.5 351.5,-342.5"/>
<text text-anchor="middle" x="406" y="-349.5" font-family="Helvetica,sans-Serif" font-size="10.00">BoxWorld.onScreen</text>
</a>
</g>
</g>
<!-- Node2&#45;&gt;Node28 -->
<g id="edge34" class="edge"><title>Node2&#45;&gt;Node28</title>
<path fill="none" stroke="midnightblue" d="M283.132,-323.589C304.738,-328.626 331.409,-334.844 354.286,-340.177"/>
<polygon fill="midnightblue" stroke="midnightblue" points="353.63,-343.618 364.164,-342.48 355.22,-336.801 353.63,-343.618"/>
</g>
<!-- Node3&#45;&gt;Node4 -->
<g id="edge3" class="edge"><title>Node3&#45;&gt;Node4</title>
<path fill="none" stroke="midnightblue" d="M1336.06,-428C1352.05,-428 1369.52,-428 1386.2,-428"/>
<polygon fill="midnightblue" stroke="midnightblue" points="1386.45,-431.5 1396.45,-428 1386.45,-424.5 1386.45,-431.5"/>
</g>
<!-- Node3&#45;&gt;Node5 -->
<g id="edge4" class="edge"><title>Node3&#45;&gt;Node5</title>
<path fill="none" stroke="midnightblue" d="M1322.68,-418.411C1347.65,-413.284 1378.56,-406.933 1404.83,-401.537"/>
<polygon fill="midnightblue" stroke="midnightblue" points="1405.56,-404.961 1414.65,-399.52 1404.15,-398.104 1405.56,-404.961"/>
</g>
<!-- Node7 -->
<g id="node7" class="node"><title>Node7</title>
<g id="a_node7"><a xlink:href="../../d4/d2f/class_lose_screen.html#a34f2cc2c803500316c9b8d854854d758" target="_top" xlink:title="LoseScreen.init">
<polygon fill="white" stroke="black" points="498,-266.5 498,-285.5 588,-285.5 588,-266.5 498,-266.5"/>
<text text-anchor="middle" x="543" y="-273.5" font-family="Helvetica,sans-Serif" font-size="10.00">LoseScreen.init</text>
</a>
</g>
</g>
<!-- Node6&#45;&gt;Node7 -->
<g id="edge6" class="edge"><title>Node6&#45;&gt;Node7</title>
<path fill="none" stroke="midnightblue" d="M462.299,-276C470.686,-276 479.332,-276 487.697,-276"/>
<polygon fill="midnightblue" stroke="midnightblue" points="487.724,-279.5 497.724,-276 487.724,-272.5 487.724,-279.5"/>
</g>
<!-- Node8 -->
<g id="node8" class="node"><title>Node8</title>
<g id="a_node8"><a xlink:href="../../d2/db8/class_menu.html#a3c99ad09e9f2f975c1a0d0597642651a" target="_top" xlink:title="Menu.init">
<polygon fill="white" stroke="black" points="624,-266.5 624,-285.5 684,-285.5 684,-266.5 624,-266.5"/>
<text text-anchor="middle" x="654" y="-273.5" font-family="Helvetica,sans-Serif" font-size="10.00">Menu.init</text>
</a>
</g>
</g>
<!-- Node7&#45;&gt;Node8 -->
<g id="edge7" class="edge"><title>Node7&#45;&gt;Node8</title>
<path fill="none" stroke="midnightblue" d="M588.02,-276C596.495,-276 605.322,-276 613.637,-276"/>
<polygon fill="midnightblue" stroke="midnightblue" points="613.833,-279.5 623.833,-276 613.832,-272.5 613.833,-279.5"/>
</g>
<!-- Node9 -->
<g id="node9" class="node"><title>Node9</title>
<g id="a_node9"><a xlink:href="../../d2/db8/class_menu.html#a8a6e6125f0dc2dc7e19c6655ba6376a2" target="_top" xlink:title="Menu.addIntroText">
<polygon fill="white" stroke="black" points="720,-266.5 720,-285.5 824,-285.5 824,-266.5 720,-266.5"/>
<text text-anchor="middle" x="772" y="-273.5" font-family="Helvetica,sans-Serif" font-size="10.00">Menu.addIntroText</text>
</a>
</g>
</g>
<!-- Node8&#45;&gt;Node9 -->
<g id="edge8" class="edge"><title>Node8&#45;&gt;Node9</title>
<path fill="none" stroke="midnightblue" d="M684.272,-276C691.99,-276 700.617,-276 709.354,-276"/>
<polygon fill="midnightblue" stroke="midnightblue" points="709.614,-279.5 719.614,-276 709.614,-272.5 709.614,-279.5"/>
</g>
<!-- Node10 -->
<g id="node10" class="node"><title>Node10</title>
<g id="a_node10"><a xlink:href="../../db/d97/class_box_world.html#a55bf92d3f466bfaade0f6d199d8c9bd9" target="_top" xlink:title="BoxWorld.init">
<polygon fill="white" stroke="black" points="733.5,-228.5 733.5,-247.5 810.5,-247.5 810.5,-228.5 733.5,-228.5"/>
<text text-anchor="middle" x="772" y="-235.5" font-family="Helvetica,sans-Serif" font-size="10.00">BoxWorld.init</text>
</a>
</g>
</g>
<!-- Node8&#45;&gt;Node10 -->
<g id="edge9" class="edge"><title>Node8&#45;&gt;Node10</title>
<path fill="none" stroke="midnightblue" d="M684.272,-266.411C698.697,-261.686 716.293,-255.921 731.857,-250.823"/>
<polygon fill="midnightblue" stroke="midnightblue" points="733.324,-254.025 741.738,-247.586 731.145,-247.373 733.324,-254.025"/>
</g>
<!-- Node11 -->
<g id="node11" class="node"><title>Node11</title>
<g id="a_node11"><a xlink:href="../../db/d97/class_box_world.html#a69798621c944e846f045aaf3937505f9" target="_top" xlink:title="BoxWorld.addStarterObjects">
<polygon fill="white" stroke="black" points="1580.5,-105.5 1580.5,-124.5 1731.5,-124.5 1731.5,-105.5 1580.5,-105.5"/>
<text text-anchor="middle" x="1656" y="-112.5" font-family="Helvetica,sans-Serif" font-size="10.00">BoxWorld.addStarterObjects</text>
</a>
</g>
</g>
<!-- Node10&#45;&gt;Node11 -->
<g id="edge10" class="edge"><title>Node10&#45;&gt;Node11</title>
<path fill="none" stroke="midnightblue" d="M797.639,-228.462C879.103,-197.663 1147.79,-101.939 1380,-86 1452.72,-81.0086 1471.71,-76.712 1544,-86 1568.73,-89.177 1595.81,-96.1807 1617.04,-102.509"/>
<polygon fill="midnightblue" stroke="midnightblue" points="1616.06,-105.871 1626.65,-105.447 1618.11,-99.1765 1616.06,-105.871"/>
</g>
<!-- Node13 -->
<g id="node13" class="node"><title>Node13</title>
<g id="a_node13"><a xlink:href="../../db/d97/class_box_world.html#a726e747e023543658d7a345cc6466ccb" target="_top" xlink:title="BoxWorld.createScene">
<polygon fill="white" stroke="black" points="860,-228.5 860,-247.5 984,-247.5 984,-228.5 860,-228.5"/>
<text text-anchor="middle" x="922" y="-235.5" font-family="Helvetica,sans-Serif" font-size="10.00">BoxWorld.createScene</text>
</a>
</g>
</g>
<!-- Node10&#45;&gt;Node13 -->
<g id="edge12" class="edge"><title>Node10&#45;&gt;Node13</title>
<path fill="none" stroke="midnightblue" d="M810.73,-238C822.604,-238 836.135,-238 849.553,-238"/>
<polygon fill="midnightblue" stroke="midnightblue" points="849.763,-241.5 859.763,-238 849.763,-234.5 849.763,-241.5"/>
</g>
<!-- Node26 -->
<g id="node26" class="node"><title>Node26</title>
<g id="a_node26"><a xlink:href="../../db/d97/class_box_world.html#ad20a4e43406c44f4bbf201d1d1028998" target="_top" xlink:title="BoxWorld.start">
<polygon fill="white" stroke="black" points="1613,-342.5 1613,-361.5 1699,-361.5 1699,-342.5 1613,-342.5"/>
<text text-anchor="middle" x="1656" y="-349.5" font-family="Helvetica,sans-Serif" font-size="10.00">BoxWorld.start</text>
</a>
</g>
</g>
<!-- Node10&#45;&gt;Node26 -->
<g id="edge33" class="edge"><title>Node10&#45;&gt;Node26</title>
<path fill="none" stroke="midnightblue" d="M799.079,-247.523C874.2,-274.922 1086.22,-352 1094,-352 1094,-352 1094,-352 1276,-352 1392.65,-352 1529.49,-352 1602.62,-352"/>
<polygon fill="midnightblue" stroke="midnightblue" points="1602.94,-355.5 1612.94,-352 1602.94,-348.5 1602.94,-355.5"/>
</g>
<!-- Node12 -->
<g id="node12" class="node"><title>Node12</title>
<g id="a_node12"><a xlink:href="../../db/d97/class_box_world.html#a2542cc74ebeba6a9768a443a55186901" target="_top" xlink:title="BoxWorld.createObstacleArray">
<polygon fill="white" stroke="black" points="1768.5,-105.5 1768.5,-124.5 1929.5,-124.5 1929.5,-105.5 1768.5,-105.5"/>
<text text-anchor="middle" x="1849" y="-112.5" font-family="Helvetica,sans-Serif" font-size="10.00">BoxWorld.createObstacleArray</text>
</a>
</g>
</g>
<!-- Node11&#45;&gt;Node12 -->
<g id="edge11" class="edge"><title>Node11&#45;&gt;Node12</title>
<path fill="none" stroke="midnightblue" d="M1731.67,-115C1740.41,-115 1749.4,-115 1758.31,-115"/>
<polygon fill="midnightblue" stroke="midnightblue" points="1758.34,-118.5 1768.34,-115 1758.34,-111.5 1758.34,-118.5"/>
</g>
<!-- Node14 -->
<g id="node14" class="node"><title>Node14</title>
<g id="a_node14"><a xlink:href="../../db/d97/class_box_world.html#aa7e2049d7be23e15fd2ec7fa2922ed79" target="_top" xlink:title="BoxWorld.handleKeyInput">
<polygon fill="white" stroke="black" points="1027,-190.5 1027,-209.5 1163,-209.5 1163,-190.5 1027,-190.5"/>
<text text-anchor="middle" x="1095" y="-197.5" font-family="Helvetica,sans-Serif" font-size="10.00">BoxWorld.handleKeyInput</text>
</a>
</g>
</g>
<!-- Node13&#45;&gt;Node14 -->
<g id="edge13" class="edge"><title>Node13&#45;&gt;Node14</title>
<path fill="none" stroke="midnightblue" d="M966.151,-228.411C988.919,-223.351 1017.05,-217.1 1041.12,-211.751"/>
<polygon fill="midnightblue" stroke="midnightblue" points="1042.16,-215.106 1051.16,-209.52 1040.64,-208.273 1042.16,-215.106"/>
</g>
<!-- Node27 -->
<g id="node27" class="node"><title>Node27</title>
<g id="a_node27"><a xlink:href="../../db/d97/class_box_world.html#a2d44485a181577acb4d79b6b81f26fff" target="_top" xlink:title="BoxWorld.handleKeyRelease">
<polygon fill="white" stroke="black" points="1020.5,-228.5 1020.5,-247.5 1169.5,-247.5 1169.5,-228.5 1020.5,-228.5"/>
<text text-anchor="middle" x="1095" y="-235.5" font-family="Helvetica,sans-Serif" font-size="10.00">BoxWorld.handleKeyRelease</text>
</a>
</g>
</g>
<!-- Node13&#45;&gt;Node27 -->
<g id="edge32" class="edge"><title>Node13&#45;&gt;Node27</title>
<path fill="none" stroke="midnightblue" d="M984.252,-238C992.655,-238 1001.4,-238 1010.12,-238"/>
<polygon fill="midnightblue" stroke="midnightblue" points="1010.33,-241.5 1020.33,-238 1010.33,-234.5 1010.33,-241.5"/>
</g>
<!-- Node15 -->
<g id="node15" class="node"><title>Node15</title>
<g id="a_node15"><a xlink:href="../../db/d97/class_box_world.html#adc4c9d78ffde3d052c4c92047eb98e55" target="_top" xlink:title="BoxWorld.allowMovement">
<polygon fill="white" stroke="black" points="1206.5,-304.5 1206.5,-323.5 1343.5,-323.5 1343.5,-304.5 1206.5,-304.5"/>
<text text-anchor="middle" x="1275" y="-311.5" font-family="Helvetica,sans-Serif" font-size="10.00">BoxWorld.allowMovement</text>
</a>
</g>
</g>
<!-- Node14&#45;&gt;Node15 -->
<g id="edge14" class="edge"><title>Node14&#45;&gt;Node15</title>
<path fill="none" stroke="midnightblue" d="M1148.43,-209.514C1155.95,-211.99 1163.37,-215.098 1170,-219 1190.05,-230.799 1189.06,-241.057 1206,-257 1221.42,-271.512 1239.89,-286.875 1253.68,-297.99"/>
<polygon fill="midnightblue" stroke="midnightblue" points="1251.6,-300.808 1261.6,-304.316 1255.97,-295.339 1251.6,-300.808"/>
</g>
<!-- Node18 -->
<g id="node18" class="node"><title>Node18</title>
<g id="a_node18"><a xlink:href="../../db/d97/class_box_world.html#a04c6bf977c4292a5433649fb3745fd6b" target="_top" xlink:title="BoxWorld.reset">
<polygon fill="white" stroke="black" points="1231,-152.5 1231,-171.5 1319,-171.5 1319,-152.5 1231,-152.5"/>
<text text-anchor="middle" x="1275" y="-159.5" font-family="Helvetica,sans-Serif" font-size="10.00">BoxWorld.reset</text>
</a>
</g>
</g>
<!-- Node14&#45;&gt;Node18 -->
<g id="edge19" class="edge"><title>Node14&#45;&gt;Node18</title>
<path fill="none" stroke="midnightblue" d="M1140.92,-190.411C1165.28,-185.209 1195.55,-178.748 1221.06,-173.302"/>
<polygon fill="midnightblue" stroke="midnightblue" points="1221.89,-176.703 1230.94,-171.193 1220.43,-169.858 1221.89,-176.703"/>
</g>
<!-- Node14&#45;&gt;Node19 -->
<g id="edge22" class="edge"><title>Node14&#45;&gt;Node19</title>
<path fill="none" stroke="midnightblue" d="M1163.25,-196.389C1213.22,-193.332 1283.01,-188.276 1344,-181 1361.68,-178.891 1380.77,-176.037 1398.3,-173.183"/>
<polygon fill="midnightblue" stroke="midnightblue" points="1399.13,-176.594 1408.42,-171.509 1397.99,-169.688 1399.13,-176.594"/>
</g>
<!-- Node14&#45;&gt;Node21 -->
<g id="edge23" class="edge"><title>Node14&#45;&gt;Node21</title>
<path fill="none" stroke="midnightblue" d="M1140.92,-209.589C1164.83,-214.694 1194.42,-221.011 1219.62,-226.392"/>
<polygon fill="midnightblue" stroke="midnightblue" points="1218.9,-229.815 1229.41,-228.48 1220.36,-222.969 1218.9,-229.815"/>
</g>
<!-- Node15&#45;&gt;Node4 -->
<g id="edge15" class="edge"><title>Node15&#45;&gt;Node4</title>
<path fill="none" stroke="midnightblue" d="M1283.47,-323.525C1299.16,-342.832 1337.6,-386.641 1380,-409 1384.52,-411.381 1389.33,-413.467 1394.27,-415.294"/>
<polygon fill="midnightblue" stroke="midnightblue" points="1393.29,-418.658 1403.89,-418.497 1395.51,-412.017 1393.29,-418.658"/>
</g>
<!-- Node15&#45;&gt;Node5 -->
<g id="edge17" class="edge"><title>Node15&#45;&gt;Node5</title>
<path fill="none" stroke="midnightblue" d="M1299.43,-323.625C1332.1,-337.045 1391.46,-361.434 1428.42,-376.617"/>
<polygon fill="midnightblue" stroke="midnightblue" points="1427.18,-379.89 1437.76,-380.453 1429.84,-373.415 1427.18,-379.89"/>
</g>
<!-- Node16 -->
<g id="node16" class="node"><title>Node16</title>
<g id="a_node16"><a xlink:href="../../da/de2/class_sticky_box.html#ab0bd7cafb7f243e3951558ddb8728b96" target="_top" xlink:title="StickyBox.getXPrev">
<polygon fill="white" stroke="black" points="1407.5,-266.5 1407.5,-285.5 1516.5,-285.5 1516.5,-266.5 1407.5,-266.5"/>
<text text-anchor="middle" x="1462" y="-273.5" font-family="Helvetica,sans-Serif" font-size="10.00">StickyBox.getXPrev</text>
</a>
</g>
</g>
<!-- Node15&#45;&gt;Node16 -->
<g id="edge16" class="edge"><title>Node15&#45;&gt;Node16</title>
<path fill="none" stroke="midnightblue" d="M1322.68,-304.411C1347.65,-299.284 1378.56,-292.933 1404.83,-287.537"/>
<polygon fill="midnightblue" stroke="midnightblue" points="1405.56,-290.961 1414.65,-285.52 1404.15,-284.104 1405.56,-290.961"/>
</g>
<!-- Node17 -->
<g id="node17" class="node"><title>Node17</title>
<g id="a_node17"><a xlink:href="../../da/de2/class_sticky_box.html#a4c6abed944faed9d9b226079e99cfc24" target="_top" xlink:title="StickyBox.getYPrev">
<polygon fill="white" stroke="black" points="1408,-304.5 1408,-323.5 1516,-323.5 1516,-304.5 1408,-304.5"/>
<text text-anchor="middle" x="1462" y="-311.5" font-family="Helvetica,sans-Serif" font-size="10.00">StickyBox.getYPrev</text>
</a>
</g>
</g>
<!-- Node15&#45;&gt;Node17 -->
<g id="edge18" class="edge"><title>Node15&#45;&gt;Node17</title>
<path fill="none" stroke="midnightblue" d="M1343.57,-314C1361.26,-314 1380.27,-314 1397.72,-314"/>
<polygon fill="midnightblue" stroke="midnightblue" points="1397.8,-317.5 1407.8,-314 1397.8,-310.5 1397.8,-317.5"/>
</g>
<!-- Node18&#45;&gt;Node19 -->
<g id="edge20" class="edge"><title>Node18&#45;&gt;Node19</title>
<path fill="none" stroke="midnightblue" d="M1319.37,-162C1340.31,-162 1365.97,-162 1389.67,-162"/>
<polygon fill="midnightblue" stroke="midnightblue" points="1389.69,-165.5 1399.69,-162 1389.69,-158.5 1389.69,-165.5"/>
</g>
<!-- Node18&#45;&gt;Node20 -->
<g id="edge21" class="edge"><title>Node18&#45;&gt;Node20</title>
<path fill="none" stroke="midnightblue" d="M1306.96,-152.459C1338.05,-142.883 1386.09,-128.079 1420.25,-117.554"/>
<polygon fill="midnightblue" stroke="midnightblue" points="1421.41,-120.861 1429.93,-114.572 1419.35,-114.171 1421.41,-120.861"/>
</g>
<!-- Node22 -->
<g id="node22" class="node"><title>Node22</title>
<g id="a_node22"><a xlink:href="../../d6/d4f/class_item_box_world.html#aa559fc2680327b41fb376e2eda8e82e3" target="_top" xlink:title="ItemBoxWorld.init">
<polygon fill="white" stroke="black" points="1412.5,-228.5 1412.5,-247.5 1511.5,-247.5 1511.5,-228.5 1412.5,-228.5"/>
<text text-anchor="middle" x="1462" y="-235.5" font-family="Helvetica,sans-Serif" font-size="10.00">ItemBoxWorld.init</text>
</a>
</g>
</g>
<!-- Node21&#45;&gt;Node22 -->
<g id="edge24" class="edge"><title>Node21&#45;&gt;Node22</title>
<path fill="none" stroke="midnightblue" d="M1326.55,-238C1349.95,-238 1377.9,-238 1402.24,-238"/>
<polygon fill="midnightblue" stroke="midnightblue" points="1402.42,-241.5 1412.42,-238 1402.42,-234.5 1402.42,-241.5"/>
</g>
<!-- Node22&#45;&gt;Node11 -->
<g id="edge25" class="edge"><title>Node22&#45;&gt;Node11</title>
<path fill="none" stroke="midnightblue" d="M1478.07,-228.348C1511.36,-207.017 1591.43,-155.727 1631.43,-130.102"/>
<polygon fill="midnightblue" stroke="midnightblue" points="1633.47,-132.948 1640,-124.607 1629.7,-127.054 1633.47,-132.948"/>
</g>
<!-- Node22&#45;&gt;Node13 -->
<g id="edge31" class="edge"><title>Node22&#45;&gt;Node13</title>
<path fill="none" stroke="midnightblue" d="M1413.4,-247.513C1392.24,-251.278 1366.97,-255.147 1344,-257 1200.47,-268.579 1163.33,-270.905 1020,-257 1004.46,-255.492 987.708,-252.655 972.573,-249.625"/>
<polygon fill="midnightblue" stroke="midnightblue" points="972.891,-246.117 962.388,-247.51 971.468,-252.97 972.891,-246.117"/>
</g>
<!-- Node23 -->
<g id="node23" class="node"><title>Node23</title>
<g id="a_node23"><a xlink:href="../../d6/d4f/class_item_box_world.html#a7ead15fd9fd8095f928640161d48fdf8" target="_top" xlink:title="ItemBoxWorld.addAllItems">
<polygon fill="white" stroke="black" points="1585.5,-228.5 1585.5,-247.5 1726.5,-247.5 1726.5,-228.5 1585.5,-228.5"/>
<text text-anchor="middle" x="1656" y="-235.5" font-family="Helvetica,sans-Serif" font-size="10.00">ItemBoxWorld.addAllItems</text>
</a>
</g>
</g>
<!-- Node22&#45;&gt;Node23 -->
<g id="edge26" class="edge"><title>Node22&#45;&gt;Node23</title>
<path fill="none" stroke="midnightblue" d="M1511.95,-238C1531.23,-238 1553.87,-238 1575.38,-238"/>
<polygon fill="midnightblue" stroke="midnightblue" points="1575.5,-241.5 1585.5,-238 1575.5,-234.5 1575.5,-241.5"/>
</g>
<!-- Node22&#45;&gt;Node26 -->
<g id="edge29" class="edge"><title>Node22&#45;&gt;Node26</title>
<path fill="none" stroke="midnightblue" d="M1511.87,-245.502C1522.8,-248.249 1534.08,-251.971 1544,-257 1583.15,-276.843 1620.08,-313.263 1639.92,-334.785"/>
<polygon fill="midnightblue" stroke="midnightblue" points="1637.58,-337.416 1646.87,-342.495 1642.77,-332.726 1637.58,-337.416"/>
</g>
<!-- Node24 -->
<g id="node24" class="node"><title>Node24</title>
<g id="a_node24"><a xlink:href="../../d6/d4f/class_item_box_world.html#a1890e6c53a4a73e44e9528009fde508d" target="_top" xlink:title="ItemBoxWorld.itemExists">
<polygon fill="white" stroke="black" points="1782,-209.5 1782,-228.5 1916,-228.5 1916,-209.5 1782,-209.5"/>
<text text-anchor="middle" x="1849" y="-216.5" font-family="Helvetica,sans-Serif" font-size="10.00">ItemBoxWorld.itemExists</text>
</a>
</g>
</g>
<!-- Node23&#45;&gt;Node24 -->
<g id="edge27" class="edge"><title>Node23&#45;&gt;Node24</title>
<path fill="none" stroke="midnightblue" d="M1726.77,-231.06C1741.4,-229.604 1756.9,-228.062 1771.76,-226.584"/>
<polygon fill="midnightblue" stroke="midnightblue" points="1772.32,-230.046 1781.92,-225.573 1771.62,-223.081 1772.32,-230.046"/>
</g>
<!-- Node25 -->
<g id="node25" class="node"><title>Node25</title>
<g id="a_node25"><a xlink:href="../../d6/d4f/class_item_box_world.html#af1bcde0672796e926560684004ed8e81" target="_top" xlink:title="ItemBoxWorld.addSingleItem">
<polygon fill="white" stroke="black" points="1772,-247.5 1772,-266.5 1926,-266.5 1926,-247.5 1772,-247.5"/>
<text text-anchor="middle" x="1849" y="-254.5" font-family="Helvetica,sans-Serif" font-size="10.00">ItemBoxWorld.addSingleItem</text>
</a>
</g>
</g>
<!-- Node23&#45;&gt;Node25 -->
<g id="edge28" class="edge"><title>Node23&#45;&gt;Node25</title>
<path fill="none" stroke="midnightblue" d="M1726.77,-244.94C1738.14,-246.072 1750.04,-247.255 1761.75,-248.421"/>
<polygon fill="midnightblue" stroke="midnightblue" points="1761.68,-251.931 1771.98,-249.438 1762.38,-244.965 1761.68,-251.931"/>
</g>
<!-- Node26&#45;&gt;Node1 -->
<g id="edge30" class="edge"><title>Node26&#45;&gt;Node1</title>
<path fill="none" stroke="midnightblue" d="M1646.91,-361.582C1629.96,-380.994 1588.58,-424.986 1544,-447 1434.81,-500.923 1397.78,-504 1276,-504 405,-504 405,-504 405,-504 295.659,-504 252.511,-507.379 168,-438 108.915,-389.495 81.0245,-297.598 71.2542,-257.516"/>
<polygon fill="midnightblue" stroke="midnightblue" points="74.6379,-256.613 68.9681,-247.663 67.8191,-258.196 74.6379,-256.613"/>
</g>
</g>
</svg>
        <g id="navigator" transform="translate(0 0)" fill="#404254">
                <rect fill="#f2f5e9" fill-opacity="0.5" stroke="#606060" stroke-width=".5" x="0" y="0" width="60" height="60"/>
                <use id="zoomplus" xlink:href="#zoomPlus" x="17" y="9" onmousedown="handleZoom(evt,'in')"/>
                <use id="zoomminus" xlink:href="#zoomMin" x="42" y="9" onmousedown="handleZoom(evt,'out')"/>
                <use id="reset" xlink:href="#resetDef" x="30" y="36" onmousedown="handleReset()"/>
                <g id="arrowUp" xlink:href="#dirArrow" transform="translate(30 24)" onmousedown="handlePan(0,-1)">
                  <use xlink:href="#rim" fill="#404040">
                        <set attributeName="fill" to="#808080" begin="arrowUp.mouseover" end="arrowUp.mouseout"/>
                  </use>
                  <path fill="none" stroke="white" stroke-width="1.5" d="M0,-3.0v7 M-2.5,-0.5L0,-3.0L2.5,-0.5"/>
                </g>
                <g id="arrowRight" xlink:href="#dirArrow" transform="rotate(90) translate(36 -43)" onmousedown="handlePan(1,0)">
                  <use xlink:href="#rim" fill="#404040">
                        <set attributeName="fill" to="#808080" begin="arrowRight.mouseover" end="arrowRight.mouseout"/>
                  </use>
                  <path fill="none" stroke="white" stroke-width="1.5" d="M0,-3.0v7 M-2.5,-0.5L0,-3.0L2.5,-0.5"/>
                </g>
                <g id="arrowDown" xlink:href="#dirArrow" transform="rotate(180) translate(-30 -48)" onmousedown="handlePan(0,1)">
                  <use xlink:href="#rim" fill="#404040">
                        <set attributeName="fill" to="#808080" begin="arrowDown.mouseover" end="arrowDown.mouseout"/>
                  </use>
                  <path fill="none" stroke="white" stroke-width="1.5" d="M0,-3.0v7 M-2.5,-0.5L0,-3.0L2.5,-0.5"/>
                </g>
                <g id="arrowLeft" xlink:href="#dirArrow" transform="rotate(270) translate(-36 17)" onmousedown="handlePan(-1,0)">
                  <use xlink:href="#rim" fill="#404040">
                        <set attributeName="fill" to="#808080" begin="arrowLeft.mouseover" end="arrowLeft.mouseout"/>
                  </use>
                  <path fill="none" stroke="white" stroke-width="1.5" d="M0,-3.0v7 M-2.5,-0.5L0,-3.0L2.5,-0.5"/>
                </g>
        </g>
        <svg viewBox="0 0 15 15" width="100%" height="30px" preserveAspectRatio="xMaxYMin meet">
         <g id="arrow_out" transform="scale(0.3 0.3)">
          <a xlink:href="class_box_world_a6794c083c2a0263c2f585f4ae4b7e39c_cgraph_org.svg" target="_base">
           <rect id="button" ry="5" rx="5" y="6" x="6" height="38" width="38"
                fill="#f2f5e9" fill-opacity="0.5" stroke="#606060" stroke-width="1.0"/>
           <path id="arrow"
             d="M 11.500037,31.436501 C 11.940474,20.09759 22.043105,11.32322 32.158766,21.979434 L 37.068811,17.246167 C 37.068811,17.246167 37.088388,32 37.088388,32 L 22.160133,31.978069 C 22.160133,31.978069 26.997745,27.140456 26.997745,27.140456 C 18.528582,18.264221 13.291696,25.230495 11.500037,31.436501 z"
             style="fill:#404040;"/>
          </a>
         </g>
        </svg>
</svg>
