<?xml version="1.0" encoding="UTF-8" standalone="no"?>
<!DOCTYPE svg PUBLIC "-//W3C//DTD SVG 1.1//EN"
 "http://www.w3.org/Graphics/SVG/1.1/DTD/svg11.dtd">
<!-- Generated by graphviz version 2.36.0 (20140111.2315)
 -->
<!-- Title: BoxWorld.start Pages: 1 -->
<svg width="1562pt" height="161pt"
 viewBox="0.00 0.00 1562.00 161.39" xmlns="http://www.w3.org/2000/svg" xmlns:xlink="http://www.w3.org/1999/xlink">
<g id="graph0" class="graph" transform="scale(1 1) rotate(0) translate(4 157.39)">
<title>BoxWorld.start</title>
<polygon fill="white" stroke="none" points="-4,4 -4,-157.39 1558,-157.39 1558,4 -4,4"/>
<!-- Node1 -->
<g id="node1" class="node"><title>Node1</title>
<polygon fill="#bfbfbf" stroke="black" points="0,-29.8901 0,-48.8901 86,-48.8901 86,-29.8901 0,-29.8901"/>
<text text-anchor="middle" x="43" y="-36.8901" font-family="Helvetica,sans-Serif" font-size="10.00">BoxWorld.start</text>
</g>
<!-- Node2 -->
<g id="node2" class="node"><title>Node2</title>
<g id="a_node2"><a xlink:href="../../d6/d4f/class_item_box_world.html#aa559fc2680327b41fb376e2eda8e82e3" target="_top" xlink:title="ItemBoxWorld.init">
<polygon fill="white" stroke="black" points="122.5,-67.8901 122.5,-86.8901 221.5,-86.8901 221.5,-67.8901 122.5,-67.8901"/>
<text text-anchor="middle" x="172" y="-74.8901" font-family="Helvetica,sans-Serif" font-size="10.00">ItemBoxWorld.init</text>
</a>
</g>
</g>
<!-- Node1&#45;&gt;Node2 -->
<g id="edge1" class="edge"><title>Node1&#45;&gt;Node2</title>
<path fill="none" stroke="midnightblue" d="M85.8943,-51.9254C103.171,-57.0949 122.871,-62.9892 138.963,-67.8042"/>
<polygon fill="midnightblue" stroke="midnightblue" points="86.6311,-48.4926 76.0475,-48.9791 84.6245,-55.1988 86.6311,-48.4926"/>
</g>
<!-- Node8 -->
<g id="node8" class="node"><title>Node8</title>
<g id="a_node8"><a xlink:href="../../db/d97/class_box_world.html#a55bf92d3f466bfaade0f6d199d8c9bd9" target="_top" xlink:title="BoxWorld.init">
<polygon fill="white" stroke="black" points="730.5,-67.8901 730.5,-86.8901 807.5,-86.8901 807.5,-67.8901 730.5,-67.8901"/>
<text text-anchor="middle" x="769" y="-74.8901" font-family="Helvetica,sans-Serif" font-size="10.00">BoxWorld.init</text>
</a>
</g>
</g>
<!-- Node1&#45;&gt;Node8 -->
<g id="edge18" class="edge"><title>Node1&#45;&gt;Node8</title>
<path fill="none" stroke="midnightblue" d="M96.48,-39.3901C149.944,-39.3901 235.245,-39.3901 309,-39.3901 309,-39.3901 309,-39.3901 467,-39.3901 568.242,-39.3901 594.174,-41.5196 694,-58.3901 707.863,-60.733 722.933,-64.3931 735.834,-67.8781"/>
<polygon fill="midnightblue" stroke="midnightblue" points="96.2246,-35.8902 86.2246,-39.3901 96.2246,-42.8902 96.2246,-35.8902"/>
</g>
<!-- Node3 -->
<g id="node3" class="node"><title>Node3</title>
<g id="a_node3"><a xlink:href="../../db/d97/class_box_world.html#aad670712776afe126e51791097027e05" target="_top" xlink:title="BoxWorld.winLevel">
<polygon fill="white" stroke="black" points="258.5,-105.89 258.5,-124.89 361.5,-124.89 361.5,-105.89 258.5,-105.89"/>
<text text-anchor="middle" x="310" y="-112.89" font-family="Helvetica,sans-Serif" font-size="10.00">BoxWorld.winLevel</text>
</a>
</g>
</g>
<!-- Node2&#45;&gt;Node3 -->
<g id="edge2" class="edge"><title>Node2&#45;&gt;Node3</title>
<path fill="none" stroke="midnightblue" d="M217.087,-89.7084C235.772,-94.9294 257.218,-100.922 274.692,-105.804"/>
<polygon fill="midnightblue" stroke="midnightblue" points="217.892,-86.2993 207.319,-86.9791 216.008,-93.0411 217.892,-86.2993"/>
</g>
<!-- Node4 -->
<g id="node4" class="node"><title>Node4</title>
<g id="a_node4"><a xlink:href="../../db/d97/class_box_world.html#a4079bed8937c9f621decfbe1309e31e2" target="_top" xlink:title="BoxWorld.checkAllCollisions">
<polygon fill="white" stroke="black" points="1234,-105.89 1234,-124.89 1380,-124.89 1380,-105.89 1234,-105.89"/>
<text text-anchor="middle" x="1307" y="-112.89" font-family="Helvetica,sans-Serif" font-size="10.00">BoxWorld.checkAllCollisions</text>
</a>
</g>
</g>
<!-- Node3&#45;&gt;Node4 -->
<g id="edge3" class="edge"><title>Node3&#45;&gt;Node4</title>
<path fill="none" stroke="midnightblue" d="M359.174,-127.112C371.75,-129.842 385.331,-132.499 398,-134.39 500.761,-149.731 527.101,-153.39 631,-153.39 631,-153.39 631,-153.39 986,-153.39 1082.37,-153.39 1193.93,-136.186 1256.6,-124.93"/>
<polygon fill="midnightblue" stroke="midnightblue" points="359.863,-123.68 349.341,-124.921 358.34,-130.513 359.863,-123.68"/>
</g>
<!-- Node6 -->
<g id="node6" class="node"><title>Node6</title>
<g id="a_node6"><a xlink:href="../../db/d97/class_box_world.html#aa7e2049d7be23e15fd2ec7fa2922ed79" target="_top" xlink:title="BoxWorld.handleKeyInput">
<polygon fill="white" stroke="black" points="398,-105.89 398,-124.89 534,-124.89 534,-105.89 398,-105.89"/>
<text text-anchor="middle" x="466" y="-112.89" font-family="Helvetica,sans-Serif" font-size="10.00">BoxWorld.handleKeyInput</text>
</a>
</g>
</g>
<!-- Node3&#45;&gt;Node6 -->
<g id="edge6" class="edge"><title>Node3&#45;&gt;Node6</title>
<path fill="none" stroke="midnightblue" d="M372.075,-115.39C380.591,-115.39 389.378,-115.39 397.996,-115.39"/>
<polygon fill="midnightblue" stroke="midnightblue" points="371.852,-111.89 361.852,-115.39 371.852,-118.89 371.852,-111.89"/>
</g>
<!-- Node5 -->
<g id="node5" class="node"><title>Node5</title>
<g id="a_node5"><a xlink:href="../../db/d97/class_box_world.html#a6794c083c2a0263c2f585f4ae4b7e39c" target="_top" xlink:title="BoxWorld.updateSprites">
<polygon fill="white" stroke="black" points="1422.5,-48.8901 1422.5,-67.8901 1553.5,-67.8901 1553.5,-48.8901 1422.5,-48.8901"/>
<text text-anchor="middle" x="1488" y="-55.8901" font-family="Helvetica,sans-Serif" font-size="10.00">BoxWorld.updateSprites</text>
</a>
</g>
</g>
<!-- Node4&#45;&gt;Node5 -->
<g id="edge4" class="edge"><title>Node4&#45;&gt;Node5</title>
<path fill="none" stroke="midnightblue" d="M1347.74,-102.734C1380.74,-92.2271 1426.96,-77.5085 1456.94,-67.9617"/>
<polygon fill="midnightblue" stroke="midnightblue" points="1346.43,-99.4803 1337.96,-105.85 1348.55,-106.15 1346.43,-99.4803"/>
</g>
<!-- Node5&#45;&gt;Node1 -->
<g id="edge5" class="edge"><title>Node5&#45;&gt;Node1</title>
<path fill="none" stroke="midnightblue" d="M1457.26,-44.6271C1437.5,-36.1294 1410.73,-25.8413 1386,-20.3901 1274.58,4.1703 1244.09,-1.3901 1130,-1.3901 309,-1.3901 309,-1.3901 309,-1.3901 229.059,-1.3901 136.913,-18.5439 85.0498,-29.8011"/>
<polygon fill="midnightblue" stroke="midnightblue" points="1456.07,-47.9274 1466.64,-48.7489 1458.89,-41.5196 1456.07,-47.9274"/>
</g>
<!-- Node7 -->
<g id="node7" class="node"><title>Node7</title>
<g id="a_node7"><a xlink:href="../../db/d97/class_box_world.html#a726e747e023543658d7a345cc6466ccb" target="_top" xlink:title="BoxWorld.createScene">
<polygon fill="white" stroke="black" points="570,-67.8901 570,-86.8901 694,-86.8901 694,-67.8901 570,-67.8901"/>
<text text-anchor="middle" x="632" y="-74.8901" font-family="Helvetica,sans-Serif" font-size="10.00">BoxWorld.createScene</text>
</a>
</g>
</g>
<!-- Node6&#45;&gt;Node7 -->
<g id="edge7" class="edge"><title>Node6&#45;&gt;Node7</title>
<path fill="none" stroke="midnightblue" d="M518.341,-103.494C541.393,-98.1527 568.221,-91.9364 589.913,-86.9101"/>
<polygon fill="midnightblue" stroke="midnightblue" points="517.336,-100.134 508.384,-105.801 518.916,-106.953 517.336,-100.134"/>
</g>
<!-- Node7&#45;&gt;Node2 -->
<g id="edge8" class="edge"><title>Node7&#45;&gt;Node2</title>
<path fill="none" stroke="midnightblue" d="M559.632,-77.3901C465.569,-77.3901 302.574,-77.3901 221.58,-77.3901"/>
<polygon fill="midnightblue" stroke="midnightblue" points="559.912,-80.8902 569.912,-77.3901 559.912,-73.8902 559.912,-80.8902"/>
</g>
<!-- Node7&#45;&gt;Node8 -->
<g id="edge9" class="edge"><title>Node7&#45;&gt;Node8</title>
<path fill="none" stroke="midnightblue" d="M704.282,-77.3901C713.225,-77.3901 722.08,-77.3901 730.215,-77.3901"/>
<polygon fill="midnightblue" stroke="midnightblue" points="704.18,-73.8902 694.18,-77.3901 704.18,-80.8902 704.18,-73.8902"/>
</g>
<!-- Node9 -->
<g id="node9" class="node"><title>Node9</title>
<g id="a_node9"><a xlink:href="../../d2/db8/class_menu.html#a3c99ad09e9f2f975c1a0d0597642651a" target="_top" xlink:title="Menu.init">
<polygon fill="white" stroke="black" points="844,-67.8901 844,-86.8901 904,-86.8901 904,-67.8901 844,-67.8901"/>
<text text-anchor="middle" x="874" y="-74.8901" font-family="Helvetica,sans-Serif" font-size="10.00">Menu.init</text>
</a>
</g>
</g>
<!-- Node8&#45;&gt;Node9 -->
<g id="edge10" class="edge"><title>Node8&#45;&gt;Node9</title>
<path fill="none" stroke="midnightblue" d="M818.034,-77.3901C826.886,-77.3901 835.875,-77.3901 843.949,-77.3901"/>
<polygon fill="midnightblue" stroke="midnightblue" points="817.769,-73.8902 807.769,-77.3901 817.768,-80.8902 817.769,-73.8902"/>
</g>
<!-- Node10 -->
<g id="node10" class="node"><title>Node10</title>
<g id="a_node10"><a xlink:href="../../d1/de1/class_end_screen.html#a1264ffb72b3a3032443f9c4087222aef" target="_top" xlink:title="EndScreen.init">
<polygon fill="white" stroke="black" points="942,-29.8901 942,-48.8901 1028,-48.8901 1028,-29.8901 942,-29.8901"/>
<text text-anchor="middle" x="985" y="-36.8901" font-family="Helvetica,sans-Serif" font-size="10.00">EndScreen.init</text>
</a>
</g>
</g>
<!-- Node9&#45;&gt;Node10 -->
<g id="edge11" class="edge"><title>Node9&#45;&gt;Node10</title>
<path fill="none" stroke="midnightblue" d="M912.209,-64.4183C926.73,-59.3557 943.079,-53.656 956.503,-48.976"/>
<polygon fill="midnightblue" stroke="midnightblue" points="910.796,-61.2042 902.505,-67.8011 913.1,-67.814 910.796,-61.2042"/>
</g>
<!-- Node13 -->
<g id="node13" class="node"><title>Node13</title>
<g id="a_node13"><a xlink:href="../../d4/d2f/class_lose_screen.html#a34f2cc2c803500316c9b8d854854d758" target="_top" xlink:title="LoseScreen.init">
<polygon fill="white" stroke="black" points="940,-105.89 940,-124.89 1030,-124.89 1030,-105.89 940,-105.89"/>
<text text-anchor="middle" x="985" y="-112.89" font-family="Helvetica,sans-Serif" font-size="10.00">LoseScreen.init</text>
</a>
</g>
</g>
<!-- Node9&#45;&gt;Node13 -->
<g id="edge14" class="edge"><title>Node9&#45;&gt;Node13</title>
<path fill="none" stroke="midnightblue" d="M912.209,-90.3619C926.73,-95.4245 943.079,-101.124 956.503,-105.804"/>
<polygon fill="midnightblue" stroke="midnightblue" points="913.1,-86.9662 902.505,-86.9791 910.796,-93.576 913.1,-86.9662"/>
</g>
<!-- Node15 -->
<g id="node15" class="node"><title>Node15</title>
<g id="a_node15"><a xlink:href="../../d0/d4b/class_main.html#a7595d13c514a02c35aca322dd91d2063" target="_top" xlink:title="Main.start">
<polygon fill="white" stroke="black" points="952.5,-67.8901 952.5,-86.8901 1017.5,-86.8901 1017.5,-67.8901 952.5,-67.8901"/>
<text text-anchor="middle" x="985" y="-74.8901" font-family="Helvetica,sans-Serif" font-size="10.00">Main.start</text>
</a>
</g>
</g>
<!-- Node9&#45;&gt;Node15 -->
<g id="edge17" class="edge"><title>Node9&#45;&gt;Node15</title>
<path fill="none" stroke="midnightblue" d="M914.376,-77.3901C926.878,-77.3901 940.534,-77.3901 952.413,-77.3901"/>
<polygon fill="midnightblue" stroke="midnightblue" points="914.21,-73.8902 904.21,-77.3901 914.21,-80.8902 914.21,-73.8902"/>
</g>
<!-- Node11 -->
<g id="node11" class="node"><title>Node11</title>
<g id="a_node11"><a xlink:href="../../d6/d4f/class_item_box_world.html#a2ed12a6b39993faedc05cc682204476d" target="_top" xlink:title="ItemBoxWorld.winLevel">
<polygon fill="white" stroke="black" points="1066.5,-29.8901 1066.5,-48.8901 1191.5,-48.8901 1191.5,-29.8901 1066.5,-29.8901"/>
<text text-anchor="middle" x="1129" y="-36.8901" font-family="Helvetica,sans-Serif" font-size="10.00">ItemBoxWorld.winLevel</text>
</a>
</g>
</g>
<!-- Node10&#45;&gt;Node11 -->
<g id="edge12" class="edge"><title>Node10&#45;&gt;Node11</title>
<path fill="none" stroke="midnightblue" d="M1038.34,-39.3901C1047.5,-39.3901 1057.11,-39.3901 1066.5,-39.3901"/>
<polygon fill="midnightblue" stroke="midnightblue" points="1038.22,-35.8902 1028.22,-39.3901 1038.22,-42.8902 1038.22,-35.8902"/>
</g>
<!-- Node12 -->
<g id="node12" class="node"><title>Node12</title>
<g id="a_node12"><a xlink:href="../../d6/d4f/class_item_box_world.html#ae442d947b4dafc944336ee27628d2175" target="_top" xlink:title="ItemBoxWorld.handleKeyInput">
<polygon fill="white" stroke="black" points="1228,-29.8901 1228,-48.8901 1386,-48.8901 1386,-29.8901 1228,-29.8901"/>
<text text-anchor="middle" x="1307" y="-36.8901" font-family="Helvetica,sans-Serif" font-size="10.00">ItemBoxWorld.handleKeyInput</text>
</a>
</g>
</g>
<!-- Node11&#45;&gt;Node12 -->
<g id="edge13" class="edge"><title>Node11&#45;&gt;Node12</title>
<path fill="none" stroke="midnightblue" d="M1201.57,-39.3901C1210.2,-39.3901 1219.05,-39.3901 1227.77,-39.3901"/>
<polygon fill="midnightblue" stroke="midnightblue" points="1201.56,-35.8902 1191.56,-39.3901 1201.56,-42.8902 1201.56,-35.8902"/>
</g>
<!-- Node14 -->
<g id="node14" class="node"><title>Node14</title>
<g id="a_node14"><a xlink:href="../../db/d97/class_box_world.html#a72bacb2a6757900d8835249929fcc838" target="_top" xlink:title="BoxWorld.loseGame">
<polygon fill="white" stroke="black" points="1073,-105.89 1073,-124.89 1185,-124.89 1185,-105.89 1073,-105.89"/>
<text text-anchor="middle" x="1129" y="-112.89" font-family="Helvetica,sans-Serif" font-size="10.00">BoxWorld.loseGame</text>
</a>
</g>
</g>
<!-- Node13&#45;&gt;Node14 -->
<g id="edge15" class="edge"><title>Node13&#45;&gt;Node14</title>
<path fill="none" stroke="midnightblue" d="M1040.2,-115.39C1050.9,-115.39 1062.13,-115.39 1072.85,-115.39"/>
<polygon fill="midnightblue" stroke="midnightblue" points="1040.15,-111.89 1030.15,-115.39 1040.15,-118.89 1040.15,-111.89"/>
</g>
<!-- Node14&#45;&gt;Node4 -->
<g id="edge16" class="edge"><title>Node14&#45;&gt;Node4</title>
<path fill="none" stroke="midnightblue" d="M1195.53,-115.39C1208.03,-115.39 1221.18,-115.39 1233.87,-115.39"/>
<polygon fill="midnightblue" stroke="midnightblue" points="1195.2,-111.89 1185.2,-115.39 1195.2,-118.89 1195.2,-111.89"/>
</g>
</g>
</svg>
