<?xml version="1.0" encoding="UTF-8" standalone="no"?>
<!DOCTYPE svg PUBLIC "-//W3C//DTD SVG 1.1//EN"
 "http://www.w3.org/Graphics/SVG/1.1/DTD/svg11.dtd">
<!-- Generated by graphviz version 2.36.0 (20140111.2315)
 -->
<!-- Title: BoxWorld.updateSprites Pages: 1 -->
<svg width="1558pt" height="164pt"
 viewBox="0.00 0.00 1558.00 164.02" xmlns="http://www.w3.org/2000/svg" xmlns:xlink="http://www.w3.org/1999/xlink">
<g id="graph0" class="graph" transform="scale(1 1) rotate(0) translate(4 160.019)">
<title>BoxWorld.updateSprites</title>
<polygon fill="white" stroke="none" points="-4,4 -4,-160.019 1554,-160.019 1554,4 -4,4"/>
<!-- Node1 -->
<g id="node1" class="node"><title>Node1</title>
<polygon fill="#bfbfbf" stroke="black" points="0.5,-11.5094 0.5,-30.5094 131.5,-30.5094 131.5,-11.5094 0.5,-11.5094"/>
<text text-anchor="middle" x="66" y="-18.5094" font-family="Helvetica,sans-Serif" font-size="10.00">BoxWorld.updateSprites</text>
</g>
<!-- Node2 -->
<g id="node2" class="node"><title>Node2</title>
<g id="a_node2"><a xlink:href="../../db/d97/class_box_world.html#ad20a4e43406c44f4bbf201d1d1028998" target="_top" xlink:title="BoxWorld.start">
<polygon fill="white" stroke="black" points="168,-30.5094 168,-49.5094 254,-49.5094 254,-30.5094 168,-30.5094"/>
<text text-anchor="middle" x="211" y="-37.5094" font-family="Helvetica,sans-Serif" font-size="10.00">BoxWorld.start</text>
</a>
</g>
</g>
<!-- Node1&#45;&gt;Node2 -->
<g id="edge1" class="edge"><title>Node1&#45;&gt;Node2</title>
<path fill="none" stroke="midnightblue" d="M141.898,-30.9609C150.837,-32.1486 159.705,-33.3268 167.941,-34.4212"/>
<polygon fill="midnightblue" stroke="midnightblue" points="142.18,-27.4676 131.806,-29.6199 141.257,-34.4066 142.18,-27.4676"/>
</g>
<!-- Node3 -->
<g id="node3" class="node"><title>Node3</title>
<g id="a_node3"><a xlink:href="../../d6/d4f/class_item_box_world.html#aa559fc2680327b41fb376e2eda8e82e3" target="_top" xlink:title="ItemBoxWorld.init">
<polygon fill="white" stroke="black" points="290.5,-68.5094 290.5,-87.5094 389.5,-87.5094 389.5,-68.5094 290.5,-68.5094"/>
<text text-anchor="middle" x="340" y="-75.5094" font-family="Helvetica,sans-Serif" font-size="10.00">ItemBoxWorld.init</text>
</a>
</g>
</g>
<!-- Node2&#45;&gt;Node3 -->
<g id="edge2" class="edge"><title>Node2&#45;&gt;Node3</title>
<path fill="none" stroke="midnightblue" d="M253.894,-52.5447C271.171,-57.7142 290.871,-63.6085 306.963,-68.4235"/>
<polygon fill="midnightblue" stroke="midnightblue" points="254.631,-49.1119 244.047,-49.5984 252.624,-55.8182 254.631,-49.1119"/>
</g>
<!-- Node8 -->
<g id="node8" class="node"><title>Node8</title>
<g id="a_node8"><a xlink:href="../../db/d97/class_box_world.html#a55bf92d3f466bfaade0f6d199d8c9bd9" target="_top" xlink:title="BoxWorld.init">
<polygon fill="white" stroke="black" points="898.5,-68.5094 898.5,-87.5094 975.5,-87.5094 975.5,-68.5094 898.5,-68.5094"/>
<text text-anchor="middle" x="937" y="-75.5094" font-family="Helvetica,sans-Serif" font-size="10.00">BoxWorld.init</text>
</a>
</g>
</g>
<!-- Node2&#45;&gt;Node8 -->
<g id="edge18" class="edge"><title>Node2&#45;&gt;Node8</title>
<path fill="none" stroke="midnightblue" d="M264.48,-40.0094C317.944,-40.0094 403.245,-40.0094 477,-40.0094 477,-40.0094 477,-40.0094 635,-40.0094 736.242,-40.0094 762.174,-42.1389 862,-59.0094 875.863,-61.3523 890.933,-65.0125 903.834,-68.4974"/>
<polygon fill="midnightblue" stroke="midnightblue" points="264.225,-36.5095 254.225,-40.0094 264.225,-43.5095 264.225,-36.5095"/>
</g>
<!-- Node4 -->
<g id="node4" class="node"><title>Node4</title>
<g id="a_node4"><a xlink:href="../../db/d97/class_box_world.html#aad670712776afe126e51791097027e05" target="_top" xlink:title="BoxWorld.winLevel">
<polygon fill="white" stroke="black" points="426.5,-106.509 426.5,-125.509 529.5,-125.509 529.5,-106.509 426.5,-106.509"/>
<text text-anchor="middle" x="478" y="-113.509" font-family="Helvetica,sans-Serif" font-size="10.00">BoxWorld.winLevel</text>
</a>
</g>
</g>
<!-- Node3&#45;&gt;Node4 -->
<g id="edge3" class="edge"><title>Node3&#45;&gt;Node4</title>
<path fill="none" stroke="midnightblue" d="M385.087,-90.3277C403.772,-95.5487 425.218,-101.541 442.692,-106.423"/>
<polygon fill="midnightblue" stroke="midnightblue" points="385.892,-86.9186 375.319,-87.5984 384.008,-93.6604 385.892,-86.9186"/>
</g>
<!-- Node5 -->
<g id="node5" class="node"><title>Node5</title>
<g id="a_node5"><a xlink:href="../../db/d97/class_box_world.html#a4079bed8937c9f621decfbe1309e31e2" target="_top" xlink:title="BoxWorld.checkAllCollisions">
<polygon fill="white" stroke="black" points="1404,-68.5094 1404,-87.5094 1550,-87.5094 1550,-68.5094 1404,-68.5094"/>
<text text-anchor="middle" x="1477" y="-75.5094" font-family="Helvetica,sans-Serif" font-size="10.00">BoxWorld.checkAllCollisions</text>
</a>
</g>
</g>
<!-- Node4&#45;&gt;Node5 -->
<g id="edge4" class="edge"><title>Node4&#45;&gt;Node5</title>
<path fill="none" stroke="midnightblue" d="M527.174,-127.732C539.75,-130.461 553.331,-133.118 566,-135.009 668.761,-150.35 695.101,-154.009 799,-154.009 799,-154.009 799,-154.009 1154,-154.009 1249.49,-154.009 1276.42,-162.047 1368,-135.009 1404.19,-124.323 1442.27,-100.94 1462.11,-87.6835"/>
<polygon fill="midnightblue" stroke="midnightblue" points="527.863,-124.299 517.341,-125.541 526.34,-131.132 527.863,-124.299"/>
</g>
<!-- Node6 -->
<g id="node6" class="node"><title>Node6</title>
<g id="a_node6"><a xlink:href="../../db/d97/class_box_world.html#aa7e2049d7be23e15fd2ec7fa2922ed79" target="_top" xlink:title="BoxWorld.handleKeyInput">
<polygon fill="white" stroke="black" points="566,-106.509 566,-125.509 702,-125.509 702,-106.509 566,-106.509"/>
<text text-anchor="middle" x="634" y="-113.509" font-family="Helvetica,sans-Serif" font-size="10.00">BoxWorld.handleKeyInput</text>
</a>
</g>
</g>
<!-- Node4&#45;&gt;Node6 -->
<g id="edge6" class="edge"><title>Node4&#45;&gt;Node6</title>
<path fill="none" stroke="midnightblue" d="M540.075,-116.009C548.591,-116.009 557.378,-116.009 565.996,-116.009"/>
<polygon fill="midnightblue" stroke="midnightblue" points="539.852,-112.51 529.852,-116.009 539.852,-119.51 539.852,-112.51"/>
</g>
<!-- Node5&#45;&gt;Node1 -->
<g id="edge5" class="edge"><title>Node5&#45;&gt;Node1</title>
<path fill="none" stroke="midnightblue" d="M1453.57,-62.7527C1432.48,-49.2609 1399.53,-30.3178 1368,-21.0094 1276.42,6.02821 1249.49,-2.0094 1154,-2.0094 339,-2.0094 339,-2.0094 339,-2.0094 267.994,-2.0094 186.814,-8.53254 131.761,-13.9345"/>
<polygon fill="midnightblue" stroke="midnightblue" points="1451.83,-65.7928 1462.11,-68.3353 1455.66,-59.9338 1451.83,-65.7928"/>
</g>
<!-- Node7 -->
<g id="node7" class="node"><title>Node7</title>
<g id="a_node7"><a xlink:href="../../db/d97/class_box_world.html#a726e747e023543658d7a345cc6466ccb" target="_top" xlink:title="BoxWorld.createScene">
<polygon fill="white" stroke="black" points="738,-68.5094 738,-87.5094 862,-87.5094 862,-68.5094 738,-68.5094"/>
<text text-anchor="middle" x="800" y="-75.5094" font-family="Helvetica,sans-Serif" font-size="10.00">BoxWorld.createScene</text>
</a>
</g>
</g>
<!-- Node6&#45;&gt;Node7 -->
<g id="edge7" class="edge"><title>Node6&#45;&gt;Node7</title>
<path fill="none" stroke="midnightblue" d="M686.341,-104.113C709.393,-98.772 736.221,-92.5557 757.913,-87.5295"/>
<polygon fill="midnightblue" stroke="midnightblue" points="685.336,-100.753 676.384,-106.42 686.916,-107.573 685.336,-100.753"/>
</g>
<!-- Node7&#45;&gt;Node3 -->
<g id="edge8" class="edge"><title>Node7&#45;&gt;Node3</title>
<path fill="none" stroke="midnightblue" d="M727.632,-78.0094C633.569,-78.0094 470.574,-78.0094 389.58,-78.0094"/>
<polygon fill="midnightblue" stroke="midnightblue" points="727.912,-81.5095 737.912,-78.0094 727.912,-74.5095 727.912,-81.5095"/>
</g>
<!-- Node7&#45;&gt;Node8 -->
<g id="edge9" class="edge"><title>Node7&#45;&gt;Node8</title>
<path fill="none" stroke="midnightblue" d="M872.282,-78.0094C881.225,-78.0094 890.08,-78.0094 898.215,-78.0094"/>
<polygon fill="midnightblue" stroke="midnightblue" points="872.18,-74.5095 862.18,-78.0094 872.18,-81.5095 872.18,-74.5095"/>
</g>
<!-- Node9 -->
<g id="node9" class="node"><title>Node9</title>
<g id="a_node9"><a xlink:href="../../d2/db8/class_menu.html#a3c99ad09e9f2f975c1a0d0597642651a" target="_top" xlink:title="Menu.init">
<polygon fill="white" stroke="black" points="1012,-68.5094 1012,-87.5094 1072,-87.5094 1072,-68.5094 1012,-68.5094"/>
<text text-anchor="middle" x="1042" y="-75.5094" font-family="Helvetica,sans-Serif" font-size="10.00">Menu.init</text>
</a>
</g>
</g>
<!-- Node8&#45;&gt;Node9 -->
<g id="edge10" class="edge"><title>Node8&#45;&gt;Node9</title>
<path fill="none" stroke="midnightblue" d="M986.034,-78.0094C994.886,-78.0094 1003.87,-78.0094 1011.95,-78.0094"/>
<polygon fill="midnightblue" stroke="midnightblue" points="985.769,-74.5095 975.769,-78.0094 985.768,-81.5095 985.769,-74.5095"/>
</g>
<!-- Node10 -->
<g id="node10" class="node"><title>Node10</title>
<g id="a_node10"><a xlink:href="../../d1/de1/class_end_screen.html#a1264ffb72b3a3032443f9c4087222aef" target="_top" xlink:title="EndScreen.init">
<polygon fill="white" stroke="black" points="1110,-106.509 1110,-125.509 1196,-125.509 1196,-106.509 1110,-106.509"/>
<text text-anchor="middle" x="1153" y="-113.509" font-family="Helvetica,sans-Serif" font-size="10.00">EndScreen.init</text>
</a>
</g>
</g>
<!-- Node9&#45;&gt;Node10 -->
<g id="edge11" class="edge"><title>Node9&#45;&gt;Node10</title>
<path fill="none" stroke="midnightblue" d="M1080.21,-90.9812C1094.73,-96.0438 1111.08,-101.743 1124.5,-106.423"/>
<polygon fill="midnightblue" stroke="midnightblue" points="1081.1,-87.5855 1070.51,-87.5984 1078.8,-94.1953 1081.1,-87.5855"/>
</g>
<!-- Node12 -->
<g id="node12" class="node"><title>Node12</title>
<g id="a_node12"><a xlink:href="../../d4/d2f/class_lose_screen.html#a34f2cc2c803500316c9b8d854854d758" target="_top" xlink:title="LoseScreen.init">
<polygon fill="white" stroke="black" points="1108,-68.5094 1108,-87.5094 1198,-87.5094 1198,-68.5094 1108,-68.5094"/>
<text text-anchor="middle" x="1153" y="-75.5094" font-family="Helvetica,sans-Serif" font-size="10.00">LoseScreen.init</text>
</a>
</g>
</g>
<!-- Node9&#45;&gt;Node12 -->
<g id="edge13" class="edge"><title>Node9&#45;&gt;Node12</title>
<path fill="none" stroke="midnightblue" d="M1082.38,-78.0094C1090.68,-78.0094 1099.48,-78.0094 1107.94,-78.0094"/>
<polygon fill="midnightblue" stroke="midnightblue" points="1082.21,-74.5095 1072.21,-78.0094 1082.21,-81.5095 1082.21,-74.5095"/>
</g>
<!-- Node15 -->
<g id="node15" class="node"><title>Node15</title>
<g id="a_node15"><a xlink:href="../../d0/d4b/class_main.html#a7595d13c514a02c35aca322dd91d2063" target="_top" xlink:title="Main.start">
<polygon fill="white" stroke="black" points="1120.5,-30.5094 1120.5,-49.5094 1185.5,-49.5094 1185.5,-30.5094 1120.5,-30.5094"/>
<text text-anchor="middle" x="1153" y="-37.5094" font-family="Helvetica,sans-Serif" font-size="10.00">Main.start</text>
</a>
</g>
</g>
<!-- Node9&#45;&gt;Node15 -->
<g id="edge17" class="edge"><title>Node9&#45;&gt;Node15</title>
<path fill="none" stroke="midnightblue" d="M1080.21,-65.0376C1094.73,-59.975 1111.08,-54.2753 1124.5,-49.5953"/>
<polygon fill="midnightblue" stroke="midnightblue" points="1078.8,-61.8235 1070.51,-68.4204 1081.1,-68.4333 1078.8,-61.8235"/>
</g>
<!-- Node11 -->
<g id="node11" class="node"><title>Node11</title>
<g id="a_node11"><a xlink:href="../../d6/d4f/class_item_box_world.html#a2ed12a6b39993faedc05cc682204476d" target="_top" xlink:title="ItemBoxWorld.winLevel">
<polygon fill="white" stroke="black" points="1238.5,-106.509 1238.5,-125.509 1363.5,-125.509 1363.5,-106.509 1238.5,-106.509"/>
<text text-anchor="middle" x="1301" y="-113.509" font-family="Helvetica,sans-Serif" font-size="10.00">ItemBoxWorld.winLevel</text>
</a>
</g>
</g>
<!-- Node10&#45;&gt;Node11 -->
<g id="edge12" class="edge"><title>Node10&#45;&gt;Node11</title>
<path fill="none" stroke="midnightblue" d="M1206.35,-116.009C1216.71,-116.009 1227.68,-116.009 1238.31,-116.009"/>
<polygon fill="midnightblue" stroke="midnightblue" points="1206.23,-112.51 1196.23,-116.009 1206.23,-119.51 1206.23,-112.51"/>
</g>
<!-- Node13 -->
<g id="node13" class="node"><title>Node13</title>
<g id="a_node13"><a xlink:href="../../db/d97/class_box_world.html#a72bacb2a6757900d8835249929fcc838" target="_top" xlink:title="BoxWorld.loseGame">
<polygon fill="white" stroke="black" points="1245,-68.5094 1245,-87.5094 1357,-87.5094 1357,-68.5094 1245,-68.5094"/>
<text text-anchor="middle" x="1301" y="-75.5094" font-family="Helvetica,sans-Serif" font-size="10.00">BoxWorld.loseGame</text>
</a>
</g>
</g>
<!-- Node12&#45;&gt;Node13 -->
<g id="edge14" class="edge"><title>Node12&#45;&gt;Node13</title>
<path fill="none" stroke="midnightblue" d="M1208.43,-78.0094C1220.33,-78.0094 1232.92,-78.0094 1244.84,-78.0094"/>
<polygon fill="midnightblue" stroke="midnightblue" points="1208.2,-74.5095 1198.2,-78.0094 1208.2,-81.5095 1208.2,-74.5095"/>
</g>
<!-- Node14 -->
<g id="node14" class="node"><title>Node14</title>
<g id="a_node14"><a xlink:href="../../d6/d4f/class_item_box_world.html#a295cf7212ad54fa599e2a2d85ee0523d" target="_top" xlink:title="ItemBoxWorld.loseGame">
<polygon fill="white" stroke="black" points="1234,-30.5094 1234,-49.5094 1368,-49.5094 1368,-30.5094 1234,-30.5094"/>
<text text-anchor="middle" x="1301" y="-37.5094" font-family="Helvetica,sans-Serif" font-size="10.00">ItemBoxWorld.loseGame</text>
</a>
</g>
</g>
<!-- Node12&#45;&gt;Node14 -->
<g id="edge16" class="edge"><title>Node12&#45;&gt;Node14</title>
<path fill="none" stroke="midnightblue" d="M1200.54,-65.8973C1220.87,-60.605 1244.37,-54.4881 1263.42,-49.5295"/>
<polygon fill="midnightblue" stroke="midnightblue" points="1199.64,-62.5143 1190.84,-68.4204 1201.4,-69.2887 1199.64,-62.5143"/>
</g>
<!-- Node13&#45;&gt;Node5 -->
<g id="edge15" class="edge"><title>Node13&#45;&gt;Node5</title>
<path fill="none" stroke="midnightblue" d="M1367.34,-78.0094C1379.23,-78.0094 1391.7,-78.0094 1403.78,-78.0094"/>
<polygon fill="midnightblue" stroke="midnightblue" points="1367.05,-74.5095 1357.05,-78.0094 1367.05,-81.5095 1367.05,-74.5095"/>
</g>
</g>
</svg>
