<?xml version="1.0" encoding="UTF-8" standalone="no"?>
<!DOCTYPE svg PUBLIC "-//W3C//DTD SVG 1.1//EN"
 "http://www.w3.org/Graphics/SVG/1.1/DTD/svg11.dtd">
<!-- Generated by graphviz version 2.36.0 (20140111.2315)
 -->
<!-- Title: BoxWorld.checkCollide Pages: 1 -->
<svg width="1924pt" height="132pt"
 viewBox="0.00 0.00 1924.00 132.00" xmlns="http://www.w3.org/2000/svg" xmlns:xlink="http://www.w3.org/1999/xlink">
<g id="graph0" class="graph" transform="scale(1 1) rotate(0) translate(4 128)">
<title>BoxWorld.checkCollide</title>
<polygon fill="white" stroke="none" points="-4,4 -4,-128 1920,-128 1920,4 -4,4"/>
<!-- Node1 -->
<g id="node1" class="node"><title>Node1</title>
<polygon fill="#bfbfbf" stroke="black" points="0,-66.5 0,-85.5 122,-85.5 122,-66.5 0,-66.5"/>
<text text-anchor="middle" x="61" y="-73.5" font-family="Helvetica,sans-Serif" font-size="10.00">BoxWorld.checkCollide</text>
</g>
<!-- Node2 -->
<g id="node2" class="node"><title>Node2</title>
<g id="a_node2"><a xlink:href="../../d6/d4f/class_item_box_world.html#ad8a9b79d31264f523f05ed43aa490f0f" target="_top" xlink:title="ItemBoxWorld.checkAllCollisions">
<polygon fill="white" stroke="black" points="158,-85.5 158,-104.5 326,-104.5 326,-85.5 158,-85.5"/>
<text text-anchor="middle" x="242" y="-92.5" font-family="Helvetica,sans-Serif" font-size="10.00">ItemBoxWorld.checkAllCollisions</text>
</a>
</g>
</g>
<!-- Node1&#45;&gt;Node2 -->
<g id="edge1" class="edge"><title>Node1&#45;&gt;Node2</title>
<path fill="none" stroke="midnightblue" d="M132.216,-83.4531C140.621,-84.3452 149.264,-85.2627 157.83,-86.1719"/>
<polygon fill="midnightblue" stroke="midnightblue" points="132.416,-79.9547 122.102,-82.3796 131.677,-86.9156 132.416,-79.9547"/>
</g>
<!-- Node3 -->
<g id="node3" class="node"><title>Node3</title>
<g id="a_node3"><a xlink:href="../../db/d97/class_box_world.html#a4079bed8937c9f621decfbe1309e31e2" target="_top" xlink:title="BoxWorld.checkAllCollisions">
<polygon fill="white" stroke="black" points="169,-47.5 169,-66.5 315,-66.5 315,-47.5 169,-47.5"/>
<text text-anchor="middle" x="242" y="-54.5" font-family="Helvetica,sans-Serif" font-size="10.00">BoxWorld.checkAllCollisions</text>
</a>
</g>
</g>
<!-- Node1&#45;&gt;Node3 -->
<g id="edge2" class="edge"><title>Node1&#45;&gt;Node3</title>
<path fill="none" stroke="midnightblue" d="M132.125,-68.5566C144.22,-67.2727 156.811,-65.9363 168.956,-64.6472"/>
<polygon fill="midnightblue" stroke="midnightblue" points="131.677,-65.0844 122.102,-69.6204 132.416,-72.0453 131.677,-65.0844"/>
</g>
<!-- Node4 -->
<g id="node4" class="node"><title>Node4</title>
<g id="a_node4"><a xlink:href="../../db/d97/class_box_world.html#a6794c083c2a0263c2f585f4ae4b7e39c" target="_top" xlink:title="BoxWorld.updateSprites">
<polygon fill="white" stroke="black" points="362.5,-47.5 362.5,-66.5 493.5,-66.5 493.5,-47.5 362.5,-47.5"/>
<text text-anchor="middle" x="428" y="-54.5" font-family="Helvetica,sans-Serif" font-size="10.00">BoxWorld.updateSprites</text>
</a>
</g>
</g>
<!-- Node3&#45;&gt;Node4 -->
<g id="edge3" class="edge"><title>Node3&#45;&gt;Node4</title>
<path fill="none" stroke="midnightblue" d="M325.529,-57C337.922,-57 350.547,-57 362.491,-57"/>
<polygon fill="midnightblue" stroke="midnightblue" points="325.194,-53.5001 315.194,-57 325.194,-60.5001 325.194,-53.5001"/>
</g>
<!-- Node5 -->
<g id="node5" class="node"><title>Node5</title>
<g id="a_node5"><a xlink:href="../../db/d97/class_box_world.html#ad20a4e43406c44f4bbf201d1d1028998" target="_top" xlink:title="BoxWorld.start">
<polygon fill="white" stroke="black" points="530,-47.5 530,-66.5 616,-66.5 616,-47.5 530,-47.5"/>
<text text-anchor="middle" x="573" y="-54.5" font-family="Helvetica,sans-Serif" font-size="10.00">BoxWorld.start</text>
</a>
</g>
</g>
<!-- Node4&#45;&gt;Node5 -->
<g id="edge4" class="edge"><title>Node4&#45;&gt;Node5</title>
<path fill="none" stroke="midnightblue" d="M503.898,-57C512.837,-57 521.705,-57 529.941,-57"/>
<polygon fill="midnightblue" stroke="midnightblue" points="503.806,-53.5001 493.806,-57 503.806,-60.5001 503.806,-53.5001"/>
</g>
<!-- Node6 -->
<g id="node6" class="node"><title>Node6</title>
<g id="a_node6"><a xlink:href="../../db/d97/class_box_world.html#a55bf92d3f466bfaade0f6d199d8c9bd9" target="_top" xlink:title="BoxWorld.init">
<polygon fill="white" stroke="black" points="1260.5,-66.5 1260.5,-85.5 1337.5,-85.5 1337.5,-66.5 1260.5,-66.5"/>
<text text-anchor="middle" x="1299" y="-73.5" font-family="Helvetica,sans-Serif" font-size="10.00">BoxWorld.init</text>
</a>
</g>
</g>
<!-- Node5&#45;&gt;Node6 -->
<g id="edge5" class="edge"><title>Node5&#45;&gt;Node6</title>
<path fill="none" stroke="midnightblue" d="M626.401,-51.0209C679.802,-45.4509 765.056,-38 839,-38 839,-38 839,-38 997,-38 1098.24,-38 1124.17,-40.1295 1224,-57 1237.86,-59.3429 1252.93,-63.003 1265.83,-66.488"/>
<polygon fill="midnightblue" stroke="midnightblue" points="625.733,-47.572 616.158,-52.107 626.471,-54.5329 625.733,-47.572"/>
</g>
<!-- Node14 -->
<g id="node14" class="node"><title>Node14</title>
<g id="a_node14"><a xlink:href="../../d6/d4f/class_item_box_world.html#aa559fc2680327b41fb376e2eda8e82e3" target="_top" xlink:title="ItemBoxWorld.init">
<polygon fill="white" stroke="black" points="652.5,-66.5 652.5,-85.5 751.5,-85.5 751.5,-66.5 652.5,-66.5"/>
<text text-anchor="middle" x="702" y="-73.5" font-family="Helvetica,sans-Serif" font-size="10.00">ItemBoxWorld.init</text>
</a>
</g>
</g>
<!-- Node5&#45;&gt;Node14 -->
<g id="edge14" class="edge"><title>Node5&#45;&gt;Node14</title>
<path fill="none" stroke="midnightblue" d="M626.241,-64.8156C634.865,-66.1058 643.775,-67.4388 652.307,-68.7152"/>
<polygon fill="midnightblue" stroke="midnightblue" points="626.697,-61.3449 616.289,-63.3267 625.661,-68.2679 626.697,-61.3449"/>
</g>
<!-- Node7 -->
<g id="node7" class="node"><title>Node7</title>
<g id="a_node7"><a xlink:href="../../d2/db8/class_menu.html#a3c99ad09e9f2f975c1a0d0597642651a" target="_top" xlink:title="Menu.init">
<polygon fill="white" stroke="black" points="1374,-66.5 1374,-85.5 1434,-85.5 1434,-66.5 1374,-66.5"/>
<text text-anchor="middle" x="1404" y="-73.5" font-family="Helvetica,sans-Serif" font-size="10.00">Menu.init</text>
</a>
</g>
</g>
<!-- Node6&#45;&gt;Node7 -->
<g id="edge6" class="edge"><title>Node6&#45;&gt;Node7</title>
<path fill="none" stroke="midnightblue" d="M1348.03,-76C1356.89,-76 1365.87,-76 1373.95,-76"/>
<polygon fill="midnightblue" stroke="midnightblue" points="1347.77,-72.5001 1337.77,-76 1347.77,-79.5001 1347.77,-72.5001"/>
</g>
<!-- Node8 -->
<g id="node8" class="node"><title>Node8</title>
<g id="a_node8"><a xlink:href="../../d1/de1/class_end_screen.html#a1264ffb72b3a3032443f9c4087222aef" target="_top" xlink:title="EndScreen.init">
<polygon fill="white" stroke="black" points="1472,-66.5 1472,-85.5 1558,-85.5 1558,-66.5 1472,-66.5"/>
<text text-anchor="middle" x="1515" y="-73.5" font-family="Helvetica,sans-Serif" font-size="10.00">EndScreen.init</text>
</a>
</g>
</g>
<!-- Node7&#45;&gt;Node8 -->
<g id="edge7" class="edge"><title>Node7&#45;&gt;Node8</title>
<path fill="none" stroke="midnightblue" d="M1444.29,-76C1453.15,-76 1462.6,-76 1471.59,-76"/>
<polygon fill="midnightblue" stroke="midnightblue" points="1444.21,-72.5001 1434.21,-76 1444.21,-79.5001 1444.21,-72.5001"/>
</g>
<!-- Node11 -->
<g id="node11" class="node"><title>Node11</title>
<g id="a_node11"><a xlink:href="../../d4/d2f/class_lose_screen.html#a34f2cc2c803500316c9b8d854854d758" target="_top" xlink:title="LoseScreen.init">
<polygon fill="white" stroke="black" points="1470,-28.5 1470,-47.5 1560,-47.5 1560,-28.5 1470,-28.5"/>
<text text-anchor="middle" x="1515" y="-35.5" font-family="Helvetica,sans-Serif" font-size="10.00">LoseScreen.init</text>
</a>
</g>
</g>
<!-- Node7&#45;&gt;Node11 -->
<g id="edge10" class="edge"><title>Node7&#45;&gt;Node11</title>
<path fill="none" stroke="midnightblue" d="M1442.21,-63.0282C1456.73,-57.9656 1473.08,-52.2659 1486.5,-47.5859"/>
<polygon fill="midnightblue" stroke="midnightblue" points="1440.8,-59.8141 1432.51,-66.411 1443.1,-66.4239 1440.8,-59.8141"/>
</g>
<!-- Node13 -->
<g id="node13" class="node"><title>Node13</title>
<g id="a_node13"><a xlink:href="../../d0/d4b/class_main.html#a7595d13c514a02c35aca322dd91d2063" target="_top" xlink:title="Main.start">
<polygon fill="white" stroke="black" points="1482.5,-104.5 1482.5,-123.5 1547.5,-123.5 1547.5,-104.5 1482.5,-104.5"/>
<text text-anchor="middle" x="1515" y="-111.5" font-family="Helvetica,sans-Serif" font-size="10.00">Main.start</text>
</a>
</g>
</g>
<!-- Node7&#45;&gt;Node13 -->
<g id="edge13" class="edge"><title>Node7&#45;&gt;Node13</title>
<path fill="none" stroke="midnightblue" d="M1442.21,-88.9718C1456.73,-94.0344 1473.08,-99.7341 1486.5,-104.414"/>
<polygon fill="midnightblue" stroke="midnightblue" points="1443.1,-85.5761 1432.51,-85.589 1440.8,-92.1859 1443.1,-85.5761"/>
</g>
<!-- Node9 -->
<g id="node9" class="node"><title>Node9</title>
<g id="a_node9"><a xlink:href="../../d6/d4f/class_item_box_world.html#a2ed12a6b39993faedc05cc682204476d" target="_top" xlink:title="ItemBoxWorld.winLevel">
<polygon fill="white" stroke="black" points="1596.5,-66.5 1596.5,-85.5 1721.5,-85.5 1721.5,-66.5 1596.5,-66.5"/>
<text text-anchor="middle" x="1659" y="-73.5" font-family="Helvetica,sans-Serif" font-size="10.00">ItemBoxWorld.winLevel</text>
</a>
</g>
</g>
<!-- Node8&#45;&gt;Node9 -->
<g id="edge8" class="edge"><title>Node8&#45;&gt;Node9</title>
<path fill="none" stroke="midnightblue" d="M1568.34,-76C1577.5,-76 1587.11,-76 1596.5,-76"/>
<polygon fill="midnightblue" stroke="midnightblue" points="1568.22,-72.5001 1558.22,-76 1568.22,-79.5001 1568.22,-72.5001"/>
</g>
<!-- Node10 -->
<g id="node10" class="node"><title>Node10</title>
<g id="a_node10"><a xlink:href="../../d6/d4f/class_item_box_world.html#ae442d947b4dafc944336ee27628d2175" target="_top" xlink:title="ItemBoxWorld.handleKeyInput">
<polygon fill="white" stroke="black" points="1758,-66.5 1758,-85.5 1916,-85.5 1916,-66.5 1758,-66.5"/>
<text text-anchor="middle" x="1837" y="-73.5" font-family="Helvetica,sans-Serif" font-size="10.00">ItemBoxWorld.handleKeyInput</text>
</a>
</g>
</g>
<!-- Node9&#45;&gt;Node10 -->
<g id="edge9" class="edge"><title>Node9&#45;&gt;Node10</title>
<path fill="none" stroke="midnightblue" d="M1731.57,-76C1740.2,-76 1749.05,-76 1757.77,-76"/>
<polygon fill="midnightblue" stroke="midnightblue" points="1731.56,-72.5001 1721.56,-76 1731.56,-79.5001 1731.56,-72.5001"/>
</g>
<!-- Node12 -->
<g id="node12" class="node"><title>Node12</title>
<g id="a_node12"><a xlink:href="../../db/d97/class_box_world.html#a72bacb2a6757900d8835249929fcc838" target="_top" xlink:title="BoxWorld.loseGame">
<polygon fill="white" stroke="black" points="1603,-9.5 1603,-28.5 1715,-28.5 1715,-9.5 1603,-9.5"/>
<text text-anchor="middle" x="1659" y="-16.5" font-family="Helvetica,sans-Serif" font-size="10.00">BoxWorld.loseGame</text>
</a>
</g>
</g>
<!-- Node11&#45;&gt;Node12 -->
<g id="edge11" class="edge"><title>Node11&#45;&gt;Node12</title>
<path fill="none" stroke="midnightblue" d="M1570.2,-30.7473C1580.9,-29.3165 1592.13,-27.8135 1602.85,-26.3786"/>
<polygon fill="midnightblue" stroke="midnightblue" points="1569.6,-27.2971 1560.15,-32.0924 1570.53,-34.2352 1569.6,-27.2971"/>
</g>
<!-- Node12&#45;&gt;Node3 -->
<g id="edge12" class="edge"><title>Node12&#45;&gt;Node3</title>
<path fill="none" stroke="midnightblue" d="M1592.59,-11.3825C1541.56,-6.09633 1468.87,-0 1405,-0 572,-0 572,-0 572,-0 462.149,-0 334.654,-31.233 275.83,-47.4595"/>
<polygon fill="midnightblue" stroke="midnightblue" points="1592.5,-14.8929 1602.81,-12.4613 1593.24,-7.93152 1592.5,-14.8929"/>
</g>
<!-- Node15 -->
<g id="node15" class="node"><title>Node15</title>
<g id="a_node15"><a xlink:href="../../db/d97/class_box_world.html#aad670712776afe126e51791097027e05" target="_top" xlink:title="BoxWorld.winLevel">
<polygon fill="white" stroke="black" points="788.5,-104.5 788.5,-123.5 891.5,-123.5 891.5,-104.5 788.5,-104.5"/>
<text text-anchor="middle" x="840" y="-111.5" font-family="Helvetica,sans-Serif" font-size="10.00">BoxWorld.winLevel</text>
</a>
</g>
</g>
<!-- Node14&#45;&gt;Node15 -->
<g id="edge15" class="edge"><title>Node14&#45;&gt;Node15</title>
<path fill="none" stroke="midnightblue" d="M747.087,-88.3183C765.772,-93.5393 787.218,-99.5316 804.692,-104.414"/>
<polygon fill="midnightblue" stroke="midnightblue" points="747.892,-84.9092 737.319,-85.589 746.008,-91.651 747.892,-84.9092"/>
</g>
<!-- Node15&#45;&gt;Node3 -->
<g id="edge16" class="edge"><title>Node15&#45;&gt;Node3</title>
<path fill="none" stroke="midnightblue" d="M778.283,-110.701C687.508,-105.42 511.124,-93.8168 362,-76 340.603,-73.4436 317.16,-69.8686 296.782,-66.5084"/>
<polygon fill="midnightblue" stroke="midnightblue" points="778.205,-114.202 788.39,-111.283 778.608,-107.213 778.205,-114.202"/>
</g>
<!-- Node16 -->
<g id="node16" class="node"><title>Node16</title>
<g id="a_node16"><a xlink:href="../../db/d97/class_box_world.html#aa7e2049d7be23e15fd2ec7fa2922ed79" target="_top" xlink:title="BoxWorld.handleKeyInput">
<polygon fill="white" stroke="black" points="928,-104.5 928,-123.5 1064,-123.5 1064,-104.5 928,-104.5"/>
<text text-anchor="middle" x="996" y="-111.5" font-family="Helvetica,sans-Serif" font-size="10.00">BoxWorld.handleKeyInput</text>
</a>
</g>
</g>
<!-- Node15&#45;&gt;Node16 -->
<g id="edge17" class="edge"><title>Node15&#45;&gt;Node16</title>
<path fill="none" stroke="midnightblue" d="M902.075,-114C910.591,-114 919.378,-114 927.996,-114"/>
<polygon fill="midnightblue" stroke="midnightblue" points="901.852,-110.5 891.852,-114 901.852,-117.5 901.852,-110.5"/>
</g>
<!-- Node17 -->
<g id="node17" class="node"><title>Node17</title>
<g id="a_node17"><a xlink:href="../../db/d97/class_box_world.html#a726e747e023543658d7a345cc6466ccb" target="_top" xlink:title="BoxWorld.createScene">
<polygon fill="white" stroke="black" points="1100,-66.5 1100,-85.5 1224,-85.5 1224,-66.5 1100,-66.5"/>
<text text-anchor="middle" x="1162" y="-73.5" font-family="Helvetica,sans-Serif" font-size="10.00">BoxWorld.createScene</text>
</a>
</g>
</g>
<!-- Node16&#45;&gt;Node17 -->
<g id="edge18" class="edge"><title>Node16&#45;&gt;Node17</title>
<path fill="none" stroke="midnightblue" d="M1048.34,-102.104C1071.39,-96.7626 1098.22,-90.5463 1119.91,-85.5201"/>
<polygon fill="midnightblue" stroke="midnightblue" points="1047.34,-98.744 1038.38,-104.411 1048.92,-105.563 1047.34,-98.744"/>
</g>
<!-- Node17&#45;&gt;Node6 -->
<g id="edge19" class="edge"><title>Node17&#45;&gt;Node6</title>
<path fill="none" stroke="midnightblue" d="M1234.28,-76C1243.23,-76 1252.08,-76 1260.22,-76"/>
<polygon fill="midnightblue" stroke="midnightblue" points="1234.18,-72.5001 1224.18,-76 1234.18,-79.5001 1234.18,-72.5001"/>
</g>
<!-- Node17&#45;&gt;Node14 -->
<g id="edge20" class="edge"><title>Node17&#45;&gt;Node14</title>
<path fill="none" stroke="midnightblue" d="M1089.63,-76C995.569,-76 832.574,-76 751.58,-76"/>
<polygon fill="midnightblue" stroke="midnightblue" points="1089.91,-79.5001 1099.91,-76 1089.91,-72.5001 1089.91,-79.5001"/>
</g>
</g>
</svg>
