<?xml version="1.0" encoding="UTF-8" standalone="no"?>
<!DOCTYPE svg PUBLIC "-//W3C//DTD SVG 1.1//EN"
 "http://www.w3.org/Graphics/SVG/1.1/DTD/svg11.dtd">
<!-- Generated by graphviz version 2.36.0 (20140111.2315)
 -->
<!-- Title: BoxWorld.setAnimation Pages: 1 -->
<svg width="1576pt" height="180pt"
 viewBox="0.00 0.00 1576.00 180.00" xmlns="http://www.w3.org/2000/svg" xmlns:xlink="http://www.w3.org/1999/xlink">
<g id="graph0" class="graph" transform="scale(1 1) rotate(0) translate(4 176)">
<title>BoxWorld.setAnimation</title>
<polygon fill="white" stroke="none" points="-4,4 -4,-176 1572,-176 1572,4 -4,4"/>
<!-- Node1 -->
<g id="node1" class="node"><title>Node1</title>
<polygon fill="#bfbfbf" stroke="black" points="0.5,-95.5 0.5,-114.5 127.5,-114.5 127.5,-95.5 0.5,-95.5"/>
<text text-anchor="middle" x="64" y="-102.5" font-family="Helvetica,sans-Serif" font-size="10.00">BoxWorld.setAnimation</text>
</g>
<!-- Node2 -->
<g id="node2" class="node"><title>Node2</title>
<g id="a_node2"><a xlink:href="../../d6/d4f/class_item_box_world.html#aa559fc2680327b41fb376e2eda8e82e3" target="_top" xlink:title="ItemBoxWorld.init">
<polygon fill="white" stroke="black" points="164.5,-95.5 164.5,-114.5 263.5,-114.5 263.5,-95.5 164.5,-95.5"/>
<text text-anchor="middle" x="214" y="-102.5" font-family="Helvetica,sans-Serif" font-size="10.00">ItemBoxWorld.init</text>
</a>
</g>
</g>
<!-- Node1&#45;&gt;Node2 -->
<g id="edge1" class="edge"><title>Node1&#45;&gt;Node2</title>
<path fill="none" stroke="midnightblue" d="M137.783,-105C146.689,-105 155.618,-105 164.055,-105"/>
<polygon fill="midnightblue" stroke="midnightblue" points="137.765,-101.5 127.765,-105 137.765,-108.5 137.765,-101.5"/>
</g>
<!-- Node3 -->
<g id="node3" class="node"><title>Node3</title>
<g id="a_node3"><a xlink:href="../../db/d97/class_box_world.html#aad670712776afe126e51791097027e05" target="_top" xlink:title="BoxWorld.winLevel">
<polygon fill="white" stroke="black" points="300.5,-95.5 300.5,-114.5 403.5,-114.5 403.5,-95.5 300.5,-95.5"/>
<text text-anchor="middle" x="352" y="-102.5" font-family="Helvetica,sans-Serif" font-size="10.00">BoxWorld.winLevel</text>
</a>
</g>
</g>
<!-- Node2&#45;&gt;Node3 -->
<g id="edge2" class="edge"><title>Node2&#45;&gt;Node3</title>
<path fill="none" stroke="midnightblue" d="M273.915,-105C282.715,-105 291.722,-105 300.331,-105"/>
<polygon fill="midnightblue" stroke="midnightblue" points="273.715,-101.5 263.715,-105 273.715,-108.5 273.715,-101.5"/>
</g>
<!-- Node4 -->
<g id="node4" class="node"><title>Node4</title>
<g id="a_node4"><a xlink:href="../../db/d97/class_box_world.html#a4079bed8937c9f621decfbe1309e31e2" target="_top" xlink:title="BoxWorld.checkAllCollisions">
<polygon fill="white" stroke="black" points="440,-76.5 440,-95.5 586,-95.5 586,-76.5 440,-76.5"/>
<text text-anchor="middle" x="513" y="-83.5" font-family="Helvetica,sans-Serif" font-size="10.00">BoxWorld.checkAllCollisions</text>
</a>
</g>
</g>
<!-- Node3&#45;&gt;Node4 -->
<g id="edge3" class="edge"><title>Node3&#45;&gt;Node4</title>
<path fill="none" stroke="midnightblue" d="M413.879,-97.7251C422.33,-96.7152 431.079,-95.6698 439.713,-94.638"/>
<polygon fill="midnightblue" stroke="midnightblue" points="413.26,-94.2742 403.746,-98.936 414.09,-101.225 413.26,-94.2742"/>
</g>
<!-- Node15 -->
<g id="node15" class="node"><title>Node15</title>
<g id="a_node15"><a xlink:href="../../db/d97/class_box_world.html#aa7e2049d7be23e15fd2ec7fa2922ed79" target="_top" xlink:title="BoxWorld.handleKeyInput">
<polygon fill="white" stroke="black" points="445,-114.5 445,-133.5 581,-133.5 581,-114.5 445,-114.5"/>
<text text-anchor="middle" x="513" y="-121.5" font-family="Helvetica,sans-Serif" font-size="10.00">BoxWorld.handleKeyInput</text>
</a>
</g>
</g>
<!-- Node3&#45;&gt;Node15 -->
<g id="edge16" class="edge"><title>Node3&#45;&gt;Node15</title>
<path fill="none" stroke="midnightblue" d="M413.76,-112.261C423.946,-113.478 434.567,-114.747 444.901,-115.982"/>
<polygon fill="midnightblue" stroke="midnightblue" points="414.09,-108.775 403.746,-111.064 413.26,-115.726 414.09,-108.775"/>
</g>
<!-- Node5 -->
<g id="node5" class="node"><title>Node5</title>
<g id="a_node5"><a xlink:href="../../db/d97/class_box_world.html#a6794c083c2a0263c2f585f4ae4b7e39c" target="_top" xlink:title="BoxWorld.updateSprites">
<polygon fill="white" stroke="black" points="622.5,-76.5 622.5,-95.5 753.5,-95.5 753.5,-76.5 622.5,-76.5"/>
<text text-anchor="middle" x="688" y="-83.5" font-family="Helvetica,sans-Serif" font-size="10.00">BoxWorld.updateSprites</text>
</a>
</g>
</g>
<!-- Node4&#45;&gt;Node5 -->
<g id="edge4" class="edge"><title>Node4&#45;&gt;Node5</title>
<path fill="none" stroke="midnightblue" d="M596.354,-86C605.116,-86 613.936,-86 622.451,-86"/>
<polygon fill="midnightblue" stroke="midnightblue" points="596.115,-82.5001 586.115,-86 596.115,-89.5001 596.115,-82.5001"/>
</g>
<!-- Node6 -->
<g id="node6" class="node"><title>Node6</title>
<g id="a_node6"><a xlink:href="../../db/d97/class_box_world.html#ad20a4e43406c44f4bbf201d1d1028998" target="_top" xlink:title="BoxWorld.start">
<polygon fill="white" stroke="black" points="790,-38.5 790,-57.5 876,-57.5 876,-38.5 790,-38.5"/>
<text text-anchor="middle" x="833" y="-45.5" font-family="Helvetica,sans-Serif" font-size="10.00">BoxWorld.start</text>
</a>
</g>
</g>
<!-- Node5&#45;&gt;Node6 -->
<g id="edge5" class="edge"><title>Node5&#45;&gt;Node6</title>
<path fill="none" stroke="midnightblue" d="M734.813,-73.8258C754.587,-68.5713 777.384,-62.5134 795.927,-57.5859"/>
<polygon fill="midnightblue" stroke="midnightblue" points="733.851,-70.4601 725.085,-76.411 735.648,-77.2253 733.851,-70.4601"/>
</g>
<!-- Node6&#45;&gt;Node2 -->
<g id="edge15" class="edge"><title>Node6&#45;&gt;Node2</title>
<path fill="none" stroke="midnightblue" d="M779.89,-48.072C684.097,-49.0101 473.899,-54.8221 300,-86 285.116,-88.6685 268.89,-92.1514 254.642,-95.4052"/>
<polygon fill="midnightblue" stroke="midnightblue" points="779.928,-51.5719 789.898,-47.9879 779.869,-44.5721 779.928,-51.5719"/>
</g>
<!-- Node7 -->
<g id="node7" class="node"><title>Node7</title>
<g id="a_node7"><a xlink:href="../../db/d97/class_box_world.html#a55bf92d3f466bfaade0f6d199d8c9bd9" target="_top" xlink:title="BoxWorld.init">
<polygon fill="white" stroke="black" points="912.5,-38.5 912.5,-57.5 989.5,-57.5 989.5,-38.5 912.5,-38.5"/>
<text text-anchor="middle" x="951" y="-45.5" font-family="Helvetica,sans-Serif" font-size="10.00">BoxWorld.init</text>
</a>
</g>
</g>
<!-- Node6&#45;&gt;Node7 -->
<g id="edge6" class="edge"><title>Node6&#45;&gt;Node7</title>
<path fill="none" stroke="midnightblue" d="M886.33,-48C895.062,-48 903.968,-48 912.244,-48"/>
<polygon fill="midnightblue" stroke="midnightblue" points="886.207,-44.5001 876.207,-48 886.207,-51.5001 886.207,-44.5001"/>
</g>
<!-- Node8 -->
<g id="node8" class="node"><title>Node8</title>
<g id="a_node8"><a xlink:href="../../d2/db8/class_menu.html#a3c99ad09e9f2f975c1a0d0597642651a" target="_top" xlink:title="Menu.init">
<polygon fill="white" stroke="black" points="1026,-38.5 1026,-57.5 1086,-57.5 1086,-38.5 1026,-38.5"/>
<text text-anchor="middle" x="1056" y="-45.5" font-family="Helvetica,sans-Serif" font-size="10.00">Menu.init</text>
</a>
</g>
</g>
<!-- Node7&#45;&gt;Node8 -->
<g id="edge7" class="edge"><title>Node7&#45;&gt;Node8</title>
<path fill="none" stroke="midnightblue" d="M1000.03,-48C1008.89,-48 1017.87,-48 1025.95,-48"/>
<polygon fill="midnightblue" stroke="midnightblue" points="999.769,-44.5001 989.769,-48 999.768,-51.5001 999.769,-44.5001"/>
</g>
<!-- Node9 -->
<g id="node9" class="node"><title>Node9</title>
<g id="a_node9"><a xlink:href="../../d1/de1/class_end_screen.html#a1264ffb72b3a3032443f9c4087222aef" target="_top" xlink:title="EndScreen.init">
<polygon fill="white" stroke="black" points="1124,-0.5 1124,-19.5 1210,-19.5 1210,-0.5 1124,-0.5"/>
<text text-anchor="middle" x="1167" y="-7.5" font-family="Helvetica,sans-Serif" font-size="10.00">EndScreen.init</text>
</a>
</g>
</g>
<!-- Node8&#45;&gt;Node9 -->
<g id="edge8" class="edge"><title>Node8&#45;&gt;Node9</title>
<path fill="none" stroke="midnightblue" d="M1094.21,-35.0282C1108.73,-29.9656 1125.08,-24.2659 1138.5,-19.5859"/>
<polygon fill="midnightblue" stroke="midnightblue" points="1092.8,-31.8141 1084.51,-38.411 1095.1,-38.4239 1092.8,-31.8141"/>
</g>
<!-- Node12 -->
<g id="node12" class="node"><title>Node12</title>
<g id="a_node12"><a xlink:href="../../d4/d2f/class_lose_screen.html#a34f2cc2c803500316c9b8d854854d758" target="_top" xlink:title="LoseScreen.init">
<polygon fill="white" stroke="black" points="1122,-38.5 1122,-57.5 1212,-57.5 1212,-38.5 1122,-38.5"/>
<text text-anchor="middle" x="1167" y="-45.5" font-family="Helvetica,sans-Serif" font-size="10.00">LoseScreen.init</text>
</a>
</g>
</g>
<!-- Node8&#45;&gt;Node12 -->
<g id="edge11" class="edge"><title>Node8&#45;&gt;Node12</title>
<path fill="none" stroke="midnightblue" d="M1096.38,-48C1104.68,-48 1113.48,-48 1121.94,-48"/>
<polygon fill="midnightblue" stroke="midnightblue" points="1096.21,-44.5001 1086.21,-48 1096.21,-51.5001 1096.21,-44.5001"/>
</g>
<!-- Node14 -->
<g id="node14" class="node"><title>Node14</title>
<g id="a_node14"><a xlink:href="../../d0/d4b/class_main.html#a7595d13c514a02c35aca322dd91d2063" target="_top" xlink:title="Main.start">
<polygon fill="white" stroke="black" points="1134.5,-76.5 1134.5,-95.5 1199.5,-95.5 1199.5,-76.5 1134.5,-76.5"/>
<text text-anchor="middle" x="1167" y="-83.5" font-family="Helvetica,sans-Serif" font-size="10.00">Main.start</text>
</a>
</g>
</g>
<!-- Node8&#45;&gt;Node14 -->
<g id="edge14" class="edge"><title>Node8&#45;&gt;Node14</title>
<path fill="none" stroke="midnightblue" d="M1094.21,-60.9718C1108.73,-66.0344 1125.08,-71.7341 1138.5,-76.4141"/>
<polygon fill="midnightblue" stroke="midnightblue" points="1095.1,-57.5761 1084.51,-57.589 1092.8,-64.1859 1095.1,-57.5761"/>
</g>
<!-- Node10 -->
<g id="node10" class="node"><title>Node10</title>
<g id="a_node10"><a xlink:href="../../d6/d4f/class_item_box_world.html#a2ed12a6b39993faedc05cc682204476d" target="_top" xlink:title="ItemBoxWorld.winLevel">
<polygon fill="white" stroke="black" points="1248.5,-0.5 1248.5,-19.5 1373.5,-19.5 1373.5,-0.5 1248.5,-0.5"/>
<text text-anchor="middle" x="1311" y="-7.5" font-family="Helvetica,sans-Serif" font-size="10.00">ItemBoxWorld.winLevel</text>
</a>
</g>
</g>
<!-- Node9&#45;&gt;Node10 -->
<g id="edge9" class="edge"><title>Node9&#45;&gt;Node10</title>
<path fill="none" stroke="midnightblue" d="M1220.34,-10C1229.5,-10 1239.11,-10 1248.5,-10"/>
<polygon fill="midnightblue" stroke="midnightblue" points="1220.22,-6.5001 1210.22,-10 1220.22,-13.5001 1220.22,-6.5001"/>
</g>
<!-- Node11 -->
<g id="node11" class="node"><title>Node11</title>
<g id="a_node11"><a xlink:href="../../d6/d4f/class_item_box_world.html#ae442d947b4dafc944336ee27628d2175" target="_top" xlink:title="ItemBoxWorld.handleKeyInput">
<polygon fill="white" stroke="black" points="1410,-0.5 1410,-19.5 1568,-19.5 1568,-0.5 1410,-0.5"/>
<text text-anchor="middle" x="1489" y="-7.5" font-family="Helvetica,sans-Serif" font-size="10.00">ItemBoxWorld.handleKeyInput</text>
</a>
</g>
</g>
<!-- Node10&#45;&gt;Node11 -->
<g id="edge10" class="edge"><title>Node10&#45;&gt;Node11</title>
<path fill="none" stroke="midnightblue" d="M1383.57,-10C1392.2,-10 1401.05,-10 1409.77,-10"/>
<polygon fill="midnightblue" stroke="midnightblue" points="1383.56,-6.5001 1373.56,-10 1383.56,-13.5001 1383.56,-6.5001"/>
</g>
<!-- Node13 -->
<g id="node13" class="node"><title>Node13</title>
<g id="a_node13"><a xlink:href="../../db/d97/class_box_world.html#a72bacb2a6757900d8835249929fcc838" target="_top" xlink:title="BoxWorld.loseGame">
<polygon fill="white" stroke="black" points="1255,-76.5 1255,-95.5 1367,-95.5 1367,-76.5 1255,-76.5"/>
<text text-anchor="middle" x="1311" y="-83.5" font-family="Helvetica,sans-Serif" font-size="10.00">BoxWorld.loseGame</text>
</a>
</g>
</g>
<!-- Node12&#45;&gt;Node13 -->
<g id="edge12" class="edge"><title>Node12&#45;&gt;Node13</title>
<path fill="none" stroke="midnightblue" d="M1213.49,-60.1742C1233.13,-65.4287 1255.77,-71.4866 1274.18,-76.4141"/>
<polygon fill="midnightblue" stroke="midnightblue" points="1214.4,-56.7931 1203.83,-57.589 1212.59,-63.5552 1214.4,-56.7931"/>
</g>
<!-- Node13&#45;&gt;Node4 -->
<g id="edge13" class="edge"><title>Node13&#45;&gt;Node4</title>
<path fill="none" stroke="midnightblue" d="M1260.8,-97.833C1210.05,-108.986 1128.47,-124 1057,-124 832,-124 832,-124 832,-124 736.227,-124 625.368,-106.796 563.084,-95.54"/>
<polygon fill="midnightblue" stroke="midnightblue" points="1261.84,-101.187 1270.83,-95.589 1260.31,-94.3557 1261.84,-101.187"/>
</g>
<!-- Node16 -->
<g id="node16" class="node"><title>Node16</title>
<g id="a_node16"><a xlink:href="../../db/d97/class_box_world.html#a726e747e023543658d7a345cc6466ccb" target="_top" xlink:title="BoxWorld.createScene">
<polygon fill="white" stroke="black" points="626,-152.5 626,-171.5 750,-171.5 750,-152.5 626,-152.5"/>
<text text-anchor="middle" x="688" y="-159.5" font-family="Helvetica,sans-Serif" font-size="10.00">BoxWorld.createScene</text>
</a>
</g>
</g>
<!-- Node15&#45;&gt;Node16 -->
<g id="edge17" class="edge"><title>Node15&#45;&gt;Node16</title>
<path fill="none" stroke="midnightblue" d="M567.505,-135.753C591.967,-141.126 620.571,-147.409 643.659,-152.48"/>
<polygon fill="midnightblue" stroke="midnightblue" points="568.173,-132.316 557.655,-133.589 566.671,-139.153 568.173,-132.316"/>
</g>
<!-- Node16&#45;&gt;Node2 -->
<g id="edge18" class="edge"><title>Node16&#45;&gt;Node2</title>
<path fill="none" stroke="midnightblue" d="M615.732,-158.407C537.733,-153.684 409.226,-143.583 300,-124 285.116,-121.332 268.89,-117.849 254.642,-114.595"/>
<polygon fill="midnightblue" stroke="midnightblue" points="615.737,-161.913 625.927,-159.01 616.151,-154.925 615.737,-161.913"/>
</g>
<!-- Node16&#45;&gt;Node7 -->
<g id="edge19" class="edge"><title>Node16&#45;&gt;Node7</title>
<path fill="none" stroke="midnightblue" d="M720.13,-148.403C773.627,-125.036 881.716,-77.8252 928.075,-57.5766"/>
<polygon fill="midnightblue" stroke="midnightblue" points="718.567,-145.266 710.804,-152.477 721.369,-151.681 718.567,-145.266"/>
</g>
</g>
</svg>
