<?xml version="1.0" encoding="UTF-8" standalone="no"?>
<!DOCTYPE svg PUBLIC "-//W3C//DTD SVG 1.1//EN"
 "http://www.w3.org/Graphics/SVG/1.1/DTD/svg11.dtd">
<!-- Generated by graphviz version 2.36.0 (20140111.2315)
 -->
<!-- Title: BoxWorld.checkAllCollisions Pages: 1 -->
<svg width="1904pt" height="550pt"
 viewBox="0.00 0.00 1904.00 550.00" xmlns="http://www.w3.org/2000/svg" xmlns:xlink="http://www.w3.org/1999/xlink">
<g id="graph0" class="graph" transform="scale(1 1) rotate(0) translate(4 546)">
<title>BoxWorld.checkAllCollisions</title>
<polygon fill="white" stroke="none" points="-4,4 -4,-546 1900,-546 1900,4 -4,4"/>
<!-- Node1 -->
<g id="node1" class="node"><title>Node1</title>
<polygon fill="#bfbfbf" stroke="black" points="0,-285.5 0,-304.5 146,-304.5 146,-285.5 0,-285.5"/>
<text text-anchor="middle" x="73" y="-292.5" font-family="Helvetica,sans-Serif" font-size="10.00">BoxWorld.checkAllCollisions</text>
</g>
<!-- Node2 -->
<g id="node2" class="node"><title>Node2</title>
<g id="a_node2"><a xlink:href="../../db/d97/class_box_world.html#a55add11037cd6dc48556f2f42a9e11be" target="_top" xlink:title="BoxWorld.checkCollide">
<polygon fill="white" stroke="black" points="1554,-370.5 1554,-389.5 1676,-389.5 1676,-370.5 1554,-370.5"/>
<text text-anchor="middle" x="1615" y="-377.5" font-family="Helvetica,sans-Serif" font-size="10.00">BoxWorld.checkCollide</text>
</a>
</g>
</g>
<!-- Node1&#45;&gt;Node2 -->
<g id="edge1" class="edge"><title>Node1&#45;&gt;Node2</title>
<path fill="none" stroke="midnightblue" d="M85.7302,-304.565C124.357,-335.061 252.079,-428 374,-428 374,-428 374,-428 1091,-428 1272.35,-428 1317.89,-420.123 1498,-399 1515.62,-396.934 1534.65,-394.079 1552.1,-391.211"/>
<polygon fill="midnightblue" stroke="midnightblue" points="1552.89,-394.628 1562.17,-389.526 1551.73,-387.724 1552.89,-394.628"/>
</g>
<!-- Node5 -->
<g id="node5" class="node"><title>Node5</title>
<g id="a_node5"><a xlink:href="../../db/d97/class_box_world.html#a72bacb2a6757900d8835249929fcc838" target="_top" xlink:title="BoxWorld.loseGame">
<polygon fill="white" stroke="black" points="182,-285.5 182,-304.5 294,-304.5 294,-285.5 182,-285.5"/>
<text text-anchor="middle" x="238" y="-292.5" font-family="Helvetica,sans-Serif" font-size="10.00">BoxWorld.loseGame</text>
</a>
</g>
</g>
<!-- Node1&#45;&gt;Node5 -->
<g id="edge4" class="edge"><title>Node1&#45;&gt;Node5</title>
<path fill="none" stroke="midnightblue" d="M146.443,-295C154.906,-295 163.501,-295 171.856,-295"/>
<polygon fill="midnightblue" stroke="midnightblue" points="171.904,-298.5 181.904,-295 171.904,-291.5 171.904,-298.5"/>
</g>
<!-- Node24 -->
<g id="node24" class="node"><title>Node24</title>
<g id="a_node24"><a xlink:href="../../db/d97/class_box_world.html#aad670712776afe126e51791097027e05" target="_top" xlink:title="BoxWorld.winLevel">
<polygon fill="white" stroke="black" points="1038.5,-228.5 1038.5,-247.5 1141.5,-247.5 1141.5,-228.5 1038.5,-228.5"/>
<text text-anchor="middle" x="1090" y="-235.5" font-family="Helvetica,sans-Serif" font-size="10.00">BoxWorld.winLevel</text>
</a>
</g>
</g>
<!-- Node1&#45;&gt;Node24 -->
<g id="edge49" class="edge"><title>Node1&#45;&gt;Node24</title>
<path fill="none" stroke="midnightblue" d="M87.947,-285.477C129.473,-258.078 256.716,-181 374,-181 374,-181 374,-181 755,-181 860.594,-181 982.324,-209.026 1045.64,-225.774"/>
<polygon fill="midnightblue" stroke="midnightblue" points="1045.1,-229.251 1055.66,-228.459 1046.91,-222.49 1045.1,-229.251"/>
</g>
<!-- Node37 -->
<g id="node37" class="node"><title>Node37</title>
<g id="a_node37"><a xlink:href="../../db/d97/class_box_world.html#a167adb49603af3a303ee958011243b5f" target="_top" xlink:title="BoxWorld.onScreen">
<polygon fill="white" stroke="black" points="183.5,-133.5 183.5,-152.5 292.5,-152.5 292.5,-133.5 183.5,-133.5"/>
<text text-anchor="middle" x="238" y="-140.5" font-family="Helvetica,sans-Serif" font-size="10.00">BoxWorld.onScreen</text>
</a>
</g>
</g>
<!-- Node1&#45;&gt;Node37 -->
<g id="edge48" class="edge"><title>Node1&#45;&gt;Node37</title>
<path fill="none" stroke="midnightblue" d="M79.8861,-285.349C94.4971,-262.095 134.682,-202.282 182,-167 187.207,-163.118 193.14,-159.703 199.136,-156.758"/>
<polygon fill="midnightblue" stroke="midnightblue" points="200.845,-159.826 208.516,-152.518 197.962,-153.448 200.845,-159.826"/>
</g>
<!-- Node3 -->
<g id="node3" class="node"><title>Node3</title>
<g id="a_node3"><a xlink:href="../../da/de2/class_sticky_box.html#a6ba3f89630df9d81df5644a3e5f4e387" target="_top" xlink:title="StickyBox.getXDirection">
<polygon fill="white" stroke="black" points="1748.5,-370.5 1748.5,-389.5 1879.5,-389.5 1879.5,-370.5 1748.5,-370.5"/>
<text text-anchor="middle" x="1814" y="-377.5" font-family="Helvetica,sans-Serif" font-size="10.00">StickyBox.getXDirection</text>
</a>
</g>
</g>
<!-- Node2&#45;&gt;Node3 -->
<g id="edge2" class="edge"><title>Node2&#45;&gt;Node3</title>
<path fill="none" stroke="midnightblue" d="M1676.18,-380C1695.73,-380 1717.67,-380 1738.16,-380"/>
<polygon fill="midnightblue" stroke="midnightblue" points="1738.4,-383.5 1748.4,-380 1738.4,-376.5 1738.4,-383.5"/>
</g>
<!-- Node4 -->
<g id="node4" class="node"><title>Node4</title>
<g id="a_node4"><a xlink:href="../../da/de2/class_sticky_box.html#a69e5ccf2a79159c03dea2e048df13318" target="_top" xlink:title="StickyBox.getYDirection">
<polygon fill="white" stroke="black" points="1749,-332.5 1749,-351.5 1879,-351.5 1879,-332.5 1749,-332.5"/>
<text text-anchor="middle" x="1814" y="-339.5" font-family="Helvetica,sans-Serif" font-size="10.00">StickyBox.getYDirection</text>
</a>
</g>
</g>
<!-- Node2&#45;&gt;Node4 -->
<g id="edge3" class="edge"><title>Node2&#45;&gt;Node4</title>
<path fill="none" stroke="midnightblue" d="M1665.46,-370.46C1692.15,-365.31 1725.3,-358.916 1753.42,-353.494"/>
<polygon fill="midnightblue" stroke="midnightblue" points="1754.37,-356.875 1763.52,-351.544 1753.04,-350.001 1754.37,-356.875"/>
</g>
<!-- Node6 -->
<g id="node6" class="node"><title>Node6</title>
<g id="a_node6"><a xlink:href="../../d4/d2f/class_lose_screen.html#a34f2cc2c803500316c9b8d854854d758" target="_top" xlink:title="LoseScreen.init">
<polygon fill="white" stroke="black" points="330,-285.5 330,-304.5 420,-304.5 420,-285.5 330,-285.5"/>
<text text-anchor="middle" x="375" y="-292.5" font-family="Helvetica,sans-Serif" font-size="10.00">LoseScreen.init</text>
</a>
</g>
</g>
<!-- Node5&#45;&gt;Node6 -->
<g id="edge5" class="edge"><title>Node5&#45;&gt;Node6</title>
<path fill="none" stroke="midnightblue" d="M294.299,-295C302.686,-295 311.332,-295 319.697,-295"/>
<polygon fill="midnightblue" stroke="midnightblue" points="319.724,-298.5 329.724,-295 319.724,-291.5 319.724,-298.5"/>
</g>
<!-- Node7 -->
<g id="node7" class="node"><title>Node7</title>
<g id="a_node7"><a xlink:href="../../d2/db8/class_menu.html#a3c99ad09e9f2f975c1a0d0597642651a" target="_top" xlink:title="Menu.init">
<polygon fill="white" stroke="black" points="456,-285.5 456,-304.5 516,-304.5 516,-285.5 456,-285.5"/>
<text text-anchor="middle" x="486" y="-292.5" font-family="Helvetica,sans-Serif" font-size="10.00">Menu.init</text>
</a>
</g>
</g>
<!-- Node6&#45;&gt;Node7 -->
<g id="edge6" class="edge"><title>Node6&#45;&gt;Node7</title>
<path fill="none" stroke="midnightblue" d="M420.02,-295C428.495,-295 437.322,-295 445.637,-295"/>
<polygon fill="midnightblue" stroke="midnightblue" points="445.833,-298.5 455.833,-295 445.832,-291.5 445.833,-298.5"/>
</g>
<!-- Node8 -->
<g id="node8" class="node"><title>Node8</title>
<g id="a_node8"><a xlink:href="../../d2/db8/class_menu.html#a8a6e6125f0dc2dc7e19c6655ba6376a2" target="_top" xlink:title="Menu.addIntroText">
<polygon fill="white" stroke="black" points="552,-304.5 552,-323.5 656,-323.5 656,-304.5 552,-304.5"/>
<text text-anchor="middle" x="604" y="-311.5" font-family="Helvetica,sans-Serif" font-size="10.00">Menu.addIntroText</text>
</a>
</g>
</g>
<!-- Node7&#45;&gt;Node8 -->
<g id="edge7" class="edge"><title>Node7&#45;&gt;Node8</title>
<path fill="none" stroke="midnightblue" d="M516.272,-299.795C524.074,-301.072 532.804,-302.502 541.639,-303.95"/>
<polygon fill="midnightblue" stroke="midnightblue" points="541.18,-307.421 551.614,-305.583 542.311,-300.513 541.18,-307.421"/>
</g>
<!-- Node9 -->
<g id="node9" class="node"><title>Node9</title>
<g id="a_node9"><a xlink:href="../../db/d97/class_box_world.html#a55bf92d3f466bfaade0f6d199d8c9bd9" target="_top" xlink:title="BoxWorld.init">
<polygon fill="white" stroke="black" points="565.5,-266.5 565.5,-285.5 642.5,-285.5 642.5,-266.5 565.5,-266.5"/>
<text text-anchor="middle" x="604" y="-273.5" font-family="Helvetica,sans-Serif" font-size="10.00">BoxWorld.init</text>
</a>
</g>
</g>
<!-- Node7&#45;&gt;Node9 -->
<g id="edge8" class="edge"><title>Node7&#45;&gt;Node9</title>
<path fill="none" stroke="midnightblue" d="M516.272,-290.205C528.145,-288.261 542.168,-285.964 555.436,-283.791"/>
<polygon fill="midnightblue" stroke="midnightblue" points="556.085,-287.231 565.388,-282.161 554.954,-280.323 556.085,-287.231"/>
</g>
<!-- Node10 -->
<g id="node10" class="node"><title>Node10</title>
<g id="a_node10"><a xlink:href="../../db/d97/class_box_world.html#a69798621c944e846f045aaf3937505f9" target="_top" xlink:title="BoxWorld.addStarterObjects">
<polygon fill="white" stroke="black" points="1330.5,-0.5 1330.5,-19.5 1481.5,-19.5 1481.5,-0.5 1330.5,-0.5"/>
<text text-anchor="middle" x="1406" y="-7.5" font-family="Helvetica,sans-Serif" font-size="10.00">BoxWorld.addStarterObjects</text>
</a>
</g>
</g>
<!-- Node9&#45;&gt;Node10 -->
<g id="edge9" class="edge"><title>Node9&#45;&gt;Node10</title>
<path fill="none" stroke="midnightblue" d="M628.821,-266.431C717.835,-230.947 1039.87,-105.026 1314,-29 1323.45,-26.3798 1333.54,-23.9332 1343.43,-21.7254"/>
<polygon fill="midnightblue" stroke="midnightblue" points="1344.2,-25.1406 1353.23,-19.5995 1342.71,-18.2998 1344.2,-25.1406"/>
</g>
<!-- Node12 -->
<g id="node12" class="node"><title>Node12</title>
<g id="a_node12"><a xlink:href="../../db/d97/class_box_world.html#ad20a4e43406c44f4bbf201d1d1028998" target="_top" xlink:title="BoxWorld.start">
<polygon fill="white" stroke="black" points="1363,-370.5 1363,-389.5 1449,-389.5 1449,-370.5 1363,-370.5"/>
<text text-anchor="middle" x="1406" y="-377.5" font-family="Helvetica,sans-Serif" font-size="10.00">BoxWorld.start</text>
</a>
</g>
</g>
<!-- Node9&#45;&gt;Node12 -->
<g id="edge11" class="edge"><title>Node9&#45;&gt;Node12</title>
<path fill="none" stroke="midnightblue" d="M631.079,-285.523C706.2,-312.922 918.219,-390 926,-390 926,-390 926,-390 1091,-390 1183.03,-390 1290.16,-385.655 1352.5,-382.694"/>
<polygon fill="midnightblue" stroke="midnightblue" points="1353.04,-386.172 1362.86,-382.195 1352.7,-379.18 1353.04,-386.172"/>
</g>
<!-- Node18 -->
<g id="node18" class="node"><title>Node18</title>
<g id="a_node18"><a xlink:href="../../db/d97/class_box_world.html#a726e747e023543658d7a345cc6466ccb" target="_top" xlink:title="BoxWorld.createScene">
<polygon fill="white" stroke="black" points="692,-266.5 692,-285.5 816,-285.5 816,-266.5 692,-266.5"/>
<text text-anchor="middle" x="754" y="-273.5" font-family="Helvetica,sans-Serif" font-size="10.00">BoxWorld.createScene</text>
</a>
</g>
</g>
<!-- Node9&#45;&gt;Node18 -->
<g id="edge20" class="edge"><title>Node9&#45;&gt;Node18</title>
<path fill="none" stroke="midnightblue" d="M642.73,-276C654.604,-276 668.135,-276 681.553,-276"/>
<polygon fill="midnightblue" stroke="midnightblue" points="681.763,-279.5 691.763,-276 681.763,-272.5 681.763,-279.5"/>
</g>
<!-- Node11 -->
<g id="node11" class="node"><title>Node11</title>
<g id="a_node11"><a xlink:href="../../db/d97/class_box_world.html#a2542cc74ebeba6a9768a443a55186901" target="_top" xlink:title="BoxWorld.createObstacleArray">
<polygon fill="white" stroke="black" points="1534.5,-0.5 1534.5,-19.5 1695.5,-19.5 1695.5,-0.5 1534.5,-0.5"/>
<text text-anchor="middle" x="1615" y="-7.5" font-family="Helvetica,sans-Serif" font-size="10.00">BoxWorld.createObstacleArray</text>
</a>
</g>
</g>
<!-- Node10&#45;&gt;Node11 -->
<g id="edge10" class="edge"><title>Node10&#45;&gt;Node11</title>
<path fill="none" stroke="midnightblue" d="M1481.73,-10C1495.52,-10 1510.06,-10 1524.24,-10"/>
<polygon fill="midnightblue" stroke="midnightblue" points="1524.49,-13.5001 1534.49,-10 1524.49,-6.5001 1524.49,-13.5001"/>
</g>
<!-- Node13 -->
<g id="node13" class="node"><title>Node13</title>
<g id="a_node13"><a xlink:href="../../db/d97/class_box_world.html#a6794c083c2a0263c2f585f4ae4b7e39c" target="_top" xlink:title="BoxWorld.updateSprites">
<polygon fill="white" stroke="black" points="1549.5,-427.5 1549.5,-446.5 1680.5,-446.5 1680.5,-427.5 1549.5,-427.5"/>
<text text-anchor="middle" x="1615" y="-434.5" font-family="Helvetica,sans-Serif" font-size="10.00">BoxWorld.updateSprites</text>
</a>
</g>
</g>
<!-- Node12&#45;&gt;Node13 -->
<g id="edge12" class="edge"><title>Node12&#45;&gt;Node13</title>
<path fill="none" stroke="midnightblue" d="M1441.65,-389.541C1476.72,-399.199 1531.11,-414.175 1569.39,-424.716"/>
<polygon fill="midnightblue" stroke="midnightblue" points="1568.67,-428.148 1579.24,-427.428 1570.53,-421.399 1568.67,-428.148"/>
</g>
<!-- Node13&#45;&gt;Node1 -->
<g id="edge13" class="edge"><title>Node13&#45;&gt;Node1</title>
<path fill="none" stroke="midnightblue" d="M1549.24,-442.904C1450.49,-451.383 1256.28,-466 1091,-466 374,-466 374,-466 374,-466 284.463,-466 258.281,-451.883 182,-405 141.766,-380.272 105.685,-337.371 87.1477,-313.098"/>
<polygon fill="midnightblue" stroke="midnightblue" points="89.722,-310.696 80.93,-304.784 84.1162,-314.888 89.722,-310.696"/>
</g>
<!-- Node13&#45;&gt;Node3 -->
<g id="edge16" class="edge"><title>Node13&#45;&gt;Node3</title>
<path fill="none" stroke="midnightblue" d="M1642.99,-427.428C1666.37,-419.311 1701.19,-407.643 1732,-399 1740.78,-396.536 1750.16,-394.132 1759.31,-391.907"/>
<polygon fill="midnightblue" stroke="midnightblue" points="1760.19,-395.295 1769.1,-389.569 1758.57,-388.486 1760.19,-395.295"/>
</g>
<!-- Node13&#45;&gt;Node4 -->
<g id="edge17" class="edge"><title>Node13&#45;&gt;Node4</title>
<path fill="none" stroke="midnightblue" d="M1642.2,-427.433C1658.5,-420.801 1679.45,-411.014 1696,-399 1714.83,-385.333 1711.83,-372.588 1732,-361 1735.91,-358.754 1740.07,-356.773 1744.36,-355.026"/>
<polygon fill="midnightblue" stroke="midnightblue" points="1745.71,-358.26 1753.92,-351.564 1743.33,-351.678 1745.71,-358.26"/>
</g>
<!-- Node14 -->
<g id="node14" class="node"><title>Node14</title>
<g id="a_node14"><a xlink:href="../../da/de2/class_sticky_box.html#a59337f0aa3c7379a2cb9c76bdc621daf" target="_top" xlink:title="StickyBox.setStuck">
<polygon fill="white" stroke="black" points="1760,-446.5 1760,-465.5 1868,-465.5 1868,-446.5 1760,-446.5"/>
<text text-anchor="middle" x="1814" y="-453.5" font-family="Helvetica,sans-Serif" font-size="10.00">StickyBox.setStuck</text>
</a>
</g>
</g>
<!-- Node13&#45;&gt;Node14 -->
<g id="edge14" class="edge"><title>Node13&#45;&gt;Node14</title>
<path fill="none" stroke="midnightblue" d="M1680.51,-443.221C1702.79,-445.371 1727.72,-447.775 1749.89,-449.913"/>
<polygon fill="midnightblue" stroke="midnightblue" points="1749.57,-453.399 1759.86,-450.875 1750.25,-446.431 1749.57,-453.399"/>
</g>
<!-- Node15 -->
<g id="node15" class="node"><title>Node15</title>
<g id="a_node15"><a xlink:href="../../da/de2/class_sticky_box.html#a5d95d2ed2e13f0d87a44311db77f9e36" target="_top" xlink:title="StickyBox.setPreviousDirection">
<polygon fill="white" stroke="black" points="1732,-484.5 1732,-503.5 1896,-503.5 1896,-484.5 1732,-484.5"/>
<text text-anchor="middle" x="1814" y="-491.5" font-family="Helvetica,sans-Serif" font-size="10.00">StickyBox.setPreviousDirection</text>
</a>
</g>
</g>
<!-- Node13&#45;&gt;Node15 -->
<g id="edge15" class="edge"><title>Node13&#45;&gt;Node15</title>
<path fill="none" stroke="midnightblue" d="M1642.99,-446.572C1666.37,-454.689 1701.19,-466.357 1732,-475 1740.78,-477.464 1750.16,-479.868 1759.31,-482.093"/>
<polygon fill="midnightblue" stroke="midnightblue" points="1758.57,-485.514 1769.1,-484.431 1760.19,-478.705 1758.57,-485.514"/>
</g>
<!-- Node16 -->
<g id="node16" class="node"><title>Node16</title>
<g id="a_node16"><a xlink:href="../../da/de2/class_sticky_box.html#aa1bb8f78f676b01c688d75d386758444" target="_top" xlink:title="StickyBox.setDirection">
<polygon fill="white" stroke="black" points="1752,-522.5 1752,-541.5 1876,-541.5 1876,-522.5 1752,-522.5"/>
<text text-anchor="middle" x="1814" y="-529.5" font-family="Helvetica,sans-Serif" font-size="10.00">StickyBox.setDirection</text>
</a>
</g>
</g>
<!-- Node13&#45;&gt;Node16 -->
<g id="edge18" class="edge"><title>Node13&#45;&gt;Node16</title>
<path fill="none" stroke="midnightblue" d="M1642.2,-446.567C1658.5,-453.199 1679.45,-462.986 1696,-475 1714.83,-488.667 1711.83,-501.412 1732,-513 1735.91,-515.246 1740.07,-517.227 1744.36,-518.974"/>
<polygon fill="midnightblue" stroke="midnightblue" points="1743.33,-522.322 1753.92,-522.436 1745.71,-515.74 1743.33,-522.322"/>
</g>
<!-- Node17 -->
<g id="node17" class="node"><title>Node17</title>
<g id="a_node17"><a xlink:href="../../da/de2/class_sticky_box.html#a185ee469367b376e6c5969a03d089d57" target="_top" xlink:title="StickyBox.move">
<polygon fill="white" stroke="black" points="1767.5,-408.5 1767.5,-427.5 1860.5,-427.5 1860.5,-408.5 1767.5,-408.5"/>
<text text-anchor="middle" x="1814" y="-415.5" font-family="Helvetica,sans-Serif" font-size="10.00">StickyBox.move</text>
</a>
</g>
</g>
<!-- Node13&#45;&gt;Node17 -->
<g id="edge19" class="edge"><title>Node13&#45;&gt;Node17</title>
<path fill="none" stroke="midnightblue" d="M1680.51,-430.779C1705.35,-428.383 1733.48,-425.67 1757.41,-423.362"/>
<polygon fill="midnightblue" stroke="midnightblue" points="1757.76,-426.844 1767.38,-422.4 1757.09,-419.876 1757.76,-426.844"/>
</g>
<!-- Node19 -->
<g id="node19" class="node"><title>Node19</title>
<g id="a_node19"><a xlink:href="../../db/d97/class_box_world.html#aa7e2049d7be23e15fd2ec7fa2922ed79" target="_top" xlink:title="BoxWorld.handleKeyInput">
<polygon fill="white" stroke="black" points="859,-266.5 859,-285.5 995,-285.5 995,-266.5 859,-266.5"/>
<text text-anchor="middle" x="927" y="-273.5" font-family="Helvetica,sans-Serif" font-size="10.00">BoxWorld.handleKeyInput</text>
</a>
</g>
</g>
<!-- Node18&#45;&gt;Node19 -->
<g id="edge21" class="edge"><title>Node18&#45;&gt;Node19</title>
<path fill="none" stroke="midnightblue" d="M816.252,-276C826.71,-276 837.695,-276 848.508,-276"/>
<polygon fill="midnightblue" stroke="midnightblue" points="848.8,-279.5 858.8,-276 848.8,-272.5 848.8,-279.5"/>
</g>
<!-- Node36 -->
<g id="node36" class="node"><title>Node36</title>
<g id="a_node36"><a xlink:href="../../db/d97/class_box_world.html#a2d44485a181577acb4d79b6b81f26fff" target="_top" xlink:title="BoxWorld.handleKeyRelease">
<polygon fill="white" stroke="black" points="852.5,-304.5 852.5,-323.5 1001.5,-323.5 1001.5,-304.5 852.5,-304.5"/>
<text text-anchor="middle" x="927" y="-311.5" font-family="Helvetica,sans-Serif" font-size="10.00">BoxWorld.handleKeyRelease</text>
</a>
</g>
</g>
<!-- Node18&#45;&gt;Node36 -->
<g id="edge47" class="edge"><title>Node18&#45;&gt;Node36</title>
<path fill="none" stroke="midnightblue" d="M798.151,-285.589C820.919,-290.649 849.048,-296.9 873.119,-302.249"/>
<polygon fill="midnightblue" stroke="midnightblue" points="872.639,-305.727 883.16,-304.48 874.157,-298.894 872.639,-305.727"/>
</g>
<!-- Node19&#45;&gt;Node16 -->
<g id="edge27" class="edge"><title>Node19&#45;&gt;Node16</title>
<path fill="none" stroke="midnightblue" d="M981.293,-285.623C988.532,-288.078 995.647,-291.151 1002,-295 1022.46,-307.392 1018.31,-321.418 1038,-335 1230.78,-468 1304.01,-468.748 1534,-513 1603.68,-526.407 1684.73,-530.698 1741.46,-531.913"/>
<polygon fill="midnightblue" stroke="midnightblue" points="1741.7,-535.418 1751.77,-532.105 1741.83,-528.419 1741.7,-535.418"/>
</g>
<!-- Node20 -->
<g id="node20" class="node"><title>Node20</title>
<g id="a_node20"><a xlink:href="../../db/d97/class_box_world.html#adc4c9d78ffde3d052c4c92047eb98e55" target="_top" xlink:title="BoxWorld.allowMovement">
<polygon fill="white" stroke="black" points="1546.5,-304.5 1546.5,-323.5 1683.5,-323.5 1683.5,-304.5 1546.5,-304.5"/>
<text text-anchor="middle" x="1615" y="-311.5" font-family="Helvetica,sans-Serif" font-size="10.00">BoxWorld.allowMovement</text>
</a>
</g>
</g>
<!-- Node19&#45;&gt;Node20 -->
<g id="edge22" class="edge"><title>Node19&#45;&gt;Node20</title>
<path fill="none" stroke="midnightblue" d="M995.026,-279.713C1122.76,-286.788 1400.4,-302.168 1536.13,-309.687"/>
<polygon fill="midnightblue" stroke="midnightblue" points="1536.27,-313.2 1546.45,-310.258 1536.66,-306.21 1536.27,-313.2"/>
</g>
<!-- Node23 -->
<g id="node23" class="node"><title>Node23</title>
<g id="a_node23"><a xlink:href="../../db/d97/class_box_world.html#a04c6bf977c4292a5433649fb3745fd6b" target="_top" xlink:title="BoxWorld.reset">
<polygon fill="white" stroke="black" points="1571,-484.5 1571,-503.5 1659,-503.5 1659,-484.5 1571,-484.5"/>
<text text-anchor="middle" x="1615" y="-491.5" font-family="Helvetica,sans-Serif" font-size="10.00">BoxWorld.reset</text>
</a>
</g>
</g>
<!-- Node19&#45;&gt;Node23 -->
<g id="edge28" class="edge"><title>Node19&#45;&gt;Node23</title>
<path fill="none" stroke="midnightblue" d="M966.499,-285.522C977.953,-288.453 990.51,-291.762 1002,-295 1064.65,-312.654 1080.2,-317.561 1142,-338 1219.01,-363.469 1237.1,-373.198 1314,-399 1405.86,-429.823 1514.42,-463.534 1572.46,-481.337"/>
<polygon fill="midnightblue" stroke="midnightblue" points="1571.77,-484.785 1582.35,-484.368 1573.82,-478.093 1571.77,-484.785"/>
</g>
<!-- Node19&#45;&gt;Node24 -->
<g id="edge31" class="edge"><title>Node19&#45;&gt;Node24</title>
<path fill="none" stroke="midnightblue" d="M968.627,-266.411C989.968,-261.374 1016.31,-255.156 1038.91,-249.823"/>
<polygon fill="midnightblue" stroke="midnightblue" points="1039.74,-253.224 1048.67,-247.52 1038.13,-246.411 1039.74,-253.224"/>
</g>
<!-- Node20&#45;&gt;Node3 -->
<g id="edge23" class="edge"><title>Node20&#45;&gt;Node3</title>
<path fill="none" stroke="midnightblue" d="M1637.02,-323.666C1659.98,-333.954 1698.04,-350.208 1732,-361 1740.01,-363.547 1748.57,-365.918 1757.01,-368.061"/>
<polygon fill="midnightblue" stroke="midnightblue" points="1756.28,-371.486 1766.83,-370.47 1757.95,-364.687 1756.28,-371.486"/>
</g>
<!-- Node20&#45;&gt;Node4 -->
<g id="edge25" class="edge"><title>Node20&#45;&gt;Node4</title>
<path fill="none" stroke="midnightblue" d="M1682.97,-323.519C1700.95,-326.074 1720.49,-328.851 1738.83,-331.458"/>
<polygon fill="midnightblue" stroke="midnightblue" points="1738.49,-334.944 1748.88,-332.886 1739.47,-328.014 1738.49,-334.944"/>
</g>
<!-- Node21 -->
<g id="node21" class="node"><title>Node21</title>
<g id="a_node21"><a xlink:href="../../da/de2/class_sticky_box.html#ab0bd7cafb7f243e3951558ddb8728b96" target="_top" xlink:title="StickyBox.getXPrev">
<polygon fill="white" stroke="black" points="1759.5,-256.5 1759.5,-275.5 1868.5,-275.5 1868.5,-256.5 1759.5,-256.5"/>
<text text-anchor="middle" x="1814" y="-263.5" font-family="Helvetica,sans-Serif" font-size="10.00">StickyBox.getXPrev</text>
</a>
</g>
</g>
<!-- Node20&#45;&gt;Node21 -->
<g id="edge24" class="edge"><title>Node20&#45;&gt;Node21</title>
<path fill="none" stroke="midnightblue" d="M1653.58,-304.458C1676.27,-298.733 1705.77,-291.354 1732,-285 1741.69,-282.653 1752.04,-280.191 1761.99,-277.847"/>
<polygon fill="midnightblue" stroke="midnightblue" points="1762.83,-281.244 1771.77,-275.55 1761.23,-274.429 1762.83,-281.244"/>
</g>
<!-- Node22 -->
<g id="node22" class="node"><title>Node22</title>
<g id="a_node22"><a xlink:href="../../da/de2/class_sticky_box.html#a4c6abed944faed9d9b226079e99cfc24" target="_top" xlink:title="StickyBox.getYPrev">
<polygon fill="white" stroke="black" points="1760,-294.5 1760,-313.5 1868,-313.5 1868,-294.5 1760,-294.5"/>
<text text-anchor="middle" x="1814" y="-301.5" font-family="Helvetica,sans-Serif" font-size="10.00">StickyBox.getYPrev</text>
</a>
</g>
</g>
<!-- Node20&#45;&gt;Node22 -->
<g id="edge26" class="edge"><title>Node20&#45;&gt;Node22</title>
<path fill="none" stroke="midnightblue" d="M1683.52,-310.573C1704.96,-309.484 1728.58,-308.285 1749.71,-307.212"/>
<polygon fill="midnightblue" stroke="midnightblue" points="1750.06,-310.7 1759.87,-306.697 1749.7,-303.709 1750.06,-310.7"/>
</g>
<!-- Node23&#45;&gt;Node15 -->
<g id="edge30" class="edge"><title>Node23&#45;&gt;Node15</title>
<path fill="none" stroke="midnightblue" d="M1659.23,-494C1677.61,-494 1699.79,-494 1721.52,-494"/>
<polygon fill="midnightblue" stroke="midnightblue" points="1721.78,-497.5 1731.78,-494 1721.78,-490.5 1721.78,-497.5"/>
</g>
<!-- Node23&#45;&gt;Node16 -->
<g id="edge29" class="edge"><title>Node23&#45;&gt;Node16</title>
<path fill="none" stroke="midnightblue" d="M1659.23,-502.339C1686.91,-507.678 1723.2,-514.678 1753.57,-520.536"/>
<polygon fill="midnightblue" stroke="midnightblue" points="1753.14,-524.018 1763.62,-522.475 1754.47,-517.145 1753.14,-524.018"/>
</g>
<!-- Node25 -->
<g id="node25" class="node"><title>Node25</title>
<g id="a_node25"><a xlink:href="../../d6/d4f/class_item_box_world.html#aa559fc2680327b41fb376e2eda8e82e3" target="_top" xlink:title="ItemBoxWorld.init">
<polygon fill="white" stroke="black" points="1178.5,-190.5 1178.5,-209.5 1277.5,-209.5 1277.5,-190.5 1178.5,-190.5"/>
<text text-anchor="middle" x="1228" y="-197.5" font-family="Helvetica,sans-Serif" font-size="10.00">ItemBoxWorld.init</text>
</a>
</g>
</g>
<!-- Node24&#45;&gt;Node25 -->
<g id="edge32" class="edge"><title>Node24&#45;&gt;Node25</title>
<path fill="none" stroke="midnightblue" d="M1125.32,-228.411C1142.79,-223.528 1164.24,-217.536 1182.93,-212.315"/>
<polygon fill="midnightblue" stroke="midnightblue" points="1184,-215.648 1192.69,-209.586 1182.12,-208.906 1184,-215.648"/>
</g>
<!-- Node25&#45;&gt;Node10 -->
<g id="edge37" class="edge"><title>Node25&#45;&gt;Node10</title>
<path fill="none" stroke="midnightblue" d="M1243.94,-190.428C1254.89,-182.67 1269.31,-170.788 1278,-157 1309.51,-107.004 1270.81,-69.3354 1314,-29 1316.34,-26.8123 1318.87,-24.8498 1321.54,-23.0905"/>
<polygon fill="midnightblue" stroke="midnightblue" points="1323.43,-26.0416 1330.49,-18.1372 1320.04,-19.9169 1323.43,-26.0416"/>
</g>
<!-- Node25&#45;&gt;Node12 -->
<g id="edge43" class="edge"><title>Node25&#45;&gt;Node12</title>
<path fill="none" stroke="midnightblue" d="M1237.17,-209.695C1252.01,-227.175 1284.59,-264.95 1314,-295 1338.24,-319.763 1367.8,-346.838 1386.51,-363.622"/>
<polygon fill="midnightblue" stroke="midnightblue" points="1384.27,-366.308 1394.06,-370.357 1388.93,-361.086 1384.27,-366.308"/>
</g>
<!-- Node25&#45;&gt;Node18 -->
<g id="edge46" class="edge"><title>Node25&#45;&gt;Node18</title>
<path fill="none" stroke="midnightblue" d="M1178.28,-203.57C1140.01,-206.694 1085.45,-211.855 1038,-219 956.352,-231.296 862.589,-251.372 806.118,-264.123"/>
<polygon fill="midnightblue" stroke="midnightblue" points="804.996,-260.788 796.019,-266.415 806.545,-267.614 804.996,-260.788"/>
</g>
<!-- Node26 -->
<g id="node26" class="node"><title>Node26</title>
<g id="a_node26"><a xlink:href="../../db/d97/class_box_world.html#a25c34c68bdd68debd7de01a4f3b98bb1" target="_top" xlink:title="BoxWorld.setStage">
<polygon fill="white" stroke="black" points="1352.5,-76.5 1352.5,-95.5 1459.5,-95.5 1459.5,-76.5 1352.5,-76.5"/>
<text text-anchor="middle" x="1406" y="-83.5" font-family="Helvetica,sans-Serif" font-size="10.00">BoxWorld.setStage</text>
</a>
</g>
</g>
<!-- Node25&#45;&gt;Node26 -->
<g id="edge33" class="edge"><title>Node25&#45;&gt;Node26</title>
<path fill="none" stroke="midnightblue" d="M1241.85,-190.174C1252.22,-181.922 1266.85,-169.504 1278,-157 1296.7,-136.017 1290.57,-120.535 1314,-105 1322.47,-99.3808 1332.29,-95.3766 1342.27,-92.5328"/>
<polygon fill="midnightblue" stroke="midnightblue" points="1343.4,-95.8593 1352.26,-90.0591 1341.72,-89.0644 1343.4,-95.8593"/>
</g>
<!-- Node27 -->
<g id="node27" class="node"><title>Node27</title>
<g id="a_node27"><a xlink:href="../../db/d97/class_box_world.html#a3735494d6eeffc036cd757eb21170eb0" target="_top" xlink:title="BoxWorld.setObstacleXCoordinates">
<polygon fill="white" stroke="black" points="1314.5,-266.5 1314.5,-285.5 1497.5,-285.5 1497.5,-266.5 1314.5,-266.5"/>
<text text-anchor="middle" x="1406" y="-273.5" font-family="Helvetica,sans-Serif" font-size="10.00">BoxWorld.setObstacleXCoordinates</text>
</a>
</g>
</g>
<!-- Node25&#45;&gt;Node27 -->
<g id="edge34" class="edge"><title>Node25&#45;&gt;Node27</title>
<path fill="none" stroke="midnightblue" d="M1240.27,-209.667C1255.81,-222.479 1285.18,-244.872 1314,-257 1320.2,-259.607 1326.79,-261.869 1333.48,-263.829"/>
<polygon fill="midnightblue" stroke="midnightblue" points="1332.75,-267.258 1343.32,-266.489 1334.58,-260.501 1332.75,-267.258"/>
</g>
<!-- Node28 -->
<g id="node28" class="node"><title>Node28</title>
<g id="a_node28"><a xlink:href="../../db/d97/class_box_world.html#ab45827804913790744cdbaaf8a222256" target="_top" xlink:title="BoxWorld.setObstacleYCoordinates">
<polygon fill="white" stroke="black" points="1315,-228.5 1315,-247.5 1497,-247.5 1497,-228.5 1315,-228.5"/>
<text text-anchor="middle" x="1406" y="-235.5" font-family="Helvetica,sans-Serif" font-size="10.00">BoxWorld.setObstacleYCoordinates</text>
</a>
</g>
</g>
<!-- Node25&#45;&gt;Node28 -->
<g id="edge35" class="edge"><title>Node25&#45;&gt;Node28</title>
<path fill="none" stroke="midnightblue" d="M1271.34,-209.589C1284.96,-212.638 1300.11,-215.997 1314,-219 1325.22,-221.426 1337.24,-223.972 1348.74,-226.382"/>
<polygon fill="midnightblue" stroke="midnightblue" points="1348.17,-229.84 1358.68,-228.46 1349.61,-222.988 1348.17,-229.84"/>
</g>
<!-- Node29 -->
<g id="node29" class="node"><title>Node29</title>
<g id="a_node29"><a xlink:href="../../db/d97/class_box_world.html#aeeaafc4ff103ded208e6c9393eb4ceca" target="_top" xlink:title="BoxWorld.setRoot">
<polygon fill="white" stroke="black" points="1356.5,-190.5 1356.5,-209.5 1455.5,-209.5 1455.5,-190.5 1356.5,-190.5"/>
<text text-anchor="middle" x="1406" y="-197.5" font-family="Helvetica,sans-Serif" font-size="10.00">BoxWorld.setRoot</text>
</a>
</g>
</g>
<!-- Node25&#45;&gt;Node29 -->
<g id="edge36" class="edge"><title>Node25&#45;&gt;Node29</title>
<path fill="none" stroke="midnightblue" d="M1277.56,-200C1298.82,-200 1323.96,-200 1346.27,-200"/>
<polygon fill="midnightblue" stroke="midnightblue" points="1346.29,-203.5 1356.29,-200 1346.29,-196.5 1346.29,-203.5"/>
</g>
<!-- Node30 -->
<g id="node30" class="node"><title>Node30</title>
<g id="a_node30"><a xlink:href="../../d6/d4f/class_item_box_world.html#a7ead15fd9fd8095f928640161d48fdf8" target="_top" xlink:title="ItemBoxWorld.addAllItems">
<polygon fill="white" stroke="black" points="1335.5,-38.5 1335.5,-57.5 1476.5,-57.5 1476.5,-38.5 1335.5,-38.5"/>
<text text-anchor="middle" x="1406" y="-45.5" font-family="Helvetica,sans-Serif" font-size="10.00">ItemBoxWorld.addAllItems</text>
</a>
</g>
</g>
<!-- Node25&#45;&gt;Node30 -->
<g id="edge38" class="edge"><title>Node25&#45;&gt;Node30</title>
<path fill="none" stroke="midnightblue" d="M1243.08,-190.478C1253.86,-182.58 1268.46,-170.492 1278,-157 1302.87,-121.825 1281,-94.6898 1314,-67 1317.57,-64.0015 1321.5,-61.4379 1325.66,-59.2492"/>
<polygon fill="midnightblue" stroke="midnightblue" points="1327.37,-62.3157 1335.07,-55.0334 1324.51,-55.9274 1327.37,-62.3157"/>
</g>
<!-- Node34 -->
<g id="node34" class="node"><title>Node34</title>
<g id="a_node34"><a xlink:href="../../db/d97/class_box_world.html#a8d7d9f1ae1ebcd87ff73c09780b70629" target="_top" xlink:title="BoxWorld.setAnimation">
<polygon fill="white" stroke="black" points="1342.5,-114.5 1342.5,-133.5 1469.5,-133.5 1469.5,-114.5 1342.5,-114.5"/>
<text text-anchor="middle" x="1406" y="-121.5" font-family="Helvetica,sans-Serif" font-size="10.00">BoxWorld.setAnimation</text>
</a>
</g>
</g>
<!-- Node25&#45;&gt;Node34 -->
<g id="edge44" class="edge"><title>Node25&#45;&gt;Node34</title>
<path fill="none" stroke="midnightblue" d="M1240.27,-190.333C1255.81,-177.521 1285.18,-155.128 1314,-143 1320.2,-140.393 1326.79,-138.131 1333.48,-136.171"/>
<polygon fill="midnightblue" stroke="midnightblue" points="1334.58,-139.499 1343.32,-133.511 1332.75,-132.742 1334.58,-139.499"/>
</g>
<!-- Node35 -->
<g id="node35" class="node"><title>Node35</title>
<g id="a_node35"><a xlink:href="../../db/d97/class_box_world.html#a61929851f1d60c397e1448e614f1d701" target="_top" xlink:title="BoxWorld.getAnimation">
<polygon fill="white" stroke="black" points="1342,-152.5 1342,-171.5 1470,-171.5 1470,-152.5 1342,-152.5"/>
<text text-anchor="middle" x="1406" y="-159.5" font-family="Helvetica,sans-Serif" font-size="10.00">BoxWorld.getAnimation</text>
</a>
</g>
</g>
<!-- Node25&#45;&gt;Node35 -->
<g id="edge45" class="edge"><title>Node25&#45;&gt;Node35</title>
<path fill="none" stroke="midnightblue" d="M1271.34,-190.411C1284.96,-187.362 1300.11,-184.003 1314,-181 1325.22,-178.574 1337.24,-176.028 1348.74,-173.618"/>
<polygon fill="midnightblue" stroke="midnightblue" points="1349.61,-177.012 1358.68,-171.54 1348.17,-170.16 1349.61,-177.012"/>
</g>
<!-- Node31 -->
<g id="node31" class="node"><title>Node31</title>
<g id="a_node31"><a xlink:href="../../d6/d4f/class_item_box_world.html#a1890e6c53a4a73e44e9528009fde508d" target="_top" xlink:title="ItemBoxWorld.itemExists">
<polygon fill="white" stroke="black" points="1548,-76.5 1548,-95.5 1682,-95.5 1682,-76.5 1548,-76.5"/>
<text text-anchor="middle" x="1615" y="-83.5" font-family="Helvetica,sans-Serif" font-size="10.00">ItemBoxWorld.itemExists</text>
</a>
</g>
</g>
<!-- Node30&#45;&gt;Node31 -->
<g id="edge39" class="edge"><title>Node30&#45;&gt;Node31</title>
<path fill="none" stroke="midnightblue" d="M1458.97,-57.54C1487.27,-62.7348 1522.46,-69.1963 1552.17,-74.6489"/>
<polygon fill="midnightblue" stroke="midnightblue" points="1551.54,-78.0929 1562.01,-76.4561 1552.81,-71.208 1551.54,-78.0929"/>
</g>
<!-- Node33 -->
<g id="node33" class="node"><title>Node33</title>
<g id="a_node33"><a xlink:href="../../d6/d4f/class_item_box_world.html#af1bcde0672796e926560684004ed8e81" target="_top" xlink:title="ItemBoxWorld.addSingleItem">
<polygon fill="white" stroke="black" points="1538,-38.5 1538,-57.5 1692,-57.5 1692,-38.5 1538,-38.5"/>
<text text-anchor="middle" x="1615" y="-45.5" font-family="Helvetica,sans-Serif" font-size="10.00">ItemBoxWorld.addSingleItem</text>
</a>
</g>
</g>
<!-- Node30&#45;&gt;Node33 -->
<g id="edge41" class="edge"><title>Node30&#45;&gt;Node33</title>
<path fill="none" stroke="midnightblue" d="M1476.5,-48C1492.84,-48 1510.46,-48 1527.44,-48"/>
<polygon fill="midnightblue" stroke="midnightblue" points="1527.92,-51.5001 1537.92,-48 1527.92,-44.5001 1527.92,-51.5001"/>
</g>
<!-- Node32 -->
<g id="node32" class="node"><title>Node32</title>
<g id="a_node32"><a xlink:href="../../db/d97/class_box_world.html#abb95adb381902ecab1db85efdc1ea6ff" target="_top" xlink:title="BoxWorld.getRoot">
<polygon fill="white" stroke="black" points="1764,-57.5 1764,-76.5 1864,-76.5 1864,-57.5 1764,-57.5"/>
<text text-anchor="middle" x="1814" y="-64.5" font-family="Helvetica,sans-Serif" font-size="10.00">BoxWorld.getRoot</text>
</a>
</g>
</g>
<!-- Node31&#45;&gt;Node32 -->
<g id="edge40" class="edge"><title>Node31&#45;&gt;Node32</title>
<path fill="none" stroke="midnightblue" d="M1682.15,-79.6204C1705.31,-77.386 1731.17,-74.8926 1753.73,-72.716"/>
<polygon fill="midnightblue" stroke="midnightblue" points="1754.23,-76.1842 1763.85,-71.7402 1753.56,-69.2165 1754.23,-76.1842"/>
</g>
<!-- Node33&#45;&gt;Node32 -->
<g id="edge42" class="edge"><title>Node33&#45;&gt;Node32</title>
<path fill="none" stroke="midnightblue" d="M1692.17,-55.3459C1712.54,-57.311 1734.26,-59.4059 1753.59,-61.2697"/>
<polygon fill="midnightblue" stroke="midnightblue" points="1753.46,-64.7738 1763.75,-62.2501 1754.13,-57.8062 1753.46,-64.7738"/>
</g>
</g>
</svg>
