<?xml version="1.0" encoding="UTF-8" standalone="no"?>
<!DOCTYPE svg PUBLIC "-//W3C//DTD SVG 1.1//EN"
 "http://www.w3.org/Graphics/SVG/1.1/DTD/svg11.dtd">
<!-- Generated by graphviz version 2.36.0 (20140111.2315)
 -->
<!-- Title: BoxWorld.handleKeyRelease Pages: 1 -->
<svg width="1758pt" height="142pt"
 viewBox="0.00 0.00 1758.00 142.00" xmlns="http://www.w3.org/2000/svg" xmlns:xlink="http://www.w3.org/1999/xlink">
<g id="graph0" class="graph" transform="scale(1 1) rotate(0) translate(4 138)">
<title>BoxWorld.handleKeyRelease</title>
<polygon fill="white" stroke="none" points="-4,4 -4,-138 1754,-138 1754,4 -4,4"/>
<!-- Node1 -->
<g id="node1" class="node"><title>Node1</title>
<polygon fill="#bfbfbf" stroke="black" points="0.5,-57.5 0.5,-76.5 149.5,-76.5 149.5,-57.5 0.5,-57.5"/>
<text text-anchor="middle" x="75" y="-64.5" font-family="Helvetica,sans-Serif" font-size="10.00">BoxWorld.handleKeyRelease</text>
</g>
<!-- Node2 -->
<g id="node2" class="node"><title>Node2</title>
<g id="a_node2"><a xlink:href="../../db/d97/class_box_world.html#a726e747e023543658d7a345cc6466ccb" target="_top" xlink:title="BoxWorld.createScene">
<polygon fill="white" stroke="black" points="186,-57.5 186,-76.5 310,-76.5 310,-57.5 186,-57.5"/>
<text text-anchor="middle" x="248" y="-64.5" font-family="Helvetica,sans-Serif" font-size="10.00">BoxWorld.createScene</text>
</a>
</g>
</g>
<!-- Node1&#45;&gt;Node2 -->
<g id="edge1" class="edge"><title>Node1&#45;&gt;Node2</title>
<path fill="none" stroke="midnightblue" d="M159.515,-67C168.404,-67 177.322,-67 185.884,-67"/>
<polygon fill="midnightblue" stroke="midnightblue" points="159.512,-63.5001 149.512,-67 159.512,-70.5001 159.512,-63.5001"/>
</g>
<!-- Node3 -->
<g id="node3" class="node"><title>Node3</title>
<g id="a_node3"><a xlink:href="../../d6/d4f/class_item_box_world.html#aa559fc2680327b41fb376e2eda8e82e3" target="_top" xlink:title="ItemBoxWorld.init">
<polygon fill="white" stroke="black" points="346.5,-57.5 346.5,-76.5 445.5,-76.5 445.5,-57.5 346.5,-57.5"/>
<text text-anchor="middle" x="396" y="-64.5" font-family="Helvetica,sans-Serif" font-size="10.00">ItemBoxWorld.init</text>
</a>
</g>
</g>
<!-- Node2&#45;&gt;Node3 -->
<g id="edge2" class="edge"><title>Node2&#45;&gt;Node3</title>
<path fill="none" stroke="midnightblue" d="M320.3,-67C329.052,-67 337.836,-67 346.149,-67"/>
<polygon fill="midnightblue" stroke="midnightblue" points="320.071,-63.5001 310.071,-67 320.071,-70.5001 320.071,-63.5001"/>
</g>
<!-- Node8 -->
<g id="node8" class="node"><title>Node8</title>
<g id="a_node8"><a xlink:href="../../db/d97/class_box_world.html#a55bf92d3f466bfaade0f6d199d8c9bd9" target="_top" xlink:title="BoxWorld.init">
<polygon fill="white" stroke="black" points="1094.5,-76.5 1094.5,-95.5 1171.5,-95.5 1171.5,-76.5 1094.5,-76.5"/>
<text text-anchor="middle" x="1133" y="-83.5" font-family="Helvetica,sans-Serif" font-size="10.00">BoxWorld.init</text>
</a>
</g>
</g>
<!-- Node2&#45;&gt;Node8 -->
<g id="edge19" class="edge"><title>Node2&#45;&gt;Node8</title>
<path fill="none" stroke="midnightblue" d="M287.075,-79.6427C341.12,-96.4346 443.473,-124 533,-124 533,-124 533,-124 871,-124 954.539,-124 975.756,-119.651 1058,-105 1071.58,-102.581 1086.34,-98.9914 1099.08,-95.5819"/>
<polygon fill="midnightblue" stroke="midnightblue" points="287.833,-76.212 277.244,-76.5405 285.727,-82.8876 287.833,-76.212"/>
</g>
<!-- Node4 -->
<g id="node4" class="node"><title>Node4</title>
<g id="a_node4"><a xlink:href="../../db/d97/class_box_world.html#aad670712776afe126e51791097027e05" target="_top" xlink:title="BoxWorld.winLevel">
<polygon fill="white" stroke="black" points="482.5,-38.5 482.5,-57.5 585.5,-57.5 585.5,-38.5 482.5,-38.5"/>
<text text-anchor="middle" x="534" y="-45.5" font-family="Helvetica,sans-Serif" font-size="10.00">BoxWorld.winLevel</text>
</a>
</g>
</g>
<!-- Node3&#45;&gt;Node4 -->
<g id="edge3" class="edge"><title>Node3&#45;&gt;Node4</title>
<path fill="none" stroke="midnightblue" d="M455.628,-58.8094C464.519,-57.5672 473.628,-56.2946 482.331,-55.0787"/>
<polygon fill="midnightblue" stroke="midnightblue" points="455.135,-55.3442 445.715,-60.1942 456.103,-62.2769 455.135,-55.3442"/>
</g>
<!-- Node5 -->
<g id="node5" class="node"><title>Node5</title>
<g id="a_node5"><a xlink:href="../../db/d97/class_box_world.html#a4079bed8937c9f621decfbe1309e31e2" target="_top" xlink:title="BoxWorld.checkAllCollisions">
<polygon fill="white" stroke="black" points="622,-38.5 622,-57.5 768,-57.5 768,-38.5 622,-38.5"/>
<text text-anchor="middle" x="695" y="-45.5" font-family="Helvetica,sans-Serif" font-size="10.00">BoxWorld.checkAllCollisions</text>
</a>
</g>
</g>
<!-- Node4&#45;&gt;Node5 -->
<g id="edge4" class="edge"><title>Node4&#45;&gt;Node5</title>
<path fill="none" stroke="midnightblue" d="M595.879,-48C604.33,-48 613.079,-48 621.713,-48"/>
<polygon fill="midnightblue" stroke="midnightblue" points="595.746,-44.5001 585.746,-48 595.746,-51.5001 595.746,-44.5001"/>
</g>
<!-- Node16 -->
<g id="node16" class="node"><title>Node16</title>
<g id="a_node16"><a xlink:href="../../db/d97/class_box_world.html#aa7e2049d7be23e15fd2ec7fa2922ed79" target="_top" xlink:title="BoxWorld.handleKeyInput">
<polygon fill="white" stroke="black" points="627,-0.5 627,-19.5 763,-19.5 763,-0.5 627,-0.5"/>
<text text-anchor="middle" x="695" y="-7.5" font-family="Helvetica,sans-Serif" font-size="10.00">BoxWorld.handleKeyInput</text>
</a>
</g>
</g>
<!-- Node4&#45;&gt;Node16 -->
<g id="edge17" class="edge"><title>Node4&#45;&gt;Node16</title>
<path fill="none" stroke="midnightblue" d="M585.077,-36.032C607.358,-30.7069 633.229,-24.5238 654.166,-19.5201"/>
<polygon fill="midnightblue" stroke="midnightblue" points="584.035,-32.6823 575.122,-38.411 585.662,-39.4906 584.035,-32.6823"/>
</g>
<!-- Node6 -->
<g id="node6" class="node"><title>Node6</title>
<g id="a_node6"><a xlink:href="../../db/d97/class_box_world.html#a6794c083c2a0263c2f585f4ae4b7e39c" target="_top" xlink:title="BoxWorld.updateSprites">
<polygon fill="white" stroke="black" points="804.5,-38.5 804.5,-57.5 935.5,-57.5 935.5,-38.5 804.5,-38.5"/>
<text text-anchor="middle" x="870" y="-45.5" font-family="Helvetica,sans-Serif" font-size="10.00">BoxWorld.updateSprites</text>
</a>
</g>
</g>
<!-- Node5&#45;&gt;Node6 -->
<g id="edge5" class="edge"><title>Node5&#45;&gt;Node6</title>
<path fill="none" stroke="midnightblue" d="M778.354,-48C787.116,-48 795.936,-48 804.451,-48"/>
<polygon fill="midnightblue" stroke="midnightblue" points="778.115,-44.5001 768.115,-48 778.115,-51.5001 778.115,-44.5001"/>
</g>
<!-- Node7 -->
<g id="node7" class="node"><title>Node7</title>
<g id="a_node7"><a xlink:href="../../db/d97/class_box_world.html#ad20a4e43406c44f4bbf201d1d1028998" target="_top" xlink:title="BoxWorld.start">
<polygon fill="white" stroke="black" points="972,-76.5 972,-95.5 1058,-95.5 1058,-76.5 972,-76.5"/>
<text text-anchor="middle" x="1015" y="-83.5" font-family="Helvetica,sans-Serif" font-size="10.00">BoxWorld.start</text>
</a>
</g>
</g>
<!-- Node6&#45;&gt;Node7 -->
<g id="edge6" class="edge"><title>Node6&#45;&gt;Node7</title>
<path fill="none" stroke="midnightblue" d="M916.813,-60.1742C936.587,-65.4287 959.384,-71.4866 977.927,-76.4141"/>
<polygon fill="midnightblue" stroke="midnightblue" points="917.648,-56.7747 907.085,-57.589 915.851,-63.5399 917.648,-56.7747"/>
</g>
<!-- Node7&#45;&gt;Node3 -->
<g id="edge16" class="edge"><title>Node7&#45;&gt;Node3</title>
<path fill="none" stroke="midnightblue" d="M961.448,-84.3817C843.624,-80.7534 559.752,-72.0118 445.673,-68.4988"/>
<polygon fill="midnightblue" stroke="midnightblue" points="961.55,-87.8864 971.653,-84.696 961.766,-80.8897 961.55,-87.8864"/>
</g>
<!-- Node7&#45;&gt;Node8 -->
<g id="edge7" class="edge"><title>Node7&#45;&gt;Node8</title>
<path fill="none" stroke="midnightblue" d="M1068.33,-86C1077.06,-86 1085.97,-86 1094.24,-86"/>
<polygon fill="midnightblue" stroke="midnightblue" points="1068.21,-82.5001 1058.21,-86 1068.21,-89.5001 1068.21,-82.5001"/>
</g>
<!-- Node9 -->
<g id="node9" class="node"><title>Node9</title>
<g id="a_node9"><a xlink:href="../../d2/db8/class_menu.html#a3c99ad09e9f2f975c1a0d0597642651a" target="_top" xlink:title="Menu.init">
<polygon fill="white" stroke="black" points="1208,-76.5 1208,-95.5 1268,-95.5 1268,-76.5 1208,-76.5"/>
<text text-anchor="middle" x="1238" y="-83.5" font-family="Helvetica,sans-Serif" font-size="10.00">Menu.init</text>
</a>
</g>
</g>
<!-- Node8&#45;&gt;Node9 -->
<g id="edge8" class="edge"><title>Node8&#45;&gt;Node9</title>
<path fill="none" stroke="midnightblue" d="M1182.03,-86C1190.89,-86 1199.87,-86 1207.95,-86"/>
<polygon fill="midnightblue" stroke="midnightblue" points="1181.77,-82.5001 1171.77,-86 1181.77,-89.5001 1181.77,-82.5001"/>
</g>
<!-- Node10 -->
<g id="node10" class="node"><title>Node10</title>
<g id="a_node10"><a xlink:href="../../d1/de1/class_end_screen.html#a1264ffb72b3a3032443f9c4087222aef" target="_top" xlink:title="EndScreen.init">
<polygon fill="white" stroke="black" points="1306,-114.5 1306,-133.5 1392,-133.5 1392,-114.5 1306,-114.5"/>
<text text-anchor="middle" x="1349" y="-121.5" font-family="Helvetica,sans-Serif" font-size="10.00">EndScreen.init</text>
</a>
</g>
</g>
<!-- Node9&#45;&gt;Node10 -->
<g id="edge9" class="edge"><title>Node9&#45;&gt;Node10</title>
<path fill="none" stroke="midnightblue" d="M1276.21,-98.9718C1290.73,-104.034 1307.08,-109.734 1320.5,-114.414"/>
<polygon fill="midnightblue" stroke="midnightblue" points="1277.1,-95.5761 1266.51,-95.589 1274.8,-102.186 1277.1,-95.5761"/>
</g>
<!-- Node13 -->
<g id="node13" class="node"><title>Node13</title>
<g id="a_node13"><a xlink:href="../../d4/d2f/class_lose_screen.html#a34f2cc2c803500316c9b8d854854d758" target="_top" xlink:title="LoseScreen.init">
<polygon fill="white" stroke="black" points="1304,-76.5 1304,-95.5 1394,-95.5 1394,-76.5 1304,-76.5"/>
<text text-anchor="middle" x="1349" y="-83.5" font-family="Helvetica,sans-Serif" font-size="10.00">LoseScreen.init</text>
</a>
</g>
</g>
<!-- Node9&#45;&gt;Node13 -->
<g id="edge12" class="edge"><title>Node9&#45;&gt;Node13</title>
<path fill="none" stroke="midnightblue" d="M1278.38,-86C1286.68,-86 1295.48,-86 1303.94,-86"/>
<polygon fill="midnightblue" stroke="midnightblue" points="1278.21,-82.5001 1268.21,-86 1278.21,-89.5001 1278.21,-82.5001"/>
</g>
<!-- Node15 -->
<g id="node15" class="node"><title>Node15</title>
<g id="a_node15"><a xlink:href="../../d0/d4b/class_main.html#a7595d13c514a02c35aca322dd91d2063" target="_top" xlink:title="Main.start">
<polygon fill="white" stroke="black" points="1316.5,-38.5 1316.5,-57.5 1381.5,-57.5 1381.5,-38.5 1316.5,-38.5"/>
<text text-anchor="middle" x="1349" y="-45.5" font-family="Helvetica,sans-Serif" font-size="10.00">Main.start</text>
</a>
</g>
</g>
<!-- Node9&#45;&gt;Node15 -->
<g id="edge15" class="edge"><title>Node9&#45;&gt;Node15</title>
<path fill="none" stroke="midnightblue" d="M1276.21,-73.0282C1290.73,-67.9656 1307.08,-62.2659 1320.5,-57.5859"/>
<polygon fill="midnightblue" stroke="midnightblue" points="1274.8,-69.8141 1266.51,-76.411 1277.1,-76.4239 1274.8,-69.8141"/>
</g>
<!-- Node11 -->
<g id="node11" class="node"><title>Node11</title>
<g id="a_node11"><a xlink:href="../../d6/d4f/class_item_box_world.html#a2ed12a6b39993faedc05cc682204476d" target="_top" xlink:title="ItemBoxWorld.winLevel">
<polygon fill="white" stroke="black" points="1430.5,-114.5 1430.5,-133.5 1555.5,-133.5 1555.5,-114.5 1430.5,-114.5"/>
<text text-anchor="middle" x="1493" y="-121.5" font-family="Helvetica,sans-Serif" font-size="10.00">ItemBoxWorld.winLevel</text>
</a>
</g>
</g>
<!-- Node10&#45;&gt;Node11 -->
<g id="edge10" class="edge"><title>Node10&#45;&gt;Node11</title>
<path fill="none" stroke="midnightblue" d="M1402.34,-124C1411.5,-124 1421.11,-124 1430.5,-124"/>
<polygon fill="midnightblue" stroke="midnightblue" points="1402.22,-120.5 1392.22,-124 1402.22,-127.5 1402.22,-120.5"/>
</g>
<!-- Node12 -->
<g id="node12" class="node"><title>Node12</title>
<g id="a_node12"><a xlink:href="../../d6/d4f/class_item_box_world.html#ae442d947b4dafc944336ee27628d2175" target="_top" xlink:title="ItemBoxWorld.handleKeyInput">
<polygon fill="white" stroke="black" points="1592,-114.5 1592,-133.5 1750,-133.5 1750,-114.5 1592,-114.5"/>
<text text-anchor="middle" x="1671" y="-121.5" font-family="Helvetica,sans-Serif" font-size="10.00">ItemBoxWorld.handleKeyInput</text>
</a>
</g>
</g>
<!-- Node11&#45;&gt;Node12 -->
<g id="edge11" class="edge"><title>Node11&#45;&gt;Node12</title>
<path fill="none" stroke="midnightblue" d="M1565.57,-124C1574.2,-124 1583.05,-124 1591.77,-124"/>
<polygon fill="midnightblue" stroke="midnightblue" points="1565.56,-120.5 1555.56,-124 1565.56,-127.5 1565.56,-120.5"/>
</g>
<!-- Node14 -->
<g id="node14" class="node"><title>Node14</title>
<g id="a_node14"><a xlink:href="../../db/d97/class_box_world.html#a72bacb2a6757900d8835249929fcc838" target="_top" xlink:title="BoxWorld.loseGame">
<polygon fill="white" stroke="black" points="1437,-38.5 1437,-57.5 1549,-57.5 1549,-38.5 1437,-38.5"/>
<text text-anchor="middle" x="1493" y="-45.5" font-family="Helvetica,sans-Serif" font-size="10.00">BoxWorld.loseGame</text>
</a>
</g>
</g>
<!-- Node13&#45;&gt;Node14 -->
<g id="edge13" class="edge"><title>Node13&#45;&gt;Node14</title>
<path fill="none" stroke="midnightblue" d="M1395.49,-73.8258C1415.13,-68.5713 1437.77,-62.5134 1456.18,-57.5859"/>
<polygon fill="midnightblue" stroke="midnightblue" points="1394.59,-70.4448 1385.83,-76.411 1396.4,-77.2069 1394.59,-70.4448"/>
</g>
<!-- Node14&#45;&gt;Node5 -->
<g id="edge14" class="edge"><title>Node14&#45;&gt;Node5</title>
<path fill="none" stroke="midnightblue" d="M1442.8,-36.167C1392.05,-25.0138 1310.47,-10 1239,-10 1014,-10 1014,-10 1014,-10 918.227,-10 807.368,-27.2037 745.084,-38.46"/>
<polygon fill="midnightblue" stroke="midnightblue" points="1442.31,-39.6443 1452.83,-38.411 1443.84,-32.813 1442.31,-39.6443"/>
</g>
<!-- Node16&#45;&gt;Node2 -->
<g id="edge18" class="edge"><title>Node16&#45;&gt;Node2</title>
<path fill="none" stroke="midnightblue" d="M616.599,-16.0128C576.4,-19.3695 526.506,-23.8999 482,-29 421.365,-35.9483 406.191,-37.9082 346,-48 329.245,-50.8092 310.943,-54.2871 294.795,-57.4964"/>
<polygon fill="midnightblue" stroke="midnightblue" points="616.924,-19.498 626.602,-15.1851 616.347,-12.5218 616.924,-19.498"/>
</g>
</g>
</svg>
