<?xml version="1.0" encoding="UTF-8" standalone="no"?>
<!DOCTYPE svg PUBLIC "-//W3C//DTD SVG 1.1//EN"
 "http://www.w3.org/Graphics/SVG/1.1/DTD/svg11.dtd">
<!-- Generated by graphviz version 2.36.0 (20140111.2315)
 -->
<!-- Title: BoxWorld.loseGame Pages: 1 -->
<!--zoomable 326 -->
<svg id="main" version="1.1" xmlns="http://www.w3.org/2000/svg" xmlns:xlink="http://www.w3.org/1999/xlink" xml:space="preserve" onload="init(evt)">
<style type="text/css"><![CDATA[
.edge:hover path { stroke: red; }
.edge:hover polygon { stroke: red; fill: red; }
]]></style>
<script type="text/javascript"><![CDATA[
var edges = document.getElementsByTagName('g');
if (edges && edges.length) {
  for (var i=0;i<edges.length;i++) {
    if (edges[i].id.substr(0,4)=='edge') {
      edges[i].setAttribute('class','edge');
    }
  }
}
]]></script>
        <defs>
                <circle id="rim" cx="0" cy="0" r="7"/>
                <circle id="rim2" cx="0" cy="0" r="3.5"/>
                <g id="zoomPlus">
                        <use xlink:href="#rim" fill="#404040">
                                <set attributeName="fill" to="#808080" begin="zoomplus.mouseover" end="zoomplus.mouseout"/>
                        </use>
                        <path d="M-4,0h8M0,-4v8" fill="none" stroke="white" stroke-width="1.5" pointer-events="none"/>
                </g>
                <g id="zoomMin">
                        <use xlink:href="#rim" fill="#404040">
                                <set attributeName="fill" to="#808080" begin="zoomminus.mouseover" end="zoomminus.mouseout"/>
                        </use>
                        <path d="M-4,0h8" fill="none" stroke="white" stroke-width="1.5" pointer-events="none"/>
                </g>
                <g id="dirArrow">
                        <path fill="none" stroke="white" stroke-width="1.5" d="M0,-3.0v7 M-2.5,-0.5L0,-3.0L2.5,-0.5"/>
                </g>
               <g id="resetDef">
                       <use xlink:href="#rim2" fill="#404040">
                               <set attributeName="fill" to="#808080" begin="reset.mouseover" end="reset.mouseout"/>
                       </use>
               </g>
        </defs>

<script type="text/javascript">
var viewWidth = 2032;
var viewHeight = 326;
var sectionId = 'dynsection-18';
</script>
<script xlink:href="../../svgpan.js"/>
<svg id="graph" class="graph">
<g id="viewport">
<title>BoxWorld.loseGame</title>
<polygon fill="white" stroke="none" points="-4,4 -4,-322.004 2028,-322.004 2028,4 -4,4"/>
<!-- Node1 -->
<g id="node1" class="node"><title>Node1</title>
<polygon fill="#bfbfbf" stroke="black" points="0,-278.504 0,-297.504 112,-297.504 112,-278.504 0,-278.504"/>
<text text-anchor="middle" x="56" y="-285.504" font-family="Helvetica,sans-Serif" font-size="10.00">BoxWorld.loseGame</text>
</g>
<!-- Node2 -->
<g id="node2" class="node"><title>Node2</title>
<g id="a_node2"><a xlink:href="../../d4/d2f/class_lose_screen.html#a34f2cc2c803500316c9b8d854854d758" target="_top" xlink:title="LoseScreen.init">
<polygon fill="white" stroke="black" points="148,-257.504 148,-276.504 238,-276.504 238,-257.504 148,-257.504"/>
<text text-anchor="middle" x="193" y="-264.504" font-family="Helvetica,sans-Serif" font-size="10.00">LoseScreen.init</text>
</a>
</g>
</g>
<!-- Node1&#45;&gt;Node2 -->
<g id="edge1" class="edge"><title>Node1&#45;&gt;Node2</title>
<path fill="none" stroke="midnightblue" d="M112.299,-279.402C120.686,-278.097 129.332,-276.752 137.697,-275.451"/>
<polygon fill="midnightblue" stroke="midnightblue" points="138.381,-278.887 147.724,-273.891 137.305,-271.97 138.381,-278.887"/>
</g>
<!-- Node3 -->
<g id="node3" class="node"><title>Node3</title>
<g id="a_node3"><a xlink:href="../../d2/db8/class_menu.html#a3c99ad09e9f2f975c1a0d0597642651a" target="_top" xlink:title="Menu.init">
<polygon fill="white" stroke="black" points="274,-255.504 274,-274.504 334,-274.504 334,-255.504 274,-255.504"/>
<text text-anchor="middle" x="304" y="-262.504" font-family="Helvetica,sans-Serif" font-size="10.00">Menu.init</text>
</a>
</g>
</g>
<!-- Node2&#45;&gt;Node3 -->
<g id="edge2" class="edge"><title>Node2&#45;&gt;Node3</title>
<path fill="none" stroke="midnightblue" d="M238.02,-266.196C246.495,-266.041 255.322,-265.879 263.637,-265.726"/>
<polygon fill="midnightblue" stroke="midnightblue" points="263.898,-269.222 273.833,-265.539 263.77,-262.223 263.898,-269.222"/>
</g>
<!-- Node4 -->
<g id="node4" class="node"><title>Node4</title>
<g id="a_node4"><a xlink:href="../../d2/db8/class_menu.html#a8a6e6125f0dc2dc7e19c6655ba6376a2" target="_top" xlink:title="Menu.addIntroText">
<polygon fill="white" stroke="black" points="370,-255.504 370,-274.504 474,-274.504 474,-255.504 370,-255.504"/>
<text text-anchor="middle" x="422" y="-262.504" font-family="Helvetica,sans-Serif" font-size="10.00">Menu.addIntroText</text>
</a>
</g>
</g>
<!-- Node3&#45;&gt;Node4 -->
<g id="edge3" class="edge"><title>Node3&#45;&gt;Node4</title>
<path fill="none" stroke="midnightblue" d="M334.272,-265.004C341.99,-265.004 350.617,-265.004 359.354,-265.004"/>
<polygon fill="midnightblue" stroke="midnightblue" points="359.614,-268.504 369.614,-265.004 359.614,-261.504 359.614,-268.504"/>
</g>
<!-- Node5 -->
<g id="node5" class="node"><title>Node5</title>
<g id="a_node5"><a xlink:href="../../db/d97/class_box_world.html#a55bf92d3f466bfaade0f6d199d8c9bd9" target="_top" xlink:title="BoxWorld.init">
<polygon fill="white" stroke="black" points="383.5,-208.504 383.5,-227.504 460.5,-227.504 460.5,-208.504 383.5,-208.504"/>
<text text-anchor="middle" x="422" y="-215.504" font-family="Helvetica,sans-Serif" font-size="10.00">BoxWorld.init</text>
</a>
</g>
</g>
<!-- Node3&#45;&gt;Node5 -->
<g id="edge4" class="edge"><title>Node3&#45;&gt;Node5</title>
<path fill="none" stroke="midnightblue" d="M328.474,-255.493C345.5,-248.595 368.765,-239.168 387.707,-231.493"/>
<polygon fill="midnightblue" stroke="midnightblue" points="389.209,-234.661 397.162,-227.662 386.58,-228.174 389.209,-234.661"/>
</g>
<!-- Node6 -->
<g id="node6" class="node"><title>Node6</title>
<g id="a_node6"><a xlink:href="../../db/d97/class_box_world.html#a69798621c944e846f045aaf3937505f9" target="_top" xlink:title="BoxWorld.addStarterObjects">
<polygon fill="white" stroke="black" points="1132.5,-260.504 1132.5,-279.504 1283.5,-279.504 1283.5,-260.504 1132.5,-260.504"/>
<text text-anchor="middle" x="1208" y="-267.504" font-family="Helvetica,sans-Serif" font-size="10.00">BoxWorld.addStarterObjects</text>
</a>
</g>
</g>
<!-- Node5&#45;&gt;Node6 -->
<g id="edge5" class="edge"><title>Node5&#45;&gt;Node6</title>
<path fill="none" stroke="midnightblue" d="M458.323,-227.542C517.12,-242.554 638.992,-270.004 744,-270.004 744,-270.004 744,-270.004 909,-270.004 980.893,-270.004 1062.54,-270.004 1122.17,-270.004"/>
<polygon fill="midnightblue" stroke="midnightblue" points="1122.29,-273.504 1132.29,-270.004 1122.29,-266.504 1122.29,-273.504"/>
</g>
<!-- Node8 -->
<g id="node8" class="node"><title>Node8</title>
<g id="a_node8"><a xlink:href="../../db/d97/class_box_world.html#a726e747e023543658d7a345cc6466ccb" target="_top" xlink:title="BoxWorld.createScene">
<polygon fill="white" stroke="black" points="510,-203.504 510,-222.504 634,-222.504 634,-203.504 510,-203.504"/>
<text text-anchor="middle" x="572" y="-210.504" font-family="Helvetica,sans-Serif" font-size="10.00">BoxWorld.createScene</text>
</a>
</g>
</g>
<!-- Node5&#45;&gt;Node8 -->
<g id="edge7" class="edge"><title>Node5&#45;&gt;Node8</title>
<path fill="none" stroke="midnightblue" d="M460.73,-216.729C472.604,-216.328 486.135,-215.871 499.553,-215.418"/>
<polygon fill="midnightblue" stroke="midnightblue" points="499.887,-218.909 509.763,-215.073 499.65,-211.913 499.887,-218.909"/>
</g>
<!-- Node23 -->
<g id="node23" class="node"><title>Node23</title>
<g id="a_node23"><a xlink:href="../../db/d97/class_box_world.html#ad20a4e43406c44f4bbf201d1d1028998" target="_top" xlink:title="BoxWorld.start">
<polygon fill="white" stroke="black" points="1165,-108.504 1165,-127.504 1251,-127.504 1251,-108.504 1165,-108.504"/>
<text text-anchor="middle" x="1208" y="-115.504" font-family="Helvetica,sans-Serif" font-size="10.00">BoxWorld.start</text>
</a>
</g>
</g>
<!-- Node5&#45;&gt;Node23 -->
<g id="edge41" class="edge"><title>Node5&#45;&gt;Node23</title>
<path fill="none" stroke="midnightblue" d="M440.499,-208.416C487.868,-183.386 623.172,-118.004 744,-118.004 744,-118.004 744,-118.004 909,-118.004 994.898,-118.004 1094.72,-118.004 1154.28,-118.004"/>
<polygon fill="midnightblue" stroke="midnightblue" points="1154.56,-121.504 1164.56,-118.004 1154.56,-114.504 1154.56,-121.504"/>
</g>
<!-- Node7 -->
<g id="node7" class="node"><title>Node7</title>
<g id="a_node7"><a xlink:href="../../db/d97/class_box_world.html#a2542cc74ebeba6a9768a443a55186901" target="_top" xlink:title="BoxWorld.createObstacleArray">
<polygon fill="white" stroke="black" points="1320.5,-260.504 1320.5,-279.504 1481.5,-279.504 1481.5,-260.504 1320.5,-260.504"/>
<text text-anchor="middle" x="1401" y="-267.504" font-family="Helvetica,sans-Serif" font-size="10.00">BoxWorld.createObstacleArray</text>
</a>
</g>
</g>
<!-- Node6&#45;&gt;Node7 -->
<g id="edge6" class="edge"><title>Node6&#45;&gt;Node7</title>
<path fill="none" stroke="midnightblue" d="M1283.67,-270.004C1292.41,-270.004 1301.4,-270.004 1310.31,-270.004"/>
<polygon fill="midnightblue" stroke="midnightblue" points="1310.34,-273.504 1320.34,-270.004 1310.34,-266.504 1310.34,-273.504"/>
</g>
<!-- Node9 -->
<g id="node9" class="node"><title>Node9</title>
<g id="a_node9"><a xlink:href="../../db/d97/class_box_world.html#aa7e2049d7be23e15fd2ec7fa2922ed79" target="_top" xlink:title="BoxWorld.handleKeyInput">
<polygon fill="white" stroke="black" points="677,-70.5041 677,-89.5041 813,-89.5041 813,-70.5041 677,-70.5041"/>
<text text-anchor="middle" x="745" y="-77.5041" font-family="Helvetica,sans-Serif" font-size="10.00">BoxWorld.handleKeyInput</text>
</a>
</g>
</g>
<!-- Node8&#45;&gt;Node9 -->
<g id="edge8" class="edge"><title>Node8&#45;&gt;Node9</title>
<path fill="none" stroke="midnightblue" d="M585.298,-203.439C614.243,-180.926 686.94,-124.384 723.018,-96.3236"/>
<polygon fill="midnightblue" stroke="midnightblue" points="725.607,-98.7434 731.352,-89.8413 721.31,-93.218 725.607,-98.7434"/>
</g>
<!-- Node30 -->
<g id="node30" class="node"><title>Node30</title>
<g id="a_node30"><a xlink:href="../../db/d97/class_box_world.html#a2d44485a181577acb4d79b6b81f26fff" target="_top" xlink:title="BoxWorld.handleKeyRelease">
<polygon fill="white" stroke="black" points="670.5,-222.504 670.5,-241.504 819.5,-241.504 819.5,-222.504 670.5,-222.504"/>
<text text-anchor="middle" x="745" y="-229.504" font-family="Helvetica,sans-Serif" font-size="10.00">BoxWorld.handleKeyRelease</text>
</a>
</g>
</g>
<!-- Node8&#45;&gt;Node30 -->
<g id="edge40" class="edge"><title>Node8&#45;&gt;Node30</title>
<path fill="none" stroke="midnightblue" d="M634.252,-219.81C642.655,-220.744 651.399,-221.715 660.121,-222.684"/>
<polygon fill="midnightblue" stroke="midnightblue" points="660.002,-226.192 670.327,-223.818 660.775,-219.235 660.002,-226.192"/>
</g>
<!-- Node10 -->
<g id="node10" class="node"><title>Node10</title>
<g id="a_node10"><a xlink:href="../../db/d97/class_box_world.html#adc4c9d78ffde3d052c4c92047eb98e55" target="_top" xlink:title="BoxWorld.allowMovement">
<polygon fill="white" stroke="black" points="1718.5,-70.5041 1718.5,-89.5041 1855.5,-89.5041 1855.5,-70.5041 1718.5,-70.5041"/>
<text text-anchor="middle" x="1787" y="-77.5041" font-family="Helvetica,sans-Serif" font-size="10.00">BoxWorld.allowMovement</text>
</a>
</g>
</g>
<!-- Node9&#45;&gt;Node10 -->
<g id="edge9" class="edge"><title>Node9&#45;&gt;Node10</title>
<path fill="none" stroke="midnightblue" d="M768.016,-70.3786C816.862,-49.9281 938.415,-4.00405 1045,-4.00405 1045,-4.00405 1045,-4.00405 1402,-4.00405 1526.73,-4.00405 1562.29,12.0122 1682,-23.0041 1712.68,-31.9765 1744.39,-51.0249 1764.6,-64.6312"/>
<polygon fill="midnightblue" stroke="midnightblue" points="1762.81,-67.6504 1773.03,-70.444 1766.79,-61.887 1762.81,-67.6504"/>
</g>
<!-- Node15 -->
<g id="node15" class="node"><title>Node15</title>
<g id="a_node15"><a xlink:href="../../db/d97/class_box_world.html#a04c6bf977c4292a5433649fb3745fd6b" target="_top" xlink:title="BoxWorld.reset">
<polygon fill="white" stroke="black" points="1357,-70.5041 1357,-89.5041 1445,-89.5041 1445,-70.5041 1357,-70.5041"/>
<text text-anchor="middle" x="1401" y="-77.5041" font-family="Helvetica,sans-Serif" font-size="10.00">BoxWorld.reset</text>
</a>
</g>
</g>
<!-- Node9&#45;&gt;Node15 -->
<g id="edge14" class="edge"><title>Node9&#45;&gt;Node15</title>
<path fill="none" stroke="midnightblue" d="M813.221,-80.0041C943.58,-80.0041 1228.3,-80.0041 1346.7,-80.0041"/>
<polygon fill="midnightblue" stroke="midnightblue" points="1346.96,-83.5041 1356.96,-80.0041 1346.96,-76.5041 1346.96,-83.5041"/>
</g>
<!-- Node16 -->
<g id="node16" class="node"><title>Node16</title>
<g id="a_node16"><a xlink:href="../../da/de2/class_sticky_box.html#aa1bb8f78f676b01c688d75d386758444" target="_top" xlink:title="StickyBox.setDirection">
<polygon fill="white" stroke="black" points="1538,-32.5041 1538,-51.5041 1662,-51.5041 1662,-32.5041 1538,-32.5041"/>
<text text-anchor="middle" x="1600" y="-39.5041" font-family="Helvetica,sans-Serif" font-size="10.00">StickyBox.setDirection</text>
</a>
</g>
</g>
<!-- Node9&#45;&gt;Node16 -->
<g id="edge17" class="edge"><title>Node9&#45;&gt;Node16</title>
<path fill="none" stroke="midnightblue" d="M792.124,-70.4641C850.66,-59.2078 954.866,-42.0041 1045,-42.0041 1045,-42.0041 1045,-42.0041 1209,-42.0041 1320.29,-42.0041 1449.45,-42.0041 1527.65,-42.0041"/>
<polygon fill="midnightblue" stroke="midnightblue" points="1527.87,-45.5041 1537.87,-42.0041 1527.87,-38.5041 1527.87,-45.5041"/>
</g>
<!-- Node18 -->
<g id="node18" class="node"><title>Node18</title>
<g id="a_node18"><a xlink:href="../../db/d97/class_box_world.html#aad670712776afe126e51791097027e05" target="_top" xlink:title="BoxWorld.winLevel">
<polygon fill="white" stroke="black" points="856.5,-146.504 856.5,-165.504 959.5,-165.504 959.5,-146.504 856.5,-146.504"/>
<text text-anchor="middle" x="908" y="-153.504" font-family="Helvetica,sans-Serif" font-size="10.00">BoxWorld.winLevel</text>
</a>
</g>
</g>
<!-- Node9&#45;&gt;Node18 -->
<g id="edge18" class="edge"><title>Node9&#45;&gt;Node18</title>
<path fill="none" stroke="midnightblue" d="M766.391,-89.6295C794.456,-102.878 845.17,-126.817 877.408,-142.035"/>
<polygon fill="midnightblue" stroke="midnightblue" points="876.238,-145.353 886.775,-146.457 879.226,-139.023 876.238,-145.353"/>
</g>
<!-- Node11 -->
<g id="node11" class="node"><title>Node11</title>
<g id="a_node11"><a xlink:href="../../da/de2/class_sticky_box.html#a6ba3f89630df9d81df5644a3e5f4e387" target="_top" xlink:title="StickyBox.getXDirection">
<polygon fill="white" stroke="black" points="1892.5,-222.504 1892.5,-241.504 2023.5,-241.504 2023.5,-222.504 1892.5,-222.504"/>
<text text-anchor="middle" x="1958" y="-229.504" font-family="Helvetica,sans-Serif" font-size="10.00">StickyBox.getXDirection</text>
</a>
</g>
</g>
<!-- Node10&#45;&gt;Node11 -->
<g id="edge10" class="edge"><title>Node10&#45;&gt;Node11</title>
<path fill="none" stroke="midnightblue" d="M1798.57,-89.5123C1826.67,-114.784 1903.46,-183.851 1938.78,-215.62"/>
<polygon fill="midnightblue" stroke="midnightblue" points="1936.66,-218.414 1946.43,-222.499 1941.34,-213.21 1936.66,-218.414"/>
</g>
<!-- Node12 -->
<g id="node12" class="node"><title>Node12</title>
<g id="a_node12"><a xlink:href="../../da/de2/class_sticky_box.html#ab0bd7cafb7f243e3951558ddb8728b96" target="_top" xlink:title="StickyBox.getXPrev">
<polygon fill="white" stroke="black" points="1903.5,-32.5041 1903.5,-51.5041 2012.5,-51.5041 2012.5,-32.5041 1903.5,-32.5041"/>
<text text-anchor="middle" x="1958" y="-39.5041" font-family="Helvetica,sans-Serif" font-size="10.00">StickyBox.getXPrev</text>
</a>
</g>
</g>
<!-- Node10&#45;&gt;Node12 -->
<g id="edge11" class="edge"><title>Node10&#45;&gt;Node12</title>
<path fill="none" stroke="midnightblue" d="M1830.65,-70.415C1853.15,-65.3554 1880.95,-59.1045 1904.74,-53.7553"/>
<polygon fill="midnightblue" stroke="midnightblue" points="1905.67,-57.1327 1914.66,-51.5241 1904.14,-50.3032 1905.67,-57.1327"/>
</g>
<!-- Node13 -->
<g id="node13" class="node"><title>Node13</title>
<g id="a_node13"><a xlink:href="../../da/de2/class_sticky_box.html#a69e5ccf2a79159c03dea2e048df13318" target="_top" xlink:title="StickyBox.getYDirection">
<polygon fill="white" stroke="black" points="1893,-108.504 1893,-127.504 2023,-127.504 2023,-108.504 1893,-108.504"/>
<text text-anchor="middle" x="1958" y="-115.504" font-family="Helvetica,sans-Serif" font-size="10.00">StickyBox.getYDirection</text>
</a>
</g>
</g>
<!-- Node10&#45;&gt;Node13 -->
<g id="edge12" class="edge"><title>Node10&#45;&gt;Node13</title>
<path fill="none" stroke="midnightblue" d="M1830.65,-89.5931C1853.15,-94.6527 1880.95,-100.904 1904.74,-106.253"/>
<polygon fill="midnightblue" stroke="midnightblue" points="1904.14,-109.705 1914.66,-108.484 1905.67,-102.875 1904.14,-109.705"/>
</g>
<!-- Node14 -->
<g id="node14" class="node"><title>Node14</title>
<g id="a_node14"><a xlink:href="../../da/de2/class_sticky_box.html#a4c6abed944faed9d9b226079e99cfc24" target="_top" xlink:title="StickyBox.getYPrev">
<polygon fill="white" stroke="black" points="1904,-70.5041 1904,-89.5041 2012,-89.5041 2012,-70.5041 1904,-70.5041"/>
<text text-anchor="middle" x="1958" y="-77.5041" font-family="Helvetica,sans-Serif" font-size="10.00">StickyBox.getYPrev</text>
</a>
</g>
</g>
<!-- Node10&#45;&gt;Node14 -->
<g id="edge13" class="edge"><title>Node10&#45;&gt;Node14</title>
<path fill="none" stroke="midnightblue" d="M1855.76,-80.0041C1868.25,-80.0041 1881.24,-80.0041 1893.59,-80.0041"/>
<polygon fill="midnightblue" stroke="midnightblue" points="1893.78,-83.5041 1903.78,-80.0041 1893.78,-76.5041 1893.78,-83.5041"/>
</g>
<!-- Node15&#45;&gt;Node16 -->
<g id="edge15" class="edge"><title>Node15&#45;&gt;Node16</title>
<path fill="none" stroke="midnightblue" d="M1445.23,-71.6648C1472.91,-66.3258 1509.2,-59.3263 1539.57,-53.4677"/>
<polygon fill="midnightblue" stroke="midnightblue" points="1540.47,-56.8594 1549.62,-51.5287 1539.14,-49.9861 1540.47,-56.8594"/>
</g>
<!-- Node17 -->
<g id="node17" class="node"><title>Node17</title>
<g id="a_node17"><a xlink:href="../../da/de2/class_sticky_box.html#a5d95d2ed2e13f0d87a44311db77f9e36" target="_top" xlink:title="StickyBox.setPreviousDirection">
<polygon fill="white" stroke="black" points="1518,-70.5041 1518,-89.5041 1682,-89.5041 1682,-70.5041 1518,-70.5041"/>
<text text-anchor="middle" x="1600" y="-77.5041" font-family="Helvetica,sans-Serif" font-size="10.00">StickyBox.setPreviousDirection</text>
</a>
</g>
</g>
<!-- Node15&#45;&gt;Node17 -->
<g id="edge16" class="edge"><title>Node15&#45;&gt;Node17</title>
<path fill="none" stroke="midnightblue" d="M1445.23,-80.0041C1463.61,-80.0041 1485.79,-80.0041 1507.52,-80.0041"/>
<polygon fill="midnightblue" stroke="midnightblue" points="1507.78,-83.5041 1517.78,-80.0041 1507.78,-76.5041 1507.78,-83.5041"/>
</g>
<!-- Node19 -->
<g id="node19" class="node"><title>Node19</title>
<g id="a_node19"><a xlink:href="../../d6/d4f/class_item_box_world.html#aa559fc2680327b41fb376e2eda8e82e3" target="_top" xlink:title="ItemBoxWorld.init">
<polygon fill="white" stroke="black" points="996.5,-184.504 996.5,-203.504 1095.5,-203.504 1095.5,-184.504 996.5,-184.504"/>
<text text-anchor="middle" x="1046" y="-191.504" font-family="Helvetica,sans-Serif" font-size="10.00">ItemBoxWorld.init</text>
</a>
</g>
</g>
<!-- Node18&#45;&gt;Node19 -->
<g id="edge19" class="edge"><title>Node18&#45;&gt;Node19</title>
<path fill="none" stroke="midnightblue" d="M943.319,-165.593C960.794,-170.476 982.241,-176.468 1000.93,-181.689"/>
<polygon fill="midnightblue" stroke="midnightblue" points="1000.12,-185.098 1010.69,-184.418 1002,-178.356 1000.12,-185.098"/>
</g>
<!-- Node19&#45;&gt;Node6 -->
<g id="edge20" class="edge"><title>Node19&#45;&gt;Node6</title>
<path fill="none" stroke="midnightblue" d="M1067.26,-203.63C1095.16,-216.878 1145.55,-240.817 1177.59,-256.035"/>
<polygon fill="midnightblue" stroke="midnightblue" points="1176.37,-259.328 1186.9,-260.457 1179.37,-253.005 1176.37,-259.328"/>
</g>
<!-- Node19&#45;&gt;Node8 -->
<g id="edge39" class="edge"><title>Node19&#45;&gt;Node8</title>
<path fill="none" stroke="midnightblue" d="M996.411,-195.96C912.803,-199.326 741.376,-206.226 644.247,-210.136"/>
<polygon fill="midnightblue" stroke="midnightblue" points="644.073,-206.64 634.222,-210.54 644.355,-213.634 644.073,-206.64"/>
</g>
<!-- Node20 -->
<g id="node20" class="node"><title>Node20</title>
<g id="a_node20"><a xlink:href="../../d6/d4f/class_item_box_world.html#a7ead15fd9fd8095f928640161d48fdf8" target="_top" xlink:title="ItemBoxWorld.addAllItems">
<polygon fill="white" stroke="black" points="1137.5,-184.504 1137.5,-203.504 1278.5,-203.504 1278.5,-184.504 1137.5,-184.504"/>
<text text-anchor="middle" x="1208" y="-191.504" font-family="Helvetica,sans-Serif" font-size="10.00">ItemBoxWorld.addAllItems</text>
</a>
</g>
</g>
<!-- Node19&#45;&gt;Node20 -->
<g id="edge21" class="edge"><title>Node19&#45;&gt;Node20</title>
<path fill="none" stroke="midnightblue" d="M1095.87,-194.004C1105.76,-194.004 1116.41,-194.004 1127.05,-194.004"/>
<polygon fill="midnightblue" stroke="midnightblue" points="1127.22,-197.504 1137.22,-194.004 1127.22,-190.504 1127.22,-197.504"/>
</g>
<!-- Node19&#45;&gt;Node23 -->
<g id="edge24" class="edge"><title>Node19&#45;&gt;Node23</title>
<path fill="none" stroke="midnightblue" d="M1067.26,-184.379C1095.16,-171.13 1145.55,-147.191 1177.59,-131.973"/>
<polygon fill="midnightblue" stroke="midnightblue" points="1179.37,-135.003 1186.9,-127.551 1176.37,-128.68 1179.37,-135.003"/>
</g>
<!-- Node21 -->
<g id="node21" class="node"><title>Node21</title>
<g id="a_node21"><a xlink:href="../../d6/d4f/class_item_box_world.html#a1890e6c53a4a73e44e9528009fde508d" target="_top" xlink:title="ItemBoxWorld.itemExists">
<polygon fill="white" stroke="black" points="1334,-222.504 1334,-241.504 1468,-241.504 1468,-222.504 1334,-222.504"/>
<text text-anchor="middle" x="1401" y="-229.504" font-family="Helvetica,sans-Serif" font-size="10.00">ItemBoxWorld.itemExists</text>
</a>
</g>
</g>
<!-- Node20&#45;&gt;Node21 -->
<g id="edge22" class="edge"><title>Node20&#45;&gt;Node21</title>
<path fill="none" stroke="midnightblue" d="M1257.2,-203.593C1282.97,-208.721 1314.89,-215.071 1342.01,-220.467"/>
<polygon fill="midnightblue" stroke="midnightblue" points="1341.66,-223.965 1352.15,-222.484 1343.02,-217.1 1341.66,-223.965"/>
</g>
<!-- Node22 -->
<g id="node22" class="node"><title>Node22</title>
<g id="a_node22"><a xlink:href="../../d6/d4f/class_item_box_world.html#af1bcde0672796e926560684004ed8e81" target="_top" xlink:title="ItemBoxWorld.addSingleItem">
<polygon fill="white" stroke="black" points="1324,-184.504 1324,-203.504 1478,-203.504 1478,-184.504 1324,-184.504"/>
<text text-anchor="middle" x="1401" y="-191.504" font-family="Helvetica,sans-Serif" font-size="10.00">ItemBoxWorld.addSingleItem</text>
</a>
</g>
</g>
<!-- Node20&#45;&gt;Node22 -->
<g id="edge23" class="edge"><title>Node20&#45;&gt;Node22</title>
<path fill="none" stroke="midnightblue" d="M1278.77,-194.004C1290.14,-194.004 1302.04,-194.004 1313.75,-194.004"/>
<polygon fill="midnightblue" stroke="midnightblue" points="1313.98,-197.504 1323.98,-194.004 1313.98,-190.504 1313.98,-197.504"/>
</g>
<!-- Node24 -->
<g id="node24" class="node"><title>Node24</title>
<g id="a_node24"><a xlink:href="../../db/d97/class_box_world.html#a6794c083c2a0263c2f585f4ae4b7e39c" target="_top" xlink:title="BoxWorld.updateSprites">
<polygon fill="white" stroke="black" points="1335.5,-108.504 1335.5,-127.504 1466.5,-127.504 1466.5,-108.504 1335.5,-108.504"/>
<text text-anchor="middle" x="1401" y="-115.504" font-family="Helvetica,sans-Serif" font-size="10.00">BoxWorld.updateSprites</text>
</a>
</g>
</g>
<!-- Node23&#45;&gt;Node24 -->
<g id="edge25" class="edge"><title>Node23&#45;&gt;Node24</title>
<path fill="none" stroke="midnightblue" d="M1251.39,-118.004C1273.03,-118.004 1300,-118.004 1325,-118.004"/>
<polygon fill="midnightblue" stroke="midnightblue" points="1325.2,-121.504 1335.2,-118.004 1325.2,-114.504 1325.2,-121.504"/>
</g>
<!-- Node24&#45;&gt;Node11 -->
<g id="edge35" class="edge"><title>Node24&#45;&gt;Node11</title>
<path fill="none" stroke="midnightblue" d="M1455.83,-127.589C1465.25,-131.02 1474.44,-135.678 1482,-142.004 1509.14,-164.702 1488.26,-193.841 1518,-213.004 1576.24,-250.531 1772.84,-244.37 1882.14,-237.625"/>
<polygon fill="midnightblue" stroke="midnightblue" points="1882.68,-241.098 1892.44,-236.972 1882.24,-234.112 1882.68,-241.098"/>
</g>
<!-- Node24&#45;&gt;Node13 -->
<g id="edge36" class="edge"><title>Node24&#45;&gt;Node13</title>
<path fill="none" stroke="midnightblue" d="M1466.75,-118.004C1570.35,-118.004 1772.82,-118.004 1882.36,-118.004"/>
<polygon fill="midnightblue" stroke="midnightblue" points="1882.66,-121.504 1892.66,-118.004 1882.66,-114.504 1882.66,-121.504"/>
</g>
<!-- Node24&#45;&gt;Node16 -->
<g id="edge37" class="edge"><title>Node24&#45;&gt;Node16</title>
<path fill="none" stroke="midnightblue" d="M1460.35,-108.373C1467.9,-105.924 1475.32,-102.853 1482,-99.0041 1502.16,-87.3879 1497.83,-72.5922 1518,-61.0041 1521.91,-58.758 1526.07,-56.7771 1530.36,-55.0302"/>
<polygon fill="midnightblue" stroke="midnightblue" points="1531.71,-58.2637 1539.92,-51.5676 1529.33,-51.682 1531.71,-58.2637"/>
</g>
<!-- Node24&#45;&gt;Node17 -->
<g id="edge34" class="edge"><title>Node24&#45;&gt;Node17</title>
<path fill="none" stroke="midnightblue" d="M1451.46,-108.464C1478.15,-103.314 1511.3,-96.92 1539.42,-91.4976"/>
<polygon fill="midnightblue" stroke="midnightblue" points="1540.37,-94.8787 1549.52,-89.5479 1539.04,-88.0054 1540.37,-94.8787"/>
</g>
<!-- Node25 -->
<g id="node25" class="node"><title>Node25</title>
<g id="a_node25"><a xlink:href="../../db/d97/class_box_world.html#a4079bed8937c9f621decfbe1309e31e2" target="_top" xlink:title="BoxWorld.checkAllCollisions">
<polygon fill="white" stroke="black" points="1527,-260.504 1527,-279.504 1673,-279.504 1673,-260.504 1527,-260.504"/>
<text text-anchor="middle" x="1600" y="-267.504" font-family="Helvetica,sans-Serif" font-size="10.00">BoxWorld.checkAllCollisions</text>
</a>
</g>
</g>
<!-- Node24&#45;&gt;Node25 -->
<g id="edge26" class="edge"><title>Node24&#45;&gt;Node25</title>
<path fill="none" stroke="midnightblue" d="M1458.61,-127.577C1467.21,-131.016 1475.41,-135.681 1482,-142.004 1517.3,-175.861 1482.64,-212.207 1518,-246.004 1522.11,-249.931 1526.83,-253.219 1531.88,-255.972"/>
<polygon fill="midnightblue" stroke="midnightblue" points="1530.74,-259.3 1541.28,-260.37 1533.7,-252.96 1530.74,-259.3"/>
</g>
<!-- Node28 -->
<g id="node28" class="node"><title>Node28</title>
<g id="a_node28"><a xlink:href="../../da/de2/class_sticky_box.html#a59337f0aa3c7379a2cb9c76bdc621daf" target="_top" xlink:title="StickyBox.setStuck">
<polygon fill="white" stroke="black" points="1546,-184.504 1546,-203.504 1654,-203.504 1654,-184.504 1546,-184.504"/>
<text text-anchor="middle" x="1600" y="-191.504" font-family="Helvetica,sans-Serif" font-size="10.00">StickyBox.setStuck</text>
</a>
</g>
</g>
<!-- Node24&#45;&gt;Node28 -->
<g id="edge33" class="edge"><title>Node24&#45;&gt;Node28</title>
<path fill="none" stroke="midnightblue" d="M1446.64,-127.548C1458.57,-131.114 1471.16,-135.843 1482,-142.004 1500.87,-152.727 1498.81,-164.862 1518,-175.004 1523.62,-177.972 1529.69,-180.48 1535.9,-182.6"/>
<polygon fill="midnightblue" stroke="midnightblue" points="1535.14,-186.028 1545.73,-185.621 1537.2,-179.337 1535.14,-186.028"/>
</g>
<!-- Node29 -->
<g id="node29" class="node"><title>Node29</title>
<g id="a_node29"><a xlink:href="../../da/de2/class_sticky_box.html#a185ee469367b376e6c5969a03d089d57" target="_top" xlink:title="StickyBox.move">
<polygon fill="white" stroke="black" points="1553.5,-146.504 1553.5,-165.504 1646.5,-165.504 1646.5,-146.504 1553.5,-146.504"/>
<text text-anchor="middle" x="1600" y="-153.504" font-family="Helvetica,sans-Serif" font-size="10.00">StickyBox.move</text>
</a>
</g>
</g>
<!-- Node24&#45;&gt;Node29 -->
<g id="edge38" class="edge"><title>Node24&#45;&gt;Node29</title>
<path fill="none" stroke="midnightblue" d="M1451.46,-127.544C1479.39,-132.933 1514.39,-139.684 1543.29,-145.259"/>
<polygon fill="midnightblue" stroke="midnightblue" points="1542.76,-148.72 1553.24,-147.177 1544.08,-141.847 1542.76,-148.72"/>
</g>
<!-- Node25&#45;&gt;Node1 -->
<g id="edge30" class="edge"><title>Node25&#45;&gt;Node1</title>
<path fill="none" stroke="midnightblue" d="M1546.72,-279.542C1526.56,-282.946 1503.26,-286.543 1482,-289.004 1361.18,-302.989 1330.63,-308.004 1209,-308.004 303,-308.004 303,-308.004 303,-308.004 241.594,-308.004 171.849,-301.737 122.344,-296.219"/>
<polygon fill="midnightblue" stroke="midnightblue" points="122.428,-292.706 112.097,-295.055 121.639,-299.661 122.428,-292.706"/>
</g>
<!-- Node25&#45;&gt;Node18 -->
<g id="edge32" class="edge"><title>Node25&#45;&gt;Node18</title>
<path fill="none" stroke="midnightblue" d="M1554.3,-260.403C1541.55,-256.058 1528.33,-249.84 1518,-241.004 1492.61,-219.284 1510.45,-192.534 1482,-175.004 1397.85,-123.144 1099.35,-140.319 969.771,-150.624"/>
<polygon fill="midnightblue" stroke="midnightblue" points="969.308,-147.15 959.623,-151.444 969.872,-154.127 969.308,-147.15"/>
</g>
<!-- Node26 -->
<g id="node26" class="node"><title>Node26</title>
<g id="a_node26"><a xlink:href="../../db/d97/class_box_world.html#a55add11037cd6dc48556f2f42a9e11be" target="_top" xlink:title="BoxWorld.checkCollide">
<polygon fill="white" stroke="black" points="1726,-260.504 1726,-279.504 1848,-279.504 1848,-260.504 1726,-260.504"/>
<text text-anchor="middle" x="1787" y="-267.504" font-family="Helvetica,sans-Serif" font-size="10.00">BoxWorld.checkCollide</text>
</a>
</g>
</g>
<!-- Node25&#45;&gt;Node26 -->
<g id="edge27" class="edge"><title>Node25&#45;&gt;Node26</title>
<path fill="none" stroke="midnightblue" d="M1673.06,-270.004C1687.1,-270.004 1701.8,-270.004 1715.78,-270.004"/>
<polygon fill="midnightblue" stroke="midnightblue" points="1715.82,-273.504 1725.82,-270.004 1715.82,-266.504 1715.82,-273.504"/>
</g>
<!-- Node27 -->
<g id="node27" class="node"><title>Node27</title>
<g id="a_node27"><a xlink:href="../../db/d97/class_box_world.html#ae6ffad41f7ba6122234157c72afe8f9c" target="_top" xlink:title="BoxWorld.onScreen">
<polygon fill="white" stroke="black" points="1732.5,-298.504 1732.5,-317.504 1841.5,-317.504 1841.5,-298.504 1732.5,-298.504"/>
<text text-anchor="middle" x="1787" y="-305.504" font-family="Helvetica,sans-Serif" font-size="10.00">BoxWorld.onScreen</text>
</a>
</g>
</g>
<!-- Node25&#45;&gt;Node27 -->
<g id="edge31" class="edge"><title>Node25&#45;&gt;Node27</title>
<path fill="none" stroke="midnightblue" d="M1647.68,-279.593C1672.65,-284.721 1703.56,-291.071 1729.83,-296.467"/>
<polygon fill="midnightblue" stroke="midnightblue" points="1729.15,-299.9 1739.65,-298.484 1730.56,-293.043 1729.15,-299.9"/>
</g>
<!-- Node26&#45;&gt;Node11 -->
<g id="edge28" class="edge"><title>Node26&#45;&gt;Node11</title>
<path fill="none" stroke="midnightblue" d="M1830.65,-260.415C1853.15,-255.355 1880.95,-249.104 1904.74,-243.755"/>
<polygon fill="midnightblue" stroke="midnightblue" points="1905.67,-247.133 1914.66,-241.524 1904.14,-240.303 1905.67,-247.133"/>
</g>
<!-- Node26&#45;&gt;Node13 -->
<g id="edge29" class="edge"><title>Node26&#45;&gt;Node13</title>
<path fill="none" stroke="midnightblue" d="M1798.57,-260.496C1826.67,-235.225 1903.46,-166.157 1938.78,-134.388"/>
<polygon fill="midnightblue" stroke="midnightblue" points="1941.34,-136.798 1946.43,-127.509 1936.66,-131.594 1941.34,-136.798"/>
</g>
</g>
</svg>
        <g id="navigator" transform="translate(0 0)" fill="#404254">
                <rect fill="#f2f5e9" fill-opacity="0.5" stroke="#606060" stroke-width=".5" x="0" y="0" width="60" height="60"/>
                <use id="zoomplus" xlink:href="#zoomPlus" x="17" y="9" onmousedown="handleZoom(evt,'in')"/>
                <use id="zoomminus" xlink:href="#zoomMin" x="42" y="9" onmousedown="handleZoom(evt,'out')"/>
                <use id="reset" xlink:href="#resetDef" x="30" y="36" onmousedown="handleReset()"/>
                <g id="arrowUp" xlink:href="#dirArrow" transform="translate(30 24)" onmousedown="handlePan(0,-1)">
                  <use xlink:href="#rim" fill="#404040">
                        <set attributeName="fill" to="#808080" begin="arrowUp.mouseover" end="arrowUp.mouseout"/>
                  </use>
                  <path fill="none" stroke="white" stroke-width="1.5" d="M0,-3.0v7 M-2.5,-0.5L0,-3.0L2.5,-0.5"/>
                </g>
                <g id="arrowRight" xlink:href="#dirArrow" transform="rotate(90) translate(36 -43)" onmousedown="handlePan(1,0)">
                  <use xlink:href="#rim" fill="#404040">
                        <set attributeName="fill" to="#808080" begin="arrowRight.mouseover" end="arrowRight.mouseout"/>
                  </use>
                  <path fill="none" stroke="white" stroke-width="1.5" d="M0,-3.0v7 M-2.5,-0.5L0,-3.0L2.5,-0.5"/>
                </g>
                <g id="arrowDown" xlink:href="#dirArrow" transform="rotate(180) translate(-30 -48)" onmousedown="handlePan(0,1)">
                  <use xlink:href="#rim" fill="#404040">
                        <set attributeName="fill" to="#808080" begin="arrowDown.mouseover" end="arrowDown.mouseout"/>
                  </use>
                  <path fill="none" stroke="white" stroke-width="1.5" d="M0,-3.0v7 M-2.5,-0.5L0,-3.0L2.5,-0.5"/>
                </g>
                <g id="arrowLeft" xlink:href="#dirArrow" transform="rotate(270) translate(-36 17)" onmousedown="handlePan(-1,0)">
                  <use xlink:href="#rim" fill="#404040">
                        <set attributeName="fill" to="#808080" begin="arrowLeft.mouseover" end="arrowLeft.mouseout"/>
                  </use>
                  <path fill="none" stroke="white" stroke-width="1.5" d="M0,-3.0v7 M-2.5,-0.5L0,-3.0L2.5,-0.5"/>
                </g>
        </g>
        <svg viewBox="0 0 15 15" width="100%" height="30px" preserveAspectRatio="xMaxYMin meet">
         <g id="arrow_out" transform="scale(0.3 0.3)">
          <a xlink:href="class_box_world_a72bacb2a6757900d8835249929fcc838_cgraph_org.svg" target="_base">
           <rect id="button" ry="5" rx="5" y="6" x="6" height="38" width="38"
                fill="#f2f5e9" fill-opacity="0.5" stroke="#606060" stroke-width="1.0"/>
           <path id="arrow"
             d="M 11.500037,31.436501 C 11.940474,20.09759 22.043105,11.32322 32.158766,21.979434 L 37.068811,17.246167 C 37.068811,17.246167 37.088388,32 37.088388,32 L 22.160133,31.978069 C 22.160133,31.978069 26.997745,27.140456 26.997745,27.140456 C 18.528582,18.264221 13.291696,25.230495 11.500037,31.436501 z"
             style="fill:#404040;"/>
          </a>
         </g>
        </svg>
</svg>
