<?xml version="1.0" encoding="UTF-8" standalone="no"?>
<!DOCTYPE svg PUBLIC "-//W3C//DTD SVG 1.1//EN"
 "http://www.w3.org/Graphics/SVG/1.1/DTD/svg11.dtd">
<!-- Generated by graphviz version 2.36.0 (20140111.2315)
 -->
<!-- Title: BoxWorld.winLevel Pages: 1 -->
<svg width="2068pt" height="464pt"
 viewBox="0.00 0.00 2068.00 464.00" xmlns="http://www.w3.org/2000/svg" xmlns:xlink="http://www.w3.org/1999/xlink">
<g id="graph0" class="graph" transform="scale(1 1) rotate(0) translate(4 460)">
<title>BoxWorld.winLevel</title>
<polygon fill="white" stroke="none" points="-4,4 -4,-460 2064,-460 2064,4 -4,4"/>
<!-- Node1 -->
<g id="node1" class="node"><title>Node1</title>
<polygon fill="#bfbfbf" stroke="black" points="0.5,-123.5 0.5,-142.5 103.5,-142.5 103.5,-123.5 0.5,-123.5"/>
<text text-anchor="middle" x="52" y="-130.5" font-family="Helvetica,sans-Serif" font-size="10.00">BoxWorld.winLevel</text>
</g>
<!-- Node2 -->
<g id="node2" class="node"><title>Node2</title>
<g id="a_node2"><a xlink:href="../../d6/d4f/class_item_box_world.html#aa559fc2680327b41fb376e2eda8e82e3" target="_top" xlink:title="ItemBoxWorld.init">
<polygon fill="white" stroke="black" points="140.5,-123.5 140.5,-142.5 239.5,-142.5 239.5,-123.5 140.5,-123.5"/>
<text text-anchor="middle" x="190" y="-130.5" font-family="Helvetica,sans-Serif" font-size="10.00">ItemBoxWorld.init</text>
</a>
</g>
</g>
<!-- Node1&#45;&gt;Node2 -->
<g id="edge1" class="edge"><title>Node1&#45;&gt;Node2</title>
<path fill="none" stroke="midnightblue" d="M103.641,-133C112.218,-133 121.189,-133 129.958,-133"/>
<polygon fill="midnightblue" stroke="midnightblue" points="130.123,-136.5 140.123,-133 130.123,-129.5 130.123,-136.5"/>
</g>
<!-- Node3 -->
<g id="node3" class="node"><title>Node3</title>
<g id="a_node3"><a xlink:href="../../db/d97/class_box_world.html#a69798621c944e846f045aaf3937505f9" target="_top" xlink:title="BoxWorld.addStarterObjects">
<polygon fill="white" stroke="black" points="1336.5,-104.5 1336.5,-123.5 1487.5,-123.5 1487.5,-104.5 1336.5,-104.5"/>
<text text-anchor="middle" x="1412" y="-111.5" font-family="Helvetica,sans-Serif" font-size="10.00">BoxWorld.addStarterObjects</text>
</a>
</g>
</g>
<!-- Node2&#45;&gt;Node3 -->
<g id="edge2" class="edge"><title>Node2&#45;&gt;Node3</title>
<path fill="none" stroke="midnightblue" d="M204.455,-123.435C248.716,-92.9393 394.706,-0 530,-0 530,-0 530,-0 883,-0 1072.69,-1.42109e-14 1292.26,-71.1737 1376.06,-101.046"/>
<polygon fill="midnightblue" stroke="midnightblue" points="1375,-104.384 1385.6,-104.477 1377.37,-97.7978 1375,-104.384"/>
</g>
<!-- Node5 -->
<g id="node5" class="node"><title>Node5</title>
<g id="a_node5"><a xlink:href="../../d6/d4f/class_item_box_world.html#a7ead15fd9fd8095f928640161d48fdf8" target="_top" xlink:title="ItemBoxWorld.addAllItems">
<polygon fill="white" stroke="black" points="276.5,-104.5 276.5,-123.5 417.5,-123.5 417.5,-104.5 276.5,-104.5"/>
<text text-anchor="middle" x="347" y="-111.5" font-family="Helvetica,sans-Serif" font-size="10.00">ItemBoxWorld.addAllItems</text>
</a>
</g>
</g>
<!-- Node2&#45;&gt;Node5 -->
<g id="edge4" class="edge"><title>Node2&#45;&gt;Node5</title>
<path fill="none" stroke="midnightblue" d="M239.618,-127.04C248.068,-126.005 257.053,-124.903 266.081,-123.796"/>
<polygon fill="midnightblue" stroke="midnightblue" points="266.768,-127.239 276.268,-122.548 265.916,-120.291 266.768,-127.239"/>
</g>
<!-- Node8 -->
<g id="node8" class="node"><title>Node8</title>
<g id="a_node8"><a xlink:href="../../db/d97/class_box_world.html#ad20a4e43406c44f4bbf201d1d1028998" target="_top" xlink:title="BoxWorld.start">
<polygon fill="white" stroke="black" points="304,-142.5 304,-161.5 390,-161.5 390,-142.5 304,-142.5"/>
<text text-anchor="middle" x="347" y="-149.5" font-family="Helvetica,sans-Serif" font-size="10.00">BoxWorld.start</text>
</a>
</g>
</g>
<!-- Node2&#45;&gt;Node8 -->
<g id="edge7" class="edge"><title>Node2&#45;&gt;Node8</title>
<path fill="none" stroke="midnightblue" d="M239.618,-138.96C256.836,-141.07 276.274,-143.453 293.779,-145.599"/>
<polygon fill="midnightblue" stroke="midnightblue" points="293.48,-149.088 303.831,-146.831 294.331,-142.14 293.48,-149.088"/>
</g>
<!-- Node19 -->
<g id="node19" class="node"><title>Node19</title>
<g id="a_node19"><a xlink:href="../../db/d97/class_box_world.html#a726e747e023543658d7a345cc6466ccb" target="_top" xlink:title="BoxWorld.createScene">
<polygon fill="white" stroke="black" points="1350,-370.5 1350,-389.5 1474,-389.5 1474,-370.5 1350,-370.5"/>
<text text-anchor="middle" x="1412" y="-377.5" font-family="Helvetica,sans-Serif" font-size="10.00">BoxWorld.createScene</text>
</a>
</g>
</g>
<!-- Node2&#45;&gt;Node19 -->
<g id="edge41" class="edge"><title>Node2&#45;&gt;Node19</title>
<path fill="none" stroke="midnightblue" d="M196.165,-142.81C223.331,-192.925 355.076,-418 530,-418 530,-418 530,-418 883,-418 1046.71,-418 1238.24,-399.601 1339.61,-388.408"/>
<polygon fill="midnightblue" stroke="midnightblue" points="1340.17,-391.867 1349.73,-387.282 1339.4,-384.91 1340.17,-391.867"/>
</g>
<!-- Node4 -->
<g id="node4" class="node"><title>Node4</title>
<g id="a_node4"><a xlink:href="../../db/d97/class_box_world.html#a2542cc74ebeba6a9768a443a55186901" target="_top" xlink:title="BoxWorld.createObstacleArray">
<polygon fill="white" stroke="black" points="1524.5,-104.5 1524.5,-123.5 1685.5,-123.5 1685.5,-104.5 1524.5,-104.5"/>
<text text-anchor="middle" x="1605" y="-111.5" font-family="Helvetica,sans-Serif" font-size="10.00">BoxWorld.createObstacleArray</text>
</a>
</g>
</g>
<!-- Node3&#45;&gt;Node4 -->
<g id="edge3" class="edge"><title>Node3&#45;&gt;Node4</title>
<path fill="none" stroke="midnightblue" d="M1487.67,-114C1496.41,-114 1505.4,-114 1514.31,-114"/>
<polygon fill="midnightblue" stroke="midnightblue" points="1514.34,-117.5 1524.34,-114 1514.34,-110.5 1514.34,-117.5"/>
</g>
<!-- Node6 -->
<g id="node6" class="node"><title>Node6</title>
<g id="a_node6"><a xlink:href="../../d6/d4f/class_item_box_world.html#a1890e6c53a4a73e44e9528009fde508d" target="_top" xlink:title="ItemBoxWorld.itemExists">
<polygon fill="white" stroke="black" points="464,-66.5 464,-85.5 598,-85.5 598,-66.5 464,-66.5"/>
<text text-anchor="middle" x="531" y="-73.5" font-family="Helvetica,sans-Serif" font-size="10.00">ItemBoxWorld.itemExists</text>
</a>
</g>
</g>
<!-- Node5&#45;&gt;Node6 -->
<g id="edge5" class="edge"><title>Node5&#45;&gt;Node6</title>
<path fill="none" stroke="midnightblue" d="M393.926,-104.411C418.376,-99.3061 448.633,-92.9887 474.403,-87.6082"/>
<polygon fill="midnightblue" stroke="midnightblue" points="475.33,-90.9901 484.404,-85.5201 473.9,-84.1378 475.33,-90.9901"/>
</g>
<!-- Node7 -->
<g id="node7" class="node"><title>Node7</title>
<g id="a_node7"><a xlink:href="../../d6/d4f/class_item_box_world.html#af1bcde0672796e926560684004ed8e81" target="_top" xlink:title="ItemBoxWorld.addSingleItem">
<polygon fill="white" stroke="black" points="454,-104.5 454,-123.5 608,-123.5 608,-104.5 454,-104.5"/>
<text text-anchor="middle" x="531" y="-111.5" font-family="Helvetica,sans-Serif" font-size="10.00">ItemBoxWorld.addSingleItem</text>
</a>
</g>
</g>
<!-- Node5&#45;&gt;Node7 -->
<g id="edge6" class="edge"><title>Node5&#45;&gt;Node7</title>
<path fill="none" stroke="midnightblue" d="M417.585,-114C426.096,-114 434.872,-114 443.592,-114"/>
<polygon fill="midnightblue" stroke="midnightblue" points="443.783,-117.5 453.783,-114 443.783,-110.5 443.783,-117.5"/>
</g>
<!-- Node9 -->
<g id="node9" class="node"><title>Node9</title>
<g id="a_node9"><a xlink:href="../../db/d97/class_box_world.html#a6794c083c2a0263c2f585f4ae4b7e39c" target="_top" xlink:title="BoxWorld.updateSprites">
<polygon fill="white" stroke="black" points="465.5,-237.5 465.5,-256.5 596.5,-256.5 596.5,-237.5 465.5,-237.5"/>
<text text-anchor="middle" x="531" y="-244.5" font-family="Helvetica,sans-Serif" font-size="10.00">BoxWorld.updateSprites</text>
</a>
</g>
</g>
<!-- Node8&#45;&gt;Node9 -->
<g id="edge8" class="edge"><title>Node8&#45;&gt;Node9</title>
<path fill="none" stroke="midnightblue" d="M366.453,-161.632C398.557,-178.39 464.847,-212.992 502.427,-232.608"/>
<polygon fill="midnightblue" stroke="midnightblue" points="501.284,-235.959 511.769,-237.484 504.524,-229.754 501.284,-235.959"/>
</g>
<!-- Node10 -->
<g id="node10" class="node"><title>Node10</title>
<g id="a_node10"><a xlink:href="../../db/d97/class_box_world.html#a4079bed8937c9f621decfbe1309e31e2" target="_top" xlink:title="BoxWorld.checkAllCollisions">
<polygon fill="white" stroke="black" points="644,-66.5 644,-85.5 790,-85.5 790,-66.5 644,-66.5"/>
<text text-anchor="middle" x="717" y="-73.5" font-family="Helvetica,sans-Serif" font-size="10.00">BoxWorld.checkAllCollisions</text>
</a>
</g>
</g>
<!-- Node9&#45;&gt;Node10 -->
<g id="edge9" class="edge"><title>Node9&#45;&gt;Node10</title>
<path fill="none" stroke="midnightblue" d="M542.42,-237.316C572.529,-209.335 659.919,-128.119 697.957,-92.7683"/>
<polygon fill="midnightblue" stroke="midnightblue" points="700.752,-94.9488 705.694,-85.5774 695.987,-89.8212 700.752,-94.9488"/>
</g>
<!-- Node12 -->
<g id="node12" class="node"><title>Node12</title>
<g id="a_node12"><a xlink:href="../../da/de2/class_sticky_box.html#a6ba3f89630df9d81df5644a3e5f4e387" target="_top" xlink:title="StickyBox.getXDirection">
<polygon fill="white" stroke="black" points="1912.5,-180.5 1912.5,-199.5 2043.5,-199.5 2043.5,-180.5 1912.5,-180.5"/>
<text text-anchor="middle" x="1978" y="-187.5" font-family="Helvetica,sans-Serif" font-size="10.00">StickyBox.getXDirection</text>
</a>
</g>
</g>
<!-- Node9&#45;&gt;Node12 -->
<g id="edge35" class="edge"><title>Node9&#45;&gt;Node12</title>
<path fill="none" stroke="midnightblue" d="M566.864,-237.459C629.324,-221.233 764.66,-190 881,-190 881,-190 881,-190 1606,-190 1708.58,-190 1827.11,-190 1902.05,-190"/>
<polygon fill="midnightblue" stroke="midnightblue" points="1902.33,-193.5 1912.33,-190 1902.33,-186.5 1902.33,-193.5"/>
</g>
<!-- Node13 -->
<g id="node13" class="node"><title>Node13</title>
<g id="a_node13"><a xlink:href="../../da/de2/class_sticky_box.html#a69e5ccf2a79159c03dea2e048df13318" target="_top" xlink:title="StickyBox.getYDirection">
<polygon fill="white" stroke="black" points="1913,-218.5 1913,-237.5 2043,-237.5 2043,-218.5 1913,-218.5"/>
<text text-anchor="middle" x="1978" y="-225.5" font-family="Helvetica,sans-Serif" font-size="10.00">StickyBox.getYDirection</text>
</a>
</g>
</g>
<!-- Node9&#45;&gt;Node13 -->
<g id="edge36" class="edge"><title>Node9&#45;&gt;Node13</title>
<path fill="none" stroke="midnightblue" d="M596.587,-241.376C666.595,-235.774 781.636,-228 881,-228 881,-228 881,-228 1606,-228 1708.89,-228 1827.82,-228 1902.72,-228"/>
<polygon fill="midnightblue" stroke="midnightblue" points="1902.99,-231.5 1912.99,-228 1902.99,-224.5 1902.99,-231.5"/>
</g>
<!-- Node25 -->
<g id="node25" class="node"><title>Node25</title>
<g id="a_node25"><a xlink:href="../../da/de2/class_sticky_box.html#aa1bb8f78f676b01c688d75d386758444" target="_top" xlink:title="StickyBox.setDirection">
<polygon fill="white" stroke="black" points="1916,-370.5 1916,-389.5 2040,-389.5 2040,-370.5 1916,-370.5"/>
<text text-anchor="middle" x="1978" y="-377.5" font-family="Helvetica,sans-Serif" font-size="10.00">StickyBox.setDirection</text>
</a>
</g>
</g>
<!-- Node9&#45;&gt;Node25 -->
<g id="edge38" class="edge"><title>Node9&#45;&gt;Node25</title>
<path fill="none" stroke="midnightblue" d="M542.096,-256.597C560.588,-273.5 601.88,-308.191 644,-323 743.689,-358.051 775.329,-342 881,-342 881,-342 881,-342 1606,-342 1712.52,-342 1835.34,-357.693 1909.53,-368.909"/>
<polygon fill="midnightblue" stroke="midnightblue" points="1909.25,-372.408 1919.67,-370.46 1910.31,-365.488 1909.25,-372.408"/>
</g>
<!-- Node26 -->
<g id="node26" class="node"><title>Node26</title>
<g id="a_node26"><a xlink:href="../../da/de2/class_sticky_box.html#a5d95d2ed2e13f0d87a44311db77f9e36" target="_top" xlink:title="StickyBox.setPreviousDirection">
<polygon fill="white" stroke="black" points="1896,-427.5 1896,-446.5 2060,-446.5 2060,-427.5 1896,-427.5"/>
<text text-anchor="middle" x="1978" y="-434.5" font-family="Helvetica,sans-Serif" font-size="10.00">StickyBox.setPreviousDirection</text>
</a>
</g>
</g>
<!-- Node9&#45;&gt;Node26 -->
<g id="edge39" class="edge"><title>Node9&#45;&gt;Node26</title>
<path fill="none" stroke="midnightblue" d="M539.163,-256.513C555.299,-277.153 596.789,-325.956 644,-348 799.962,-420.823 1238.87,-456 1411,-456 1411,-456 1411,-456 1606,-456 1701.32,-456 1810.24,-449.667 1885.28,-444.313"/>
<polygon fill="midnightblue" stroke="midnightblue" points="1885.92,-447.777 1895.64,-443.565 1885.41,-440.795 1885.92,-447.777"/>
</g>
<!-- Node29 -->
<g id="node29" class="node"><title>Node29</title>
<g id="a_node29"><a xlink:href="../../da/de2/class_sticky_box.html#a185ee469367b376e6c5969a03d089d57" target="_top" xlink:title="StickyBox.move">
<polygon fill="white" stroke="black" points="670.5,-294.5 670.5,-313.5 763.5,-313.5 763.5,-294.5 670.5,-294.5"/>
<text text-anchor="middle" x="717" y="-301.5" font-family="Helvetica,sans-Serif" font-size="10.00">StickyBox.move</text>
</a>
</g>
</g>
<!-- Node9&#45;&gt;Node29 -->
<g id="edge37" class="edge"><title>Node9&#45;&gt;Node29</title>
<path fill="none" stroke="midnightblue" d="M558.536,-256.581C581.126,-264.598 614.509,-276.117 644,-285 651.744,-287.333 660.004,-289.66 668.064,-291.845"/>
<polygon fill="midnightblue" stroke="midnightblue" points="667.184,-295.233 677.748,-294.431 668.99,-288.47 667.184,-295.233"/>
</g>
<!-- Node30 -->
<g id="node30" class="node"><title>Node30</title>
<g id="a_node30"><a xlink:href="../../da/de2/class_sticky_box.html#a59337f0aa3c7379a2cb9c76bdc621daf" target="_top" xlink:title="StickyBox.setStuck">
<polygon fill="white" stroke="black" points="663,-256.5 663,-275.5 771,-275.5 771,-256.5 663,-256.5"/>
<text text-anchor="middle" x="717" y="-263.5" font-family="Helvetica,sans-Serif" font-size="10.00">StickyBox.setStuck</text>
</a>
</g>
</g>
<!-- Node9&#45;&gt;Node30 -->
<g id="edge40" class="edge"><title>Node9&#45;&gt;Node30</title>
<path fill="none" stroke="midnightblue" d="M596.613,-253.672C614.789,-255.549 634.534,-257.588 652.636,-259.457"/>
<polygon fill="midnightblue" stroke="midnightblue" points="652.484,-262.96 662.791,-260.506 653.203,-255.997 652.484,-262.96"/>
</g>
<!-- Node10&#45;&gt;Node1 -->
<g id="edge34" class="edge"><title>Node10&#45;&gt;Node1</title>
<path fill="none" stroke="midnightblue" d="M672.091,-66.4881C652.569,-62.7227 629.242,-58.8542 608,-57 415.629,-40.2074 187.795,-95.1835 95.2343,-120.701"/>
<polygon fill="midnightblue" stroke="midnightblue" points="94.097,-117.384 85.4041,-123.441 95.9767,-124.127 94.097,-117.384"/>
</g>
<!-- Node11 -->
<g id="node11" class="node"><title>Node11</title>
<g id="a_node11"><a xlink:href="../../db/d97/class_box_world.html#a55add11037cd6dc48556f2f42a9e11be" target="_top" xlink:title="BoxWorld.checkCollide">
<polygon fill="white" stroke="black" points="1730,-142.5 1730,-161.5 1852,-161.5 1852,-142.5 1730,-142.5"/>
<text text-anchor="middle" x="1791" y="-149.5" font-family="Helvetica,sans-Serif" font-size="10.00">BoxWorld.checkCollide</text>
</a>
</g>
</g>
<!-- Node10&#45;&gt;Node11 -->
<g id="edge10" class="edge"><title>Node10&#45;&gt;Node11</title>
<path fill="none" stroke="midnightblue" d="M764.28,-66.46C823.013,-55.2037 927.57,-38 1018,-38 1018,-38 1018,-38 1413,-38 1536.95,-38 1569.72,-52.079 1686,-95 1715.48,-105.882 1746.78,-124.049 1767.24,-136.946"/>
<polygon fill="midnightblue" stroke="midnightblue" points="1765.53,-140.006 1775.84,-142.456 1769.31,-134.113 1765.53,-140.006"/>
</g>
<!-- Node14 -->
<g id="node14" class="node"><title>Node14</title>
<g id="a_node14"><a xlink:href="../../db/d97/class_box_world.html#a72bacb2a6757900d8835249929fcc838" target="_top" xlink:title="BoxWorld.loseGame">
<polygon fill="white" stroke="black" points="826,-104.5 826,-123.5 938,-123.5 938,-104.5 826,-104.5"/>
<text text-anchor="middle" x="882" y="-111.5" font-family="Helvetica,sans-Serif" font-size="10.00">BoxWorld.loseGame</text>
</a>
</g>
</g>
<!-- Node10&#45;&gt;Node14 -->
<g id="edge13" class="edge"><title>Node10&#45;&gt;Node14</title>
<path fill="none" stroke="midnightblue" d="M759.132,-85.589C780.738,-90.6261 807.409,-96.8438 830.286,-102.177"/>
<polygon fill="midnightblue" stroke="midnightblue" points="829.63,-105.618 840.164,-104.48 831.22,-98.8009 829.63,-105.618"/>
</g>
<!-- Node28 -->
<g id="node28" class="node"><title>Node28</title>
<g id="a_node28"><a xlink:href="../../db/d97/class_box_world.html#ae6ffad41f7ba6122234157c72afe8f9c" target="_top" xlink:title="BoxWorld.onScreen">
<polygon fill="white" stroke="black" points="827.5,-66.5 827.5,-85.5 936.5,-85.5 936.5,-66.5 827.5,-66.5"/>
<text text-anchor="middle" x="882" y="-73.5" font-family="Helvetica,sans-Serif" font-size="10.00">BoxWorld.onScreen</text>
</a>
</g>
</g>
<!-- Node10&#45;&gt;Node28 -->
<g id="edge33" class="edge"><title>Node10&#45;&gt;Node28</title>
<path fill="none" stroke="midnightblue" d="M790.443,-76C799.366,-76 808.435,-76 817.216,-76"/>
<polygon fill="midnightblue" stroke="midnightblue" points="817.365,-79.5001 827.365,-76 817.365,-72.5001 817.365,-79.5001"/>
</g>
<!-- Node11&#45;&gt;Node12 -->
<g id="edge11" class="edge"><title>Node11&#45;&gt;Node12</title>
<path fill="none" stroke="midnightblue" d="M1838.68,-161.589C1863.65,-166.716 1894.56,-173.067 1920.83,-178.463"/>
<polygon fill="midnightblue" stroke="midnightblue" points="1920.15,-181.896 1930.65,-180.48 1921.56,-175.039 1920.15,-181.896"/>
</g>
<!-- Node11&#45;&gt;Node13 -->
<g id="edge12" class="edge"><title>Node11&#45;&gt;Node13</title>
<path fill="none" stroke="midnightblue" d="M1806.54,-161.636C1826.11,-174.206 1862.35,-196.109 1896,-209 1902.68,-211.558 1909.8,-213.837 1916.95,-215.85"/>
<polygon fill="midnightblue" stroke="midnightblue" points="1916.11,-219.247 1926.67,-218.43 1917.9,-212.482 1916.11,-219.247"/>
</g>
<!-- Node15 -->
<g id="node15" class="node"><title>Node15</title>
<g id="a_node15"><a xlink:href="../../d4/d2f/class_lose_screen.html#a34f2cc2c803500316c9b8d854854d758" target="_top" xlink:title="LoseScreen.init">
<polygon fill="white" stroke="black" points="974,-104.5 974,-123.5 1064,-123.5 1064,-104.5 974,-104.5"/>
<text text-anchor="middle" x="1019" y="-111.5" font-family="Helvetica,sans-Serif" font-size="10.00">LoseScreen.init</text>
</a>
</g>
</g>
<!-- Node14&#45;&gt;Node15 -->
<g id="edge14" class="edge"><title>Node14&#45;&gt;Node15</title>
<path fill="none" stroke="midnightblue" d="M938.299,-114C946.686,-114 955.332,-114 963.697,-114"/>
<polygon fill="midnightblue" stroke="midnightblue" points="963.724,-117.5 973.724,-114 963.724,-110.5 963.724,-117.5"/>
</g>
<!-- Node16 -->
<g id="node16" class="node"><title>Node16</title>
<g id="a_node16"><a xlink:href="../../d2/db8/class_menu.html#a3c99ad09e9f2f975c1a0d0597642651a" target="_top" xlink:title="Menu.init">
<polygon fill="white" stroke="black" points="1100,-104.5 1100,-123.5 1160,-123.5 1160,-104.5 1100,-104.5"/>
<text text-anchor="middle" x="1130" y="-111.5" font-family="Helvetica,sans-Serif" font-size="10.00">Menu.init</text>
</a>
</g>
</g>
<!-- Node15&#45;&gt;Node16 -->
<g id="edge15" class="edge"><title>Node15&#45;&gt;Node16</title>
<path fill="none" stroke="midnightblue" d="M1064.02,-114C1072.5,-114 1081.32,-114 1089.64,-114"/>
<polygon fill="midnightblue" stroke="midnightblue" points="1089.83,-117.5 1099.83,-114 1089.83,-110.5 1089.83,-117.5"/>
</g>
<!-- Node17 -->
<g id="node17" class="node"><title>Node17</title>
<g id="a_node17"><a xlink:href="../../d2/db8/class_menu.html#a8a6e6125f0dc2dc7e19c6655ba6376a2" target="_top" xlink:title="Menu.addIntroText">
<polygon fill="white" stroke="black" points="1196,-104.5 1196,-123.5 1300,-123.5 1300,-104.5 1196,-104.5"/>
<text text-anchor="middle" x="1248" y="-111.5" font-family="Helvetica,sans-Serif" font-size="10.00">Menu.addIntroText</text>
</a>
</g>
</g>
<!-- Node16&#45;&gt;Node17 -->
<g id="edge16" class="edge"><title>Node16&#45;&gt;Node17</title>
<path fill="none" stroke="midnightblue" d="M1160.27,-114C1167.99,-114 1176.62,-114 1185.35,-114"/>
<polygon fill="midnightblue" stroke="midnightblue" points="1185.61,-117.5 1195.61,-114 1185.61,-110.5 1185.61,-117.5"/>
</g>
<!-- Node18 -->
<g id="node18" class="node"><title>Node18</title>
<g id="a_node18"><a xlink:href="../../db/d97/class_box_world.html#a55bf92d3f466bfaade0f6d199d8c9bd9" target="_top" xlink:title="BoxWorld.init">
<polygon fill="white" stroke="black" points="1209.5,-142.5 1209.5,-161.5 1286.5,-161.5 1286.5,-142.5 1209.5,-142.5"/>
<text text-anchor="middle" x="1248" y="-149.5" font-family="Helvetica,sans-Serif" font-size="10.00">BoxWorld.init</text>
</a>
</g>
</g>
<!-- Node16&#45;&gt;Node18 -->
<g id="edge17" class="edge"><title>Node16&#45;&gt;Node18</title>
<path fill="none" stroke="midnightblue" d="M1160.27,-123.589C1174.7,-128.314 1192.29,-134.079 1207.86,-139.177"/>
<polygon fill="midnightblue" stroke="midnightblue" points="1207.14,-142.627 1217.74,-142.414 1209.32,-135.975 1207.14,-142.627"/>
</g>
<!-- Node18&#45;&gt;Node3 -->
<g id="edge18" class="edge"><title>Node18&#45;&gt;Node3</title>
<path fill="none" stroke="midnightblue" d="M1286.57,-143.187C1308.49,-138.045 1336.43,-131.491 1360.28,-125.896"/>
<polygon fill="midnightblue" stroke="midnightblue" points="1361.29,-129.256 1370.23,-123.564 1359.69,-122.441 1361.29,-129.256"/>
</g>
<!-- Node18&#45;&gt;Node8 -->
<g id="edge32" class="edge"><title>Node18&#45;&gt;Node8</title>
<path fill="none" stroke="midnightblue" d="M1209.24,-152C1164.2,-152 1086.6,-152 1020,-152 716,-152 716,-152 716,-152 603.498,-152 471.65,-152 400.3,-152"/>
<polygon fill="midnightblue" stroke="midnightblue" points="400.221,-148.5 390.221,-152 400.221,-155.5 400.221,-148.5"/>
</g>
<!-- Node18&#45;&gt;Node19 -->
<g id="edge19" class="edge"><title>Node18&#45;&gt;Node19</title>
<path fill="none" stroke="midnightblue" d="M1255.75,-161.507C1280.4,-196.199 1365.77,-316.34 1398.29,-362.105"/>
<polygon fill="midnightblue" stroke="midnightblue" points="1395.57,-364.328 1404.22,-370.453 1401.28,-360.274 1395.57,-364.328"/>
</g>
<!-- Node20 -->
<g id="node20" class="node"><title>Node20</title>
<g id="a_node20"><a xlink:href="../../db/d97/class_box_world.html#aa7e2049d7be23e15fd2ec7fa2922ed79" target="_top" xlink:title="BoxWorld.handleKeyInput">
<polygon fill="white" stroke="black" points="1537,-408.5 1537,-427.5 1673,-427.5 1673,-408.5 1537,-408.5"/>
<text text-anchor="middle" x="1605" y="-415.5" font-family="Helvetica,sans-Serif" font-size="10.00">BoxWorld.handleKeyInput</text>
</a>
</g>
</g>
<!-- Node19&#45;&gt;Node20 -->
<g id="edge20" class="edge"><title>Node19&#45;&gt;Node20</title>
<path fill="none" stroke="midnightblue" d="M1461.2,-389.589C1486.97,-394.716 1518.89,-401.067 1546.01,-406.463"/>
<polygon fill="midnightblue" stroke="midnightblue" points="1545.66,-409.961 1556.15,-408.48 1547.02,-403.096 1545.66,-409.961"/>
</g>
<!-- Node27 -->
<g id="node27" class="node"><title>Node27</title>
<g id="a_node27"><a xlink:href="../../db/d97/class_box_world.html#a2d44485a181577acb4d79b6b81f26fff" target="_top" xlink:title="BoxWorld.handleKeyRelease">
<polygon fill="white" stroke="black" points="1530.5,-370.5 1530.5,-389.5 1679.5,-389.5 1679.5,-370.5 1530.5,-370.5"/>
<text text-anchor="middle" x="1605" y="-377.5" font-family="Helvetica,sans-Serif" font-size="10.00">BoxWorld.handleKeyRelease</text>
</a>
</g>
</g>
<!-- Node19&#45;&gt;Node27 -->
<g id="edge31" class="edge"><title>Node19&#45;&gt;Node27</title>
<path fill="none" stroke="midnightblue" d="M1474.22,-380C1488.9,-380 1504.83,-380 1520.33,-380"/>
<polygon fill="midnightblue" stroke="midnightblue" points="1520.44,-383.5 1530.44,-380 1520.44,-376.5 1520.44,-383.5"/>
</g>
<!-- Node20&#45;&gt;Node1 -->
<g id="edge30" class="edge"><title>Node20&#45;&gt;Node1</title>
<path fill="none" stroke="midnightblue" d="M1536.65,-425.237C1428.05,-436.262 1207.46,-456 1020,-456 346,-456 346,-456 346,-456 181.067,-456 84.666,-222.105 59.5942,-152.386"/>
<polygon fill="midnightblue" stroke="midnightblue" points="62.7974,-150.943 56.1833,-142.667 56.1924,-153.262 62.7974,-150.943"/>
</g>
<!-- Node21 -->
<g id="node21" class="node"><title>Node21</title>
<g id="a_node21"><a xlink:href="../../db/d97/class_box_world.html#adc4c9d78ffde3d052c4c92047eb98e55" target="_top" xlink:title="BoxWorld.allowMovement">
<polygon fill="white" stroke="black" points="1722.5,-256.5 1722.5,-275.5 1859.5,-275.5 1859.5,-256.5 1722.5,-256.5"/>
<text text-anchor="middle" x="1791" y="-263.5" font-family="Helvetica,sans-Serif" font-size="10.00">BoxWorld.allowMovement</text>
</a>
</g>
</g>
<!-- Node20&#45;&gt;Node21 -->
<g id="edge21" class="edge"><title>Node20&#45;&gt;Node21</title>
<path fill="none" stroke="midnightblue" d="M1666.36,-408.375C1673.28,-405.925 1679.99,-402.853 1686,-399 1709.58,-383.88 1755.92,-317.199 1777.89,-284.378"/>
<polygon fill="midnightblue" stroke="midnightblue" points="1781.02,-285.996 1783.64,-275.73 1775.19,-282.121 1781.02,-285.996"/>
</g>
<!-- Node24 -->
<g id="node24" class="node"><title>Node24</title>
<g id="a_node24"><a xlink:href="../../db/d97/class_box_world.html#a04c6bf977c4292a5433649fb3745fd6b" target="_top" xlink:title="BoxWorld.reset">
<polygon fill="white" stroke="black" points="1747,-408.5 1747,-427.5 1835,-427.5 1835,-408.5 1747,-408.5"/>
<text text-anchor="middle" x="1791" y="-415.5" font-family="Helvetica,sans-Serif" font-size="10.00">BoxWorld.reset</text>
</a>
</g>
</g>
<!-- Node20&#45;&gt;Node24 -->
<g id="edge26" class="edge"><title>Node20&#45;&gt;Node24</title>
<path fill="none" stroke="midnightblue" d="M1673.21,-418C1694.19,-418 1717.03,-418 1736.9,-418"/>
<polygon fill="midnightblue" stroke="midnightblue" points="1737,-421.5 1747,-418 1737,-414.5 1737,-421.5"/>
</g>
<!-- Node20&#45;&gt;Node25 -->
<g id="edge29" class="edge"><title>Node20&#45;&gt;Node25</title>
<path fill="none" stroke="midnightblue" d="M1658.12,-408.461C1678.05,-405.077 1701.03,-401.494 1722,-399 1783.76,-391.656 1854.29,-386.66 1905.5,-383.641"/>
<polygon fill="midnightblue" stroke="midnightblue" points="1906.02,-387.117 1915.8,-383.045 1905.61,-380.129 1906.02,-387.117"/>
</g>
<!-- Node21&#45;&gt;Node12 -->
<g id="edge22" class="edge"><title>Node21&#45;&gt;Node12</title>
<path fill="none" stroke="midnightblue" d="M1806.54,-256.364C1826.11,-243.794 1862.35,-221.891 1896,-209 1902.68,-206.442 1909.8,-204.163 1916.95,-202.15"/>
<polygon fill="midnightblue" stroke="midnightblue" points="1917.9,-205.518 1926.67,-199.57 1916.11,-198.753 1917.9,-205.518"/>
</g>
<!-- Node21&#45;&gt;Node13 -->
<g id="edge24" class="edge"><title>Node21&#45;&gt;Node13</title>
<path fill="none" stroke="midnightblue" d="M1838.68,-256.411C1863.65,-251.284 1894.56,-244.933 1920.83,-239.537"/>
<polygon fill="midnightblue" stroke="midnightblue" points="1921.56,-242.961 1930.65,-237.52 1920.15,-236.104 1921.56,-242.961"/>
</g>
<!-- Node22 -->
<g id="node22" class="node"><title>Node22</title>
<g id="a_node22"><a xlink:href="../../da/de2/class_sticky_box.html#ab0bd7cafb7f243e3951558ddb8728b96" target="_top" xlink:title="StickyBox.getXPrev">
<polygon fill="white" stroke="black" points="1923.5,-294.5 1923.5,-313.5 2032.5,-313.5 2032.5,-294.5 1923.5,-294.5"/>
<text text-anchor="middle" x="1978" y="-301.5" font-family="Helvetica,sans-Serif" font-size="10.00">StickyBox.getXPrev</text>
</a>
</g>
</g>
<!-- Node21&#45;&gt;Node22 -->
<g id="edge23" class="edge"><title>Node21&#45;&gt;Node22</title>
<path fill="none" stroke="midnightblue" d="M1838.68,-275.589C1863.65,-280.716 1894.56,-287.067 1920.83,-292.463"/>
<polygon fill="midnightblue" stroke="midnightblue" points="1920.15,-295.896 1930.65,-294.48 1921.56,-289.039 1920.15,-295.896"/>
</g>
<!-- Node23 -->
<g id="node23" class="node"><title>Node23</title>
<g id="a_node23"><a xlink:href="../../da/de2/class_sticky_box.html#a4c6abed944faed9d9b226079e99cfc24" target="_top" xlink:title="StickyBox.getYPrev">
<polygon fill="white" stroke="black" points="1924,-256.5 1924,-275.5 2032,-275.5 2032,-256.5 1924,-256.5"/>
<text text-anchor="middle" x="1978" y="-263.5" font-family="Helvetica,sans-Serif" font-size="10.00">StickyBox.getYPrev</text>
</a>
</g>
</g>
<!-- Node21&#45;&gt;Node23 -->
<g id="edge25" class="edge"><title>Node21&#45;&gt;Node23</title>
<path fill="none" stroke="midnightblue" d="M1859.57,-266C1877.26,-266 1896.27,-266 1913.72,-266"/>
<polygon fill="midnightblue" stroke="midnightblue" points="1913.8,-269.5 1923.8,-266 1913.8,-262.5 1913.8,-269.5"/>
</g>
<!-- Node24&#45;&gt;Node25 -->
<g id="edge27" class="edge"><title>Node24&#45;&gt;Node25</title>
<path fill="none" stroke="midnightblue" d="M1835.37,-409.091C1860.87,-403.855 1893.37,-397.178 1920.81,-391.542"/>
<polygon fill="midnightblue" stroke="midnightblue" points="1921.57,-394.958 1930.66,-389.518 1920.16,-388.101 1921.57,-394.958"/>
</g>
<!-- Node24&#45;&gt;Node26 -->
<g id="edge28" class="edge"><title>Node24&#45;&gt;Node26</title>
<path fill="none" stroke="midnightblue" d="M1835.37,-422.455C1850.46,-424.004 1868.01,-425.806 1885.5,-427.603"/>
<polygon fill="midnightblue" stroke="midnightblue" points="1885.47,-431.118 1895.78,-428.658 1886.19,-424.155 1885.47,-431.118"/>
</g>
</g>
</svg>
