<?xml version="1.0" encoding="UTF-8" standalone="no"?>
<!DOCTYPE svg PUBLIC "-//W3C//DTD SVG 1.1//EN"
 "http://www.w3.org/Graphics/SVG/1.1/DTD/svg11.dtd">
<!-- Generated by graphviz version 2.36.0 (20140111.2315)
 -->
<!-- Title: BoxWorld.reset Pages: 1 -->
<svg width="1868pt" height="132pt"
 viewBox="0.00 0.00 1868.00 132.00" xmlns="http://www.w3.org/2000/svg" xmlns:xlink="http://www.w3.org/1999/xlink">
<g id="graph0" class="graph" transform="scale(1 1) rotate(0) translate(4 128)">
<title>BoxWorld.reset</title>
<polygon fill="white" stroke="none" points="-4,4 -4,-128 1864,-128 1864,4 -4,4"/>
<!-- Node1 -->
<g id="node1" class="node"><title>Node1</title>
<polygon fill="#bfbfbf" stroke="black" points="0,-47.5 0,-66.5 88,-66.5 88,-47.5 0,-47.5"/>
<text text-anchor="middle" x="44" y="-54.5" font-family="Helvetica,sans-Serif" font-size="10.00">BoxWorld.reset</text>
</g>
<!-- Node2 -->
<g id="node2" class="node"><title>Node2</title>
<g id="a_node2"><a xlink:href="../../db/d97/class_box_world.html#aa7e2049d7be23e15fd2ec7fa2922ed79" target="_top" xlink:title="BoxWorld.handleKeyInput">
<polygon fill="white" stroke="black" points="124,-47.5 124,-66.5 260,-66.5 260,-47.5 124,-47.5"/>
<text text-anchor="middle" x="192" y="-54.5" font-family="Helvetica,sans-Serif" font-size="10.00">BoxWorld.handleKeyInput</text>
</a>
</g>
</g>
<!-- Node1&#45;&gt;Node2 -->
<g id="edge1" class="edge"><title>Node1&#45;&gt;Node2</title>
<path fill="none" stroke="midnightblue" d="M98.0456,-57C106.451,-57 115.24,-57 123.916,-57"/>
<polygon fill="midnightblue" stroke="midnightblue" points="98.0152,-53.5001 88.0152,-57 98.0151,-60.5001 98.0152,-53.5001"/>
</g>
<!-- Node3 -->
<g id="node3" class="node"><title>Node3</title>
<g id="a_node3"><a xlink:href="../../db/d97/class_box_world.html#a726e747e023543658d7a345cc6466ccb" target="_top" xlink:title="BoxWorld.createScene">
<polygon fill="white" stroke="black" points="296,-66.5 296,-85.5 420,-85.5 420,-66.5 296,-66.5"/>
<text text-anchor="middle" x="358" y="-73.5" font-family="Helvetica,sans-Serif" font-size="10.00">BoxWorld.createScene</text>
</a>
</g>
</g>
<!-- Node2&#45;&gt;Node3 -->
<g id="edge2" class="edge"><title>Node2&#45;&gt;Node3</title>
<path fill="none" stroke="midnightblue" d="M270.258,-65.9506C278.892,-66.9509 287.596,-67.9592 295.985,-68.9312"/>
<polygon fill="midnightblue" stroke="midnightblue" points="270.515,-62.457 260.178,-64.7828 269.709,-69.4105 270.515,-62.457"/>
</g>
<!-- Node4 -->
<g id="node4" class="node"><title>Node4</title>
<g id="a_node4"><a xlink:href="../../d6/d4f/class_item_box_world.html#aa559fc2680327b41fb376e2eda8e82e3" target="_top" xlink:title="ItemBoxWorld.init">
<polygon fill="white" stroke="black" points="456.5,-66.5 456.5,-85.5 555.5,-85.5 555.5,-66.5 456.5,-66.5"/>
<text text-anchor="middle" x="506" y="-73.5" font-family="Helvetica,sans-Serif" font-size="10.00">ItemBoxWorld.init</text>
</a>
</g>
</g>
<!-- Node3&#45;&gt;Node4 -->
<g id="edge3" class="edge"><title>Node3&#45;&gt;Node4</title>
<path fill="none" stroke="midnightblue" d="M430.3,-76C439.052,-76 447.836,-76 456.149,-76"/>
<polygon fill="midnightblue" stroke="midnightblue" points="430.071,-72.5001 420.071,-76 430.071,-79.5001 430.071,-72.5001"/>
</g>
<!-- Node9 -->
<g id="node9" class="node"><title>Node9</title>
<g id="a_node9"><a xlink:href="../../db/d97/class_box_world.html#a55bf92d3f466bfaade0f6d199d8c9bd9" target="_top" xlink:title="BoxWorld.init">
<polygon fill="white" stroke="black" points="1204.5,-66.5 1204.5,-85.5 1281.5,-85.5 1281.5,-66.5 1204.5,-66.5"/>
<text text-anchor="middle" x="1243" y="-73.5" font-family="Helvetica,sans-Serif" font-size="10.00">BoxWorld.init</text>
</a>
</g>
</g>
<!-- Node3&#45;&gt;Node9 -->
<g id="edge19" class="edge"><title>Node3&#45;&gt;Node9</title>
<path fill="none" stroke="midnightblue" d="M412.885,-87.5544C469.797,-98.7344 562.285,-114 643,-114 643,-114 643,-114 981,-114 1064.54,-114 1085.76,-109.651 1168,-95 1181.58,-92.5807 1196.34,-88.9914 1209.08,-85.5819"/>
<polygon fill="midnightblue" stroke="midnightblue" points="413.52,-84.1122 403.029,-85.589 412.151,-90.9771 413.52,-84.1122"/>
</g>
<!-- Node5 -->
<g id="node5" class="node"><title>Node5</title>
<g id="a_node5"><a xlink:href="../../db/d97/class_box_world.html#aad670712776afe126e51791097027e05" target="_top" xlink:title="BoxWorld.winLevel">
<polygon fill="white" stroke="black" points="592.5,-28.5 592.5,-47.5 695.5,-47.5 695.5,-28.5 592.5,-28.5"/>
<text text-anchor="middle" x="644" y="-35.5" font-family="Helvetica,sans-Serif" font-size="10.00">BoxWorld.winLevel</text>
</a>
</g>
</g>
<!-- Node4&#45;&gt;Node5 -->
<g id="edge4" class="edge"><title>Node4&#45;&gt;Node5</title>
<path fill="none" stroke="midnightblue" d="M551.087,-63.6817C569.772,-58.4607 591.218,-52.4684 608.692,-47.5859"/>
<polygon fill="midnightblue" stroke="midnightblue" points="550.008,-60.349 541.319,-66.411 551.892,-67.0908 550.008,-60.349"/>
</g>
<!-- Node5&#45;&gt;Node2 -->
<g id="edge18" class="edge"><title>Node5&#45;&gt;Node2</title>
<path fill="none" stroke="midnightblue" d="M582.155,-40.569C498.262,-44.1111 347.574,-50.4736 260.37,-54.1555"/>
<polygon fill="midnightblue" stroke="midnightblue" points="582.451,-44.0597 592.294,-40.1409 582.155,-37.066 582.451,-44.0597"/>
</g>
<!-- Node6 -->
<g id="node6" class="node"><title>Node6</title>
<g id="a_node6"><a xlink:href="../../db/d97/class_box_world.html#a4079bed8937c9f621decfbe1309e31e2" target="_top" xlink:title="BoxWorld.checkAllCollisions">
<polygon fill="white" stroke="black" points="732,-28.5 732,-47.5 878,-47.5 878,-28.5 732,-28.5"/>
<text text-anchor="middle" x="805" y="-35.5" font-family="Helvetica,sans-Serif" font-size="10.00">BoxWorld.checkAllCollisions</text>
</a>
</g>
</g>
<!-- Node5&#45;&gt;Node6 -->
<g id="edge5" class="edge"><title>Node5&#45;&gt;Node6</title>
<path fill="none" stroke="midnightblue" d="M705.879,-38C714.33,-38 723.079,-38 731.713,-38"/>
<polygon fill="midnightblue" stroke="midnightblue" points="705.746,-34.5001 695.746,-38 705.746,-41.5001 705.746,-34.5001"/>
</g>
<!-- Node7 -->
<g id="node7" class="node"><title>Node7</title>
<g id="a_node7"><a xlink:href="../../db/d97/class_box_world.html#a6794c083c2a0263c2f585f4ae4b7e39c" target="_top" xlink:title="BoxWorld.updateSprites">
<polygon fill="white" stroke="black" points="914.5,-28.5 914.5,-47.5 1045.5,-47.5 1045.5,-28.5 914.5,-28.5"/>
<text text-anchor="middle" x="980" y="-35.5" font-family="Helvetica,sans-Serif" font-size="10.00">BoxWorld.updateSprites</text>
</a>
</g>
</g>
<!-- Node6&#45;&gt;Node7 -->
<g id="edge6" class="edge"><title>Node6&#45;&gt;Node7</title>
<path fill="none" stroke="midnightblue" d="M888.354,-38C897.116,-38 905.936,-38 914.451,-38"/>
<polygon fill="midnightblue" stroke="midnightblue" points="888.115,-34.5001 878.115,-38 888.115,-41.5001 888.115,-34.5001"/>
</g>
<!-- Node8 -->
<g id="node8" class="node"><title>Node8</title>
<g id="a_node8"><a xlink:href="../../db/d97/class_box_world.html#ad20a4e43406c44f4bbf201d1d1028998" target="_top" xlink:title="BoxWorld.start">
<polygon fill="white" stroke="black" points="1082,-66.5 1082,-85.5 1168,-85.5 1168,-66.5 1082,-66.5"/>
<text text-anchor="middle" x="1125" y="-73.5" font-family="Helvetica,sans-Serif" font-size="10.00">BoxWorld.start</text>
</a>
</g>
</g>
<!-- Node7&#45;&gt;Node8 -->
<g id="edge7" class="edge"><title>Node7&#45;&gt;Node8</title>
<path fill="none" stroke="midnightblue" d="M1026.81,-50.1742C1046.59,-55.4287 1069.38,-61.4866 1087.93,-66.4141"/>
<polygon fill="midnightblue" stroke="midnightblue" points="1027.65,-46.7747 1017.08,-47.589 1025.85,-53.5399 1027.65,-46.7747"/>
</g>
<!-- Node8&#45;&gt;Node4 -->
<g id="edge17" class="edge"><title>Node8&#45;&gt;Node4</title>
<path fill="none" stroke="midnightblue" d="M1071.45,-76C953.624,-76 669.752,-76 555.673,-76"/>
<polygon fill="midnightblue" stroke="midnightblue" points="1071.65,-79.5001 1081.65,-76 1071.65,-72.5001 1071.65,-79.5001"/>
</g>
<!-- Node8&#45;&gt;Node9 -->
<g id="edge8" class="edge"><title>Node8&#45;&gt;Node9</title>
<path fill="none" stroke="midnightblue" d="M1178.33,-76C1187.06,-76 1195.97,-76 1204.24,-76"/>
<polygon fill="midnightblue" stroke="midnightblue" points="1178.21,-72.5001 1168.21,-76 1178.21,-79.5001 1178.21,-72.5001"/>
</g>
<!-- Node10 -->
<g id="node10" class="node"><title>Node10</title>
<g id="a_node10"><a xlink:href="../../d2/db8/class_menu.html#a3c99ad09e9f2f975c1a0d0597642651a" target="_top" xlink:title="Menu.init">
<polygon fill="white" stroke="black" points="1318,-66.5 1318,-85.5 1378,-85.5 1378,-66.5 1318,-66.5"/>
<text text-anchor="middle" x="1348" y="-73.5" font-family="Helvetica,sans-Serif" font-size="10.00">Menu.init</text>
</a>
</g>
</g>
<!-- Node9&#45;&gt;Node10 -->
<g id="edge9" class="edge"><title>Node9&#45;&gt;Node10</title>
<path fill="none" stroke="midnightblue" d="M1292.03,-76C1300.89,-76 1309.87,-76 1317.95,-76"/>
<polygon fill="midnightblue" stroke="midnightblue" points="1291.77,-72.5001 1281.77,-76 1291.77,-79.5001 1291.77,-72.5001"/>
</g>
<!-- Node11 -->
<g id="node11" class="node"><title>Node11</title>
<g id="a_node11"><a xlink:href="../../d1/de1/class_end_screen.html#a1264ffb72b3a3032443f9c4087222aef" target="_top" xlink:title="EndScreen.init">
<polygon fill="white" stroke="black" points="1416,-66.5 1416,-85.5 1502,-85.5 1502,-66.5 1416,-66.5"/>
<text text-anchor="middle" x="1459" y="-73.5" font-family="Helvetica,sans-Serif" font-size="10.00">EndScreen.init</text>
</a>
</g>
</g>
<!-- Node10&#45;&gt;Node11 -->
<g id="edge10" class="edge"><title>Node10&#45;&gt;Node11</title>
<path fill="none" stroke="midnightblue" d="M1388.29,-76C1397.15,-76 1406.6,-76 1415.59,-76"/>
<polygon fill="midnightblue" stroke="midnightblue" points="1388.21,-72.5001 1378.21,-76 1388.21,-79.5001 1388.21,-72.5001"/>
</g>
<!-- Node14 -->
<g id="node14" class="node"><title>Node14</title>
<g id="a_node14"><a xlink:href="../../d4/d2f/class_lose_screen.html#a34f2cc2c803500316c9b8d854854d758" target="_top" xlink:title="LoseScreen.init">
<polygon fill="white" stroke="black" points="1414,-28.5 1414,-47.5 1504,-47.5 1504,-28.5 1414,-28.5"/>
<text text-anchor="middle" x="1459" y="-35.5" font-family="Helvetica,sans-Serif" font-size="10.00">LoseScreen.init</text>
</a>
</g>
</g>
<!-- Node10&#45;&gt;Node14 -->
<g id="edge13" class="edge"><title>Node10&#45;&gt;Node14</title>
<path fill="none" stroke="midnightblue" d="M1386.21,-63.0282C1400.73,-57.9656 1417.08,-52.2659 1430.5,-47.5859"/>
<polygon fill="midnightblue" stroke="midnightblue" points="1384.8,-59.8141 1376.51,-66.411 1387.1,-66.4239 1384.8,-59.8141"/>
</g>
<!-- Node16 -->
<g id="node16" class="node"><title>Node16</title>
<g id="a_node16"><a xlink:href="../../d0/d4b/class_main.html#a7595d13c514a02c35aca322dd91d2063" target="_top" xlink:title="Main.start">
<polygon fill="white" stroke="black" points="1426.5,-104.5 1426.5,-123.5 1491.5,-123.5 1491.5,-104.5 1426.5,-104.5"/>
<text text-anchor="middle" x="1459" y="-111.5" font-family="Helvetica,sans-Serif" font-size="10.00">Main.start</text>
</a>
</g>
</g>
<!-- Node10&#45;&gt;Node16 -->
<g id="edge16" class="edge"><title>Node10&#45;&gt;Node16</title>
<path fill="none" stroke="midnightblue" d="M1386.21,-88.9718C1400.73,-94.0344 1417.08,-99.7341 1430.5,-104.414"/>
<polygon fill="midnightblue" stroke="midnightblue" points="1387.1,-85.5761 1376.51,-85.589 1384.8,-92.1859 1387.1,-85.5761"/>
</g>
<!-- Node12 -->
<g id="node12" class="node"><title>Node12</title>
<g id="a_node12"><a xlink:href="../../d6/d4f/class_item_box_world.html#a2ed12a6b39993faedc05cc682204476d" target="_top" xlink:title="ItemBoxWorld.winLevel">
<polygon fill="white" stroke="black" points="1540.5,-66.5 1540.5,-85.5 1665.5,-85.5 1665.5,-66.5 1540.5,-66.5"/>
<text text-anchor="middle" x="1603" y="-73.5" font-family="Helvetica,sans-Serif" font-size="10.00">ItemBoxWorld.winLevel</text>
</a>
</g>
</g>
<!-- Node11&#45;&gt;Node12 -->
<g id="edge11" class="edge"><title>Node11&#45;&gt;Node12</title>
<path fill="none" stroke="midnightblue" d="M1512.34,-76C1521.5,-76 1531.11,-76 1540.5,-76"/>
<polygon fill="midnightblue" stroke="midnightblue" points="1512.22,-72.5001 1502.22,-76 1512.22,-79.5001 1512.22,-72.5001"/>
</g>
<!-- Node13 -->
<g id="node13" class="node"><title>Node13</title>
<g id="a_node13"><a xlink:href="../../d6/d4f/class_item_box_world.html#ae442d947b4dafc944336ee27628d2175" target="_top" xlink:title="ItemBoxWorld.handleKeyInput">
<polygon fill="white" stroke="black" points="1702,-66.5 1702,-85.5 1860,-85.5 1860,-66.5 1702,-66.5"/>
<text text-anchor="middle" x="1781" y="-73.5" font-family="Helvetica,sans-Serif" font-size="10.00">ItemBoxWorld.handleKeyInput</text>
</a>
</g>
</g>
<!-- Node12&#45;&gt;Node13 -->
<g id="edge12" class="edge"><title>Node12&#45;&gt;Node13</title>
<path fill="none" stroke="midnightblue" d="M1675.57,-76C1684.2,-76 1693.05,-76 1701.77,-76"/>
<polygon fill="midnightblue" stroke="midnightblue" points="1675.56,-72.5001 1665.56,-76 1675.56,-79.5001 1675.56,-72.5001"/>
</g>
<!-- Node15 -->
<g id="node15" class="node"><title>Node15</title>
<g id="a_node15"><a xlink:href="../../db/d97/class_box_world.html#a72bacb2a6757900d8835249929fcc838" target="_top" xlink:title="BoxWorld.loseGame">
<polygon fill="white" stroke="black" points="1547,-9.5 1547,-28.5 1659,-28.5 1659,-9.5 1547,-9.5"/>
<text text-anchor="middle" x="1603" y="-16.5" font-family="Helvetica,sans-Serif" font-size="10.00">BoxWorld.loseGame</text>
</a>
</g>
</g>
<!-- Node14&#45;&gt;Node15 -->
<g id="edge14" class="edge"><title>Node14&#45;&gt;Node15</title>
<path fill="none" stroke="midnightblue" d="M1514.2,-30.7473C1524.9,-29.3165 1536.13,-27.8135 1546.85,-26.3786"/>
<polygon fill="midnightblue" stroke="midnightblue" points="1513.6,-27.2971 1504.15,-32.0924 1514.53,-34.2352 1513.6,-27.2971"/>
</g>
<!-- Node15&#45;&gt;Node6 -->
<g id="edge15" class="edge"><title>Node15&#45;&gt;Node6</title>
<path fill="none" stroke="midnightblue" d="M1536.59,-11.3825C1485.56,-6.09633 1412.87,-0 1349,-0 1124,-0 1124,-0 1124,-0 1028.23,-1.42109e-14 917.368,-17.2037 855.084,-28.46"/>
<polygon fill="midnightblue" stroke="midnightblue" points="1536.5,-14.8929 1546.81,-12.4613 1537.24,-7.93152 1536.5,-14.8929"/>
</g>
</g>
</svg>
