<?xml version="1.0" encoding="UTF-8" standalone="no"?>
<!DOCTYPE svg PUBLIC "-//W3C//DTD SVG 1.1//EN"
 "http://www.w3.org/Graphics/SVG/1.1/DTD/svg11.dtd">
<!-- Generated by graphviz version 2.36.0 (20140111.2315)
 -->
<!-- Title: BoxWorld.addStarterObjects Pages: 1 -->
<svg width="1600pt" height="170pt"
 viewBox="0.00 0.00 1600.00 170.00" xmlns="http://www.w3.org/2000/svg" xmlns:xlink="http://www.w3.org/1999/xlink">
<g id="graph0" class="graph" transform="scale(1 1) rotate(0) translate(4 166)">
<title>BoxWorld.addStarterObjects</title>
<polygon fill="white" stroke="none" points="-4,4 -4,-166 1596,-166 1596,4 -4,4"/>
<!-- Node1 -->
<g id="node1" class="node"><title>Node1</title>
<polygon fill="#bfbfbf" stroke="black" points="0.5,-18.5 0.5,-37.5 151.5,-37.5 151.5,-18.5 0.5,-18.5"/>
<text text-anchor="middle" x="76" y="-25.5" font-family="Helvetica,sans-Serif" font-size="10.00">BoxWorld.addStarterObjects</text>
</g>
<!-- Node2 -->
<g id="node2" class="node"><title>Node2</title>
<g id="a_node2"><a xlink:href="../../d6/d4f/class_item_box_world.html#aa559fc2680327b41fb376e2eda8e82e3" target="_top" xlink:title="ItemBoxWorld.init">
<polygon fill="white" stroke="black" points="188.5,-47.5 188.5,-66.5 287.5,-66.5 287.5,-47.5 188.5,-47.5"/>
<text text-anchor="middle" x="238" y="-54.5" font-family="Helvetica,sans-Serif" font-size="10.00">ItemBoxWorld.init</text>
</a>
</g>
</g>
<!-- Node1&#45;&gt;Node2 -->
<g id="edge1" class="edge"><title>Node1&#45;&gt;Node2</title>
<path fill="none" stroke="midnightblue" d="M139.726,-39.3691C155.859,-42.2931 172.975,-45.3955 188.279,-48.1694"/>
<polygon fill="midnightblue" stroke="midnightblue" points="140.297,-35.9157 129.833,-37.5761 139.049,-42.8035 140.297,-35.9157"/>
</g>
<!-- Node7 -->
<g id="node7" class="node"><title>Node7</title>
<g id="a_node7"><a xlink:href="../../db/d97/class_box_world.html#a55bf92d3f466bfaade0f6d199d8c9bd9" target="_top" xlink:title="BoxWorld.init">
<polygon fill="white" stroke="black" points="936.5,-66.5 936.5,-85.5 1013.5,-85.5 1013.5,-66.5 936.5,-66.5"/>
<text text-anchor="middle" x="975" y="-73.5" font-family="Helvetica,sans-Serif" font-size="10.00">BoxWorld.init</text>
</a>
</g>
</g>
<!-- Node1&#45;&gt;Node7 -->
<g id="edge20" class="edge"><title>Node1&#45;&gt;Node7</title>
<path fill="none" stroke="midnightblue" d="M151.238,-17.1316C211.418,-9.26158 298.492,-3.35842e-15 375,-0 375,-0 375,-0 713,-0 806.917,-1.42109e-14 912.535,-45.924 954.912,-66.3745"/>
<polygon fill="midnightblue" stroke="midnightblue" points="150.523,-13.6957 141.071,-18.4814 151.445,-20.6348 150.523,-13.6957"/>
</g>
<!-- Node3 -->
<g id="node3" class="node"><title>Node3</title>
<g id="a_node3"><a xlink:href="../../db/d97/class_box_world.html#aad670712776afe126e51791097027e05" target="_top" xlink:title="BoxWorld.winLevel">
<polygon fill="white" stroke="black" points="324.5,-104.5 324.5,-123.5 427.5,-123.5 427.5,-104.5 324.5,-104.5"/>
<text text-anchor="middle" x="376" y="-111.5" font-family="Helvetica,sans-Serif" font-size="10.00">BoxWorld.winLevel</text>
</a>
</g>
</g>
<!-- Node2&#45;&gt;Node3 -->
<g id="edge2" class="edge"><title>Node2&#45;&gt;Node3</title>
<path fill="none" stroke="midnightblue" d="M271.161,-70.4793C296.074,-80.9208 329.973,-95.1285 352.162,-104.428"/>
<polygon fill="midnightblue" stroke="midnightblue" points="272.339,-67.178 261.763,-66.5405 269.633,-73.6339 272.339,-67.178"/>
</g>
<!-- Node4 -->
<g id="node4" class="node"><title>Node4</title>
<g id="a_node4"><a xlink:href="../../db/d97/class_box_world.html#a4079bed8937c9f621decfbe1309e31e2" target="_top" xlink:title="BoxWorld.checkAllCollisions">
<polygon fill="white" stroke="black" points="464,-142.5 464,-161.5 610,-161.5 610,-142.5 464,-142.5"/>
<text text-anchor="middle" x="537" y="-149.5" font-family="Helvetica,sans-Serif" font-size="10.00">BoxWorld.checkAllCollisions</text>
</a>
</g>
</g>
<!-- Node3&#45;&gt;Node4 -->
<g id="edge3" class="edge"><title>Node3&#45;&gt;Node4</title>
<path fill="none" stroke="midnightblue" d="M427.077,-125.968C449.358,-131.293 475.229,-137.476 496.166,-142.48"/>
<polygon fill="midnightblue" stroke="midnightblue" points="427.662,-122.509 417.122,-123.589 426.035,-129.318 427.662,-122.509"/>
</g>
<!-- Node15 -->
<g id="node15" class="node"><title>Node15</title>
<g id="a_node15"><a xlink:href="../../db/d97/class_box_world.html#aa7e2049d7be23e15fd2ec7fa2922ed79" target="_top" xlink:title="BoxWorld.handleKeyInput">
<polygon fill="white" stroke="black" points="469,-104.5 469,-123.5 605,-123.5 605,-104.5 469,-104.5"/>
<text text-anchor="middle" x="537" y="-111.5" font-family="Helvetica,sans-Serif" font-size="10.00">BoxWorld.handleKeyInput</text>
</a>
</g>
</g>
<!-- Node3&#45;&gt;Node15 -->
<g id="edge16" class="edge"><title>Node3&#45;&gt;Node15</title>
<path fill="none" stroke="midnightblue" d="M437.76,-114C447.946,-114 458.567,-114 468.901,-114"/>
<polygon fill="midnightblue" stroke="midnightblue" points="437.746,-110.5 427.746,-114 437.746,-117.5 437.746,-110.5"/>
</g>
<!-- Node5 -->
<g id="node5" class="node"><title>Node5</title>
<g id="a_node5"><a xlink:href="../../db/d97/class_box_world.html#a6794c083c2a0263c2f585f4ae4b7e39c" target="_top" xlink:title="BoxWorld.updateSprites">
<polygon fill="white" stroke="black" points="646.5,-104.5 646.5,-123.5 777.5,-123.5 777.5,-104.5 646.5,-104.5"/>
<text text-anchor="middle" x="712" y="-111.5" font-family="Helvetica,sans-Serif" font-size="10.00">BoxWorld.updateSprites</text>
</a>
</g>
</g>
<!-- Node4&#45;&gt;Node5 -->
<g id="edge4" class="edge"><title>Node4&#45;&gt;Node5</title>
<path fill="none" stroke="midnightblue" d="M591.505,-140.247C615.967,-134.874 644.571,-128.591 667.659,-123.52"/>
<polygon fill="midnightblue" stroke="midnightblue" points="590.671,-136.847 581.655,-142.411 592.173,-143.684 590.671,-136.847"/>
</g>
<!-- Node6 -->
<g id="node6" class="node"><title>Node6</title>
<g id="a_node6"><a xlink:href="../../db/d97/class_box_world.html#ad20a4e43406c44f4bbf201d1d1028998" target="_top" xlink:title="BoxWorld.start">
<polygon fill="white" stroke="black" points="814,-104.5 814,-123.5 900,-123.5 900,-104.5 814,-104.5"/>
<text text-anchor="middle" x="857" y="-111.5" font-family="Helvetica,sans-Serif" font-size="10.00">BoxWorld.start</text>
</a>
</g>
</g>
<!-- Node5&#45;&gt;Node6 -->
<g id="edge5" class="edge"><title>Node5&#45;&gt;Node6</title>
<path fill="none" stroke="midnightblue" d="M787.898,-114C796.837,-114 805.705,-114 813.941,-114"/>
<polygon fill="midnightblue" stroke="midnightblue" points="787.806,-110.5 777.806,-114 787.806,-117.5 787.806,-110.5"/>
</g>
<!-- Node6&#45;&gt;Node2 -->
<g id="edge15" class="edge"><title>Node6&#45;&gt;Node2</title>
<path fill="none" stroke="midnightblue" d="M839.798,-97.3218C825.142,-83.5203 802.204,-64.9395 778,-57 604.171,0.0206456 381.497,-30.0488 285.957,-47.446"/>
<polygon fill="midnightblue" stroke="midnightblue" points="837.444,-99.9154 847.043,-104.4 842.335,-94.9081 837.444,-99.9154"/>
</g>
<!-- Node6&#45;&gt;Node7 -->
<g id="edge6" class="edge"><title>Node6&#45;&gt;Node7</title>
<path fill="none" stroke="midnightblue" d="M897.153,-101.174C912.718,-96.0753 930.314,-90.3109 944.738,-85.5859"/>
<polygon fill="midnightblue" stroke="midnightblue" points="895.685,-97.9718 887.272,-104.411 897.864,-104.624 895.685,-97.9718"/>
</g>
<!-- Node8 -->
<g id="node8" class="node"><title>Node8</title>
<g id="a_node8"><a xlink:href="../../d2/db8/class_menu.html#a3c99ad09e9f2f975c1a0d0597642651a" target="_top" xlink:title="Menu.init">
<polygon fill="white" stroke="black" points="1050,-66.5 1050,-85.5 1110,-85.5 1110,-66.5 1050,-66.5"/>
<text text-anchor="middle" x="1080" y="-73.5" font-family="Helvetica,sans-Serif" font-size="10.00">Menu.init</text>
</a>
</g>
</g>
<!-- Node7&#45;&gt;Node8 -->
<g id="edge7" class="edge"><title>Node7&#45;&gt;Node8</title>
<path fill="none" stroke="midnightblue" d="M1024.03,-76C1032.89,-76 1041.87,-76 1049.95,-76"/>
<polygon fill="midnightblue" stroke="midnightblue" points="1023.77,-72.5001 1013.77,-76 1023.77,-79.5001 1023.77,-72.5001"/>
</g>
<!-- Node9 -->
<g id="node9" class="node"><title>Node9</title>
<g id="a_node9"><a xlink:href="../../d1/de1/class_end_screen.html#a1264ffb72b3a3032443f9c4087222aef" target="_top" xlink:title="EndScreen.init">
<polygon fill="white" stroke="black" points="1148,-28.5 1148,-47.5 1234,-47.5 1234,-28.5 1148,-28.5"/>
<text text-anchor="middle" x="1191" y="-35.5" font-family="Helvetica,sans-Serif" font-size="10.00">EndScreen.init</text>
</a>
</g>
</g>
<!-- Node8&#45;&gt;Node9 -->
<g id="edge8" class="edge"><title>Node8&#45;&gt;Node9</title>
<path fill="none" stroke="midnightblue" d="M1118.21,-63.0282C1132.73,-57.9656 1149.08,-52.2659 1162.5,-47.5859"/>
<polygon fill="midnightblue" stroke="midnightblue" points="1116.8,-59.8141 1108.51,-66.411 1119.1,-66.4239 1116.8,-59.8141"/>
</g>
<!-- Node12 -->
<g id="node12" class="node"><title>Node12</title>
<g id="a_node12"><a xlink:href="../../d4/d2f/class_lose_screen.html#a34f2cc2c803500316c9b8d854854d758" target="_top" xlink:title="LoseScreen.init">
<polygon fill="white" stroke="black" points="1146,-66.5 1146,-85.5 1236,-85.5 1236,-66.5 1146,-66.5"/>
<text text-anchor="middle" x="1191" y="-73.5" font-family="Helvetica,sans-Serif" font-size="10.00">LoseScreen.init</text>
</a>
</g>
</g>
<!-- Node8&#45;&gt;Node12 -->
<g id="edge11" class="edge"><title>Node8&#45;&gt;Node12</title>
<path fill="none" stroke="midnightblue" d="M1120.38,-76C1128.68,-76 1137.48,-76 1145.94,-76"/>
<polygon fill="midnightblue" stroke="midnightblue" points="1120.21,-72.5001 1110.21,-76 1120.21,-79.5001 1120.21,-72.5001"/>
</g>
<!-- Node14 -->
<g id="node14" class="node"><title>Node14</title>
<g id="a_node14"><a xlink:href="../../d0/d4b/class_main.html#a7595d13c514a02c35aca322dd91d2063" target="_top" xlink:title="Main.start">
<polygon fill="white" stroke="black" points="1158.5,-104.5 1158.5,-123.5 1223.5,-123.5 1223.5,-104.5 1158.5,-104.5"/>
<text text-anchor="middle" x="1191" y="-111.5" font-family="Helvetica,sans-Serif" font-size="10.00">Main.start</text>
</a>
</g>
</g>
<!-- Node8&#45;&gt;Node14 -->
<g id="edge14" class="edge"><title>Node8&#45;&gt;Node14</title>
<path fill="none" stroke="midnightblue" d="M1118.21,-88.9718C1132.73,-94.0344 1149.08,-99.7341 1162.5,-104.414"/>
<polygon fill="midnightblue" stroke="midnightblue" points="1119.1,-85.5761 1108.51,-85.589 1116.8,-92.1859 1119.1,-85.5761"/>
</g>
<!-- Node10 -->
<g id="node10" class="node"><title>Node10</title>
<g id="a_node10"><a xlink:href="../../d6/d4f/class_item_box_world.html#a2ed12a6b39993faedc05cc682204476d" target="_top" xlink:title="ItemBoxWorld.winLevel">
<polygon fill="white" stroke="black" points="1272.5,-28.5 1272.5,-47.5 1397.5,-47.5 1397.5,-28.5 1272.5,-28.5"/>
<text text-anchor="middle" x="1335" y="-35.5" font-family="Helvetica,sans-Serif" font-size="10.00">ItemBoxWorld.winLevel</text>
</a>
</g>
</g>
<!-- Node9&#45;&gt;Node10 -->
<g id="edge9" class="edge"><title>Node9&#45;&gt;Node10</title>
<path fill="none" stroke="midnightblue" d="M1244.34,-38C1253.5,-38 1263.11,-38 1272.5,-38"/>
<polygon fill="midnightblue" stroke="midnightblue" points="1244.22,-34.5001 1234.22,-38 1244.22,-41.5001 1244.22,-34.5001"/>
</g>
<!-- Node11 -->
<g id="node11" class="node"><title>Node11</title>
<g id="a_node11"><a xlink:href="../../d6/d4f/class_item_box_world.html#ae442d947b4dafc944336ee27628d2175" target="_top" xlink:title="ItemBoxWorld.handleKeyInput">
<polygon fill="white" stroke="black" points="1434,-28.5 1434,-47.5 1592,-47.5 1592,-28.5 1434,-28.5"/>
<text text-anchor="middle" x="1513" y="-35.5" font-family="Helvetica,sans-Serif" font-size="10.00">ItemBoxWorld.handleKeyInput</text>
</a>
</g>
</g>
<!-- Node10&#45;&gt;Node11 -->
<g id="edge10" class="edge"><title>Node10&#45;&gt;Node11</title>
<path fill="none" stroke="midnightblue" d="M1407.57,-38C1416.2,-38 1425.05,-38 1433.77,-38"/>
<polygon fill="midnightblue" stroke="midnightblue" points="1407.56,-34.5001 1397.56,-38 1407.56,-41.5001 1407.56,-34.5001"/>
</g>
<!-- Node13 -->
<g id="node13" class="node"><title>Node13</title>
<g id="a_node13"><a xlink:href="../../db/d97/class_box_world.html#a72bacb2a6757900d8835249929fcc838" target="_top" xlink:title="BoxWorld.loseGame">
<polygon fill="white" stroke="black" points="1279,-104.5 1279,-123.5 1391,-123.5 1391,-104.5 1279,-104.5"/>
<text text-anchor="middle" x="1335" y="-111.5" font-family="Helvetica,sans-Serif" font-size="10.00">BoxWorld.loseGame</text>
</a>
</g>
</g>
<!-- Node12&#45;&gt;Node13 -->
<g id="edge12" class="edge"><title>Node12&#45;&gt;Node13</title>
<path fill="none" stroke="midnightblue" d="M1237.49,-88.1742C1257.13,-93.4287 1279.77,-99.4866 1298.18,-104.414"/>
<polygon fill="midnightblue" stroke="midnightblue" points="1238.4,-84.7931 1227.83,-85.589 1236.59,-91.5552 1238.4,-84.7931"/>
</g>
<!-- Node13&#45;&gt;Node4 -->
<g id="edge13" class="edge"><title>Node13&#45;&gt;Node4</title>
<path fill="none" stroke="midnightblue" d="M1284.8,-125.833C1234.05,-136.986 1152.47,-152 1081,-152 856,-152 856,-152 856,-152 771.669,-152 674.759,-152 610.305,-152"/>
<polygon fill="midnightblue" stroke="midnightblue" points="1285.84,-129.187 1294.83,-123.589 1284.31,-122.356 1285.84,-129.187"/>
</g>
<!-- Node16 -->
<g id="node16" class="node"><title>Node16</title>
<g id="a_node16"><a xlink:href="../../db/d97/class_box_world.html#a726e747e023543658d7a345cc6466ccb" target="_top" xlink:title="BoxWorld.createScene">
<polygon fill="white" stroke="black" points="650,-66.5 650,-85.5 774,-85.5 774,-66.5 650,-66.5"/>
<text text-anchor="middle" x="712" y="-73.5" font-family="Helvetica,sans-Serif" font-size="10.00">BoxWorld.createScene</text>
</a>
</g>
</g>
<!-- Node15&#45;&gt;Node16 -->
<g id="edge17" class="edge"><title>Node15&#45;&gt;Node16</title>
<path fill="none" stroke="midnightblue" d="M591.505,-102.247C615.967,-96.8742 644.571,-90.5914 667.659,-85.5201"/>
<polygon fill="midnightblue" stroke="midnightblue" points="590.671,-98.847 581.655,-104.411 592.173,-105.684 590.671,-98.847"/>
</g>
<!-- Node16&#45;&gt;Node2 -->
<g id="edge19" class="edge"><title>Node16&#45;&gt;Node2</title>
<path fill="none" stroke="midnightblue" d="M639.944,-73.1397C542.905,-69.2335 371.45,-62.3317 287.735,-58.9618"/>
<polygon fill="midnightblue" stroke="midnightblue" points="639.826,-76.6377 649.959,-73.5428 640.108,-69.6434 639.826,-76.6377"/>
</g>
<!-- Node16&#45;&gt;Node7 -->
<g id="edge18" class="edge"><title>Node16&#45;&gt;Node7</title>
<path fill="none" stroke="midnightblue" d="M784.43,-76C833.468,-76 896.612,-76 936.209,-76"/>
<polygon fill="midnightblue" stroke="midnightblue" points="784.193,-72.5001 774.193,-76 784.193,-79.5001 784.193,-72.5001"/>
</g>
</g>
</svg>
