<?xml version="1.0" encoding="UTF-8" standalone="no"?>
<!DOCTYPE svg PUBLIC "-//W3C//DTD SVG 1.1//EN"
 "http://www.w3.org/Graphics/SVG/1.1/DTD/svg11.dtd">
<!-- Generated by graphviz version 2.36.0 (20140111.2315)
 -->
<!-- Title: BoxWorld.init Pages: 1 -->
<!--zoomable 322 -->
<svg id="main" version="1.1" xmlns="http://www.w3.org/2000/svg" xmlns:xlink="http://www.w3.org/1999/xlink" xml:space="preserve" onload="init(evt)">
<style type="text/css"><![CDATA[
.edge:hover path { stroke: red; }
.edge:hover polygon { stroke: red; fill: red; }
]]></style>
<script type="text/javascript"><![CDATA[
var edges = document.getElementsByTagName('g');
if (edges && edges.length) {
  for (var i=0;i<edges.length;i++) {
    if (edges[i].id.substr(0,4)=='edge') {
      edges[i].setAttribute('class','edge');
    }
  }
}
]]></script>
        <defs>
                <circle id="rim" cx="0" cy="0" r="7"/>
                <circle id="rim2" cx="0" cy="0" r="3.5"/>
                <g id="zoomPlus">
                        <use xlink:href="#rim" fill="#404040">
                                <set attributeName="fill" to="#808080" begin="zoomplus.mouseover" end="zoomplus.mouseout"/>
                        </use>
                        <path d="M-4,0h8M0,-4v8" fill="none" stroke="white" stroke-width="1.5" pointer-events="none"/>
                </g>
                <g id="zoomMin">
                        <use xlink:href="#rim" fill="#404040">
                                <set attributeName="fill" to="#808080" begin="zoomminus.mouseover" end="zoomminus.mouseout"/>
                        </use>
                        <path d="M-4,0h8" fill="none" stroke="white" stroke-width="1.5" pointer-events="none"/>
                </g>
                <g id="dirArrow">
                        <path fill="none" stroke="white" stroke-width="1.5" d="M0,-3.0v7 M-2.5,-0.5L0,-3.0L2.5,-0.5"/>
                </g>
               <g id="resetDef">
                       <use xlink:href="#rim2" fill="#404040">
                               <set attributeName="fill" to="#808080" begin="reset.mouseover" end="reset.mouseout"/>
                       </use>
               </g>
        </defs>

<script type="text/javascript">
var viewWidth = 1872;
var viewHeight = 322;
var sectionId = 'dynsection-16';
</script>
<script xlink:href="../../svgpan.js"/>
<svg id="graph" class="graph">
<g id="viewport">
<title>BoxWorld.init</title>
<polygon fill="white" stroke="none" points="-4,4 -4,-318.377 1868,-318.377 1868,4 -4,4"/>
<!-- Node1 -->
<g id="node1" class="node"><title>Node1</title>
<polygon fill="#bfbfbf" stroke="black" points="0.5,-199.5 0.5,-218.5 77.5,-218.5 77.5,-199.5 0.5,-199.5"/>
<text text-anchor="middle" x="39" y="-206.5" font-family="Helvetica,sans-Serif" font-size="10.00">BoxWorld.init</text>
</g>
<!-- Node2 -->
<g id="node2" class="node"><title>Node2</title>
<g id="a_node2"><a xlink:href="../../db/d97/class_box_world.html#a69798621c944e846f045aaf3937505f9" target="_top" xlink:title="BoxWorld.addStarterObjects">
<polygon fill="white" stroke="black" points="736.5,-256.5 736.5,-275.5 887.5,-275.5 887.5,-256.5 736.5,-256.5"/>
<text text-anchor="middle" x="812" y="-263.5" font-family="Helvetica,sans-Serif" font-size="10.00">BoxWorld.addStarterObjects</text>
</a>
</g>
</g>
<!-- Node1&#45;&gt;Node2 -->
<g id="edge1" class="edge"><title>Node1&#45;&gt;Node2</title>
<path fill="none" stroke="midnightblue" d="M64.3272,-218.521C78.6029,-223.778 97.1029,-230.028 114,-234 216.183,-258.018 243.032,-266 348,-266 348,-266 348,-266 513,-266 584.893,-266 666.542,-266 726.173,-266"/>
<polygon fill="midnightblue" stroke="midnightblue" points="726.295,-269.5 736.294,-266 726.294,-262.5 726.295,-269.5"/>
</g>
<!-- Node4 -->
<g id="node4" class="node"><title>Node4</title>
<g id="a_node4"><a xlink:href="../../db/d97/class_box_world.html#a726e747e023543658d7a345cc6466ccb" target="_top" xlink:title="BoxWorld.createScene">
<polygon fill="white" stroke="black" points="114,-161.5 114,-180.5 238,-180.5 238,-161.5 114,-161.5"/>
<text text-anchor="middle" x="176" y="-168.5" font-family="Helvetica,sans-Serif" font-size="10.00">BoxWorld.createScene</text>
</a>
</g>
</g>
<!-- Node1&#45;&gt;Node4 -->
<g id="edge3" class="edge"><title>Node1&#45;&gt;Node4</title>
<path fill="none" stroke="midnightblue" d="M74.0662,-199.411C91.4135,-194.528 112.702,-188.536 131.249,-183.315"/>
<polygon fill="midnightblue" stroke="midnightblue" points="132.267,-186.665 140.945,-180.586 130.37,-179.926 132.267,-186.665"/>
</g>
<!-- Node19 -->
<g id="node19" class="node"><title>Node19</title>
<g id="a_node19"><a xlink:href="../../db/d97/class_box_world.html#ad20a4e43406c44f4bbf201d1d1028998" target="_top" xlink:title="BoxWorld.start">
<polygon fill="white" stroke="black" points="769,-218.5 769,-237.5 855,-237.5 855,-218.5 769,-218.5"/>
<text text-anchor="middle" x="812" y="-225.5" font-family="Helvetica,sans-Serif" font-size="10.00">BoxWorld.start</text>
</a>
</g>
</g>
<!-- Node1&#45;&gt;Node19 -->
<g id="edge41" class="edge"><title>Node1&#45;&gt;Node19</title>
<path fill="none" stroke="midnightblue" d="M77.8868,-212.845C135.957,-218.397 250.496,-228 348,-228 348,-228 348,-228 513,-228 598.898,-228 698.724,-228 758.28,-228"/>
<polygon fill="midnightblue" stroke="midnightblue" points="758.56,-231.5 768.56,-228 758.56,-224.5 758.56,-231.5"/>
</g>
<!-- Node3 -->
<g id="node3" class="node"><title>Node3</title>
<g id="a_node3"><a xlink:href="../../db/d97/class_box_world.html#a2542cc74ebeba6a9768a443a55186901" target="_top" xlink:title="BoxWorld.createObstacleArray">
<polygon fill="white" stroke="black" points="924.5,-294.5 924.5,-313.5 1085.5,-313.5 1085.5,-294.5 924.5,-294.5"/>
<text text-anchor="middle" x="1005" y="-301.5" font-family="Helvetica,sans-Serif" font-size="10.00">BoxWorld.createObstacleArray</text>
</a>
</g>
</g>
<!-- Node2&#45;&gt;Node3 -->
<g id="edge2" class="edge"><title>Node2&#45;&gt;Node3</title>
<path fill="none" stroke="midnightblue" d="M861.197,-275.589C886.97,-280.716 918.891,-287.067 946.012,-292.463"/>
<polygon fill="midnightblue" stroke="midnightblue" points="945.658,-295.961 956.149,-294.48 947.024,-289.096 945.658,-295.961"/>
</g>
<!-- Node5 -->
<g id="node5" class="node"><title>Node5</title>
<g id="a_node5"><a xlink:href="../../db/d97/class_box_world.html#aa7e2049d7be23e15fd2ec7fa2922ed79" target="_top" xlink:title="BoxWorld.handleKeyInput">
<polygon fill="white" stroke="black" points="281,-104.5 281,-123.5 417,-123.5 417,-104.5 281,-104.5"/>
<text text-anchor="middle" x="349" y="-111.5" font-family="Helvetica,sans-Serif" font-size="10.00">BoxWorld.handleKeyInput</text>
</a>
</g>
</g>
<!-- Node4&#45;&gt;Node5 -->
<g id="edge4" class="edge"><title>Node4&#45;&gt;Node5</title>
<path fill="none" stroke="midnightblue" d="M199.066,-161.464C218.548,-153.261 247.839,-141.448 274,-133 281.455,-130.593 289.409,-128.285 297.235,-126.159"/>
<polygon fill="midnightblue" stroke="midnightblue" points="298.258,-129.508 307.032,-123.569 296.469,-122.741 298.258,-129.508"/>
</g>
<!-- Node30 -->
<g id="node30" class="node"><title>Node30</title>
<g id="a_node30"><a xlink:href="../../db/d97/class_box_world.html#a2d44485a181577acb4d79b6b81f26fff" target="_top" xlink:title="BoxWorld.handleKeyRelease">
<polygon fill="white" stroke="black" points="274.5,-142.5 274.5,-161.5 423.5,-161.5 423.5,-142.5 274.5,-142.5"/>
<text text-anchor="middle" x="349" y="-149.5" font-family="Helvetica,sans-Serif" font-size="10.00">BoxWorld.handleKeyRelease</text>
</a>
</g>
</g>
<!-- Node4&#45;&gt;Node30 -->
<g id="edge40" class="edge"><title>Node4&#45;&gt;Node30</title>
<path fill="none" stroke="midnightblue" d="M238.252,-164.194C246.655,-163.261 255.399,-162.289 264.121,-161.32"/>
<polygon fill="midnightblue" stroke="midnightblue" points="264.775,-164.769 274.327,-160.186 264.002,-157.812 264.775,-164.769"/>
</g>
<!-- Node6 -->
<g id="node6" class="node"><title>Node6</title>
<g id="a_node6"><a xlink:href="../../db/d97/class_box_world.html#adc4c9d78ffde3d052c4c92047eb98e55" target="_top" xlink:title="BoxWorld.allowMovement">
<polygon fill="white" stroke="black" points="1322.5,-104.5 1322.5,-123.5 1459.5,-123.5 1459.5,-104.5 1322.5,-104.5"/>
<text text-anchor="middle" x="1391" y="-111.5" font-family="Helvetica,sans-Serif" font-size="10.00">BoxWorld.allowMovement</text>
</a>
</g>
</g>
<!-- Node5&#45;&gt;Node6 -->
<g id="edge5" class="edge"><title>Node5&#45;&gt;Node6</title>
<path fill="none" stroke="midnightblue" d="M372.016,-104.375C420.862,-83.924 542.415,-38 649,-38 649,-38 649,-38 1006,-38 1130.73,-38 1166.29,-21.9838 1286,-57 1316.68,-65.9724 1348.39,-85.0208 1368.6,-98.6271"/>
<polygon fill="midnightblue" stroke="midnightblue" points="1366.81,-101.646 1377.03,-104.44 1370.79,-95.8829 1366.81,-101.646"/>
</g>
<!-- Node11 -->
<g id="node11" class="node"><title>Node11</title>
<g id="a_node11"><a xlink:href="../../db/d97/class_box_world.html#a04c6bf977c4292a5433649fb3745fd6b" target="_top" xlink:title="BoxWorld.reset">
<polygon fill="white" stroke="black" points="961,-104.5 961,-123.5 1049,-123.5 1049,-104.5 961,-104.5"/>
<text text-anchor="middle" x="1005" y="-111.5" font-family="Helvetica,sans-Serif" font-size="10.00">BoxWorld.reset</text>
</a>
</g>
</g>
<!-- Node5&#45;&gt;Node11 -->
<g id="edge10" class="edge"><title>Node5&#45;&gt;Node11</title>
<path fill="none" stroke="midnightblue" d="M417.221,-114C547.58,-114 832.305,-114 950.704,-114"/>
<polygon fill="midnightblue" stroke="midnightblue" points="950.961,-117.5 960.961,-114 950.961,-110.5 950.961,-117.5"/>
</g>
<!-- Node12 -->
<g id="node12" class="node"><title>Node12</title>
<g id="a_node12"><a xlink:href="../../da/de2/class_sticky_box.html#aa1bb8f78f676b01c688d75d386758444" target="_top" xlink:title="StickyBox.setDirection">
<polygon fill="white" stroke="black" points="1142,-66.5 1142,-85.5 1266,-85.5 1266,-66.5 1142,-66.5"/>
<text text-anchor="middle" x="1204" y="-73.5" font-family="Helvetica,sans-Serif" font-size="10.00">StickyBox.setDirection</text>
</a>
</g>
</g>
<!-- Node5&#45;&gt;Node12 -->
<g id="edge13" class="edge"><title>Node5&#45;&gt;Node12</title>
<path fill="none" stroke="midnightblue" d="M396.124,-104.46C454.66,-93.2037 558.866,-76 649,-76 649,-76 649,-76 813,-76 924.292,-76 1053.45,-76 1131.65,-76"/>
<polygon fill="midnightblue" stroke="midnightblue" points="1131.87,-79.5001 1141.87,-76 1131.87,-72.5001 1131.87,-79.5001"/>
</g>
<!-- Node14 -->
<g id="node14" class="node"><title>Node14</title>
<g id="a_node14"><a xlink:href="../../db/d97/class_box_world.html#aad670712776afe126e51791097027e05" target="_top" xlink:title="BoxWorld.winLevel">
<polygon fill="white" stroke="black" points="460.5,-142.5 460.5,-161.5 563.5,-161.5 563.5,-142.5 460.5,-142.5"/>
<text text-anchor="middle" x="512" y="-149.5" font-family="Helvetica,sans-Serif" font-size="10.00">BoxWorld.winLevel</text>
</a>
</g>
</g>
<!-- Node5&#45;&gt;Node14 -->
<g id="edge14" class="edge"><title>Node5&#45;&gt;Node14</title>
<path fill="none" stroke="midnightblue" d="M390.627,-123.589C411.968,-128.626 438.312,-134.844 460.908,-140.177"/>
<polygon fill="midnightblue" stroke="midnightblue" points="460.128,-143.589 470.665,-142.48 461.736,-136.776 460.128,-143.589"/>
</g>
<!-- Node7 -->
<g id="node7" class="node"><title>Node7</title>
<g id="a_node7"><a xlink:href="../../da/de2/class_sticky_box.html#a6ba3f89630df9d81df5644a3e5f4e387" target="_top" xlink:title="StickyBox.getXDirection">
<polygon fill="white" stroke="black" points="1496.5,-218.5 1496.5,-237.5 1627.5,-237.5 1627.5,-218.5 1496.5,-218.5"/>
<text text-anchor="middle" x="1562" y="-225.5" font-family="Helvetica,sans-Serif" font-size="10.00">StickyBox.getXDirection</text>
</a>
</g>
</g>
<!-- Node6&#45;&gt;Node7 -->
<g id="edge6" class="edge"><title>Node6&#45;&gt;Node7</title>
<path fill="none" stroke="midnightblue" d="M1406.12,-123.523C1435.25,-143.173 1502.26,-188.373 1537.83,-212.37"/>
<polygon fill="midnightblue" stroke="midnightblue" points="1536.32,-215.571 1546.56,-218.262 1540.23,-209.768 1536.32,-215.571"/>
</g>
<!-- Node8 -->
<g id="node8" class="node"><title>Node8</title>
<g id="a_node8"><a xlink:href="../../da/de2/class_sticky_box.html#ab0bd7cafb7f243e3951558ddb8728b96" target="_top" xlink:title="StickyBox.getXPrev">
<polygon fill="white" stroke="black" points="1507.5,-66.5 1507.5,-85.5 1616.5,-85.5 1616.5,-66.5 1507.5,-66.5"/>
<text text-anchor="middle" x="1562" y="-73.5" font-family="Helvetica,sans-Serif" font-size="10.00">StickyBox.getXPrev</text>
</a>
</g>
</g>
<!-- Node6&#45;&gt;Node8 -->
<g id="edge7" class="edge"><title>Node6&#45;&gt;Node8</title>
<path fill="none" stroke="midnightblue" d="M1434.65,-104.411C1457.15,-99.3513 1484.95,-93.1004 1508.74,-87.7512"/>
<polygon fill="midnightblue" stroke="midnightblue" points="1509.67,-91.1286 1518.66,-85.5201 1508.14,-84.2991 1509.67,-91.1286"/>
</g>
<!-- Node9 -->
<g id="node9" class="node"><title>Node9</title>
<g id="a_node9"><a xlink:href="../../da/de2/class_sticky_box.html#a69e5ccf2a79159c03dea2e048df13318" target="_top" xlink:title="StickyBox.getYDirection">
<polygon fill="white" stroke="black" points="1497,-142.5 1497,-161.5 1627,-161.5 1627,-142.5 1497,-142.5"/>
<text text-anchor="middle" x="1562" y="-149.5" font-family="Helvetica,sans-Serif" font-size="10.00">StickyBox.getYDirection</text>
</a>
</g>
</g>
<!-- Node6&#45;&gt;Node9 -->
<g id="edge8" class="edge"><title>Node6&#45;&gt;Node9</title>
<path fill="none" stroke="midnightblue" d="M1434.65,-123.589C1457.15,-128.649 1484.95,-134.9 1508.74,-140.249"/>
<polygon fill="midnightblue" stroke="midnightblue" points="1508.14,-143.701 1518.66,-142.48 1509.67,-136.871 1508.14,-143.701"/>
</g>
<!-- Node10 -->
<g id="node10" class="node"><title>Node10</title>
<g id="a_node10"><a xlink:href="../../da/de2/class_sticky_box.html#a4c6abed944faed9d9b226079e99cfc24" target="_top" xlink:title="StickyBox.getYPrev">
<polygon fill="white" stroke="black" points="1508,-104.5 1508,-123.5 1616,-123.5 1616,-104.5 1508,-104.5"/>
<text text-anchor="middle" x="1562" y="-111.5" font-family="Helvetica,sans-Serif" font-size="10.00">StickyBox.getYPrev</text>
</a>
</g>
</g>
<!-- Node6&#45;&gt;Node10 -->
<g id="edge9" class="edge"><title>Node6&#45;&gt;Node10</title>
<path fill="none" stroke="midnightblue" d="M1459.76,-114C1472.25,-114 1485.24,-114 1497.59,-114"/>
<polygon fill="midnightblue" stroke="midnightblue" points="1497.78,-117.5 1507.78,-114 1497.78,-110.5 1497.78,-117.5"/>
</g>
<!-- Node11&#45;&gt;Node12 -->
<g id="edge11" class="edge"><title>Node11&#45;&gt;Node12</title>
<path fill="none" stroke="midnightblue" d="M1049.23,-105.661C1076.91,-100.322 1113.2,-93.3223 1143.57,-87.4637"/>
<polygon fill="midnightblue" stroke="midnightblue" points="1144.47,-90.8554 1153.62,-85.5246 1143.14,-83.9821 1144.47,-90.8554"/>
</g>
<!-- Node13 -->
<g id="node13" class="node"><title>Node13</title>
<g id="a_node13"><a xlink:href="../../da/de2/class_sticky_box.html#a5d95d2ed2e13f0d87a44311db77f9e36" target="_top" xlink:title="StickyBox.setPreviousDirection">
<polygon fill="white" stroke="black" points="1122,-104.5 1122,-123.5 1286,-123.5 1286,-104.5 1122,-104.5"/>
<text text-anchor="middle" x="1204" y="-111.5" font-family="Helvetica,sans-Serif" font-size="10.00">StickyBox.setPreviousDirection</text>
</a>
</g>
</g>
<!-- Node11&#45;&gt;Node13 -->
<g id="edge12" class="edge"><title>Node11&#45;&gt;Node13</title>
<path fill="none" stroke="midnightblue" d="M1049.23,-114C1067.61,-114 1089.79,-114 1111.52,-114"/>
<polygon fill="midnightblue" stroke="midnightblue" points="1111.78,-117.5 1121.78,-114 1111.78,-110.5 1111.78,-117.5"/>
</g>
<!-- Node15 -->
<g id="node15" class="node"><title>Node15</title>
<g id="a_node15"><a xlink:href="../../d6/d4f/class_item_box_world.html#aa559fc2680327b41fb376e2eda8e82e3" target="_top" xlink:title="ItemBoxWorld.init">
<polygon fill="white" stroke="black" points="600.5,-180.5 600.5,-199.5 699.5,-199.5 699.5,-180.5 600.5,-180.5"/>
<text text-anchor="middle" x="650" y="-187.5" font-family="Helvetica,sans-Serif" font-size="10.00">ItemBoxWorld.init</text>
</a>
</g>
</g>
<!-- Node14&#45;&gt;Node15 -->
<g id="edge15" class="edge"><title>Node14&#45;&gt;Node15</title>
<path fill="none" stroke="midnightblue" d="M547.319,-161.589C564.794,-166.472 586.241,-172.464 604.925,-177.685"/>
<polygon fill="midnightblue" stroke="midnightblue" points="604.119,-181.094 614.692,-180.414 606.003,-174.352 604.119,-181.094"/>
</g>
<!-- Node15&#45;&gt;Node2 -->
<g id="edge16" class="edge"><title>Node15&#45;&gt;Node2</title>
<path fill="none" stroke="midnightblue" d="M662.615,-199.705C678.308,-212.351 707.601,-234.338 736,-247 741.423,-249.418 747.209,-251.567 753.071,-253.469"/>
<polygon fill="midnightblue" stroke="midnightblue" points="752.375,-256.914 762.959,-256.438 754.388,-250.21 752.375,-256.914"/>
</g>
<!-- Node15&#45;&gt;Node4 -->
<g id="edge39" class="edge"><title>Node15&#45;&gt;Node4</title>
<path fill="none" stroke="midnightblue" d="M600.411,-188.044C516.803,-184.679 345.376,-177.778 248.247,-173.868"/>
<polygon fill="midnightblue" stroke="midnightblue" points="248.355,-170.37 238.222,-173.464 248.073,-177.364 248.355,-170.37"/>
</g>
<!-- Node16 -->
<g id="node16" class="node"><title>Node16</title>
<g id="a_node16"><a xlink:href="../../d6/d4f/class_item_box_world.html#a7ead15fd9fd8095f928640161d48fdf8" target="_top" xlink:title="ItemBoxWorld.addAllItems">
<polygon fill="white" stroke="black" points="741.5,-180.5 741.5,-199.5 882.5,-199.5 882.5,-180.5 741.5,-180.5"/>
<text text-anchor="middle" x="812" y="-187.5" font-family="Helvetica,sans-Serif" font-size="10.00">ItemBoxWorld.addAllItems</text>
</a>
</g>
</g>
<!-- Node15&#45;&gt;Node16 -->
<g id="edge17" class="edge"><title>Node15&#45;&gt;Node16</title>
<path fill="none" stroke="midnightblue" d="M699.875,-190C709.764,-190 720.405,-190 731.045,-190"/>
<polygon fill="midnightblue" stroke="midnightblue" points="731.222,-193.5 741.222,-190 731.222,-186.5 731.222,-193.5"/>
</g>
<!-- Node15&#45;&gt;Node19 -->
<g id="edge20" class="edge"><title>Node15&#45;&gt;Node19</title>
<path fill="none" stroke="midnightblue" d="M691.375,-199.589C712.488,-204.604 738.529,-210.788 760.917,-216.105"/>
<polygon fill="midnightblue" stroke="midnightblue" points="760.377,-219.574 770.916,-218.48 761.995,-212.764 760.377,-219.574"/>
</g>
<!-- Node17 -->
<g id="node17" class="node"><title>Node17</title>
<g id="a_node17"><a xlink:href="../../d6/d4f/class_item_box_world.html#a1890e6c53a4a73e44e9528009fde508d" target="_top" xlink:title="ItemBoxWorld.itemExists">
<polygon fill="white" stroke="black" points="938,-180.5 938,-199.5 1072,-199.5 1072,-180.5 938,-180.5"/>
<text text-anchor="middle" x="1005" y="-187.5" font-family="Helvetica,sans-Serif" font-size="10.00">ItemBoxWorld.itemExists</text>
</a>
</g>
</g>
<!-- Node16&#45;&gt;Node17 -->
<g id="edge18" class="edge"><title>Node16&#45;&gt;Node17</title>
<path fill="none" stroke="midnightblue" d="M882.766,-190C897.399,-190 912.903,-190 927.758,-190"/>
<polygon fill="midnightblue" stroke="midnightblue" points="927.92,-193.5 937.92,-190 927.92,-186.5 927.92,-193.5"/>
</g>
<!-- Node18 -->
<g id="node18" class="node"><title>Node18</title>
<g id="a_node18"><a xlink:href="../../d6/d4f/class_item_box_world.html#af1bcde0672796e926560684004ed8e81" target="_top" xlink:title="ItemBoxWorld.addSingleItem">
<polygon fill="white" stroke="black" points="928,-218.5 928,-237.5 1082,-237.5 1082,-218.5 928,-218.5"/>
<text text-anchor="middle" x="1005" y="-225.5" font-family="Helvetica,sans-Serif" font-size="10.00">ItemBoxWorld.addSingleItem</text>
</a>
</g>
</g>
<!-- Node16&#45;&gt;Node18 -->
<g id="edge19" class="edge"><title>Node16&#45;&gt;Node18</title>
<path fill="none" stroke="midnightblue" d="M861.197,-199.589C886.97,-204.716 918.891,-211.067 946.012,-216.463"/>
<polygon fill="midnightblue" stroke="midnightblue" points="945.658,-219.961 956.149,-218.48 947.024,-213.096 945.658,-219.961"/>
</g>
<!-- Node20 -->
<g id="node20" class="node"><title>Node20</title>
<g id="a_node20"><a xlink:href="../../db/d97/class_box_world.html#a6794c083c2a0263c2f585f4ae4b7e39c" target="_top" xlink:title="BoxWorld.updateSprites">
<polygon fill="white" stroke="black" points="939.5,-256.5 939.5,-275.5 1070.5,-275.5 1070.5,-256.5 939.5,-256.5"/>
<text text-anchor="middle" x="1005" y="-263.5" font-family="Helvetica,sans-Serif" font-size="10.00">BoxWorld.updateSprites</text>
</a>
</g>
</g>
<!-- Node19&#45;&gt;Node20 -->
<g id="edge21" class="edge"><title>Node19&#45;&gt;Node20</title>
<path fill="none" stroke="midnightblue" d="M855.389,-236.433C882.031,-241.734 916.76,-248.643 945.945,-254.45"/>
<polygon fill="midnightblue" stroke="midnightblue" points="945.524,-257.935 956.015,-256.453 946.89,-251.069 945.524,-257.935"/>
</g>
<!-- Node20&#45;&gt;Node7 -->
<g id="edge35" class="edge"><title>Node20&#45;&gt;Node7</title>
<path fill="none" stroke="midnightblue" d="M1053.19,-275.513C1074.17,-279.278 1099.22,-283.147 1122,-285 1271.73,-297.181 1322,-344.357 1460,-285 1481.37,-275.808 1476.15,-259.128 1496,-247 1499.56,-244.828 1503.37,-242.893 1507.31,-241.172"/>
<polygon fill="midnightblue" stroke="midnightblue" points="1508.6,-244.424 1516.65,-237.53 1506.06,-237.902 1508.6,-244.424"/>
</g>
<!-- Node20&#45;&gt;Node9 -->
<g id="edge36" class="edge"><title>Node20&#45;&gt;Node9</title>
<path fill="none" stroke="midnightblue" d="M1070.08,-256.452C1075.81,-253.965 1081.23,-250.864 1086,-247 1115.04,-223.475 1090.86,-191.665 1122,-171 1179.81,-132.642 1377.07,-139.198 1486.45,-146.21"/>
<polygon fill="midnightblue" stroke="midnightblue" points="1486.55,-149.724 1496.75,-146.888 1487.01,-142.739 1486.55,-149.724"/>
</g>
<!-- Node20&#45;&gt;Node12 -->
<g id="edge37" class="edge"><title>Node20&#45;&gt;Node12</title>
<path fill="none" stroke="midnightblue" d="M1070.59,-257.631C1076.28,-254.92 1081.56,-251.443 1086,-247 1135.08,-197.894 1072.86,-144.038 1122,-95 1125.11,-91.901 1128.61,-89.2699 1132.39,-87.0393"/>
<polygon fill="midnightblue" stroke="midnightblue" points="1134.16,-90.0685 1141.6,-82.5297 1131.08,-83.7807 1134.16,-90.0685"/>
</g>
<!-- Node20&#45;&gt;Node13 -->
<g id="edge34" class="edge"><title>Node20&#45;&gt;Node13</title>
<path fill="none" stroke="midnightblue" d="M1070.59,-257.048C1076.22,-254.442 1081.48,-251.15 1086,-247 1123.59,-212.505 1085.37,-173.513 1122,-138 1126.08,-134.044 1130.78,-130.736 1135.82,-127.969"/>
<polygon fill="midnightblue" stroke="midnightblue" points="1137.64,-130.98 1145.2,-123.554 1134.66,-124.647 1137.64,-130.98"/>
</g>
<!-- Node21 -->
<g id="node21" class="node"><title>Node21</title>
<g id="a_node21"><a xlink:href="../../db/d97/class_box_world.html#a4079bed8937c9f621decfbe1309e31e2" target="_top" xlink:title="BoxWorld.checkAllCollisions">
<polygon fill="white" stroke="black" points="1131,-180.5 1131,-199.5 1277,-199.5 1277,-180.5 1131,-180.5"/>
<text text-anchor="middle" x="1204" y="-187.5" font-family="Helvetica,sans-Serif" font-size="10.00">BoxWorld.checkAllCollisions</text>
</a>
</g>
</g>
<!-- Node20&#45;&gt;Node21 -->
<g id="edge22" class="edge"><title>Node20&#45;&gt;Node21</title>
<path fill="none" stroke="midnightblue" d="M1064.35,-256.369C1071.9,-253.92 1079.32,-250.849 1086,-247 1106.16,-235.384 1101.83,-220.588 1122,-209 1125.91,-206.754 1130.07,-204.773 1134.36,-203.026"/>
<polygon fill="midnightblue" stroke="midnightblue" points="1135.71,-206.26 1143.92,-199.564 1133.33,-199.678 1135.71,-206.26"/>
</g>
<!-- Node28 -->
<g id="node28" class="node"><title>Node28</title>
<g id="a_node28"><a xlink:href="../../da/de2/class_sticky_box.html#a59337f0aa3c7379a2cb9c76bdc621daf" target="_top" xlink:title="StickyBox.setStuck">
<polygon fill="white" stroke="black" points="1150,-218.5 1150,-237.5 1258,-237.5 1258,-218.5 1150,-218.5"/>
<text text-anchor="middle" x="1204" y="-225.5" font-family="Helvetica,sans-Serif" font-size="10.00">StickyBox.setStuck</text>
</a>
</g>
</g>
<!-- Node20&#45;&gt;Node28 -->
<g id="edge33" class="edge"><title>Node20&#45;&gt;Node28</title>
<path fill="none" stroke="midnightblue" d="M1055.46,-256.46C1082.15,-251.31 1115.3,-244.916 1143.42,-239.494"/>
<polygon fill="midnightblue" stroke="midnightblue" points="1144.37,-242.875 1153.52,-237.544 1143.04,-236.001 1144.37,-242.875"/>
</g>
<!-- Node29 -->
<g id="node29" class="node"><title>Node29</title>
<g id="a_node29"><a xlink:href="../../da/de2/class_sticky_box.html#a185ee469367b376e6c5969a03d089d57" target="_top" xlink:title="StickyBox.move">
<polygon fill="white" stroke="black" points="1157.5,-256.5 1157.5,-275.5 1250.5,-275.5 1250.5,-256.5 1157.5,-256.5"/>
<text text-anchor="middle" x="1204" y="-263.5" font-family="Helvetica,sans-Serif" font-size="10.00">StickyBox.move</text>
</a>
</g>
</g>
<!-- Node20&#45;&gt;Node29 -->
<g id="edge38" class="edge"><title>Node20&#45;&gt;Node29</title>
<path fill="none" stroke="midnightblue" d="M1070.51,-266C1095.24,-266 1123.22,-266 1147.09,-266"/>
<polygon fill="midnightblue" stroke="midnightblue" points="1147.38,-269.5 1157.38,-266 1147.38,-262.5 1147.38,-269.5"/>
</g>
<!-- Node21&#45;&gt;Node14 -->
<g id="edge32" class="edge"><title>Node21&#45;&gt;Node14</title>
<path fill="none" stroke="midnightblue" d="M1153.08,-180.451C1132.4,-176.872 1108.12,-173.154 1086,-171 900.007,-152.889 678.63,-151.124 573.808,-151.469"/>
<polygon fill="midnightblue" stroke="midnightblue" points="573.716,-147.97 563.73,-151.511 573.744,-154.97 573.716,-147.97"/>
</g>
<!-- Node22 -->
<g id="node22" class="node"><title>Node22</title>
<g id="a_node22"><a xlink:href="../../db/d97/class_box_world.html#a55add11037cd6dc48556f2f42a9e11be" target="_top" xlink:title="BoxWorld.checkCollide">
<polygon fill="white" stroke="black" points="1330,-218.5 1330,-237.5 1452,-237.5 1452,-218.5 1330,-218.5"/>
<text text-anchor="middle" x="1391" y="-225.5" font-family="Helvetica,sans-Serif" font-size="10.00">BoxWorld.checkCollide</text>
</a>
</g>
</g>
<!-- Node21&#45;&gt;Node22 -->
<g id="edge23" class="edge"><title>Node21&#45;&gt;Node22</title>
<path fill="none" stroke="midnightblue" d="M1251.68,-199.589C1276.65,-204.716 1307.56,-211.067 1333.83,-216.463"/>
<polygon fill="midnightblue" stroke="midnightblue" points="1333.15,-219.896 1343.65,-218.48 1334.56,-213.039 1333.15,-219.896"/>
</g>
<!-- Node23 -->
<g id="node23" class="node"><title>Node23</title>
<g id="a_node23"><a xlink:href="../../db/d97/class_box_world.html#a72bacb2a6757900d8835249929fcc838" target="_top" xlink:title="BoxWorld.loseGame">
<polygon fill="white" stroke="black" points="1335,-256.5 1335,-275.5 1447,-275.5 1447,-256.5 1335,-256.5"/>
<text text-anchor="middle" x="1391" y="-263.5" font-family="Helvetica,sans-Serif" font-size="10.00">BoxWorld.loseGame</text>
</a>
</g>
</g>
<!-- Node21&#45;&gt;Node23 -->
<g id="edge26" class="edge"><title>Node21&#45;&gt;Node23</title>
<path fill="none" stroke="midnightblue" d="M1264.08,-199.564C1271.72,-202.023 1279.24,-205.115 1286,-209 1306.17,-220.588 1302.08,-234.99 1322,-247 1325.6,-249.171 1329.46,-251.102 1333.44,-252.817"/>
<polygon fill="midnightblue" stroke="midnightblue" points="1332.3,-256.128 1342.89,-256.441 1334.81,-249.592 1332.3,-256.128"/>
</g>
<!-- Node27 -->
<g id="node27" class="node"><title>Node27</title>
<g id="a_node27"><a xlink:href="../../db/d97/class_box_world.html#ae6ffad41f7ba6122234157c72afe8f9c" target="_top" xlink:title="BoxWorld.onScreen">
<polygon fill="white" stroke="black" points="1336.5,-180.5 1336.5,-199.5 1445.5,-199.5 1445.5,-180.5 1336.5,-180.5"/>
<text text-anchor="middle" x="1391" y="-187.5" font-family="Helvetica,sans-Serif" font-size="10.00">BoxWorld.onScreen</text>
</a>
</g>
</g>
<!-- Node21&#45;&gt;Node27 -->
<g id="edge31" class="edge"><title>Node21&#45;&gt;Node27</title>
<path fill="none" stroke="midnightblue" d="M1277.06,-190C1293.28,-190 1310.4,-190 1326.26,-190"/>
<polygon fill="midnightblue" stroke="midnightblue" points="1326.48,-193.5 1336.48,-190 1326.48,-186.5 1326.48,-193.5"/>
</g>
<!-- Node22&#45;&gt;Node7 -->
<g id="edge24" class="edge"><title>Node22&#45;&gt;Node7</title>
<path fill="none" stroke="midnightblue" d="M1452.06,-228C1463.03,-228 1474.6,-228 1485.94,-228"/>
<polygon fill="midnightblue" stroke="midnightblue" points="1486.26,-231.5 1496.26,-228 1486.26,-224.5 1486.26,-231.5"/>
</g>
<!-- Node22&#45;&gt;Node9 -->
<g id="edge25" class="edge"><title>Node22&#45;&gt;Node9</title>
<path fill="none" stroke="midnightblue" d="M1432.46,-218.426C1441.66,-215.775 1451.28,-212.616 1460,-209 1487.94,-197.414 1517.86,-179.8 1537.82,-167.221"/>
<polygon fill="midnightblue" stroke="midnightblue" points="1539.97,-170.002 1546.51,-161.667 1536.2,-164.105 1539.97,-170.002"/>
</g>
<!-- Node24 -->
<g id="node24" class="node"><title>Node24</title>
<g id="a_node24"><a xlink:href="../../d4/d2f/class_lose_screen.html#a34f2cc2c803500316c9b8d854854d758" target="_top" xlink:title="LoseScreen.init">
<polygon fill="white" stroke="black" points="1517,-256.5 1517,-275.5 1607,-275.5 1607,-256.5 1517,-256.5"/>
<text text-anchor="middle" x="1562" y="-263.5" font-family="Helvetica,sans-Serif" font-size="10.00">LoseScreen.init</text>
</a>
</g>
</g>
<!-- Node23&#45;&gt;Node24 -->
<g id="edge27" class="edge"><title>Node23&#45;&gt;Node24</title>
<path fill="none" stroke="midnightblue" d="M1447.34,-266C1466.34,-266 1487.59,-266 1506.53,-266"/>
<polygon fill="midnightblue" stroke="midnightblue" points="1506.78,-269.5 1516.78,-266 1506.78,-262.5 1506.78,-269.5"/>
</g>
<!-- Node25 -->
<g id="node25" class="node"><title>Node25</title>
<g id="a_node25"><a xlink:href="../../d2/db8/class_menu.html#a3c99ad09e9f2f975c1a0d0597642651a" target="_top" xlink:title="Menu.init">
<polygon fill="white" stroke="black" points="1664,-123.5 1664,-142.5 1724,-142.5 1724,-123.5 1664,-123.5"/>
<text text-anchor="middle" x="1694" y="-130.5" font-family="Helvetica,sans-Serif" font-size="10.00">Menu.init</text>
</a>
</g>
</g>
<!-- Node24&#45;&gt;Node25 -->
<g id="edge28" class="edge"><title>Node24&#45;&gt;Node25</title>
<path fill="none" stroke="midnightblue" d="M1607.2,-258.085C1614.64,-255.402 1621.91,-251.809 1628,-247 1659.44,-222.165 1678.36,-177.648 1687.12,-152.214"/>
<polygon fill="midnightblue" stroke="midnightblue" points="1690.49,-153.187 1690.26,-142.595 1683.83,-151.015 1690.49,-153.187"/>
</g>
<!-- Node25&#45;&gt;Node1 -->
<g id="edge30" class="edge"><title>Node25&#45;&gt;Node1</title>
<path fill="none" stroke="midnightblue" d="M1687.57,-123.374C1677.84,-107.053 1655.82,-74.0641 1628,-57 1536.02,-0.588406 1499.9,-0 1392,-0 348,-0 348,-0 348,-0 212.058,-0 91.5514,-141.134 52.9111,-191.446"/>
<polygon fill="midnightblue" stroke="midnightblue" points="50.0811,-189.386 46.8508,-199.477 55.6685,-193.603 50.0811,-189.386"/>
</g>
<!-- Node26 -->
<g id="node26" class="node"><title>Node26</title>
<g id="a_node26"><a xlink:href="../../d2/db8/class_menu.html#a8a6e6125f0dc2dc7e19c6655ba6376a2" target="_top" xlink:title="Menu.addIntroText">
<polygon fill="white" stroke="black" points="1760,-123.5 1760,-142.5 1864,-142.5 1864,-123.5 1760,-123.5"/>
<text text-anchor="middle" x="1812" y="-130.5" font-family="Helvetica,sans-Serif" font-size="10.00">Menu.addIntroText</text>
</a>
</g>
</g>
<!-- Node25&#45;&gt;Node26 -->
<g id="edge29" class="edge"><title>Node25&#45;&gt;Node26</title>
<path fill="none" stroke="midnightblue" d="M1724.27,-133C1731.99,-133 1740.62,-133 1749.35,-133"/>
<polygon fill="midnightblue" stroke="midnightblue" points="1749.61,-136.5 1759.61,-133 1749.61,-129.5 1749.61,-136.5"/>
</g>
</g>
</svg>
        <g id="navigator" transform="translate(0 0)" fill="#404254">
                <rect fill="#f2f5e9" fill-opacity="0.5" stroke="#606060" stroke-width=".5" x="0" y="0" width="60" height="60"/>
                <use id="zoomplus" xlink:href="#zoomPlus" x="17" y="9" onmousedown="handleZoom(evt,'in')"/>
                <use id="zoomminus" xlink:href="#zoomMin" x="42" y="9" onmousedown="handleZoom(evt,'out')"/>
                <use id="reset" xlink:href="#resetDef" x="30" y="36" onmousedown="handleReset()"/>
                <g id="arrowUp" xlink:href="#dirArrow" transform="translate(30 24)" onmousedown="handlePan(0,-1)">
                  <use xlink:href="#rim" fill="#404040">
                        <set attributeName="fill" to="#808080" begin="arrowUp.mouseover" end="arrowUp.mouseout"/>
                  </use>
                  <path fill="none" stroke="white" stroke-width="1.5" d="M0,-3.0v7 M-2.5,-0.5L0,-3.0L2.5,-0.5"/>
                </g>
                <g id="arrowRight" xlink:href="#dirArrow" transform="rotate(90) translate(36 -43)" onmousedown="handlePan(1,0)">
                  <use xlink:href="#rim" fill="#404040">
                        <set attributeName="fill" to="#808080" begin="arrowRight.mouseover" end="arrowRight.mouseout"/>
                  </use>
                  <path fill="none" stroke="white" stroke-width="1.5" d="M0,-3.0v7 M-2.5,-0.5L0,-3.0L2.5,-0.5"/>
                </g>
                <g id="arrowDown" xlink:href="#dirArrow" transform="rotate(180) translate(-30 -48)" onmousedown="handlePan(0,1)">
                  <use xlink:href="#rim" fill="#404040">
                        <set attributeName="fill" to="#808080" begin="arrowDown.mouseover" end="arrowDown.mouseout"/>
                  </use>
                  <path fill="none" stroke="white" stroke-width="1.5" d="M0,-3.0v7 M-2.5,-0.5L0,-3.0L2.5,-0.5"/>
                </g>
                <g id="arrowLeft" xlink:href="#dirArrow" transform="rotate(270) translate(-36 17)" onmousedown="handlePan(-1,0)">
                  <use xlink:href="#rim" fill="#404040">
                        <set attributeName="fill" to="#808080" begin="arrowLeft.mouseover" end="arrowLeft.mouseout"/>
                  </use>
                  <path fill="none" stroke="white" stroke-width="1.5" d="M0,-3.0v7 M-2.5,-0.5L0,-3.0L2.5,-0.5"/>
                </g>
        </g>
        <svg viewBox="0 0 15 15" width="100%" height="30px" preserveAspectRatio="xMaxYMin meet">
         <g id="arrow_out" transform="scale(0.3 0.3)">
          <a xlink:href="class_box_world_a55bf92d3f466bfaade0f6d199d8c9bd9_cgraph_org.svg" target="_base">
           <rect id="button" ry="5" rx="5" y="6" x="6" height="38" width="38"
                fill="#f2f5e9" fill-opacity="0.5" stroke="#606060" stroke-width="1.0"/>
           <path id="arrow"
             d="M 11.500037,31.436501 C 11.940474,20.09759 22.043105,11.32322 32.158766,21.979434 L 37.068811,17.246167 C 37.068811,17.246167 37.088388,32 37.088388,32 L 22.160133,31.978069 C 22.160133,31.978069 26.997745,27.140456 26.997745,27.140456 C 18.528582,18.264221 13.291696,25.230495 11.500037,31.436501 z"
             style="fill:#404040;"/>
          </a>
         </g>
        </svg>
</svg>
