<?xml version="1.0" encoding="UTF-8" standalone="no"?>
<!DOCTYPE svg PUBLIC "-//W3C//DTD SVG 1.1//EN"
 "http://www.w3.org/Graphics/SVG/1.1/DTD/svg11.dtd">
<!-- Generated by graphviz version 2.36.0 (20140111.2315)
 -->
<!-- Title: BoxWorld.createObstacleArray Pages: 1 -->
<!--zoomable 170 -->
<svg id="main" version="1.1" xmlns="http://www.w3.org/2000/svg" xmlns:xlink="http://www.w3.org/1999/xlink" xml:space="preserve" onload="init(evt)">
<style type="text/css"><![CDATA[
.edge:hover path { stroke: red; }
.edge:hover polygon { stroke: red; fill: red; }
]]></style>
<script type="text/javascript"><![CDATA[
var edges = document.getElementsByTagName('g');
if (edges && edges.length) {
  for (var i=0;i<edges.length;i++) {
    if (edges[i].id.substr(0,4)=='edge') {
      edges[i].setAttribute('class','edge');
    }
  }
}
]]></script>
        <defs>
                <circle id="rim" cx="0" cy="0" r="7"/>
                <circle id="rim2" cx="0" cy="0" r="3.5"/>
                <g id="zoomPlus">
                        <use xlink:href="#rim" fill="#404040">
                                <set attributeName="fill" to="#808080" begin="zoomplus.mouseover" end="zoomplus.mouseout"/>
                        </use>
                        <path d="M-4,0h8M0,-4v8" fill="none" stroke="white" stroke-width="1.5" pointer-events="none"/>
                </g>
                <g id="zoomMin">
                        <use xlink:href="#rim" fill="#404040">
                                <set attributeName="fill" to="#808080" begin="zoomminus.mouseover" end="zoomminus.mouseout"/>
                        </use>
                        <path d="M-4,0h8" fill="none" stroke="white" stroke-width="1.5" pointer-events="none"/>
                </g>
                <g id="dirArrow">
                        <path fill="none" stroke="white" stroke-width="1.5" d="M0,-3.0v7 M-2.5,-0.5L0,-3.0L2.5,-0.5"/>
                </g>
               <g id="resetDef">
                       <use xlink:href="#rim2" fill="#404040">
                               <set attributeName="fill" to="#808080" begin="reset.mouseover" end="reset.mouseout"/>
                       </use>
               </g>
        </defs>

<script type="text/javascript">
var viewWidth = 1798;
var viewHeight = 170;
var sectionId = 'dynsection-10';
</script>
<script xlink:href="../../svgpan.js"/>
<svg id="graph" class="graph">
<g id="viewport">
<title>BoxWorld.createObstacleArray</title>
<polygon fill="white" stroke="none" points="-4,4 -4,-166 1794,-166 1794,4 -4,4"/>
<!-- Node1 -->
<g id="node1" class="node"><title>Node1</title>
<polygon fill="#bfbfbf" stroke="black" points="0.5,-18.5 0.5,-37.5 161.5,-37.5 161.5,-18.5 0.5,-18.5"/>
<text text-anchor="middle" x="81" y="-25.5" font-family="Helvetica,sans-Serif" font-size="10.00">BoxWorld.createObstacleArray</text>
</g>
<!-- Node2 -->
<g id="node2" class="node"><title>Node2</title>
<g id="a_node2"><a xlink:href="../../db/d97/class_box_world.html#a69798621c944e846f045aaf3937505f9" target="_top" xlink:title="BoxWorld.addStarterObjects">
<polygon fill="white" stroke="black" points="198.5,-18.5 198.5,-37.5 349.5,-37.5 349.5,-18.5 198.5,-18.5"/>
<text text-anchor="middle" x="274" y="-25.5" font-family="Helvetica,sans-Serif" font-size="10.00">BoxWorld.addStarterObjects</text>
</a>
</g>
</g>
<!-- Node1&#45;&gt;Node2 -->
<g id="edge1" class="edge"><title>Node1&#45;&gt;Node2</title>
<path fill="none" stroke="midnightblue" d="M171.673,-28C180.619,-28 189.634,-28 198.402,-28"/>
<polygon fill="midnightblue" stroke="midnightblue" points="171.618,-24.5001 161.618,-28 171.618,-31.5001 171.618,-24.5001"/>
</g>
<!-- Node3 -->
<g id="node3" class="node"><title>Node3</title>
<g id="a_node3"><a xlink:href="../../d6/d4f/class_item_box_world.html#aa559fc2680327b41fb376e2eda8e82e3" target="_top" xlink:title="ItemBoxWorld.init">
<polygon fill="white" stroke="black" points="386.5,-47.5 386.5,-66.5 485.5,-66.5 485.5,-47.5 386.5,-47.5"/>
<text text-anchor="middle" x="436" y="-54.5" font-family="Helvetica,sans-Serif" font-size="10.00">ItemBoxWorld.init</text>
</a>
</g>
</g>
<!-- Node2&#45;&gt;Node3 -->
<g id="edge2" class="edge"><title>Node2&#45;&gt;Node3</title>
<path fill="none" stroke="midnightblue" d="M337.726,-39.3691C353.859,-42.2931 370.975,-45.3955 386.279,-48.1694"/>
<polygon fill="midnightblue" stroke="midnightblue" points="338.297,-35.9157 327.833,-37.5761 337.049,-42.8035 338.297,-35.9157"/>
</g>
<!-- Node8 -->
<g id="node8" class="node"><title>Node8</title>
<g id="a_node8"><a xlink:href="../../db/d97/class_box_world.html#a55bf92d3f466bfaade0f6d199d8c9bd9" target="_top" xlink:title="BoxWorld.init">
<polygon fill="white" stroke="black" points="1134.5,-66.5 1134.5,-85.5 1211.5,-85.5 1211.5,-66.5 1134.5,-66.5"/>
<text text-anchor="middle" x="1173" y="-73.5" font-family="Helvetica,sans-Serif" font-size="10.00">BoxWorld.init</text>
</a>
</g>
</g>
<!-- Node2&#45;&gt;Node8 -->
<g id="edge21" class="edge"><title>Node2&#45;&gt;Node8</title>
<path fill="none" stroke="midnightblue" d="M349.238,-17.1316C409.418,-9.26158 496.492,-3.35842e-15 573,-0 573,-0 573,-0 911,-0 1004.92,-1.42109e-14 1110.54,-45.924 1152.91,-66.3745"/>
<polygon fill="midnightblue" stroke="midnightblue" points="348.523,-13.6957 339.071,-18.4814 349.445,-20.6348 348.523,-13.6957"/>
</g>
<!-- Node4 -->
<g id="node4" class="node"><title>Node4</title>
<g id="a_node4"><a xlink:href="../../db/d97/class_box_world.html#aad670712776afe126e51791097027e05" target="_top" xlink:title="BoxWorld.winLevel">
<polygon fill="white" stroke="black" points="522.5,-104.5 522.5,-123.5 625.5,-123.5 625.5,-104.5 522.5,-104.5"/>
<text text-anchor="middle" x="574" y="-111.5" font-family="Helvetica,sans-Serif" font-size="10.00">BoxWorld.winLevel</text>
</a>
</g>
</g>
<!-- Node3&#45;&gt;Node4 -->
<g id="edge3" class="edge"><title>Node3&#45;&gt;Node4</title>
<path fill="none" stroke="midnightblue" d="M469.161,-70.4793C494.074,-80.9208 527.973,-95.1285 550.162,-104.428"/>
<polygon fill="midnightblue" stroke="midnightblue" points="470.339,-67.178 459.763,-66.5405 467.633,-73.6339 470.339,-67.178"/>
</g>
<!-- Node5 -->
<g id="node5" class="node"><title>Node5</title>
<g id="a_node5"><a xlink:href="../../db/d97/class_box_world.html#a4079bed8937c9f621decfbe1309e31e2" target="_top" xlink:title="BoxWorld.checkAllCollisions">
<polygon fill="white" stroke="black" points="662,-142.5 662,-161.5 808,-161.5 808,-142.5 662,-142.5"/>
<text text-anchor="middle" x="735" y="-149.5" font-family="Helvetica,sans-Serif" font-size="10.00">BoxWorld.checkAllCollisions</text>
</a>
</g>
</g>
<!-- Node4&#45;&gt;Node5 -->
<g id="edge4" class="edge"><title>Node4&#45;&gt;Node5</title>
<path fill="none" stroke="midnightblue" d="M625.077,-125.968C647.358,-131.293 673.229,-137.476 694.166,-142.48"/>
<polygon fill="midnightblue" stroke="midnightblue" points="625.662,-122.509 615.122,-123.589 624.035,-129.318 625.662,-122.509"/>
</g>
<!-- Node16 -->
<g id="node16" class="node"><title>Node16</title>
<g id="a_node16"><a xlink:href="../../db/d97/class_box_world.html#aa7e2049d7be23e15fd2ec7fa2922ed79" target="_top" xlink:title="BoxWorld.handleKeyInput">
<polygon fill="white" stroke="black" points="667,-104.5 667,-123.5 803,-123.5 803,-104.5 667,-104.5"/>
<text text-anchor="middle" x="735" y="-111.5" font-family="Helvetica,sans-Serif" font-size="10.00">BoxWorld.handleKeyInput</text>
</a>
</g>
</g>
<!-- Node4&#45;&gt;Node16 -->
<g id="edge17" class="edge"><title>Node4&#45;&gt;Node16</title>
<path fill="none" stroke="midnightblue" d="M635.76,-114C645.946,-114 656.567,-114 666.901,-114"/>
<polygon fill="midnightblue" stroke="midnightblue" points="635.746,-110.5 625.746,-114 635.746,-117.5 635.746,-110.5"/>
</g>
<!-- Node6 -->
<g id="node6" class="node"><title>Node6</title>
<g id="a_node6"><a xlink:href="../../db/d97/class_box_world.html#a6794c083c2a0263c2f585f4ae4b7e39c" target="_top" xlink:title="BoxWorld.updateSprites">
<polygon fill="white" stroke="black" points="844.5,-104.5 844.5,-123.5 975.5,-123.5 975.5,-104.5 844.5,-104.5"/>
<text text-anchor="middle" x="910" y="-111.5" font-family="Helvetica,sans-Serif" font-size="10.00">BoxWorld.updateSprites</text>
</a>
</g>
</g>
<!-- Node5&#45;&gt;Node6 -->
<g id="edge5" class="edge"><title>Node5&#45;&gt;Node6</title>
<path fill="none" stroke="midnightblue" d="M789.505,-140.247C813.967,-134.874 842.571,-128.591 865.659,-123.52"/>
<polygon fill="midnightblue" stroke="midnightblue" points="788.671,-136.847 779.655,-142.411 790.173,-143.684 788.671,-136.847"/>
</g>
<!-- Node7 -->
<g id="node7" class="node"><title>Node7</title>
<g id="a_node7"><a xlink:href="../../db/d97/class_box_world.html#ad20a4e43406c44f4bbf201d1d1028998" target="_top" xlink:title="BoxWorld.start">
<polygon fill="white" stroke="black" points="1012,-104.5 1012,-123.5 1098,-123.5 1098,-104.5 1012,-104.5"/>
<text text-anchor="middle" x="1055" y="-111.5" font-family="Helvetica,sans-Serif" font-size="10.00">BoxWorld.start</text>
</a>
</g>
</g>
<!-- Node6&#45;&gt;Node7 -->
<g id="edge6" class="edge"><title>Node6&#45;&gt;Node7</title>
<path fill="none" stroke="midnightblue" d="M985.898,-114C994.837,-114 1003.7,-114 1011.94,-114"/>
<polygon fill="midnightblue" stroke="midnightblue" points="985.806,-110.5 975.806,-114 985.806,-117.5 985.806,-110.5"/>
</g>
<!-- Node7&#45;&gt;Node3 -->
<g id="edge16" class="edge"><title>Node7&#45;&gt;Node3</title>
<path fill="none" stroke="midnightblue" d="M1037.8,-97.3218C1023.14,-83.5203 1000.2,-64.9395 976,-57 802.171,0.0206456 579.497,-30.0488 483.957,-47.446"/>
<polygon fill="midnightblue" stroke="midnightblue" points="1035.44,-99.9154 1045.04,-104.4 1040.34,-94.9081 1035.44,-99.9154"/>
</g>
<!-- Node7&#45;&gt;Node8 -->
<g id="edge7" class="edge"><title>Node7&#45;&gt;Node8</title>
<path fill="none" stroke="midnightblue" d="M1095.15,-101.174C1110.72,-96.0753 1128.31,-90.3109 1142.74,-85.5859"/>
<polygon fill="midnightblue" stroke="midnightblue" points="1093.69,-97.9718 1085.27,-104.411 1095.86,-104.624 1093.69,-97.9718"/>
</g>
<!-- Node9 -->
<g id="node9" class="node"><title>Node9</title>
<g id="a_node9"><a xlink:href="../../d2/db8/class_menu.html#a3c99ad09e9f2f975c1a0d0597642651a" target="_top" xlink:title="Menu.init">
<polygon fill="white" stroke="black" points="1248,-66.5 1248,-85.5 1308,-85.5 1308,-66.5 1248,-66.5"/>
<text text-anchor="middle" x="1278" y="-73.5" font-family="Helvetica,sans-Serif" font-size="10.00">Menu.init</text>
</a>
</g>
</g>
<!-- Node8&#45;&gt;Node9 -->
<g id="edge8" class="edge"><title>Node8&#45;&gt;Node9</title>
<path fill="none" stroke="midnightblue" d="M1222.03,-76C1230.89,-76 1239.87,-76 1247.95,-76"/>
<polygon fill="midnightblue" stroke="midnightblue" points="1221.77,-72.5001 1211.77,-76 1221.77,-79.5001 1221.77,-72.5001"/>
</g>
<!-- Node10 -->
<g id="node10" class="node"><title>Node10</title>
<g id="a_node10"><a xlink:href="../../d1/de1/class_end_screen.html#a1264ffb72b3a3032443f9c4087222aef" target="_top" xlink:title="EndScreen.init">
<polygon fill="white" stroke="black" points="1346,-28.5 1346,-47.5 1432,-47.5 1432,-28.5 1346,-28.5"/>
<text text-anchor="middle" x="1389" y="-35.5" font-family="Helvetica,sans-Serif" font-size="10.00">EndScreen.init</text>
</a>
</g>
</g>
<!-- Node9&#45;&gt;Node10 -->
<g id="edge9" class="edge"><title>Node9&#45;&gt;Node10</title>
<path fill="none" stroke="midnightblue" d="M1316.21,-63.0282C1330.73,-57.9656 1347.08,-52.2659 1360.5,-47.5859"/>
<polygon fill="midnightblue" stroke="midnightblue" points="1314.8,-59.8141 1306.51,-66.411 1317.1,-66.4239 1314.8,-59.8141"/>
</g>
<!-- Node13 -->
<g id="node13" class="node"><title>Node13</title>
<g id="a_node13"><a xlink:href="../../d4/d2f/class_lose_screen.html#a34f2cc2c803500316c9b8d854854d758" target="_top" xlink:title="LoseScreen.init">
<polygon fill="white" stroke="black" points="1344,-66.5 1344,-85.5 1434,-85.5 1434,-66.5 1344,-66.5"/>
<text text-anchor="middle" x="1389" y="-73.5" font-family="Helvetica,sans-Serif" font-size="10.00">LoseScreen.init</text>
</a>
</g>
</g>
<!-- Node9&#45;&gt;Node13 -->
<g id="edge12" class="edge"><title>Node9&#45;&gt;Node13</title>
<path fill="none" stroke="midnightblue" d="M1318.38,-76C1326.68,-76 1335.48,-76 1343.94,-76"/>
<polygon fill="midnightblue" stroke="midnightblue" points="1318.21,-72.5001 1308.21,-76 1318.21,-79.5001 1318.21,-72.5001"/>
</g>
<!-- Node15 -->
<g id="node15" class="node"><title>Node15</title>
<g id="a_node15"><a xlink:href="../../d0/d4b/class_main.html#a7595d13c514a02c35aca322dd91d2063" target="_top" xlink:title="Main.start">
<polygon fill="white" stroke="black" points="1356.5,-104.5 1356.5,-123.5 1421.5,-123.5 1421.5,-104.5 1356.5,-104.5"/>
<text text-anchor="middle" x="1389" y="-111.5" font-family="Helvetica,sans-Serif" font-size="10.00">Main.start</text>
</a>
</g>
</g>
<!-- Node9&#45;&gt;Node15 -->
<g id="edge15" class="edge"><title>Node9&#45;&gt;Node15</title>
<path fill="none" stroke="midnightblue" d="M1316.21,-88.9718C1330.73,-94.0344 1347.08,-99.7341 1360.5,-104.414"/>
<polygon fill="midnightblue" stroke="midnightblue" points="1317.1,-85.5761 1306.51,-85.589 1314.8,-92.1859 1317.1,-85.5761"/>
</g>
<!-- Node11 -->
<g id="node11" class="node"><title>Node11</title>
<g id="a_node11"><a xlink:href="../../d6/d4f/class_item_box_world.html#a2ed12a6b39993faedc05cc682204476d" target="_top" xlink:title="ItemBoxWorld.winLevel">
<polygon fill="white" stroke="black" points="1470.5,-28.5 1470.5,-47.5 1595.5,-47.5 1595.5,-28.5 1470.5,-28.5"/>
<text text-anchor="middle" x="1533" y="-35.5" font-family="Helvetica,sans-Serif" font-size="10.00">ItemBoxWorld.winLevel</text>
</a>
</g>
</g>
<!-- Node10&#45;&gt;Node11 -->
<g id="edge10" class="edge"><title>Node10&#45;&gt;Node11</title>
<path fill="none" stroke="midnightblue" d="M1442.34,-38C1451.5,-38 1461.11,-38 1470.5,-38"/>
<polygon fill="midnightblue" stroke="midnightblue" points="1442.22,-34.5001 1432.22,-38 1442.22,-41.5001 1442.22,-34.5001"/>
</g>
<!-- Node12 -->
<g id="node12" class="node"><title>Node12</title>
<g id="a_node12"><a xlink:href="../../d6/d4f/class_item_box_world.html#ae442d947b4dafc944336ee27628d2175" target="_top" xlink:title="ItemBoxWorld.handleKeyInput">
<polygon fill="white" stroke="black" points="1632,-28.5 1632,-47.5 1790,-47.5 1790,-28.5 1632,-28.5"/>
<text text-anchor="middle" x="1711" y="-35.5" font-family="Helvetica,sans-Serif" font-size="10.00">ItemBoxWorld.handleKeyInput</text>
</a>
</g>
</g>
<!-- Node11&#45;&gt;Node12 -->
<g id="edge11" class="edge"><title>Node11&#45;&gt;Node12</title>
<path fill="none" stroke="midnightblue" d="M1605.57,-38C1614.2,-38 1623.05,-38 1631.77,-38"/>
<polygon fill="midnightblue" stroke="midnightblue" points="1605.56,-34.5001 1595.56,-38 1605.56,-41.5001 1605.56,-34.5001"/>
</g>
<!-- Node14 -->
<g id="node14" class="node"><title>Node14</title>
<g id="a_node14"><a xlink:href="../../db/d97/class_box_world.html#a72bacb2a6757900d8835249929fcc838" target="_top" xlink:title="BoxWorld.loseGame">
<polygon fill="white" stroke="black" points="1477,-104.5 1477,-123.5 1589,-123.5 1589,-104.5 1477,-104.5"/>
<text text-anchor="middle" x="1533" y="-111.5" font-family="Helvetica,sans-Serif" font-size="10.00">BoxWorld.loseGame</text>
</a>
</g>
</g>
<!-- Node13&#45;&gt;Node14 -->
<g id="edge13" class="edge"><title>Node13&#45;&gt;Node14</title>
<path fill="none" stroke="midnightblue" d="M1435.49,-88.1742C1455.13,-93.4287 1477.77,-99.4866 1496.18,-104.414"/>
<polygon fill="midnightblue" stroke="midnightblue" points="1436.4,-84.7931 1425.83,-85.589 1434.59,-91.5552 1436.4,-84.7931"/>
</g>
<!-- Node14&#45;&gt;Node5 -->
<g id="edge14" class="edge"><title>Node14&#45;&gt;Node5</title>
<path fill="none" stroke="midnightblue" d="M1482.8,-125.833C1432.05,-136.986 1350.47,-152 1279,-152 1054,-152 1054,-152 1054,-152 969.669,-152 872.759,-152 808.305,-152"/>
<polygon fill="midnightblue" stroke="midnightblue" points="1483.84,-129.187 1492.83,-123.589 1482.31,-122.356 1483.84,-129.187"/>
</g>
<!-- Node17 -->
<g id="node17" class="node"><title>Node17</title>
<g id="a_node17"><a xlink:href="../../db/d97/class_box_world.html#a726e747e023543658d7a345cc6466ccb" target="_top" xlink:title="BoxWorld.createScene">
<polygon fill="white" stroke="black" points="848,-66.5 848,-85.5 972,-85.5 972,-66.5 848,-66.5"/>
<text text-anchor="middle" x="910" y="-73.5" font-family="Helvetica,sans-Serif" font-size="10.00">BoxWorld.createScene</text>
</a>
</g>
</g>
<!-- Node16&#45;&gt;Node17 -->
<g id="edge18" class="edge"><title>Node16&#45;&gt;Node17</title>
<path fill="none" stroke="midnightblue" d="M789.505,-102.247C813.967,-96.8742 842.571,-90.5914 865.659,-85.5201"/>
<polygon fill="midnightblue" stroke="midnightblue" points="788.671,-98.847 779.655,-104.411 790.173,-105.684 788.671,-98.847"/>
</g>
<!-- Node17&#45;&gt;Node3 -->
<g id="edge20" class="edge"><title>Node17&#45;&gt;Node3</title>
<path fill="none" stroke="midnightblue" d="M837.944,-73.1397C740.905,-69.2335 569.45,-62.3317 485.735,-58.9618"/>
<polygon fill="midnightblue" stroke="midnightblue" points="837.826,-76.6377 847.959,-73.5428 838.108,-69.6434 837.826,-76.6377"/>
</g>
<!-- Node17&#45;&gt;Node8 -->
<g id="edge19" class="edge"><title>Node17&#45;&gt;Node8</title>
<path fill="none" stroke="midnightblue" d="M982.43,-76C1031.47,-76 1094.61,-76 1134.21,-76"/>
<polygon fill="midnightblue" stroke="midnightblue" points="982.193,-72.5001 972.193,-76 982.193,-79.5001 982.193,-72.5001"/>
</g>
</g>
</svg>
        <g id="navigator" transform="translate(0 0)" fill="#404254">
                <rect fill="#f2f5e9" fill-opacity="0.5" stroke="#606060" stroke-width=".5" x="0" y="0" width="60" height="60"/>
                <use id="zoomplus" xlink:href="#zoomPlus" x="17" y="9" onmousedown="handleZoom(evt,'in')"/>
                <use id="zoomminus" xlink:href="#zoomMin" x="42" y="9" onmousedown="handleZoom(evt,'out')"/>
                <use id="reset" xlink:href="#resetDef" x="30" y="36" onmousedown="handleReset()"/>
                <g id="arrowUp" xlink:href="#dirArrow" transform="translate(30 24)" onmousedown="handlePan(0,-1)">
                  <use xlink:href="#rim" fill="#404040">
                        <set attributeName="fill" to="#808080" begin="arrowUp.mouseover" end="arrowUp.mouseout"/>
                  </use>
                  <path fill="none" stroke="white" stroke-width="1.5" d="M0,-3.0v7 M-2.5,-0.5L0,-3.0L2.5,-0.5"/>
                </g>
                <g id="arrowRight" xlink:href="#dirArrow" transform="rotate(90) translate(36 -43)" onmousedown="handlePan(1,0)">
                  <use xlink:href="#rim" fill="#404040">
                        <set attributeName="fill" to="#808080" begin="arrowRight.mouseover" end="arrowRight.mouseout"/>
                  </use>
                  <path fill="none" stroke="white" stroke-width="1.5" d="M0,-3.0v7 M-2.5,-0.5L0,-3.0L2.5,-0.5"/>
                </g>
                <g id="arrowDown" xlink:href="#dirArrow" transform="rotate(180) translate(-30 -48)" onmousedown="handlePan(0,1)">
                  <use xlink:href="#rim" fill="#404040">
                        <set attributeName="fill" to="#808080" begin="arrowDown.mouseover" end="arrowDown.mouseout"/>
                  </use>
                  <path fill="none" stroke="white" stroke-width="1.5" d="M0,-3.0v7 M-2.5,-0.5L0,-3.0L2.5,-0.5"/>
                </g>
                <g id="arrowLeft" xlink:href="#dirArrow" transform="rotate(270) translate(-36 17)" onmousedown="handlePan(-1,0)">
                  <use xlink:href="#rim" fill="#404040">
                        <set attributeName="fill" to="#808080" begin="arrowLeft.mouseover" end="arrowLeft.mouseout"/>
                  </use>
                  <path fill="none" stroke="white" stroke-width="1.5" d="M0,-3.0v7 M-2.5,-0.5L0,-3.0L2.5,-0.5"/>
                </g>
        </g>
        <svg viewBox="0 0 15 15" width="100%" height="30px" preserveAspectRatio="xMaxYMin meet">
         <g id="arrow_out" transform="scale(0.3 0.3)">
          <a xlink:href="class_box_world_a2542cc74ebeba6a9768a443a55186901_icgraph_org.svg" target="_base">
           <rect id="button" ry="5" rx="5" y="6" x="6" height="38" width="38"
                fill="#f2f5e9" fill-opacity="0.5" stroke="#606060" stroke-width="1.0"/>
           <path id="arrow"
             d="M 11.500037,31.436501 C 11.940474,20.09759 22.043105,11.32322 32.158766,21.979434 L 37.068811,17.246167 C 37.068811,17.246167 37.088388,32 37.088388,32 L 22.160133,31.978069 C 22.160133,31.978069 26.997745,27.140456 26.997745,27.140456 C 18.528582,18.264221 13.291696,25.230495 11.500037,31.436501 z"
             style="fill:#404040;"/>
          </a>
         </g>
        </svg>
</svg>
