<?xml version="1.0" encoding="UTF-8" standalone="no"?>
<!DOCTYPE svg PUBLIC "-//W3C//DTD SVG 1.1//EN"
 "http://www.w3.org/Graphics/SVG/1.1/DTD/svg11.dtd">
<!-- Generated by graphviz version 2.36.0 (20140111.2315)
 -->
<!-- Title: BoxWorld.checkAllCollisions Pages: 1 -->
<!--zoomable 360 -->
<svg id="main" version="1.1" xmlns="http://www.w3.org/2000/svg" xmlns:xlink="http://www.w3.org/1999/xlink" xml:space="preserve" onload="init(evt)">
<style type="text/css"><![CDATA[
.edge:hover path { stroke: red; }
.edge:hover polygon { stroke: red; fill: red; }
]]></style>
<script type="text/javascript"><![CDATA[
var edges = document.getElementsByTagName('g');
if (edges && edges.length) {
  for (var i=0;i<edges.length;i++) {
    if (edges[i].id.substr(0,4)=='edge') {
      edges[i].setAttribute('class','edge');
    }
  }
}
]]></script>
        <defs>
                <circle id="rim" cx="0" cy="0" r="7"/>
                <circle id="rim2" cx="0" cy="0" r="3.5"/>
                <g id="zoomPlus">
                        <use xlink:href="#rim" fill="#404040">
                                <set attributeName="fill" to="#808080" begin="zoomplus.mouseover" end="zoomplus.mouseout"/>
                        </use>
                        <path d="M-4,0h8M0,-4v8" fill="none" stroke="white" stroke-width="1.5" pointer-events="none"/>
                </g>
                <g id="zoomMin">
                        <use xlink:href="#rim" fill="#404040">
                                <set attributeName="fill" to="#808080" begin="zoomminus.mouseover" end="zoomminus.mouseout"/>
                        </use>
                        <path d="M-4,0h8" fill="none" stroke="white" stroke-width="1.5" pointer-events="none"/>
                </g>
                <g id="dirArrow">
                        <path fill="none" stroke="white" stroke-width="1.5" d="M0,-3.0v7 M-2.5,-0.5L0,-3.0L2.5,-0.5"/>
                </g>
               <g id="resetDef">
                       <use xlink:href="#rim2" fill="#404040">
                               <set attributeName="fill" to="#808080" begin="reset.mouseover" end="reset.mouseout"/>
                       </use>
               </g>
        </defs>

<script type="text/javascript">
var viewWidth = 1872;
var viewHeight = 360;
var sectionId = 'dynsection-6';
</script>
<script xlink:href="../../svgpan.js"/>
<svg id="graph" class="graph">
<g id="viewport">
<title>BoxWorld.checkAllCollisions</title>
<polygon fill="white" stroke="none" points="-4,4 -4,-356 1868,-356 1868,4 -4,4"/>
<!-- Node1 -->
<g id="node1" class="node"><title>Node1</title>
<polygon fill="#bfbfbf" stroke="black" points="0,-133.5 0,-152.5 146,-152.5 146,-133.5 0,-133.5"/>
<text text-anchor="middle" x="73" y="-140.5" font-family="Helvetica,sans-Serif" font-size="10.00">BoxWorld.checkAllCollisions</text>
</g>
<!-- Node2 -->
<g id="node2" class="node"><title>Node2</title>
<g id="a_node2"><a xlink:href="../../db/d97/class_box_world.html#a55add11037cd6dc48556f2f42a9e11be" target="_top" xlink:title="BoxWorld.checkCollide">
<polygon fill="white" stroke="black" points="1522,-152.5 1522,-171.5 1644,-171.5 1644,-152.5 1522,-152.5"/>
<text text-anchor="middle" x="1583" y="-159.5" font-family="Helvetica,sans-Serif" font-size="10.00">BoxWorld.checkCollide</text>
</a>
</g>
</g>
<!-- Node1&#45;&gt;Node2 -->
<g id="edge1" class="edge"><title>Node1&#45;&gt;Node2</title>
<path fill="none" stroke="midnightblue" d="M82.7611,-152.684C116.501,-188.858 242.709,-314 374,-314 374,-314 374,-314 1229,-314 1342.48,-314 1372.14,-282.778 1466,-219 1485.24,-205.925 1481.84,-192.616 1502,-181 1505.86,-178.775 1509.97,-176.81 1514.21,-175.075"/>
<polygon fill="midnightblue" stroke="midnightblue" points="1515.46,-178.345 1523.65,-171.631 1513.06,-171.769 1515.46,-178.345"/>
</g>
<!-- Node5 -->
<g id="node5" class="node"><title>Node5</title>
<g id="a_node5"><a xlink:href="../../db/d97/class_box_world.html#a72bacb2a6757900d8835249929fcc838" target="_top" xlink:title="BoxWorld.loseGame">
<polygon fill="white" stroke="black" points="182,-133.5 182,-152.5 294,-152.5 294,-133.5 182,-133.5"/>
<text text-anchor="middle" x="238" y="-140.5" font-family="Helvetica,sans-Serif" font-size="10.00">BoxWorld.loseGame</text>
</a>
</g>
</g>
<!-- Node1&#45;&gt;Node5 -->
<g id="edge4" class="edge"><title>Node1&#45;&gt;Node5</title>
<path fill="none" stroke="midnightblue" d="M146.443,-143C154.906,-143 163.501,-143 171.856,-143"/>
<polygon fill="midnightblue" stroke="midnightblue" points="171.904,-146.5 181.904,-143 171.904,-139.5 171.904,-146.5"/>
</g>
<!-- Node24 -->
<g id="node24" class="node"><title>Node24</title>
<g id="a_node24"><a xlink:href="../../db/d97/class_box_world.html#aad670712776afe126e51791097027e05" target="_top" xlink:title="BoxWorld.winLevel">
<polygon fill="white" stroke="black" points="1038.5,-114.5 1038.5,-133.5 1141.5,-133.5 1141.5,-114.5 1038.5,-114.5"/>
<text text-anchor="middle" x="1090" y="-121.5" font-family="Helvetica,sans-Serif" font-size="10.00">BoxWorld.winLevel</text>
</a>
</g>
</g>
<!-- Node1&#45;&gt;Node24 -->
<g id="edge41" class="edge"><title>Node1&#45;&gt;Node24</title>
<path fill="none" stroke="midnightblue" d="M91.3101,-133.368C136.391,-109.216 261.731,-48 374,-48 374,-48 374,-48 755,-48 866.87,-48 994.682,-89.0384 1054.6,-110.803"/>
<polygon fill="midnightblue" stroke="midnightblue" points="1053.71,-114.204 1064.3,-114.375 1056.12,-107.635 1053.71,-114.204"/>
</g>
<!-- Node30 -->
<g id="node30" class="node"><title>Node30</title>
<g id="a_node30"><a xlink:href="../../db/d97/class_box_world.html#ae6ffad41f7ba6122234157c72afe8f9c" target="_top" xlink:title="BoxWorld.onScreen">
<polygon fill="white" stroke="black" points="183.5,-0.5 183.5,-19.5 292.5,-19.5 292.5,-0.5 183.5,-0.5"/>
<text text-anchor="middle" x="238" y="-7.5" font-family="Helvetica,sans-Serif" font-size="10.00">BoxWorld.onScreen</text>
</a>
</g>
</g>
<!-- Node1&#45;&gt;Node30 -->
<g id="edge40" class="edge"><title>Node1&#45;&gt;Node30</title>
<path fill="none" stroke="midnightblue" d="M81.4187,-133.341C97.6776,-112.714 138.488,-63.8146 182,-34 187.659,-30.1226 194.045,-26.6521 200.41,-23.6356"/>
<polygon fill="midnightblue" stroke="midnightblue" points="201.91,-26.7992 209.634,-19.5466 199.073,-20.3998 201.91,-26.7992"/>
</g>
<!-- Node3 -->
<g id="node3" class="node"><title>Node3</title>
<g id="a_node3"><a xlink:href="../../da/de2/class_sticky_box.html#a6ba3f89630df9d81df5644a3e5f4e387" target="_top" xlink:title="StickyBox.getXDirection">
<polygon fill="white" stroke="black" points="1716.5,-152.5 1716.5,-171.5 1847.5,-171.5 1847.5,-152.5 1716.5,-152.5"/>
<text text-anchor="middle" x="1782" y="-159.5" font-family="Helvetica,sans-Serif" font-size="10.00">StickyBox.getXDirection</text>
</a>
</g>
</g>
<!-- Node2&#45;&gt;Node3 -->
<g id="edge2" class="edge"><title>Node2&#45;&gt;Node3</title>
<path fill="none" stroke="midnightblue" d="M1644.18,-162C1663.73,-162 1685.67,-162 1706.16,-162"/>
<polygon fill="midnightblue" stroke="midnightblue" points="1706.4,-165.5 1716.4,-162 1706.4,-158.5 1706.4,-165.5"/>
</g>
<!-- Node4 -->
<g id="node4" class="node"><title>Node4</title>
<g id="a_node4"><a xlink:href="../../da/de2/class_sticky_box.html#a69e5ccf2a79159c03dea2e048df13318" target="_top" xlink:title="StickyBox.getYDirection">
<polygon fill="white" stroke="black" points="1717,-114.5 1717,-133.5 1847,-133.5 1847,-114.5 1717,-114.5"/>
<text text-anchor="middle" x="1782" y="-121.5" font-family="Helvetica,sans-Serif" font-size="10.00">StickyBox.getYDirection</text>
</a>
</g>
</g>
<!-- Node2&#45;&gt;Node4 -->
<g id="edge3" class="edge"><title>Node2&#45;&gt;Node4</title>
<path fill="none" stroke="midnightblue" d="M1633.46,-152.46C1660.15,-147.31 1693.3,-140.916 1721.42,-135.494"/>
<polygon fill="midnightblue" stroke="midnightblue" points="1722.37,-138.875 1731.52,-133.544 1721.04,-132.001 1722.37,-138.875"/>
</g>
<!-- Node6 -->
<g id="node6" class="node"><title>Node6</title>
<g id="a_node6"><a xlink:href="../../d4/d2f/class_lose_screen.html#a34f2cc2c803500316c9b8d854854d758" target="_top" xlink:title="LoseScreen.init">
<polygon fill="white" stroke="black" points="330,-133.5 330,-152.5 420,-152.5 420,-133.5 330,-133.5"/>
<text text-anchor="middle" x="375" y="-140.5" font-family="Helvetica,sans-Serif" font-size="10.00">LoseScreen.init</text>
</a>
</g>
</g>
<!-- Node5&#45;&gt;Node6 -->
<g id="edge5" class="edge"><title>Node5&#45;&gt;Node6</title>
<path fill="none" stroke="midnightblue" d="M294.299,-143C302.686,-143 311.332,-143 319.697,-143"/>
<polygon fill="midnightblue" stroke="midnightblue" points="319.724,-146.5 329.724,-143 319.724,-139.5 319.724,-146.5"/>
</g>
<!-- Node7 -->
<g id="node7" class="node"><title>Node7</title>
<g id="a_node7"><a xlink:href="../../d2/db8/class_menu.html#a3c99ad09e9f2f975c1a0d0597642651a" target="_top" xlink:title="Menu.init">
<polygon fill="white" stroke="black" points="456,-133.5 456,-152.5 516,-152.5 516,-133.5 456,-133.5"/>
<text text-anchor="middle" x="486" y="-140.5" font-family="Helvetica,sans-Serif" font-size="10.00">Menu.init</text>
</a>
</g>
</g>
<!-- Node6&#45;&gt;Node7 -->
<g id="edge6" class="edge"><title>Node6&#45;&gt;Node7</title>
<path fill="none" stroke="midnightblue" d="M420.02,-143C428.495,-143 437.322,-143 445.637,-143"/>
<polygon fill="midnightblue" stroke="midnightblue" points="445.833,-146.5 455.833,-143 445.832,-139.5 445.833,-146.5"/>
</g>
<!-- Node8 -->
<g id="node8" class="node"><title>Node8</title>
<g id="a_node8"><a xlink:href="../../d2/db8/class_menu.html#a8a6e6125f0dc2dc7e19c6655ba6376a2" target="_top" xlink:title="Menu.addIntroText">
<polygon fill="white" stroke="black" points="552,-152.5 552,-171.5 656,-171.5 656,-152.5 552,-152.5"/>
<text text-anchor="middle" x="604" y="-159.5" font-family="Helvetica,sans-Serif" font-size="10.00">Menu.addIntroText</text>
</a>
</g>
</g>
<!-- Node7&#45;&gt;Node8 -->
<g id="edge7" class="edge"><title>Node7&#45;&gt;Node8</title>
<path fill="none" stroke="midnightblue" d="M516.272,-147.795C524.074,-149.072 532.804,-150.502 541.639,-151.95"/>
<polygon fill="midnightblue" stroke="midnightblue" points="541.18,-155.421 551.614,-153.583 542.311,-148.513 541.18,-155.421"/>
</g>
<!-- Node9 -->
<g id="node9" class="node"><title>Node9</title>
<g id="a_node9"><a xlink:href="../../db/d97/class_box_world.html#a55bf92d3f466bfaade0f6d199d8c9bd9" target="_top" xlink:title="BoxWorld.init">
<polygon fill="white" stroke="black" points="565.5,-114.5 565.5,-133.5 642.5,-133.5 642.5,-114.5 565.5,-114.5"/>
<text text-anchor="middle" x="604" y="-121.5" font-family="Helvetica,sans-Serif" font-size="10.00">BoxWorld.init</text>
</a>
</g>
</g>
<!-- Node7&#45;&gt;Node9 -->
<g id="edge8" class="edge"><title>Node7&#45;&gt;Node9</title>
<path fill="none" stroke="midnightblue" d="M516.272,-138.205C528.145,-136.261 542.168,-133.964 555.436,-131.791"/>
<polygon fill="midnightblue" stroke="midnightblue" points="556.085,-135.231 565.388,-130.161 554.954,-128.323 556.085,-135.231"/>
</g>
<!-- Node10 -->
<g id="node10" class="node"><title>Node10</title>
<g id="a_node10"><a xlink:href="../../db/d97/class_box_world.html#a69798621c944e846f045aaf3937505f9" target="_top" xlink:title="BoxWorld.addStarterObjects">
<polygon fill="white" stroke="black" points="1314.5,-0.5 1314.5,-19.5 1465.5,-19.5 1465.5,-0.5 1314.5,-0.5"/>
<text text-anchor="middle" x="1390" y="-7.5" font-family="Helvetica,sans-Serif" font-size="10.00">BoxWorld.addStarterObjects</text>
</a>
</g>
</g>
<!-- Node9&#45;&gt;Node10 -->
<g id="edge9" class="edge"><title>Node9&#45;&gt;Node10</title>
<path fill="none" stroke="midnightblue" d="M620.019,-114.477C664.714,-87.0778 801.512,-10 926,-10 926,-10 926,-10 1091,-10 1162.89,-10 1244.54,-10 1304.17,-10"/>
<polygon fill="midnightblue" stroke="midnightblue" points="1304.29,-13.5001 1314.29,-10 1304.29,-6.5001 1304.29,-13.5001"/>
</g>
<!-- Node12 -->
<g id="node12" class="node"><title>Node12</title>
<g id="a_node12"><a xlink:href="../../db/d97/class_box_world.html#ad20a4e43406c44f4bbf201d1d1028998" target="_top" xlink:title="BoxWorld.start">
<polygon fill="white" stroke="black" points="1347,-190.5 1347,-209.5 1433,-209.5 1433,-190.5 1347,-190.5"/>
<text text-anchor="middle" x="1390" y="-197.5" font-family="Helvetica,sans-Serif" font-size="10.00">BoxWorld.start</text>
</a>
</g>
</g>
<!-- Node9&#45;&gt;Node12 -->
<g id="edge11" class="edge"><title>Node9&#45;&gt;Node12</title>
<path fill="none" stroke="midnightblue" d="M636.918,-133.548C706.248,-153.961 868.945,-200 926,-200 926,-200 926,-200 1091,-200 1176.9,-200 1276.72,-200 1336.28,-200"/>
<polygon fill="midnightblue" stroke="midnightblue" points="1336.56,-203.5 1346.56,-200 1336.56,-196.5 1336.56,-203.5"/>
</g>
<!-- Node18 -->
<g id="node18" class="node"><title>Node18</title>
<g id="a_node18"><a xlink:href="../../db/d97/class_box_world.html#a726e747e023543658d7a345cc6466ccb" target="_top" xlink:title="BoxWorld.createScene">
<polygon fill="white" stroke="black" points="692,-114.5 692,-133.5 816,-133.5 816,-114.5 692,-114.5"/>
<text text-anchor="middle" x="754" y="-121.5" font-family="Helvetica,sans-Serif" font-size="10.00">BoxWorld.createScene</text>
</a>
</g>
</g>
<!-- Node9&#45;&gt;Node18 -->
<g id="edge20" class="edge"><title>Node9&#45;&gt;Node18</title>
<path fill="none" stroke="midnightblue" d="M642.73,-124C654.604,-124 668.135,-124 681.553,-124"/>
<polygon fill="midnightblue" stroke="midnightblue" points="681.763,-127.5 691.763,-124 681.763,-120.5 681.763,-127.5"/>
</g>
<!-- Node11 -->
<g id="node11" class="node"><title>Node11</title>
<g id="a_node11"><a xlink:href="../../db/d97/class_box_world.html#a2542cc74ebeba6a9768a443a55186901" target="_top" xlink:title="BoxWorld.createObstacleArray">
<polygon fill="white" stroke="black" points="1502.5,-0.5 1502.5,-19.5 1663.5,-19.5 1663.5,-0.5 1502.5,-0.5"/>
<text text-anchor="middle" x="1583" y="-7.5" font-family="Helvetica,sans-Serif" font-size="10.00">BoxWorld.createObstacleArray</text>
</a>
</g>
</g>
<!-- Node10&#45;&gt;Node11 -->
<g id="edge10" class="edge"><title>Node10&#45;&gt;Node11</title>
<path fill="none" stroke="midnightblue" d="M1465.67,-10C1474.41,-10 1483.4,-10 1492.31,-10"/>
<polygon fill="midnightblue" stroke="midnightblue" points="1492.34,-13.5001 1502.34,-10 1492.34,-6.5001 1492.34,-13.5001"/>
</g>
<!-- Node13 -->
<g id="node13" class="node"><title>Node13</title>
<g id="a_node13"><a xlink:href="../../db/d97/class_box_world.html#a6794c083c2a0263c2f585f4ae4b7e39c" target="_top" xlink:title="BoxWorld.updateSprites">
<polygon fill="white" stroke="black" points="1517.5,-190.5 1517.5,-209.5 1648.5,-209.5 1648.5,-190.5 1517.5,-190.5"/>
<text text-anchor="middle" x="1583" y="-197.5" font-family="Helvetica,sans-Serif" font-size="10.00">BoxWorld.updateSprites</text>
</a>
</g>
</g>
<!-- Node12&#45;&gt;Node13 -->
<g id="edge12" class="edge"><title>Node12&#45;&gt;Node13</title>
<path fill="none" stroke="midnightblue" d="M1433.39,-200C1455.03,-200 1482,-200 1507,-200"/>
<polygon fill="midnightblue" stroke="midnightblue" points="1507.2,-203.5 1517.2,-200 1507.2,-196.5 1507.2,-203.5"/>
</g>
<!-- Node13&#45;&gt;Node1 -->
<g id="edge13" class="edge"><title>Node13&#45;&gt;Node1</title>
<path fill="none" stroke="midnightblue" d="M1520.05,-209.559C1513.64,-212.027 1507.47,-215.122 1502,-219 1477.86,-236.103 1489.43,-256.934 1466,-275 1378.29,-342.624 1339.75,-352 1229,-352 374,-352 374,-352 374,-352 283.62,-352 255.127,-338.112 182,-285 135.618,-251.313 99.8523,-192.115 83.5949,-161.901"/>
<polygon fill="midnightblue" stroke="midnightblue" points="86.5882,-160.072 78.8423,-152.844 80.3898,-163.325 86.5882,-160.072"/>
</g>
<!-- Node13&#45;&gt;Node3 -->
<g id="edge16" class="edge"><title>Node13&#45;&gt;Node3</title>
<path fill="none" stroke="midnightblue" d="M1633.46,-190.46C1660.15,-185.31 1693.3,-178.916 1721.42,-173.494"/>
<polygon fill="midnightblue" stroke="midnightblue" points="1722.37,-176.875 1731.52,-171.544 1721.04,-170.001 1722.37,-176.875"/>
</g>
<!-- Node13&#45;&gt;Node4 -->
<g id="edge17" class="edge"><title>Node13&#45;&gt;Node4</title>
<path fill="none" stroke="midnightblue" d="M1642.35,-190.369C1649.9,-187.92 1657.32,-184.849 1664,-181 1684.16,-169.384 1679.83,-154.588 1700,-143 1703.91,-140.754 1708.07,-138.773 1712.36,-137.026"/>
<polygon fill="midnightblue" stroke="midnightblue" points="1713.71,-140.26 1721.92,-133.564 1711.33,-133.678 1713.71,-140.26"/>
</g>
<!-- Node14 -->
<g id="node14" class="node"><title>Node14</title>
<g id="a_node14"><a xlink:href="../../da/de2/class_sticky_box.html#a59337f0aa3c7379a2cb9c76bdc621daf" target="_top" xlink:title="StickyBox.setStuck">
<polygon fill="white" stroke="black" points="1728,-190.5 1728,-209.5 1836,-209.5 1836,-190.5 1728,-190.5"/>
<text text-anchor="middle" x="1782" y="-197.5" font-family="Helvetica,sans-Serif" font-size="10.00">StickyBox.setStuck</text>
</a>
</g>
</g>
<!-- Node13&#45;&gt;Node14 -->
<g id="edge14" class="edge"><title>Node13&#45;&gt;Node14</title>
<path fill="none" stroke="midnightblue" d="M1648.51,-200C1670.69,-200 1695.49,-200 1717.59,-200"/>
<polygon fill="midnightblue" stroke="midnightblue" points="1717.86,-203.5 1727.86,-200 1717.86,-196.5 1717.86,-203.5"/>
</g>
<!-- Node15 -->
<g id="node15" class="node"><title>Node15</title>
<g id="a_node15"><a xlink:href="../../da/de2/class_sticky_box.html#a5d95d2ed2e13f0d87a44311db77f9e36" target="_top" xlink:title="StickyBox.setPreviousDirection">
<polygon fill="white" stroke="black" points="1700,-266.5 1700,-285.5 1864,-285.5 1864,-266.5 1700,-266.5"/>
<text text-anchor="middle" x="1782" y="-273.5" font-family="Helvetica,sans-Serif" font-size="10.00">StickyBox.setPreviousDirection</text>
</a>
</g>
</g>
<!-- Node13&#45;&gt;Node15 -->
<g id="edge15" class="edge"><title>Node13&#45;&gt;Node15</title>
<path fill="none" stroke="midnightblue" d="M1642.35,-209.631C1649.9,-212.08 1657.32,-215.151 1664,-219 1684.16,-230.616 1679.83,-245.412 1700,-257 1703.91,-259.246 1708.07,-261.227 1712.36,-262.974"/>
<polygon fill="midnightblue" stroke="midnightblue" points="1711.33,-266.322 1721.92,-266.436 1713.71,-259.74 1711.33,-266.322"/>
</g>
<!-- Node16 -->
<g id="node16" class="node"><title>Node16</title>
<g id="a_node16"><a xlink:href="../../da/de2/class_sticky_box.html#aa1bb8f78f676b01c688d75d386758444" target="_top" xlink:title="StickyBox.setDirection">
<polygon fill="white" stroke="black" points="1720,-304.5 1720,-323.5 1844,-323.5 1844,-304.5 1720,-304.5"/>
<text text-anchor="middle" x="1782" y="-311.5" font-family="Helvetica,sans-Serif" font-size="10.00">StickyBox.setDirection</text>
</a>
</g>
</g>
<!-- Node13&#45;&gt;Node16 -->
<g id="edge18" class="edge"><title>Node13&#45;&gt;Node16</title>
<path fill="none" stroke="midnightblue" d="M1648.08,-209.548C1653.81,-212.035 1659.23,-215.136 1664,-219 1693.04,-242.525 1670.92,-271.516 1700,-295 1703.29,-297.655 1706.88,-299.951 1710.67,-301.936"/>
<polygon fill="midnightblue" stroke="midnightblue" points="1709.24,-305.133 1719.8,-306.024 1712.1,-298.744 1709.24,-305.133"/>
</g>
<!-- Node17 -->
<g id="node17" class="node"><title>Node17</title>
<g id="a_node17"><a xlink:href="../../da/de2/class_sticky_box.html#a185ee469367b376e6c5969a03d089d57" target="_top" xlink:title="StickyBox.move">
<polygon fill="white" stroke="black" points="1735.5,-228.5 1735.5,-247.5 1828.5,-247.5 1828.5,-228.5 1735.5,-228.5"/>
<text text-anchor="middle" x="1782" y="-235.5" font-family="Helvetica,sans-Serif" font-size="10.00">StickyBox.move</text>
</a>
</g>
</g>
<!-- Node13&#45;&gt;Node17 -->
<g id="edge19" class="edge"><title>Node13&#45;&gt;Node17</title>
<path fill="none" stroke="midnightblue" d="M1633.46,-209.54C1661.39,-214.929 1696.39,-221.68 1725.29,-227.255"/>
<polygon fill="midnightblue" stroke="midnightblue" points="1724.76,-230.716 1735.24,-229.173 1726.08,-223.843 1724.76,-230.716"/>
</g>
<!-- Node19 -->
<g id="node19" class="node"><title>Node19</title>
<g id="a_node19"><a xlink:href="../../db/d97/class_box_world.html#aa7e2049d7be23e15fd2ec7fa2922ed79" target="_top" xlink:title="BoxWorld.handleKeyInput">
<polygon fill="white" stroke="black" points="859,-152.5 859,-171.5 995,-171.5 995,-152.5 859,-152.5"/>
<text text-anchor="middle" x="927" y="-159.5" font-family="Helvetica,sans-Serif" font-size="10.00">BoxWorld.handleKeyInput</text>
</a>
</g>
</g>
<!-- Node18&#45;&gt;Node19 -->
<g id="edge21" class="edge"><title>Node18&#45;&gt;Node19</title>
<path fill="none" stroke="midnightblue" d="M798.151,-133.589C820.919,-138.649 849.048,-144.9 873.119,-150.249"/>
<polygon fill="midnightblue" stroke="midnightblue" points="872.639,-153.727 883.16,-152.48 874.157,-146.894 872.639,-153.727"/>
</g>
<!-- Node29 -->
<g id="node29" class="node"><title>Node29</title>
<g id="a_node29"><a xlink:href="../../db/d97/class_box_world.html#a2d44485a181577acb4d79b6b81f26fff" target="_top" xlink:title="BoxWorld.handleKeyRelease">
<polygon fill="white" stroke="black" points="852.5,-114.5 852.5,-133.5 1001.5,-133.5 1001.5,-114.5 852.5,-114.5"/>
<text text-anchor="middle" x="927" y="-121.5" font-family="Helvetica,sans-Serif" font-size="10.00">BoxWorld.handleKeyRelease</text>
</a>
</g>
</g>
<!-- Node18&#45;&gt;Node29 -->
<g id="edge39" class="edge"><title>Node18&#45;&gt;Node29</title>
<path fill="none" stroke="midnightblue" d="M816.252,-124C824.655,-124 833.399,-124 842.121,-124"/>
<polygon fill="midnightblue" stroke="midnightblue" points="842.327,-127.5 852.327,-124 842.327,-120.5 842.327,-127.5"/>
</g>
<!-- Node19&#45;&gt;Node16 -->
<g id="edge27" class="edge"><title>Node19&#45;&gt;Node16</title>
<path fill="none" stroke="midnightblue" d="M941.896,-171.523C983.27,-198.922 1110.06,-276 1227,-276 1227,-276 1227,-276 1391,-276 1503.14,-276 1632.58,-291.757 1710.53,-302.978"/>
<polygon fill="midnightblue" stroke="midnightblue" points="1710.31,-306.483 1720.71,-304.46 1711.32,-299.556 1710.31,-306.483"/>
</g>
<!-- Node20 -->
<g id="node20" class="node"><title>Node20</title>
<g id="a_node20"><a xlink:href="../../db/d97/class_box_world.html#adc4c9d78ffde3d052c4c92047eb98e55" target="_top" xlink:title="BoxWorld.allowMovement">
<polygon fill="white" stroke="black" points="1514.5,-114.5 1514.5,-133.5 1651.5,-133.5 1651.5,-114.5 1514.5,-114.5"/>
<text text-anchor="middle" x="1583" y="-121.5" font-family="Helvetica,sans-Serif" font-size="10.00">BoxWorld.allowMovement</text>
</a>
</g>
</g>
<!-- Node19&#45;&gt;Node20 -->
<g id="edge22" class="edge"><title>Node19&#45;&gt;Node20</title>
<path fill="none" stroke="midnightblue" d="M995.221,-158.094C1117.25,-151.004 1374.53,-136.055 1504.04,-128.53"/>
<polygon fill="midnightblue" stroke="midnightblue" points="1504.5,-132.009 1514.28,-127.935 1504.09,-125.021 1504.5,-132.009"/>
</g>
<!-- Node23 -->
<g id="node23" class="node"><title>Node23</title>
<g id="a_node23"><a xlink:href="../../db/d97/class_box_world.html#a04c6bf977c4292a5433649fb3745fd6b" target="_top" xlink:title="BoxWorld.reset">
<polygon fill="white" stroke="black" points="1539,-228.5 1539,-247.5 1627,-247.5 1627,-228.5 1539,-228.5"/>
<text text-anchor="middle" x="1583" y="-235.5" font-family="Helvetica,sans-Serif" font-size="10.00">BoxWorld.reset</text>
</a>
</g>
</g>
<!-- Node19&#45;&gt;Node23 -->
<g id="edge28" class="edge"><title>Node19&#45;&gt;Node23</title>
<path fill="none" stroke="midnightblue" d="M983.442,-171.538C1058.26,-184.101 1195.82,-206.103 1314,-219 1388.27,-227.105 1474.52,-232.506 1528.68,-235.413"/>
<polygon fill="midnightblue" stroke="midnightblue" points="1528.57,-238.912 1538.74,-235.945 1528.94,-231.922 1528.57,-238.912"/>
</g>
<!-- Node19&#45;&gt;Node24 -->
<g id="edge31" class="edge"><title>Node19&#45;&gt;Node24</title>
<path fill="none" stroke="midnightblue" d="M968.627,-152.411C989.968,-147.374 1016.31,-141.156 1038.91,-135.823"/>
<polygon fill="midnightblue" stroke="midnightblue" points="1039.74,-139.224 1048.67,-133.52 1038.13,-132.411 1039.74,-139.224"/>
</g>
<!-- Node20&#45;&gt;Node3 -->
<g id="edge23" class="edge"><title>Node20&#45;&gt;Node3</title>
<path fill="none" stroke="midnightblue" d="M1633.46,-133.54C1660.15,-138.69 1693.3,-145.084 1721.42,-150.506"/>
<polygon fill="midnightblue" stroke="midnightblue" points="1721.04,-153.999 1731.52,-152.456 1722.37,-147.125 1721.04,-153.999"/>
</g>
<!-- Node20&#45;&gt;Node4 -->
<g id="edge25" class="edge"><title>Node20&#45;&gt;Node4</title>
<path fill="none" stroke="midnightblue" d="M1651.52,-124C1669.29,-124 1688.57,-124 1706.67,-124"/>
<polygon fill="midnightblue" stroke="midnightblue" points="1706.89,-127.5 1716.89,-124 1706.89,-120.5 1706.89,-127.5"/>
</g>
<!-- Node21 -->
<g id="node21" class="node"><title>Node21</title>
<g id="a_node21"><a xlink:href="../../da/de2/class_sticky_box.html#ab0bd7cafb7f243e3951558ddb8728b96" target="_top" xlink:title="StickyBox.getXPrev">
<polygon fill="white" stroke="black" points="1727.5,-38.5 1727.5,-57.5 1836.5,-57.5 1836.5,-38.5 1727.5,-38.5"/>
<text text-anchor="middle" x="1782" y="-45.5" font-family="Helvetica,sans-Serif" font-size="10.00">StickyBox.getXPrev</text>
</a>
</g>
</g>
<!-- Node20&#45;&gt;Node21 -->
<g id="edge24" class="edge"><title>Node20&#45;&gt;Node21</title>
<path fill="none" stroke="midnightblue" d="M1642.35,-114.369C1649.9,-111.92 1657.32,-108.849 1664,-105 1684.16,-93.3839 1679.83,-78.5881 1700,-67 1705.51,-63.8366 1711.51,-61.1993 1717.68,-59.0008"/>
<polygon fill="midnightblue" stroke="midnightblue" points="1718.99,-62.2572 1727.46,-55.8946 1716.87,-55.5855 1718.99,-62.2572"/>
</g>
<!-- Node22 -->
<g id="node22" class="node"><title>Node22</title>
<g id="a_node22"><a xlink:href="../../da/de2/class_sticky_box.html#a4c6abed944faed9d9b226079e99cfc24" target="_top" xlink:title="StickyBox.getYPrev">
<polygon fill="white" stroke="black" points="1728,-76.5 1728,-95.5 1836,-95.5 1836,-76.5 1728,-76.5"/>
<text text-anchor="middle" x="1782" y="-83.5" font-family="Helvetica,sans-Serif" font-size="10.00">StickyBox.getYPrev</text>
</a>
</g>
</g>
<!-- Node20&#45;&gt;Node22 -->
<g id="edge26" class="edge"><title>Node20&#45;&gt;Node22</title>
<path fill="none" stroke="midnightblue" d="M1633.46,-114.46C1660.15,-109.31 1693.3,-102.916 1721.42,-97.4935"/>
<polygon fill="midnightblue" stroke="midnightblue" points="1722.37,-100.875 1731.52,-95.5439 1721.04,-94.0013 1722.37,-100.875"/>
</g>
<!-- Node23&#45;&gt;Node15 -->
<g id="edge30" class="edge"><title>Node23&#45;&gt;Node15</title>
<path fill="none" stroke="midnightblue" d="M1627.23,-246.339C1654.91,-251.678 1691.2,-258.678 1721.57,-264.536"/>
<polygon fill="midnightblue" stroke="midnightblue" points="1721.14,-268.018 1731.62,-266.475 1722.47,-261.145 1721.14,-268.018"/>
</g>
<!-- Node23&#45;&gt;Node16 -->
<g id="edge29" class="edge"><title>Node23&#45;&gt;Node16</title>
<path fill="none" stroke="midnightblue" d="M1627.39,-247.175C1639.69,-250.781 1652.78,-255.625 1664,-262 1682.87,-272.723 1680.81,-284.858 1700,-295 1704.32,-297.284 1708.92,-299.296 1713.64,-301.069"/>
<polygon fill="midnightblue" stroke="midnightblue" points="1712.86,-304.5 1723.45,-304.38 1715.1,-297.868 1712.86,-304.5"/>
</g>
<!-- Node25 -->
<g id="node25" class="node"><title>Node25</title>
<g id="a_node25"><a xlink:href="../../d6/d4f/class_item_box_world.html#aa559fc2680327b41fb376e2eda8e82e3" target="_top" xlink:title="ItemBoxWorld.init">
<polygon fill="white" stroke="black" points="1178.5,-76.5 1178.5,-95.5 1277.5,-95.5 1277.5,-76.5 1178.5,-76.5"/>
<text text-anchor="middle" x="1228" y="-83.5" font-family="Helvetica,sans-Serif" font-size="10.00">ItemBoxWorld.init</text>
</a>
</g>
</g>
<!-- Node24&#45;&gt;Node25 -->
<g id="edge32" class="edge"><title>Node24&#45;&gt;Node25</title>
<path fill="none" stroke="midnightblue" d="M1125.32,-114.411C1142.79,-109.528 1164.24,-103.536 1182.93,-98.315"/>
<polygon fill="midnightblue" stroke="midnightblue" points="1184,-101.648 1192.69,-95.5859 1182.12,-94.9062 1184,-101.648"/>
</g>
<!-- Node25&#45;&gt;Node10 -->
<g id="edge33" class="edge"><title>Node25&#45;&gt;Node10</title>
<path fill="none" stroke="midnightblue" d="M1249.26,-76.3745C1277.16,-63.1261 1327.55,-39.187 1359.59,-23.9687"/>
<polygon fill="midnightblue" stroke="midnightblue" points="1361.37,-26.9994 1368.9,-19.5473 1358.37,-20.6764 1361.37,-26.9994"/>
</g>
<!-- Node25&#45;&gt;Node12 -->
<g id="edge37" class="edge"><title>Node25&#45;&gt;Node12</title>
<path fill="none" stroke="midnightblue" d="M1242.37,-95.5235C1269.94,-115.173 1333.38,-160.373 1367.06,-184.37"/>
<polygon fill="midnightblue" stroke="midnightblue" points="1365.16,-187.31 1375.33,-190.262 1369.22,-181.609 1365.16,-187.31"/>
</g>
<!-- Node25&#45;&gt;Node18 -->
<g id="edge38" class="edge"><title>Node25&#45;&gt;Node18</title>
<path fill="none" stroke="midnightblue" d="M1178.27,-86.253C1106.55,-87.1263 968.465,-90.7173 852,-105 837.192,-106.816 821.255,-109.59 806.663,-112.461"/>
<polygon fill="midnightblue" stroke="midnightblue" points="805.915,-109.042 796.807,-114.454 807.302,-115.903 805.915,-109.042"/>
</g>
<!-- Node26 -->
<g id="node26" class="node"><title>Node26</title>
<g id="a_node26"><a xlink:href="../../d6/d4f/class_item_box_world.html#a7ead15fd9fd8095f928640161d48fdf8" target="_top" xlink:title="ItemBoxWorld.addAllItems">
<polygon fill="white" stroke="black" points="1319.5,-76.5 1319.5,-95.5 1460.5,-95.5 1460.5,-76.5 1319.5,-76.5"/>
<text text-anchor="middle" x="1390" y="-83.5" font-family="Helvetica,sans-Serif" font-size="10.00">ItemBoxWorld.addAllItems</text>
</a>
</g>
</g>
<!-- Node25&#45;&gt;Node26 -->
<g id="edge34" class="edge"><title>Node25&#45;&gt;Node26</title>
<path fill="none" stroke="midnightblue" d="M1277.87,-86C1287.76,-86 1298.41,-86 1309.05,-86"/>
<polygon fill="midnightblue" stroke="midnightblue" points="1309.22,-89.5001 1319.22,-86 1309.22,-82.5001 1309.22,-89.5001"/>
</g>
<!-- Node27 -->
<g id="node27" class="node"><title>Node27</title>
<g id="a_node27"><a xlink:href="../../d6/d4f/class_item_box_world.html#a1890e6c53a4a73e44e9528009fde508d" target="_top" xlink:title="ItemBoxWorld.itemExists">
<polygon fill="white" stroke="black" points="1516,-38.5 1516,-57.5 1650,-57.5 1650,-38.5 1516,-38.5"/>
<text text-anchor="middle" x="1583" y="-45.5" font-family="Helvetica,sans-Serif" font-size="10.00">ItemBoxWorld.itemExists</text>
</a>
</g>
</g>
<!-- Node26&#45;&gt;Node27 -->
<g id="edge35" class="edge"><title>Node26&#45;&gt;Node27</title>
<path fill="none" stroke="midnightblue" d="M1439.2,-76.411C1464.97,-71.2835 1496.89,-64.9328 1524.01,-59.5368"/>
<polygon fill="midnightblue" stroke="midnightblue" points="1525.02,-62.9041 1534.15,-57.5201 1523.66,-56.0387 1525.02,-62.9041"/>
</g>
<!-- Node28 -->
<g id="node28" class="node"><title>Node28</title>
<g id="a_node28"><a xlink:href="../../d6/d4f/class_item_box_world.html#af1bcde0672796e926560684004ed8e81" target="_top" xlink:title="ItemBoxWorld.addSingleItem">
<polygon fill="white" stroke="black" points="1506,-76.5 1506,-95.5 1660,-95.5 1660,-76.5 1506,-76.5"/>
<text text-anchor="middle" x="1583" y="-83.5" font-family="Helvetica,sans-Serif" font-size="10.00">ItemBoxWorld.addSingleItem</text>
</a>
</g>
</g>
<!-- Node26&#45;&gt;Node28 -->
<g id="edge36" class="edge"><title>Node26&#45;&gt;Node28</title>
<path fill="none" stroke="midnightblue" d="M1460.77,-86C1472.14,-86 1484.04,-86 1495.75,-86"/>
<polygon fill="midnightblue" stroke="midnightblue" points="1495.98,-89.5001 1505.98,-86 1495.98,-82.5001 1495.98,-89.5001"/>
</g>
</g>
</svg>
        <g id="navigator" transform="translate(0 0)" fill="#404254">
                <rect fill="#f2f5e9" fill-opacity="0.5" stroke="#606060" stroke-width=".5" x="0" y="0" width="60" height="60"/>
                <use id="zoomplus" xlink:href="#zoomPlus" x="17" y="9" onmousedown="handleZoom(evt,'in')"/>
                <use id="zoomminus" xlink:href="#zoomMin" x="42" y="9" onmousedown="handleZoom(evt,'out')"/>
                <use id="reset" xlink:href="#resetDef" x="30" y="36" onmousedown="handleReset()"/>
                <g id="arrowUp" xlink:href="#dirArrow" transform="translate(30 24)" onmousedown="handlePan(0,-1)">
                  <use xlink:href="#rim" fill="#404040">
                        <set attributeName="fill" to="#808080" begin="arrowUp.mouseover" end="arrowUp.mouseout"/>
                  </use>
                  <path fill="none" stroke="white" stroke-width="1.5" d="M0,-3.0v7 M-2.5,-0.5L0,-3.0L2.5,-0.5"/>
                </g>
                <g id="arrowRight" xlink:href="#dirArrow" transform="rotate(90) translate(36 -43)" onmousedown="handlePan(1,0)">
                  <use xlink:href="#rim" fill="#404040">
                        <set attributeName="fill" to="#808080" begin="arrowRight.mouseover" end="arrowRight.mouseout"/>
                  </use>
                  <path fill="none" stroke="white" stroke-width="1.5" d="M0,-3.0v7 M-2.5,-0.5L0,-3.0L2.5,-0.5"/>
                </g>
                <g id="arrowDown" xlink:href="#dirArrow" transform="rotate(180) translate(-30 -48)" onmousedown="handlePan(0,1)">
                  <use xlink:href="#rim" fill="#404040">
                        <set attributeName="fill" to="#808080" begin="arrowDown.mouseover" end="arrowDown.mouseout"/>
                  </use>
                  <path fill="none" stroke="white" stroke-width="1.5" d="M0,-3.0v7 M-2.5,-0.5L0,-3.0L2.5,-0.5"/>
                </g>
                <g id="arrowLeft" xlink:href="#dirArrow" transform="rotate(270) translate(-36 17)" onmousedown="handlePan(-1,0)">
                  <use xlink:href="#rim" fill="#404040">
                        <set attributeName="fill" to="#808080" begin="arrowLeft.mouseover" end="arrowLeft.mouseout"/>
                  </use>
                  <path fill="none" stroke="white" stroke-width="1.5" d="M0,-3.0v7 M-2.5,-0.5L0,-3.0L2.5,-0.5"/>
                </g>
        </g>
        <svg viewBox="0 0 15 15" width="100%" height="30px" preserveAspectRatio="xMaxYMin meet">
         <g id="arrow_out" transform="scale(0.3 0.3)">
          <a xlink:href="class_box_world_a4079bed8937c9f621decfbe1309e31e2_cgraph_org.svg" target="_base">
           <rect id="button" ry="5" rx="5" y="6" x="6" height="38" width="38"
                fill="#f2f5e9" fill-opacity="0.5" stroke="#606060" stroke-width="1.0"/>
           <path id="arrow"
             d="M 11.500037,31.436501 C 11.940474,20.09759 22.043105,11.32322 32.158766,21.979434 L 37.068811,17.246167 C 37.068811,17.246167 37.088388,32 37.088388,32 L 22.160133,31.978069 C 22.160133,31.978069 26.997745,27.140456 26.997745,27.140456 C 18.528582,18.264221 13.291696,25.230495 11.500037,31.436501 z"
             style="fill:#404040;"/>
          </a>
         </g>
        </svg>
</svg>
