<?xml version="1.0" encoding="UTF-8" standalone="no"?>
<!DOCTYPE svg PUBLIC "-//W3C//DTD SVG 1.1//EN"
 "http://www.w3.org/Graphics/SVG/1.1/DTD/svg11.dtd">
<!-- Generated by graphviz version 2.36.0 (20140111.2315)
 -->
<!-- Title: BoxWorld.updateSprites Pages: 1 -->
<svg width="1562pt" height="170pt"
 viewBox="0.00 0.00 1562.00 170.00" xmlns="http://www.w3.org/2000/svg" xmlns:xlink="http://www.w3.org/1999/xlink">
<g id="graph0" class="graph" transform="scale(1 1) rotate(0) translate(4 166)">
<title>BoxWorld.updateSprites</title>
<polygon fill="white" stroke="none" points="-4,4 -4,-166 1558,-166 1558,4 -4,4"/>
<!-- Node1 -->
<g id="node1" class="node"><title>Node1</title>
<polygon fill="#bfbfbf" stroke="black" points="0.5,-28.5 0.5,-47.5 131.5,-47.5 131.5,-28.5 0.5,-28.5"/>
<text text-anchor="middle" x="66" y="-35.5" font-family="Helvetica,sans-Serif" font-size="10.00">BoxWorld.updateSprites</text>
</g>
<!-- Node2 -->
<g id="node2" class="node"><title>Node2</title>
<g id="a_node2"><a xlink:href="../../db/d97/class_box_world.html#ad20a4e43406c44f4bbf201d1d1028998" target="_top" xlink:title="BoxWorld.start">
<polygon fill="white" stroke="black" points="168,-85.5 168,-104.5 254,-104.5 254,-85.5 168,-85.5"/>
<text text-anchor="middle" x="211" y="-92.5" font-family="Helvetica,sans-Serif" font-size="10.00">BoxWorld.start</text>
</a>
</g>
</g>
<!-- Node1&#45;&gt;Node2 -->
<g id="edge1" class="edge"><title>Node1&#45;&gt;Node2</title>
<path fill="none" stroke="midnightblue" d="M100.469,-51.3409C126.696,-61.795 162.553,-76.0874 185.987,-85.4284"/>
<polygon fill="midnightblue" stroke="midnightblue" points="101.52,-47.992 90.935,-47.5405 98.9283,-54.4945 101.52,-47.992"/>
</g>
<!-- Node3 -->
<g id="node3" class="node"><title>Node3</title>
<g id="a_node3"><a xlink:href="../../d6/d4f/class_item_box_world.html#aa559fc2680327b41fb376e2eda8e82e3" target="_top" xlink:title="ItemBoxWorld.init">
<polygon fill="white" stroke="black" points="290.5,-85.5 290.5,-104.5 389.5,-104.5 389.5,-85.5 290.5,-85.5"/>
<text text-anchor="middle" x="340" y="-92.5" font-family="Helvetica,sans-Serif" font-size="10.00">ItemBoxWorld.init</text>
</a>
</g>
</g>
<!-- Node2&#45;&gt;Node3 -->
<g id="edge2" class="edge"><title>Node2&#45;&gt;Node3</title>
<path fill="none" stroke="midnightblue" d="M264.523,-95C273.059,-95 281.868,-95 290.307,-95"/>
<polygon fill="midnightblue" stroke="midnightblue" points="264.289,-91.5001 254.289,-95 264.289,-98.5001 264.289,-91.5001"/>
</g>
<!-- Node8 -->
<g id="node8" class="node"><title>Node8</title>
<g id="a_node8"><a xlink:href="../../db/d97/class_box_world.html#a55bf92d3f466bfaade0f6d199d8c9bd9" target="_top" xlink:title="BoxWorld.init">
<polygon fill="white" stroke="black" points="898.5,-104.5 898.5,-123.5 975.5,-123.5 975.5,-104.5 898.5,-104.5"/>
<text text-anchor="middle" x="937" y="-111.5" font-family="Helvetica,sans-Serif" font-size="10.00">BoxWorld.init</text>
</a>
</g>
</g>
<!-- Node2&#45;&gt;Node8 -->
<g id="edge18" class="edge"><title>Node2&#45;&gt;Node8</title>
<path fill="none" stroke="midnightblue" d="M247.775,-107.748C298.207,-124.549 393.396,-152 477,-152 477,-152 477,-152 635,-152 736.242,-152 762.174,-149.87 862,-133 875.863,-130.657 890.933,-126.997 903.834,-123.512"/>
<polygon fill="midnightblue" stroke="midnightblue" points="248.897,-104.432 238.303,-104.541 246.652,-111.062 248.897,-104.432"/>
</g>
<!-- Node4 -->
<g id="node4" class="node"><title>Node4</title>
<g id="a_node4"><a xlink:href="../../db/d97/class_box_world.html#aad670712776afe126e51791097027e05" target="_top" xlink:title="BoxWorld.winLevel">
<polygon fill="white" stroke="black" points="426.5,-66.5 426.5,-85.5 529.5,-85.5 529.5,-66.5 426.5,-66.5"/>
<text text-anchor="middle" x="478" y="-73.5" font-family="Helvetica,sans-Serif" font-size="10.00">BoxWorld.winLevel</text>
</a>
</g>
</g>
<!-- Node3&#45;&gt;Node4 -->
<g id="edge3" class="edge"><title>Node3&#45;&gt;Node4</title>
<path fill="none" stroke="midnightblue" d="M399.628,-86.8094C408.519,-85.5672 417.628,-84.2946 426.331,-83.0787"/>
<polygon fill="midnightblue" stroke="midnightblue" points="399.135,-83.3442 389.715,-88.1942 400.103,-90.2769 399.135,-83.3442"/>
</g>
<!-- Node5 -->
<g id="node5" class="node"><title>Node5</title>
<g id="a_node5"><a xlink:href="../../db/d97/class_box_world.html#a4079bed8937c9f621decfbe1309e31e2" target="_top" xlink:title="BoxWorld.checkAllCollisions">
<polygon fill="white" stroke="black" points="1402,-28.5 1402,-47.5 1548,-47.5 1548,-28.5 1402,-28.5"/>
<text text-anchor="middle" x="1475" y="-35.5" font-family="Helvetica,sans-Serif" font-size="10.00">BoxWorld.checkAllCollisions</text>
</a>
</g>
</g>
<!-- Node4&#45;&gt;Node5 -->
<g id="edge4" class="edge"><title>Node4&#45;&gt;Node5</title>
<path fill="none" stroke="midnightblue" d="M527.174,-64.2777C539.75,-61.5484 553.331,-58.8912 566,-57 668.761,-41.6595 695.101,-38 799,-38 799,-38 799,-38 1154,-38 1239.14,-38 1337.02,-38 1401.88,-38"/>
<polygon fill="midnightblue" stroke="midnightblue" points="526.34,-60.8776 517.341,-66.4687 527.863,-67.7101 526.34,-60.8776"/>
</g>
<!-- Node6 -->
<g id="node6" class="node"><title>Node6</title>
<g id="a_node6"><a xlink:href="../../db/d97/class_box_world.html#aa7e2049d7be23e15fd2ec7fa2922ed79" target="_top" xlink:title="BoxWorld.handleKeyInput">
<polygon fill="white" stroke="black" points="566,-66.5 566,-85.5 702,-85.5 702,-66.5 566,-66.5"/>
<text text-anchor="middle" x="634" y="-73.5" font-family="Helvetica,sans-Serif" font-size="10.00">BoxWorld.handleKeyInput</text>
</a>
</g>
</g>
<!-- Node4&#45;&gt;Node6 -->
<g id="edge6" class="edge"><title>Node4&#45;&gt;Node6</title>
<path fill="none" stroke="midnightblue" d="M540.075,-76C548.591,-76 557.378,-76 565.996,-76"/>
<polygon fill="midnightblue" stroke="midnightblue" points="539.852,-72.5001 529.852,-76 539.852,-79.5001 539.852,-72.5001"/>
</g>
<!-- Node5&#45;&gt;Node1 -->
<g id="edge5" class="edge"><title>Node5&#45;&gt;Node1</title>
<path fill="none" stroke="midnightblue" d="M1414.69,-26.7022C1350.63,-15.5008 1245.47,-0 1154,-0 339,-0 339,-0 339,-0 256.989,-0 162.395,-17.1538 109.148,-28.411"/>
<polygon fill="midnightblue" stroke="midnightblue" points="1414.15,-30.1612 1424.6,-28.46 1415.37,-23.2686 1414.15,-30.1612"/>
</g>
<!-- Node7 -->
<g id="node7" class="node"><title>Node7</title>
<g id="a_node7"><a xlink:href="../../db/d97/class_box_world.html#a726e747e023543658d7a345cc6466ccb" target="_top" xlink:title="BoxWorld.createScene">
<polygon fill="white" stroke="black" points="738,-104.5 738,-123.5 862,-123.5 862,-104.5 738,-104.5"/>
<text text-anchor="middle" x="800" y="-111.5" font-family="Helvetica,sans-Serif" font-size="10.00">BoxWorld.createScene</text>
</a>
</g>
</g>
<!-- Node6&#45;&gt;Node7 -->
<g id="edge7" class="edge"><title>Node6&#45;&gt;Node7</title>
<path fill="none" stroke="midnightblue" d="M686.341,-87.8961C709.393,-93.2374 736.221,-99.4537 757.913,-104.48"/>
<polygon fill="midnightblue" stroke="midnightblue" points="686.916,-84.4367 676.384,-85.589 685.336,-91.256 686.916,-84.4367"/>
</g>
<!-- Node7&#45;&gt;Node3 -->
<g id="edge8" class="edge"><title>Node7&#45;&gt;Node3</title>
<path fill="none" stroke="midnightblue" d="M727.918,-111.051C633.899,-107.151 470.656,-100.379 389.58,-97.0153"/>
<polygon fill="midnightblue" stroke="midnightblue" points="727.775,-114.548 737.912,-111.466 728.066,-107.554 727.775,-114.548"/>
</g>
<!-- Node7&#45;&gt;Node8 -->
<g id="edge9" class="edge"><title>Node7&#45;&gt;Node8</title>
<path fill="none" stroke="midnightblue" d="M872.282,-114C881.225,-114 890.08,-114 898.215,-114"/>
<polygon fill="midnightblue" stroke="midnightblue" points="872.18,-110.5 862.18,-114 872.18,-117.5 872.18,-110.5"/>
</g>
<!-- Node9 -->
<g id="node9" class="node"><title>Node9</title>
<g id="a_node9"><a xlink:href="../../d2/db8/class_menu.html#a3c99ad09e9f2f975c1a0d0597642651a" target="_top" xlink:title="Menu.init">
<polygon fill="white" stroke="black" points="1012,-104.5 1012,-123.5 1072,-123.5 1072,-104.5 1012,-104.5"/>
<text text-anchor="middle" x="1042" y="-111.5" font-family="Helvetica,sans-Serif" font-size="10.00">Menu.init</text>
</a>
</g>
</g>
<!-- Node8&#45;&gt;Node9 -->
<g id="edge10" class="edge"><title>Node8&#45;&gt;Node9</title>
<path fill="none" stroke="midnightblue" d="M986.034,-114C994.886,-114 1003.87,-114 1011.95,-114"/>
<polygon fill="midnightblue" stroke="midnightblue" points="985.769,-110.5 975.769,-114 985.768,-117.5 985.769,-110.5"/>
</g>
<!-- Node10 -->
<g id="node10" class="node"><title>Node10</title>
<g id="a_node10"><a xlink:href="../../d1/de1/class_end_screen.html#a1264ffb72b3a3032443f9c4087222aef" target="_top" xlink:title="EndScreen.init">
<polygon fill="white" stroke="black" points="1110,-142.5 1110,-161.5 1196,-161.5 1196,-142.5 1110,-142.5"/>
<text text-anchor="middle" x="1153" y="-149.5" font-family="Helvetica,sans-Serif" font-size="10.00">EndScreen.init</text>
</a>
</g>
</g>
<!-- Node9&#45;&gt;Node10 -->
<g id="edge11" class="edge"><title>Node9&#45;&gt;Node10</title>
<path fill="none" stroke="midnightblue" d="M1080.21,-126.972C1094.73,-132.034 1111.08,-137.734 1124.5,-142.414"/>
<polygon fill="midnightblue" stroke="midnightblue" points="1081.1,-123.576 1070.51,-123.589 1078.8,-130.186 1081.1,-123.576"/>
</g>
<!-- Node13 -->
<g id="node13" class="node"><title>Node13</title>
<g id="a_node13"><a xlink:href="../../d4/d2f/class_lose_screen.html#a34f2cc2c803500316c9b8d854854d758" target="_top" xlink:title="LoseScreen.init">
<polygon fill="white" stroke="black" points="1108,-66.5 1108,-85.5 1198,-85.5 1198,-66.5 1108,-66.5"/>
<text text-anchor="middle" x="1153" y="-73.5" font-family="Helvetica,sans-Serif" font-size="10.00">LoseScreen.init</text>
</a>
</g>
</g>
<!-- Node9&#45;&gt;Node13 -->
<g id="edge14" class="edge"><title>Node9&#45;&gt;Node13</title>
<path fill="none" stroke="midnightblue" d="M1080.21,-101.028C1094.73,-95.9656 1111.08,-90.2659 1124.5,-85.5859"/>
<polygon fill="midnightblue" stroke="midnightblue" points="1078.8,-97.8141 1070.51,-104.411 1081.1,-104.424 1078.8,-97.8141"/>
</g>
<!-- Node15 -->
<g id="node15" class="node"><title>Node15</title>
<g id="a_node15"><a xlink:href="../../d0/d4b/class_main.html#a7595d13c514a02c35aca322dd91d2063" target="_top" xlink:title="Main.start">
<polygon fill="white" stroke="black" points="1120.5,-104.5 1120.5,-123.5 1185.5,-123.5 1185.5,-104.5 1120.5,-104.5"/>
<text text-anchor="middle" x="1153" y="-111.5" font-family="Helvetica,sans-Serif" font-size="10.00">Main.start</text>
</a>
</g>
</g>
<!-- Node9&#45;&gt;Node15 -->
<g id="edge17" class="edge"><title>Node9&#45;&gt;Node15</title>
<path fill="none" stroke="midnightblue" d="M1082.38,-114C1094.88,-114 1108.53,-114 1120.41,-114"/>
<polygon fill="midnightblue" stroke="midnightblue" points="1082.21,-110.5 1072.21,-114 1082.21,-117.5 1082.21,-110.5"/>
</g>
<!-- Node11 -->
<g id="node11" class="node"><title>Node11</title>
<g id="a_node11"><a xlink:href="../../d6/d4f/class_item_box_world.html#a2ed12a6b39993faedc05cc682204476d" target="_top" xlink:title="ItemBoxWorld.winLevel">
<polygon fill="white" stroke="black" points="1234.5,-142.5 1234.5,-161.5 1359.5,-161.5 1359.5,-142.5 1234.5,-142.5"/>
<text text-anchor="middle" x="1297" y="-149.5" font-family="Helvetica,sans-Serif" font-size="10.00">ItemBoxWorld.winLevel</text>
</a>
</g>
</g>
<!-- Node10&#45;&gt;Node11 -->
<g id="edge12" class="edge"><title>Node10&#45;&gt;Node11</title>
<path fill="none" stroke="midnightblue" d="M1206.34,-152C1215.5,-152 1225.11,-152 1234.5,-152"/>
<polygon fill="midnightblue" stroke="midnightblue" points="1206.22,-148.5 1196.22,-152 1206.22,-155.5 1206.22,-148.5"/>
</g>
<!-- Node12 -->
<g id="node12" class="node"><title>Node12</title>
<g id="a_node12"><a xlink:href="../../d6/d4f/class_item_box_world.html#ae442d947b4dafc944336ee27628d2175" target="_top" xlink:title="ItemBoxWorld.handleKeyInput">
<polygon fill="white" stroke="black" points="1396,-142.5 1396,-161.5 1554,-161.5 1554,-142.5 1396,-142.5"/>
<text text-anchor="middle" x="1475" y="-149.5" font-family="Helvetica,sans-Serif" font-size="10.00">ItemBoxWorld.handleKeyInput</text>
</a>
</g>
</g>
<!-- Node11&#45;&gt;Node12 -->
<g id="edge13" class="edge"><title>Node11&#45;&gt;Node12</title>
<path fill="none" stroke="midnightblue" d="M1369.57,-152C1378.2,-152 1387.05,-152 1395.77,-152"/>
<polygon fill="midnightblue" stroke="midnightblue" points="1369.56,-148.5 1359.56,-152 1369.56,-155.5 1369.56,-148.5"/>
</g>
<!-- Node14 -->
<g id="node14" class="node"><title>Node14</title>
<g id="a_node14"><a xlink:href="../../db/d97/class_box_world.html#a72bacb2a6757900d8835249929fcc838" target="_top" xlink:title="BoxWorld.loseGame">
<polygon fill="white" stroke="black" points="1241,-66.5 1241,-85.5 1353,-85.5 1353,-66.5 1241,-66.5"/>
<text text-anchor="middle" x="1297" y="-73.5" font-family="Helvetica,sans-Serif" font-size="10.00">BoxWorld.loseGame</text>
</a>
</g>
</g>
<!-- Node13&#45;&gt;Node14 -->
<g id="edge15" class="edge"><title>Node13&#45;&gt;Node14</title>
<path fill="none" stroke="midnightblue" d="M1208.2,-76C1218.9,-76 1230.13,-76 1240.85,-76"/>
<polygon fill="midnightblue" stroke="midnightblue" points="1208.15,-72.5001 1198.15,-76 1208.15,-79.5001 1208.15,-72.5001"/>
</g>
<!-- Node14&#45;&gt;Node5 -->
<g id="edge16" class="edge"><title>Node14&#45;&gt;Node5</title>
<path fill="none" stroke="midnightblue" d="M1352.43,-64.2474C1377.32,-58.8742 1406.42,-52.5914 1429.91,-47.5201"/>
<polygon fill="midnightblue" stroke="midnightblue" points="1351.45,-60.8793 1342.41,-66.411 1352.93,-67.7216 1351.45,-60.8793"/>
</g>
</g>
</svg>
