<?xml version="1.0" encoding="UTF-8" standalone="no"?>
<!DOCTYPE svg PUBLIC "-//W3C//DTD SVG 1.1//EN"
 "http://www.w3.org/Graphics/SVG/1.1/DTD/svg11.dtd">
<!-- Generated by graphviz version 2.36.0 (20140111.2315)
 -->
<!-- Title: BoxWorld.allowMovement Pages: 1 -->
<!--zoomable 198 -->
<svg id="main" version="1.1" xmlns="http://www.w3.org/2000/svg" xmlns:xlink="http://www.w3.org/1999/xlink" xml:space="preserve" onload="init(evt)">
<style type="text/css"><![CDATA[
.edge:hover path { stroke: red; }
.edge:hover polygon { stroke: red; fill: red; }
]]></style>
<script type="text/javascript"><![CDATA[
var edges = document.getElementsByTagName('g');
if (edges && edges.length) {
  for (var i=0;i<edges.length;i++) {
    if (edges[i].id.substr(0,4)=='edge') {
      edges[i].setAttribute('class','edge');
    }
  }
}
]]></script>
        <defs>
                <circle id="rim" cx="0" cy="0" r="7"/>
                <circle id="rim2" cx="0" cy="0" r="3.5"/>
                <g id="zoomPlus">
                        <use xlink:href="#rim" fill="#404040">
                                <set attributeName="fill" to="#808080" begin="zoomplus.mouseover" end="zoomplus.mouseout"/>
                        </use>
                        <path d="M-4,0h8M0,-4v8" fill="none" stroke="white" stroke-width="1.5" pointer-events="none"/>
                </g>
                <g id="zoomMin">
                        <use xlink:href="#rim" fill="#404040">
                                <set attributeName="fill" to="#808080" begin="zoomminus.mouseover" end="zoomminus.mouseout"/>
                        </use>
                        <path d="M-4,0h8" fill="none" stroke="white" stroke-width="1.5" pointer-events="none"/>
                </g>
                <g id="dirArrow">
                        <path fill="none" stroke="white" stroke-width="1.5" d="M0,-3.0v7 M-2.5,-0.5L0,-3.0L2.5,-0.5"/>
                </g>
               <g id="resetDef">
                       <use xlink:href="#rim2" fill="#404040">
                               <set attributeName="fill" to="#808080" begin="reset.mouseover" end="reset.mouseout"/>
                       </use>
               </g>
        </defs>

<script type="text/javascript">
var viewWidth = 1732;
var viewHeight = 198;
var sectionId = 'dynsection-5';
</script>
<script xlink:href="../../svgpan.js"/>
<svg id="graph" class="graph">
<g id="viewport">
<title>BoxWorld.allowMovement</title>
<polygon fill="white" stroke="none" points="-4,4 -4,-194 1728,-194 1728,4 -4,4"/>
<!-- Node1 -->
<g id="node1" class="node"><title>Node1</title>
<polygon fill="#bfbfbf" stroke="black" points="0.5,-28.5 0.5,-47.5 137.5,-47.5 137.5,-28.5 0.5,-28.5"/>
<text text-anchor="middle" x="69" y="-35.5" font-family="Helvetica,sans-Serif" font-size="10.00">BoxWorld.allowMovement</text>
</g>
<!-- Node2 -->
<g id="node2" class="node"><title>Node2</title>
<g id="a_node2"><a xlink:href="../../db/d97/class_box_world.html#aa7e2049d7be23e15fd2ec7fa2922ed79" target="_top" xlink:title="BoxWorld.handleKeyInput">
<polygon fill="white" stroke="black" points="174,-28.5 174,-47.5 310,-47.5 310,-28.5 174,-28.5"/>
<text text-anchor="middle" x="242" y="-35.5" font-family="Helvetica,sans-Serif" font-size="10.00">BoxWorld.handleKeyInput</text>
</a>
</g>
</g>
<!-- Node1&#45;&gt;Node2 -->
<g id="edge1" class="edge"><title>Node1&#45;&gt;Node2</title>
<path fill="none" stroke="midnightblue" d="M147.76,-38C156.49,-38 165.328,-38 173.907,-38"/>
<polygon fill="midnightblue" stroke="midnightblue" points="147.584,-34.5001 137.584,-38 147.584,-41.5001 147.584,-34.5001"/>
</g>
<!-- Node3 -->
<g id="node3" class="node"><title>Node3</title>
<g id="a_node3"><a xlink:href="../../db/d97/class_box_world.html#a726e747e023543658d7a345cc6466ccb" target="_top" xlink:title="BoxWorld.createScene">
<polygon fill="white" stroke="black" points="346,-123.5 346,-142.5 470,-142.5 470,-123.5 346,-123.5"/>
<text text-anchor="middle" x="408" y="-130.5" font-family="Helvetica,sans-Serif" font-size="10.00">BoxWorld.createScene</text>
</a>
</g>
</g>
<!-- Node2&#45;&gt;Node3 -->
<g id="edge2" class="edge"><title>Node2&#45;&gt;Node3</title>
<path fill="none" stroke="midnightblue" d="M268.491,-52.7662C302.446,-72.435 361.566,-106.681 390.328,-123.343"/>
<polygon fill="midnightblue" stroke="midnightblue" points="270.035,-49.6158 259.628,-47.6319 266.526,-55.673 270.035,-49.6158"/>
</g>
<!-- Node4 -->
<g id="node4" class="node"><title>Node4</title>
<g id="a_node4"><a xlink:href="../../db/d97/class_box_world.html#a55bf92d3f466bfaade0f6d199d8c9bd9" target="_top" xlink:title="BoxWorld.init">
<polygon fill="white" stroke="black" points="506.5,-123.5 506.5,-142.5 583.5,-142.5 583.5,-123.5 506.5,-123.5"/>
<text text-anchor="middle" x="545" y="-130.5" font-family="Helvetica,sans-Serif" font-size="10.00">BoxWorld.init</text>
</a>
</g>
</g>
<!-- Node3&#45;&gt;Node4 -->
<g id="edge3" class="edge"><title>Node3&#45;&gt;Node4</title>
<path fill="none" stroke="midnightblue" d="M480.282,-133C489.225,-133 498.08,-133 506.215,-133"/>
<polygon fill="midnightblue" stroke="midnightblue" points="480.18,-129.5 470.18,-133 480.18,-136.5 480.18,-129.5"/>
</g>
<!-- Node13 -->
<g id="node13" class="node"><title>Node13</title>
<g id="a_node13"><a xlink:href="../../d6/d4f/class_item_box_world.html#aa559fc2680327b41fb376e2eda8e82e3" target="_top" xlink:title="ItemBoxWorld.init">
<polygon fill="white" stroke="black" points="1484.5,-104.5 1484.5,-123.5 1583.5,-123.5 1583.5,-104.5 1484.5,-104.5"/>
<text text-anchor="middle" x="1534" y="-111.5" font-family="Helvetica,sans-Serif" font-size="10.00">ItemBoxWorld.init</text>
</a>
</g>
</g>
<!-- Node3&#45;&gt;Node13 -->
<g id="edge19" class="edge"><title>Node3&#45;&gt;Node13</title>
<path fill="none" stroke="midnightblue" d="M442.156,-146.064C487.926,-162.891 573.393,-190 649,-190 649,-190 649,-190 1261,-190 1358.57,-190 1468.81,-144.076 1513.06,-123.625"/>
<polygon fill="midnightblue" stroke="midnightblue" points="443.335,-142.768 432.742,-142.541 440.881,-149.324 443.335,-142.768"/>
</g>
<!-- Node5 -->
<g id="node5" class="node"><title>Node5</title>
<g id="a_node5"><a xlink:href="../../d2/db8/class_menu.html#a3c99ad09e9f2f975c1a0d0597642651a" target="_top" xlink:title="Menu.init">
<polygon fill="white" stroke="black" points="620,-85.5 620,-104.5 680,-104.5 680,-85.5 620,-85.5"/>
<text text-anchor="middle" x="650" y="-92.5" font-family="Helvetica,sans-Serif" font-size="10.00">Menu.init</text>
</a>
</g>
</g>
<!-- Node4&#45;&gt;Node5 -->
<g id="edge4" class="edge"><title>Node4&#45;&gt;Node5</title>
<path fill="none" stroke="midnightblue" d="M581.557,-119.882C595.18,-114.856 610.454,-109.221 623.017,-104.586"/>
<polygon fill="midnightblue" stroke="midnightblue" points="580.162,-116.666 571.991,-123.411 582.585,-123.233 580.162,-116.666"/>
</g>
<!-- Node6 -->
<g id="node6" class="node"><title>Node6</title>
<g id="a_node6"><a xlink:href="../../d1/de1/class_end_screen.html#a1264ffb72b3a3032443f9c4087222aef" target="_top" xlink:title="EndScreen.init">
<polygon fill="white" stroke="black" points="718,-66.5 718,-85.5 804,-85.5 804,-66.5 718,-66.5"/>
<text text-anchor="middle" x="761" y="-73.5" font-family="Helvetica,sans-Serif" font-size="10.00">EndScreen.init</text>
</a>
</g>
</g>
<!-- Node5&#45;&gt;Node6 -->
<g id="edge5" class="edge"><title>Node5&#45;&gt;Node6</title>
<path fill="none" stroke="midnightblue" d="M690.287,-88.1517C699.154,-86.6062 708.604,-84.959 717.592,-83.3922"/>
<polygon fill="midnightblue" stroke="midnightblue" points="689.46,-84.743 680.21,-89.9083 690.663,-91.6391 689.46,-84.743"/>
</g>
<!-- Node8 -->
<g id="node8" class="node"><title>Node8</title>
<g id="a_node8"><a xlink:href="../../d4/d2f/class_lose_screen.html#a34f2cc2c803500316c9b8d854854d758" target="_top" xlink:title="LoseScreen.init">
<polygon fill="white" stroke="black" points="716,-104.5 716,-123.5 806,-123.5 806,-104.5 716,-104.5"/>
<text text-anchor="middle" x="761" y="-111.5" font-family="Helvetica,sans-Serif" font-size="10.00">LoseScreen.init</text>
</a>
</g>
</g>
<!-- Node5&#45;&gt;Node8 -->
<g id="edge7" class="edge"><title>Node5&#45;&gt;Node8</title>
<path fill="none" stroke="midnightblue" d="M690.106,-101.817C698.483,-103.277 707.389,-104.829 715.938,-106.319"/>
<polygon fill="midnightblue" stroke="midnightblue" points="690.663,-98.361 680.21,-100.092 689.46,-105.257 690.663,-98.361"/>
</g>
<!-- Node16 -->
<g id="node16" class="node"><title>Node16</title>
<g id="a_node16"><a xlink:href="../../d0/d4b/class_main.html#a7595d13c514a02c35aca322dd91d2063" target="_top" xlink:title="Main.start">
<polygon fill="white" stroke="black" points="728.5,-28.5 728.5,-47.5 793.5,-47.5 793.5,-28.5 728.5,-28.5"/>
<text text-anchor="middle" x="761" y="-35.5" font-family="Helvetica,sans-Serif" font-size="10.00">Main.start</text>
</a>
</g>
</g>
<!-- Node5&#45;&gt;Node16 -->
<g id="edge18" class="edge"><title>Node5&#45;&gt;Node16</title>
<path fill="none" stroke="midnightblue" d="M674.835,-80.13C686.964,-72.8041 702.058,-64.053 716,-57 722.534,-53.6948 729.775,-50.4168 736.465,-47.5379"/>
<polygon fill="midnightblue" stroke="midnightblue" points="672.913,-77.2022 666.205,-85.4025 676.563,-83.1756 672.913,-77.2022"/>
</g>
<!-- Node7 -->
<g id="node7" class="node"><title>Node7</title>
<g id="a_node7"><a xlink:href="../../d6/d4f/class_item_box_world.html#a2ed12a6b39993faedc05cc682204476d" target="_top" xlink:title="ItemBoxWorld.winLevel">
<polygon fill="white" stroke="black" points="846.5,-28.5 846.5,-47.5 971.5,-47.5 971.5,-28.5 846.5,-28.5"/>
<text text-anchor="middle" x="909" y="-35.5" font-family="Helvetica,sans-Serif" font-size="10.00">ItemBoxWorld.winLevel</text>
</a>
</g>
</g>
<!-- Node6&#45;&gt;Node7 -->
<g id="edge6" class="edge"><title>Node6&#45;&gt;Node7</title>
<path fill="none" stroke="midnightblue" d="M808.536,-63.8879C828.87,-58.5956 852.371,-52.4787 871.423,-47.5201"/>
<polygon fill="midnightblue" stroke="midnightblue" points="807.638,-60.5049 798.842,-66.411 809.401,-67.2793 807.638,-60.5049"/>
</g>
<!-- Node9 -->
<g id="node9" class="node"><title>Node9</title>
<g id="a_node9"><a xlink:href="../../db/d97/class_box_world.html#a72bacb2a6757900d8835249929fcc838" target="_top" xlink:title="BoxWorld.loseGame">
<polygon fill="white" stroke="black" points="853,-66.5 853,-85.5 965,-85.5 965,-66.5 853,-66.5"/>
<text text-anchor="middle" x="909" y="-73.5" font-family="Helvetica,sans-Serif" font-size="10.00">BoxWorld.loseGame</text>
</a>
</g>
</g>
<!-- Node8&#45;&gt;Node9 -->
<g id="edge8" class="edge"><title>Node8&#45;&gt;Node9</title>
<path fill="none" stroke="midnightblue" d="M808.536,-101.888C828.87,-96.5956 852.371,-90.4787 871.423,-85.5201"/>
<polygon fill="midnightblue" stroke="midnightblue" points="807.638,-98.5049 798.842,-104.411 809.401,-105.279 807.638,-98.5049"/>
</g>
<!-- Node15 -->
<g id="node15" class="node"><title>Node15</title>
<g id="a_node15"><a xlink:href="../../d6/d4f/class_item_box_world.html#a295cf7212ad54fa599e2a2d85ee0523d" target="_top" xlink:title="ItemBoxWorld.loseGame">
<polygon fill="white" stroke="black" points="842,-104.5 842,-123.5 976,-123.5 976,-104.5 842,-104.5"/>
<text text-anchor="middle" x="909" y="-111.5" font-family="Helvetica,sans-Serif" font-size="10.00">ItemBoxWorld.loseGame</text>
</a>
</g>
</g>
<!-- Node8&#45;&gt;Node15 -->
<g id="edge17" class="edge"><title>Node8&#45;&gt;Node15</title>
<path fill="none" stroke="midnightblue" d="M816.47,-114C824.748,-114 833.366,-114 841.86,-114"/>
<polygon fill="midnightblue" stroke="midnightblue" points="816.201,-110.5 806.201,-114 816.201,-117.5 816.201,-110.5"/>
</g>
<!-- Node10 -->
<g id="node10" class="node"><title>Node10</title>
<g id="a_node10"><a xlink:href="../../db/d97/class_box_world.html#a4079bed8937c9f621decfbe1309e31e2" target="_top" xlink:title="BoxWorld.checkAllCollisions">
<polygon fill="white" stroke="black" points="1012,-66.5 1012,-85.5 1158,-85.5 1158,-66.5 1012,-66.5"/>
<text text-anchor="middle" x="1085" y="-73.5" font-family="Helvetica,sans-Serif" font-size="10.00">BoxWorld.checkAllCollisions</text>
</a>
</g>
</g>
<!-- Node9&#45;&gt;Node10 -->
<g id="edge9" class="edge"><title>Node9&#45;&gt;Node10</title>
<path fill="none" stroke="midnightblue" d="M975.335,-76C987.23,-76 999.702,-76 1011.78,-76"/>
<polygon fill="midnightblue" stroke="midnightblue" points="975.055,-72.5001 965.055,-76 975.055,-79.5001 975.055,-72.5001"/>
</g>
<!-- Node11 -->
<g id="node11" class="node"><title>Node11</title>
<g id="a_node11"><a xlink:href="../../db/d97/class_box_world.html#a6794c083c2a0263c2f585f4ae4b7e39c" target="_top" xlink:title="BoxWorld.updateSprites">
<polygon fill="white" stroke="black" points="1194.5,-104.5 1194.5,-123.5 1325.5,-123.5 1325.5,-104.5 1194.5,-104.5"/>
<text text-anchor="middle" x="1260" y="-111.5" font-family="Helvetica,sans-Serif" font-size="10.00">BoxWorld.updateSprites</text>
</a>
</g>
</g>
<!-- Node10&#45;&gt;Node11 -->
<g id="edge10" class="edge"><title>Node10&#45;&gt;Node11</title>
<path fill="none" stroke="midnightblue" d="M1139.51,-87.7526C1163.97,-93.1258 1192.57,-99.4086 1215.66,-104.48"/>
<polygon fill="midnightblue" stroke="midnightblue" points="1140.17,-84.316 1129.66,-85.589 1138.67,-91.153 1140.17,-84.316"/>
</g>
<!-- Node12 -->
<g id="node12" class="node"><title>Node12</title>
<g id="a_node12"><a xlink:href="../../db/d97/class_box_world.html#ad20a4e43406c44f4bbf201d1d1028998" target="_top" xlink:title="BoxWorld.start">
<polygon fill="white" stroke="black" points="1362,-104.5 1362,-123.5 1448,-123.5 1448,-104.5 1362,-104.5"/>
<text text-anchor="middle" x="1405" y="-111.5" font-family="Helvetica,sans-Serif" font-size="10.00">BoxWorld.start</text>
</a>
</g>
</g>
<!-- Node11&#45;&gt;Node12 -->
<g id="edge11" class="edge"><title>Node11&#45;&gt;Node12</title>
<path fill="none" stroke="midnightblue" d="M1335.9,-114C1344.84,-114 1353.7,-114 1361.94,-114"/>
<polygon fill="midnightblue" stroke="midnightblue" points="1335.81,-110.5 1325.81,-114 1335.81,-117.5 1335.81,-110.5"/>
</g>
<!-- Node12&#45;&gt;Node4 -->
<g id="edge12" class="edge"><title>Node12&#45;&gt;Node4</title>
<path fill="none" stroke="midnightblue" d="M1360.18,-125.976C1349.09,-128.645 1337.17,-131.209 1326,-133 1220.35,-149.938 1193,-152 1086,-152 760,-152 760,-152 760,-152 698.084,-152 626.484,-144.011 583.794,-138.394"/>
<polygon fill="midnightblue" stroke="midnightblue" points="1361.21,-129.326 1370.07,-123.516 1359.52,-122.533 1361.21,-129.326"/>
</g>
<!-- Node12&#45;&gt;Node13 -->
<g id="edge13" class="edge"><title>Node12&#45;&gt;Node13</title>
<path fill="none" stroke="midnightblue" d="M1458.52,-114C1467.06,-114 1475.87,-114 1484.31,-114"/>
<polygon fill="midnightblue" stroke="midnightblue" points="1458.29,-110.5 1448.29,-114 1458.29,-117.5 1458.29,-110.5"/>
</g>
<!-- Node14 -->
<g id="node14" class="node"><title>Node14</title>
<g id="a_node14"><a xlink:href="../../db/d97/class_box_world.html#aad670712776afe126e51791097027e05" target="_top" xlink:title="BoxWorld.winLevel">
<polygon fill="white" stroke="black" points="1620.5,-66.5 1620.5,-85.5 1723.5,-85.5 1723.5,-66.5 1620.5,-66.5"/>
<text text-anchor="middle" x="1672" y="-73.5" font-family="Helvetica,sans-Serif" font-size="10.00">BoxWorld.winLevel</text>
</a>
</g>
</g>
<!-- Node13&#45;&gt;Node14 -->
<g id="edge14" class="edge"><title>Node13&#45;&gt;Node14</title>
<path fill="none" stroke="midnightblue" d="M1579.09,-101.682C1597.77,-96.4607 1619.22,-90.4684 1636.69,-85.5859"/>
<polygon fill="midnightblue" stroke="midnightblue" points="1578.01,-98.349 1569.32,-104.411 1579.89,-105.091 1578.01,-98.349"/>
</g>
<!-- Node14&#45;&gt;Node2 -->
<g id="edge16" class="edge"><title>Node14&#45;&gt;Node2</title>
<path fill="none" stroke="midnightblue" d="M1642.5,-62.1219C1594.76,-40.1949 1495.11,-1.42109e-14 1406,-0 544,-0 544,-0 544,-0 453.273,-1.42109e-14 348.366,-17.2037 289.436,-28.46"/>
<polygon fill="midnightblue" stroke="midnightblue" points="1641.06,-65.3143 1651.6,-66.3745 1644.02,-58.9719 1641.06,-65.3143"/>
</g>
<!-- Node14&#45;&gt;Node10 -->
<g id="edge15" class="edge"><title>Node14&#45;&gt;Node10</title>
<path fill="none" stroke="midnightblue" d="M1610.05,-76C1501.29,-76 1274.3,-76 1158.03,-76"/>
<polygon fill="midnightblue" stroke="midnightblue" points="1610.2,-79.5001 1620.2,-76 1610.2,-72.5001 1610.2,-79.5001"/>
</g>
</g>
</svg>
        <g id="navigator" transform="translate(0 0)" fill="#404254">
                <rect fill="#f2f5e9" fill-opacity="0.5" stroke="#606060" stroke-width=".5" x="0" y="0" width="60" height="60"/>
                <use id="zoomplus" xlink:href="#zoomPlus" x="17" y="9" onmousedown="handleZoom(evt,'in')"/>
                <use id="zoomminus" xlink:href="#zoomMin" x="42" y="9" onmousedown="handleZoom(evt,'out')"/>
                <use id="reset" xlink:href="#resetDef" x="30" y="36" onmousedown="handleReset()"/>
                <g id="arrowUp" xlink:href="#dirArrow" transform="translate(30 24)" onmousedown="handlePan(0,-1)">
                  <use xlink:href="#rim" fill="#404040">
                        <set attributeName="fill" to="#808080" begin="arrowUp.mouseover" end="arrowUp.mouseout"/>
                  </use>
                  <path fill="none" stroke="white" stroke-width="1.5" d="M0,-3.0v7 M-2.5,-0.5L0,-3.0L2.5,-0.5"/>
                </g>
                <g id="arrowRight" xlink:href="#dirArrow" transform="rotate(90) translate(36 -43)" onmousedown="handlePan(1,0)">
                  <use xlink:href="#rim" fill="#404040">
                        <set attributeName="fill" to="#808080" begin="arrowRight.mouseover" end="arrowRight.mouseout"/>
                  </use>
                  <path fill="none" stroke="white" stroke-width="1.5" d="M0,-3.0v7 M-2.5,-0.5L0,-3.0L2.5,-0.5"/>
                </g>
                <g id="arrowDown" xlink:href="#dirArrow" transform="rotate(180) translate(-30 -48)" onmousedown="handlePan(0,1)">
                  <use xlink:href="#rim" fill="#404040">
                        <set attributeName="fill" to="#808080" begin="arrowDown.mouseover" end="arrowDown.mouseout"/>
                  </use>
                  <path fill="none" stroke="white" stroke-width="1.5" d="M0,-3.0v7 M-2.5,-0.5L0,-3.0L2.5,-0.5"/>
                </g>
                <g id="arrowLeft" xlink:href="#dirArrow" transform="rotate(270) translate(-36 17)" onmousedown="handlePan(-1,0)">
                  <use xlink:href="#rim" fill="#404040">
                        <set attributeName="fill" to="#808080" begin="arrowLeft.mouseover" end="arrowLeft.mouseout"/>
                  </use>
                  <path fill="none" stroke="white" stroke-width="1.5" d="M0,-3.0v7 M-2.5,-0.5L0,-3.0L2.5,-0.5"/>
                </g>
        </g>
        <svg viewBox="0 0 15 15" width="100%" height="30px" preserveAspectRatio="xMaxYMin meet">
         <g id="arrow_out" transform="scale(0.3 0.3)">
          <a xlink:href="class_box_world_adc4c9d78ffde3d052c4c92047eb98e55_icgraph_org.svg" target="_base">
           <rect id="button" ry="5" rx="5" y="6" x="6" height="38" width="38"
                fill="#f2f5e9" fill-opacity="0.5" stroke="#606060" stroke-width="1.0"/>
           <path id="arrow"
             d="M 11.500037,31.436501 C 11.940474,20.09759 22.043105,11.32322 32.158766,21.979434 L 37.068811,17.246167 C 37.068811,17.246167 37.088388,32 37.088388,32 L 22.160133,31.978069 C 22.160133,31.978069 26.997745,27.140456 26.997745,27.140456 C 18.528582,18.264221 13.291696,25.230495 11.500037,31.436501 z"
             style="fill:#404040;"/>
          </a>
         </g>
        </svg>
</svg>
