<?xml version="1.0" encoding="UTF-8" standalone="no"?>
<!DOCTYPE svg PUBLIC "-//W3C//DTD SVG 1.1//EN"
 "http://www.w3.org/Graphics/SVG/1.1/DTD/svg11.dtd">
<!-- Generated by graphviz version 2.36.0 (20140111.2315)
 -->
<!-- Title: BoxWorld.addStarterObjects Pages: 1 -->
<svg width="1414pt" height="170pt"
 viewBox="0.00 0.00 1414.00 170.00" xmlns="http://www.w3.org/2000/svg" xmlns:xlink="http://www.w3.org/1999/xlink">
<g id="graph0" class="graph" transform="scale(1 1) rotate(0) translate(4 166)">
<title>BoxWorld.addStarterObjects</title>
<polygon fill="white" stroke="none" points="-4,4 -4,-166 1410,-166 1410,4 -4,4"/>
<!-- Node1 -->
<g id="node1" class="node"><title>Node1</title>
<polygon fill="#bfbfbf" stroke="black" points="0.5,-133.5 0.5,-152.5 151.5,-152.5 151.5,-133.5 0.5,-133.5"/>
<text text-anchor="middle" x="76" y="-140.5" font-family="Helvetica,sans-Serif" font-size="10.00">BoxWorld.addStarterObjects</text>
</g>
<!-- Node2 -->
<g id="node2" class="node"><title>Node2</title>
<g id="a_node2"><a xlink:href="../../d6/d4f/class_item_box_world.html#aa559fc2680327b41fb376e2eda8e82e3" target="_top" xlink:title="ItemBoxWorld.init">
<polygon fill="white" stroke="black" points="188.5,-95.5 188.5,-114.5 287.5,-114.5 287.5,-95.5 188.5,-95.5"/>
<text text-anchor="middle" x="238" y="-102.5" font-family="Helvetica,sans-Serif" font-size="10.00">ItemBoxWorld.init</text>
</a>
</g>
</g>
<!-- Node1&#45;&gt;Node2 -->
<g id="edge1" class="edge"><title>Node1&#45;&gt;Node2</title>
<path fill="none" stroke="midnightblue" d="M127.392,-131.032C149.813,-125.707 175.847,-119.524 196.916,-114.52"/>
<polygon fill="midnightblue" stroke="midnightblue" points="126.295,-127.695 117.375,-133.411 127.913,-134.505 126.295,-127.695"/>
</g>
<!-- Node7 -->
<g id="node7" class="node"><title>Node7</title>
<g id="a_node7"><a xlink:href="../../db/d97/class_box_world.html#a55bf92d3f466bfaade0f6d199d8c9bd9" target="_top" xlink:title="BoxWorld.init">
<polygon fill="white" stroke="black" points="936.5,-111.5 936.5,-130.5 1013.5,-130.5 1013.5,-111.5 936.5,-111.5"/>
<text text-anchor="middle" x="975" y="-118.5" font-family="Helvetica,sans-Serif" font-size="10.00">BoxWorld.init</text>
</a>
</g>
</g>
<!-- Node1&#45;&gt;Node7 -->
<g id="edge20" class="edge"><title>Node1&#45;&gt;Node7</title>
<path fill="none" stroke="midnightblue" d="M161.736,-151.283C221.324,-156.402 302.961,-162 375,-162 375,-162 375,-162 713,-162 793.728,-162 886.818,-142.621 937.116,-130.509"/>
<polygon fill="midnightblue" stroke="midnightblue" points="161.888,-147.783 151.622,-150.4 161.279,-154.756 161.888,-147.783"/>
</g>
<!-- Node3 -->
<g id="node3" class="node"><title>Node3</title>
<g id="a_node3"><a xlink:href="../../db/d97/class_box_world.html#aad670712776afe126e51791097027e05" target="_top" xlink:title="BoxWorld.winLevel">
<polygon fill="white" stroke="black" points="324.5,-38.5 324.5,-57.5 427.5,-57.5 427.5,-38.5 324.5,-38.5"/>
<text text-anchor="middle" x="376" y="-45.5" font-family="Helvetica,sans-Serif" font-size="10.00">BoxWorld.winLevel</text>
</a>
</g>
</g>
<!-- Node2&#45;&gt;Node3 -->
<g id="edge2" class="edge"><title>Node2&#45;&gt;Node3</title>
<path fill="none" stroke="midnightblue" d="M271.161,-91.5207C296.074,-81.0792 329.973,-66.8715 352.162,-57.5716"/>
<polygon fill="midnightblue" stroke="midnightblue" points="269.633,-88.3661 261.763,-95.4595 272.339,-94.822 269.633,-88.3661"/>
</g>
<!-- Node4 -->
<g id="node4" class="node"><title>Node4</title>
<g id="a_node4"><a xlink:href="../../db/d97/class_box_world.html#a4079bed8937c9f621decfbe1309e31e2" target="_top" xlink:title="BoxWorld.checkAllCollisions">
<polygon fill="white" stroke="black" points="464,-0.5 464,-19.5 610,-19.5 610,-0.5 464,-0.5"/>
<text text-anchor="middle" x="537" y="-7.5" font-family="Helvetica,sans-Serif" font-size="10.00">BoxWorld.checkAllCollisions</text>
</a>
</g>
</g>
<!-- Node3&#45;&gt;Node4 -->
<g id="edge3" class="edge"><title>Node3&#45;&gt;Node4</title>
<path fill="none" stroke="midnightblue" d="M427.077,-36.032C449.358,-30.7069 475.229,-24.5238 496.166,-19.5201"/>
<polygon fill="midnightblue" stroke="midnightblue" points="426.035,-32.6823 417.122,-38.411 427.662,-39.4906 426.035,-32.6823"/>
</g>
<!-- Node15 -->
<g id="node15" class="node"><title>Node15</title>
<g id="a_node15"><a xlink:href="../../db/d97/class_box_world.html#aa7e2049d7be23e15fd2ec7fa2922ed79" target="_top" xlink:title="BoxWorld.handleKeyInput">
<polygon fill="white" stroke="black" points="469,-38.5 469,-57.5 605,-57.5 605,-38.5 469,-38.5"/>
<text text-anchor="middle" x="537" y="-45.5" font-family="Helvetica,sans-Serif" font-size="10.00">BoxWorld.handleKeyInput</text>
</a>
</g>
</g>
<!-- Node3&#45;&gt;Node15 -->
<g id="edge16" class="edge"><title>Node3&#45;&gt;Node15</title>
<path fill="none" stroke="midnightblue" d="M437.76,-48C447.946,-48 458.567,-48 468.901,-48"/>
<polygon fill="midnightblue" stroke="midnightblue" points="437.746,-44.5001 427.746,-48 437.746,-51.5001 437.746,-44.5001"/>
</g>
<!-- Node5 -->
<g id="node5" class="node"><title>Node5</title>
<g id="a_node5"><a xlink:href="../../db/d97/class_box_world.html#a6794c083c2a0263c2f585f4ae4b7e39c" target="_top" xlink:title="BoxWorld.updateSprites">
<polygon fill="white" stroke="black" points="646.5,-38.5 646.5,-57.5 777.5,-57.5 777.5,-38.5 646.5,-38.5"/>
<text text-anchor="middle" x="712" y="-45.5" font-family="Helvetica,sans-Serif" font-size="10.00">BoxWorld.updateSprites</text>
</a>
</g>
</g>
<!-- Node4&#45;&gt;Node5 -->
<g id="edge4" class="edge"><title>Node4&#45;&gt;Node5</title>
<path fill="none" stroke="midnightblue" d="M591.505,-21.7526C615.967,-27.1258 644.571,-33.4086 667.659,-38.4799"/>
<polygon fill="midnightblue" stroke="midnightblue" points="592.173,-18.316 581.655,-19.589 590.671,-25.153 592.173,-18.316"/>
</g>
<!-- Node6 -->
<g id="node6" class="node"><title>Node6</title>
<g id="a_node6"><a xlink:href="../../db/d97/class_box_world.html#ad20a4e43406c44f4bbf201d1d1028998" target="_top" xlink:title="BoxWorld.start">
<polygon fill="white" stroke="black" points="814,-76.5 814,-95.5 900,-95.5 900,-76.5 814,-76.5"/>
<text text-anchor="middle" x="857" y="-83.5" font-family="Helvetica,sans-Serif" font-size="10.00">BoxWorld.start</text>
</a>
</g>
</g>
<!-- Node5&#45;&gt;Node6 -->
<g id="edge5" class="edge"><title>Node5&#45;&gt;Node6</title>
<path fill="none" stroke="midnightblue" d="M758.813,-60.1742C778.587,-65.4287 801.384,-71.4866 819.927,-76.4141"/>
<polygon fill="midnightblue" stroke="midnightblue" points="759.648,-56.7747 749.085,-57.589 757.851,-63.5399 759.648,-56.7747"/>
</g>
<!-- Node6&#45;&gt;Node2 -->
<g id="edge15" class="edge"><title>Node6&#45;&gt;Node2</title>
<path fill="none" stroke="midnightblue" d="M803.448,-87.6183C685.624,-91.2466 401.752,-99.9882 287.673,-103.501"/>
<polygon fill="midnightblue" stroke="midnightblue" points="803.766,-91.1103 813.653,-87.304 803.55,-84.1136 803.766,-91.1103"/>
</g>
<!-- Node6&#45;&gt;Node7 -->
<g id="edge6" class="edge"><title>Node6&#45;&gt;Node7</title>
<path fill="none" stroke="midnightblue" d="M899.641,-98.5641C913.708,-102.809 929.174,-107.475 942.341,-111.448"/>
<polygon fill="midnightblue" stroke="midnightblue" points="900.282,-95.1018 889.698,-95.5639 898.26,-101.803 900.282,-95.1018"/>
</g>
<!-- Node8 -->
<g id="node8" class="node"><title>Node8</title>
<g id="a_node8"><a xlink:href="../../d2/db8/class_menu.html#a3c99ad09e9f2f975c1a0d0597642651a" target="_top" xlink:title="Menu.init">
<polygon fill="white" stroke="black" points="1050,-92.5 1050,-111.5 1110,-111.5 1110,-92.5 1050,-92.5"/>
<text text-anchor="middle" x="1080" y="-99.5" font-family="Helvetica,sans-Serif" font-size="10.00">Menu.init</text>
</a>
</g>
</g>
<!-- Node7&#45;&gt;Node8 -->
<g id="edge7" class="edge"><title>Node7&#45;&gt;Node8</title>
<path fill="none" stroke="midnightblue" d="M1023.75,-112.193C1032.69,-110.543 1041.79,-108.864 1049.95,-107.359"/>
<polygon fill="midnightblue" stroke="midnightblue" points="1022.97,-108.777 1013.77,-114.033 1024.24,-115.661 1022.97,-108.777"/>
</g>
<!-- Node9 -->
<g id="node9" class="node"><title>Node9</title>
<g id="a_node9"><a xlink:href="../../d1/de1/class_end_screen.html#a1264ffb72b3a3032443f9c4087222aef" target="_top" xlink:title="EndScreen.init">
<polygon fill="white" stroke="black" points="1148,-83.5 1148,-102.5 1234,-102.5 1234,-83.5 1148,-83.5"/>
<text text-anchor="middle" x="1191" y="-90.5" font-family="Helvetica,sans-Serif" font-size="10.00">EndScreen.init</text>
</a>
</g>
</g>
<!-- Node8&#45;&gt;Node9 -->
<g id="edge8" class="edge"><title>Node8&#45;&gt;Node9</title>
<path fill="none" stroke="midnightblue" d="M1120.29,-98.7561C1129.15,-98.024 1138.6,-97.2437 1147.59,-96.5016"/>
<polygon fill="midnightblue" stroke="midnightblue" points="1119.89,-95.2771 1110.21,-99.5882 1120.46,-102.253 1119.89,-95.2771"/>
</g>
<!-- Node11 -->
<g id="node11" class="node"><title>Node11</title>
<g id="a_node11"><a xlink:href="../../d4/d2f/class_lose_screen.html#a34f2cc2c803500316c9b8d854854d758" target="_top" xlink:title="LoseScreen.init">
<polygon fill="white" stroke="black" points="1146,-43.5 1146,-62.5 1236,-62.5 1236,-43.5 1146,-43.5"/>
<text text-anchor="middle" x="1191" y="-50.5" font-family="Helvetica,sans-Serif" font-size="10.00">LoseScreen.init</text>
</a>
</g>
</g>
<!-- Node8&#45;&gt;Node11 -->
<g id="edge10" class="edge"><title>Node8&#45;&gt;Node11</title>
<path fill="none" stroke="midnightblue" d="M1111.61,-88.2397C1129.84,-80.0452 1152.51,-69.8522 1168.78,-62.5399"/>
<polygon fill="midnightblue" stroke="midnightblue" points="1109.96,-85.1435 1102.28,-92.436 1112.83,-91.528 1109.96,-85.1435"/>
</g>
<!-- Node14 -->
<g id="node14" class="node"><title>Node14</title>
<g id="a_node14"><a xlink:href="../../d0/d4b/class_main.html#a7595d13c514a02c35aca322dd91d2063" target="_top" xlink:title="Main.start">
<polygon fill="white" stroke="black" points="1158.5,-121.5 1158.5,-140.5 1223.5,-140.5 1223.5,-121.5 1158.5,-121.5"/>
<text text-anchor="middle" x="1191" y="-128.5" font-family="Helvetica,sans-Serif" font-size="10.00">Main.start</text>
</a>
</g>
</g>
<!-- Node8&#45;&gt;Node14 -->
<g id="edge14" class="edge"><title>Node8&#45;&gt;Node14</title>
<path fill="none" stroke="midnightblue" d="M1120,-112.377C1132.61,-115.73 1146.41,-119.404 1158.41,-122.596"/>
<polygon fill="midnightblue" stroke="midnightblue" points="1120.77,-108.96 1110.21,-109.771 1118.97,-115.725 1120.77,-108.96"/>
</g>
<!-- Node10 -->
<g id="node10" class="node"><title>Node10</title>
<g id="a_node10"><a xlink:href="../../d6/d4f/class_item_box_world.html#a2ed12a6b39993faedc05cc682204476d" target="_top" xlink:title="ItemBoxWorld.winLevel">
<polygon fill="white" stroke="black" points="1276.5,-83.5 1276.5,-102.5 1401.5,-102.5 1401.5,-83.5 1276.5,-83.5"/>
<text text-anchor="middle" x="1339" y="-90.5" font-family="Helvetica,sans-Serif" font-size="10.00">ItemBoxWorld.winLevel</text>
</a>
</g>
</g>
<!-- Node9&#45;&gt;Node10 -->
<g id="edge9" class="edge"><title>Node9&#45;&gt;Node10</title>
<path fill="none" stroke="midnightblue" d="M1244.35,-93C1254.71,-93 1265.68,-93 1276.31,-93"/>
<polygon fill="midnightblue" stroke="midnightblue" points="1244.23,-89.5001 1234.23,-93 1244.23,-96.5001 1244.23,-89.5001"/>
</g>
<!-- Node12 -->
<g id="node12" class="node"><title>Node12</title>
<g id="a_node12"><a xlink:href="../../db/d97/class_box_world.html#a72bacb2a6757900d8835249929fcc838" target="_top" xlink:title="BoxWorld.loseGame">
<polygon fill="white" stroke="black" points="1283,-2.5 1283,-21.5 1395,-21.5 1395,-2.5 1283,-2.5"/>
<text text-anchor="middle" x="1339" y="-9.5" font-family="Helvetica,sans-Serif" font-size="10.00">BoxWorld.loseGame</text>
</a>
</g>
</g>
<!-- Node11&#45;&gt;Node12 -->
<g id="edge11" class="edge"><title>Node11&#45;&gt;Node12</title>
<path fill="none" stroke="midnightblue" d="M1235.6,-40.7569C1257.51,-34.6024 1283.67,-27.2557 1304.07,-21.5286"/>
<polygon fill="midnightblue" stroke="midnightblue" points="1234.54,-37.4174 1225.86,-43.4907 1236.44,-44.1567 1234.54,-37.4174"/>
</g>
<!-- Node13 -->
<g id="node13" class="node"><title>Node13</title>
<g id="a_node13"><a xlink:href="../../d6/d4f/class_item_box_world.html#a295cf7212ad54fa599e2a2d85ee0523d" target="_top" xlink:title="ItemBoxWorld.loseGame">
<polygon fill="white" stroke="black" points="1272,-43.5 1272,-62.5 1406,-62.5 1406,-43.5 1272,-43.5"/>
<text text-anchor="middle" x="1339" y="-50.5" font-family="Helvetica,sans-Serif" font-size="10.00">ItemBoxWorld.loseGame</text>
</a>
</g>
</g>
<!-- Node11&#45;&gt;Node13 -->
<g id="edge13" class="edge"><title>Node11&#45;&gt;Node13</title>
<path fill="none" stroke="midnightblue" d="M1246.47,-53C1254.75,-53 1263.37,-53 1271.86,-53"/>
<polygon fill="midnightblue" stroke="midnightblue" points="1246.2,-49.5001 1236.2,-53 1246.2,-56.5001 1246.2,-49.5001"/>
</g>
<!-- Node12&#45;&gt;Node4 -->
<g id="edge12" class="edge"><title>Node12&#45;&gt;Node4</title>
<path fill="none" stroke="midnightblue" d="M1272.78,-11.2124C1220.83,-10.6527 1146.26,-10 1081,-10 856,-10 856,-10 856,-10 771.669,-10 674.759,-10 610.305,-10"/>
<polygon fill="midnightblue" stroke="midnightblue" points="1272.82,-14.713 1282.85,-11.3229 1272.89,-7.71339 1272.82,-14.713"/>
</g>
<!-- Node16 -->
<g id="node16" class="node"><title>Node16</title>
<g id="a_node16"><a xlink:href="../../db/d97/class_box_world.html#a726e747e023543658d7a345cc6466ccb" target="_top" xlink:title="BoxWorld.createScene">
<polygon fill="white" stroke="black" points="650,-114.5 650,-133.5 774,-133.5 774,-114.5 650,-114.5"/>
<text text-anchor="middle" x="712" y="-121.5" font-family="Helvetica,sans-Serif" font-size="10.00">BoxWorld.createScene</text>
</a>
</g>
</g>
<!-- Node15&#45;&gt;Node16 -->
<g id="edge17" class="edge"><title>Node15&#45;&gt;Node16</title>
<path fill="none" stroke="midnightblue" d="M569.109,-61.6662C603.781,-76.8978 658.947,-101.133 689.267,-114.453"/>
<polygon fill="midnightblue" stroke="midnightblue" points="570.474,-58.4432 559.911,-57.6255 567.658,-64.852 570.474,-58.4432"/>
</g>
<!-- Node16&#45;&gt;Node2 -->
<g id="edge19" class="edge"><title>Node16&#45;&gt;Node2</title>
<path fill="none" stroke="midnightblue" d="M639.944,-121.14C542.905,-117.233 371.45,-110.332 287.735,-106.962"/>
<polygon fill="midnightblue" stroke="midnightblue" points="639.826,-124.638 649.959,-121.543 640.108,-117.643 639.826,-124.638"/>
</g>
<!-- Node16&#45;&gt;Node7 -->
<g id="edge18" class="edge"><title>Node16&#45;&gt;Node7</title>
<path fill="none" stroke="midnightblue" d="M784.43,-123.179C833.468,-122.615 896.612,-121.89 936.209,-121.434"/>
<polygon fill="midnightblue" stroke="midnightblue" points="784.152,-119.682 774.193,-123.297 784.233,-126.681 784.152,-119.682"/>
</g>
</g>
</svg>
