<?xml version="1.0" encoding="UTF-8" standalone="no"?>
<!DOCTYPE svg PUBLIC "-//W3C//DTD SVG 1.1//EN"
 "http://www.w3.org/Graphics/SVG/1.1/DTD/svg11.dtd">
<!-- Generated by graphviz version 2.36.0 (20140111.2315)
 -->
<!-- Title: BoxWorld.createScene Pages: 1 -->
<svg width="2126pt" height="388pt"
 viewBox="0.00 0.00 2126.00 388.00" xmlns="http://www.w3.org/2000/svg" xmlns:xlink="http://www.w3.org/1999/xlink">
<g id="graph0" class="graph" transform="scale(1 1) rotate(0) translate(4 384)">
<title>BoxWorld.createScene</title>
<polygon fill="white" stroke="none" points="-4,4 -4,-384 2122,-384 2122,4 -4,4"/>
<!-- Node1 -->
<g id="node1" class="node"><title>Node1</title>
<polygon fill="#bfbfbf" stroke="black" points="0,-180.5 0,-199.5 124,-199.5 124,-180.5 0,-180.5"/>
<text text-anchor="middle" x="62" y="-187.5" font-family="Helvetica,sans-Serif" font-size="10.00">BoxWorld.createScene</text>
</g>
<!-- Node2 -->
<g id="node2" class="node"><title>Node2</title>
<g id="a_node2"><a xlink:href="../../db/d97/class_box_world.html#aa7e2049d7be23e15fd2ec7fa2922ed79" target="_top" xlink:title="BoxWorld.handleKeyInput">
<polygon fill="white" stroke="black" points="167,-294.5 167,-313.5 303,-313.5 303,-294.5 167,-294.5"/>
<text text-anchor="middle" x="235" y="-301.5" font-family="Helvetica,sans-Serif" font-size="10.00">BoxWorld.handleKeyInput</text>
</a>
</g>
</g>
<!-- Node1&#45;&gt;Node2 -->
<g id="edge1" class="edge"><title>Node1&#45;&gt;Node2</title>
<path fill="none" stroke="midnightblue" d="M77.2852,-199.523C106.885,-219.256 175.138,-264.758 211.013,-288.675"/>
<polygon fill="midnightblue" stroke="midnightblue" points="209.131,-291.627 219.393,-294.262 213.014,-285.803 209.131,-291.627"/>
</g>
<!-- Node30 -->
<g id="node30" class="node"><title>Node30</title>
<g id="a_node30"><a xlink:href="../../db/d97/class_box_world.html#a2d44485a181577acb4d79b6b81f26fff" target="_top" xlink:title="BoxWorld.handleKeyRelease">
<polygon fill="white" stroke="black" points="160.5,-199.5 160.5,-218.5 309.5,-218.5 309.5,-199.5 160.5,-199.5"/>
<text text-anchor="middle" x="235" y="-206.5" font-family="Helvetica,sans-Serif" font-size="10.00">BoxWorld.handleKeyRelease</text>
</a>
</g>
</g>
<!-- Node1&#45;&gt;Node30 -->
<g id="edge41" class="edge"><title>Node1&#45;&gt;Node30</title>
<path fill="none" stroke="midnightblue" d="M124.252,-196.806C132.655,-197.739 141.399,-198.711 150.121,-199.68"/>
<polygon fill="midnightblue" stroke="midnightblue" points="150.002,-203.188 160.327,-200.814 150.775,-196.231 150.002,-203.188"/>
</g>
<!-- Node3 -->
<g id="node3" class="node"><title>Node3</title>
<g id="a_node3"><a xlink:href="../../db/d97/class_box_world.html#adc4c9d78ffde3d052c4c92047eb98e55" target="_top" xlink:title="BoxWorld.allowMovement">
<polygon fill="white" stroke="black" points="1190.5,-332.5 1190.5,-351.5 1327.5,-351.5 1327.5,-332.5 1190.5,-332.5"/>
<text text-anchor="middle" x="1259" y="-339.5" font-family="Helvetica,sans-Serif" font-size="10.00">BoxWorld.allowMovement</text>
</a>
</g>
</g>
<!-- Node2&#45;&gt;Node3 -->
<g id="edge2" class="edge"><title>Node2&#45;&gt;Node3</title>
<path fill="none" stroke="midnightblue" d="M258.016,-313.625C306.862,-334.076 428.415,-380 535,-380 535,-380 535,-380 878,-380 1000.96,-380 1032,-376.295 1154,-361 1169.69,-359.033 1186.59,-356.239 1202.12,-353.397"/>
<polygon fill="midnightblue" stroke="midnightblue" points="1202.91,-356.81 1212.09,-351.531 1201.62,-349.929 1202.91,-356.81"/>
</g>
<!-- Node8 -->
<g id="node8" class="node"><title>Node8</title>
<g id="a_node8"><a xlink:href="../../da/de2/class_sticky_box.html#aa1bb8f78f676b01c688d75d386758444" target="_top" xlink:title="StickyBox.setDirection">
<polygon fill="white" stroke="black" points="1010,-332.5 1010,-351.5 1134,-351.5 1134,-332.5 1010,-332.5"/>
<text text-anchor="middle" x="1072" y="-339.5" font-family="Helvetica,sans-Serif" font-size="10.00">StickyBox.setDirection</text>
</a>
</g>
</g>
<!-- Node2&#45;&gt;Node8 -->
<g id="edge7" class="edge"><title>Node2&#45;&gt;Node8</title>
<path fill="none" stroke="midnightblue" d="M282.124,-313.54C340.66,-324.796 444.866,-342 535,-342 535,-342 535,-342 694,-342 800.425,-342 923.75,-342 999.571,-342"/>
<polygon fill="midnightblue" stroke="midnightblue" points="999.947,-345.5 1009.95,-342 999.947,-338.5 999.947,-345.5"/>
</g>
<!-- Node9 -->
<g id="node9" class="node"><title>Node9</title>
<g id="a_node9"><a xlink:href="../../db/d97/class_box_world.html#a04c6bf977c4292a5433649fb3745fd6b" target="_top" xlink:title="BoxWorld.reset">
<polygon fill="white" stroke="black" points="833,-294.5 833,-313.5 921,-313.5 921,-294.5 833,-294.5"/>
<text text-anchor="middle" x="877" y="-301.5" font-family="Helvetica,sans-Serif" font-size="10.00">BoxWorld.reset</text>
</a>
</g>
</g>
<!-- Node2&#45;&gt;Node9 -->
<g id="edge8" class="edge"><title>Node2&#45;&gt;Node9</title>
<path fill="none" stroke="midnightblue" d="M303.282,-304C431.165,-304 706.89,-304 822.876,-304"/>
<polygon fill="midnightblue" stroke="midnightblue" points="822.933,-307.5 832.933,-304 822.933,-300.5 822.933,-307.5"/>
</g>
<!-- Node11 -->
<g id="node11" class="node"><title>Node11</title>
<g id="a_node11"><a xlink:href="../../db/d97/class_box_world.html#aad670712776afe126e51791097027e05" target="_top" xlink:title="BoxWorld.winLevel">
<polygon fill="white" stroke="black" points="346.5,-256.5 346.5,-275.5 449.5,-275.5 449.5,-256.5 346.5,-256.5"/>
<text text-anchor="middle" x="398" y="-263.5" font-family="Helvetica,sans-Serif" font-size="10.00">BoxWorld.winLevel</text>
</a>
</g>
</g>
<!-- Node2&#45;&gt;Node11 -->
<g id="edge11" class="edge"><title>Node2&#45;&gt;Node11</title>
<path fill="none" stroke="midnightblue" d="M276.627,-294.411C297.968,-289.374 324.312,-283.156 346.908,-277.823"/>
<polygon fill="midnightblue" stroke="midnightblue" points="347.736,-281.224 356.665,-275.52 346.128,-274.411 347.736,-281.224"/>
</g>
<!-- Node4 -->
<g id="node4" class="node"><title>Node4</title>
<g id="a_node4"><a xlink:href="../../da/de2/class_sticky_box.html#a6ba3f89630df9d81df5644a3e5f4e387" target="_top" xlink:title="StickyBox.getXDirection">
<polygon fill="white" stroke="black" points="1364.5,-265.5 1364.5,-284.5 1495.5,-284.5 1495.5,-265.5 1364.5,-265.5"/>
<text text-anchor="middle" x="1430" y="-272.5" font-family="Helvetica,sans-Serif" font-size="10.00">StickyBox.getXDirection</text>
</a>
</g>
</g>
<!-- Node3&#45;&gt;Node4 -->
<g id="edge3" class="edge"><title>Node3&#45;&gt;Node4</title>
<path fill="none" stroke="midnightblue" d="M1298.49,-332.481C1308.23,-329.738 1318.59,-326.523 1328,-323 1353.78,-313.352 1381.99,-299.666 1402.03,-289.375"/>
<polygon fill="midnightblue" stroke="midnightblue" points="1403.9,-292.345 1411.16,-284.628 1400.67,-286.134 1403.9,-292.345"/>
</g>
<!-- Node5 -->
<g id="node5" class="node"><title>Node5</title>
<g id="a_node5"><a xlink:href="../../da/de2/class_sticky_box.html#ab0bd7cafb7f243e3951558ddb8728b96" target="_top" xlink:title="StickyBox.getXPrev">
<polygon fill="white" stroke="black" points="1375.5,-360.5 1375.5,-379.5 1484.5,-379.5 1484.5,-360.5 1375.5,-360.5"/>
<text text-anchor="middle" x="1430" y="-367.5" font-family="Helvetica,sans-Serif" font-size="10.00">StickyBox.getXPrev</text>
</a>
</g>
</g>
<!-- Node3&#45;&gt;Node5 -->
<g id="edge4" class="edge"><title>Node3&#45;&gt;Node5</title>
<path fill="none" stroke="midnightblue" d="M1317.69,-351.558C1332.98,-354.092 1349.59,-356.843 1365.19,-359.427"/>
<polygon fill="midnightblue" stroke="midnightblue" points="1364.83,-362.916 1375.27,-361.098 1365.98,-356.011 1364.83,-362.916"/>
</g>
<!-- Node6 -->
<g id="node6" class="node"><title>Node6</title>
<g id="a_node6"><a xlink:href="../../da/de2/class_sticky_box.html#a69e5ccf2a79159c03dea2e048df13318" target="_top" xlink:title="StickyBox.getYDirection">
<polygon fill="white" stroke="black" points="1365,-227.5 1365,-246.5 1495,-246.5 1495,-227.5 1365,-227.5"/>
<text text-anchor="middle" x="1430" y="-234.5" font-family="Helvetica,sans-Serif" font-size="10.00">StickyBox.getYDirection</text>
</a>
</g>
</g>
<!-- Node3&#45;&gt;Node6 -->
<g id="edge5" class="edge"><title>Node3&#45;&gt;Node6</title>
<path fill="none" stroke="midnightblue" d="M1311.59,-332.478C1317.49,-330.011 1323.12,-326.907 1328,-323 1354.39,-301.873 1337.74,-277.284 1364,-256 1366.08,-254.316 1368.3,-252.781 1370.62,-251.382"/>
<polygon fill="midnightblue" stroke="midnightblue" points="1372.66,-254.273 1380,-246.634 1369.5,-248.028 1372.66,-254.273"/>
</g>
<!-- Node7 -->
<g id="node7" class="node"><title>Node7</title>
<g id="a_node7"><a xlink:href="../../da/de2/class_sticky_box.html#a4c6abed944faed9d9b226079e99cfc24" target="_top" xlink:title="StickyBox.getYPrev">
<polygon fill="white" stroke="black" points="1376,-322.5 1376,-341.5 1484,-341.5 1484,-322.5 1376,-322.5"/>
<text text-anchor="middle" x="1430" y="-329.5" font-family="Helvetica,sans-Serif" font-size="10.00">StickyBox.getYPrev</text>
</a>
</g>
</g>
<!-- Node3&#45;&gt;Node7 -->
<g id="edge6" class="edge"><title>Node3&#45;&gt;Node7</title>
<path fill="none" stroke="midnightblue" d="M1327.76,-337.99C1340.25,-337.252 1353.24,-336.483 1365.59,-335.752"/>
<polygon fill="midnightblue" stroke="midnightblue" points="1366.01,-339.234 1375.78,-335.149 1365.6,-332.246 1366.01,-339.234"/>
</g>
<!-- Node9&#45;&gt;Node8 -->
<g id="edge9" class="edge"><title>Node9&#45;&gt;Node8</title>
<path fill="none" stroke="midnightblue" d="M921.313,-312.528C948.255,-317.833 983.241,-324.721 1012.61,-330.504"/>
<polygon fill="midnightblue" stroke="midnightblue" points="1012.26,-334.001 1022.75,-332.499 1013.61,-327.133 1012.26,-334.001"/>
</g>
<!-- Node10 -->
<g id="node10" class="node"><title>Node10</title>
<g id="a_node10"><a xlink:href="../../da/de2/class_sticky_box.html#a5d95d2ed2e13f0d87a44311db77f9e36" target="_top" xlink:title="StickyBox.setPreviousDirection">
<polygon fill="white" stroke="black" points="990,-294.5 990,-313.5 1154,-313.5 1154,-294.5 990,-294.5"/>
<text text-anchor="middle" x="1072" y="-301.5" font-family="Helvetica,sans-Serif" font-size="10.00">StickyBox.setPreviousDirection</text>
</a>
</g>
</g>
<!-- Node9&#45;&gt;Node10 -->
<g id="edge10" class="edge"><title>Node9&#45;&gt;Node10</title>
<path fill="none" stroke="midnightblue" d="M921.313,-304C938.617,-304 959.238,-304 979.56,-304"/>
<polygon fill="midnightblue" stroke="midnightblue" points="979.817,-307.5 989.817,-304 979.817,-300.5 979.817,-307.5"/>
</g>
<!-- Node12 -->
<g id="node12" class="node"><title>Node12</title>
<g id="a_node12"><a xlink:href="../../d6/d4f/class_item_box_world.html#aa559fc2680327b41fb376e2eda8e82e3" target="_top" xlink:title="ItemBoxWorld.init">
<polygon fill="white" stroke="black" points="486.5,-161.5 486.5,-180.5 585.5,-180.5 585.5,-161.5 486.5,-161.5"/>
<text text-anchor="middle" x="536" y="-168.5" font-family="Helvetica,sans-Serif" font-size="10.00">ItemBoxWorld.init</text>
</a>
</g>
</g>
<!-- Node11&#45;&gt;Node12 -->
<g id="edge12" class="edge"><title>Node11&#45;&gt;Node12</title>
<path fill="none" stroke="midnightblue" d="M412.789,-256.368C436.31,-239.938 484.386,-206.355 512.724,-186.561"/>
<polygon fill="midnightblue" stroke="midnightblue" points="514.981,-189.253 521.175,-180.657 510.972,-183.515 514.981,-189.253"/>
</g>
<!-- Node12&#45;&gt;Node1 -->
<g id="edge40" class="edge"><title>Node12&#45;&gt;Node1</title>
<path fill="none" stroke="midnightblue" d="M486.411,-172.956C402.803,-176.321 231.376,-183.222 134.247,-187.132"/>
<polygon fill="midnightblue" stroke="midnightblue" points="134.073,-183.636 124.222,-187.536 134.355,-190.63 134.073,-183.636"/>
</g>
<!-- Node13 -->
<g id="node13" class="node"><title>Node13</title>
<g id="a_node13"><a xlink:href="../../db/d97/class_box_world.html#a69798621c944e846f045aaf3937505f9" target="_top" xlink:title="BoxWorld.addStarterObjects">
<polygon fill="white" stroke="black" points="1768.5,-47.5 1768.5,-66.5 1919.5,-66.5 1919.5,-47.5 1768.5,-47.5"/>
<text text-anchor="middle" x="1844" y="-54.5" font-family="Helvetica,sans-Serif" font-size="10.00">BoxWorld.addStarterObjects</text>
</a>
</g>
</g>
<!-- Node12&#45;&gt;Node13 -->
<g id="edge13" class="edge"><title>Node12&#45;&gt;Node13</title>
<path fill="none" stroke="midnightblue" d="M550.455,-161.435C594.716,-130.939 740.706,-38 876,-38 876,-38 876,-38 1563,-38 1628.59,-38 1702.63,-43.2541 1758.09,-48.2365"/>
<polygon fill="midnightblue" stroke="midnightblue" points="1757.95,-51.7378 1768.22,-49.1623 1758.58,-44.7669 1757.95,-51.7378"/>
</g>
<!-- Node15 -->
<g id="node15" class="node"><title>Node15</title>
<g id="a_node15"><a xlink:href="../../d6/d4f/class_item_box_world.html#a7ead15fd9fd8095f928640161d48fdf8" target="_top" xlink:title="ItemBoxWorld.addAllItems">
<polygon fill="white" stroke="black" points="622.5,-180.5 622.5,-199.5 763.5,-199.5 763.5,-180.5 622.5,-180.5"/>
<text text-anchor="middle" x="693" y="-187.5" font-family="Helvetica,sans-Serif" font-size="10.00">ItemBoxWorld.addAllItems</text>
</a>
</g>
</g>
<!-- Node12&#45;&gt;Node15 -->
<g id="edge15" class="edge"><title>Node12&#45;&gt;Node15</title>
<path fill="none" stroke="midnightblue" d="M585.618,-176.96C594.068,-177.995 603.053,-179.097 612.081,-180.204"/>
<polygon fill="midnightblue" stroke="midnightblue" points="611.916,-183.709 622.268,-181.452 612.768,-176.761 611.916,-183.709"/>
</g>
<!-- Node18 -->
<g id="node18" class="node"><title>Node18</title>
<g id="a_node18"><a xlink:href="../../db/d97/class_box_world.html#ad20a4e43406c44f4bbf201d1d1028998" target="_top" xlink:title="BoxWorld.start">
<polygon fill="white" stroke="black" points="650,-142.5 650,-161.5 736,-161.5 736,-142.5 650,-142.5"/>
<text text-anchor="middle" x="693" y="-149.5" font-family="Helvetica,sans-Serif" font-size="10.00">BoxWorld.start</text>
</a>
</g>
</g>
<!-- Node12&#45;&gt;Node18 -->
<g id="edge18" class="edge"><title>Node12&#45;&gt;Node18</title>
<path fill="none" stroke="midnightblue" d="M585.618,-165.04C602.836,-162.93 622.274,-160.547 639.779,-158.401"/>
<polygon fill="midnightblue" stroke="midnightblue" points="640.331,-161.86 649.831,-157.169 639.48,-154.912 640.331,-161.86"/>
</g>
<!-- Node14 -->
<g id="node14" class="node"><title>Node14</title>
<g id="a_node14"><a xlink:href="../../db/d97/class_box_world.html#a2542cc74ebeba6a9768a443a55186901" target="_top" xlink:title="BoxWorld.createObstacleArray">
<polygon fill="white" stroke="black" points="1956.5,-47.5 1956.5,-66.5 2117.5,-66.5 2117.5,-47.5 1956.5,-47.5"/>
<text text-anchor="middle" x="2037" y="-54.5" font-family="Helvetica,sans-Serif" font-size="10.00">BoxWorld.createObstacleArray</text>
</a>
</g>
</g>
<!-- Node13&#45;&gt;Node14 -->
<g id="edge14" class="edge"><title>Node13&#45;&gt;Node14</title>
<path fill="none" stroke="midnightblue" d="M1919.67,-57C1928.41,-57 1937.4,-57 1946.31,-57"/>
<polygon fill="midnightblue" stroke="midnightblue" points="1946.34,-60.5001 1956.34,-57 1946.34,-53.5001 1946.34,-60.5001"/>
</g>
<!-- Node16 -->
<g id="node16" class="node"><title>Node16</title>
<g id="a_node16"><a xlink:href="../../d6/d4f/class_item_box_world.html#a1890e6c53a4a73e44e9528009fde508d" target="_top" xlink:title="ItemBoxWorld.itemExists">
<polygon fill="white" stroke="black" points="810,-180.5 810,-199.5 944,-199.5 944,-180.5 810,-180.5"/>
<text text-anchor="middle" x="877" y="-187.5" font-family="Helvetica,sans-Serif" font-size="10.00">ItemBoxWorld.itemExists</text>
</a>
</g>
</g>
<!-- Node15&#45;&gt;Node16 -->
<g id="edge16" class="edge"><title>Node15&#45;&gt;Node16</title>
<path fill="none" stroke="midnightblue" d="M763.585,-190C775.305,-190 787.527,-190 799.413,-190"/>
<polygon fill="midnightblue" stroke="midnightblue" points="799.75,-193.5 809.75,-190 799.75,-186.5 799.75,-193.5"/>
</g>
<!-- Node17 -->
<g id="node17" class="node"><title>Node17</title>
<g id="a_node17"><a xlink:href="../../d6/d4f/class_item_box_world.html#af1bcde0672796e926560684004ed8e81" target="_top" xlink:title="ItemBoxWorld.addSingleItem">
<polygon fill="white" stroke="black" points="800,-218.5 800,-237.5 954,-237.5 954,-218.5 800,-218.5"/>
<text text-anchor="middle" x="877" y="-225.5" font-family="Helvetica,sans-Serif" font-size="10.00">ItemBoxWorld.addSingleItem</text>
</a>
</g>
</g>
<!-- Node15&#45;&gt;Node17 -->
<g id="edge17" class="edge"><title>Node15&#45;&gt;Node17</title>
<path fill="none" stroke="midnightblue" d="M739.926,-199.589C764.376,-204.694 794.633,-211.011 820.403,-216.392"/>
<polygon fill="midnightblue" stroke="midnightblue" points="819.9,-219.862 830.404,-218.48 821.33,-213.01 819.9,-219.862"/>
</g>
<!-- Node19 -->
<g id="node19" class="node"><title>Node19</title>
<g id="a_node19"><a xlink:href="../../db/d97/class_box_world.html#a6794c083c2a0263c2f585f4ae4b7e39c" target="_top" xlink:title="BoxWorld.updateSprites">
<polygon fill="white" stroke="black" points="811.5,-142.5 811.5,-161.5 942.5,-161.5 942.5,-142.5 811.5,-142.5"/>
<text text-anchor="middle" x="877" y="-149.5" font-family="Helvetica,sans-Serif" font-size="10.00">BoxWorld.updateSprites</text>
</a>
</g>
</g>
<!-- Node18&#45;&gt;Node19 -->
<g id="edge19" class="edge"><title>Node18&#45;&gt;Node19</title>
<path fill="none" stroke="midnightblue" d="M736.212,-152C755.517,-152 778.982,-152 801.129,-152"/>
<polygon fill="midnightblue" stroke="midnightblue" points="801.193,-155.5 811.193,-152 801.193,-148.5 801.193,-155.5"/>
</g>
<!-- Node19&#45;&gt;Node4 -->
<g id="edge36" class="edge"><title>Node19&#45;&gt;Node4</title>
<path fill="none" stroke="midnightblue" d="M932.24,-161.505C939.825,-163.979 947.306,-167.09 954,-171 974.088,-182.735 969.176,-198.626 990,-209 1125.31,-276.407 1179.59,-218.273 1328,-247 1339.44,-249.214 1364.7,-256.219 1387.1,-262.667"/>
<polygon fill="midnightblue" stroke="midnightblue" points="1386.22,-266.057 1396.8,-265.477 1388.17,-259.333 1386.22,-266.057"/>
</g>
<!-- Node19&#45;&gt;Node6 -->
<g id="edge37" class="edge"><title>Node19&#45;&gt;Node6</title>
<path fill="none" stroke="midnightblue" d="M915.532,-142.494C995.329,-124.268 1186.14,-91.321 1328,-152 1346.74,-160.016 1388.21,-197.935 1411.76,-220.328"/>
<polygon fill="midnightblue" stroke="midnightblue" points="1409.36,-222.876 1419.01,-227.262 1414.2,-217.819 1409.36,-222.876"/>
</g>
<!-- Node19&#45;&gt;Node8 -->
<g id="edge38" class="edge"><title>Node19&#45;&gt;Node8</title>
<path fill="none" stroke="midnightblue" d="M941.211,-161.677C945.917,-164.161 950.273,-167.226 954,-171 1002.78,-220.394 940.857,-273.962 990,-323 993.106,-326.099 996.615,-328.73 1000.39,-330.961"/>
<polygon fill="midnightblue" stroke="midnightblue" points="999.084,-334.219 1009.6,-335.47 1002.16,-327.932 999.084,-334.219"/>
</g>
<!-- Node19&#45;&gt;Node10 -->
<g id="edge35" class="edge"><title>Node19&#45;&gt;Node10</title>
<path fill="none" stroke="midnightblue" d="M940.183,-161.609C945.229,-164.094 949.939,-167.179 954,-171 992.697,-207.409 951.039,-248.874 990,-285 991.678,-286.556 993.459,-287.992 995.323,-289.317"/>
<polygon fill="midnightblue" stroke="midnightblue" points="993.584,-292.355 1003.97,-294.445 997.154,-286.334 993.584,-292.355"/>
</g>
<!-- Node20 -->
<g id="node20" class="node"><title>Node20</title>
<g id="a_node20"><a xlink:href="../../db/d97/class_box_world.html#a4079bed8937c9f621decfbe1309e31e2" target="_top" xlink:title="BoxWorld.checkAllCollisions">
<polygon fill="white" stroke="black" points="999,-256.5 999,-275.5 1145,-275.5 1145,-256.5 999,-256.5"/>
<text text-anchor="middle" x="1072" y="-263.5" font-family="Helvetica,sans-Serif" font-size="10.00">BoxWorld.checkAllCollisions</text>
</a>
</g>
</g>
<!-- Node19&#45;&gt;Node20 -->
<g id="edge20" class="edge"><title>Node19&#45;&gt;Node20</title>
<path fill="none" stroke="midnightblue" d="M937.646,-161.505C943.522,-163.986 949.109,-167.099 954,-171 981.66,-193.061 962.821,-219.349 990,-242 994.954,-246.129 1000.6,-249.547 1006.54,-252.378"/>
<polygon fill="midnightblue" stroke="midnightblue" points="1005.51,-255.738 1016.08,-256.359 1008.2,-249.278 1005.51,-255.738"/>
</g>
<!-- Node28 -->
<g id="node28" class="node"><title>Node28</title>
<g id="a_node28"><a xlink:href="../../da/de2/class_sticky_box.html#a59337f0aa3c7379a2cb9c76bdc621daf" target="_top" xlink:title="StickyBox.setStuck">
<polygon fill="white" stroke="black" points="1018,-180.5 1018,-199.5 1126,-199.5 1126,-180.5 1018,-180.5"/>
<text text-anchor="middle" x="1072" y="-187.5" font-family="Helvetica,sans-Serif" font-size="10.00">StickyBox.setStuck</text>
</a>
</g>
</g>
<!-- Node19&#45;&gt;Node28 -->
<g id="edge34" class="edge"><title>Node19&#45;&gt;Node28</title>
<path fill="none" stroke="midnightblue" d="M926.702,-161.589C952.859,-166.739 985.284,-173.123 1012.77,-178.534"/>
<polygon fill="midnightblue" stroke="midnightblue" points="1012.16,-181.982 1022.65,-180.48 1013.51,-175.114 1012.16,-181.982"/>
</g>
<!-- Node29 -->
<g id="node29" class="node"><title>Node29</title>
<g id="a_node29"><a xlink:href="../../da/de2/class_sticky_box.html#a185ee469367b376e6c5969a03d089d57" target="_top" xlink:title="StickyBox.move">
<polygon fill="white" stroke="black" points="1025.5,-142.5 1025.5,-161.5 1118.5,-161.5 1118.5,-142.5 1025.5,-142.5"/>
<text text-anchor="middle" x="1072" y="-149.5" font-family="Helvetica,sans-Serif" font-size="10.00">StickyBox.move</text>
</a>
</g>
</g>
<!-- Node19&#45;&gt;Node29 -->
<g id="edge39" class="edge"><title>Node19&#45;&gt;Node29</title>
<path fill="none" stroke="midnightblue" d="M942.535,-152C966.102,-152 992.536,-152 1015.27,-152"/>
<polygon fill="midnightblue" stroke="midnightblue" points="1015.43,-155.5 1025.43,-152 1015.43,-148.5 1015.43,-155.5"/>
</g>
<!-- Node20&#45;&gt;Node11 -->
<g id="edge33" class="edge"><title>Node20&#45;&gt;Node11</title>
<path fill="none" stroke="midnightblue" d="M998.814,-266C865.624,-266 583.538,-266 459.582,-266"/>
<polygon fill="midnightblue" stroke="midnightblue" points="459.509,-262.5 449.509,-266 459.509,-269.5 459.509,-262.5"/>
</g>
<!-- Node21 -->
<g id="node21" class="node"><title>Node21</title>
<g id="a_node21"><a xlink:href="../../db/d97/class_box_world.html#a55add11037cd6dc48556f2f42a9e11be" target="_top" xlink:title="BoxWorld.checkCollide">
<polygon fill="white" stroke="black" points="1198,-256.5 1198,-275.5 1320,-275.5 1320,-256.5 1198,-256.5"/>
<text text-anchor="middle" x="1259" y="-263.5" font-family="Helvetica,sans-Serif" font-size="10.00">BoxWorld.checkCollide</text>
</a>
</g>
</g>
<!-- Node20&#45;&gt;Node21 -->
<g id="edge21" class="edge"><title>Node20&#45;&gt;Node21</title>
<path fill="none" stroke="midnightblue" d="M1145.06,-266C1159.1,-266 1173.8,-266 1187.78,-266"/>
<polygon fill="midnightblue" stroke="midnightblue" points="1187.82,-269.5 1197.82,-266 1187.82,-262.5 1187.82,-269.5"/>
</g>
<!-- Node22 -->
<g id="node22" class="node"><title>Node22</title>
<g id="a_node22"><a xlink:href="../../db/d97/class_box_world.html#a72bacb2a6757900d8835249929fcc838" target="_top" xlink:title="BoxWorld.loseGame">
<polygon fill="white" stroke="black" points="1203,-161.5 1203,-180.5 1315,-180.5 1315,-161.5 1203,-161.5"/>
<text text-anchor="middle" x="1259" y="-168.5" font-family="Helvetica,sans-Serif" font-size="10.00">BoxWorld.loseGame</text>
</a>
</g>
</g>
<!-- Node20&#45;&gt;Node22 -->
<g id="edge24" class="edge"><title>Node20&#45;&gt;Node22</title>
<path fill="none" stroke="midnightblue" d="M1091.76,-256.368C1124.53,-239.539 1192.35,-204.713 1230.46,-185.143"/>
<polygon fill="midnightblue" stroke="midnightblue" points="1232.17,-188.198 1239.47,-180.516 1228.97,-181.971 1232.17,-188.198"/>
</g>
<!-- Node27 -->
<g id="node27" class="node"><title>Node27</title>
<g id="a_node27"><a xlink:href="../../db/d97/class_box_world.html#ae6ffad41f7ba6122234157c72afe8f9c" target="_top" xlink:title="BoxWorld.onScreen">
<polygon fill="white" stroke="black" points="1204.5,-294.5 1204.5,-313.5 1313.5,-313.5 1313.5,-294.5 1204.5,-294.5"/>
<text text-anchor="middle" x="1259" y="-301.5" font-family="Helvetica,sans-Serif" font-size="10.00">BoxWorld.onScreen</text>
</a>
</g>
</g>
<!-- Node20&#45;&gt;Node27 -->
<g id="edge32" class="edge"><title>Node20&#45;&gt;Node27</title>
<path fill="none" stroke="midnightblue" d="M1119.68,-275.589C1144.65,-280.716 1175.56,-287.067 1201.83,-292.463"/>
<polygon fill="midnightblue" stroke="midnightblue" points="1201.15,-295.896 1211.65,-294.48 1202.56,-289.039 1201.15,-295.896"/>
</g>
<!-- Node21&#45;&gt;Node4 -->
<g id="edge22" class="edge"><title>Node21&#45;&gt;Node4</title>
<path fill="none" stroke="midnightblue" d="M1320.06,-269.198C1331.03,-269.783 1342.6,-270.399 1353.94,-271.003"/>
<polygon fill="midnightblue" stroke="midnightblue" points="1354.09,-274.516 1364.26,-271.552 1354.46,-267.526 1354.09,-274.516"/>
</g>
<!-- Node21&#45;&gt;Node6 -->
<g id="edge23" class="edge"><title>Node21&#45;&gt;Node6</title>
<path fill="none" stroke="midnightblue" d="M1315.81,-256.424C1331.03,-253.812 1347.66,-250.958 1363.37,-248.262"/>
<polygon fill="midnightblue" stroke="midnightblue" points="1364.28,-251.657 1373.54,-246.517 1363.09,-244.758 1364.28,-251.657"/>
</g>
<!-- Node23 -->
<g id="node23" class="node"><title>Node23</title>
<g id="a_node23"><a xlink:href="../../d4/d2f/class_lose_screen.html#a34f2cc2c803500316c9b8d854854d758" target="_top" xlink:title="LoseScreen.init">
<polygon fill="white" stroke="black" points="1385,-146.5 1385,-165.5 1475,-165.5 1475,-146.5 1385,-146.5"/>
<text text-anchor="middle" x="1430" y="-153.5" font-family="Helvetica,sans-Serif" font-size="10.00">LoseScreen.init</text>
</a>
</g>
</g>
<!-- Node22&#45;&gt;Node23 -->
<g id="edge25" class="edge"><title>Node22&#45;&gt;Node23</title>
<path fill="none" stroke="midnightblue" d="M1315.34,-166.088C1334.43,-164.394 1355.79,-162.498 1374.79,-160.811"/>
<polygon fill="midnightblue" stroke="midnightblue" points="1375.13,-164.295 1384.78,-159.925 1374.51,-157.322 1375.13,-164.295"/>
</g>
<!-- Node24 -->
<g id="node24" class="node"><title>Node24</title>
<g id="a_node24"><a xlink:href="../../d2/db8/class_menu.html#a3c99ad09e9f2f975c1a0d0597642651a" target="_top" xlink:title="Menu.init">
<polygon fill="white" stroke="black" points="1532,-118.5 1532,-137.5 1592,-137.5 1592,-118.5 1532,-118.5"/>
<text text-anchor="middle" x="1562" y="-125.5" font-family="Helvetica,sans-Serif" font-size="10.00">Menu.init</text>
</a>
</g>
</g>
<!-- Node23&#45;&gt;Node24 -->
<g id="edge26" class="edge"><title>Node23&#45;&gt;Node24</title>
<path fill="none" stroke="midnightblue" d="M1475.01,-146.52C1490.21,-143.246 1507.13,-139.603 1521.91,-136.419"/>
<polygon fill="midnightblue" stroke="midnightblue" points="1522.72,-139.826 1531.75,-134.299 1521.24,-132.983 1522.72,-139.826"/>
</g>
<!-- Node25 -->
<g id="node25" class="node"><title>Node25</title>
<g id="a_node25"><a xlink:href="../../d2/db8/class_menu.html#a8a6e6125f0dc2dc7e19c6655ba6376a2" target="_top" xlink:title="Menu.addIntroText">
<polygon fill="white" stroke="black" points="1628,-118.5 1628,-137.5 1732,-137.5 1732,-118.5 1628,-118.5"/>
<text text-anchor="middle" x="1680" y="-125.5" font-family="Helvetica,sans-Serif" font-size="10.00">Menu.addIntroText</text>
</a>
</g>
</g>
<!-- Node24&#45;&gt;Node25 -->
<g id="edge27" class="edge"><title>Node24&#45;&gt;Node25</title>
<path fill="none" stroke="midnightblue" d="M1592.27,-128C1599.99,-128 1608.62,-128 1617.35,-128"/>
<polygon fill="midnightblue" stroke="midnightblue" points="1617.61,-131.5 1627.61,-128 1617.61,-124.5 1617.61,-131.5"/>
</g>
<!-- Node26 -->
<g id="node26" class="node"><title>Node26</title>
<g id="a_node26"><a xlink:href="../../db/d97/class_box_world.html#a55bf92d3f466bfaade0f6d199d8c9bd9" target="_top" xlink:title="BoxWorld.init">
<polygon fill="white" stroke="black" points="1641.5,-66.5 1641.5,-85.5 1718.5,-85.5 1718.5,-66.5 1641.5,-66.5"/>
<text text-anchor="middle" x="1680" y="-73.5" font-family="Helvetica,sans-Serif" font-size="10.00">BoxWorld.init</text>
</a>
</g>
</g>
<!-- Node24&#45;&gt;Node26 -->
<g id="edge28" class="edge"><title>Node24&#45;&gt;Node26</title>
<path fill="none" stroke="midnightblue" d="M1584.28,-118.462C1602.15,-110.45 1627.93,-98.8934 1648.08,-89.8591"/>
<polygon fill="midnightblue" stroke="midnightblue" points="1649.77,-92.9376 1657.47,-85.6532 1646.91,-86.5501 1649.77,-92.9376"/>
</g>
<!-- Node26&#45;&gt;Node1 -->
<g id="edge31" class="edge"><title>Node26&#45;&gt;Node1</title>
<path fill="none" stroke="midnightblue" d="M1660.92,-66.3745C1620.76,-45.924 1520.61,-0 1431,-0 397,-0 397,-0 397,-0 257.917,-0 123.852,-126.012 78.8747,-172.792"/>
<polygon fill="midnightblue" stroke="midnightblue" points="76.0854,-170.647 71.7548,-180.317 81.1701,-175.458 76.0854,-170.647"/>
</g>
<!-- Node26&#45;&gt;Node13 -->
<g id="edge29" class="edge"><title>Node26&#45;&gt;Node13</title>
<path fill="none" stroke="midnightblue" d="M1718.57,-71.5933C1730.53,-70.1907 1744.28,-68.5778 1758.19,-66.9473"/>
<polygon fill="midnightblue" stroke="midnightblue" points="1758.79,-70.4008 1768.31,-65.7596 1757.97,-63.4484 1758.79,-70.4008"/>
</g>
<!-- Node26&#45;&gt;Node18 -->
<g id="edge30" class="edge"><title>Node26&#45;&gt;Node18</title>
<path fill="none" stroke="midnightblue" d="M1641.19,-76C1592.56,-76 1505.49,-76 1431,-76 1071,-76 1071,-76 1071,-76 944.619,-76 799.024,-117.549 731.719,-139.205"/>
<polygon fill="midnightblue" stroke="midnightblue" points="730.411,-135.95 721.986,-142.375 732.578,-142.606 730.411,-135.95"/>
</g>
</g>
</svg>
