<?xml version="1.0" encoding="UTF-8" standalone="no"?>
<!DOCTYPE svg PUBLIC "-//W3C//DTD SVG 1.1//EN"
 "http://www.w3.org/Graphics/SVG/1.1/DTD/svg11.dtd">
<!-- Generated by graphviz version 2.36.0 (20140111.2315)
 -->
<!-- Title: BoxWorld.getRoot Pages: 1 -->
<svg width="1952pt" height="245pt"
 viewBox="0.00 0.00 1952.00 245.26" xmlns="http://www.w3.org/2000/svg" xmlns:xlink="http://www.w3.org/1999/xlink">
<g id="graph0" class="graph" transform="scale(1 1) rotate(0) translate(4 241.258)">
<title>BoxWorld.getRoot</title>
<polygon fill="white" stroke="none" points="-4,4 -4,-241.258 1948,-241.258 1948,4 -4,4"/>
<!-- Node1 -->
<g id="node1" class="node"><title>Node1</title>
<polygon fill="#bfbfbf" stroke="black" points="0,-47.5 0,-66.5 100,-66.5 100,-47.5 0,-47.5"/>
<text text-anchor="middle" x="50" y="-54.5" font-family="Helvetica,sans-Serif" font-size="10.00">BoxWorld.getRoot</text>
</g>
<!-- Node2 -->
<g id="node2" class="node"><title>Node2</title>
<g id="a_node2"><a xlink:href="../../d6/d4f/class_item_box_world.html#af1bcde0672796e926560684004ed8e81" target="_top" xlink:title="ItemBoxWorld.addSingleItem">
<polygon fill="white" stroke="black" points="136,-104.5 136,-123.5 290,-123.5 290,-104.5 136,-104.5"/>
<text text-anchor="middle" x="213" y="-111.5" font-family="Helvetica,sans-Serif" font-size="10.00">ItemBoxWorld.addSingleItem</text>
</a>
</g>
</g>
<!-- Node1&#45;&gt;Node2 -->
<g id="edge1" class="edge"><title>Node1&#45;&gt;Node2</title>
<path fill="none" stroke="midnightblue" d="M78.8719,-70.9506C95.2277,-78.7578 116.46,-88.2481 136,-95 146.284,-98.5534 157.562,-101.741 168.209,-104.445"/>
<polygon fill="midnightblue" stroke="midnightblue" points="80.3805,-67.7924 69.855,-66.5818 77.3282,-74.0919 80.3805,-67.7924"/>
</g>
<!-- Node12 -->
<g id="node12" class="node"><title>Node12</title>
<g id="a_node12"><a xlink:href="../../d6/d4f/class_item_box_world.html#a2ed12a6b39993faedc05cc682204476d" target="_top" xlink:title="ItemBoxWorld.winLevel">
<polygon fill="white" stroke="black" points="1624.5,-66.5 1624.5,-85.5 1749.5,-85.5 1749.5,-66.5 1624.5,-66.5"/>
<text text-anchor="middle" x="1687" y="-73.5" font-family="Helvetica,sans-Serif" font-size="10.00">ItemBoxWorld.winLevel</text>
</a>
</g>
</g>
<!-- Node1&#45;&gt;Node12 -->
<g id="edge28" class="edge"><title>Node1&#45;&gt;Node12</title>
<path fill="none" stroke="midnightblue" d="M96.691,-44.9806C164.388,-28.2573 295.56,-0 409,-0 409,-0 409,-0 1433,-0 1524.27,-1.42109e-14 1626.52,-45.924 1667.53,-66.3745"/>
<polygon fill="midnightblue" stroke="midnightblue" points="95.6303,-41.638 86.7782,-47.4595 97.3286,-48.4289 95.6303,-41.638"/>
</g>
<!-- Node20 -->
<g id="node20" class="node"><title>Node20</title>
<g id="a_node20"><a xlink:href="../../d6/d4f/class_item_box_world.html#ad8a9b79d31264f523f05ed43aa490f0f" target="_top" xlink:title="ItemBoxWorld.checkAllCollisions">
<polygon fill="white" stroke="black" points="326,-28.5 326,-47.5 494,-47.5 494,-28.5 326,-28.5"/>
<text text-anchor="middle" x="410" y="-35.5" font-family="Helvetica,sans-Serif" font-size="10.00">ItemBoxWorld.checkAllCollisions</text>
</a>
</g>
</g>
<!-- Node1&#45;&gt;Node20 -->
<g id="edge23" class="edge"><title>Node1&#45;&gt;Node20</title>
<path fill="none" stroke="midnightblue" d="M110.273,-53.8542C169.135,-50.7302 259.895,-45.9134 325.932,-42.4087"/>
<polygon fill="midnightblue" stroke="midnightblue" points="109.828,-50.3728 100.028,-54.398 110.199,-57.363 109.828,-50.3728"/>
</g>
<!-- Node21 -->
<g id="node21" class="node"><title>Node21</title>
<g id="a_node21"><a xlink:href="../../d6/d4f/class_item_box_world.html#a1890e6c53a4a73e44e9528009fde508d" target="_top" xlink:title="ItemBoxWorld.itemExists">
<polygon fill="white" stroke="black" points="146,-66.5 146,-85.5 280,-85.5 280,-66.5 146,-66.5"/>
<text text-anchor="middle" x="213" y="-73.5" font-family="Helvetica,sans-Serif" font-size="10.00">ItemBoxWorld.itemExists</text>
</a>
</g>
</g>
<!-- Node1&#45;&gt;Node21 -->
<g id="edge24" class="edge"><title>Node1&#45;&gt;Node21</title>
<path fill="none" stroke="midnightblue" d="M110.203,-63.9867C121.827,-65.3584 134.088,-66.8054 145.92,-68.2017"/>
<polygon fill="midnightblue" stroke="midnightblue" points="110.521,-60.5001 100.18,-62.8039 109.701,-67.4518 110.521,-60.5001"/>
</g>
<!-- Node3 -->
<g id="node3" class="node"><title>Node3</title>
<g id="a_node3"><a xlink:href="../../d6/d4f/class_item_box_world.html#a7ead15fd9fd8095f928640161d48fdf8" target="_top" xlink:title="ItemBoxWorld.addAllItems">
<polygon fill="white" stroke="black" points="339.5,-104.5 339.5,-123.5 480.5,-123.5 480.5,-104.5 339.5,-104.5"/>
<text text-anchor="middle" x="410" y="-111.5" font-family="Helvetica,sans-Serif" font-size="10.00">ItemBoxWorld.addAllItems</text>
</a>
</g>
</g>
<!-- Node2&#45;&gt;Node3 -->
<g id="edge2" class="edge"><title>Node2&#45;&gt;Node3</title>
<path fill="none" stroke="midnightblue" d="M300.597,-114C313.617,-114 326.899,-114 339.499,-114"/>
<polygon fill="midnightblue" stroke="midnightblue" points="300.23,-110.5 290.23,-114 300.23,-117.5 300.23,-110.5"/>
</g>
<!-- Node4 -->
<g id="node4" class="node"><title>Node4</title>
<g id="a_node4"><a xlink:href="../../d6/d4f/class_item_box_world.html#aa559fc2680327b41fb376e2eda8e82e3" target="_top" xlink:title="ItemBoxWorld.init">
<polygon fill="white" stroke="black" points="535.5,-151.5 535.5,-170.5 634.5,-170.5 634.5,-151.5 535.5,-151.5"/>
<text text-anchor="middle" x="585" y="-158.5" font-family="Helvetica,sans-Serif" font-size="10.00">ItemBoxWorld.init</text>
</a>
</g>
</g>
<!-- Node3&#45;&gt;Node4 -->
<g id="edge3" class="edge"><title>Node3&#45;&gt;Node4</title>
<path fill="none" stroke="midnightblue" d="M455.876,-126.192C484.818,-134.055 521.923,-144.135 548.746,-151.422"/>
<polygon fill="midnightblue" stroke="midnightblue" points="456.577,-122.755 446.009,-123.511 454.742,-129.511 456.577,-122.755"/>
</g>
<!-- Node19 -->
<g id="node19" class="node"><title>Node19</title>
<g id="a_node19"><a xlink:href="../../d6/d4f/class_item_box_world.html#ad828a4764d0fc92cb1cc3ada9a4a2862" target="_top" xlink:title="ItemBoxWorld.reset">
<polygon fill="white" stroke="black" points="530,-104.5 530,-123.5 640,-123.5 640,-104.5 530,-104.5"/>
<text text-anchor="middle" x="585" y="-111.5" font-family="Helvetica,sans-Serif" font-size="10.00">ItemBoxWorld.reset</text>
</a>
</g>
</g>
<!-- Node3&#45;&gt;Node19 -->
<g id="edge22" class="edge"><title>Node3&#45;&gt;Node19</title>
<path fill="none" stroke="midnightblue" d="M490.891,-114C504.08,-114 517.474,-114 529.838,-114"/>
<polygon fill="midnightblue" stroke="midnightblue" points="490.867,-110.5 480.867,-114 490.867,-117.5 490.867,-110.5"/>
</g>
<!-- Node5 -->
<g id="node5" class="node"><title>Node5</title>
<g id="a_node5"><a xlink:href="../../db/d97/class_box_world.html#aad670712776afe126e51791097027e05" target="_top" xlink:title="BoxWorld.winLevel">
<polygon fill="white" stroke="black" points="676.5,-161.5 676.5,-180.5 779.5,-180.5 779.5,-161.5 676.5,-161.5"/>
<text text-anchor="middle" x="728" y="-168.5" font-family="Helvetica,sans-Serif" font-size="10.00">BoxWorld.winLevel</text>
</a>
</g>
</g>
<!-- Node4&#45;&gt;Node5 -->
<g id="edge4" class="edge"><title>Node4&#45;&gt;Node5</title>
<path fill="none" stroke="midnightblue" d="M644.543,-165.152C655.144,-165.904 666.118,-166.682 676.466,-167.416"/>
<polygon fill="midnightblue" stroke="midnightblue" points="644.747,-161.658 634.524,-164.441 644.252,-168.64 644.747,-161.658"/>
</g>
<!-- Node6 -->
<g id="node6" class="node"><title>Node6</title>
<g id="a_node6"><a xlink:href="../../db/d97/class_box_world.html#a4079bed8937c9f621decfbe1309e31e2" target="_top" xlink:title="BoxWorld.checkAllCollisions">
<polygon fill="white" stroke="black" points="816,-199.5 816,-218.5 962,-218.5 962,-199.5 816,-199.5"/>
<text text-anchor="middle" x="889" y="-206.5" font-family="Helvetica,sans-Serif" font-size="10.00">BoxWorld.checkAllCollisions</text>
</a>
</g>
</g>
<!-- Node5&#45;&gt;Node6 -->
<g id="edge5" class="edge"><title>Node5&#45;&gt;Node6</title>
<path fill="none" stroke="midnightblue" d="M779.077,-182.968C801.358,-188.293 827.229,-194.476 848.166,-199.48"/>
<polygon fill="midnightblue" stroke="midnightblue" points="779.662,-179.509 769.122,-180.589 778.035,-186.318 779.662,-179.509"/>
</g>
<!-- Node17 -->
<g id="node17" class="node"><title>Node17</title>
<g id="a_node17"><a xlink:href="../../db/d97/class_box_world.html#aa7e2049d7be23e15fd2ec7fa2922ed79" target="_top" xlink:title="BoxWorld.handleKeyInput">
<polygon fill="white" stroke="black" points="821,-161.5 821,-180.5 957,-180.5 957,-161.5 821,-161.5"/>
<text text-anchor="middle" x="889" y="-168.5" font-family="Helvetica,sans-Serif" font-size="10.00">BoxWorld.handleKeyInput</text>
</a>
</g>
</g>
<!-- Node5&#45;&gt;Node17 -->
<g id="edge18" class="edge"><title>Node5&#45;&gt;Node17</title>
<path fill="none" stroke="midnightblue" d="M789.76,-171C799.946,-171 810.567,-171 820.901,-171"/>
<polygon fill="midnightblue" stroke="midnightblue" points="789.746,-167.5 779.746,-171 789.746,-174.5 789.746,-167.5"/>
</g>
<!-- Node7 -->
<g id="node7" class="node"><title>Node7</title>
<g id="a_node7"><a xlink:href="../../db/d97/class_box_world.html#a6794c083c2a0263c2f585f4ae4b7e39c" target="_top" xlink:title="BoxWorld.updateSprites">
<polygon fill="white" stroke="black" points="998.5,-180.5 998.5,-199.5 1129.5,-199.5 1129.5,-180.5 998.5,-180.5"/>
<text text-anchor="middle" x="1064" y="-187.5" font-family="Helvetica,sans-Serif" font-size="10.00">BoxWorld.updateSprites</text>
</a>
</g>
</g>
<!-- Node6&#45;&gt;Node7 -->
<g id="edge6" class="edge"><title>Node6&#45;&gt;Node7</title>
<path fill="none" stroke="midnightblue" d="M972.068,-199.987C980.925,-199.014 989.843,-198.035 998.451,-197.089"/>
<polygon fill="midnightblue" stroke="midnightblue" points="971.673,-196.509 962.115,-201.08 972.437,-203.467 971.673,-196.509"/>
</g>
<!-- Node8 -->
<g id="node8" class="node"><title>Node8</title>
<g id="a_node8"><a xlink:href="../../db/d97/class_box_world.html#ad20a4e43406c44f4bbf201d1d1028998" target="_top" xlink:title="BoxWorld.start">
<polygon fill="white" stroke="black" points="1166,-180.5 1166,-199.5 1252,-199.5 1252,-180.5 1166,-180.5"/>
<text text-anchor="middle" x="1209" y="-187.5" font-family="Helvetica,sans-Serif" font-size="10.00">BoxWorld.start</text>
</a>
</g>
</g>
<!-- Node7&#45;&gt;Node8 -->
<g id="edge7" class="edge"><title>Node7&#45;&gt;Node8</title>
<path fill="none" stroke="midnightblue" d="M1139.9,-190C1148.84,-190 1157.7,-190 1165.94,-190"/>
<polygon fill="midnightblue" stroke="midnightblue" points="1139.81,-186.5 1129.81,-190 1139.81,-193.5 1139.81,-186.5"/>
</g>
<!-- Node8&#45;&gt;Node4 -->
<g id="edge17" class="edge"><title>Node8&#45;&gt;Node4</title>
<path fill="none" stroke="midnightblue" d="M1162.86,-202.021C1152.14,-204.589 1140.71,-207.098 1130,-209 992.344,-233.449 954.585,-246.474 816,-228 738.702,-217.696 651.252,-186.544 609.987,-170.611"/>
<polygon fill="midnightblue" stroke="midnightblue" points="1163.99,-205.346 1172.87,-199.558 1162.32,-198.549 1163.99,-205.346"/>
</g>
<!-- Node9 -->
<g id="node9" class="node"><title>Node9</title>
<g id="a_node9"><a xlink:href="../../db/d97/class_box_world.html#a55bf92d3f466bfaade0f6d199d8c9bd9" target="_top" xlink:title="BoxWorld.init">
<polygon fill="white" stroke="black" points="1288.5,-142.5 1288.5,-161.5 1365.5,-161.5 1365.5,-142.5 1288.5,-142.5"/>
<text text-anchor="middle" x="1327" y="-149.5" font-family="Helvetica,sans-Serif" font-size="10.00">BoxWorld.init</text>
</a>
</g>
</g>
<!-- Node8&#45;&gt;Node9 -->
<g id="edge8" class="edge"><title>Node8&#45;&gt;Node9</title>
<path fill="none" stroke="midnightblue" d="M1249.15,-177.174C1264.72,-172.075 1282.31,-166.311 1296.74,-161.586"/>
<polygon fill="midnightblue" stroke="midnightblue" points="1247.69,-173.972 1239.27,-180.411 1249.86,-180.624 1247.69,-173.972"/>
</g>
<!-- Node10 -->
<g id="node10" class="node"><title>Node10</title>
<g id="a_node10"><a xlink:href="../../d2/db8/class_menu.html#a3c99ad09e9f2f975c1a0d0597642651a" target="_top" xlink:title="Menu.init">
<polygon fill="white" stroke="black" points="1402,-142.5 1402,-161.5 1462,-161.5 1462,-142.5 1402,-142.5"/>
<text text-anchor="middle" x="1432" y="-149.5" font-family="Helvetica,sans-Serif" font-size="10.00">Menu.init</text>
</a>
</g>
</g>
<!-- Node9&#45;&gt;Node10 -->
<g id="edge9" class="edge"><title>Node9&#45;&gt;Node10</title>
<path fill="none" stroke="midnightblue" d="M1376.03,-152C1384.89,-152 1393.87,-152 1401.95,-152"/>
<polygon fill="midnightblue" stroke="midnightblue" points="1375.77,-148.5 1365.77,-152 1375.77,-155.5 1375.77,-148.5"/>
</g>
<!-- Node11 -->
<g id="node11" class="node"><title>Node11</title>
<g id="a_node11"><a xlink:href="../../d1/de1/class_end_screen.html#a1264ffb72b3a3032443f9c4087222aef" target="_top" xlink:title="EndScreen.init">
<polygon fill="white" stroke="black" points="1500,-104.5 1500,-123.5 1586,-123.5 1586,-104.5 1500,-104.5"/>
<text text-anchor="middle" x="1543" y="-111.5" font-family="Helvetica,sans-Serif" font-size="10.00">EndScreen.init</text>
</a>
</g>
</g>
<!-- Node10&#45;&gt;Node11 -->
<g id="edge10" class="edge"><title>Node10&#45;&gt;Node11</title>
<path fill="none" stroke="midnightblue" d="M1470.21,-139.028C1484.73,-133.966 1501.08,-128.266 1514.5,-123.586"/>
<polygon fill="midnightblue" stroke="midnightblue" points="1468.8,-135.814 1460.51,-142.411 1471.1,-142.424 1468.8,-135.814"/>
</g>
<!-- Node14 -->
<g id="node14" class="node"><title>Node14</title>
<g id="a_node14"><a xlink:href="../../d4/d2f/class_lose_screen.html#a34f2cc2c803500316c9b8d854854d758" target="_top" xlink:title="LoseScreen.init">
<polygon fill="white" stroke="black" points="1498,-180.5 1498,-199.5 1588,-199.5 1588,-180.5 1498,-180.5"/>
<text text-anchor="middle" x="1543" y="-187.5" font-family="Helvetica,sans-Serif" font-size="10.00">LoseScreen.init</text>
</a>
</g>
</g>
<!-- Node10&#45;&gt;Node14 -->
<g id="edge13" class="edge"><title>Node10&#45;&gt;Node14</title>
<path fill="none" stroke="midnightblue" d="M1470.21,-164.972C1484.73,-170.034 1501.08,-175.734 1514.5,-180.414"/>
<polygon fill="midnightblue" stroke="midnightblue" points="1471.1,-161.576 1460.51,-161.589 1468.8,-168.186 1471.1,-161.576"/>
</g>
<!-- Node16 -->
<g id="node16" class="node"><title>Node16</title>
<g id="a_node16"><a xlink:href="../../d0/d4b/class_main.html#a7595d13c514a02c35aca322dd91d2063" target="_top" xlink:title="Main.start">
<polygon fill="white" stroke="black" points="1510.5,-142.5 1510.5,-161.5 1575.5,-161.5 1575.5,-142.5 1510.5,-142.5"/>
<text text-anchor="middle" x="1543" y="-149.5" font-family="Helvetica,sans-Serif" font-size="10.00">Main.start</text>
</a>
</g>
</g>
<!-- Node10&#45;&gt;Node16 -->
<g id="edge16" class="edge"><title>Node10&#45;&gt;Node16</title>
<path fill="none" stroke="midnightblue" d="M1472.38,-152C1484.88,-152 1498.53,-152 1510.41,-152"/>
<polygon fill="midnightblue" stroke="midnightblue" points="1472.21,-148.5 1462.21,-152 1472.21,-155.5 1472.21,-148.5"/>
</g>
<!-- Node11&#45;&gt;Node12 -->
<g id="edge11" class="edge"><title>Node11&#45;&gt;Node12</title>
<path fill="none" stroke="midnightblue" d="M1589.49,-101.826C1609.13,-96.5713 1631.77,-90.5134 1650.18,-85.5859"/>
<polygon fill="midnightblue" stroke="midnightblue" points="1588.59,-98.4448 1579.83,-104.411 1590.4,-105.207 1588.59,-98.4448"/>
</g>
<!-- Node13 -->
<g id="node13" class="node"><title>Node13</title>
<g id="a_node13"><a xlink:href="../../d6/d4f/class_item_box_world.html#ae442d947b4dafc944336ee27628d2175" target="_top" xlink:title="ItemBoxWorld.handleKeyInput">
<polygon fill="white" stroke="black" points="1786,-66.5 1786,-85.5 1944,-85.5 1944,-66.5 1786,-66.5"/>
<text text-anchor="middle" x="1865" y="-73.5" font-family="Helvetica,sans-Serif" font-size="10.00">ItemBoxWorld.handleKeyInput</text>
</a>
</g>
</g>
<!-- Node12&#45;&gt;Node13 -->
<g id="edge12" class="edge"><title>Node12&#45;&gt;Node13</title>
<path fill="none" stroke="midnightblue" d="M1759.57,-76C1768.2,-76 1777.05,-76 1785.77,-76"/>
<polygon fill="midnightblue" stroke="midnightblue" points="1759.56,-72.5001 1749.56,-76 1759.56,-79.5001 1759.56,-72.5001"/>
</g>
<!-- Node15 -->
<g id="node15" class="node"><title>Node15</title>
<g id="a_node15"><a xlink:href="../../db/d97/class_box_world.html#a72bacb2a6757900d8835249929fcc838" target="_top" xlink:title="BoxWorld.loseGame">
<polygon fill="white" stroke="black" points="1631,-199.5 1631,-218.5 1743,-218.5 1743,-199.5 1631,-199.5"/>
<text text-anchor="middle" x="1687" y="-206.5" font-family="Helvetica,sans-Serif" font-size="10.00">BoxWorld.loseGame</text>
</a>
</g>
</g>
<!-- Node14&#45;&gt;Node15 -->
<g id="edge14" class="edge"><title>Node14&#45;&gt;Node15</title>
<path fill="none" stroke="midnightblue" d="M1598.2,-197.253C1608.9,-198.684 1620.13,-200.186 1630.85,-201.621"/>
<polygon fill="midnightblue" stroke="midnightblue" points="1598.53,-193.765 1588.15,-195.908 1597.6,-200.703 1598.53,-193.765"/>
</g>
<!-- Node15&#45;&gt;Node6 -->
<g id="edge15" class="edge"><title>Node15&#45;&gt;Node6</title>
<path fill="none" stroke="midnightblue" d="M1620.59,-216.617C1569.56,-221.904 1496.87,-228 1433,-228 1208,-228 1208,-228 1208,-228 1123.52,-228 1026.64,-221.235 962.232,-215.779"/>
<polygon fill="midnightblue" stroke="midnightblue" points="1621.24,-220.068 1630.81,-215.539 1620.5,-213.107 1621.24,-220.068"/>
</g>
<!-- Node18 -->
<g id="node18" class="node"><title>Node18</title>
<g id="a_node18"><a xlink:href="../../db/d97/class_box_world.html#a726e747e023543658d7a345cc6466ccb" target="_top" xlink:title="BoxWorld.createScene">
<polygon fill="white" stroke="black" points="1002,-142.5 1002,-161.5 1126,-161.5 1126,-142.5 1002,-142.5"/>
<text text-anchor="middle" x="1064" y="-149.5" font-family="Helvetica,sans-Serif" font-size="10.00">BoxWorld.createScene</text>
</a>
</g>
</g>
<!-- Node17&#45;&gt;Node18 -->
<g id="edge19" class="edge"><title>Node17&#45;&gt;Node18</title>
<path fill="none" stroke="midnightblue" d="M967.41,-162.498C978.908,-161.236 990.622,-159.949 1001.73,-158.729"/>
<polygon fill="midnightblue" stroke="midnightblue" points="966.94,-159.029 957.382,-163.6 967.704,-165.987 966.94,-159.029"/>
</g>
<!-- Node18&#45;&gt;Node4 -->
<g id="edge20" class="edge"><title>Node18&#45;&gt;Node4</title>
<path fill="none" stroke="midnightblue" d="M991.806,-149.878C914.128,-148.057 786.139,-146.507 676,-152 662.512,-152.673 647.93,-153.909 634.51,-155.255"/>
<polygon fill="midnightblue" stroke="midnightblue" points="991.876,-153.38 1001.96,-150.124 992.046,-146.382 991.876,-153.38"/>
</g>
<!-- Node18&#45;&gt;Node9 -->
<g id="edge21" class="edge"><title>Node18&#45;&gt;Node9</title>
<path fill="none" stroke="midnightblue" d="M1136.43,-152C1185.47,-152 1248.61,-152 1288.21,-152"/>
<polygon fill="midnightblue" stroke="midnightblue" points="1136.19,-148.5 1126.19,-152 1136.19,-155.5 1136.19,-148.5"/>
</g>
<!-- Node21&#45;&gt;Node3 -->
<g id="edge25" class="edge"><title>Node21&#45;&gt;Node3</title>
<path fill="none" stroke="midnightblue" d="M272.959,-87.4894C300.782,-92.9114 333.596,-99.3058 360.025,-104.456"/>
<polygon fill="midnightblue" stroke="midnightblue" points="273.44,-84.0174 262.955,-85.54 272.101,-90.8882 273.44,-84.0174"/>
</g>
<!-- Node21&#45;&gt;Node12 -->
<g id="edge27" class="edge"><title>Node21&#45;&gt;Node12</title>
<path fill="none" stroke="midnightblue" d="M290.439,-76C365.257,-76 482.465,-76 584,-76 584,-76 584,-76 1433,-76 1498.34,-76 1573.16,-76 1624.39,-76"/>
<polygon fill="midnightblue" stroke="midnightblue" points="290.169,-72.5001 280.169,-76 290.169,-79.5001 290.169,-72.5001"/>
</g>
<!-- Node21&#45;&gt;Node20 -->
<g id="edge26" class="edge"><title>Node21&#45;&gt;Node20</title>
<path fill="none" stroke="midnightblue" d="M272.959,-64.5106C300.782,-59.0886 333.596,-52.6942 360.025,-47.5439"/>
<polygon fill="midnightblue" stroke="midnightblue" points="272.101,-61.1118 262.955,-66.46 273.44,-67.9826 272.101,-61.1118"/>
</g>
</g>
</svg>
