<?xml version="1.0" encoding="UTF-8" standalone="no"?>
<!DOCTYPE svg PUBLIC "-//W3C//DTD SVG 1.1//EN"
 "http://www.w3.org/Graphics/SVG/1.1/DTD/svg11.dtd">
<!-- Generated by graphviz version 2.36.0 (20140111.2315)
 -->
<!-- Title: BoxWorld.createScene Pages: 1 -->
<svg width="1572pt" height="142pt"
 viewBox="0.00 0.00 1572.00 142.00" xmlns="http://www.w3.org/2000/svg" xmlns:xlink="http://www.w3.org/1999/xlink">
<g id="graph0" class="graph" transform="scale(1 1) rotate(0) translate(4 138)">
<title>BoxWorld.createScene</title>
<polygon fill="white" stroke="none" points="-4,4 -4,-138 1568,-138 1568,4 -4,4"/>
<!-- Node1 -->
<g id="node1" class="node"><title>Node1</title>
<polygon fill="#bfbfbf" stroke="black" points="0,-57.5 0,-76.5 124,-76.5 124,-57.5 0,-57.5"/>
<text text-anchor="middle" x="62" y="-64.5" font-family="Helvetica,sans-Serif" font-size="10.00">BoxWorld.createScene</text>
</g>
<!-- Node2 -->
<g id="node2" class="node"><title>Node2</title>
<g id="a_node2"><a xlink:href="../../d6/d4f/class_item_box_world.html#aa559fc2680327b41fb376e2eda8e82e3" target="_top" xlink:title="ItemBoxWorld.init">
<polygon fill="white" stroke="black" points="160.5,-57.5 160.5,-76.5 259.5,-76.5 259.5,-57.5 160.5,-57.5"/>
<text text-anchor="middle" x="210" y="-64.5" font-family="Helvetica,sans-Serif" font-size="10.00">ItemBoxWorld.init</text>
</a>
</g>
</g>
<!-- Node1&#45;&gt;Node2 -->
<g id="edge1" class="edge"><title>Node1&#45;&gt;Node2</title>
<path fill="none" stroke="midnightblue" d="M134.3,-67C143.052,-67 151.836,-67 160.149,-67"/>
<polygon fill="midnightblue" stroke="midnightblue" points="134.071,-63.5001 124.071,-67 134.071,-70.5001 134.071,-63.5001"/>
</g>
<!-- Node7 -->
<g id="node7" class="node"><title>Node7</title>
<g id="a_node7"><a xlink:href="../../db/d97/class_box_world.html#a55bf92d3f466bfaade0f6d199d8c9bd9" target="_top" xlink:title="BoxWorld.init">
<polygon fill="white" stroke="black" points="908.5,-76.5 908.5,-95.5 985.5,-95.5 985.5,-76.5 908.5,-76.5"/>
<text text-anchor="middle" x="947" y="-83.5" font-family="Helvetica,sans-Serif" font-size="10.00">BoxWorld.init</text>
</a>
</g>
</g>
<!-- Node1&#45;&gt;Node7 -->
<g id="edge18" class="edge"><title>Node1&#45;&gt;Node7</title>
<path fill="none" stroke="midnightblue" d="M101.075,-79.6427C155.12,-96.4346 257.473,-124 347,-124 347,-124 347,-124 685,-124 768.539,-124 789.756,-119.651 872,-105 885.581,-102.581 900.34,-98.9914 913.079,-95.5819"/>
<polygon fill="midnightblue" stroke="midnightblue" points="101.833,-76.212 91.2437,-76.5405 99.727,-82.8876 101.833,-76.212"/>
</g>
<!-- Node3 -->
<g id="node3" class="node"><title>Node3</title>
<g id="a_node3"><a xlink:href="../../db/d97/class_box_world.html#aad670712776afe126e51791097027e05" target="_top" xlink:title="BoxWorld.winLevel">
<polygon fill="white" stroke="black" points="296.5,-38.5 296.5,-57.5 399.5,-57.5 399.5,-38.5 296.5,-38.5"/>
<text text-anchor="middle" x="348" y="-45.5" font-family="Helvetica,sans-Serif" font-size="10.00">BoxWorld.winLevel</text>
</a>
</g>
</g>
<!-- Node2&#45;&gt;Node3 -->
<g id="edge2" class="edge"><title>Node2&#45;&gt;Node3</title>
<path fill="none" stroke="midnightblue" d="M269.628,-58.8094C278.519,-57.5672 287.628,-56.2946 296.331,-55.0787"/>
<polygon fill="midnightblue" stroke="midnightblue" points="269.135,-55.3442 259.715,-60.1942 270.103,-62.2769 269.135,-55.3442"/>
</g>
<!-- Node4 -->
<g id="node4" class="node"><title>Node4</title>
<g id="a_node4"><a xlink:href="../../db/d97/class_box_world.html#a4079bed8937c9f621decfbe1309e31e2" target="_top" xlink:title="BoxWorld.checkAllCollisions">
<polygon fill="white" stroke="black" points="436,-38.5 436,-57.5 582,-57.5 582,-38.5 436,-38.5"/>
<text text-anchor="middle" x="509" y="-45.5" font-family="Helvetica,sans-Serif" font-size="10.00">BoxWorld.checkAllCollisions</text>
</a>
</g>
</g>
<!-- Node3&#45;&gt;Node4 -->
<g id="edge3" class="edge"><title>Node3&#45;&gt;Node4</title>
<path fill="none" stroke="midnightblue" d="M409.879,-48C418.33,-48 427.079,-48 435.713,-48"/>
<polygon fill="midnightblue" stroke="midnightblue" points="409.746,-44.5001 399.746,-48 409.746,-51.5001 409.746,-44.5001"/>
</g>
<!-- Node15 -->
<g id="node15" class="node"><title>Node15</title>
<g id="a_node15"><a xlink:href="../../db/d97/class_box_world.html#aa7e2049d7be23e15fd2ec7fa2922ed79" target="_top" xlink:title="BoxWorld.handleKeyInput">
<polygon fill="white" stroke="black" points="441,-0.5 441,-19.5 577,-19.5 577,-0.5 441,-0.5"/>
<text text-anchor="middle" x="509" y="-7.5" font-family="Helvetica,sans-Serif" font-size="10.00">BoxWorld.handleKeyInput</text>
</a>
</g>
</g>
<!-- Node3&#45;&gt;Node15 -->
<g id="edge16" class="edge"><title>Node3&#45;&gt;Node15</title>
<path fill="none" stroke="midnightblue" d="M399.077,-36.032C421.358,-30.7069 447.229,-24.5238 468.166,-19.5201"/>
<polygon fill="midnightblue" stroke="midnightblue" points="398.035,-32.6823 389.122,-38.411 399.662,-39.4906 398.035,-32.6823"/>
</g>
<!-- Node5 -->
<g id="node5" class="node"><title>Node5</title>
<g id="a_node5"><a xlink:href="../../db/d97/class_box_world.html#a6794c083c2a0263c2f585f4ae4b7e39c" target="_top" xlink:title="BoxWorld.updateSprites">
<polygon fill="white" stroke="black" points="618.5,-38.5 618.5,-57.5 749.5,-57.5 749.5,-38.5 618.5,-38.5"/>
<text text-anchor="middle" x="684" y="-45.5" font-family="Helvetica,sans-Serif" font-size="10.00">BoxWorld.updateSprites</text>
</a>
</g>
</g>
<!-- Node4&#45;&gt;Node5 -->
<g id="edge4" class="edge"><title>Node4&#45;&gt;Node5</title>
<path fill="none" stroke="midnightblue" d="M592.354,-48C601.116,-48 609.936,-48 618.451,-48"/>
<polygon fill="midnightblue" stroke="midnightblue" points="592.115,-44.5001 582.115,-48 592.115,-51.5001 592.115,-44.5001"/>
</g>
<!-- Node6 -->
<g id="node6" class="node"><title>Node6</title>
<g id="a_node6"><a xlink:href="../../db/d97/class_box_world.html#ad20a4e43406c44f4bbf201d1d1028998" target="_top" xlink:title="BoxWorld.start">
<polygon fill="white" stroke="black" points="786,-76.5 786,-95.5 872,-95.5 872,-76.5 786,-76.5"/>
<text text-anchor="middle" x="829" y="-83.5" font-family="Helvetica,sans-Serif" font-size="10.00">BoxWorld.start</text>
</a>
</g>
</g>
<!-- Node5&#45;&gt;Node6 -->
<g id="edge5" class="edge"><title>Node5&#45;&gt;Node6</title>
<path fill="none" stroke="midnightblue" d="M730.813,-60.1742C750.587,-65.4287 773.384,-71.4866 791.927,-76.4141"/>
<polygon fill="midnightblue" stroke="midnightblue" points="731.648,-56.7747 721.085,-57.589 729.851,-63.5399 731.648,-56.7747"/>
</g>
<!-- Node6&#45;&gt;Node2 -->
<g id="edge15" class="edge"><title>Node6&#45;&gt;Node2</title>
<path fill="none" stroke="midnightblue" d="M775.448,-84.3817C657.624,-80.7534 373.752,-72.0118 259.673,-68.4988"/>
<polygon fill="midnightblue" stroke="midnightblue" points="775.55,-87.8864 785.653,-84.696 775.766,-80.8897 775.55,-87.8864"/>
</g>
<!-- Node6&#45;&gt;Node7 -->
<g id="edge6" class="edge"><title>Node6&#45;&gt;Node7</title>
<path fill="none" stroke="midnightblue" d="M882.33,-86C891.062,-86 899.968,-86 908.244,-86"/>
<polygon fill="midnightblue" stroke="midnightblue" points="882.207,-82.5001 872.207,-86 882.207,-89.5001 882.207,-82.5001"/>
</g>
<!-- Node8 -->
<g id="node8" class="node"><title>Node8</title>
<g id="a_node8"><a xlink:href="../../d2/db8/class_menu.html#a3c99ad09e9f2f975c1a0d0597642651a" target="_top" xlink:title="Menu.init">
<polygon fill="white" stroke="black" points="1022,-76.5 1022,-95.5 1082,-95.5 1082,-76.5 1022,-76.5"/>
<text text-anchor="middle" x="1052" y="-83.5" font-family="Helvetica,sans-Serif" font-size="10.00">Menu.init</text>
</a>
</g>
</g>
<!-- Node7&#45;&gt;Node8 -->
<g id="edge7" class="edge"><title>Node7&#45;&gt;Node8</title>
<path fill="none" stroke="midnightblue" d="M996.034,-86C1004.89,-86 1013.87,-86 1021.95,-86"/>
<polygon fill="midnightblue" stroke="midnightblue" points="995.769,-82.5001 985.769,-86 995.768,-89.5001 995.769,-82.5001"/>
</g>
<!-- Node9 -->
<g id="node9" class="node"><title>Node9</title>
<g id="a_node9"><a xlink:href="../../d1/de1/class_end_screen.html#a1264ffb72b3a3032443f9c4087222aef" target="_top" xlink:title="EndScreen.init">
<polygon fill="white" stroke="black" points="1120,-114.5 1120,-133.5 1206,-133.5 1206,-114.5 1120,-114.5"/>
<text text-anchor="middle" x="1163" y="-121.5" font-family="Helvetica,sans-Serif" font-size="10.00">EndScreen.init</text>
</a>
</g>
</g>
<!-- Node8&#45;&gt;Node9 -->
<g id="edge8" class="edge"><title>Node8&#45;&gt;Node9</title>
<path fill="none" stroke="midnightblue" d="M1090.21,-98.9718C1104.73,-104.034 1121.08,-109.734 1134.5,-114.414"/>
<polygon fill="midnightblue" stroke="midnightblue" points="1091.1,-95.5761 1080.51,-95.589 1088.8,-102.186 1091.1,-95.5761"/>
</g>
<!-- Node12 -->
<g id="node12" class="node"><title>Node12</title>
<g id="a_node12"><a xlink:href="../../d4/d2f/class_lose_screen.html#a34f2cc2c803500316c9b8d854854d758" target="_top" xlink:title="LoseScreen.init">
<polygon fill="white" stroke="black" points="1118,-76.5 1118,-95.5 1208,-95.5 1208,-76.5 1118,-76.5"/>
<text text-anchor="middle" x="1163" y="-83.5" font-family="Helvetica,sans-Serif" font-size="10.00">LoseScreen.init</text>
</a>
</g>
</g>
<!-- Node8&#45;&gt;Node12 -->
<g id="edge11" class="edge"><title>Node8&#45;&gt;Node12</title>
<path fill="none" stroke="midnightblue" d="M1092.38,-86C1100.68,-86 1109.48,-86 1117.94,-86"/>
<polygon fill="midnightblue" stroke="midnightblue" points="1092.21,-82.5001 1082.21,-86 1092.21,-89.5001 1092.21,-82.5001"/>
</g>
<!-- Node14 -->
<g id="node14" class="node"><title>Node14</title>
<g id="a_node14"><a xlink:href="../../d0/d4b/class_main.html#a7595d13c514a02c35aca322dd91d2063" target="_top" xlink:title="Main.start">
<polygon fill="white" stroke="black" points="1130.5,-38.5 1130.5,-57.5 1195.5,-57.5 1195.5,-38.5 1130.5,-38.5"/>
<text text-anchor="middle" x="1163" y="-45.5" font-family="Helvetica,sans-Serif" font-size="10.00">Main.start</text>
</a>
</g>
</g>
<!-- Node8&#45;&gt;Node14 -->
<g id="edge14" class="edge"><title>Node8&#45;&gt;Node14</title>
<path fill="none" stroke="midnightblue" d="M1090.21,-73.0282C1104.73,-67.9656 1121.08,-62.2659 1134.5,-57.5859"/>
<polygon fill="midnightblue" stroke="midnightblue" points="1088.8,-69.8141 1080.51,-76.411 1091.1,-76.4239 1088.8,-69.8141"/>
</g>
<!-- Node10 -->
<g id="node10" class="node"><title>Node10</title>
<g id="a_node10"><a xlink:href="../../d6/d4f/class_item_box_world.html#a2ed12a6b39993faedc05cc682204476d" target="_top" xlink:title="ItemBoxWorld.winLevel">
<polygon fill="white" stroke="black" points="1244.5,-114.5 1244.5,-133.5 1369.5,-133.5 1369.5,-114.5 1244.5,-114.5"/>
<text text-anchor="middle" x="1307" y="-121.5" font-family="Helvetica,sans-Serif" font-size="10.00">ItemBoxWorld.winLevel</text>
</a>
</g>
</g>
<!-- Node9&#45;&gt;Node10 -->
<g id="edge9" class="edge"><title>Node9&#45;&gt;Node10</title>
<path fill="none" stroke="midnightblue" d="M1216.34,-124C1225.5,-124 1235.11,-124 1244.5,-124"/>
<polygon fill="midnightblue" stroke="midnightblue" points="1216.22,-120.5 1206.22,-124 1216.22,-127.5 1216.22,-120.5"/>
</g>
<!-- Node11 -->
<g id="node11" class="node"><title>Node11</title>
<g id="a_node11"><a xlink:href="../../d6/d4f/class_item_box_world.html#ae442d947b4dafc944336ee27628d2175" target="_top" xlink:title="ItemBoxWorld.handleKeyInput">
<polygon fill="white" stroke="black" points="1406,-114.5 1406,-133.5 1564,-133.5 1564,-114.5 1406,-114.5"/>
<text text-anchor="middle" x="1485" y="-121.5" font-family="Helvetica,sans-Serif" font-size="10.00">ItemBoxWorld.handleKeyInput</text>
</a>
</g>
</g>
<!-- Node10&#45;&gt;Node11 -->
<g id="edge10" class="edge"><title>Node10&#45;&gt;Node11</title>
<path fill="none" stroke="midnightblue" d="M1379.57,-124C1388.2,-124 1397.05,-124 1405.77,-124"/>
<polygon fill="midnightblue" stroke="midnightblue" points="1379.56,-120.5 1369.56,-124 1379.56,-127.5 1379.56,-120.5"/>
</g>
<!-- Node13 -->
<g id="node13" class="node"><title>Node13</title>
<g id="a_node13"><a xlink:href="../../db/d97/class_box_world.html#a72bacb2a6757900d8835249929fcc838" target="_top" xlink:title="BoxWorld.loseGame">
<polygon fill="white" stroke="black" points="1251,-38.5 1251,-57.5 1363,-57.5 1363,-38.5 1251,-38.5"/>
<text text-anchor="middle" x="1307" y="-45.5" font-family="Helvetica,sans-Serif" font-size="10.00">BoxWorld.loseGame</text>
</a>
</g>
</g>
<!-- Node12&#45;&gt;Node13 -->
<g id="edge12" class="edge"><title>Node12&#45;&gt;Node13</title>
<path fill="none" stroke="midnightblue" d="M1209.49,-73.8258C1229.13,-68.5713 1251.77,-62.5134 1270.18,-57.5859"/>
<polygon fill="midnightblue" stroke="midnightblue" points="1208.59,-70.4448 1199.83,-76.411 1210.4,-77.2069 1208.59,-70.4448"/>
</g>
<!-- Node13&#45;&gt;Node4 -->
<g id="edge13" class="edge"><title>Node13&#45;&gt;Node4</title>
<path fill="none" stroke="midnightblue" d="M1256.8,-36.167C1206.05,-25.0138 1124.47,-10 1053,-10 828,-10 828,-10 828,-10 732.227,-10 621.368,-27.2037 559.084,-38.46"/>
<polygon fill="midnightblue" stroke="midnightblue" points="1256.31,-39.6443 1266.83,-38.411 1257.84,-32.813 1256.31,-39.6443"/>
</g>
<!-- Node15&#45;&gt;Node1 -->
<g id="edge17" class="edge"><title>Node15&#45;&gt;Node1</title>
<path fill="none" stroke="midnightblue" d="M430.599,-16.0128C390.4,-19.3695 340.506,-23.8999 296,-29 235.365,-35.9483 220.191,-37.9082 160,-48 143.245,-50.8092 124.943,-54.2871 108.795,-57.4964"/>
<polygon fill="midnightblue" stroke="midnightblue" points="430.924,-19.498 440.602,-15.1851 430.347,-12.5218 430.924,-19.498"/>
</g>
</g>
</svg>
