<?xml version="1.0" encoding="UTF-8" standalone="no"?>
<!DOCTYPE svg PUBLIC "-//W3C//DTD SVG 1.1//EN"
 "http://www.w3.org/Graphics/SVG/1.1/DTD/svg11.dtd">
<!-- Generated by graphviz version 2.36.0 (20140111.2315)
 -->
<!-- Title: BoxWorld.onScreen Pages: 1 -->
<svg width="1890pt" height="132pt"
 viewBox="0.00 0.00 1890.00 132.00" xmlns="http://www.w3.org/2000/svg" xmlns:xlink="http://www.w3.org/1999/xlink">
<g id="graph0" class="graph" transform="scale(1 1) rotate(0) translate(4 128)">
<title>BoxWorld.onScreen</title>
<polygon fill="white" stroke="none" points="-4,4 -4,-128 1886,-128 1886,4 -4,4"/>
<!-- Node1 -->
<g id="node1" class="node"><title>Node1</title>
<polygon fill="#bfbfbf" stroke="black" points="0.5,-47.5 0.5,-66.5 109.5,-66.5 109.5,-47.5 0.5,-47.5"/>
<text text-anchor="middle" x="55" y="-54.5" font-family="Helvetica,sans-Serif" font-size="10.00">BoxWorld.onScreen</text>
</g>
<!-- Node2 -->
<g id="node2" class="node"><title>Node2</title>
<g id="a_node2"><a xlink:href="../../db/d97/class_box_world.html#a4079bed8937c9f621decfbe1309e31e2" target="_top" xlink:title="BoxWorld.checkAllCollisions">
<polygon fill="white" stroke="black" points="146,-47.5 146,-66.5 292,-66.5 292,-47.5 146,-47.5"/>
<text text-anchor="middle" x="219" y="-54.5" font-family="Helvetica,sans-Serif" font-size="10.00">BoxWorld.checkAllCollisions</text>
</a>
</g>
</g>
<!-- Node1&#45;&gt;Node2 -->
<g id="edge1" class="edge"><title>Node1&#45;&gt;Node2</title>
<path fill="none" stroke="midnightblue" d="M120.101,-57C128.554,-57 137.264,-57 145.841,-57"/>
<polygon fill="midnightblue" stroke="midnightblue" points="119.944,-53.5001 109.944,-57 119.944,-60.5001 119.944,-53.5001"/>
</g>
<!-- Node3 -->
<g id="node3" class="node"><title>Node3</title>
<g id="a_node3"><a xlink:href="../../db/d97/class_box_world.html#a6794c083c2a0263c2f585f4ae4b7e39c" target="_top" xlink:title="BoxWorld.updateSprites">
<polygon fill="white" stroke="black" points="328.5,-47.5 328.5,-66.5 459.5,-66.5 459.5,-47.5 328.5,-47.5"/>
<text text-anchor="middle" x="394" y="-54.5" font-family="Helvetica,sans-Serif" font-size="10.00">BoxWorld.updateSprites</text>
</a>
</g>
</g>
<!-- Node2&#45;&gt;Node3 -->
<g id="edge2" class="edge"><title>Node2&#45;&gt;Node3</title>
<path fill="none" stroke="midnightblue" d="M302.354,-57C311.116,-57 319.936,-57 328.451,-57"/>
<polygon fill="midnightblue" stroke="midnightblue" points="302.115,-53.5001 292.115,-57 302.115,-60.5001 302.115,-53.5001"/>
</g>
<!-- Node4 -->
<g id="node4" class="node"><title>Node4</title>
<g id="a_node4"><a xlink:href="../../db/d97/class_box_world.html#ad20a4e43406c44f4bbf201d1d1028998" target="_top" xlink:title="BoxWorld.start">
<polygon fill="white" stroke="black" points="496,-47.5 496,-66.5 582,-66.5 582,-47.5 496,-47.5"/>
<text text-anchor="middle" x="539" y="-54.5" font-family="Helvetica,sans-Serif" font-size="10.00">BoxWorld.start</text>
</a>
</g>
</g>
<!-- Node3&#45;&gt;Node4 -->
<g id="edge3" class="edge"><title>Node3&#45;&gt;Node4</title>
<path fill="none" stroke="midnightblue" d="M469.898,-57C478.837,-57 487.705,-57 495.941,-57"/>
<polygon fill="midnightblue" stroke="midnightblue" points="469.806,-53.5001 459.806,-57 469.806,-60.5001 469.806,-53.5001"/>
</g>
<!-- Node5 -->
<g id="node5" class="node"><title>Node5</title>
<g id="a_node5"><a xlink:href="../../db/d97/class_box_world.html#a55bf92d3f466bfaade0f6d199d8c9bd9" target="_top" xlink:title="BoxWorld.init">
<polygon fill="white" stroke="black" points="1226.5,-66.5 1226.5,-85.5 1303.5,-85.5 1303.5,-66.5 1226.5,-66.5"/>
<text text-anchor="middle" x="1265" y="-73.5" font-family="Helvetica,sans-Serif" font-size="10.00">BoxWorld.init</text>
</a>
</g>
</g>
<!-- Node4&#45;&gt;Node5 -->
<g id="edge4" class="edge"><title>Node4&#45;&gt;Node5</title>
<path fill="none" stroke="midnightblue" d="M592.401,-51.0209C645.802,-45.4509 731.056,-38 805,-38 805,-38 805,-38 963,-38 1064.24,-38 1090.17,-40.1295 1190,-57 1203.86,-59.3429 1218.93,-63.003 1231.83,-66.488"/>
<polygon fill="midnightblue" stroke="midnightblue" points="591.733,-47.572 582.158,-52.107 592.471,-54.5329 591.733,-47.572"/>
</g>
<!-- Node13 -->
<g id="node13" class="node"><title>Node13</title>
<g id="a_node13"><a xlink:href="../../d6/d4f/class_item_box_world.html#aa559fc2680327b41fb376e2eda8e82e3" target="_top" xlink:title="ItemBoxWorld.init">
<polygon fill="white" stroke="black" points="618.5,-66.5 618.5,-85.5 717.5,-85.5 717.5,-66.5 618.5,-66.5"/>
<text text-anchor="middle" x="668" y="-73.5" font-family="Helvetica,sans-Serif" font-size="10.00">ItemBoxWorld.init</text>
</a>
</g>
</g>
<!-- Node4&#45;&gt;Node13 -->
<g id="edge13" class="edge"><title>Node4&#45;&gt;Node13</title>
<path fill="none" stroke="midnightblue" d="M592.241,-64.8156C600.865,-66.1058 609.775,-67.4388 618.307,-68.7152"/>
<polygon fill="midnightblue" stroke="midnightblue" points="592.697,-61.3449 582.289,-63.3267 591.661,-68.2679 592.697,-61.3449"/>
</g>
<!-- Node6 -->
<g id="node6" class="node"><title>Node6</title>
<g id="a_node6"><a xlink:href="../../d2/db8/class_menu.html#a3c99ad09e9f2f975c1a0d0597642651a" target="_top" xlink:title="Menu.init">
<polygon fill="white" stroke="black" points="1340,-66.5 1340,-85.5 1400,-85.5 1400,-66.5 1340,-66.5"/>
<text text-anchor="middle" x="1370" y="-73.5" font-family="Helvetica,sans-Serif" font-size="10.00">Menu.init</text>
</a>
</g>
</g>
<!-- Node5&#45;&gt;Node6 -->
<g id="edge5" class="edge"><title>Node5&#45;&gt;Node6</title>
<path fill="none" stroke="midnightblue" d="M1314.03,-76C1322.89,-76 1331.87,-76 1339.95,-76"/>
<polygon fill="midnightblue" stroke="midnightblue" points="1313.77,-72.5001 1303.77,-76 1313.77,-79.5001 1313.77,-72.5001"/>
</g>
<!-- Node7 -->
<g id="node7" class="node"><title>Node7</title>
<g id="a_node7"><a xlink:href="../../d1/de1/class_end_screen.html#a1264ffb72b3a3032443f9c4087222aef" target="_top" xlink:title="EndScreen.init">
<polygon fill="white" stroke="black" points="1438,-66.5 1438,-85.5 1524,-85.5 1524,-66.5 1438,-66.5"/>
<text text-anchor="middle" x="1481" y="-73.5" font-family="Helvetica,sans-Serif" font-size="10.00">EndScreen.init</text>
</a>
</g>
</g>
<!-- Node6&#45;&gt;Node7 -->
<g id="edge6" class="edge"><title>Node6&#45;&gt;Node7</title>
<path fill="none" stroke="midnightblue" d="M1410.29,-76C1419.15,-76 1428.6,-76 1437.59,-76"/>
<polygon fill="midnightblue" stroke="midnightblue" points="1410.21,-72.5001 1400.21,-76 1410.21,-79.5001 1410.21,-72.5001"/>
</g>
<!-- Node10 -->
<g id="node10" class="node"><title>Node10</title>
<g id="a_node10"><a xlink:href="../../d4/d2f/class_lose_screen.html#a34f2cc2c803500316c9b8d854854d758" target="_top" xlink:title="LoseScreen.init">
<polygon fill="white" stroke="black" points="1436,-28.5 1436,-47.5 1526,-47.5 1526,-28.5 1436,-28.5"/>
<text text-anchor="middle" x="1481" y="-35.5" font-family="Helvetica,sans-Serif" font-size="10.00">LoseScreen.init</text>
</a>
</g>
</g>
<!-- Node6&#45;&gt;Node10 -->
<g id="edge9" class="edge"><title>Node6&#45;&gt;Node10</title>
<path fill="none" stroke="midnightblue" d="M1408.21,-63.0282C1422.73,-57.9656 1439.08,-52.2659 1452.5,-47.5859"/>
<polygon fill="midnightblue" stroke="midnightblue" points="1406.8,-59.8141 1398.51,-66.411 1409.1,-66.4239 1406.8,-59.8141"/>
</g>
<!-- Node12 -->
<g id="node12" class="node"><title>Node12</title>
<g id="a_node12"><a xlink:href="../../d0/d4b/class_main.html#a7595d13c514a02c35aca322dd91d2063" target="_top" xlink:title="Main.start">
<polygon fill="white" stroke="black" points="1448.5,-104.5 1448.5,-123.5 1513.5,-123.5 1513.5,-104.5 1448.5,-104.5"/>
<text text-anchor="middle" x="1481" y="-111.5" font-family="Helvetica,sans-Serif" font-size="10.00">Main.start</text>
</a>
</g>
</g>
<!-- Node6&#45;&gt;Node12 -->
<g id="edge12" class="edge"><title>Node6&#45;&gt;Node12</title>
<path fill="none" stroke="midnightblue" d="M1408.21,-88.9718C1422.73,-94.0344 1439.08,-99.7341 1452.5,-104.414"/>
<polygon fill="midnightblue" stroke="midnightblue" points="1409.1,-85.5761 1398.51,-85.589 1406.8,-92.1859 1409.1,-85.5761"/>
</g>
<!-- Node8 -->
<g id="node8" class="node"><title>Node8</title>
<g id="a_node8"><a xlink:href="../../d6/d4f/class_item_box_world.html#a2ed12a6b39993faedc05cc682204476d" target="_top" xlink:title="ItemBoxWorld.winLevel">
<polygon fill="white" stroke="black" points="1562.5,-66.5 1562.5,-85.5 1687.5,-85.5 1687.5,-66.5 1562.5,-66.5"/>
<text text-anchor="middle" x="1625" y="-73.5" font-family="Helvetica,sans-Serif" font-size="10.00">ItemBoxWorld.winLevel</text>
</a>
</g>
</g>
<!-- Node7&#45;&gt;Node8 -->
<g id="edge7" class="edge"><title>Node7&#45;&gt;Node8</title>
<path fill="none" stroke="midnightblue" d="M1534.34,-76C1543.5,-76 1553.11,-76 1562.5,-76"/>
<polygon fill="midnightblue" stroke="midnightblue" points="1534.22,-72.5001 1524.22,-76 1534.22,-79.5001 1534.22,-72.5001"/>
</g>
<!-- Node9 -->
<g id="node9" class="node"><title>Node9</title>
<g id="a_node9"><a xlink:href="../../d6/d4f/class_item_box_world.html#ae442d947b4dafc944336ee27628d2175" target="_top" xlink:title="ItemBoxWorld.handleKeyInput">
<polygon fill="white" stroke="black" points="1724,-66.5 1724,-85.5 1882,-85.5 1882,-66.5 1724,-66.5"/>
<text text-anchor="middle" x="1803" y="-73.5" font-family="Helvetica,sans-Serif" font-size="10.00">ItemBoxWorld.handleKeyInput</text>
</a>
</g>
</g>
<!-- Node8&#45;&gt;Node9 -->
<g id="edge8" class="edge"><title>Node8&#45;&gt;Node9</title>
<path fill="none" stroke="midnightblue" d="M1697.57,-76C1706.2,-76 1715.05,-76 1723.77,-76"/>
<polygon fill="midnightblue" stroke="midnightblue" points="1697.56,-72.5001 1687.56,-76 1697.56,-79.5001 1697.56,-72.5001"/>
</g>
<!-- Node11 -->
<g id="node11" class="node"><title>Node11</title>
<g id="a_node11"><a xlink:href="../../db/d97/class_box_world.html#a72bacb2a6757900d8835249929fcc838" target="_top" xlink:title="BoxWorld.loseGame">
<polygon fill="white" stroke="black" points="1569,-9.5 1569,-28.5 1681,-28.5 1681,-9.5 1569,-9.5"/>
<text text-anchor="middle" x="1625" y="-16.5" font-family="Helvetica,sans-Serif" font-size="10.00">BoxWorld.loseGame</text>
</a>
</g>
</g>
<!-- Node10&#45;&gt;Node11 -->
<g id="edge10" class="edge"><title>Node10&#45;&gt;Node11</title>
<path fill="none" stroke="midnightblue" d="M1536.2,-30.7473C1546.9,-29.3165 1558.13,-27.8135 1568.85,-26.3786"/>
<polygon fill="midnightblue" stroke="midnightblue" points="1535.6,-27.2971 1526.15,-32.0924 1536.53,-34.2352 1535.6,-27.2971"/>
</g>
<!-- Node11&#45;&gt;Node2 -->
<g id="edge11" class="edge"><title>Node11&#45;&gt;Node2</title>
<path fill="none" stroke="midnightblue" d="M1558.59,-11.3825C1507.56,-6.09633 1434.87,-0 1371,-0 538,-0 538,-0 538,-0 431.713,-0 308.533,-31.233 251.71,-47.4595"/>
<polygon fill="midnightblue" stroke="midnightblue" points="1558.5,-14.8929 1568.81,-12.4613 1559.24,-7.93152 1558.5,-14.8929"/>
</g>
<!-- Node14 -->
<g id="node14" class="node"><title>Node14</title>
<g id="a_node14"><a xlink:href="../../db/d97/class_box_world.html#aad670712776afe126e51791097027e05" target="_top" xlink:title="BoxWorld.winLevel">
<polygon fill="white" stroke="black" points="754.5,-104.5 754.5,-123.5 857.5,-123.5 857.5,-104.5 754.5,-104.5"/>
<text text-anchor="middle" x="806" y="-111.5" font-family="Helvetica,sans-Serif" font-size="10.00">BoxWorld.winLevel</text>
</a>
</g>
</g>
<!-- Node13&#45;&gt;Node14 -->
<g id="edge14" class="edge"><title>Node13&#45;&gt;Node14</title>
<path fill="none" stroke="midnightblue" d="M713.087,-88.3183C731.772,-93.5393 753.218,-99.5316 770.692,-104.414"/>
<polygon fill="midnightblue" stroke="midnightblue" points="713.892,-84.9092 703.319,-85.589 712.008,-91.651 713.892,-84.9092"/>
</g>
<!-- Node14&#45;&gt;Node2 -->
<g id="edge15" class="edge"><title>Node14&#45;&gt;Node2</title>
<path fill="none" stroke="midnightblue" d="M744.245,-111.006C653.422,-106.113 476.979,-94.9955 328,-76 308.454,-73.5078 287.059,-69.9251 268.506,-66.5411"/>
<polygon fill="midnightblue" stroke="midnightblue" points="744.186,-114.508 754.358,-111.544 744.558,-107.517 744.186,-114.508"/>
</g>
<!-- Node15 -->
<g id="node15" class="node"><title>Node15</title>
<g id="a_node15"><a xlink:href="../../db/d97/class_box_world.html#aa7e2049d7be23e15fd2ec7fa2922ed79" target="_top" xlink:title="BoxWorld.handleKeyInput">
<polygon fill="white" stroke="black" points="894,-104.5 894,-123.5 1030,-123.5 1030,-104.5 894,-104.5"/>
<text text-anchor="middle" x="962" y="-111.5" font-family="Helvetica,sans-Serif" font-size="10.00">BoxWorld.handleKeyInput</text>
</a>
</g>
</g>
<!-- Node14&#45;&gt;Node15 -->
<g id="edge16" class="edge"><title>Node14&#45;&gt;Node15</title>
<path fill="none" stroke="midnightblue" d="M868.075,-114C876.591,-114 885.378,-114 893.996,-114"/>
<polygon fill="midnightblue" stroke="midnightblue" points="867.852,-110.5 857.852,-114 867.852,-117.5 867.852,-110.5"/>
</g>
<!-- Node16 -->
<g id="node16" class="node"><title>Node16</title>
<g id="a_node16"><a xlink:href="../../db/d97/class_box_world.html#a726e747e023543658d7a345cc6466ccb" target="_top" xlink:title="BoxWorld.createScene">
<polygon fill="white" stroke="black" points="1066,-66.5 1066,-85.5 1190,-85.5 1190,-66.5 1066,-66.5"/>
<text text-anchor="middle" x="1128" y="-73.5" font-family="Helvetica,sans-Serif" font-size="10.00">BoxWorld.createScene</text>
</a>
</g>
</g>
<!-- Node15&#45;&gt;Node16 -->
<g id="edge17" class="edge"><title>Node15&#45;&gt;Node16</title>
<path fill="none" stroke="midnightblue" d="M1014.34,-102.104C1037.39,-96.7626 1064.22,-90.5463 1085.91,-85.5201"/>
<polygon fill="midnightblue" stroke="midnightblue" points="1013.34,-98.744 1004.38,-104.411 1014.92,-105.563 1013.34,-98.744"/>
</g>
<!-- Node16&#45;&gt;Node5 -->
<g id="edge19" class="edge"><title>Node16&#45;&gt;Node5</title>
<path fill="none" stroke="midnightblue" d="M1200.28,-76C1209.23,-76 1218.08,-76 1226.22,-76"/>
<polygon fill="midnightblue" stroke="midnightblue" points="1200.18,-72.5001 1190.18,-76 1200.18,-79.5001 1200.18,-72.5001"/>
</g>
<!-- Node16&#45;&gt;Node13 -->
<g id="edge18" class="edge"><title>Node16&#45;&gt;Node13</title>
<path fill="none" stroke="midnightblue" d="M1055.63,-76C961.569,-76 798.574,-76 717.58,-76"/>
<polygon fill="midnightblue" stroke="midnightblue" points="1055.91,-79.5001 1065.91,-76 1055.91,-72.5001 1055.91,-79.5001"/>
</g>
</g>
</svg>
