<?xml version="1.0" encoding="UTF-8" standalone="no"?>
<!DOCTYPE svg PUBLIC "-//W3C//DTD SVG 1.1//EN"
 "http://www.w3.org/Graphics/SVG/1.1/DTD/svg11.dtd">
<!-- Generated by graphviz version 2.36.0 (20140111.2315)
 -->
<!-- Title: BoxWorld.init Pages: 1 -->
<!--zoomable 588 -->
<svg id="main" version="1.1" xmlns="http://www.w3.org/2000/svg" xmlns:xlink="http://www.w3.org/1999/xlink" xml:space="preserve" onload="init(evt)">
<style type="text/css"><![CDATA[
.edge:hover path { stroke: red; }
.edge:hover polygon { stroke: red; fill: red; }
]]></style>
<script type="text/javascript"><![CDATA[
var edges = document.getElementsByTagName('g');
if (edges && edges.length) {
  for (var i=0;i<edges.length;i++) {
    if (edges[i].id.substr(0,4)=='edge') {
      edges[i].setAttribute('class','edge');
    }
  }
}
]]></script>
        <defs>
                <circle id="rim" cx="0" cy="0" r="7"/>
                <circle id="rim2" cx="0" cy="0" r="3.5"/>
                <g id="zoomPlus">
                        <use xlink:href="#rim" fill="#404040">
                                <set attributeName="fill" to="#808080" begin="zoomplus.mouseover" end="zoomplus.mouseout"/>
                        </use>
                        <path d="M-4,0h8M0,-4v8" fill="none" stroke="white" stroke-width="1.5" pointer-events="none"/>
                </g>
                <g id="zoomMin">
                        <use xlink:href="#rim" fill="#404040">
                                <set attributeName="fill" to="#808080" begin="zoomminus.mouseover" end="zoomminus.mouseout"/>
                        </use>
                        <path d="M-4,0h8" fill="none" stroke="white" stroke-width="1.5" pointer-events="none"/>
                </g>
                <g id="dirArrow">
                        <path fill="none" stroke="white" stroke-width="1.5" d="M0,-3.0v7 M-2.5,-0.5L0,-3.0L2.5,-0.5"/>
                </g>
               <g id="resetDef">
                       <use xlink:href="#rim2" fill="#404040">
                               <set attributeName="fill" to="#808080" begin="reset.mouseover" end="reset.mouseout"/>
                       </use>
               </g>
        </defs>

<script type="text/javascript">
var viewWidth = 1904;
var viewHeight = 588;
var sectionId = 'dynsection-19';
</script>
<script xlink:href="../../svgpan.js"/>
<svg id="graph" class="graph">
<g id="viewport">
<title>BoxWorld.init</title>
<polygon fill="white" stroke="none" points="-4,4 -4,-584 1900,-584 1900,4 -4,4"/>
<!-- Node1 -->
<g id="node1" class="node"><title>Node1</title>
<polygon fill="#bfbfbf" stroke="black" points="0.5,-170.5 0.5,-189.5 77.5,-189.5 77.5,-170.5 0.5,-170.5"/>
<text text-anchor="middle" x="39" y="-177.5" font-family="Helvetica,sans-Serif" font-size="10.00">BoxWorld.init</text>
</g>
<!-- Node2 -->
<g id="node2" class="node"><title>Node2</title>
<g id="a_node2"><a xlink:href="../../db/d97/class_box_world.html#a69798621c944e846f045aaf3937505f9" target="_top" xlink:title="BoxWorld.addStarterObjects">
<polygon fill="white" stroke="black" points="752.5,-560.5 752.5,-579.5 903.5,-579.5 903.5,-560.5 752.5,-560.5"/>
<text text-anchor="middle" x="828" y="-567.5" font-family="Helvetica,sans-Serif" font-size="10.00">BoxWorld.addStarterObjects</text>
</a>
</g>
</g>
<!-- Node1&#45;&gt;Node2 -->
<g id="edge1" class="edge"><title>Node1&#45;&gt;Node2</title>
<path fill="none" stroke="midnightblue" d="M43.7201,-189.742C64.6566,-242.742 173.133,-494 348,-494 348,-494 348,-494 513,-494 615.298,-494 636.351,-527.874 736,-551 746.713,-553.486 758.17,-555.995 769.216,-558.338"/>
<polygon fill="midnightblue" stroke="midnightblue" points="768.706,-561.807 779.212,-560.438 770.145,-554.957 768.706,-561.807"/>
</g>
<!-- Node4 -->
<g id="node4" class="node"><title>Node4</title>
<g id="a_node4"><a xlink:href="../../db/d97/class_box_world.html#a726e747e023543658d7a345cc6466ccb" target="_top" xlink:title="BoxWorld.createScene">
<polygon fill="white" stroke="black" points="114,-199.5 114,-218.5 238,-218.5 238,-199.5 114,-199.5"/>
<text text-anchor="middle" x="176" y="-206.5" font-family="Helvetica,sans-Serif" font-size="10.00">BoxWorld.createScene</text>
</a>
</g>
</g>
<!-- Node1&#45;&gt;Node4 -->
<g id="edge3" class="edge"><title>Node1&#45;&gt;Node4</title>
<path fill="none" stroke="midnightblue" d="M77.605,-188.078C90.9169,-190.938 106.173,-194.215 120.599,-197.314"/>
<polygon fill="midnightblue" stroke="midnightblue" points="119.907,-200.745 130.419,-199.423 121.377,-193.901 119.907,-200.745"/>
</g>
<!-- Node24 -->
<g id="node24" class="node"><title>Node24</title>
<g id="a_node24"><a xlink:href="../../db/d97/class_box_world.html#ad20a4e43406c44f4bbf201d1d1028998" target="_top" xlink:title="BoxWorld.start">
<polygon fill="white" stroke="black" points="785,-142.5 785,-161.5 871,-161.5 871,-142.5 785,-142.5"/>
<text text-anchor="middle" x="828" y="-149.5" font-family="Helvetica,sans-Serif" font-size="10.00">BoxWorld.start</text>
</a>
</g>
</g>
<!-- Node1&#45;&gt;Node24 -->
<g id="edge49" class="edge"><title>Node1&#45;&gt;Node24</title>
<path fill="none" stroke="midnightblue" d="M77.8326,-174.334C135.832,-166.152 250.279,-152 348,-152 348,-152 348,-152 513,-152 604.986,-152 712.129,-152 774.485,-152"/>
<polygon fill="midnightblue" stroke="midnightblue" points="774.845,-155.5 784.845,-152 774.845,-148.5 774.845,-155.5"/>
</g>
<!-- Node3 -->
<g id="node3" class="node"><title>Node3</title>
<g id="a_node3"><a xlink:href="../../db/d97/class_box_world.html#a2542cc74ebeba6a9768a443a55186901" target="_top" xlink:title="BoxWorld.createObstacleArray">
<polygon fill="white" stroke="black" points="956.5,-560.5 956.5,-579.5 1117.5,-579.5 1117.5,-560.5 956.5,-560.5"/>
<text text-anchor="middle" x="1037" y="-567.5" font-family="Helvetica,sans-Serif" font-size="10.00">BoxWorld.createObstacleArray</text>
</a>
</g>
</g>
<!-- Node2&#45;&gt;Node3 -->
<g id="edge2" class="edge"><title>Node2&#45;&gt;Node3</title>
<path fill="none" stroke="midnightblue" d="M903.732,-570C917.524,-570 932.056,-570 946.237,-570"/>
<polygon fill="midnightblue" stroke="midnightblue" points="946.486,-573.5 956.486,-570 946.486,-566.5 946.486,-573.5"/>
</g>
<!-- Node5 -->
<g id="node5" class="node"><title>Node5</title>
<g id="a_node5"><a xlink:href="../../db/d97/class_box_world.html#aa7e2049d7be23e15fd2ec7fa2922ed79" target="_top" xlink:title="BoxWorld.handleKeyInput">
<polygon fill="white" stroke="black" points="281,-218.5 281,-237.5 417,-237.5 417,-218.5 281,-218.5"/>
<text text-anchor="middle" x="349" y="-225.5" font-family="Helvetica,sans-Serif" font-size="10.00">BoxWorld.handleKeyInput</text>
</a>
</g>
</g>
<!-- Node4&#45;&gt;Node5 -->
<g id="edge4" class="edge"><title>Node4&#45;&gt;Node5</title>
<path fill="none" stroke="midnightblue" d="M238.252,-215.806C248.818,-216.98 259.922,-218.214 270.843,-219.427"/>
<polygon fill="midnightblue" stroke="midnightblue" points="270.474,-222.907 280.8,-220.533 271.247,-215.95 270.474,-222.907"/>
</g>
<!-- Node37 -->
<g id="node37" class="node"><title>Node37</title>
<g id="a_node37"><a xlink:href="../../db/d97/class_box_world.html#a2d44485a181577acb4d79b6b81f26fff" target="_top" xlink:title="BoxWorld.handleKeyRelease">
<polygon fill="white" stroke="black" points="274.5,-180.5 274.5,-199.5 423.5,-199.5 423.5,-180.5 274.5,-180.5"/>
<text text-anchor="middle" x="349" y="-187.5" font-family="Helvetica,sans-Serif" font-size="10.00">BoxWorld.handleKeyRelease</text>
</a>
</g>
</g>
<!-- Node4&#45;&gt;Node37 -->
<g id="edge48" class="edge"><title>Node4&#45;&gt;Node37</title>
<path fill="none" stroke="midnightblue" d="M238.252,-202.194C246.655,-201.261 255.399,-200.289 264.121,-199.32"/>
<polygon fill="midnightblue" stroke="midnightblue" points="264.775,-202.769 274.327,-198.186 264.002,-195.812 264.775,-202.769"/>
</g>
<!-- Node6 -->
<g id="node6" class="node"><title>Node6</title>
<g id="a_node6"><a xlink:href="../../db/d97/class_box_world.html#adc4c9d78ffde3d052c4c92047eb98e55" target="_top" xlink:title="BoxWorld.allowMovement">
<polygon fill="white" stroke="black" points="1354.5,-294.5 1354.5,-313.5 1491.5,-313.5 1491.5,-294.5 1354.5,-294.5"/>
<text text-anchor="middle" x="1423" y="-301.5" font-family="Helvetica,sans-Serif" font-size="10.00">BoxWorld.allowMovement</text>
</a>
</g>
</g>
<!-- Node5&#45;&gt;Node6 -->
<g id="edge5" class="edge"><title>Node5&#45;&gt;Node6</title>
<path fill="none" stroke="midnightblue" d="M398.294,-237.544C417.437,-241.012 439.689,-244.652 460,-247 787.087,-284.819 1179.81,-298.177 1343.94,-302.333"/>
<polygon fill="midnightblue" stroke="midnightblue" points="1344.34,-305.843 1354.42,-302.593 1344.51,-298.846 1344.34,-305.843"/>
</g>
<!-- Node11 -->
<g id="node11" class="node"><title>Node11</title>
<g id="a_node11"><a xlink:href="../../db/d97/class_box_world.html#a04c6bf977c4292a5433649fb3745fd6b" target="_top" xlink:title="BoxWorld.reset">
<polygon fill="white" stroke="black" points="993,-66.5 993,-85.5 1081,-85.5 1081,-66.5 993,-66.5"/>
<text text-anchor="middle" x="1037" y="-73.5" font-family="Helvetica,sans-Serif" font-size="10.00">BoxWorld.reset</text>
</a>
</g>
</g>
<!-- Node5&#45;&gt;Node11 -->
<g id="edge10" class="edge"><title>Node5&#45;&gt;Node11</title>
<path fill="none" stroke="midnightblue" d="M387.651,-218.46C470.903,-197.412 668.569,-147.693 736,-133 822.059,-114.248 922.769,-95.8286 982.868,-85.2077"/>
<polygon fill="midnightblue" stroke="midnightblue" points="983.639,-88.6259 992.88,-83.4442 982.425,-81.732 983.639,-88.6259"/>
</g>
<!-- Node12 -->
<g id="node12" class="node"><title>Node12</title>
<g id="a_node12"><a xlink:href="../../da/de2/class_sticky_box.html#aa1bb8f78f676b01c688d75d386758444" target="_top" xlink:title="StickyBox.setDirection">
<polygon fill="white" stroke="black" points="1174,-28.5 1174,-47.5 1298,-47.5 1298,-28.5 1174,-28.5"/>
<text text-anchor="middle" x="1236" y="-35.5" font-family="Helvetica,sans-Serif" font-size="10.00">StickyBox.setDirection</text>
</a>
</g>
</g>
<!-- Node5&#45;&gt;Node12 -->
<g id="edge13" class="edge"><title>Node5&#45;&gt;Node12</title>
<path fill="none" stroke="midnightblue" d="M402.861,-218.433C410.24,-215.969 417.509,-212.876 424,-209 444.253,-196.905 442.227,-185.51 460,-170 537.196,-102.632 546.541,-38 649,-38 649,-38 649,-38 829,-38 946.277,-38 1082.61,-38 1163.69,-38"/>
<polygon fill="midnightblue" stroke="midnightblue" points="1163.78,-41.5001 1173.78,-38 1163.78,-34.5001 1163.78,-41.5001"/>
</g>
<!-- Node14 -->
<g id="node14" class="node"><title>Node14</title>
<g id="a_node14"><a xlink:href="../../db/d97/class_box_world.html#aad670712776afe126e51791097027e05" target="_top" xlink:title="BoxWorld.winLevel">
<polygon fill="white" stroke="black" points="460.5,-218.5 460.5,-237.5 563.5,-237.5 563.5,-218.5 460.5,-218.5"/>
<text text-anchor="middle" x="512" y="-225.5" font-family="Helvetica,sans-Serif" font-size="10.00">BoxWorld.winLevel</text>
</a>
</g>
</g>
<!-- Node5&#45;&gt;Node14 -->
<g id="edge14" class="edge"><title>Node5&#45;&gt;Node14</title>
<path fill="none" stroke="midnightblue" d="M417.346,-228C428.185,-228 439.352,-228 450.031,-228"/>
<polygon fill="midnightblue" stroke="midnightblue" points="450.093,-231.5 460.093,-228 450.093,-224.5 450.093,-231.5"/>
</g>
<!-- Node7 -->
<g id="node7" class="node"><title>Node7</title>
<g id="a_node7"><a xlink:href="../../da/de2/class_sticky_box.html#a6ba3f89630df9d81df5644a3e5f4e387" target="_top" xlink:title="StickyBox.getXDirection">
<polygon fill="white" stroke="black" points="1528.5,-218.5 1528.5,-237.5 1659.5,-237.5 1659.5,-218.5 1528.5,-218.5"/>
<text text-anchor="middle" x="1594" y="-225.5" font-family="Helvetica,sans-Serif" font-size="10.00">StickyBox.getXDirection</text>
</a>
</g>
</g>
<!-- Node6&#45;&gt;Node7 -->
<g id="edge6" class="edge"><title>Node6&#45;&gt;Node7</title>
<path fill="none" stroke="midnightblue" d="M1438.99,-294.424C1458.75,-282.119 1494.9,-260.716 1528,-247 1533.5,-244.722 1539.36,-242.602 1545.23,-240.667"/>
<polygon fill="midnightblue" stroke="midnightblue" points="1546.56,-243.919 1555.05,-237.589 1544.47,-237.239 1546.56,-243.919"/>
</g>
<!-- Node8 -->
<g id="node8" class="node"><title>Node8</title>
<g id="a_node8"><a xlink:href="../../da/de2/class_sticky_box.html#ab0bd7cafb7f243e3951558ddb8728b96" target="_top" xlink:title="StickyBox.getXPrev">
<polygon fill="white" stroke="black" points="1539.5,-332.5 1539.5,-351.5 1648.5,-351.5 1648.5,-332.5 1539.5,-332.5"/>
<text text-anchor="middle" x="1594" y="-339.5" font-family="Helvetica,sans-Serif" font-size="10.00">StickyBox.getXPrev</text>
</a>
</g>
</g>
<!-- Node6&#45;&gt;Node8 -->
<g id="edge7" class="edge"><title>Node6&#45;&gt;Node8</title>
<path fill="none" stroke="midnightblue" d="M1466.65,-313.589C1489.15,-318.649 1516.95,-324.9 1540.74,-330.249"/>
<polygon fill="midnightblue" stroke="midnightblue" points="1540.14,-333.701 1550.66,-332.48 1541.67,-326.871 1540.14,-333.701"/>
</g>
<!-- Node9 -->
<g id="node9" class="node"><title>Node9</title>
<g id="a_node9"><a xlink:href="../../da/de2/class_sticky_box.html#a69e5ccf2a79159c03dea2e048df13318" target="_top" xlink:title="StickyBox.getYDirection">
<polygon fill="white" stroke="black" points="1529,-256.5 1529,-275.5 1659,-275.5 1659,-256.5 1529,-256.5"/>
<text text-anchor="middle" x="1594" y="-263.5" font-family="Helvetica,sans-Serif" font-size="10.00">StickyBox.getYDirection</text>
</a>
</g>
</g>
<!-- Node6&#45;&gt;Node9 -->
<g id="edge8" class="edge"><title>Node6&#45;&gt;Node9</title>
<path fill="none" stroke="midnightblue" d="M1466.65,-294.411C1489.15,-289.351 1516.95,-283.1 1540.74,-277.751"/>
<polygon fill="midnightblue" stroke="midnightblue" points="1541.67,-281.129 1550.66,-275.52 1540.14,-274.299 1541.67,-281.129"/>
</g>
<!-- Node10 -->
<g id="node10" class="node"><title>Node10</title>
<g id="a_node10"><a xlink:href="../../da/de2/class_sticky_box.html#a4c6abed944faed9d9b226079e99cfc24" target="_top" xlink:title="StickyBox.getYPrev">
<polygon fill="white" stroke="black" points="1540,-294.5 1540,-313.5 1648,-313.5 1648,-294.5 1540,-294.5"/>
<text text-anchor="middle" x="1594" y="-301.5" font-family="Helvetica,sans-Serif" font-size="10.00">StickyBox.getYPrev</text>
</a>
</g>
</g>
<!-- Node6&#45;&gt;Node10 -->
<g id="edge9" class="edge"><title>Node6&#45;&gt;Node10</title>
<path fill="none" stroke="midnightblue" d="M1491.76,-304C1504.25,-304 1517.24,-304 1529.59,-304"/>
<polygon fill="midnightblue" stroke="midnightblue" points="1529.78,-307.5 1539.78,-304 1529.78,-300.5 1529.78,-307.5"/>
</g>
<!-- Node11&#45;&gt;Node12 -->
<g id="edge11" class="edge"><title>Node11&#45;&gt;Node12</title>
<path fill="none" stroke="midnightblue" d="M1081.23,-67.6607C1108.91,-62.3218 1145.2,-55.3223 1175.57,-49.4637"/>
<polygon fill="midnightblue" stroke="midnightblue" points="1176.47,-52.8554 1185.62,-47.5246 1175.14,-45.9821 1176.47,-52.8554"/>
</g>
<!-- Node13 -->
<g id="node13" class="node"><title>Node13</title>
<g id="a_node13"><a xlink:href="../../da/de2/class_sticky_box.html#a5d95d2ed2e13f0d87a44311db77f9e36" target="_top" xlink:title="StickyBox.setPreviousDirection">
<polygon fill="white" stroke="black" points="1154,-66.5 1154,-85.5 1318,-85.5 1318,-66.5 1154,-66.5"/>
<text text-anchor="middle" x="1236" y="-73.5" font-family="Helvetica,sans-Serif" font-size="10.00">StickyBox.setPreviousDirection</text>
</a>
</g>
</g>
<!-- Node11&#45;&gt;Node13 -->
<g id="edge12" class="edge"><title>Node11&#45;&gt;Node13</title>
<path fill="none" stroke="midnightblue" d="M1081.23,-76C1099.61,-76 1121.79,-76 1143.52,-76"/>
<polygon fill="midnightblue" stroke="midnightblue" points="1143.78,-79.5001 1153.78,-76 1143.78,-72.5001 1143.78,-79.5001"/>
</g>
<!-- Node15 -->
<g id="node15" class="node"><title>Node15</title>
<g id="a_node15"><a xlink:href="../../d6/d4f/class_item_box_world.html#aa559fc2680327b41fb376e2eda8e82e3" target="_top" xlink:title="ItemBoxWorld.init">
<polygon fill="white" stroke="black" points="600.5,-370.5 600.5,-389.5 699.5,-389.5 699.5,-370.5 600.5,-370.5"/>
<text text-anchor="middle" x="650" y="-377.5" font-family="Helvetica,sans-Serif" font-size="10.00">ItemBoxWorld.init</text>
</a>
</g>
</g>
<!-- Node14&#45;&gt;Node15 -->
<g id="edge15" class="edge"><title>Node14&#45;&gt;Node15</title>
<path fill="none" stroke="midnightblue" d="M521.507,-237.508C543.928,-262.566 604.876,-330.684 633.614,-362.804"/>
<polygon fill="midnightblue" stroke="midnightblue" points="631.219,-365.377 640.496,-370.495 636.436,-360.709 631.219,-365.377"/>
</g>
<!-- Node15&#45;&gt;Node2 -->
<g id="edge20" class="edge"><title>Node15&#45;&gt;Node2</title>
<path fill="none" stroke="midnightblue" d="M655.701,-389.597C673.276,-425.457 734.204,-549.613 736,-551 738.335,-552.804 740.801,-554.446 743.366,-555.942"/>
<polygon fill="midnightblue" stroke="midnightblue" points="741.922,-559.133 752.43,-560.482 745.057,-552.874 741.922,-559.133"/>
</g>
<!-- Node15&#45;&gt;Node4 -->
<g id="edge47" class="edge"><title>Node15&#45;&gt;Node4</title>
<path fill="none" stroke="midnightblue" d="M621.132,-370.464C558.731,-349.035 403.116,-295.173 274,-247 252.741,-239.068 229.024,-229.785 210.363,-222.379"/>
<polygon fill="midnightblue" stroke="midnightblue" points="211.42,-219.033 200.835,-218.587 208.831,-225.537 211.42,-219.033"/>
</g>
<!-- Node16 -->
<g id="node16" class="node"><title>Node16</title>
<g id="a_node16"><a xlink:href="../../db/d97/class_box_world.html#a25c34c68bdd68debd7de01a4f3b98bb1" target="_top" xlink:title="BoxWorld.setStage">
<polygon fill="white" stroke="black" points="774.5,-522.5 774.5,-541.5 881.5,-541.5 881.5,-522.5 774.5,-522.5"/>
<text text-anchor="middle" x="828" y="-529.5" font-family="Helvetica,sans-Serif" font-size="10.00">BoxWorld.setStage</text>
</a>
</g>
</g>
<!-- Node15&#45;&gt;Node16 -->
<g id="edge16" class="edge"><title>Node15&#45;&gt;Node16</title>
<path fill="none" stroke="midnightblue" d="M654.144,-389.57C662.811,-414.356 689.537,-480.941 736,-513 744.369,-518.774 754.13,-522.858 764.091,-525.732"/>
<polygon fill="midnightblue" stroke="midnightblue" points="763.525,-529.198 774.075,-528.221 765.218,-522.406 763.525,-529.198"/>
</g>
<!-- Node17 -->
<g id="node17" class="node"><title>Node17</title>
<g id="a_node17"><a xlink:href="../../db/d97/class_box_world.html#a3735494d6eeffc036cd757eb21170eb0" target="_top" xlink:title="BoxWorld.setObstacleXCoordinates">
<polygon fill="white" stroke="black" points="736.5,-484.5 736.5,-503.5 919.5,-503.5 919.5,-484.5 736.5,-484.5"/>
<text text-anchor="middle" x="828" y="-491.5" font-family="Helvetica,sans-Serif" font-size="10.00">BoxWorld.setObstacleXCoordinates</text>
</a>
</g>
</g>
<!-- Node15&#45;&gt;Node17 -->
<g id="edge17" class="edge"><title>Node15&#45;&gt;Node17</title>
<path fill="none" stroke="midnightblue" d="M656.627,-389.637C668.563,-409.15 698.429,-453.32 736,-475 739.879,-477.238 743.987,-479.215 748.227,-480.96"/>
<polygon fill="midnightblue" stroke="midnightblue" points="747.093,-484.272 757.687,-484.422 749.499,-477.698 747.093,-484.272"/>
</g>
<!-- Node18 -->
<g id="node18" class="node"><title>Node18</title>
<g id="a_node18"><a xlink:href="../../db/d97/class_box_world.html#ab45827804913790744cdbaaf8a222256" target="_top" xlink:title="BoxWorld.setObstacleYCoordinates">
<polygon fill="white" stroke="black" points="737,-446.5 737,-465.5 919,-465.5 919,-446.5 737,-446.5"/>
<text text-anchor="middle" x="828" y="-453.5" font-family="Helvetica,sans-Serif" font-size="10.00">BoxWorld.setObstacleYCoordinates</text>
</a>
</g>
</g>
<!-- Node15&#45;&gt;Node18 -->
<g id="edge18" class="edge"><title>Node15&#45;&gt;Node18</title>
<path fill="none" stroke="midnightblue" d="M662.27,-389.667C677.809,-402.479 707.176,-424.872 736,-437 742.197,-439.607 748.786,-441.869 755.477,-443.829"/>
<polygon fill="midnightblue" stroke="midnightblue" points="754.751,-447.258 765.317,-446.489 756.577,-440.501 754.751,-447.258"/>
</g>
<!-- Node19 -->
<g id="node19" class="node"><title>Node19</title>
<g id="a_node19"><a xlink:href="../../db/d97/class_box_world.html#aeeaafc4ff103ded208e6c9393eb4ceca" target="_top" xlink:title="BoxWorld.setRoot">
<polygon fill="white" stroke="black" points="778.5,-408.5 778.5,-427.5 877.5,-427.5 877.5,-408.5 778.5,-408.5"/>
<text text-anchor="middle" x="828" y="-415.5" font-family="Helvetica,sans-Serif" font-size="10.00">BoxWorld.setRoot</text>
</a>
</g>
</g>
<!-- Node15&#45;&gt;Node19 -->
<g id="edge19" class="edge"><title>Node15&#45;&gt;Node19</title>
<path fill="none" stroke="midnightblue" d="M693.345,-389.589C706.956,-392.638 722.107,-395.997 736,-399 747.225,-401.426 759.24,-403.972 770.74,-406.382"/>
<polygon fill="midnightblue" stroke="midnightblue" points="770.175,-409.84 780.679,-408.46 771.607,-402.988 770.175,-409.84"/>
</g>
<!-- Node20 -->
<g id="node20" class="node"><title>Node20</title>
<g id="a_node20"><a xlink:href="../../d6/d4f/class_item_box_world.html#a7ead15fd9fd8095f928640161d48fdf8" target="_top" xlink:title="ItemBoxWorld.addAllItems">
<polygon fill="white" stroke="black" points="757.5,-370.5 757.5,-389.5 898.5,-389.5 898.5,-370.5 757.5,-370.5"/>
<text text-anchor="middle" x="828" y="-377.5" font-family="Helvetica,sans-Serif" font-size="10.00">ItemBoxWorld.addAllItems</text>
</a>
</g>
</g>
<!-- Node15&#45;&gt;Node20 -->
<g id="edge21" class="edge"><title>Node15&#45;&gt;Node20</title>
<path fill="none" stroke="midnightblue" d="M699.559,-380C714.304,-380 730.913,-380 747.148,-380"/>
<polygon fill="midnightblue" stroke="midnightblue" points="747.188,-383.5 757.188,-380 747.188,-376.5 747.188,-383.5"/>
</g>
<!-- Node15&#45;&gt;Node24 -->
<g id="edge26" class="edge"><title>Node15&#45;&gt;Node24</title>
<path fill="none" stroke="midnightblue" d="M658.338,-370.493C685.175,-335.728 778.246,-215.158 813.407,-169.609"/>
<polygon fill="midnightblue" stroke="midnightblue" points="816.29,-171.602 819.63,-161.547 810.749,-167.324 816.29,-171.602"/>
</g>
<!-- Node35 -->
<g id="node35" class="node"><title>Node35</title>
<g id="a_node35"><a xlink:href="../../db/d97/class_box_world.html#a8d7d9f1ae1ebcd87ff73c09780b70629" target="_top" xlink:title="BoxWorld.setAnimation">
<polygon fill="white" stroke="black" points="764.5,-332.5 764.5,-351.5 891.5,-351.5 891.5,-332.5 764.5,-332.5"/>
<text text-anchor="middle" x="828" y="-339.5" font-family="Helvetica,sans-Serif" font-size="10.00">BoxWorld.setAnimation</text>
</a>
</g>
</g>
<!-- Node15&#45;&gt;Node35 -->
<g id="edge45" class="edge"><title>Node15&#45;&gt;Node35</title>
<path fill="none" stroke="midnightblue" d="M693.345,-370.411C706.956,-367.362 722.107,-364.003 736,-361 747.225,-358.574 759.24,-356.028 770.74,-353.618"/>
<polygon fill="midnightblue" stroke="midnightblue" points="771.607,-357.012 780.679,-351.54 770.175,-350.16 771.607,-357.012"/>
</g>
<!-- Node36 -->
<g id="node36" class="node"><title>Node36</title>
<g id="a_node36"><a xlink:href="../../db/d97/class_box_world.html#a61929851f1d60c397e1448e614f1d701" target="_top" xlink:title="BoxWorld.getAnimation">
<polygon fill="white" stroke="black" points="764,-294.5 764,-313.5 892,-313.5 892,-294.5 764,-294.5"/>
<text text-anchor="middle" x="828" y="-301.5" font-family="Helvetica,sans-Serif" font-size="10.00">BoxWorld.getAnimation</text>
</a>
</g>
</g>
<!-- Node15&#45;&gt;Node36 -->
<g id="edge46" class="edge"><title>Node15&#45;&gt;Node36</title>
<path fill="none" stroke="midnightblue" d="M662.27,-370.333C677.809,-357.521 707.176,-335.128 736,-323 742.197,-320.393 748.786,-318.131 755.477,-316.171"/>
<polygon fill="midnightblue" stroke="midnightblue" points="756.577,-319.499 765.317,-313.511 754.751,-312.742 756.577,-319.499"/>
</g>
<!-- Node21 -->
<g id="node21" class="node"><title>Node21</title>
<g id="a_node21"><a xlink:href="../../d6/d4f/class_item_box_world.html#a1890e6c53a4a73e44e9528009fde508d" target="_top" xlink:title="ItemBoxWorld.itemExists">
<polygon fill="white" stroke="black" points="970,-389.5 970,-408.5 1104,-408.5 1104,-389.5 970,-389.5"/>
<text text-anchor="middle" x="1037" y="-396.5" font-family="Helvetica,sans-Serif" font-size="10.00">ItemBoxWorld.itemExists</text>
</a>
</g>
</g>
<!-- Node20&#45;&gt;Node21 -->
<g id="edge22" class="edge"><title>Node20&#45;&gt;Node21</title>
<path fill="none" stroke="midnightblue" d="M898.504,-386.38C918.197,-388.187 939.738,-390.164 959.804,-392.006"/>
<polygon fill="midnightblue" stroke="midnightblue" points="959.554,-395.498 969.832,-392.927 960.194,-388.527 959.554,-395.498"/>
</g>
<!-- Node23 -->
<g id="node23" class="node"><title>Node23</title>
<g id="a_node23"><a xlink:href="../../d6/d4f/class_item_box_world.html#af1bcde0672796e926560684004ed8e81" target="_top" xlink:title="ItemBoxWorld.addSingleItem">
<polygon fill="white" stroke="black" points="960,-351.5 960,-370.5 1114,-370.5 1114,-351.5 960,-351.5"/>
<text text-anchor="middle" x="1037" y="-358.5" font-family="Helvetica,sans-Serif" font-size="10.00">ItemBoxWorld.addSingleItem</text>
</a>
</g>
</g>
<!-- Node20&#45;&gt;Node23 -->
<g id="edge24" class="edge"><title>Node20&#45;&gt;Node23</title>
<path fill="none" stroke="midnightblue" d="M898.504,-373.62C914.999,-372.106 932.789,-370.473 949.924,-368.901"/>
<polygon fill="midnightblue" stroke="midnightblue" points="950.284,-372.382 959.922,-367.983 949.644,-365.412 950.284,-372.382"/>
</g>
<!-- Node22 -->
<g id="node22" class="node"><title>Node22</title>
<g id="a_node22"><a xlink:href="../../db/d97/class_box_world.html#abb95adb381902ecab1db85efdc1ea6ff" target="_top" xlink:title="BoxWorld.getRoot">
<polygon fill="white" stroke="black" points="1186,-370.5 1186,-389.5 1286,-389.5 1286,-370.5 1186,-370.5"/>
<text text-anchor="middle" x="1236" y="-377.5" font-family="Helvetica,sans-Serif" font-size="10.00">BoxWorld.getRoot</text>
</a>
</g>
</g>
<!-- Node21&#45;&gt;Node22 -->
<g id="edge23" class="edge"><title>Node21&#45;&gt;Node22</title>
<path fill="none" stroke="midnightblue" d="M1104.15,-392.62C1127.31,-390.386 1153.17,-387.893 1175.73,-385.716"/>
<polygon fill="midnightblue" stroke="midnightblue" points="1176.23,-389.184 1185.85,-384.74 1175.56,-382.217 1176.23,-389.184"/>
</g>
<!-- Node23&#45;&gt;Node22 -->
<g id="edge25" class="edge"><title>Node23&#45;&gt;Node22</title>
<path fill="none" stroke="midnightblue" d="M1114.17,-368.346C1134.54,-370.311 1156.26,-372.406 1175.59,-374.27"/>
<polygon fill="midnightblue" stroke="midnightblue" points="1175.46,-377.774 1185.75,-375.25 1176.13,-370.806 1175.46,-377.774"/>
</g>
<!-- Node25 -->
<g id="node25" class="node"><title>Node25</title>
<g id="a_node25"><a xlink:href="../../db/d97/class_box_world.html#a6794c083c2a0263c2f585f4ae4b7e39c" target="_top" xlink:title="BoxWorld.updateSprites">
<polygon fill="white" stroke="black" points="971.5,-142.5 971.5,-161.5 1102.5,-161.5 1102.5,-142.5 971.5,-142.5"/>
<text text-anchor="middle" x="1037" y="-149.5" font-family="Helvetica,sans-Serif" font-size="10.00">BoxWorld.updateSprites</text>
</a>
</g>
</g>
<!-- Node24&#45;&gt;Node25 -->
<g id="edge27" class="edge"><title>Node24&#45;&gt;Node25</title>
<path fill="none" stroke="midnightblue" d="M871.139,-152C897.053,-152 930.999,-152 961.348,-152"/>
<polygon fill="midnightblue" stroke="midnightblue" points="961.486,-155.5 971.486,-152 961.486,-148.5 961.486,-155.5"/>
</g>
<!-- Node25&#45;&gt;Node7 -->
<g id="edge41" class="edge"><title>Node25&#45;&gt;Node7</title>
<path fill="none" stroke="midnightblue" d="M1085.19,-142.487C1106.17,-138.722 1131.22,-134.853 1154,-133 1304.67,-120.742 1350.76,-117.124 1492,-171 1520.58,-181.903 1550.81,-199.942 1570.67,-212.806"/>
<polygon fill="midnightblue" stroke="midnightblue" points="1569,-215.897 1579.27,-218.48 1572.85,-210.053 1569,-215.897"/>
</g>
<!-- Node25&#45;&gt;Node9 -->
<g id="edge42" class="edge"><title>Node25&#45;&gt;Node9</title>
<path fill="none" stroke="midnightblue" d="M1045.75,-161.589C1062.79,-181.84 1105.85,-228.616 1154,-247 1275.12,-293.245 1428.9,-286.463 1518.6,-276.678"/>
<polygon fill="midnightblue" stroke="midnightblue" points="1519.14,-280.14 1528.68,-275.536 1518.35,-273.184 1519.14,-280.14"/>
</g>
<!-- Node25&#45;&gt;Node12 -->
<g id="edge43" class="edge"><title>Node25&#45;&gt;Node12</title>
<path fill="none" stroke="midnightblue" d="M1053.39,-142.317C1070,-131.583 1096.9,-113.352 1118,-95 1135.56,-79.7344 1133.83,-68.5881 1154,-57 1157.91,-54.7539 1162.07,-52.7731 1166.36,-51.0262"/>
<polygon fill="midnightblue" stroke="midnightblue" points="1167.71,-54.2596 1175.92,-47.5636 1165.33,-47.6779 1167.71,-54.2596"/>
</g>
<!-- Node25&#45;&gt;Node13 -->
<g id="edge40" class="edge"><title>Node25&#45;&gt;Node13</title>
<path fill="none" stroke="midnightblue" d="M1057.37,-142.356C1080.14,-131.249 1119.23,-112.879 1154,-100 1165.28,-95.8234 1177.64,-91.8604 1189.23,-88.4026"/>
<polygon fill="midnightblue" stroke="midnightblue" points="1190.56,-91.6618 1199.18,-85.5014 1188.6,-84.9419 1190.56,-91.6618"/>
</g>
<!-- Node26 -->
<g id="node26" class="node"><title>Node26</title>
<g id="a_node26"><a xlink:href="../../db/d97/class_box_world.html#a4079bed8937c9f621decfbe1309e31e2" target="_top" xlink:title="BoxWorld.checkAllCollisions">
<polygon fill="white" stroke="black" points="1163,-218.5 1163,-237.5 1309,-237.5 1309,-218.5 1163,-218.5"/>
<text text-anchor="middle" x="1236" y="-225.5" font-family="Helvetica,sans-Serif" font-size="10.00">BoxWorld.checkAllCollisions</text>
</a>
</g>
</g>
<!-- Node25&#45;&gt;Node26 -->
<g id="edge28" class="edge"><title>Node25&#45;&gt;Node26</title>
<path fill="none" stroke="midnightblue" d="M1054.39,-161.536C1076.4,-173.994 1117.03,-195.773 1154,-209 1161.09,-211.537 1168.66,-213.829 1176.21,-215.871"/>
<polygon fill="midnightblue" stroke="midnightblue" points="1175.52,-219.309 1186.08,-218.409 1177.27,-212.53 1175.52,-219.309"/>
</g>
<!-- Node33 -->
<g id="node33" class="node"><title>Node33</title>
<g id="a_node33"><a xlink:href="../../da/de2/class_sticky_box.html#a59337f0aa3c7379a2cb9c76bdc621daf" target="_top" xlink:title="StickyBox.setStuck">
<polygon fill="white" stroke="black" points="1182,-180.5 1182,-199.5 1290,-199.5 1290,-180.5 1182,-180.5"/>
<text text-anchor="middle" x="1236" y="-187.5" font-family="Helvetica,sans-Serif" font-size="10.00">StickyBox.setStuck</text>
</a>
</g>
</g>
<!-- Node25&#45;&gt;Node33 -->
<g id="edge39" class="edge"><title>Node25&#45;&gt;Node33</title>
<path fill="none" stroke="midnightblue" d="M1087.46,-161.54C1114.15,-166.69 1147.3,-173.084 1175.42,-178.506"/>
<polygon fill="midnightblue" stroke="midnightblue" points="1175.04,-181.999 1185.52,-180.456 1176.37,-175.125 1175.04,-181.999"/>
</g>
<!-- Node34 -->
<g id="node34" class="node"><title>Node34</title>
<g id="a_node34"><a xlink:href="../../da/de2/class_sticky_box.html#a185ee469367b376e6c5969a03d089d57" target="_top" xlink:title="StickyBox.move">
<polygon fill="white" stroke="black" points="1189.5,-142.5 1189.5,-161.5 1282.5,-161.5 1282.5,-142.5 1189.5,-142.5"/>
<text text-anchor="middle" x="1236" y="-149.5" font-family="Helvetica,sans-Serif" font-size="10.00">StickyBox.move</text>
</a>
</g>
</g>
<!-- Node25&#45;&gt;Node34 -->
<g id="edge44" class="edge"><title>Node25&#45;&gt;Node34</title>
<path fill="none" stroke="midnightblue" d="M1102.51,-152C1127.24,-152 1155.22,-152 1179.09,-152"/>
<polygon fill="midnightblue" stroke="midnightblue" points="1179.38,-155.5 1189.38,-152 1179.38,-148.5 1179.38,-155.5"/>
</g>
<!-- Node26&#45;&gt;Node14 -->
<g id="edge38" class="edge"><title>Node26&#45;&gt;Node14</title>
<path fill="none" stroke="midnightblue" d="M1162.96,-228C1020.89,-228 706.888,-228 574.148,-228"/>
<polygon fill="midnightblue" stroke="midnightblue" points="573.77,-224.5 563.77,-228 573.77,-231.5 573.77,-224.5"/>
</g>
<!-- Node27 -->
<g id="node27" class="node"><title>Node27</title>
<g id="a_node27"><a xlink:href="../../db/d97/class_box_world.html#a55add11037cd6dc48556f2f42a9e11be" target="_top" xlink:title="BoxWorld.checkCollide">
<polygon fill="white" stroke="black" points="1362,-218.5 1362,-237.5 1484,-237.5 1484,-218.5 1362,-218.5"/>
<text text-anchor="middle" x="1423" y="-225.5" font-family="Helvetica,sans-Serif" font-size="10.00">BoxWorld.checkCollide</text>
</a>
</g>
</g>
<!-- Node26&#45;&gt;Node27 -->
<g id="edge29" class="edge"><title>Node26&#45;&gt;Node27</title>
<path fill="none" stroke="midnightblue" d="M1309.06,-228C1323.1,-228 1337.8,-228 1351.78,-228"/>
<polygon fill="midnightblue" stroke="midnightblue" points="1351.82,-231.5 1361.82,-228 1351.82,-224.5 1351.82,-231.5"/>
</g>
<!-- Node28 -->
<g id="node28" class="node"><title>Node28</title>
<g id="a_node28"><a xlink:href="../../db/d97/class_box_world.html#a72bacb2a6757900d8835249929fcc838" target="_top" xlink:title="BoxWorld.loseGame">
<polygon fill="white" stroke="black" points="1367,-47.5 1367,-66.5 1479,-66.5 1479,-47.5 1367,-47.5"/>
<text text-anchor="middle" x="1423" y="-54.5" font-family="Helvetica,sans-Serif" font-size="10.00">BoxWorld.loseGame</text>
</a>
</g>
</g>
<!-- Node26&#45;&gt;Node28 -->
<g id="edge32" class="edge"><title>Node26&#45;&gt;Node28</title>
<path fill="none" stroke="midnightblue" d="M1299.61,-218.357C1306.12,-215.905 1312.4,-212.836 1318,-209 1343.68,-191.41 1390.45,-112.658 1411.38,-75.949"/>
<polygon fill="midnightblue" stroke="midnightblue" points="1414.68,-77.2229 1416.56,-66.7959 1408.59,-73.7759 1414.68,-77.2229"/>
</g>
<!-- Node32 -->
<g id="node32" class="node"><title>Node32</title>
<g id="a_node32"><a xlink:href="../../db/d97/class_box_world.html#a167adb49603af3a303ee958011243b5f" target="_top" xlink:title="BoxWorld.onScreen">
<polygon fill="white" stroke="black" points="1368.5,-180.5 1368.5,-199.5 1477.5,-199.5 1477.5,-180.5 1368.5,-180.5"/>
<text text-anchor="middle" x="1423" y="-187.5" font-family="Helvetica,sans-Serif" font-size="10.00">BoxWorld.onScreen</text>
</a>
</g>
</g>
<!-- Node26&#45;&gt;Node32 -->
<g id="edge37" class="edge"><title>Node26&#45;&gt;Node32</title>
<path fill="none" stroke="midnightblue" d="M1283.68,-218.411C1308.65,-213.284 1339.56,-206.933 1365.83,-201.537"/>
<polygon fill="midnightblue" stroke="midnightblue" points="1366.56,-204.961 1375.65,-199.52 1365.15,-198.104 1366.56,-204.961"/>
</g>
<!-- Node27&#45;&gt;Node7 -->
<g id="edge30" class="edge"><title>Node27&#45;&gt;Node7</title>
<path fill="none" stroke="midnightblue" d="M1484.06,-228C1495.03,-228 1506.6,-228 1517.94,-228"/>
<polygon fill="midnightblue" stroke="midnightblue" points="1518.26,-231.5 1528.26,-228 1518.26,-224.5 1518.26,-231.5"/>
</g>
<!-- Node27&#45;&gt;Node9 -->
<g id="edge31" class="edge"><title>Node27&#45;&gt;Node9</title>
<path fill="none" stroke="midnightblue" d="M1466.65,-237.589C1489.15,-242.649 1516.95,-248.9 1540.74,-254.249"/>
<polygon fill="midnightblue" stroke="midnightblue" points="1540.14,-257.701 1550.66,-256.48 1541.67,-250.871 1540.14,-257.701"/>
</g>
<!-- Node29 -->
<g id="node29" class="node"><title>Node29</title>
<g id="a_node29"><a xlink:href="../../d4/d2f/class_lose_screen.html#a34f2cc2c803500316c9b8d854854d758" target="_top" xlink:title="LoseScreen.init">
<polygon fill="white" stroke="black" points="1549,-37.5 1549,-56.5 1639,-56.5 1639,-37.5 1549,-37.5"/>
<text text-anchor="middle" x="1594" y="-44.5" font-family="Helvetica,sans-Serif" font-size="10.00">LoseScreen.init</text>
</a>
</g>
</g>
<!-- Node28&#45;&gt;Node29 -->
<g id="edge33" class="edge"><title>Node28&#45;&gt;Node29</title>
<path fill="none" stroke="midnightblue" d="M1479.34,-53.7256C1498.43,-52.5958 1519.79,-51.332 1538.79,-50.2075"/>
<polygon fill="midnightblue" stroke="midnightblue" points="1539.01,-53.701 1548.78,-49.6164 1538.59,-46.7132 1539.01,-53.701"/>
</g>
<!-- Node30 -->
<g id="node30" class="node"><title>Node30</title>
<g id="a_node30"><a xlink:href="../../d2/db8/class_menu.html#a3c99ad09e9f2f975c1a0d0597642651a" target="_top" xlink:title="Menu.init">
<polygon fill="white" stroke="black" points="1696,-13.5 1696,-32.5 1756,-32.5 1756,-13.5 1696,-13.5"/>
<text text-anchor="middle" x="1726" y="-20.5" font-family="Helvetica,sans-Serif" font-size="10.00">Menu.init</text>
</a>
</g>
</g>
<!-- Node29&#45;&gt;Node30 -->
<g id="edge34" class="edge"><title>Node29&#45;&gt;Node30</title>
<path fill="none" stroke="midnightblue" d="M1639.01,-38.8747C1654.21,-36.0682 1671.13,-32.9451 1685.91,-30.2164"/>
<polygon fill="midnightblue" stroke="midnightblue" points="1686.56,-33.6565 1695.75,-28.3992 1685.29,-26.7729 1686.56,-33.6565"/>
</g>
<!-- Node30&#45;&gt;Node1 -->
<g id="edge36" class="edge"><title>Node30&#45;&gt;Node1</title>
<path fill="none" stroke="midnightblue" d="M1696,-19.3047C1642.39,-12.8031 1524.1,-1.42109e-14 1424,-0 348,-0 348,-0 348,-0 219.729,-0 97.4151,-117.813 55.3749,-162.812"/>
<polygon fill="midnightblue" stroke="midnightblue" points="52.6634,-160.59 48.4759,-170.322 57.8185,-165.326 52.6634,-160.59"/>
</g>
<!-- Node31 -->
<g id="node31" class="node"><title>Node31</title>
<g id="a_node31"><a xlink:href="../../d2/db8/class_menu.html#a8a6e6125f0dc2dc7e19c6655ba6376a2" target="_top" xlink:title="Menu.addIntroText">
<polygon fill="white" stroke="black" points="1792,-13.5 1792,-32.5 1896,-32.5 1896,-13.5 1792,-13.5"/>
<text text-anchor="middle" x="1844" y="-20.5" font-family="Helvetica,sans-Serif" font-size="10.00">Menu.addIntroText</text>
</a>
</g>
</g>
<!-- Node30&#45;&gt;Node31 -->
<g id="edge35" class="edge"><title>Node30&#45;&gt;Node31</title>
<path fill="none" stroke="midnightblue" d="M1756.27,-23C1763.99,-23 1772.62,-23 1781.35,-23"/>
<polygon fill="midnightblue" stroke="midnightblue" points="1781.61,-26.5001 1791.61,-23 1781.61,-19.5001 1781.61,-26.5001"/>
</g>
</g>
</svg>
        <g id="navigator" transform="translate(0 0)" fill="#404254">
                <rect fill="#f2f5e9" fill-opacity="0.5" stroke="#606060" stroke-width=".5" x="0" y="0" width="60" height="60"/>
                <use id="zoomplus" xlink:href="#zoomPlus" x="17" y="9" onmousedown="handleZoom(evt,'in')"/>
                <use id="zoomminus" xlink:href="#zoomMin" x="42" y="9" onmousedown="handleZoom(evt,'out')"/>
                <use id="reset" xlink:href="#resetDef" x="30" y="36" onmousedown="handleReset()"/>
                <g id="arrowUp" xlink:href="#dirArrow" transform="translate(30 24)" onmousedown="handlePan(0,-1)">
                  <use xlink:href="#rim" fill="#404040">
                        <set attributeName="fill" to="#808080" begin="arrowUp.mouseover" end="arrowUp.mouseout"/>
                  </use>
                  <path fill="none" stroke="white" stroke-width="1.5" d="M0,-3.0v7 M-2.5,-0.5L0,-3.0L2.5,-0.5"/>
                </g>
                <g id="arrowRight" xlink:href="#dirArrow" transform="rotate(90) translate(36 -43)" onmousedown="handlePan(1,0)">
                  <use xlink:href="#rim" fill="#404040">
                        <set attributeName="fill" to="#808080" begin="arrowRight.mouseover" end="arrowRight.mouseout"/>
                  </use>
                  <path fill="none" stroke="white" stroke-width="1.5" d="M0,-3.0v7 M-2.5,-0.5L0,-3.0L2.5,-0.5"/>
                </g>
                <g id="arrowDown" xlink:href="#dirArrow" transform="rotate(180) translate(-30 -48)" onmousedown="handlePan(0,1)">
                  <use xlink:href="#rim" fill="#404040">
                        <set attributeName="fill" to="#808080" begin="arrowDown.mouseover" end="arrowDown.mouseout"/>
                  </use>
                  <path fill="none" stroke="white" stroke-width="1.5" d="M0,-3.0v7 M-2.5,-0.5L0,-3.0L2.5,-0.5"/>
                </g>
                <g id="arrowLeft" xlink:href="#dirArrow" transform="rotate(270) translate(-36 17)" onmousedown="handlePan(-1,0)">
                  <use xlink:href="#rim" fill="#404040">
                        <set attributeName="fill" to="#808080" begin="arrowLeft.mouseover" end="arrowLeft.mouseout"/>
                  </use>
                  <path fill="none" stroke="white" stroke-width="1.5" d="M0,-3.0v7 M-2.5,-0.5L0,-3.0L2.5,-0.5"/>
                </g>
        </g>
        <svg viewBox="0 0 15 15" width="100%" height="30px" preserveAspectRatio="xMaxYMin meet">
         <g id="arrow_out" transform="scale(0.3 0.3)">
          <a xlink:href="class_box_world_a55bf92d3f466bfaade0f6d199d8c9bd9_cgraph_org.svg" target="_base">
           <rect id="button" ry="5" rx="5" y="6" x="6" height="38" width="38"
                fill="#f2f5e9" fill-opacity="0.5" stroke="#606060" stroke-width="1.0"/>
           <path id="arrow"
             d="M 11.500037,31.436501 C 11.940474,20.09759 22.043105,11.32322 32.158766,21.979434 L 37.068811,17.246167 C 37.068811,17.246167 37.088388,32 37.088388,32 L 22.160133,31.978069 C 22.160133,31.978069 26.997745,27.140456 26.997745,27.140456 C 18.528582,18.264221 13.291696,25.230495 11.500037,31.436501 z"
             style="fill:#404040;"/>
          </a>
         </g>
        </svg>
</svg>
