<?xml version="1.0" encoding="UTF-8" standalone="no"?>
<!DOCTYPE svg PUBLIC "-//W3C//DTD SVG 1.1//EN"
 "http://www.w3.org/Graphics/SVG/1.1/DTD/svg11.dtd">
<!-- Generated by graphviz version 2.36.0 (20140111.2315)
 -->
<!-- Title: BoxWorld.getAnimation Pages: 1 -->
<svg width="1576pt" height="170pt"
 viewBox="0.00 0.00 1576.00 170.00" xmlns="http://www.w3.org/2000/svg" xmlns:xlink="http://www.w3.org/1999/xlink">
<g id="graph0" class="graph" transform="scale(1 1) rotate(0) translate(4 166)">
<title>BoxWorld.getAnimation</title>
<polygon fill="white" stroke="none" points="-4,4 -4,-166 1572,-166 1572,4 -4,4"/>
<!-- Node1 -->
<g id="node1" class="node"><title>Node1</title>
<polygon fill="#bfbfbf" stroke="black" points="0,-18.5 0,-37.5 128,-37.5 128,-18.5 0,-18.5"/>
<text text-anchor="middle" x="64" y="-25.5" font-family="Helvetica,sans-Serif" font-size="10.00">BoxWorld.getAnimation</text>
</g>
<!-- Node2 -->
<g id="node2" class="node"><title>Node2</title>
<g id="a_node2"><a xlink:href="../../d6/d4f/class_item_box_world.html#aa559fc2680327b41fb376e2eda8e82e3" target="_top" xlink:title="ItemBoxWorld.init">
<polygon fill="white" stroke="black" points="164.5,-47.5 164.5,-66.5 263.5,-66.5 263.5,-47.5 164.5,-47.5"/>
<text text-anchor="middle" x="214" y="-54.5" font-family="Helvetica,sans-Serif" font-size="10.00">ItemBoxWorld.init</text>
</a>
</g>
</g>
<!-- Node1&#45;&gt;Node2 -->
<g id="edge1" class="edge"><title>Node1&#45;&gt;Node2</title>
<path fill="none" stroke="midnightblue" d="M123.969,-39.5548C137.391,-42.1848 151.502,-44.9497 164.433,-47.4835"/>
<polygon fill="midnightblue" stroke="midnightblue" points="124.357,-36.0643 113.871,-37.5761 123.011,-42.9337 124.357,-36.0643"/>
</g>
<!-- Node10 -->
<g id="node10" class="node"><title>Node10</title>
<g id="a_node10"><a xlink:href="../../d6/d4f/class_item_box_world.html#a2ed12a6b39993faedc05cc682204476d" target="_top" xlink:title="ItemBoxWorld.winLevel">
<polygon fill="white" stroke="black" points="1248.5,-47.5 1248.5,-66.5 1373.5,-66.5 1373.5,-47.5 1248.5,-47.5"/>
<text text-anchor="middle" x="1311" y="-54.5" font-family="Helvetica,sans-Serif" font-size="10.00">ItemBoxWorld.winLevel</text>
</a>
</g>
</g>
<!-- Node1&#45;&gt;Node10 -->
<g id="edge20" class="edge"><title>Node1&#45;&gt;Node10</title>
<path fill="none" stroke="midnightblue" d="M136.592,-17.0828C194.327,-9.22335 277.697,-3.35149e-15 351,-0 351,-0 351,-0 1057,-0 1126.4,-4.2498e-15 1144.68,-2.10227 1212,-19 1239.79,-25.9752 1270.35,-38.6872 1289.83,-47.476"/>
<polygon fill="midnightblue" stroke="midnightblue" points="135.904,-13.6446 126.478,-18.4814 136.863,-20.5786 135.904,-13.6446"/>
</g>
<!-- Node3 -->
<g id="node3" class="node"><title>Node3</title>
<g id="a_node3"><a xlink:href="../../db/d97/class_box_world.html#aad670712776afe126e51791097027e05" target="_top" xlink:title="BoxWorld.winLevel">
<polygon fill="white" stroke="black" points="300.5,-104.5 300.5,-123.5 403.5,-123.5 403.5,-104.5 300.5,-104.5"/>
<text text-anchor="middle" x="352" y="-111.5" font-family="Helvetica,sans-Serif" font-size="10.00">BoxWorld.winLevel</text>
</a>
</g>
</g>
<!-- Node2&#45;&gt;Node3 -->
<g id="edge2" class="edge"><title>Node2&#45;&gt;Node3</title>
<path fill="none" stroke="midnightblue" d="M247.161,-70.4793C272.074,-80.9208 305.973,-95.1285 328.162,-104.428"/>
<polygon fill="midnightblue" stroke="midnightblue" points="248.339,-67.178 237.763,-66.5405 245.633,-73.6339 248.339,-67.178"/>
</g>
<!-- Node4 -->
<g id="node4" class="node"><title>Node4</title>
<g id="a_node4"><a xlink:href="../../db/d97/class_box_world.html#a4079bed8937c9f621decfbe1309e31e2" target="_top" xlink:title="BoxWorld.checkAllCollisions">
<polygon fill="white" stroke="black" points="440,-142.5 440,-161.5 586,-161.5 586,-142.5 440,-142.5"/>
<text text-anchor="middle" x="513" y="-149.5" font-family="Helvetica,sans-Serif" font-size="10.00">BoxWorld.checkAllCollisions</text>
</a>
</g>
</g>
<!-- Node3&#45;&gt;Node4 -->
<g id="edge3" class="edge"><title>Node3&#45;&gt;Node4</title>
<path fill="none" stroke="midnightblue" d="M403.077,-125.968C425.358,-131.293 451.229,-137.476 472.166,-142.48"/>
<polygon fill="midnightblue" stroke="midnightblue" points="403.662,-122.509 393.122,-123.589 402.035,-129.318 403.662,-122.509"/>
</g>
<!-- Node15 -->
<g id="node15" class="node"><title>Node15</title>
<g id="a_node15"><a xlink:href="../../db/d97/class_box_world.html#aa7e2049d7be23e15fd2ec7fa2922ed79" target="_top" xlink:title="BoxWorld.handleKeyInput">
<polygon fill="white" stroke="black" points="445,-104.5 445,-123.5 581,-123.5 581,-104.5 445,-104.5"/>
<text text-anchor="middle" x="513" y="-111.5" font-family="Helvetica,sans-Serif" font-size="10.00">BoxWorld.handleKeyInput</text>
</a>
</g>
</g>
<!-- Node3&#45;&gt;Node15 -->
<g id="edge16" class="edge"><title>Node3&#45;&gt;Node15</title>
<path fill="none" stroke="midnightblue" d="M413.76,-114C423.946,-114 434.567,-114 444.901,-114"/>
<polygon fill="midnightblue" stroke="midnightblue" points="413.746,-110.5 403.746,-114 413.746,-117.5 413.746,-110.5"/>
</g>
<!-- Node5 -->
<g id="node5" class="node"><title>Node5</title>
<g id="a_node5"><a xlink:href="../../db/d97/class_box_world.html#a6794c083c2a0263c2f585f4ae4b7e39c" target="_top" xlink:title="BoxWorld.updateSprites">
<polygon fill="white" stroke="black" points="622.5,-104.5 622.5,-123.5 753.5,-123.5 753.5,-104.5 622.5,-104.5"/>
<text text-anchor="middle" x="688" y="-111.5" font-family="Helvetica,sans-Serif" font-size="10.00">BoxWorld.updateSprites</text>
</a>
</g>
</g>
<!-- Node4&#45;&gt;Node5 -->
<g id="edge4" class="edge"><title>Node4&#45;&gt;Node5</title>
<path fill="none" stroke="midnightblue" d="M567.505,-140.247C591.967,-134.874 620.571,-128.591 643.659,-123.52"/>
<polygon fill="midnightblue" stroke="midnightblue" points="566.671,-136.847 557.655,-142.411 568.173,-143.684 566.671,-136.847"/>
</g>
<!-- Node6 -->
<g id="node6" class="node"><title>Node6</title>
<g id="a_node6"><a xlink:href="../../db/d97/class_box_world.html#ad20a4e43406c44f4bbf201d1d1028998" target="_top" xlink:title="BoxWorld.start">
<polygon fill="white" stroke="black" points="790,-104.5 790,-123.5 876,-123.5 876,-104.5 790,-104.5"/>
<text text-anchor="middle" x="833" y="-111.5" font-family="Helvetica,sans-Serif" font-size="10.00">BoxWorld.start</text>
</a>
</g>
</g>
<!-- Node5&#45;&gt;Node6 -->
<g id="edge5" class="edge"><title>Node5&#45;&gt;Node6</title>
<path fill="none" stroke="midnightblue" d="M763.898,-114C772.837,-114 781.705,-114 789.941,-114"/>
<polygon fill="midnightblue" stroke="midnightblue" points="763.806,-110.5 753.806,-114 763.806,-117.5 763.806,-110.5"/>
</g>
<!-- Node6&#45;&gt;Node2 -->
<g id="edge15" class="edge"><title>Node6&#45;&gt;Node2</title>
<path fill="none" stroke="midnightblue" d="M815.798,-97.3218C801.142,-83.5203 778.204,-64.9395 754,-57 580.171,0.0206456 357.497,-30.0488 261.957,-47.446"/>
<polygon fill="midnightblue" stroke="midnightblue" points="813.444,-99.9154 823.043,-104.4 818.335,-94.9081 813.444,-99.9154"/>
</g>
<!-- Node7 -->
<g id="node7" class="node"><title>Node7</title>
<g id="a_node7"><a xlink:href="../../db/d97/class_box_world.html#a55bf92d3f466bfaade0f6d199d8c9bd9" target="_top" xlink:title="BoxWorld.init">
<polygon fill="white" stroke="black" points="912.5,-66.5 912.5,-85.5 989.5,-85.5 989.5,-66.5 912.5,-66.5"/>
<text text-anchor="middle" x="951" y="-73.5" font-family="Helvetica,sans-Serif" font-size="10.00">BoxWorld.init</text>
</a>
</g>
</g>
<!-- Node6&#45;&gt;Node7 -->
<g id="edge6" class="edge"><title>Node6&#45;&gt;Node7</title>
<path fill="none" stroke="midnightblue" d="M873.153,-101.174C888.718,-96.0753 906.314,-90.3109 920.738,-85.5859"/>
<polygon fill="midnightblue" stroke="midnightblue" points="871.685,-97.9718 863.272,-104.411 873.864,-104.624 871.685,-97.9718"/>
</g>
<!-- Node8 -->
<g id="node8" class="node"><title>Node8</title>
<g id="a_node8"><a xlink:href="../../d2/db8/class_menu.html#a3c99ad09e9f2f975c1a0d0597642651a" target="_top" xlink:title="Menu.init">
<polygon fill="white" stroke="black" points="1026,-66.5 1026,-85.5 1086,-85.5 1086,-66.5 1026,-66.5"/>
<text text-anchor="middle" x="1056" y="-73.5" font-family="Helvetica,sans-Serif" font-size="10.00">Menu.init</text>
</a>
</g>
</g>
<!-- Node7&#45;&gt;Node8 -->
<g id="edge7" class="edge"><title>Node7&#45;&gt;Node8</title>
<path fill="none" stroke="midnightblue" d="M1000.03,-76C1008.89,-76 1017.87,-76 1025.95,-76"/>
<polygon fill="midnightblue" stroke="midnightblue" points="999.769,-72.5001 989.769,-76 999.768,-79.5001 999.769,-72.5001"/>
</g>
<!-- Node9 -->
<g id="node9" class="node"><title>Node9</title>
<g id="a_node9"><a xlink:href="../../d1/de1/class_end_screen.html#a1264ffb72b3a3032443f9c4087222aef" target="_top" xlink:title="EndScreen.init">
<polygon fill="white" stroke="black" points="1124,-66.5 1124,-85.5 1210,-85.5 1210,-66.5 1124,-66.5"/>
<text text-anchor="middle" x="1167" y="-73.5" font-family="Helvetica,sans-Serif" font-size="10.00">EndScreen.init</text>
</a>
</g>
</g>
<!-- Node8&#45;&gt;Node9 -->
<g id="edge8" class="edge"><title>Node8&#45;&gt;Node9</title>
<path fill="none" stroke="midnightblue" d="M1096.29,-76C1105.15,-76 1114.6,-76 1123.59,-76"/>
<polygon fill="midnightblue" stroke="midnightblue" points="1096.21,-72.5001 1086.21,-76 1096.21,-79.5001 1096.21,-72.5001"/>
</g>
<!-- Node12 -->
<g id="node12" class="node"><title>Node12</title>
<g id="a_node12"><a xlink:href="../../d4/d2f/class_lose_screen.html#a34f2cc2c803500316c9b8d854854d758" target="_top" xlink:title="LoseScreen.init">
<polygon fill="white" stroke="black" points="1122,-104.5 1122,-123.5 1212,-123.5 1212,-104.5 1122,-104.5"/>
<text text-anchor="middle" x="1167" y="-111.5" font-family="Helvetica,sans-Serif" font-size="10.00">LoseScreen.init</text>
</a>
</g>
</g>
<!-- Node8&#45;&gt;Node12 -->
<g id="edge11" class="edge"><title>Node8&#45;&gt;Node12</title>
<path fill="none" stroke="midnightblue" d="M1094.21,-88.9718C1108.73,-94.0344 1125.08,-99.7341 1138.5,-104.414"/>
<polygon fill="midnightblue" stroke="midnightblue" points="1095.1,-85.5761 1084.51,-85.589 1092.8,-92.1859 1095.1,-85.5761"/>
</g>
<!-- Node14 -->
<g id="node14" class="node"><title>Node14</title>
<g id="a_node14"><a xlink:href="../../d0/d4b/class_main.html#a7595d13c514a02c35aca322dd91d2063" target="_top" xlink:title="Main.start">
<polygon fill="white" stroke="black" points="1134.5,-28.5 1134.5,-47.5 1199.5,-47.5 1199.5,-28.5 1134.5,-28.5"/>
<text text-anchor="middle" x="1167" y="-35.5" font-family="Helvetica,sans-Serif" font-size="10.00">Main.start</text>
</a>
</g>
</g>
<!-- Node8&#45;&gt;Node14 -->
<g id="edge14" class="edge"><title>Node8&#45;&gt;Node14</title>
<path fill="none" stroke="midnightblue" d="M1094.21,-63.0282C1108.73,-57.9656 1125.08,-52.2659 1138.5,-47.5859"/>
<polygon fill="midnightblue" stroke="midnightblue" points="1092.8,-59.8141 1084.51,-66.411 1095.1,-66.4239 1092.8,-59.8141"/>
</g>
<!-- Node9&#45;&gt;Node10 -->
<g id="edge9" class="edge"><title>Node9&#45;&gt;Node10</title>
<path fill="none" stroke="midnightblue" d="M1220.34,-68.9968C1229.5,-67.7708 1239.11,-66.4851 1248.5,-65.2295"/>
<polygon fill="midnightblue" stroke="midnightblue" points="1219.67,-65.5554 1210.22,-70.3508 1220.6,-72.4936 1219.67,-65.5554"/>
</g>
<!-- Node11 -->
<g id="node11" class="node"><title>Node11</title>
<g id="a_node11"><a xlink:href="../../d6/d4f/class_item_box_world.html#ae442d947b4dafc944336ee27628d2175" target="_top" xlink:title="ItemBoxWorld.handleKeyInput">
<polygon fill="white" stroke="black" points="1410,-47.5 1410,-66.5 1568,-66.5 1568,-47.5 1410,-47.5"/>
<text text-anchor="middle" x="1489" y="-54.5" font-family="Helvetica,sans-Serif" font-size="10.00">ItemBoxWorld.handleKeyInput</text>
</a>
</g>
</g>
<!-- Node10&#45;&gt;Node11 -->
<g id="edge10" class="edge"><title>Node10&#45;&gt;Node11</title>
<path fill="none" stroke="midnightblue" d="M1383.57,-57C1392.2,-57 1401.05,-57 1409.77,-57"/>
<polygon fill="midnightblue" stroke="midnightblue" points="1383.56,-53.5001 1373.56,-57 1383.56,-60.5001 1383.56,-53.5001"/>
</g>
<!-- Node13 -->
<g id="node13" class="node"><title>Node13</title>
<g id="a_node13"><a xlink:href="../../db/d97/class_box_world.html#a72bacb2a6757900d8835249929fcc838" target="_top" xlink:title="BoxWorld.loseGame">
<polygon fill="white" stroke="black" points="1255,-123.5 1255,-142.5 1367,-142.5 1367,-123.5 1255,-123.5"/>
<text text-anchor="middle" x="1311" y="-130.5" font-family="Helvetica,sans-Serif" font-size="10.00">BoxWorld.loseGame</text>
</a>
</g>
</g>
<!-- Node12&#45;&gt;Node13 -->
<g id="edge12" class="edge"><title>Node12&#45;&gt;Node13</title>
<path fill="none" stroke="midnightblue" d="M1222.2,-121.253C1232.9,-122.684 1244.13,-124.186 1254.85,-125.621"/>
<polygon fill="midnightblue" stroke="midnightblue" points="1222.53,-117.765 1212.15,-119.908 1221.6,-124.703 1222.53,-117.765"/>
</g>
<!-- Node13&#45;&gt;Node4 -->
<g id="edge13" class="edge"><title>Node13&#45;&gt;Node4</title>
<path fill="none" stroke="midnightblue" d="M1244.59,-140.617C1193.56,-145.904 1120.87,-152 1057,-152 832,-152 832,-152 832,-152 747.669,-152 650.759,-152 586.305,-152"/>
<polygon fill="midnightblue" stroke="midnightblue" points="1245.24,-144.068 1254.81,-139.539 1244.5,-137.107 1245.24,-144.068"/>
</g>
<!-- Node16 -->
<g id="node16" class="node"><title>Node16</title>
<g id="a_node16"><a xlink:href="../../db/d97/class_box_world.html#a726e747e023543658d7a345cc6466ccb" target="_top" xlink:title="BoxWorld.createScene">
<polygon fill="white" stroke="black" points="626,-66.5 626,-85.5 750,-85.5 750,-66.5 626,-66.5"/>
<text text-anchor="middle" x="688" y="-73.5" font-family="Helvetica,sans-Serif" font-size="10.00">BoxWorld.createScene</text>
</a>
</g>
</g>
<!-- Node15&#45;&gt;Node16 -->
<g id="edge17" class="edge"><title>Node15&#45;&gt;Node16</title>
<path fill="none" stroke="midnightblue" d="M567.505,-102.247C591.967,-96.8742 620.571,-90.5914 643.659,-85.5201"/>
<polygon fill="midnightblue" stroke="midnightblue" points="566.671,-98.847 557.655,-104.411 568.173,-105.684 566.671,-98.847"/>
</g>
<!-- Node16&#45;&gt;Node2 -->
<g id="edge18" class="edge"><title>Node16&#45;&gt;Node2</title>
<path fill="none" stroke="midnightblue" d="M615.944,-73.1397C518.905,-69.2335 347.45,-62.3317 263.735,-58.9618"/>
<polygon fill="midnightblue" stroke="midnightblue" points="615.826,-76.6377 625.959,-73.5428 616.108,-69.6434 615.826,-76.6377"/>
</g>
<!-- Node16&#45;&gt;Node7 -->
<g id="edge19" class="edge"><title>Node16&#45;&gt;Node7</title>
<path fill="none" stroke="midnightblue" d="M760.43,-76C809.468,-76 872.612,-76 912.209,-76"/>
<polygon fill="midnightblue" stroke="midnightblue" points="760.193,-72.5001 750.193,-76 760.193,-79.5001 760.193,-72.5001"/>
</g>
</g>
</svg>
