<?xml version="1.0" encoding="UTF-8" standalone="no"?>
<!DOCTYPE svg PUBLIC "-//W3C//DTD SVG 1.1//EN"
 "http://www.w3.org/Graphics/SVG/1.1/DTD/svg11.dtd">
<!-- Generated by graphviz version 2.36.0 (20140111.2315)
 -->
<!-- Title: BoxWorld.start Pages: 1 -->
<!--zoomable 512 -->
<svg id="main" version="1.1" xmlns="http://www.w3.org/2000/svg" xmlns:xlink="http://www.w3.org/1999/xlink" xml:space="preserve" onload="init(evt)">
<style type="text/css"><![CDATA[
.edge:hover path { stroke: red; }
.edge:hover polygon { stroke: red; fill: red; }
]]></style>
<script type="text/javascript"><![CDATA[
var edges = document.getElementsByTagName('g');
if (edges && edges.length) {
  for (var i=0;i<edges.length;i++) {
    if (edges[i].id.substr(0,4)=='edge') {
      edges[i].setAttribute('class','edge');
    }
  }
}
]]></script>
        <defs>
                <circle id="rim" cx="0" cy="0" r="7"/>
                <circle id="rim2" cx="0" cy="0" r="3.5"/>
                <g id="zoomPlus">
                        <use xlink:href="#rim" fill="#404040">
                                <set attributeName="fill" to="#808080" begin="zoomplus.mouseover" end="zoomplus.mouseout"/>
                        </use>
                        <path d="M-4,0h8M0,-4v8" fill="none" stroke="white" stroke-width="1.5" pointer-events="none"/>
                </g>
                <g id="zoomMin">
                        <use xlink:href="#rim" fill="#404040">
                                <set attributeName="fill" to="#808080" begin="zoomminus.mouseover" end="zoomminus.mouseout"/>
                        </use>
                        <path d="M-4,0h8" fill="none" stroke="white" stroke-width="1.5" pointer-events="none"/>
                </g>
                <g id="dirArrow">
                        <path fill="none" stroke="white" stroke-width="1.5" d="M0,-3.0v7 M-2.5,-0.5L0,-3.0L2.5,-0.5"/>
                </g>
               <g id="resetDef">
                       <use xlink:href="#rim2" fill="#404040">
                               <set attributeName="fill" to="#808080" begin="reset.mouseover" end="reset.mouseout"/>
                       </use>
               </g>
        </defs>

<script type="text/javascript">
var viewWidth = 2228;
var viewHeight = 512;
var sectionId = 'dynsection-31';
</script>
<script xlink:href="../../svgpan.js"/>
<svg id="graph" class="graph">
<g id="viewport">
<title>BoxWorld.start</title>
<polygon fill="white" stroke="none" points="-4,4 -4,-508 2224,-508 2224,4 -4,4"/>
<!-- Node1 -->
<g id="node1" class="node"><title>Node1</title>
<polygon fill="#bfbfbf" stroke="black" points="0,-418.5 0,-437.5 86,-437.5 86,-418.5 0,-418.5"/>
<text text-anchor="middle" x="43" y="-425.5" font-family="Helvetica,sans-Serif" font-size="10.00">BoxWorld.start</text>
</g>
<!-- Node2 -->
<g id="node2" class="node"><title>Node2</title>
<g id="a_node2"><a xlink:href="../../db/d97/class_box_world.html#a6794c083c2a0263c2f585f4ae4b7e39c" target="_top" xlink:title="BoxWorld.updateSprites">
<polygon fill="white" stroke="black" points="122.5,-209.5 122.5,-228.5 253.5,-228.5 253.5,-209.5 122.5,-209.5"/>
<text text-anchor="middle" x="188" y="-216.5" font-family="Helvetica,sans-Serif" font-size="10.00">BoxWorld.updateSprites</text>
</a>
</g>
</g>
<!-- Node1&#45;&gt;Node2 -->
<g id="edge1" class="edge"><title>Node1&#45;&gt;Node2</title>
<path fill="none" stroke="midnightblue" d="M50.516,-418.477C72.71,-386.039 145.592,-279.519 174.767,-236.879"/>
<polygon fill="midnightblue" stroke="midnightblue" points="177.687,-238.809 180.446,-228.579 171.91,-234.856 177.687,-238.809"/>
</g>
<!-- Node3 -->
<g id="node3" class="node"><title>Node3</title>
<g id="a_node3"><a xlink:href="../../db/d97/class_box_world.html#a4079bed8937c9f621decfbe1309e31e2" target="_top" xlink:title="BoxWorld.checkAllCollisions">
<polygon fill="white" stroke="black" points="290,-304.5 290,-323.5 436,-323.5 436,-304.5 290,-304.5"/>
<text text-anchor="middle" x="363" y="-311.5" font-family="Helvetica,sans-Serif" font-size="10.00">BoxWorld.checkAllCollisions</text>
</a>
</g>
</g>
<!-- Node2&#45;&gt;Node3 -->
<g id="edge2" class="edge"><title>Node2&#45;&gt;Node3</title>
<path fill="none" stroke="midnightblue" d="M199.01,-228.685C216.204,-244.795 253.077,-277.094 290,-295 294.871,-297.362 300.075,-299.46 305.373,-301.317"/>
<polygon fill="midnightblue" stroke="midnightblue" points="304.366,-304.67 314.958,-304.403 306.512,-298.007 304.366,-304.67"/>
</g>
<!-- Node5 -->
<g id="node5" class="node"><title>Node5</title>
<g id="a_node5"><a xlink:href="../../da/de2/class_sticky_box.html#a6ba3f89630df9d81df5644a3e5f4e387" target="_top" xlink:title="StickyBox.getXDirection">
<polygon fill="white" stroke="black" points="1518.5,-114.5 1518.5,-133.5 1649.5,-133.5 1649.5,-114.5 1518.5,-114.5"/>
<text text-anchor="middle" x="1584" y="-121.5" font-family="Helvetica,sans-Serif" font-size="10.00">StickyBox.getXDirection</text>
</a>
</g>
</g>
<!-- Node2&#45;&gt;Node5 -->
<g id="edge46" class="edge"><title>Node2&#45;&gt;Node5</title>
<path fill="none" stroke="midnightblue" d="M208.646,-209.368C259.779,-185.216 401.739,-124 527,-124 527,-124 527,-124 1218,-124 1318.47,-124 1434.49,-124 1508.26,-124"/>
<polygon fill="midnightblue" stroke="midnightblue" points="1508.39,-127.5 1518.39,-124 1508.39,-120.5 1508.39,-127.5"/>
</g>
<!-- Node6 -->
<g id="node6" class="node"><title>Node6</title>
<g id="a_node6"><a xlink:href="../../da/de2/class_sticky_box.html#a69e5ccf2a79159c03dea2e048df13318" target="_top" xlink:title="StickyBox.getYDirection">
<polygon fill="white" stroke="black" points="1519,-76.5 1519,-95.5 1649,-95.5 1649,-76.5 1519,-76.5"/>
<text text-anchor="middle" x="1584" y="-83.5" font-family="Helvetica,sans-Serif" font-size="10.00">StickyBox.getYDirection</text>
</a>
</g>
</g>
<!-- Node2&#45;&gt;Node6 -->
<g id="edge47" class="edge"><title>Node2&#45;&gt;Node6</title>
<path fill="none" stroke="midnightblue" d="M197.512,-209.33C213.803,-191.36 251.232,-152.596 290,-130 386.297,-73.8735 415.54,-48 527,-48 527,-48 527,-48 1218,-48 1328.55,-48 1356.23,-53.9063 1466,-67 1483.68,-69.1089 1502.77,-71.9625 1520.3,-74.8166"/>
<polygon fill="midnightblue" stroke="midnightblue" points="1519.99,-78.3116 1530.42,-76.4915 1521.13,-71.4055 1519.99,-78.3116"/>
</g>
<!-- Node20 -->
<g id="node20" class="node"><title>Node20</title>
<g id="a_node20"><a xlink:href="../../da/de2/class_sticky_box.html#aa1bb8f78f676b01c688d75d386758444" target="_top" xlink:title="StickyBox.setDirection">
<polygon fill="white" stroke="black" points="1522,-266.5 1522,-285.5 1646,-285.5 1646,-266.5 1522,-266.5"/>
<text text-anchor="middle" x="1584" y="-273.5" font-family="Helvetica,sans-Serif" font-size="10.00">StickyBox.setDirection</text>
</a>
</g>
</g>
<!-- Node2&#45;&gt;Node20 -->
<g id="edge48" class="edge"><title>Node2&#45;&gt;Node20</title>
<path fill="none" stroke="midnightblue" d="M253.736,-224.804C321.726,-230.391 431.787,-238 527,-238 527,-238 527,-238 895,-238 1013.55,-238 1360.92,-260.777 1511.74,-271.063"/>
<polygon fill="midnightblue" stroke="midnightblue" points="1511.61,-274.562 1521.82,-271.752 1512.08,-267.578 1511.61,-274.562"/>
</g>
<!-- Node21 -->
<g id="node21" class="node"><title>Node21</title>
<g id="a_node21"><a xlink:href="../../da/de2/class_sticky_box.html#a5d95d2ed2e13f0d87a44311db77f9e36" target="_top" xlink:title="StickyBox.setPreviousDirection">
<polygon fill="white" stroke="black" points="1502,-228.5 1502,-247.5 1666,-247.5 1666,-228.5 1502,-228.5"/>
<text text-anchor="middle" x="1584" y="-235.5" font-family="Helvetica,sans-Serif" font-size="10.00">StickyBox.setPreviousDirection</text>
</a>
</g>
</g>
<!-- Node2&#45;&gt;Node21 -->
<g id="edge45" class="edge"><title>Node2&#45;&gt;Node21</title>
<path fill="none" stroke="midnightblue" d="M253.736,-213.196C321.726,-207.609 431.787,-200 527,-200 527,-200 527,-200 1218,-200 1328.55,-200 1356.23,-205.906 1466,-219 1483.68,-221.109 1502.77,-223.963 1520.3,-226.817"/>
<polygon fill="midnightblue" stroke="midnightblue" points="1519.99,-230.312 1530.42,-228.491 1521.13,-223.406 1519.99,-230.312"/>
</g>
<!-- Node36 -->
<g id="node36" class="node"><title>Node36</title>
<g id="a_node36"><a xlink:href="../../da/de2/class_sticky_box.html#a59337f0aa3c7379a2cb9c76bdc621daf" target="_top" xlink:title="StickyBox.setStuck">
<polygon fill="white" stroke="black" points="309,-0.5 309,-19.5 417,-19.5 417,-0.5 309,-0.5"/>
<text text-anchor="middle" x="363" y="-7.5" font-family="Helvetica,sans-Serif" font-size="10.00">StickyBox.setStuck</text>
</a>
</g>
</g>
<!-- Node2&#45;&gt;Node36 -->
<g id="edge44" class="edge"><title>Node2&#45;&gt;Node36</title>
<path fill="none" stroke="midnightblue" d="M191.53,-209.327C199.993,-178.867 230.206,-83.9978 290,-34 294.975,-29.84 300.699,-26.3924 306.699,-23.5372"/>
<polygon fill="midnightblue" stroke="midnightblue" points="308.416,-26.6124 316.288,-19.5206 305.712,-20.156 308.416,-26.6124"/>
</g>
<!-- Node37 -->
<g id="node37" class="node"><title>Node37</title>
<g id="a_node37"><a xlink:href="../../da/de2/class_sticky_box.html#a185ee469367b376e6c5969a03d089d57" target="_top" xlink:title="StickyBox.move">
<polygon fill="white" stroke="black" points="316.5,-266.5 316.5,-285.5 409.5,-285.5 409.5,-266.5 316.5,-266.5"/>
<text text-anchor="middle" x="363" y="-273.5" font-family="Helvetica,sans-Serif" font-size="10.00">StickyBox.move</text>
</a>
</g>
</g>
<!-- Node2&#45;&gt;Node37 -->
<g id="edge49" class="edge"><title>Node2&#45;&gt;Node37</title>
<path fill="none" stroke="midnightblue" d="M217.956,-228.541C246.772,-238.035 291.182,-252.667 323.071,-263.174"/>
<polygon fill="midnightblue" stroke="midnightblue" points="322.356,-266.623 332.949,-266.428 324.547,-259.975 322.356,-266.623"/>
</g>
<!-- Node4 -->
<g id="node4" class="node"><title>Node4</title>
<g id="a_node4"><a xlink:href="../../db/d97/class_box_world.html#a55add11037cd6dc48556f2f42a9e11be" target="_top" xlink:title="BoxWorld.checkCollide">
<polygon fill="white" stroke="black" points="1336,-76.5 1336,-95.5 1458,-95.5 1458,-76.5 1336,-76.5"/>
<text text-anchor="middle" x="1397" y="-83.5" font-family="Helvetica,sans-Serif" font-size="10.00">BoxWorld.checkCollide</text>
</a>
</g>
</g>
<!-- Node3&#45;&gt;Node4 -->
<g id="edge3" class="edge"><title>Node3&#45;&gt;Node4</title>
<path fill="none" stroke="midnightblue" d="M410.28,-304.46C469.013,-293.204 573.57,-276 664,-276 664,-276 664,-276 895,-276 1091.35,-276 1304.5,-146.838 1373.27,-101.502"/>
<polygon fill="midnightblue" stroke="midnightblue" points="1375.62,-104.142 1381.99,-95.6833 1371.73,-98.3179 1375.62,-104.142"/>
</g>
<!-- Node7 -->
<g id="node7" class="node"><title>Node7</title>
<g id="a_node7"><a xlink:href="../../db/d97/class_box_world.html#a72bacb2a6757900d8835249929fcc838" target="_top" xlink:title="BoxWorld.loseGame">
<polygon fill="white" stroke="black" points="472,-342.5 472,-361.5 584,-361.5 584,-342.5 472,-342.5"/>
<text text-anchor="middle" x="528" y="-349.5" font-family="Helvetica,sans-Serif" font-size="10.00">BoxWorld.loseGame</text>
</a>
</g>
</g>
<!-- Node3&#45;&gt;Node7 -->
<g id="edge6" class="edge"><title>Node3&#45;&gt;Node7</title>
<path fill="none" stroke="midnightblue" d="M405.132,-323.589C426.738,-328.626 453.409,-334.844 476.286,-340.177"/>
<polygon fill="midnightblue" stroke="midnightblue" points="475.63,-343.618 486.164,-342.48 477.22,-336.801 475.63,-343.618"/>
</g>
<!-- Node22 -->
<g id="node22" class="node"><title>Node22</title>
<g id="a_node22"><a xlink:href="../../db/d97/class_box_world.html#aad670712776afe126e51791097027e05" target="_top" xlink:title="BoxWorld.winLevel">
<polygon fill="white" stroke="black" points="1345.5,-342.5 1345.5,-361.5 1448.5,-361.5 1448.5,-342.5 1345.5,-342.5"/>
<text text-anchor="middle" x="1397" y="-349.5" font-family="Helvetica,sans-Serif" font-size="10.00">BoxWorld.winLevel</text>
</a>
</g>
</g>
<!-- Node3&#45;&gt;Node22 -->
<g id="edge43" class="edge"><title>Node3&#45;&gt;Node22</title>
<path fill="none" stroke="midnightblue" d="M379.141,-323.648C399.507,-336.23 437.196,-358.146 472,-371 651.937,-437.454 701.184,-466 893,-466 893,-466 893,-466 1045,-466 1172.49,-466 1313.86,-397.122 1370.5,-366.444"/>
<polygon fill="midnightblue" stroke="midnightblue" points="1372.38,-369.405 1379.46,-361.523 1369.01,-363.269 1372.38,-369.405"/>
</g>
<!-- Node35 -->
<g id="node35" class="node"><title>Node35</title>
<g id="a_node35"><a xlink:href="../../db/d97/class_box_world.html#a167adb49603af3a303ee958011243b5f" target="_top" xlink:title="BoxWorld.onScreen">
<polygon fill="white" stroke="black" points="473.5,-304.5 473.5,-323.5 582.5,-323.5 582.5,-304.5 473.5,-304.5"/>
<text text-anchor="middle" x="528" y="-311.5" font-family="Helvetica,sans-Serif" font-size="10.00">BoxWorld.onScreen</text>
</a>
</g>
</g>
<!-- Node3&#45;&gt;Node35 -->
<g id="edge42" class="edge"><title>Node3&#45;&gt;Node35</title>
<path fill="none" stroke="midnightblue" d="M436.443,-314C445.366,-314 454.435,-314 463.216,-314"/>
<polygon fill="midnightblue" stroke="midnightblue" points="463.365,-317.5 473.365,-314 463.365,-310.5 463.365,-317.5"/>
</g>
<!-- Node4&#45;&gt;Node5 -->
<g id="edge4" class="edge"><title>Node4&#45;&gt;Node5</title>
<path fill="none" stroke="midnightblue" d="M1444.68,-95.589C1469.65,-100.716 1500.56,-107.067 1526.83,-112.463"/>
<polygon fill="midnightblue" stroke="midnightblue" points="1526.15,-115.896 1536.65,-114.48 1527.56,-109.039 1526.15,-115.896"/>
</g>
<!-- Node4&#45;&gt;Node6 -->
<g id="edge5" class="edge"><title>Node4&#45;&gt;Node6</title>
<path fill="none" stroke="midnightblue" d="M1458.06,-86C1474.14,-86 1491.71,-86 1508.47,-86"/>
<polygon fill="midnightblue" stroke="midnightblue" points="1508.77,-89.5001 1518.77,-86 1508.77,-82.5001 1508.77,-89.5001"/>
</g>
<!-- Node8 -->
<g id="node8" class="node"><title>Node8</title>
<g id="a_node8"><a xlink:href="../../d4/d2f/class_lose_screen.html#a34f2cc2c803500316c9b8d854854d758" target="_top" xlink:title="LoseScreen.init">
<polygon fill="white" stroke="black" points="620,-342.5 620,-361.5 710,-361.5 710,-342.5 620,-342.5"/>
<text text-anchor="middle" x="665" y="-349.5" font-family="Helvetica,sans-Serif" font-size="10.00">LoseScreen.init</text>
</a>
</g>
</g>
<!-- Node7&#45;&gt;Node8 -->
<g id="edge7" class="edge"><title>Node7&#45;&gt;Node8</title>
<path fill="none" stroke="midnightblue" d="M584.299,-352C592.686,-352 601.332,-352 609.697,-352"/>
<polygon fill="midnightblue" stroke="midnightblue" points="609.724,-355.5 619.724,-352 609.724,-348.5 609.724,-355.5"/>
</g>
<!-- Node9 -->
<g id="node9" class="node"><title>Node9</title>
<g id="a_node9"><a xlink:href="../../d2/db8/class_menu.html#a3c99ad09e9f2f975c1a0d0597642651a" target="_top" xlink:title="Menu.init">
<polygon fill="white" stroke="black" points="746,-352.5 746,-371.5 806,-371.5 806,-352.5 746,-352.5"/>
<text text-anchor="middle" x="776" y="-359.5" font-family="Helvetica,sans-Serif" font-size="10.00">Menu.init</text>
</a>
</g>
</g>
<!-- Node8&#45;&gt;Node9 -->
<g id="edge8" class="edge"><title>Node8&#45;&gt;Node9</title>
<path fill="none" stroke="midnightblue" d="M710.02,-356.039C718.495,-356.816 727.322,-357.626 735.637,-358.389"/>
<polygon fill="midnightblue" stroke="midnightblue" points="735.555,-361.896 745.833,-359.324 736.194,-354.925 735.555,-361.896"/>
</g>
<!-- Node10 -->
<g id="node10" class="node"><title>Node10</title>
<g id="a_node10"><a xlink:href="../../d2/db8/class_menu.html#a8a6e6125f0dc2dc7e19c6655ba6376a2" target="_top" xlink:title="Menu.addIntroText">
<polygon fill="white" stroke="black" points="842,-352.5 842,-371.5 946,-371.5 946,-352.5 842,-352.5"/>
<text text-anchor="middle" x="894" y="-359.5" font-family="Helvetica,sans-Serif" font-size="10.00">Menu.addIntroText</text>
</a>
</g>
</g>
<!-- Node9&#45;&gt;Node10 -->
<g id="edge9" class="edge"><title>Node9&#45;&gt;Node10</title>
<path fill="none" stroke="midnightblue" d="M806.272,-362C813.99,-362 822.617,-362 831.354,-362"/>
<polygon fill="midnightblue" stroke="midnightblue" points="831.614,-365.5 841.614,-362 831.614,-358.5 831.614,-365.5"/>
</g>
<!-- Node11 -->
<g id="node11" class="node"><title>Node11</title>
<g id="a_node11"><a xlink:href="../../db/d97/class_box_world.html#a55bf92d3f466bfaade0f6d199d8c9bd9" target="_top" xlink:title="BoxWorld.init">
<polygon fill="white" stroke="black" points="855.5,-409.5 855.5,-428.5 932.5,-428.5 932.5,-409.5 855.5,-409.5"/>
<text text-anchor="middle" x="894" y="-416.5" font-family="Helvetica,sans-Serif" font-size="10.00">BoxWorld.init</text>
</a>
</g>
</g>
<!-- Node9&#45;&gt;Node11 -->
<g id="edge10" class="edge"><title>Node9&#45;&gt;Node11</title>
<path fill="none" stroke="midnightblue" d="M796.416,-371.541C814.985,-380.665 843.21,-394.534 864.361,-404.927"/>
<polygon fill="midnightblue" stroke="midnightblue" points="863.002,-408.159 873.521,-409.428 866.089,-401.877 863.002,-408.159"/>
</g>
<!-- Node11&#45;&gt;Node1 -->
<g id="edge41" class="edge"><title>Node11&#45;&gt;Node1</title>
<path fill="none" stroke="midnightblue" d="M855.263,-421.412C810.232,-424.078 732.655,-428 666,-428 362,-428 362,-428 362,-428 268.388,-428 159.276,-428 96.2643,-428"/>
<polygon fill="midnightblue" stroke="midnightblue" points="96.18,-424.5 86.1799,-428 96.1799,-431.5 96.18,-424.5"/>
</g>
<!-- Node12 -->
<g id="node12" class="node"><title>Node12</title>
<g id="a_node12"><a xlink:href="../../db/d97/class_box_world.html#a69798621c944e846f045aaf3937505f9" target="_top" xlink:title="BoxWorld.addStarterObjects">
<polygon fill="white" stroke="black" points="1718.5,-475.5 1718.5,-494.5 1869.5,-494.5 1869.5,-475.5 1718.5,-475.5"/>
<text text-anchor="middle" x="1794" y="-482.5" font-family="Helvetica,sans-Serif" font-size="10.00">BoxWorld.addStarterObjects</text>
</a>
</g>
</g>
<!-- Node11&#45;&gt;Node12 -->
<g id="edge11" class="edge"><title>Node11&#45;&gt;Node12</title>
<path fill="none" stroke="midnightblue" d="M932.727,-421.773C1066.25,-431.587 1518.57,-464.831 1708.22,-478.769"/>
<polygon fill="midnightblue" stroke="midnightblue" points="1708.19,-482.276 1718.42,-479.519 1708.7,-475.295 1708.19,-482.276"/>
</g>
<!-- Node14 -->
<g id="node14" class="node"><title>Node14</title>
<g id="a_node14"><a xlink:href="../../db/d97/class_box_world.html#a726e747e023543658d7a345cc6466ccb" target="_top" xlink:title="BoxWorld.createScene">
<polygon fill="white" stroke="black" points="982,-361.5 982,-380.5 1106,-380.5 1106,-361.5 982,-361.5"/>
<text text-anchor="middle" x="1044" y="-368.5" font-family="Helvetica,sans-Serif" font-size="10.00">BoxWorld.createScene</text>
</a>
</g>
</g>
<!-- Node11&#45;&gt;Node14 -->
<g id="edge13" class="edge"><title>Node11&#45;&gt;Node14</title>
<path fill="none" stroke="midnightblue" d="M924.594,-409.402C947.281,-402.044 978.805,-391.82 1003.62,-383.771"/>
<polygon fill="midnightblue" stroke="midnightblue" points="1005.02,-386.996 1013.46,-380.582 1002.86,-380.337 1005.02,-386.996"/>
</g>
<!-- Node13 -->
<g id="node13" class="node"><title>Node13</title>
<g id="a_node13"><a xlink:href="../../db/d97/class_box_world.html#a2542cc74ebeba6a9768a443a55186901" target="_top" xlink:title="BoxWorld.createObstacleArray">
<polygon fill="white" stroke="black" points="1922.5,-475.5 1922.5,-494.5 2083.5,-494.5 2083.5,-475.5 1922.5,-475.5"/>
<text text-anchor="middle" x="2003" y="-482.5" font-family="Helvetica,sans-Serif" font-size="10.00">BoxWorld.createObstacleArray</text>
</a>
</g>
</g>
<!-- Node12&#45;&gt;Node13 -->
<g id="edge12" class="edge"><title>Node12&#45;&gt;Node13</title>
<path fill="none" stroke="midnightblue" d="M1869.73,-485C1883.52,-485 1898.06,-485 1912.24,-485"/>
<polygon fill="midnightblue" stroke="midnightblue" points="1912.49,-488.5 1922.49,-485 1912.49,-481.5 1912.49,-488.5"/>
</g>
<!-- Node15 -->
<g id="node15" class="node"><title>Node15</title>
<g id="a_node15"><a xlink:href="../../db/d97/class_box_world.html#aa7e2049d7be23e15fd2ec7fa2922ed79" target="_top" xlink:title="BoxWorld.handleKeyInput">
<polygon fill="white" stroke="black" points="1149,-304.5 1149,-323.5 1285,-323.5 1285,-304.5 1149,-304.5"/>
<text text-anchor="middle" x="1217" y="-311.5" font-family="Helvetica,sans-Serif" font-size="10.00">BoxWorld.handleKeyInput</text>
</a>
</g>
</g>
<!-- Node14&#45;&gt;Node15 -->
<g id="edge14" class="edge"><title>Node14&#45;&gt;Node15</title>
<path fill="none" stroke="midnightblue" d="M1067.07,-361.464C1086.55,-353.261 1115.84,-341.448 1142,-333 1149.45,-330.593 1157.41,-328.285 1165.23,-326.159"/>
<polygon fill="midnightblue" stroke="midnightblue" points="1166.26,-329.508 1175.03,-323.569 1164.47,-322.741 1166.26,-329.508"/>
</g>
<!-- Node34 -->
<g id="node34" class="node"><title>Node34</title>
<g id="a_node34"><a xlink:href="../../db/d97/class_box_world.html#a2d44485a181577acb4d79b6b81f26fff" target="_top" xlink:title="BoxWorld.handleKeyRelease">
<polygon fill="white" stroke="black" points="1142.5,-342.5 1142.5,-361.5 1291.5,-361.5 1291.5,-342.5 1142.5,-342.5"/>
<text text-anchor="middle" x="1217" y="-349.5" font-family="Helvetica,sans-Serif" font-size="10.00">BoxWorld.handleKeyRelease</text>
</a>
</g>
</g>
<!-- Node14&#45;&gt;Node34 -->
<g id="edge40" class="edge"><title>Node14&#45;&gt;Node34</title>
<path fill="none" stroke="midnightblue" d="M1106.25,-364.194C1114.66,-363.261 1123.4,-362.289 1132.12,-361.32"/>
<polygon fill="midnightblue" stroke="midnightblue" points="1132.77,-364.769 1142.33,-360.186 1132,-357.812 1132.77,-364.769"/>
</g>
<!-- Node16 -->
<g id="node16" class="node"><title>Node16</title>
<g id="a_node16"><a xlink:href="../../db/d97/class_box_world.html#adc4c9d78ffde3d052c4c92047eb98e55" target="_top" xlink:title="BoxWorld.allowMovement">
<polygon fill="white" stroke="black" points="1328.5,-152.5 1328.5,-171.5 1465.5,-171.5 1465.5,-152.5 1328.5,-152.5"/>
<text text-anchor="middle" x="1397" y="-159.5" font-family="Helvetica,sans-Serif" font-size="10.00">BoxWorld.allowMovement</text>
</a>
</g>
</g>
<!-- Node15&#45;&gt;Node16 -->
<g id="edge15" class="edge"><title>Node15&#45;&gt;Node16</title>
<path fill="none" stroke="midnightblue" d="M1229.2,-304.235C1249.03,-286.958 1291.68,-249.905 1328,-219 1344.32,-205.112 1362.99,-189.484 1376.63,-178.11"/>
<polygon fill="midnightblue" stroke="midnightblue" points="1378.96,-180.72 1384.41,-171.63 1374.48,-175.342 1378.96,-180.72"/>
</g>
<!-- Node19 -->
<g id="node19" class="node"><title>Node19</title>
<g id="a_node19"><a xlink:href="../../db/d97/class_box_world.html#a04c6bf977c4292a5433649fb3745fd6b" target="_top" xlink:title="BoxWorld.reset">
<polygon fill="white" stroke="black" points="1353,-228.5 1353,-247.5 1441,-247.5 1441,-228.5 1353,-228.5"/>
<text text-anchor="middle" x="1397" y="-235.5" font-family="Helvetica,sans-Serif" font-size="10.00">BoxWorld.reset</text>
</a>
</g>
</g>
<!-- Node15&#45;&gt;Node19 -->
<g id="edge20" class="edge"><title>Node15&#45;&gt;Node19</title>
<path fill="none" stroke="midnightblue" d="M1240.54,-304.375C1271.84,-291.012 1328.61,-266.773 1364.2,-251.577"/>
<polygon fill="midnightblue" stroke="midnightblue" points="1365.82,-254.693 1373.64,-247.547 1363.07,-248.255 1365.82,-254.693"/>
</g>
<!-- Node15&#45;&gt;Node20 -->
<g id="edge23" class="edge"><title>Node15&#45;&gt;Node20</title>
<path fill="none" stroke="midnightblue" d="M1285.14,-307.916C1335.06,-303.293 1404.82,-296.619 1466,-290 1480.71,-288.409 1496.44,-286.599 1511.45,-284.822"/>
<polygon fill="midnightblue" stroke="midnightblue" points="1512.19,-288.259 1521.7,-283.6 1511.36,-281.308 1512.19,-288.259"/>
</g>
<!-- Node15&#45;&gt;Node22 -->
<g id="edge24" class="edge"><title>Node15&#45;&gt;Node22</title>
<path fill="none" stroke="midnightblue" d="M1262.92,-323.589C1286.83,-328.694 1316.42,-335.011 1341.62,-340.392"/>
<polygon fill="midnightblue" stroke="midnightblue" points="1340.9,-343.815 1351.41,-342.48 1342.36,-336.969 1340.9,-343.815"/>
</g>
<!-- Node16&#45;&gt;Node5 -->
<g id="edge16" class="edge"><title>Node16&#45;&gt;Node5</title>
<path fill="none" stroke="midnightblue" d="M1444.68,-152.411C1469.65,-147.284 1500.56,-140.933 1526.83,-135.537"/>
<polygon fill="midnightblue" stroke="midnightblue" points="1527.56,-138.961 1536.65,-133.52 1526.15,-132.104 1527.56,-138.961"/>
</g>
<!-- Node16&#45;&gt;Node6 -->
<g id="edge18" class="edge"><title>Node16&#45;&gt;Node6</title>
<path fill="none" stroke="midnightblue" d="M1412.54,-152.364C1432.11,-139.794 1468.35,-117.891 1502,-105 1508.68,-102.442 1515.8,-100.163 1522.95,-98.1503"/>
<polygon fill="midnightblue" stroke="midnightblue" points="1523.9,-101.518 1532.67,-95.5701 1522.11,-94.7526 1523.9,-101.518"/>
</g>
<!-- Node17 -->
<g id="node17" class="node"><title>Node17</title>
<g id="a_node17"><a xlink:href="../../da/de2/class_sticky_box.html#ab0bd7cafb7f243e3951558ddb8728b96" target="_top" xlink:title="StickyBox.getXPrev">
<polygon fill="white" stroke="black" points="1529.5,-190.5 1529.5,-209.5 1638.5,-209.5 1638.5,-190.5 1529.5,-190.5"/>
<text text-anchor="middle" x="1584" y="-197.5" font-family="Helvetica,sans-Serif" font-size="10.00">StickyBox.getXPrev</text>
</a>
</g>
</g>
<!-- Node16&#45;&gt;Node17 -->
<g id="edge17" class="edge"><title>Node16&#45;&gt;Node17</title>
<path fill="none" stroke="midnightblue" d="M1444.68,-171.589C1469.65,-176.716 1500.56,-183.067 1526.83,-188.463"/>
<polygon fill="midnightblue" stroke="midnightblue" points="1526.15,-191.896 1536.65,-190.48 1527.56,-185.039 1526.15,-191.896"/>
</g>
<!-- Node18 -->
<g id="node18" class="node"><title>Node18</title>
<g id="a_node18"><a xlink:href="../../da/de2/class_sticky_box.html#a4c6abed944faed9d9b226079e99cfc24" target="_top" xlink:title="StickyBox.getYPrev">
<polygon fill="white" stroke="black" points="1530,-152.5 1530,-171.5 1638,-171.5 1638,-152.5 1530,-152.5"/>
<text text-anchor="middle" x="1584" y="-159.5" font-family="Helvetica,sans-Serif" font-size="10.00">StickyBox.getYPrev</text>
</a>
</g>
</g>
<!-- Node16&#45;&gt;Node18 -->
<g id="edge19" class="edge"><title>Node16&#45;&gt;Node18</title>
<path fill="none" stroke="midnightblue" d="M1465.57,-162C1483.26,-162 1502.27,-162 1519.72,-162"/>
<polygon fill="midnightblue" stroke="midnightblue" points="1519.8,-165.5 1529.8,-162 1519.8,-158.5 1519.8,-165.5"/>
</g>
<!-- Node19&#45;&gt;Node20 -->
<g id="edge21" class="edge"><title>Node19&#45;&gt;Node20</title>
<path fill="none" stroke="midnightblue" d="M1441.37,-246.909C1466.87,-252.145 1499.37,-258.822 1526.81,-264.458"/>
<polygon fill="midnightblue" stroke="midnightblue" points="1526.16,-267.899 1536.66,-266.482 1527.57,-261.042 1526.16,-267.899"/>
</g>
<!-- Node19&#45;&gt;Node21 -->
<g id="edge22" class="edge"><title>Node19&#45;&gt;Node21</title>
<path fill="none" stroke="midnightblue" d="M1441.37,-238C1456.46,-238 1474.01,-238 1491.5,-238"/>
<polygon fill="midnightblue" stroke="midnightblue" points="1491.78,-241.5 1501.78,-238 1491.78,-234.5 1491.78,-241.5"/>
</g>
<!-- Node23 -->
<g id="node23" class="node"><title>Node23</title>
<g id="a_node23"><a xlink:href="../../d6/d4f/class_item_box_world.html#aa559fc2680327b41fb376e2eda8e82e3" target="_top" xlink:title="ItemBoxWorld.init">
<polygon fill="white" stroke="black" points="1534.5,-361.5 1534.5,-380.5 1633.5,-380.5 1633.5,-361.5 1534.5,-361.5"/>
<text text-anchor="middle" x="1584" y="-368.5" font-family="Helvetica,sans-Serif" font-size="10.00">ItemBoxWorld.init</text>
</a>
</g>
</g>
<!-- Node22&#45;&gt;Node23 -->
<g id="edge25" class="edge"><title>Node22&#45;&gt;Node23</title>
<path fill="none" stroke="midnightblue" d="M1448.55,-357.192C1471.95,-359.595 1499.9,-362.466 1524.24,-364.965"/>
<polygon fill="midnightblue" stroke="midnightblue" points="1524.12,-368.471 1534.42,-366.011 1524.83,-361.508 1524.12,-368.471"/>
</g>
<!-- Node23&#45;&gt;Node1 -->
<g id="edge36" class="edge"><title>Node23&#45;&gt;Node1</title>
<path fill="none" stroke="midnightblue" d="M1560.93,-380.565C1488.51,-411.061 1250.9,-504 1045,-504 362,-504 362,-504 362,-504 255.439,-504 134.159,-463.131 77.0504,-441.333"/>
<polygon fill="midnightblue" stroke="midnightblue" points="78.064,-437.972 67.4749,-437.625 75.5367,-444.5 78.064,-437.972"/>
</g>
<!-- Node23&#45;&gt;Node12 -->
<g id="edge30" class="edge"><title>Node23&#45;&gt;Node12</title>
<path fill="none" stroke="midnightblue" d="M1593.64,-380.58C1611.71,-399.988 1655.69,-443.975 1702,-466 1707.23,-468.487 1712.78,-470.65 1718.46,-472.53"/>
<polygon fill="midnightblue" stroke="midnightblue" points="1717.52,-475.903 1728.1,-475.437 1719.54,-469.201 1717.52,-475.903"/>
</g>
<!-- Node23&#45;&gt;Node14 -->
<g id="edge39" class="edge"><title>Node23&#45;&gt;Node14</title>
<path fill="none" stroke="midnightblue" d="M1534.49,-371C1439.27,-371 1227.49,-371 1116.3,-371"/>
<polygon fill="midnightblue" stroke="midnightblue" points="1116.19,-367.5 1106.19,-371 1116.19,-374.5 1116.19,-367.5"/>
</g>
<!-- Node24 -->
<g id="node24" class="node"><title>Node24</title>
<g id="a_node24"><a xlink:href="../../db/d97/class_box_world.html#a25c34c68bdd68debd7de01a4f3b98bb1" target="_top" xlink:title="BoxWorld.setStage">
<polygon fill="white" stroke="black" points="1740.5,-285.5 1740.5,-304.5 1847.5,-304.5 1847.5,-285.5 1740.5,-285.5"/>
<text text-anchor="middle" x="1794" y="-292.5" font-family="Helvetica,sans-Serif" font-size="10.00">BoxWorld.setStage</text>
</a>
</g>
</g>
<!-- Node23&#45;&gt;Node24 -->
<g id="edge26" class="edge"><title>Node23&#45;&gt;Node24</title>
<path fill="none" stroke="midnightblue" d="M1601.49,-361.335C1623.65,-348.735 1664.59,-326.797 1702,-314 1711.07,-310.899 1720.82,-308.214 1730.46,-305.919"/>
<polygon fill="midnightblue" stroke="midnightblue" points="1731.45,-309.285 1740.43,-303.668 1729.9,-302.457 1731.45,-309.285"/>
</g>
<!-- Node25 -->
<g id="node25" class="node"><title>Node25</title>
<g id="a_node25"><a xlink:href="../../db/d97/class_box_world.html#a3735494d6eeffc036cd757eb21170eb0" target="_top" xlink:title="BoxWorld.setObstacleXCoordinates">
<polygon fill="white" stroke="black" points="1702.5,-247.5 1702.5,-266.5 1885.5,-266.5 1885.5,-247.5 1702.5,-247.5"/>
<text text-anchor="middle" x="1794" y="-254.5" font-family="Helvetica,sans-Serif" font-size="10.00">BoxWorld.setObstacleXCoordinates</text>
</a>
</g>
</g>
<!-- Node23&#45;&gt;Node25 -->
<g id="edge27" class="edge"><title>Node23&#45;&gt;Node25</title>
<path fill="none" stroke="midnightblue" d="M1593.64,-361.42C1611.71,-342.012 1655.69,-298.025 1702,-276 1707.23,-273.513 1712.78,-271.35 1718.46,-269.47"/>
<polygon fill="midnightblue" stroke="midnightblue" points="1719.54,-272.799 1728.1,-266.563 1717.52,-266.097 1719.54,-272.799"/>
</g>
<!-- Node26 -->
<g id="node26" class="node"><title>Node26</title>
<g id="a_node26"><a xlink:href="../../db/d97/class_box_world.html#ab45827804913790744cdbaaf8a222256" target="_top" xlink:title="BoxWorld.setObstacleYCoordinates">
<polygon fill="white" stroke="black" points="1703,-209.5 1703,-228.5 1885,-228.5 1885,-209.5 1703,-209.5"/>
<text text-anchor="middle" x="1794" y="-216.5" font-family="Helvetica,sans-Serif" font-size="10.00">BoxWorld.setObstacleYCoordinates</text>
</a>
</g>
</g>
<!-- Node23&#45;&gt;Node26 -->
<g id="edge28" class="edge"><title>Node23&#45;&gt;Node26</title>
<path fill="none" stroke="midnightblue" d="M1597.17,-361.273C1613.87,-347.574 1644.27,-321.318 1666,-295 1685.08,-271.896 1677.38,-255.083 1702,-238 1704.87,-236.007 1707.91,-234.216 1711.06,-232.606"/>
<polygon fill="midnightblue" stroke="midnightblue" points="1712.51,-235.795 1720.22,-228.532 1709.66,-229.399 1712.51,-235.795"/>
</g>
<!-- Node27 -->
<g id="node27" class="node"><title>Node27</title>
<g id="a_node27"><a xlink:href="../../db/d97/class_box_world.html#aeeaafc4ff103ded208e6c9393eb4ceca" target="_top" xlink:title="BoxWorld.setRoot">
<polygon fill="white" stroke="black" points="1744.5,-437.5 1744.5,-456.5 1843.5,-456.5 1843.5,-437.5 1744.5,-437.5"/>
<text text-anchor="middle" x="1794" y="-444.5" font-family="Helvetica,sans-Serif" font-size="10.00">BoxWorld.setRoot</text>
</a>
</g>
</g>
<!-- Node23&#45;&gt;Node27 -->
<g id="edge29" class="edge"><title>Node23&#45;&gt;Node27</title>
<path fill="none" stroke="midnightblue" d="M1601.49,-380.665C1623.65,-393.265 1664.59,-415.203 1702,-428 1712.29,-431.519 1723.46,-434.502 1734.35,-436.987"/>
<polygon fill="midnightblue" stroke="midnightblue" points="1733.71,-440.431 1744.23,-439.131 1735.2,-433.59 1733.71,-440.431"/>
</g>
<!-- Node28 -->
<g id="node28" class="node"><title>Node28</title>
<g id="a_node28"><a xlink:href="../../d6/d4f/class_item_box_world.html#a7ead15fd9fd8095f928640161d48fdf8" target="_top" xlink:title="ItemBoxWorld.addAllItems">
<polygon fill="white" stroke="black" points="1723.5,-399.5 1723.5,-418.5 1864.5,-418.5 1864.5,-399.5 1723.5,-399.5"/>
<text text-anchor="middle" x="1794" y="-406.5" font-family="Helvetica,sans-Serif" font-size="10.00">ItemBoxWorld.addAllItems</text>
</a>
</g>
</g>
<!-- Node23&#45;&gt;Node28 -->
<g id="edge31" class="edge"><title>Node23&#45;&gt;Node28</title>
<path fill="none" stroke="midnightblue" d="M1633.5,-379.861C1662.53,-385.165 1699.72,-391.959 1730.89,-397.652"/>
<polygon fill="midnightblue" stroke="midnightblue" points="1730.31,-401.105 1740.78,-399.459 1731.57,-394.219 1730.31,-401.105"/>
</g>
<!-- Node32 -->
<g id="node32" class="node"><title>Node32</title>
<g id="a_node32"><a xlink:href="../../db/d97/class_box_world.html#a8d7d9f1ae1ebcd87ff73c09780b70629" target="_top" xlink:title="BoxWorld.setAnimation">
<polygon fill="white" stroke="black" points="1730.5,-361.5 1730.5,-380.5 1857.5,-380.5 1857.5,-361.5 1730.5,-361.5"/>
<text text-anchor="middle" x="1794" y="-368.5" font-family="Helvetica,sans-Serif" font-size="10.00">BoxWorld.setAnimation</text>
</a>
</g>
</g>
<!-- Node23&#45;&gt;Node32 -->
<g id="edge37" class="edge"><title>Node23&#45;&gt;Node32</title>
<path fill="none" stroke="midnightblue" d="M1633.5,-371C1659.16,-371 1691.2,-371 1719.81,-371"/>
<polygon fill="midnightblue" stroke="midnightblue" points="1720.18,-374.5 1730.18,-371 1720.18,-367.5 1720.18,-374.5"/>
</g>
<!-- Node33 -->
<g id="node33" class="node"><title>Node33</title>
<g id="a_node33"><a xlink:href="../../db/d97/class_box_world.html#a61929851f1d60c397e1448e614f1d701" target="_top" xlink:title="BoxWorld.getAnimation">
<polygon fill="white" stroke="black" points="1730,-323.5 1730,-342.5 1858,-342.5 1858,-323.5 1730,-323.5"/>
<text text-anchor="middle" x="1794" y="-330.5" font-family="Helvetica,sans-Serif" font-size="10.00">BoxWorld.getAnimation</text>
</a>
</g>
</g>
<!-- Node23&#45;&gt;Node33 -->
<g id="edge38" class="edge"><title>Node23&#45;&gt;Node33</title>
<path fill="none" stroke="midnightblue" d="M1633.5,-362.139C1662.53,-356.835 1699.72,-350.041 1730.89,-344.348"/>
<polygon fill="midnightblue" stroke="midnightblue" points="1731.57,-347.781 1740.78,-342.541 1730.31,-340.895 1731.57,-347.781"/>
</g>
<!-- Node29 -->
<g id="node29" class="node"><title>Node29</title>
<g id="a_node29"><a xlink:href="../../d6/d4f/class_item_box_world.html#a1890e6c53a4a73e44e9528009fde508d" target="_top" xlink:title="ItemBoxWorld.itemExists">
<polygon fill="white" stroke="black" points="1936,-380.5 1936,-399.5 2070,-399.5 2070,-380.5 1936,-380.5"/>
<text text-anchor="middle" x="2003" y="-387.5" font-family="Helvetica,sans-Serif" font-size="10.00">ItemBoxWorld.itemExists</text>
</a>
</g>
</g>
<!-- Node28&#45;&gt;Node29 -->
<g id="edge32" class="edge"><title>Node28&#45;&gt;Node29</title>
<path fill="none" stroke="midnightblue" d="M1864.5,-402.62C1884.2,-400.813 1905.74,-398.836 1925.8,-396.994"/>
<polygon fill="midnightblue" stroke="midnightblue" points="1926.19,-400.473 1935.83,-396.073 1925.55,-393.502 1926.19,-400.473"/>
</g>
<!-- Node31 -->
<g id="node31" class="node"><title>Node31</title>
<g id="a_node31"><a xlink:href="../../d6/d4f/class_item_box_world.html#af1bcde0672796e926560684004ed8e81" target="_top" xlink:title="ItemBoxWorld.addSingleItem">
<polygon fill="white" stroke="black" points="1926,-418.5 1926,-437.5 2080,-437.5 2080,-418.5 1926,-418.5"/>
<text text-anchor="middle" x="2003" y="-425.5" font-family="Helvetica,sans-Serif" font-size="10.00">ItemBoxWorld.addSingleItem</text>
</a>
</g>
</g>
<!-- Node28&#45;&gt;Node31 -->
<g id="edge34" class="edge"><title>Node28&#45;&gt;Node31</title>
<path fill="none" stroke="midnightblue" d="M1864.5,-415.38C1881,-416.894 1898.79,-418.527 1915.92,-420.099"/>
<polygon fill="midnightblue" stroke="midnightblue" points="1915.64,-423.588 1925.92,-421.017 1916.28,-416.618 1915.64,-423.588"/>
</g>
<!-- Node30 -->
<g id="node30" class="node"><title>Node30</title>
<g id="a_node30"><a xlink:href="../../db/d97/class_box_world.html#abb95adb381902ecab1db85efdc1ea6ff" target="_top" xlink:title="BoxWorld.getRoot">
<polygon fill="white" stroke="black" points="2120,-399.5 2120,-418.5 2220,-418.5 2220,-399.5 2120,-399.5"/>
<text text-anchor="middle" x="2170" y="-406.5" font-family="Helvetica,sans-Serif" font-size="10.00">BoxWorld.getRoot</text>
</a>
</g>
</g>
<!-- Node29&#45;&gt;Node30 -->
<g id="edge33" class="edge"><title>Node29&#45;&gt;Node30</title>
<path fill="none" stroke="midnightblue" d="M2070.16,-397.619C2083.25,-399.126 2096.91,-400.699 2109.75,-402.177"/>
<polygon fill="midnightblue" stroke="midnightblue" points="2109.51,-405.673 2119.85,-403.34 2110.31,-398.719 2109.51,-405.673"/>
</g>
<!-- Node31&#45;&gt;Node30 -->
<g id="edge35" class="edge"><title>Node31&#45;&gt;Node30</title>
<path fill="none" stroke="midnightblue" d="M2080.22,-419.223C2090.14,-418.081 2100.19,-416.924 2109.77,-415.82"/>
<polygon fill="midnightblue" stroke="midnightblue" points="2110.44,-419.267 2119.97,-414.646 2109.63,-412.313 2110.44,-419.267"/>
</g>
</g>
</svg>
        <g id="navigator" transform="translate(0 0)" fill="#404254">
                <rect fill="#f2f5e9" fill-opacity="0.5" stroke="#606060" stroke-width=".5" x="0" y="0" width="60" height="60"/>
                <use id="zoomplus" xlink:href="#zoomPlus" x="17" y="9" onmousedown="handleZoom(evt,'in')"/>
                <use id="zoomminus" xlink:href="#zoomMin" x="42" y="9" onmousedown="handleZoom(evt,'out')"/>
                <use id="reset" xlink:href="#resetDef" x="30" y="36" onmousedown="handleReset()"/>
                <g id="arrowUp" xlink:href="#dirArrow" transform="translate(30 24)" onmousedown="handlePan(0,-1)">
                  <use xlink:href="#rim" fill="#404040">
                        <set attributeName="fill" to="#808080" begin="arrowUp.mouseover" end="arrowUp.mouseout"/>
                  </use>
                  <path fill="none" stroke="white" stroke-width="1.5" d="M0,-3.0v7 M-2.5,-0.5L0,-3.0L2.5,-0.5"/>
                </g>
                <g id="arrowRight" xlink:href="#dirArrow" transform="rotate(90) translate(36 -43)" onmousedown="handlePan(1,0)">
                  <use xlink:href="#rim" fill="#404040">
                        <set attributeName="fill" to="#808080" begin="arrowRight.mouseover" end="arrowRight.mouseout"/>
                  </use>
                  <path fill="none" stroke="white" stroke-width="1.5" d="M0,-3.0v7 M-2.5,-0.5L0,-3.0L2.5,-0.5"/>
                </g>
                <g id="arrowDown" xlink:href="#dirArrow" transform="rotate(180) translate(-30 -48)" onmousedown="handlePan(0,1)">
                  <use xlink:href="#rim" fill="#404040">
                        <set attributeName="fill" to="#808080" begin="arrowDown.mouseover" end="arrowDown.mouseout"/>
                  </use>
                  <path fill="none" stroke="white" stroke-width="1.5" d="M0,-3.0v7 M-2.5,-0.5L0,-3.0L2.5,-0.5"/>
                </g>
                <g id="arrowLeft" xlink:href="#dirArrow" transform="rotate(270) translate(-36 17)" onmousedown="handlePan(-1,0)">
                  <use xlink:href="#rim" fill="#404040">
                        <set attributeName="fill" to="#808080" begin="arrowLeft.mouseover" end="arrowLeft.mouseout"/>
                  </use>
                  <path fill="none" stroke="white" stroke-width="1.5" d="M0,-3.0v7 M-2.5,-0.5L0,-3.0L2.5,-0.5"/>
                </g>
        </g>
        <svg viewBox="0 0 15 15" width="100%" height="30px" preserveAspectRatio="xMaxYMin meet">
         <g id="arrow_out" transform="scale(0.3 0.3)">
          <a xlink:href="class_box_world_ad20a4e43406c44f4bbf201d1d1028998_cgraph_org.svg" target="_base">
           <rect id="button" ry="5" rx="5" y="6" x="6" height="38" width="38"
                fill="#f2f5e9" fill-opacity="0.5" stroke="#606060" stroke-width="1.0"/>
           <path id="arrow"
             d="M 11.500037,31.436501 C 11.940474,20.09759 22.043105,11.32322 32.158766,21.979434 L 37.068811,17.246167 C 37.068811,17.246167 37.088388,32 37.088388,32 L 22.160133,31.978069 C 22.160133,31.978069 26.997745,27.140456 26.997745,27.140456 C 18.528582,18.264221 13.291696,25.230495 11.500037,31.436501 z"
             style="fill:#404040;"/>
          </a>
         </g>
        </svg>
</svg>
