<?xml version="1.0" encoding="UTF-8" standalone="no"?>
<!DOCTYPE svg PUBLIC "-//W3C//DTD SVG 1.1//EN"
 "http://www.w3.org/Graphics/SVG/1.1/DTD/svg11.dtd">
<!-- Generated by graphviz version 2.36.0 (20140111.2315)
 -->
<!-- Title: EndScreen.init Pages: 1 -->
<!--zoomable 550 -->
<svg id="main" version="1.1" xmlns="http://www.w3.org/2000/svg" xmlns:xlink="http://www.w3.org/1999/xlink" xml:space="preserve" onload="init(evt)">
<style type="text/css"><![CDATA[
.edge:hover path { stroke: red; }
.edge:hover polygon { stroke: red; fill: red; }
]]></style>
<script type="text/javascript"><![CDATA[
var edges = document.getElementsByTagName('g');
if (edges && edges.length) {
  for (var i=0;i<edges.length;i++) {
    if (edges[i].id.substr(0,4)=='edge') {
      edges[i].setAttribute('class','edge');
    }
  }
}
]]></script>
        <defs>
                <circle id="rim" cx="0" cy="0" r="7"/>
                <circle id="rim2" cx="0" cy="0" r="3.5"/>
                <g id="zoomPlus">
                        <use xlink:href="#rim" fill="#404040">
                                <set attributeName="fill" to="#808080" begin="zoomplus.mouseover" end="zoomplus.mouseout"/>
                        </use>
                        <path d="M-4,0h8M0,-4v8" fill="none" stroke="white" stroke-width="1.5" pointer-events="none"/>
                </g>
                <g id="zoomMin">
                        <use xlink:href="#rim" fill="#404040">
                                <set attributeName="fill" to="#808080" begin="zoomminus.mouseover" end="zoomminus.mouseout"/>
                        </use>
                        <path d="M-4,0h8" fill="none" stroke="white" stroke-width="1.5" pointer-events="none"/>
                </g>
                <g id="dirArrow">
                        <path fill="none" stroke="white" stroke-width="1.5" d="M0,-3.0v7 M-2.5,-0.5L0,-3.0L2.5,-0.5"/>
                </g>
               <g id="resetDef">
                       <use xlink:href="#rim2" fill="#404040">
                               <set attributeName="fill" to="#808080" begin="reset.mouseover" end="reset.mouseout"/>
                       </use>
               </g>
        </defs>

<script type="text/javascript">
var viewWidth = 1912;
var viewHeight = 550;
var sectionId = 'dynsection-1';
</script>
<script xlink:href="../../svgpan.js"/>
<svg id="graph" class="graph">
<g id="viewport">
<title>EndScreen.init</title>
<polygon fill="white" stroke="none" points="-4,4 -4,-546 1908,-546 1908,4 -4,4"/>
<!-- Node1 -->
<g id="node1" class="node"><title>Node1</title>
<polygon fill="#bfbfbf" stroke="black" points="0,-484.5 0,-503.5 86,-503.5 86,-484.5 0,-484.5"/>
<text text-anchor="middle" x="43" y="-491.5" font-family="Helvetica,sans-Serif" font-size="10.00">EndScreen.init</text>
</g>
<!-- Node2 -->
<g id="node2" class="node"><title>Node2</title>
<g id="a_node2"><a xlink:href="../../d2/db8/class_menu.html#a3c99ad09e9f2f975c1a0d0597642651a" target="_top" xlink:title="Menu.init">
<polygon fill="white" stroke="black" points="122,-484.5 122,-503.5 182,-503.5 182,-484.5 122,-484.5"/>
<text text-anchor="middle" x="152" y="-491.5" font-family="Helvetica,sans-Serif" font-size="10.00">Menu.init</text>
</a>
</g>
</g>
<!-- Node1&#45;&gt;Node2 -->
<g id="edge1" class="edge"><title>Node1&#45;&gt;Node2</title>
<path fill="none" stroke="midnightblue" d="M86.2892,-494C94.6681,-494 103.431,-494 111.705,-494"/>
<polygon fill="midnightblue" stroke="midnightblue" points="111.859,-497.5 121.859,-494 111.859,-490.5 111.859,-497.5"/>
</g>
<!-- Node3 -->
<g id="node3" class="node"><title>Node3</title>
<g id="a_node3"><a xlink:href="../../d2/db8/class_menu.html#a8a6e6125f0dc2dc7e19c6655ba6376a2" target="_top" xlink:title="Menu.addIntroText">
<polygon fill="white" stroke="black" points="218,-522.5 218,-541.5 322,-541.5 322,-522.5 218,-522.5"/>
<text text-anchor="middle" x="270" y="-529.5" font-family="Helvetica,sans-Serif" font-size="10.00">Menu.addIntroText</text>
</a>
</g>
</g>
<!-- Node2&#45;&gt;Node3 -->
<g id="edge2" class="edge"><title>Node2&#45;&gt;Node3</title>
<path fill="none" stroke="midnightblue" d="M182.272,-503.589C196.697,-508.314 214.293,-514.079 229.857,-519.177"/>
<polygon fill="midnightblue" stroke="midnightblue" points="229.145,-522.627 239.738,-522.414 231.324,-515.975 229.145,-522.627"/>
</g>
<!-- Node4 -->
<g id="node4" class="node"><title>Node4</title>
<g id="a_node4"><a xlink:href="../../db/d97/class_box_world.html#a55bf92d3f466bfaade0f6d199d8c9bd9" target="_top" xlink:title="BoxWorld.init">
<polygon fill="white" stroke="black" points="231.5,-389.5 231.5,-408.5 308.5,-408.5 308.5,-389.5 231.5,-389.5"/>
<text text-anchor="middle" x="270" y="-396.5" font-family="Helvetica,sans-Serif" font-size="10.00">BoxWorld.init</text>
</a>
</g>
</g>
<!-- Node2&#45;&gt;Node4 -->
<g id="edge3" class="edge"><title>Node2&#45;&gt;Node4</title>
<path fill="none" stroke="midnightblue" d="M164.977,-484.191C184.965,-467.822 225.303,-434.786 249.454,-415.008"/>
<polygon fill="midnightblue" stroke="midnightblue" points="251.742,-417.658 257.261,-408.614 247.307,-412.242 251.742,-417.658"/>
</g>
<!-- Node5 -->
<g id="node5" class="node"><title>Node5</title>
<g id="a_node5"><a xlink:href="../../db/d97/class_box_world.html#a69798621c944e846f045aaf3937505f9" target="_top" xlink:title="BoxWorld.addStarterObjects">
<polygon fill="white" stroke="black" points="996.5,-28.5 996.5,-47.5 1147.5,-47.5 1147.5,-28.5 996.5,-28.5"/>
<text text-anchor="middle" x="1072" y="-35.5" font-family="Helvetica,sans-Serif" font-size="10.00">BoxWorld.addStarterObjects</text>
</a>
</g>
</g>
<!-- Node4&#45;&gt;Node5 -->
<g id="edge4" class="edge"><title>Node4&#45;&gt;Node5</title>
<path fill="none" stroke="midnightblue" d="M274.043,-389.344C292.795,-331.935 398.267,-38 592,-38 592,-38 592,-38 757,-38 834.588,-38 922.96,-38 986.142,-38"/>
<polygon fill="midnightblue" stroke="midnightblue" points="986.454,-41.5001 996.454,-38 986.454,-34.5001 986.454,-41.5001"/>
</g>
<!-- Node7 -->
<g id="node7" class="node"><title>Node7</title>
<g id="a_node7"><a xlink:href="../../db/d97/class_box_world.html#a726e747e023543658d7a345cc6466ccb" target="_top" xlink:title="BoxWorld.createScene">
<polygon fill="white" stroke="black" points="358,-313.5 358,-332.5 482,-332.5 482,-313.5 358,-313.5"/>
<text text-anchor="middle" x="420" y="-320.5" font-family="Helvetica,sans-Serif" font-size="10.00">BoxWorld.createScene</text>
</a>
</g>
</g>
<!-- Node4&#45;&gt;Node7 -->
<g id="edge6" class="edge"><title>Node4&#45;&gt;Node7</title>
<path fill="none" stroke="midnightblue" d="M289.744,-389.375C315.433,-376.183 361.761,-352.393 391.414,-337.166"/>
<polygon fill="midnightblue" stroke="midnightblue" points="393.111,-340.229 400.408,-332.547 389.913,-334.002 393.111,-340.229"/>
</g>
<!-- Node27 -->
<g id="node27" class="node"><title>Node27</title>
<g id="a_node27"><a xlink:href="../../db/d97/class_box_world.html#ad20a4e43406c44f4bbf201d1d1028998" target="_top" xlink:title="BoxWorld.start">
<polygon fill="white" stroke="black" points="1029,-370.5 1029,-389.5 1115,-389.5 1115,-370.5 1029,-370.5"/>
<text text-anchor="middle" x="1072" y="-377.5" font-family="Helvetica,sans-Serif" font-size="10.00">BoxWorld.start</text>
</a>
</g>
</g>
<!-- Node4&#45;&gt;Node27 -->
<g id="edge50" class="edge"><title>Node4&#45;&gt;Node27</title>
<path fill="none" stroke="midnightblue" d="M308.513,-398.109C438.232,-395.028 868.066,-384.82 1018.47,-381.247"/>
<polygon fill="midnightblue" stroke="midnightblue" points="1018.9,-384.738 1028.81,-381.002 1018.73,-377.74 1018.9,-384.738"/>
</g>
<!-- Node6 -->
<g id="node6" class="node"><title>Node6</title>
<g id="a_node6"><a xlink:href="../../db/d97/class_box_world.html#a2542cc74ebeba6a9768a443a55186901" target="_top" xlink:title="BoxWorld.createObstacleArray">
<polygon fill="white" stroke="black" points="1200.5,-28.5 1200.5,-47.5 1361.5,-47.5 1361.5,-28.5 1200.5,-28.5"/>
<text text-anchor="middle" x="1281" y="-35.5" font-family="Helvetica,sans-Serif" font-size="10.00">BoxWorld.createObstacleArray</text>
</a>
</g>
</g>
<!-- Node5&#45;&gt;Node6 -->
<g id="edge5" class="edge"><title>Node5&#45;&gt;Node6</title>
<path fill="none" stroke="midnightblue" d="M1147.73,-38C1161.52,-38 1176.06,-38 1190.24,-38"/>
<polygon fill="midnightblue" stroke="midnightblue" points="1190.49,-41.5001 1200.49,-38 1190.49,-34.5001 1190.49,-41.5001"/>
</g>
<!-- Node8 -->
<g id="node8" class="node"><title>Node8</title>
<g id="a_node8"><a xlink:href="../../db/d97/class_box_world.html#aa7e2049d7be23e15fd2ec7fa2922ed79" target="_top" xlink:title="BoxWorld.handleKeyInput">
<polygon fill="white" stroke="black" points="525,-332.5 525,-351.5 661,-351.5 661,-332.5 525,-332.5"/>
<text text-anchor="middle" x="593" y="-339.5" font-family="Helvetica,sans-Serif" font-size="10.00">BoxWorld.handleKeyInput</text>
</a>
</g>
</g>
<!-- Node7&#45;&gt;Node8 -->
<g id="edge7" class="edge"><title>Node7&#45;&gt;Node8</title>
<path fill="none" stroke="midnightblue" d="M482.252,-329.806C492.818,-330.98 503.922,-332.214 514.843,-333.427"/>
<polygon fill="midnightblue" stroke="midnightblue" points="514.474,-336.907 524.8,-334.533 515.247,-329.95 514.474,-336.907"/>
</g>
<!-- Node38 -->
<g id="node38" class="node"><title>Node38</title>
<g id="a_node38"><a xlink:href="../../db/d97/class_box_world.html#a2d44485a181577acb4d79b6b81f26fff" target="_top" xlink:title="BoxWorld.handleKeyRelease">
<polygon fill="white" stroke="black" points="518.5,-256.5 518.5,-275.5 667.5,-275.5 667.5,-256.5 518.5,-256.5"/>
<text text-anchor="middle" x="593" y="-263.5" font-family="Helvetica,sans-Serif" font-size="10.00">BoxWorld.handleKeyRelease</text>
</a>
</g>
</g>
<!-- Node7&#45;&gt;Node38 -->
<g id="edge49" class="edge"><title>Node7&#45;&gt;Node38</title>
<path fill="none" stroke="midnightblue" d="M448.98,-313.363C468.337,-306.725 494.704,-297.74 518,-290 529.202,-286.278 541.38,-282.3 552.563,-278.675"/>
<polygon fill="midnightblue" stroke="midnightblue" points="553.646,-282.003 562.083,-275.595 551.492,-275.343 553.646,-282.003"/>
</g>
<!-- Node9 -->
<g id="node9" class="node"><title>Node9</title>
<g id="a_node9"><a xlink:href="../../db/d97/class_box_world.html#adc4c9d78ffde3d052c4c92047eb98e55" target="_top" xlink:title="BoxWorld.allowMovement">
<polygon fill="white" stroke="black" points="1598.5,-180.5 1598.5,-199.5 1735.5,-199.5 1735.5,-180.5 1598.5,-180.5"/>
<text text-anchor="middle" x="1667" y="-187.5" font-family="Helvetica,sans-Serif" font-size="10.00">BoxWorld.allowMovement</text>
</a>
</g>
</g>
<!-- Node8&#45;&gt;Node9 -->
<g id="edge8" class="edge"><title>Node8&#45;&gt;Node9</title>
<path fill="none" stroke="midnightblue" d="M606.985,-332.306C621.881,-321.114 646.962,-302.053 668,-285 838.419,-146.86 851.625,-0 1071,-0 1071,-0 1071,-0 1282,-0 1338.78,-0 1510.2,-43.9257 1562,-76 1602.6,-101.138 1637.07,-146.53 1654.28,-171.79"/>
<polygon fill="midnightblue" stroke="midnightblue" points="1651.55,-174.01 1660,-180.401 1657.38,-170.135 1651.55,-174.01"/>
</g>
<!-- Node14 -->
<g id="node14" class="node"><title>Node14</title>
<g id="a_node14"><a xlink:href="../../db/d97/class_box_world.html#a04c6bf977c4292a5433649fb3745fd6b" target="_top" xlink:title="BoxWorld.reset">
<polygon fill="white" stroke="black" points="1237,-408.5 1237,-427.5 1325,-427.5 1325,-408.5 1237,-408.5"/>
<text text-anchor="middle" x="1281" y="-415.5" font-family="Helvetica,sans-Serif" font-size="10.00">BoxWorld.reset</text>
</a>
</g>
</g>
<!-- Node8&#45;&gt;Node14 -->
<g id="edge13" class="edge"><title>Node8&#45;&gt;Node14</title>
<path fill="none" stroke="midnightblue" d="M647.092,-351.548C665.132,-354.692 685.424,-358.118 704,-361 826.36,-379.985 856.795,-386.634 980,-399 1066.27,-407.659 1166.92,-413.081 1226.95,-415.821"/>
<polygon fill="midnightblue" stroke="midnightblue" points="1226.8,-419.318 1236.95,-416.27 1227.11,-412.325 1226.8,-419.318"/>
</g>
<!-- Node15 -->
<g id="node15" class="node"><title>Node15</title>
<g id="a_node15"><a xlink:href="../../da/de2/class_sticky_box.html#aa1bb8f78f676b01c688d75d386758444" target="_top" xlink:title="StickyBox.setDirection">
<polygon fill="white" stroke="black" points="1418,-446.5 1418,-465.5 1542,-465.5 1542,-446.5 1418,-446.5"/>
<text text-anchor="middle" x="1480" y="-453.5" font-family="Helvetica,sans-Serif" font-size="10.00">StickyBox.setDirection</text>
</a>
</g>
</g>
<!-- Node8&#45;&gt;Node15 -->
<g id="edge16" class="edge"><title>Node8&#45;&gt;Node15</title>
<path fill="none" stroke="midnightblue" d="M614.611,-351.564C636.365,-361.251 671.883,-375.926 704,-384 764.841,-399.296 781.764,-394.109 844,-402 904.431,-409.662 919.408,-412.737 980,-419 1077.58,-429.086 1102.17,-429.667 1200,-437 1270.53,-442.287 1351.14,-447.709 1407.52,-451.401"/>
<polygon fill="midnightblue" stroke="midnightblue" points="1407.55,-454.911 1417.75,-452.07 1408,-447.925 1407.55,-454.911"/>
</g>
<!-- Node17 -->
<g id="node17" class="node"><title>Node17</title>
<g id="a_node17"><a xlink:href="../../db/d97/class_box_world.html#aad670712776afe126e51791097027e05" target="_top" xlink:title="BoxWorld.winLevel">
<polygon fill="white" stroke="black" points="704.5,-332.5 704.5,-351.5 807.5,-351.5 807.5,-332.5 704.5,-332.5"/>
<text text-anchor="middle" x="756" y="-339.5" font-family="Helvetica,sans-Serif" font-size="10.00">BoxWorld.winLevel</text>
</a>
</g>
</g>
<!-- Node8&#45;&gt;Node17 -->
<g id="edge17" class="edge"><title>Node8&#45;&gt;Node17</title>
<path fill="none" stroke="midnightblue" d="M661.346,-342C672.185,-342 683.352,-342 694.031,-342"/>
<polygon fill="midnightblue" stroke="midnightblue" points="694.093,-345.5 704.093,-342 694.093,-338.5 694.093,-345.5"/>
</g>
<!-- Node10 -->
<g id="node10" class="node"><title>Node10</title>
<g id="a_node10"><a xlink:href="../../da/de2/class_sticky_box.html#a6ba3f89630df9d81df5644a3e5f4e387" target="_top" xlink:title="StickyBox.getXDirection">
<polygon fill="white" stroke="black" points="1772.5,-294.5 1772.5,-313.5 1903.5,-313.5 1903.5,-294.5 1772.5,-294.5"/>
<text text-anchor="middle" x="1838" y="-301.5" font-family="Helvetica,sans-Serif" font-size="10.00">StickyBox.getXDirection</text>
</a>
</g>
</g>
<!-- Node9&#45;&gt;Node10 -->
<g id="edge9" class="edge"><title>Node9&#45;&gt;Node10</title>
<path fill="none" stroke="midnightblue" d="M1682.12,-199.523C1711.25,-219.173 1778.26,-264.373 1813.83,-288.37"/>
<polygon fill="midnightblue" stroke="midnightblue" points="1812.32,-291.571 1822.56,-294.262 1816.23,-285.768 1812.32,-291.571"/>
</g>
<!-- Node11 -->
<g id="node11" class="node"><title>Node11</title>
<g id="a_node11"><a xlink:href="../../da/de2/class_sticky_box.html#ab0bd7cafb7f243e3951558ddb8728b96" target="_top" xlink:title="StickyBox.getXPrev">
<polygon fill="white" stroke="black" points="1783.5,-142.5 1783.5,-161.5 1892.5,-161.5 1892.5,-142.5 1783.5,-142.5"/>
<text text-anchor="middle" x="1838" y="-149.5" font-family="Helvetica,sans-Serif" font-size="10.00">StickyBox.getXPrev</text>
</a>
</g>
</g>
<!-- Node9&#45;&gt;Node11 -->
<g id="edge10" class="edge"><title>Node9&#45;&gt;Node11</title>
<path fill="none" stroke="midnightblue" d="M1710.65,-180.411C1733.15,-175.351 1760.95,-169.1 1784.74,-163.751"/>
<polygon fill="midnightblue" stroke="midnightblue" points="1785.67,-167.129 1794.66,-161.52 1784.14,-160.299 1785.67,-167.129"/>
</g>
<!-- Node12 -->
<g id="node12" class="node"><title>Node12</title>
<g id="a_node12"><a xlink:href="../../da/de2/class_sticky_box.html#a69e5ccf2a79159c03dea2e048df13318" target="_top" xlink:title="StickyBox.getYDirection">
<polygon fill="white" stroke="black" points="1773,-218.5 1773,-237.5 1903,-237.5 1903,-218.5 1773,-218.5"/>
<text text-anchor="middle" x="1838" y="-225.5" font-family="Helvetica,sans-Serif" font-size="10.00">StickyBox.getYDirection</text>
</a>
</g>
</g>
<!-- Node9&#45;&gt;Node12 -->
<g id="edge11" class="edge"><title>Node9&#45;&gt;Node12</title>
<path fill="none" stroke="midnightblue" d="M1710.65,-199.589C1733.15,-204.649 1760.95,-210.9 1784.74,-216.249"/>
<polygon fill="midnightblue" stroke="midnightblue" points="1784.14,-219.701 1794.66,-218.48 1785.67,-212.871 1784.14,-219.701"/>
</g>
<!-- Node13 -->
<g id="node13" class="node"><title>Node13</title>
<g id="a_node13"><a xlink:href="../../da/de2/class_sticky_box.html#a4c6abed944faed9d9b226079e99cfc24" target="_top" xlink:title="StickyBox.getYPrev">
<polygon fill="white" stroke="black" points="1784,-180.5 1784,-199.5 1892,-199.5 1892,-180.5 1784,-180.5"/>
<text text-anchor="middle" x="1838" y="-187.5" font-family="Helvetica,sans-Serif" font-size="10.00">StickyBox.getYPrev</text>
</a>
</g>
</g>
<!-- Node9&#45;&gt;Node13 -->
<g id="edge12" class="edge"><title>Node9&#45;&gt;Node13</title>
<path fill="none" stroke="midnightblue" d="M1735.76,-190C1748.25,-190 1761.24,-190 1773.59,-190"/>
<polygon fill="midnightblue" stroke="midnightblue" points="1773.78,-193.5 1783.78,-190 1773.78,-186.5 1773.78,-193.5"/>
</g>
<!-- Node14&#45;&gt;Node15 -->
<g id="edge14" class="edge"><title>Node14&#45;&gt;Node15</title>
<path fill="none" stroke="midnightblue" d="M1325.23,-426.339C1352.91,-431.678 1389.2,-438.678 1419.57,-444.536"/>
<polygon fill="midnightblue" stroke="midnightblue" points="1419.14,-448.018 1429.62,-446.475 1420.47,-441.145 1419.14,-448.018"/>
</g>
<!-- Node16 -->
<g id="node16" class="node"><title>Node16</title>
<g id="a_node16"><a xlink:href="../../da/de2/class_sticky_box.html#a5d95d2ed2e13f0d87a44311db77f9e36" target="_top" xlink:title="StickyBox.setPreviousDirection">
<polygon fill="white" stroke="black" points="1398,-408.5 1398,-427.5 1562,-427.5 1562,-408.5 1398,-408.5"/>
<text text-anchor="middle" x="1480" y="-415.5" font-family="Helvetica,sans-Serif" font-size="10.00">StickyBox.setPreviousDirection</text>
</a>
</g>
</g>
<!-- Node14&#45;&gt;Node16 -->
<g id="edge15" class="edge"><title>Node14&#45;&gt;Node16</title>
<path fill="none" stroke="midnightblue" d="M1325.23,-418C1343.61,-418 1365.79,-418 1387.52,-418"/>
<polygon fill="midnightblue" stroke="midnightblue" points="1387.78,-421.5 1397.78,-418 1387.78,-414.5 1387.78,-421.5"/>
</g>
<!-- Node18 -->
<g id="node18" class="node"><title>Node18</title>
<g id="a_node18"><a xlink:href="../../d6/d4f/class_item_box_world.html#aa559fc2680327b41fb376e2eda8e82e3" target="_top" xlink:title="ItemBoxWorld.init">
<polygon fill="white" stroke="black" points="844.5,-218.5 844.5,-237.5 943.5,-237.5 943.5,-218.5 844.5,-218.5"/>
<text text-anchor="middle" x="894" y="-225.5" font-family="Helvetica,sans-Serif" font-size="10.00">ItemBoxWorld.init</text>
</a>
</g>
</g>
<!-- Node17&#45;&gt;Node18 -->
<g id="edge18" class="edge"><title>Node17&#45;&gt;Node18</title>
<path fill="none" stroke="midnightblue" d="M782.165,-332.404C790.75,-328.56 800.154,-323.683 808,-318 836.98,-297.008 864.219,-265.251 879.723,-245.612"/>
<polygon fill="midnightblue" stroke="midnightblue" points="882.631,-247.574 885.985,-237.524 877.095,-243.288 882.631,-247.574"/>
</g>
<!-- Node18&#45;&gt;Node5 -->
<g id="edge23" class="edge"><title>Node18&#45;&gt;Node5</title>
<path fill="none" stroke="midnightblue" d="M896.74,-218.389C902.587,-189.039 924.375,-99.9625 980,-57 982.335,-55.1965 984.801,-53.5536 987.366,-52.0577"/>
<polygon fill="midnightblue" stroke="midnightblue" points="989.057,-55.1257 996.43,-47.5179 985.922,-48.8669 989.057,-55.1257"/>
</g>
<!-- Node18&#45;&gt;Node7 -->
<g id="edge48" class="edge"><title>Node18&#45;&gt;Node7</title>
<path fill="none" stroke="midnightblue" d="M859.684,-237.502C815.964,-249.727 736.713,-271.044 668,-285 609.129,-296.957 541.684,-307.096 492.163,-313.886"/>
<polygon fill="midnightblue" stroke="midnightblue" points="491.629,-310.426 482.191,-315.241 492.571,-317.362 491.629,-310.426"/>
</g>
<!-- Node19 -->
<g id="node19" class="node"><title>Node19</title>
<g id="a_node19"><a xlink:href="../../db/d97/class_box_world.html#a25c34c68bdd68debd7de01a4f3b98bb1" target="_top" xlink:title="BoxWorld.setStage">
<polygon fill="white" stroke="black" points="1018.5,-180.5 1018.5,-199.5 1125.5,-199.5 1125.5,-180.5 1018.5,-180.5"/>
<text text-anchor="middle" x="1072" y="-187.5" font-family="Helvetica,sans-Serif" font-size="10.00">BoxWorld.setStage</text>
</a>
</g>
</g>
<!-- Node18&#45;&gt;Node19 -->
<g id="edge19" class="edge"><title>Node18&#45;&gt;Node19</title>
<path fill="none" stroke="midnightblue" d="M937.345,-218.411C950.956,-215.362 966.107,-212.003 980,-209 991.225,-206.574 1003.24,-204.028 1014.74,-201.618"/>
<polygon fill="midnightblue" stroke="midnightblue" points="1015.61,-205.012 1024.68,-199.54 1014.17,-198.16 1015.61,-205.012"/>
</g>
<!-- Node20 -->
<g id="node20" class="node"><title>Node20</title>
<g id="a_node20"><a xlink:href="../../db/d97/class_box_world.html#a3735494d6eeffc036cd757eb21170eb0" target="_top" xlink:title="BoxWorld.setObstacleXCoordinates">
<polygon fill="white" stroke="black" points="980.5,-142.5 980.5,-161.5 1163.5,-161.5 1163.5,-142.5 980.5,-142.5"/>
<text text-anchor="middle" x="1072" y="-149.5" font-family="Helvetica,sans-Serif" font-size="10.00">BoxWorld.setObstacleXCoordinates</text>
</a>
</g>
</g>
<!-- Node18&#45;&gt;Node20 -->
<g id="edge20" class="edge"><title>Node18&#45;&gt;Node20</title>
<path fill="none" stroke="midnightblue" d="M906.27,-218.333C921.809,-205.521 951.176,-183.128 980,-171 986.197,-168.393 992.786,-166.131 999.477,-164.171"/>
<polygon fill="midnightblue" stroke="midnightblue" points="1000.58,-167.499 1009.32,-161.511 998.751,-160.742 1000.58,-167.499"/>
</g>
<!-- Node21 -->
<g id="node21" class="node"><title>Node21</title>
<g id="a_node21"><a xlink:href="../../db/d97/class_box_world.html#ab45827804913790744cdbaaf8a222256" target="_top" xlink:title="BoxWorld.setObstacleYCoordinates">
<polygon fill="white" stroke="black" points="981,-104.5 981,-123.5 1163,-123.5 1163,-104.5 981,-104.5"/>
<text text-anchor="middle" x="1072" y="-111.5" font-family="Helvetica,sans-Serif" font-size="10.00">BoxWorld.setObstacleYCoordinates</text>
</a>
</g>
</g>
<!-- Node18&#45;&gt;Node21 -->
<g id="edge21" class="edge"><title>Node18&#45;&gt;Node21</title>
<path fill="none" stroke="midnightblue" d="M900.627,-218.363C912.563,-198.85 942.429,-154.68 980,-133 983.879,-130.762 987.987,-128.785 992.227,-127.04"/>
<polygon fill="midnightblue" stroke="midnightblue" points="993.499,-130.302 1001.69,-123.578 991.093,-123.728 993.499,-130.302"/>
</g>
<!-- Node22 -->
<g id="node22" class="node"><title>Node22</title>
<g id="a_node22"><a xlink:href="../../db/d97/class_box_world.html#aeeaafc4ff103ded208e6c9393eb4ceca" target="_top" xlink:title="BoxWorld.setRoot">
<polygon fill="white" stroke="black" points="1022.5,-294.5 1022.5,-313.5 1121.5,-313.5 1121.5,-294.5 1022.5,-294.5"/>
<text text-anchor="middle" x="1072" y="-301.5" font-family="Helvetica,sans-Serif" font-size="10.00">BoxWorld.setRoot</text>
</a>
</g>
</g>
<!-- Node18&#45;&gt;Node22 -->
<g id="edge22" class="edge"><title>Node18&#45;&gt;Node22</title>
<path fill="none" stroke="midnightblue" d="M906.27,-237.667C921.809,-250.479 951.176,-272.872 980,-285 990.137,-289.265 1001.32,-292.606 1012.29,-295.212"/>
<polygon fill="midnightblue" stroke="midnightblue" points="1011.73,-298.674 1022.25,-297.404 1013.24,-291.838 1011.73,-298.674"/>
</g>
<!-- Node23 -->
<g id="node23" class="node"><title>Node23</title>
<g id="a_node23"><a xlink:href="../../d6/d4f/class_item_box_world.html#a7ead15fd9fd8095f928640161d48fdf8" target="_top" xlink:title="ItemBoxWorld.addAllItems">
<polygon fill="white" stroke="black" points="1001.5,-66.5 1001.5,-85.5 1142.5,-85.5 1142.5,-66.5 1001.5,-66.5"/>
<text text-anchor="middle" x="1072" y="-73.5" font-family="Helvetica,sans-Serif" font-size="10.00">ItemBoxWorld.addAllItems</text>
</a>
</g>
</g>
<!-- Node18&#45;&gt;Node23 -->
<g id="edge24" class="edge"><title>Node18&#45;&gt;Node23</title>
<path fill="none" stroke="midnightblue" d="M898.144,-218.43C906.811,-193.644 933.537,-127.059 980,-95 983.763,-92.4035 987.808,-90.149 992.025,-88.1925"/>
<polygon fill="midnightblue" stroke="midnightblue" points="993.531,-91.359 1001.49,-84.3687 990.91,-84.8684 993.531,-91.359"/>
</g>
<!-- Node18&#45;&gt;Node27 -->
<g id="edge29" class="edge"><title>Node18&#45;&gt;Node27</title>
<path fill="none" stroke="midnightblue" d="M902.189,-237.71C915.941,-255.872 947.507,-295.618 980,-323 999.756,-339.648 1024.79,-354.976 1043.6,-365.534"/>
<polygon fill="midnightblue" stroke="midnightblue" points="1042.1,-368.701 1052.54,-370.46 1045.47,-362.57 1042.1,-368.701"/>
</g>
<!-- Node36 -->
<g id="node36" class="node"><title>Node36</title>
<g id="a_node36"><a xlink:href="../../db/d97/class_box_world.html#a8d7d9f1ae1ebcd87ff73c09780b70629" target="_top" xlink:title="BoxWorld.setAnimation">
<polygon fill="white" stroke="black" points="1008.5,-256.5 1008.5,-275.5 1135.5,-275.5 1135.5,-256.5 1008.5,-256.5"/>
<text text-anchor="middle" x="1072" y="-263.5" font-family="Helvetica,sans-Serif" font-size="10.00">BoxWorld.setAnimation</text>
</a>
</g>
</g>
<!-- Node18&#45;&gt;Node36 -->
<g id="edge46" class="edge"><title>Node18&#45;&gt;Node36</title>
<path fill="none" stroke="midnightblue" d="M937.345,-237.589C950.956,-240.638 966.107,-243.997 980,-247 991.225,-249.426 1003.24,-251.972 1014.74,-254.382"/>
<polygon fill="midnightblue" stroke="midnightblue" points="1014.17,-257.84 1024.68,-256.46 1015.61,-250.988 1014.17,-257.84"/>
</g>
<!-- Node37 -->
<g id="node37" class="node"><title>Node37</title>
<g id="a_node37"><a xlink:href="../../db/d97/class_box_world.html#a61929851f1d60c397e1448e614f1d701" target="_top" xlink:title="BoxWorld.getAnimation">
<polygon fill="white" stroke="black" points="1008,-218.5 1008,-237.5 1136,-237.5 1136,-218.5 1008,-218.5"/>
<text text-anchor="middle" x="1072" y="-225.5" font-family="Helvetica,sans-Serif" font-size="10.00">BoxWorld.getAnimation</text>
</a>
</g>
</g>
<!-- Node18&#45;&gt;Node37 -->
<g id="edge47" class="edge"><title>Node18&#45;&gt;Node37</title>
<path fill="none" stroke="midnightblue" d="M943.559,-228C960.299,-228 979.441,-228 997.712,-228"/>
<polygon fill="midnightblue" stroke="midnightblue" points="997.752,-231.5 1007.75,-228 997.752,-224.5 997.752,-231.5"/>
</g>
<!-- Node24 -->
<g id="node24" class="node"><title>Node24</title>
<g id="a_node24"><a xlink:href="../../d6/d4f/class_item_box_world.html#a1890e6c53a4a73e44e9528009fde508d" target="_top" xlink:title="ItemBoxWorld.itemExists">
<polygon fill="white" stroke="black" points="1214,-66.5 1214,-85.5 1348,-85.5 1348,-66.5 1214,-66.5"/>
<text text-anchor="middle" x="1281" y="-73.5" font-family="Helvetica,sans-Serif" font-size="10.00">ItemBoxWorld.itemExists</text>
</a>
</g>
</g>
<!-- Node23&#45;&gt;Node24 -->
<g id="edge25" class="edge"><title>Node23&#45;&gt;Node24</title>
<path fill="none" stroke="midnightblue" d="M1142.5,-76C1162.2,-76 1183.74,-76 1203.8,-76"/>
<polygon fill="midnightblue" stroke="midnightblue" points="1203.83,-79.5001 1213.83,-76 1203.83,-72.5001 1203.83,-79.5001"/>
</g>
<!-- Node26 -->
<g id="node26" class="node"><title>Node26</title>
<g id="a_node26"><a xlink:href="../../d6/d4f/class_item_box_world.html#af1bcde0672796e926560684004ed8e81" target="_top" xlink:title="ItemBoxWorld.addSingleItem">
<polygon fill="white" stroke="black" points="1204,-104.5 1204,-123.5 1358,-123.5 1358,-104.5 1204,-104.5"/>
<text text-anchor="middle" x="1281" y="-111.5" font-family="Helvetica,sans-Serif" font-size="10.00">ItemBoxWorld.addSingleItem</text>
</a>
</g>
</g>
<!-- Node23&#45;&gt;Node26 -->
<g id="edge27" class="edge"><title>Node23&#45;&gt;Node26</title>
<path fill="none" stroke="midnightblue" d="M1124.97,-85.54C1153.27,-90.7348 1188.46,-97.1963 1218.17,-102.649"/>
<polygon fill="midnightblue" stroke="midnightblue" points="1217.54,-106.093 1228.01,-104.456 1218.81,-99.208 1217.54,-106.093"/>
</g>
<!-- Node25 -->
<g id="node25" class="node"><title>Node25</title>
<g id="a_node25"><a xlink:href="../../db/d97/class_box_world.html#abb95adb381902ecab1db85efdc1ea6ff" target="_top" xlink:title="BoxWorld.getRoot">
<polygon fill="white" stroke="black" points="1430,-85.5 1430,-104.5 1530,-104.5 1530,-85.5 1430,-85.5"/>
<text text-anchor="middle" x="1480" y="-92.5" font-family="Helvetica,sans-Serif" font-size="10.00">BoxWorld.getRoot</text>
</a>
</g>
</g>
<!-- Node24&#45;&gt;Node25 -->
<g id="edge26" class="edge"><title>Node24&#45;&gt;Node25</title>
<path fill="none" stroke="midnightblue" d="M1348.15,-82.3796C1371.31,-84.614 1397.17,-87.1074 1419.73,-89.284"/>
<polygon fill="midnightblue" stroke="midnightblue" points="1419.56,-92.7835 1429.85,-90.2598 1420.23,-85.8158 1419.56,-92.7835"/>
</g>
<!-- Node26&#45;&gt;Node25 -->
<g id="edge28" class="edge"><title>Node26&#45;&gt;Node25</title>
<path fill="none" stroke="midnightblue" d="M1358.17,-106.654C1378.54,-104.689 1400.26,-102.594 1419.59,-100.73"/>
<polygon fill="midnightblue" stroke="midnightblue" points="1420.13,-104.194 1429.75,-99.7499 1419.46,-97.2262 1420.13,-104.194"/>
</g>
<!-- Node28 -->
<g id="node28" class="node"><title>Node28</title>
<g id="a_node28"><a xlink:href="../../db/d97/class_box_world.html#a6794c083c2a0263c2f585f4ae4b7e39c" target="_top" xlink:title="BoxWorld.updateSprites">
<polygon fill="white" stroke="black" points="1215.5,-370.5 1215.5,-389.5 1346.5,-389.5 1346.5,-370.5 1215.5,-370.5"/>
<text text-anchor="middle" x="1281" y="-377.5" font-family="Helvetica,sans-Serif" font-size="10.00">BoxWorld.updateSprites</text>
</a>
</g>
</g>
<!-- Node27&#45;&gt;Node28 -->
<g id="edge30" class="edge"><title>Node27&#45;&gt;Node28</title>
<path fill="none" stroke="midnightblue" d="M1115.14,-380C1141.05,-380 1175,-380 1205.35,-380"/>
<polygon fill="midnightblue" stroke="midnightblue" points="1205.49,-383.5 1215.49,-380 1205.49,-376.5 1205.49,-383.5"/>
</g>
<!-- Node28&#45;&gt;Node10 -->
<g id="edge40" class="edge"><title>Node28&#45;&gt;Node10</title>
<path fill="none" stroke="midnightblue" d="M1346.76,-378.114C1403.67,-375.86 1488.63,-371.046 1562,-361 1642.49,-349.979 1734.71,-329.157 1789.28,-315.961"/>
<polygon fill="midnightblue" stroke="midnightblue" points="1790.14,-319.356 1799.03,-313.59 1788.48,-312.554 1790.14,-319.356"/>
</g>
<!-- Node28&#45;&gt;Node12 -->
<g id="edge41" class="edge"><title>Node28&#45;&gt;Node12</title>
<path fill="none" stroke="midnightblue" d="M1286.84,-370.269C1300.28,-344.484 1340.85,-274.496 1398,-247 1460.35,-217.003 1654.76,-219.977 1762.77,-224.258"/>
<polygon fill="midnightblue" stroke="midnightblue" points="1762.81,-227.763 1772.95,-224.675 1763.1,-220.768 1762.81,-227.763"/>
</g>
<!-- Node28&#45;&gt;Node15 -->
<g id="edge43" class="edge"><title>Node28&#45;&gt;Node15</title>
<path fill="none" stroke="midnightblue" d="M1340.35,-389.631C1347.9,-392.08 1355.32,-395.151 1362,-399 1382.16,-410.616 1377.83,-425.412 1398,-437 1401.91,-439.246 1406.07,-441.227 1410.36,-442.974"/>
<polygon fill="midnightblue" stroke="midnightblue" points="1409.33,-446.322 1419.92,-446.436 1411.71,-439.74 1409.33,-446.322"/>
</g>
<!-- Node28&#45;&gt;Node16 -->
<g id="edge44" class="edge"><title>Node28&#45;&gt;Node16</title>
<path fill="none" stroke="midnightblue" d="M1331.46,-389.54C1358.15,-394.69 1391.3,-401.084 1419.42,-406.506"/>
<polygon fill="midnightblue" stroke="midnightblue" points="1419.04,-409.999 1429.52,-408.456 1420.37,-403.125 1419.04,-409.999"/>
</g>
<!-- Node29 -->
<g id="node29" class="node"><title>Node29</title>
<g id="a_node29"><a xlink:href="../../db/d97/class_box_world.html#a4079bed8937c9f621decfbe1309e31e2" target="_top" xlink:title="BoxWorld.checkAllCollisions">
<polygon fill="white" stroke="black" points="1407,-256.5 1407,-275.5 1553,-275.5 1553,-256.5 1407,-256.5"/>
<text text-anchor="middle" x="1480" y="-263.5" font-family="Helvetica,sans-Serif" font-size="10.00">BoxWorld.checkAllCollisions</text>
</a>
</g>
</g>
<!-- Node28&#45;&gt;Node29 -->
<g id="edge31" class="edge"><title>Node28&#45;&gt;Node29</title>
<path fill="none" stroke="midnightblue" d="M1335.83,-370.415C1345.25,-366.984 1354.44,-362.326 1362,-356 1389.14,-333.303 1370.18,-306.859 1398,-285 1400.29,-283.201 1402.72,-281.568 1405.26,-280.085"/>
<polygon fill="midnightblue" stroke="midnightblue" points="1406.85,-283.202 1414.23,-275.603 1403.72,-276.94 1406.85,-283.202"/>
</g>
<!-- Node34 -->
<g id="node34" class="node"><title>Node34</title>
<g id="a_node34"><a xlink:href="../../da/de2/class_sticky_box.html#a185ee469367b376e6c5969a03d089d57" target="_top" xlink:title="StickyBox.move">
<polygon fill="white" stroke="black" points="1433.5,-332.5 1433.5,-351.5 1526.5,-351.5 1526.5,-332.5 1433.5,-332.5"/>
<text text-anchor="middle" x="1480" y="-339.5" font-family="Helvetica,sans-Serif" font-size="10.00">StickyBox.move</text>
</a>
</g>
</g>
<!-- Node28&#45;&gt;Node34 -->
<g id="edge42" class="edge"><title>Node28&#45;&gt;Node34</title>
<path fill="none" stroke="midnightblue" d="M1331.46,-370.46C1359.39,-365.071 1394.39,-358.32 1423.29,-352.745"/>
<polygon fill="midnightblue" stroke="midnightblue" points="1424.08,-356.157 1433.24,-350.827 1422.76,-349.284 1424.08,-356.157"/>
</g>
<!-- Node35 -->
<g id="node35" class="node"><title>Node35</title>
<g id="a_node35"><a xlink:href="../../da/de2/class_sticky_box.html#a59337f0aa3c7379a2cb9c76bdc621daf" target="_top" xlink:title="StickyBox.setStuck">
<polygon fill="white" stroke="black" points="1426,-294.5 1426,-313.5 1534,-313.5 1534,-294.5 1426,-294.5"/>
<text text-anchor="middle" x="1480" y="-301.5" font-family="Helvetica,sans-Serif" font-size="10.00">StickyBox.setStuck</text>
</a>
</g>
</g>
<!-- Node28&#45;&gt;Node35 -->
<g id="edge45" class="edge"><title>Node28&#45;&gt;Node35</title>
<path fill="none" stroke="midnightblue" d="M1326.64,-370.456C1338.57,-366.89 1351.16,-362.161 1362,-356 1380.87,-345.277 1378.81,-333.142 1398,-323 1403.62,-320.033 1409.69,-317.524 1415.9,-315.404"/>
<polygon fill="midnightblue" stroke="midnightblue" points="1417.2,-318.667 1425.73,-312.383 1415.14,-311.976 1417.2,-318.667"/>
</g>
<!-- Node29&#45;&gt;Node17 -->
<g id="edge39" class="edge"><title>Node29&#45;&gt;Node17</title>
<path fill="none" stroke="midnightblue" d="M1436.47,-275.548C1376.19,-288.655 1262.3,-311.862 1164,-323 1041.74,-336.853 897.727,-340.653 817.962,-341.665"/>
<polygon fill="midnightblue" stroke="midnightblue" points="817.573,-338.169 807.614,-341.785 817.654,-345.169 817.573,-338.169"/>
</g>
<!-- Node30 -->
<g id="node30" class="node"><title>Node30</title>
<g id="a_node30"><a xlink:href="../../db/d97/class_box_world.html#a55add11037cd6dc48556f2f42a9e11be" target="_top" xlink:title="BoxWorld.checkCollide">
<polygon fill="white" stroke="black" points="1606,-294.5 1606,-313.5 1728,-313.5 1728,-294.5 1606,-294.5"/>
<text text-anchor="middle" x="1667" y="-301.5" font-family="Helvetica,sans-Serif" font-size="10.00">BoxWorld.checkCollide</text>
</a>
</g>
</g>
<!-- Node29&#45;&gt;Node30 -->
<g id="edge32" class="edge"><title>Node29&#45;&gt;Node30</title>
<path fill="none" stroke="midnightblue" d="M1527.68,-275.589C1552.65,-280.716 1583.56,-287.067 1609.83,-292.463"/>
<polygon fill="midnightblue" stroke="midnightblue" points="1609.15,-295.896 1619.65,-294.48 1610.56,-289.039 1609.15,-295.896"/>
</g>
<!-- Node31 -->
<g id="node31" class="node"><title>Node31</title>
<g id="a_node31"><a xlink:href="../../db/d97/class_box_world.html#a72bacb2a6757900d8835249929fcc838" target="_top" xlink:title="BoxWorld.loseGame">
<polygon fill="white" stroke="black" points="1611,-427.5 1611,-446.5 1723,-446.5 1723,-427.5 1611,-427.5"/>
<text text-anchor="middle" x="1667" y="-434.5" font-family="Helvetica,sans-Serif" font-size="10.00">BoxWorld.loseGame</text>
</a>
</g>
</g>
<!-- Node29&#45;&gt;Node31 -->
<g id="edge35" class="edge"><title>Node29&#45;&gt;Node31</title>
<path fill="none" stroke="midnightblue" d="M1543.61,-275.643C1550.12,-278.095 1556.4,-281.164 1562,-285 1587.68,-302.59 1634.45,-381.342 1655.38,-418.051"/>
<polygon fill="midnightblue" stroke="midnightblue" points="1652.59,-420.224 1660.56,-427.204 1658.68,-416.777 1652.59,-420.224"/>
</g>
<!-- Node33 -->
<g id="node33" class="node"><title>Node33</title>
<g id="a_node33"><a xlink:href="../../db/d97/class_box_world.html#a167adb49603af3a303ee958011243b5f" target="_top" xlink:title="BoxWorld.onScreen">
<polygon fill="white" stroke="black" points="1612.5,-256.5 1612.5,-275.5 1721.5,-275.5 1721.5,-256.5 1612.5,-256.5"/>
<text text-anchor="middle" x="1667" y="-263.5" font-family="Helvetica,sans-Serif" font-size="10.00">BoxWorld.onScreen</text>
</a>
</g>
</g>
<!-- Node29&#45;&gt;Node33 -->
<g id="edge38" class="edge"><title>Node29&#45;&gt;Node33</title>
<path fill="none" stroke="midnightblue" d="M1553.06,-266C1569.28,-266 1586.4,-266 1602.26,-266"/>
<polygon fill="midnightblue" stroke="midnightblue" points="1602.48,-269.5 1612.48,-266 1602.48,-262.5 1602.48,-269.5"/>
</g>
<!-- Node30&#45;&gt;Node10 -->
<g id="edge33" class="edge"><title>Node30&#45;&gt;Node10</title>
<path fill="none" stroke="midnightblue" d="M1728.06,-304C1739.03,-304 1750.6,-304 1761.94,-304"/>
<polygon fill="midnightblue" stroke="midnightblue" points="1762.26,-307.5 1772.26,-304 1762.26,-300.5 1762.26,-307.5"/>
</g>
<!-- Node30&#45;&gt;Node12 -->
<g id="edge34" class="edge"><title>Node30&#45;&gt;Node12</title>
<path fill="none" stroke="midnightblue" d="M1708.46,-294.426C1717.66,-291.775 1727.28,-288.616 1736,-285 1763.94,-273.414 1793.86,-255.8 1813.82,-243.221"/>
<polygon fill="midnightblue" stroke="midnightblue" points="1815.97,-246.002 1822.51,-237.667 1812.2,-240.105 1815.97,-246.002"/>
</g>
<!-- Node32 -->
<g id="node32" class="node"><title>Node32</title>
<g id="a_node32"><a xlink:href="../../d4/d2f/class_lose_screen.html#a34f2cc2c803500316c9b8d854854d758" target="_top" xlink:title="LoseScreen.init">
<polygon fill="white" stroke="black" points="1793,-455.5 1793,-474.5 1883,-474.5 1883,-455.5 1793,-455.5"/>
<text text-anchor="middle" x="1838" y="-462.5" font-family="Helvetica,sans-Serif" font-size="10.00">LoseScreen.init</text>
</a>
</g>
</g>
<!-- Node31&#45;&gt;Node32 -->
<g id="edge36" class="edge"><title>Node31&#45;&gt;Node32</title>
<path fill="none" stroke="midnightblue" d="M1723.34,-446.168C1742.43,-449.332 1763.79,-452.871 1782.79,-456.019"/>
<polygon fill="midnightblue" stroke="midnightblue" points="1782.35,-459.493 1792.78,-457.674 1783.49,-452.587 1782.35,-459.493"/>
</g>
<!-- Node32&#45;&gt;Node2 -->
<g id="edge37" class="edge"><title>Node32&#45;&gt;Node2</title>
<path fill="none" stroke="midnightblue" d="M1792.97,-470.904C1725.82,-479.383 1593.7,-494 1481,-494 419,-494 419,-494 419,-494 338.424,-494 244.12,-494 192.229,-494"/>
<polygon fill="midnightblue" stroke="midnightblue" points="192.127,-490.5 182.127,-494 192.127,-497.5 192.127,-490.5"/>
</g>
</g>
</svg>
        <g id="navigator" transform="translate(0 0)" fill="#404254">
                <rect fill="#f2f5e9" fill-opacity="0.5" stroke="#606060" stroke-width=".5" x="0" y="0" width="60" height="60"/>
                <use id="zoomplus" xlink:href="#zoomPlus" x="17" y="9" onmousedown="handleZoom(evt,'in')"/>
                <use id="zoomminus" xlink:href="#zoomMin" x="42" y="9" onmousedown="handleZoom(evt,'out')"/>
                <use id="reset" xlink:href="#resetDef" x="30" y="36" onmousedown="handleReset()"/>
                <g id="arrowUp" xlink:href="#dirArrow" transform="translate(30 24)" onmousedown="handlePan(0,-1)">
                  <use xlink:href="#rim" fill="#404040">
                        <set attributeName="fill" to="#808080" begin="arrowUp.mouseover" end="arrowUp.mouseout"/>
                  </use>
                  <path fill="none" stroke="white" stroke-width="1.5" d="M0,-3.0v7 M-2.5,-0.5L0,-3.0L2.5,-0.5"/>
                </g>
                <g id="arrowRight" xlink:href="#dirArrow" transform="rotate(90) translate(36 -43)" onmousedown="handlePan(1,0)">
                  <use xlink:href="#rim" fill="#404040">
                        <set attributeName="fill" to="#808080" begin="arrowRight.mouseover" end="arrowRight.mouseout"/>
                  </use>
                  <path fill="none" stroke="white" stroke-width="1.5" d="M0,-3.0v7 M-2.5,-0.5L0,-3.0L2.5,-0.5"/>
                </g>
                <g id="arrowDown" xlink:href="#dirArrow" transform="rotate(180) translate(-30 -48)" onmousedown="handlePan(0,1)">
                  <use xlink:href="#rim" fill="#404040">
                        <set attributeName="fill" to="#808080" begin="arrowDown.mouseover" end="arrowDown.mouseout"/>
                  </use>
                  <path fill="none" stroke="white" stroke-width="1.5" d="M0,-3.0v7 M-2.5,-0.5L0,-3.0L2.5,-0.5"/>
                </g>
                <g id="arrowLeft" xlink:href="#dirArrow" transform="rotate(270) translate(-36 17)" onmousedown="handlePan(-1,0)">
                  <use xlink:href="#rim" fill="#404040">
                        <set attributeName="fill" to="#808080" begin="arrowLeft.mouseover" end="arrowLeft.mouseout"/>
                  </use>
                  <path fill="none" stroke="white" stroke-width="1.5" d="M0,-3.0v7 M-2.5,-0.5L0,-3.0L2.5,-0.5"/>
                </g>
        </g>
        <svg viewBox="0 0 15 15" width="100%" height="30px" preserveAspectRatio="xMaxYMin meet">
         <g id="arrow_out" transform="scale(0.3 0.3)">
          <a xlink:href="class_end_screen_a1264ffb72b3a3032443f9c4087222aef_cgraph_org.svg" target="_base">
           <rect id="button" ry="5" rx="5" y="6" x="6" height="38" width="38"
                fill="#f2f5e9" fill-opacity="0.5" stroke="#606060" stroke-width="1.0"/>
           <path id="arrow"
             d="M 11.500037,31.436501 C 11.940474,20.09759 22.043105,11.32322 32.158766,21.979434 L 37.068811,17.246167 C 37.068811,17.246167 37.088388,32 37.088388,32 L 22.160133,31.978069 C 22.160133,31.978069 26.997745,27.140456 26.997745,27.140456 C 18.528582,18.264221 13.291696,25.230495 11.500037,31.436501 z"
             style="fill:#404040;"/>
          </a>
         </g>
        </svg>
</svg>
