<?xml version="1.0" encoding="UTF-8" standalone="no"?>
<!DOCTYPE svg PUBLIC "-//W3C//DTD SVG 1.1//EN"
 "http://www.w3.org/Graphics/SVG/1.1/DTD/svg11.dtd">
<!-- Generated by graphviz version 2.36.0 (20140111.2315)
 -->
<!-- Title: EndScreen.init Pages: 1 -->
<!--zoomable 342 -->
<svg id="main" version="1.1" xmlns="http://www.w3.org/2000/svg" xmlns:xlink="http://www.w3.org/1999/xlink" xml:space="preserve" onload="init(evt)">
<style type="text/css"><![CDATA[
.edge:hover path { stroke: red; }
.edge:hover polygon { stroke: red; fill: red; }
]]></style>
<script type="text/javascript"><![CDATA[
var edges = document.getElementsByTagName('g');
if (edges && edges.length) {
  for (var i=0;i<edges.length;i++) {
    if (edges[i].id.substr(0,4)=='edge') {
      edges[i].setAttribute('class','edge');
    }
  }
}
]]></script>
        <defs>
                <circle id="rim" cx="0" cy="0" r="7"/>
                <circle id="rim2" cx="0" cy="0" r="3.5"/>
                <g id="zoomPlus">
                        <use xlink:href="#rim" fill="#404040">
                                <set attributeName="fill" to="#808080" begin="zoomplus.mouseover" end="zoomplus.mouseout"/>
                        </use>
                        <path d="M-4,0h8M0,-4v8" fill="none" stroke="white" stroke-width="1.5" pointer-events="none"/>
                </g>
                <g id="zoomMin">
                        <use xlink:href="#rim" fill="#404040">
                                <set attributeName="fill" to="#808080" begin="zoomminus.mouseover" end="zoomminus.mouseout"/>
                        </use>
                        <path d="M-4,0h8" fill="none" stroke="white" stroke-width="1.5" pointer-events="none"/>
                </g>
                <g id="dirArrow">
                        <path fill="none" stroke="white" stroke-width="1.5" d="M0,-3.0v7 M-2.5,-0.5L0,-3.0L2.5,-0.5"/>
                </g>
               <g id="resetDef">
                       <use xlink:href="#rim2" fill="#404040">
                               <set attributeName="fill" to="#808080" begin="reset.mouseover" end="reset.mouseout"/>
                       </use>
               </g>
        </defs>

<script type="text/javascript">
var viewWidth = 1880;
var viewHeight = 342;
var sectionId = 'dynsection-1';
</script>
<script xlink:href="../../svgpan.js"/>
<svg id="graph" class="graph">
<g id="viewport">
<title>EndScreen.init</title>
<polygon fill="white" stroke="none" points="-4,4 -4,-338.026 1876,-338.026 1876,4 -4,4"/>
<!-- Node1 -->
<g id="node1" class="node"><title>Node1</title>
<polygon fill="#bfbfbf" stroke="black" points="0,-161.5 0,-180.5 86,-180.5 86,-161.5 0,-161.5"/>
<text text-anchor="middle" x="43" y="-168.5" font-family="Helvetica,sans-Serif" font-size="10.00">EndScreen.init</text>
</g>
<!-- Node2 -->
<g id="node2" class="node"><title>Node2</title>
<g id="a_node2"><a xlink:href="../../d2/db8/class_menu.html#a3c99ad09e9f2f975c1a0d0597642651a" target="_top" xlink:title="Menu.init">
<polygon fill="white" stroke="black" points="122,-161.5 122,-180.5 182,-180.5 182,-161.5 122,-161.5"/>
<text text-anchor="middle" x="152" y="-168.5" font-family="Helvetica,sans-Serif" font-size="10.00">Menu.init</text>
</a>
</g>
</g>
<!-- Node1&#45;&gt;Node2 -->
<g id="edge1" class="edge"><title>Node1&#45;&gt;Node2</title>
<path fill="none" stroke="midnightblue" d="M86.2892,-171C94.6681,-171 103.431,-171 111.705,-171"/>
<polygon fill="midnightblue" stroke="midnightblue" points="111.859,-174.5 121.859,-171 111.859,-167.5 111.859,-174.5"/>
</g>
<!-- Node3 -->
<g id="node3" class="node"><title>Node3</title>
<g id="a_node3"><a xlink:href="../../d2/db8/class_menu.html#a8a6e6125f0dc2dc7e19c6655ba6376a2" target="_top" xlink:title="Menu.addIntroText">
<polygon fill="white" stroke="black" points="218,-199.5 218,-218.5 322,-218.5 322,-199.5 218,-199.5"/>
<text text-anchor="middle" x="270" y="-206.5" font-family="Helvetica,sans-Serif" font-size="10.00">Menu.addIntroText</text>
</a>
</g>
</g>
<!-- Node2&#45;&gt;Node3 -->
<g id="edge2" class="edge"><title>Node2&#45;&gt;Node3</title>
<path fill="none" stroke="midnightblue" d="M182.272,-180.589C196.697,-185.314 214.293,-191.079 229.857,-196.177"/>
<polygon fill="midnightblue" stroke="midnightblue" points="229.145,-199.627 239.738,-199.414 231.324,-192.975 229.145,-199.627"/>
</g>
<!-- Node4 -->
<g id="node4" class="node"><title>Node4</title>
<g id="a_node4"><a xlink:href="../../db/d97/class_box_world.html#a55bf92d3f466bfaade0f6d199d8c9bd9" target="_top" xlink:title="BoxWorld.init">
<polygon fill="white" stroke="black" points="231.5,-161.5 231.5,-180.5 308.5,-180.5 308.5,-161.5 231.5,-161.5"/>
<text text-anchor="middle" x="270" y="-168.5" font-family="Helvetica,sans-Serif" font-size="10.00">BoxWorld.init</text>
</a>
</g>
</g>
<!-- Node2&#45;&gt;Node4 -->
<g id="edge3" class="edge"><title>Node2&#45;&gt;Node4</title>
<path fill="none" stroke="midnightblue" d="M182.272,-171C194.029,-171 207.893,-171 221.046,-171"/>
<polygon fill="midnightblue" stroke="midnightblue" points="221.388,-174.5 231.388,-171 221.388,-167.5 221.388,-174.5"/>
</g>
<!-- Node5 -->
<g id="node5" class="node"><title>Node5</title>
<g id="a_node5"><a xlink:href="../../db/d97/class_box_world.html#a69798621c944e846f045aaf3937505f9" target="_top" xlink:title="BoxWorld.addStarterObjects">
<polygon fill="white" stroke="black" points="980.5,-256.5 980.5,-275.5 1131.5,-275.5 1131.5,-256.5 980.5,-256.5"/>
<text text-anchor="middle" x="1056" y="-263.5" font-family="Helvetica,sans-Serif" font-size="10.00">BoxWorld.addStarterObjects</text>
</a>
</g>
</g>
<!-- Node4&#45;&gt;Node5 -->
<g id="edge4" class="edge"><title>Node4&#45;&gt;Node5</title>
<path fill="none" stroke="midnightblue" d="M298.525,-180.515C306.205,-183.369 314.498,-186.64 322,-190 338.511,-197.396 341.083,-202.588 358,-209 458.093,-246.936 484.959,-266 592,-266 592,-266 592,-266 757,-266 828.893,-266 910.542,-266 970.173,-266"/>
<polygon fill="midnightblue" stroke="midnightblue" points="970.295,-269.5 980.294,-266 970.294,-262.5 970.295,-269.5"/>
</g>
<!-- Node7 -->
<g id="node7" class="node"><title>Node7</title>
<g id="a_node7"><a xlink:href="../../db/d97/class_box_world.html#a726e747e023543658d7a345cc6466ccb" target="_top" xlink:title="BoxWorld.createScene">
<polygon fill="white" stroke="black" points="358,-180.5 358,-199.5 482,-199.5 482,-180.5 358,-180.5"/>
<text text-anchor="middle" x="420" y="-187.5" font-family="Helvetica,sans-Serif" font-size="10.00">BoxWorld.createScene</text>
</a>
</g>
</g>
<!-- Node4&#45;&gt;Node7 -->
<g id="edge6" class="edge"><title>Node4&#45;&gt;Node7</title>
<path fill="none" stroke="midnightblue" d="M308.73,-175.844C320.604,-177.368 334.135,-179.105 347.553,-180.828"/>
<polygon fill="midnightblue" stroke="midnightblue" points="347.399,-184.337 357.763,-182.138 348.29,-177.394 347.399,-184.337"/>
</g>
<!-- Node22 -->
<g id="node22" class="node"><title>Node22</title>
<g id="a_node22"><a xlink:href="../../db/d97/class_box_world.html#ad20a4e43406c44f4bbf201d1d1028998" target="_top" xlink:title="BoxWorld.start">
<polygon fill="white" stroke="black" points="1013,-142.5 1013,-161.5 1099,-161.5 1099,-142.5 1013,-142.5"/>
<text text-anchor="middle" x="1056" y="-149.5" font-family="Helvetica,sans-Serif" font-size="10.00">BoxWorld.start</text>
</a>
</g>
</g>
<!-- Node4&#45;&gt;Node22 -->
<g id="edge42" class="edge"><title>Node4&#45;&gt;Node22</title>
<path fill="none" stroke="midnightblue" d="M308.516,-167.337C368.39,-161.815 489.279,-152 592,-152 592,-152 592,-152 757,-152 842.898,-152 942.724,-152 1002.28,-152"/>
<polygon fill="midnightblue" stroke="midnightblue" points="1002.56,-155.5 1012.56,-152 1002.56,-148.5 1002.56,-155.5"/>
</g>
<!-- Node6 -->
<g id="node6" class="node"><title>Node6</title>
<g id="a_node6"><a xlink:href="../../db/d97/class_box_world.html#a2542cc74ebeba6a9768a443a55186901" target="_top" xlink:title="BoxWorld.createObstacleArray">
<polygon fill="white" stroke="black" points="1168.5,-294.5 1168.5,-313.5 1329.5,-313.5 1329.5,-294.5 1168.5,-294.5"/>
<text text-anchor="middle" x="1249" y="-301.5" font-family="Helvetica,sans-Serif" font-size="10.00">BoxWorld.createObstacleArray</text>
</a>
</g>
</g>
<!-- Node5&#45;&gt;Node6 -->
<g id="edge5" class="edge"><title>Node5&#45;&gt;Node6</title>
<path fill="none" stroke="midnightblue" d="M1105.2,-275.589C1130.97,-280.716 1162.89,-287.067 1190.01,-292.463"/>
<polygon fill="midnightblue" stroke="midnightblue" points="1189.66,-295.961 1200.15,-294.48 1191.02,-289.096 1189.66,-295.961"/>
</g>
<!-- Node8 -->
<g id="node8" class="node"><title>Node8</title>
<g id="a_node8"><a xlink:href="../../db/d97/class_box_world.html#aa7e2049d7be23e15fd2ec7fa2922ed79" target="_top" xlink:title="BoxWorld.handleKeyInput">
<polygon fill="white" stroke="black" points="525,-104.5 525,-123.5 661,-123.5 661,-104.5 525,-104.5"/>
<text text-anchor="middle" x="593" y="-111.5" font-family="Helvetica,sans-Serif" font-size="10.00">BoxWorld.handleKeyInput</text>
</a>
</g>
</g>
<!-- Node7&#45;&gt;Node8 -->
<g id="edge7" class="edge"><title>Node7&#45;&gt;Node8</title>
<path fill="none" stroke="midnightblue" d="M442.657,-180.375C472.595,-167.069 526.794,-142.98 561.012,-127.772"/>
<polygon fill="midnightblue" stroke="midnightblue" points="562.802,-130.807 570.519,-123.547 559.959,-124.41 562.802,-130.807"/>
</g>
<!-- Node31 -->
<g id="node31" class="node"><title>Node31</title>
<g id="a_node31"><a xlink:href="../../db/d97/class_box_world.html#a2d44485a181577acb4d79b6b81f26fff" target="_top" xlink:title="BoxWorld.handleKeyRelease">
<polygon fill="white" stroke="black" points="518.5,-180.5 518.5,-199.5 667.5,-199.5 667.5,-180.5 518.5,-180.5"/>
<text text-anchor="middle" x="593" y="-187.5" font-family="Helvetica,sans-Serif" font-size="10.00">BoxWorld.handleKeyRelease</text>
</a>
</g>
</g>
<!-- Node7&#45;&gt;Node31 -->
<g id="edge41" class="edge"><title>Node7&#45;&gt;Node31</title>
<path fill="none" stroke="midnightblue" d="M482.252,-190C490.655,-190 499.399,-190 508.121,-190"/>
<polygon fill="midnightblue" stroke="midnightblue" points="508.327,-193.5 518.327,-190 508.327,-186.5 508.327,-193.5"/>
</g>
<!-- Node9 -->
<g id="node9" class="node"><title>Node9</title>
<g id="a_node9"><a xlink:href="../../db/d97/class_box_world.html#adc4c9d78ffde3d052c4c92047eb98e55" target="_top" xlink:title="BoxWorld.allowMovement">
<polygon fill="white" stroke="black" points="1566.5,-104.5 1566.5,-123.5 1703.5,-123.5 1703.5,-104.5 1566.5,-104.5"/>
<text text-anchor="middle" x="1635" y="-111.5" font-family="Helvetica,sans-Serif" font-size="10.00">BoxWorld.allowMovement</text>
</a>
</g>
</g>
<!-- Node8&#45;&gt;Node9 -->
<g id="edge8" class="edge"><title>Node8&#45;&gt;Node9</title>
<path fill="none" stroke="midnightblue" d="M616.016,-104.375C664.862,-83.924 786.415,-38 893,-38 893,-38 893,-38 1250,-38 1374.73,-38 1410.29,-21.9838 1530,-57 1534.19,-58.2257 1578.5,-82.8566 1607.91,-99.3352"/>
<polygon fill="midnightblue" stroke="midnightblue" points="1606.43,-102.52 1616.87,-104.359 1609.86,-96.4145 1606.43,-102.52"/>
</g>
<!-- Node14 -->
<g id="node14" class="node"><title>Node14</title>
<g id="a_node14"><a xlink:href="../../db/d97/class_box_world.html#a04c6bf977c4292a5433649fb3745fd6b" target="_top" xlink:title="BoxWorld.reset">
<polygon fill="white" stroke="black" points="1205,-104.5 1205,-123.5 1293,-123.5 1293,-104.5 1205,-104.5"/>
<text text-anchor="middle" x="1249" y="-111.5" font-family="Helvetica,sans-Serif" font-size="10.00">BoxWorld.reset</text>
</a>
</g>
</g>
<!-- Node8&#45;&gt;Node14 -->
<g id="edge13" class="edge"><title>Node8&#45;&gt;Node14</title>
<path fill="none" stroke="midnightblue" d="M661.221,-114C791.58,-114 1076.3,-114 1194.7,-114"/>
<polygon fill="midnightblue" stroke="midnightblue" points="1194.96,-117.5 1204.96,-114 1194.96,-110.5 1194.96,-117.5"/>
</g>
<!-- Node15 -->
<g id="node15" class="node"><title>Node15</title>
<g id="a_node15"><a xlink:href="../../da/de2/class_sticky_box.html#aa1bb8f78f676b01c688d75d386758444" target="_top" xlink:title="StickyBox.setDirection">
<polygon fill="white" stroke="black" points="1386,-66.5 1386,-85.5 1510,-85.5 1510,-66.5 1386,-66.5"/>
<text text-anchor="middle" x="1448" y="-73.5" font-family="Helvetica,sans-Serif" font-size="10.00">StickyBox.setDirection</text>
</a>
</g>
</g>
<!-- Node8&#45;&gt;Node15 -->
<g id="edge16" class="edge"><title>Node8&#45;&gt;Node15</title>
<path fill="none" stroke="midnightblue" d="M640.124,-104.46C698.66,-93.2037 802.866,-76 893,-76 893,-76 893,-76 1057,-76 1168.29,-76 1297.45,-76 1375.65,-76"/>
<polygon fill="midnightblue" stroke="midnightblue" points="1375.87,-79.5001 1385.87,-76 1375.87,-72.5001 1375.87,-79.5001"/>
</g>
<!-- Node17 -->
<g id="node17" class="node"><title>Node17</title>
<g id="a_node17"><a xlink:href="../../db/d97/class_box_world.html#aad670712776afe126e51791097027e05" target="_top" xlink:title="BoxWorld.winLevel">
<polygon fill="white" stroke="black" points="704.5,-180.5 704.5,-199.5 807.5,-199.5 807.5,-180.5 704.5,-180.5"/>
<text text-anchor="middle" x="756" y="-187.5" font-family="Helvetica,sans-Serif" font-size="10.00">BoxWorld.winLevel</text>
</a>
</g>
</g>
<!-- Node8&#45;&gt;Node17 -->
<g id="edge17" class="edge"><title>Node8&#45;&gt;Node17</title>
<path fill="none" stroke="midnightblue" d="M614.391,-123.625C642.456,-136.874 693.17,-160.813 725.408,-176.031"/>
<polygon fill="midnightblue" stroke="midnightblue" points="724.238,-179.349 734.775,-180.453 727.226,-173.019 724.238,-179.349"/>
</g>
<!-- Node10 -->
<g id="node10" class="node"><title>Node10</title>
<g id="a_node10"><a xlink:href="../../da/de2/class_sticky_box.html#a6ba3f89630df9d81df5644a3e5f4e387" target="_top" xlink:title="StickyBox.getXDirection">
<polygon fill="white" stroke="black" points="1740.5,-142.5 1740.5,-161.5 1871.5,-161.5 1871.5,-142.5 1740.5,-142.5"/>
<text text-anchor="middle" x="1806" y="-149.5" font-family="Helvetica,sans-Serif" font-size="10.00">StickyBox.getXDirection</text>
</a>
</g>
</g>
<!-- Node9&#45;&gt;Node10 -->
<g id="edge9" class="edge"><title>Node9&#45;&gt;Node10</title>
<path fill="none" stroke="midnightblue" d="M1678.65,-123.589C1701.15,-128.649 1728.95,-134.9 1752.74,-140.249"/>
<polygon fill="midnightblue" stroke="midnightblue" points="1752.14,-143.701 1762.66,-142.48 1753.67,-136.871 1752.14,-143.701"/>
</g>
<!-- Node11 -->
<g id="node11" class="node"><title>Node11</title>
<g id="a_node11"><a xlink:href="../../da/de2/class_sticky_box.html#ab0bd7cafb7f243e3951558ddb8728b96" target="_top" xlink:title="StickyBox.getXPrev">
<polygon fill="white" stroke="black" points="1751.5,-66.5 1751.5,-85.5 1860.5,-85.5 1860.5,-66.5 1751.5,-66.5"/>
<text text-anchor="middle" x="1806" y="-73.5" font-family="Helvetica,sans-Serif" font-size="10.00">StickyBox.getXPrev</text>
</a>
</g>
</g>
<!-- Node9&#45;&gt;Node11 -->
<g id="edge10" class="edge"><title>Node9&#45;&gt;Node11</title>
<path fill="none" stroke="midnightblue" d="M1678.65,-104.411C1701.15,-99.3513 1728.95,-93.1004 1752.74,-87.7512"/>
<polygon fill="midnightblue" stroke="midnightblue" points="1753.67,-91.1286 1762.66,-85.5201 1752.14,-84.2991 1753.67,-91.1286"/>
</g>
<!-- Node12 -->
<g id="node12" class="node"><title>Node12</title>
<g id="a_node12"><a xlink:href="../../da/de2/class_sticky_box.html#a69e5ccf2a79159c03dea2e048df13318" target="_top" xlink:title="StickyBox.getYDirection">
<polygon fill="white" stroke="black" points="1741,-199.5 1741,-218.5 1871,-218.5 1871,-199.5 1741,-199.5"/>
<text text-anchor="middle" x="1806" y="-206.5" font-family="Helvetica,sans-Serif" font-size="10.00">StickyBox.getYDirection</text>
</a>
</g>
</g>
<!-- Node9&#45;&gt;Node12 -->
<g id="edge11" class="edge"><title>Node9&#45;&gt;Node12</title>
<path fill="none" stroke="midnightblue" d="M1653.13,-123.632C1682.82,-140.318 1743.98,-174.698 1778.95,-194.356"/>
<polygon fill="midnightblue" stroke="midnightblue" points="1777.64,-197.635 1788.07,-199.484 1781.07,-191.533 1777.64,-197.635"/>
</g>
<!-- Node13 -->
<g id="node13" class="node"><title>Node13</title>
<g id="a_node13"><a xlink:href="../../da/de2/class_sticky_box.html#a4c6abed944faed9d9b226079e99cfc24" target="_top" xlink:title="StickyBox.getYPrev">
<polygon fill="white" stroke="black" points="1752,-104.5 1752,-123.5 1860,-123.5 1860,-104.5 1752,-104.5"/>
<text text-anchor="middle" x="1806" y="-111.5" font-family="Helvetica,sans-Serif" font-size="10.00">StickyBox.getYPrev</text>
</a>
</g>
</g>
<!-- Node9&#45;&gt;Node13 -->
<g id="edge12" class="edge"><title>Node9&#45;&gt;Node13</title>
<path fill="none" stroke="midnightblue" d="M1703.76,-114C1716.25,-114 1729.24,-114 1741.59,-114"/>
<polygon fill="midnightblue" stroke="midnightblue" points="1741.78,-117.5 1751.78,-114 1741.78,-110.5 1741.78,-117.5"/>
</g>
<!-- Node14&#45;&gt;Node15 -->
<g id="edge14" class="edge"><title>Node14&#45;&gt;Node15</title>
<path fill="none" stroke="midnightblue" d="M1293.23,-105.661C1320.91,-100.322 1357.2,-93.3223 1387.57,-87.4637"/>
<polygon fill="midnightblue" stroke="midnightblue" points="1388.47,-90.8554 1397.62,-85.5246 1387.14,-83.9821 1388.47,-90.8554"/>
</g>
<!-- Node16 -->
<g id="node16" class="node"><title>Node16</title>
<g id="a_node16"><a xlink:href="../../da/de2/class_sticky_box.html#a5d95d2ed2e13f0d87a44311db77f9e36" target="_top" xlink:title="StickyBox.setPreviousDirection">
<polygon fill="white" stroke="black" points="1366,-104.5 1366,-123.5 1530,-123.5 1530,-104.5 1366,-104.5"/>
<text text-anchor="middle" x="1448" y="-111.5" font-family="Helvetica,sans-Serif" font-size="10.00">StickyBox.setPreviousDirection</text>
</a>
</g>
</g>
<!-- Node14&#45;&gt;Node16 -->
<g id="edge15" class="edge"><title>Node14&#45;&gt;Node16</title>
<path fill="none" stroke="midnightblue" d="M1293.23,-114C1311.61,-114 1333.79,-114 1355.52,-114"/>
<polygon fill="midnightblue" stroke="midnightblue" points="1355.78,-117.5 1365.78,-114 1355.78,-110.5 1355.78,-117.5"/>
</g>
<!-- Node18 -->
<g id="node18" class="node"><title>Node18</title>
<g id="a_node18"><a xlink:href="../../d6/d4f/class_item_box_world.html#aa559fc2680327b41fb376e2eda8e82e3" target="_top" xlink:title="ItemBoxWorld.init">
<polygon fill="white" stroke="black" points="844.5,-218.5 844.5,-237.5 943.5,-237.5 943.5,-218.5 844.5,-218.5"/>
<text text-anchor="middle" x="894" y="-225.5" font-family="Helvetica,sans-Serif" font-size="10.00">ItemBoxWorld.init</text>
</a>
</g>
</g>
<!-- Node17&#45;&gt;Node18 -->
<g id="edge18" class="edge"><title>Node17&#45;&gt;Node18</title>
<path fill="none" stroke="midnightblue" d="M791.319,-199.589C808.794,-204.472 830.241,-210.464 848.925,-215.685"/>
<polygon fill="midnightblue" stroke="midnightblue" points="848.119,-219.094 858.692,-218.414 850.003,-212.352 848.119,-219.094"/>
</g>
<!-- Node18&#45;&gt;Node5 -->
<g id="edge19" class="edge"><title>Node18&#45;&gt;Node5</title>
<path fill="none" stroke="midnightblue" d="M935.375,-237.589C956.488,-242.604 982.529,-248.788 1004.92,-254.105"/>
<polygon fill="midnightblue" stroke="midnightblue" points="1004.38,-257.574 1014.92,-256.48 1005.99,-250.764 1004.38,-257.574"/>
</g>
<!-- Node18&#45;&gt;Node7 -->
<g id="edge40" class="edge"><title>Node18&#45;&gt;Node7</title>
<path fill="none" stroke="midnightblue" d="M844.266,-227.747C772.546,-226.874 634.465,-223.283 518,-209 503.192,-207.184 487.255,-204.41 472.663,-201.539"/>
<polygon fill="midnightblue" stroke="midnightblue" points="473.302,-198.097 462.807,-199.546 471.915,-204.958 473.302,-198.097"/>
</g>
<!-- Node19 -->
<g id="node19" class="node"><title>Node19</title>
<g id="a_node19"><a xlink:href="../../d6/d4f/class_item_box_world.html#a7ead15fd9fd8095f928640161d48fdf8" target="_top" xlink:title="ItemBoxWorld.addAllItems">
<polygon fill="white" stroke="black" points="985.5,-218.5 985.5,-237.5 1126.5,-237.5 1126.5,-218.5 985.5,-218.5"/>
<text text-anchor="middle" x="1056" y="-225.5" font-family="Helvetica,sans-Serif" font-size="10.00">ItemBoxWorld.addAllItems</text>
</a>
</g>
</g>
<!-- Node18&#45;&gt;Node19 -->
<g id="edge20" class="edge"><title>Node18&#45;&gt;Node19</title>
<path fill="none" stroke="midnightblue" d="M943.875,-228C953.764,-228 964.405,-228 975.045,-228"/>
<polygon fill="midnightblue" stroke="midnightblue" points="975.222,-231.5 985.222,-228 975.222,-224.5 975.222,-231.5"/>
</g>
<!-- Node18&#45;&gt;Node22 -->
<g id="edge23" class="edge"><title>Node18&#45;&gt;Node22</title>
<path fill="none" stroke="midnightblue" d="M915.264,-218.375C943.156,-205.126 993.554,-181.187 1025.59,-165.969"/>
<polygon fill="midnightblue" stroke="midnightblue" points="1027.37,-168.999 1034.9,-161.547 1024.37,-162.676 1027.37,-168.999"/>
</g>
<!-- Node20 -->
<g id="node20" class="node"><title>Node20</title>
<g id="a_node20"><a xlink:href="../../d6/d4f/class_item_box_world.html#a1890e6c53a4a73e44e9528009fde508d" target="_top" xlink:title="ItemBoxWorld.itemExists">
<polygon fill="white" stroke="black" points="1182,-256.5 1182,-275.5 1316,-275.5 1316,-256.5 1182,-256.5"/>
<text text-anchor="middle" x="1249" y="-263.5" font-family="Helvetica,sans-Serif" font-size="10.00">ItemBoxWorld.itemExists</text>
</a>
</g>
</g>
<!-- Node19&#45;&gt;Node20 -->
<g id="edge21" class="edge"><title>Node19&#45;&gt;Node20</title>
<path fill="none" stroke="midnightblue" d="M1105.2,-237.589C1130.97,-242.716 1162.89,-249.067 1190.01,-254.463"/>
<polygon fill="midnightblue" stroke="midnightblue" points="1189.66,-257.961 1200.15,-256.48 1191.02,-251.096 1189.66,-257.961"/>
</g>
<!-- Node21 -->
<g id="node21" class="node"><title>Node21</title>
<g id="a_node21"><a xlink:href="../../d6/d4f/class_item_box_world.html#af1bcde0672796e926560684004ed8e81" target="_top" xlink:title="ItemBoxWorld.addSingleItem">
<polygon fill="white" stroke="black" points="1172,-218.5 1172,-237.5 1326,-237.5 1326,-218.5 1172,-218.5"/>
<text text-anchor="middle" x="1249" y="-225.5" font-family="Helvetica,sans-Serif" font-size="10.00">ItemBoxWorld.addSingleItem</text>
</a>
</g>
</g>
<!-- Node19&#45;&gt;Node21 -->
<g id="edge22" class="edge"><title>Node19&#45;&gt;Node21</title>
<path fill="none" stroke="midnightblue" d="M1126.77,-228C1138.14,-228 1150.04,-228 1161.75,-228"/>
<polygon fill="midnightblue" stroke="midnightblue" points="1161.98,-231.5 1171.98,-228 1161.98,-224.5 1161.98,-231.5"/>
</g>
<!-- Node23 -->
<g id="node23" class="node"><title>Node23</title>
<g id="a_node23"><a xlink:href="../../db/d97/class_box_world.html#a6794c083c2a0263c2f585f4ae4b7e39c" target="_top" xlink:title="BoxWorld.updateSprites">
<polygon fill="white" stroke="black" points="1183.5,-142.5 1183.5,-161.5 1314.5,-161.5 1314.5,-142.5 1183.5,-142.5"/>
<text text-anchor="middle" x="1249" y="-149.5" font-family="Helvetica,sans-Serif" font-size="10.00">BoxWorld.updateSprites</text>
</a>
</g>
</g>
<!-- Node22&#45;&gt;Node23 -->
<g id="edge24" class="edge"><title>Node22&#45;&gt;Node23</title>
<path fill="none" stroke="midnightblue" d="M1099.39,-152C1121.03,-152 1148,-152 1173,-152"/>
<polygon fill="midnightblue" stroke="midnightblue" points="1173.2,-155.5 1183.2,-152 1173.2,-148.5 1173.2,-155.5"/>
</g>
<!-- Node23&#45;&gt;Node10 -->
<g id="edge34" class="edge"><title>Node23&#45;&gt;Node10</title>
<path fill="none" stroke="midnightblue" d="M1314.75,-152C1418.21,-152 1620.28,-152 1729.92,-152"/>
<polygon fill="midnightblue" stroke="midnightblue" points="1730.23,-155.5 1740.23,-152 1730.23,-148.5 1730.23,-155.5"/>
</g>
<!-- Node23&#45;&gt;Node12 -->
<g id="edge35" class="edge"><title>Node23&#45;&gt;Node12</title>
<path fill="none" stroke="midnightblue" d="M1268.59,-161.581C1286.28,-171.47 1312.7,-188.34 1330,-209 1353.99,-237.657 1334.42,-265.013 1366,-285 1492.94,-365.331 1561.52,-332.617 1704,-285 1738.78,-273.375 1771.2,-244.538 1789.51,-225.916"/>
<polygon fill="midnightblue" stroke="midnightblue" points="1792.08,-228.289 1796.46,-218.641 1787.02,-223.454 1792.08,-228.289"/>
</g>
<!-- Node23&#45;&gt;Node15 -->
<g id="edge37" class="edge"><title>Node23&#45;&gt;Node15</title>
<path fill="none" stroke="midnightblue" d="M1308.35,-142.369C1315.9,-139.92 1323.32,-136.849 1330,-133 1350.16,-121.384 1345.83,-106.588 1366,-95 1369.91,-92.7539 1374.07,-90.7731 1378.36,-89.0262"/>
<polygon fill="midnightblue" stroke="midnightblue" points="1379.71,-92.2596 1387.92,-85.5636 1377.33,-85.6779 1379.71,-92.2596"/>
</g>
<!-- Node23&#45;&gt;Node16 -->
<g id="edge38" class="edge"><title>Node23&#45;&gt;Node16</title>
<path fill="none" stroke="midnightblue" d="M1299.46,-142.46C1326.15,-137.31 1359.3,-130.916 1387.42,-125.494"/>
<polygon fill="midnightblue" stroke="midnightblue" points="1388.37,-128.875 1397.52,-123.544 1387.04,-122.001 1388.37,-128.875"/>
</g>
<!-- Node24 -->
<g id="node24" class="node"><title>Node24</title>
<g id="a_node24"><a xlink:href="../../db/d97/class_box_world.html#a4079bed8937c9f621decfbe1309e31e2" target="_top" xlink:title="BoxWorld.checkAllCollisions">
<polygon fill="white" stroke="black" points="1375,-256.5 1375,-275.5 1521,-275.5 1521,-256.5 1375,-256.5"/>
<text text-anchor="middle" x="1448" y="-263.5" font-family="Helvetica,sans-Serif" font-size="10.00">BoxWorld.checkAllCollisions</text>
</a>
</g>
</g>
<!-- Node23&#45;&gt;Node24 -->
<g id="edge25" class="edge"><title>Node23&#45;&gt;Node24</title>
<path fill="none" stroke="midnightblue" d="M1303.83,-161.585C1313.25,-165.016 1322.44,-169.674 1330,-176 1357.14,-198.697 1338.18,-225.141 1366,-247 1368.29,-248.799 1370.72,-250.432 1373.26,-251.915"/>
<polygon fill="midnightblue" stroke="midnightblue" points="1371.72,-255.06 1382.23,-256.397 1374.85,-248.798 1371.72,-255.06"/>
</g>
<!-- Node29 -->
<g id="node29" class="node"><title>Node29</title>
<g id="a_node29"><a xlink:href="../../da/de2/class_sticky_box.html#a185ee469367b376e6c5969a03d089d57" target="_top" xlink:title="StickyBox.move">
<polygon fill="white" stroke="black" points="1401.5,-218.5 1401.5,-237.5 1494.5,-237.5 1494.5,-218.5 1401.5,-218.5"/>
<text text-anchor="middle" x="1448" y="-225.5" font-family="Helvetica,sans-Serif" font-size="10.00">StickyBox.move</text>
</a>
</g>
</g>
<!-- Node23&#45;&gt;Node29 -->
<g id="edge36" class="edge"><title>Node23&#45;&gt;Node29</title>
<path fill="none" stroke="midnightblue" d="M1294.64,-161.544C1306.57,-165.11 1319.16,-169.839 1330,-176 1348.87,-186.723 1346.81,-198.858 1366,-209 1373.89,-213.168 1382.68,-216.431 1391.49,-218.983"/>
<polygon fill="midnightblue" stroke="midnightblue" points="1390.83,-222.428 1401.39,-221.572 1392.6,-215.655 1390.83,-222.428"/>
</g>
<!-- Node30 -->
<g id="node30" class="node"><title>Node30</title>
<g id="a_node30"><a xlink:href="../../da/de2/class_sticky_box.html#a59337f0aa3c7379a2cb9c76bdc621daf" target="_top" xlink:title="StickyBox.setStuck">
<polygon fill="white" stroke="black" points="1394,-180.5 1394,-199.5 1502,-199.5 1502,-180.5 1394,-180.5"/>
<text text-anchor="middle" x="1448" y="-187.5" font-family="Helvetica,sans-Serif" font-size="10.00">StickyBox.setStuck</text>
</a>
</g>
</g>
<!-- Node23&#45;&gt;Node30 -->
<g id="edge39" class="edge"><title>Node23&#45;&gt;Node30</title>
<path fill="none" stroke="midnightblue" d="M1299.46,-161.54C1326.15,-166.69 1359.3,-173.084 1387.42,-178.506"/>
<polygon fill="midnightblue" stroke="midnightblue" points="1387.04,-181.999 1397.52,-180.456 1388.37,-175.125 1387.04,-181.999"/>
</g>
<!-- Node24&#45;&gt;Node17 -->
<g id="edge33" class="edge"><title>Node24&#45;&gt;Node17</title>
<path fill="none" stroke="midnightblue" d="M1387.92,-256.436C1380.28,-253.977 1372.76,-250.885 1366,-247 1345.83,-235.412 1351.22,-218.545 1330,-209 1240.08,-168.542 946.111,-179.329 817.811,-186.272"/>
<polygon fill="midnightblue" stroke="midnightblue" points="817.551,-182.781 807.759,-186.827 817.937,-189.77 817.551,-182.781"/>
</g>
<!-- Node25 -->
<g id="node25" class="node"><title>Node25</title>
<g id="a_node25"><a xlink:href="../../db/d97/class_box_world.html#a55add11037cd6dc48556f2f42a9e11be" target="_top" xlink:title="BoxWorld.checkCollide">
<polygon fill="white" stroke="black" points="1574,-199.5 1574,-218.5 1696,-218.5 1696,-199.5 1574,-199.5"/>
<text text-anchor="middle" x="1635" y="-206.5" font-family="Helvetica,sans-Serif" font-size="10.00">BoxWorld.checkCollide</text>
</a>
</g>
</g>
<!-- Node24&#45;&gt;Node25 -->
<g id="edge26" class="edge"><title>Node24&#45;&gt;Node25</title>
<path fill="none" stroke="midnightblue" d="M1493.82,-256.499C1505.66,-253.713 1518.37,-250.474 1530,-247 1554.06,-239.811 1580.64,-230.065 1600.91,-222.243"/>
<polygon fill="midnightblue" stroke="midnightblue" points="1602.27,-225.47 1610.31,-218.577 1599.73,-218.948 1602.27,-225.47"/>
</g>
<!-- Node26 -->
<g id="node26" class="node"><title>Node26</title>
<g id="a_node26"><a xlink:href="../../db/d97/class_box_world.html#a72bacb2a6757900d8835249929fcc838" target="_top" xlink:title="BoxWorld.loseGame">
<polygon fill="white" stroke="black" points="1579,-47.5 1579,-66.5 1691,-66.5 1691,-47.5 1579,-47.5"/>
<text text-anchor="middle" x="1635" y="-54.5" font-family="Helvetica,sans-Serif" font-size="10.00">BoxWorld.loseGame</text>
</a>
</g>
</g>
<!-- Node24&#45;&gt;Node26 -->
<g id="edge29" class="edge"><title>Node24&#45;&gt;Node26</title>
<path fill="none" stroke="midnightblue" d="M1517.11,-256.364C1521.84,-253.856 1526.22,-250.775 1530,-247 1579.14,-197.962 1524.16,-150.398 1566,-95 1573.77,-84.7143 1585.18,-76.8201 1596.44,-70.9625"/>
<polygon fill="midnightblue" stroke="midnightblue" points="1598.26,-73.9727 1605.78,-66.5132 1595.25,-67.6527 1598.26,-73.9727"/>
</g>
<!-- Node28 -->
<g id="node28" class="node"><title>Node28</title>
<g id="a_node28"><a xlink:href="../../db/d97/class_box_world.html#ae6ffad41f7ba6122234157c72afe8f9c" target="_top" xlink:title="BoxWorld.onScreen">
<polygon fill="white" stroke="black" points="1580.5,-256.5 1580.5,-275.5 1689.5,-275.5 1689.5,-256.5 1580.5,-256.5"/>
<text text-anchor="middle" x="1635" y="-263.5" font-family="Helvetica,sans-Serif" font-size="10.00">BoxWorld.onScreen</text>
</a>
</g>
</g>
<!-- Node24&#45;&gt;Node28 -->
<g id="edge32" class="edge"><title>Node24&#45;&gt;Node28</title>
<path fill="none" stroke="midnightblue" d="M1521.06,-266C1537.28,-266 1554.4,-266 1570.26,-266"/>
<polygon fill="midnightblue" stroke="midnightblue" points="1570.48,-269.5 1580.48,-266 1570.48,-262.5 1570.48,-269.5"/>
</g>
<!-- Node25&#45;&gt;Node10 -->
<g id="edge27" class="edge"><title>Node25&#45;&gt;Node10</title>
<path fill="none" stroke="midnightblue" d="M1664.29,-199.459C1692.44,-189.965 1735.82,-175.333 1766.97,-164.826"/>
<polygon fill="midnightblue" stroke="midnightblue" points="1768.26,-168.084 1776.62,-161.572 1766.03,-161.451 1768.26,-168.084"/>
</g>
<!-- Node25&#45;&gt;Node12 -->
<g id="edge28" class="edge"><title>Node25&#45;&gt;Node12</title>
<path fill="none" stroke="midnightblue" d="M1696.06,-209C1707.29,-209 1719.14,-209 1730.74,-209"/>
<polygon fill="midnightblue" stroke="midnightblue" points="1730.84,-212.5 1740.84,-209 1730.84,-205.5 1730.84,-212.5"/>
</g>
<!-- Node27 -->
<g id="node27" class="node"><title>Node27</title>
<g id="a_node27"><a xlink:href="../../d4/d2f/class_lose_screen.html#a34f2cc2c803500316c9b8d854854d758" target="_top" xlink:title="LoseScreen.init">
<polygon fill="white" stroke="black" points="1761,-9.5 1761,-28.5 1851,-28.5 1851,-9.5 1761,-9.5"/>
<text text-anchor="middle" x="1806" y="-16.5" font-family="Helvetica,sans-Serif" font-size="10.00">LoseScreen.init</text>
</a>
</g>
</g>
<!-- Node26&#45;&gt;Node27 -->
<g id="edge30" class="edge"><title>Node26&#45;&gt;Node27</title>
<path fill="none" stroke="midnightblue" d="M1678.65,-47.411C1701.15,-42.3513 1728.95,-36.1004 1752.74,-30.7512"/>
<polygon fill="midnightblue" stroke="midnightblue" points="1753.67,-34.1286 1762.66,-28.5201 1752.14,-27.2991 1753.67,-34.1286"/>
</g>
<!-- Node27&#45;&gt;Node2 -->
<g id="edge31" class="edge"><title>Node27&#45;&gt;Node2</title>
<path fill="none" stroke="midnightblue" d="M1760.92,-15.1322C1693.69,-9.57685 1561.49,-1.42109e-14 1449,-0 419,-0 419,-0 419,-0 306.284,-0 203.272,-109.988 166.898,-153.543"/>
<polygon fill="midnightblue" stroke="midnightblue" points="164.16,-151.363 160.529,-161.316 169.574,-155.8 164.16,-151.363"/>
</g>
</g>
</svg>
        <g id="navigator" transform="translate(0 0)" fill="#404254">
                <rect fill="#f2f5e9" fill-opacity="0.5" stroke="#606060" stroke-width=".5" x="0" y="0" width="60" height="60"/>
                <use id="zoomplus" xlink:href="#zoomPlus" x="17" y="9" onmousedown="handleZoom(evt,'in')"/>
                <use id="zoomminus" xlink:href="#zoomMin" x="42" y="9" onmousedown="handleZoom(evt,'out')"/>
                <use id="reset" xlink:href="#resetDef" x="30" y="36" onmousedown="handleReset()"/>
                <g id="arrowUp" xlink:href="#dirArrow" transform="translate(30 24)" onmousedown="handlePan(0,-1)">
                  <use xlink:href="#rim" fill="#404040">
                        <set attributeName="fill" to="#808080" begin="arrowUp.mouseover" end="arrowUp.mouseout"/>
                  </use>
                  <path fill="none" stroke="white" stroke-width="1.5" d="M0,-3.0v7 M-2.5,-0.5L0,-3.0L2.5,-0.5"/>
                </g>
                <g id="arrowRight" xlink:href="#dirArrow" transform="rotate(90) translate(36 -43)" onmousedown="handlePan(1,0)">
                  <use xlink:href="#rim" fill="#404040">
                        <set attributeName="fill" to="#808080" begin="arrowRight.mouseover" end="arrowRight.mouseout"/>
                  </use>
                  <path fill="none" stroke="white" stroke-width="1.5" d="M0,-3.0v7 M-2.5,-0.5L0,-3.0L2.5,-0.5"/>
                </g>
                <g id="arrowDown" xlink:href="#dirArrow" transform="rotate(180) translate(-30 -48)" onmousedown="handlePan(0,1)">
                  <use xlink:href="#rim" fill="#404040">
                        <set attributeName="fill" to="#808080" begin="arrowDown.mouseover" end="arrowDown.mouseout"/>
                  </use>
                  <path fill="none" stroke="white" stroke-width="1.5" d="M0,-3.0v7 M-2.5,-0.5L0,-3.0L2.5,-0.5"/>
                </g>
                <g id="arrowLeft" xlink:href="#dirArrow" transform="rotate(270) translate(-36 17)" onmousedown="handlePan(-1,0)">
                  <use xlink:href="#rim" fill="#404040">
                        <set attributeName="fill" to="#808080" begin="arrowLeft.mouseover" end="arrowLeft.mouseout"/>
                  </use>
                  <path fill="none" stroke="white" stroke-width="1.5" d="M0,-3.0v7 M-2.5,-0.5L0,-3.0L2.5,-0.5"/>
                </g>
        </g>
        <svg viewBox="0 0 15 15" width="100%" height="30px" preserveAspectRatio="xMaxYMin meet">
         <g id="arrow_out" transform="scale(0.3 0.3)">
          <a xlink:href="class_end_screen_a1264ffb72b3a3032443f9c4087222aef_cgraph_org.svg" target="_base">
           <rect id="button" ry="5" rx="5" y="6" x="6" height="38" width="38"
                fill="#f2f5e9" fill-opacity="0.5" stroke="#606060" stroke-width="1.0"/>
           <path id="arrow"
             d="M 11.500037,31.436501 C 11.940474,20.09759 22.043105,11.32322 32.158766,21.979434 L 37.068811,17.246167 C 37.068811,17.246167 37.088388,32 37.088388,32 L 22.160133,31.978069 C 22.160133,31.978069 26.997745,27.140456 26.997745,27.140456 C 18.528582,18.264221 13.291696,25.230495 11.500037,31.436501 z"
             style="fill:#404040;"/>
          </a>
         </g>
        </svg>
</svg>
