<?xml version="1.0" encoding="UTF-8" standalone="no"?>
<!DOCTYPE svg PUBLIC "-//W3C//DTD SVG 1.1//EN"
 "http://www.w3.org/Graphics/SVG/1.1/DTD/svg11.dtd">
<!-- Generated by graphviz version 2.36.0 (20140111.2315)
 -->
<!-- Title: Menu Pages: 1 -->
<svg width="510pt" height="232pt"
 viewBox="0.00 0.00 510.00 232.00" xmlns="http://www.w3.org/2000/svg" xmlns:xlink="http://www.w3.org/1999/xlink">
<g id="graph0" class="graph" transform="scale(1 1) rotate(0) translate(4 228)">
<title>Menu</title>
<polygon fill="white" stroke="none" points="-4,4 -4,-228 506,-228 506,4 -4,4"/>
<!-- Node1 -->
<g id="node1" class="node"><title>Node1</title>
<polygon fill="#bfbfbf" stroke="black" points="196.5,-0.5 196.5,-19.5 239.5,-19.5 239.5,-0.5 196.5,-0.5"/>
<text text-anchor="middle" x="218" y="-7.5" font-family="Helvetica,sans-Serif" font-size="10.00">Menu</text>
</g>
<!-- Node2 -->
<g id="node2" class="node"><title>Node2</title>
<g id="a_node2"><a xlink:href="../../db/d97/class_box_world.html" target="_top" xlink:title="BoxWorld">
<polygon fill="white" stroke="black" points="188,-68.5 188,-87.5 248,-87.5 248,-68.5 188,-68.5"/>
<text text-anchor="middle" x="218" y="-75.5" font-family="Helvetica,sans-Serif" font-size="10.00">BoxWorld</text>
</a>
</g>
</g>
<!-- Node2&#45;&gt;Node1 -->
<g id="edge1" class="edge"><title>Node2&#45;&gt;Node1</title>
<path fill="none" stroke="#9a32cd" stroke-dasharray="5,2" d="M218,-58.0413C218,-45.4724 218,-29.5631 218,-19.8411"/>
<polygon fill="#9a32cd" stroke="#9a32cd" points="214.5,-58.3716 218,-68.3717 221.5,-58.3717 214.5,-58.3716"/>
<text text-anchor="middle" x="242" y="-41.5" font-family="Helvetica,sans-Serif" font-size="10.00"> myGame</text>
</g>
<!-- Node3 -->
<g id="node3" class="node"><title>Node3</title>
<polygon fill="white" stroke="#bfbfbf" points="318,-146.5 318,-165.5 374,-165.5 374,-146.5 318,-146.5"/>
<text text-anchor="middle" x="346" y="-153.5" font-family="Helvetica,sans-Serif" font-size="10.00">Timeline</text>
</g>
<!-- Node3&#45;&gt;Node2 -->
<g id="edge2" class="edge"><title>Node3&#45;&gt;Node2</title>
<path fill="none" stroke="#9a32cd" stroke-dasharray="5,2" d="M339.322,-136.856C334.595,-126.401 327.259,-113.821 317,-106 297.165,-90.8795 269.416,-84.2221 248.342,-81.2934"/>
<polygon fill="#9a32cd" stroke="#9a32cd" points="336.175,-138.409 343.19,-146.348 342.657,-135.767 336.175,-138.409"/>
<text text-anchor="middle" x="368.5" y="-114.5" font-family="Helvetica,sans-Serif" font-size="10.00"> myAnimation</text>
</g>
<!-- Node4 -->
<g id="node4" class="node"><title>Node4</title>
<polygon fill="white" stroke="#bfbfbf" points="160.5,-146.5 160.5,-165.5 205.5,-165.5 205.5,-146.5 160.5,-146.5"/>
<text text-anchor="middle" x="183" y="-153.5" font-family="Helvetica,sans-Serif" font-size="10.00">Stage</text>
</g>
<!-- Node4&#45;&gt;Node2 -->
<g id="edge3" class="edge"><title>Node4&#45;&gt;Node2</title>
<path fill="none" stroke="#9a32cd" stroke-dasharray="5,2" d="M179.723,-136.13C178.958,-126.629 179.438,-115.206 184,-106 187.815,-98.3005 194.975,-92.1041 201.743,-87.5991"/>
<polygon fill="#9a32cd" stroke="#9a32cd" points="176.265,-136.685 181.023,-146.151 183.207,-135.784 176.265,-136.685"/>
<text text-anchor="middle" x="207.5" y="-114.5" font-family="Helvetica,sans-Serif" font-size="10.00"> myStage</text>
</g>
<!-- Node5 -->
<g id="node5" class="node"><title>Node5</title>
<polygon fill="white" stroke="#bfbfbf" points="224,-146.5 224,-165.5 292,-165.5 292,-146.5 224,-146.5"/>
<text text-anchor="middle" x="258" y="-153.5" font-family="Helvetica,sans-Serif" font-size="10.00">ImageView</text>
</g>
<!-- Node5&#45;&gt;Node2 -->
<g id="edge4" class="edge"><title>Node5&#45;&gt;Node2</title>
<path fill="none" stroke="#9a32cd" stroke-dasharray="5,2" d="M248.59,-137.122C240.384,-121.53 228.835,-99.5862 222.535,-87.6165"/>
<polygon fill="#9a32cd" stroke="#9a32cd" points="245.657,-139.063 253.411,-146.282 251.851,-135.803 245.657,-139.063"/>
<text text-anchor="middle" x="278" y="-120" font-family="Helvetica,sans-Serif" font-size="10.00"> obstacleArray</text>
<text text-anchor="middle" x="278" y="-109" font-family="Helvetica,sans-Serif" font-size="10.00">myExit</text>
</g>
<!-- Node6 -->
<g id="node6" class="node"><title>Node6</title>
<polygon fill="white" stroke="#bfbfbf" points="-0.5,-146.5 -0.5,-165.5 46.5,-165.5 46.5,-146.5 -0.5,-146.5"/>
<text text-anchor="middle" x="23" y="-153.5" font-family="Helvetica,sans-Serif" font-size="10.00">Scene</text>
</g>
<!-- Node6&#45;&gt;Node1 -->
<g id="edge9" class="edge"><title>Node6&#45;&gt;Node1</title>
<path fill="none" stroke="#9a32cd" stroke-dasharray="5,2" d="M24.7651,-136.371C26.5217,-126.457 30.0231,-114.577 37,-106 79.4376,-53.829 158.226,-26.8406 196.296,-16.3397"/>
<polygon fill="#9a32cd" stroke="#9a32cd" points="21.2738,-136.075 23.4312,-146.448 28.2133,-136.994 21.2738,-136.075"/>
<text text-anchor="middle" x="102.5" y="-75.5" font-family="Helvetica,sans-Serif" font-size="10.00"> myScene</text>
</g>
<!-- Node6&#45;&gt;Node2 -->
<g id="edge5" class="edge"><title>Node6&#45;&gt;Node2</title>
<path fill="none" stroke="#9a32cd" stroke-dasharray="5,2" d="M32.6107,-137.795C39.6063,-126.924 50.0971,-113.548 63,-106 101.902,-83.2422 155.047,-78.6043 187.914,-78.1826"/>
<polygon fill="#9a32cd" stroke="#9a32cd" points="29.5346,-136.119 27.3899,-146.494 35.5367,-139.721 29.5346,-136.119"/>
<text text-anchor="middle" x="87.5" y="-114.5" font-family="Helvetica,sans-Serif" font-size="10.00"> myScene</text>
</g>
<!-- Node7 -->
<g id="node7" class="node"><title>Node7</title>
<g id="a_node7"><a xlink:href="../../da/de2/class_sticky_box.html" target="_top" xlink:title="StickyBox">
<polygon fill="white" stroke="black" points="79.5,-146.5 79.5,-165.5 142.5,-165.5 142.5,-146.5 79.5,-146.5"/>
<text text-anchor="middle" x="111" y="-153.5" font-family="Helvetica,sans-Serif" font-size="10.00">StickyBox</text>
</a>
</g>
</g>
<!-- Node7&#45;&gt;Node2 -->
<g id="edge6" class="edge"><title>Node7&#45;&gt;Node2</title>
<path fill="none" stroke="#9a32cd" stroke-dasharray="5,2" d="M113.27,-136.429C115.443,-126.183 119.693,-113.961 128,-106 144.017,-90.6492 168.417,-83.9885 187.772,-81.1171"/>
<polygon fill="#9a32cd" stroke="#9a32cd" points="109.787,-136.043 111.634,-146.475 116.696,-137.168 109.787,-136.043"/>
<text text-anchor="middle" x="152" y="-114.5" font-family="Helvetica,sans-Serif" font-size="10.00"> myPlayer</text>
</g>
<!-- Node8 -->
<g id="node8" class="node"><title>Node8</title>
<polygon fill="white" stroke="#bfbfbf" points="79.5,-204.5 79.5,-223.5 142.5,-223.5 142.5,-204.5 79.5,-204.5"/>
<text text-anchor="middle" x="111" y="-211.5" font-family="Helvetica,sans-Serif" font-size="10.00">Rectangle</text>
</g>
<!-- Node8&#45;&gt;Node7 -->
<g id="edge7" class="edge"><title>Node8&#45;&gt;Node7</title>
<path fill="none" stroke="midnightblue" d="M111,-193.953C111,-184.287 111,-173.031 111,-165.505"/>
<polygon fill="midnightblue" stroke="midnightblue" points="107.5,-194.25 111,-204.25 114.5,-194.25 107.5,-194.25"/>
</g>
<!-- Node9 -->
<g id="node9" class="node"><title>Node9</title>
<polygon fill="white" stroke="#bfbfbf" points="440,-146.5 440,-165.5 486,-165.5 486,-146.5 440,-146.5"/>
<text text-anchor="middle" x="463" y="-153.5" font-family="Helvetica,sans-Serif" font-size="10.00">Group</text>
</g>
<!-- Node9&#45;&gt;Node1 -->
<g id="edge10" class="edge"><title>Node9&#45;&gt;Node1</title>
<path fill="none" stroke="#9a32cd" stroke-dasharray="5,2" d="M474.763,-137.656C479.938,-127.693 483.526,-115.345 477,-106 421.333,-26.2876 291.091,-13.2581 239.549,-11.2798"/>
<polygon fill="#9a32cd" stroke="#9a32cd" points="471.722,-135.922 469.594,-146.301 477.73,-139.514 471.722,-135.922"/>
<text text-anchor="middle" x="482" y="-75.5" font-family="Helvetica,sans-Serif" font-size="10.00"> myRoot</text>
</g>
<!-- Node9&#45;&gt;Node2 -->
<g id="edge8" class="edge"><title>Node9&#45;&gt;Node2</title>
<path fill="none" stroke="#9a32cd" stroke-dasharray="5,2" d="M446.93,-139.376C433.466,-126.637 415.038,-110.105 406,-106 354.062,-82.4089 286.466,-78.3723 248.093,-78.2346"/>
<polygon fill="#9a32cd" stroke="#9a32cd" points="444.533,-141.926 454.176,-146.315 449.374,-136.871 444.533,-141.926"/>
<text text-anchor="middle" x="455" y="-114.5" font-family="Helvetica,sans-Serif" font-size="10.00"> myRoot</text>
</g>
</g>
</svg>
