<?xml version="1.0" encoding="UTF-8" standalone="no"?>
<!DOCTYPE svg PUBLIC "-//W3C//DTD SVG 1.1//EN"
 "http://www.w3.org/Graphics/SVG/1.1/DTD/svg11.dtd">
<!-- Generated by graphviz version 2.36.0 (20140111.2315)
 -->
<!-- Title: Menu Pages: 1 -->
<svg width="607pt" height="234pt"
 viewBox="0.00 0.00 606.98 234.00" xmlns="http://www.w3.org/2000/svg" xmlns:xlink="http://www.w3.org/1999/xlink">
<g id="graph0" class="graph" transform="scale(1 1) rotate(0) translate(4 230)">
<title>Menu</title>
<polygon fill="white" stroke="none" points="-4,4 -4,-230 602.985,-230 602.985,4 -4,4"/>
<!-- Node1 -->
<g id="node1" class="node"><title>Node1</title>
<polygon fill="#bfbfbf" stroke="black" points="458.485,-0.5 458.485,-19.5 501.485,-19.5 501.485,-0.5 458.485,-0.5"/>
<text text-anchor="middle" x="479.985" y="-7.5" font-family="Helvetica,sans-Serif" font-size="10.00">Menu</text>
</g>
<!-- Node2 -->
<g id="node2" class="node"><title>Node2</title>
<g id="a_node2"><a xlink:href="../../db/d97/class_box_world.html" target="_top" xlink:title="BoxWorld">
<polygon fill="white" stroke="black" points="233.985,-69.5 233.985,-88.5 293.985,-88.5 293.985,-69.5 233.985,-69.5"/>
<text text-anchor="middle" x="263.985" y="-76.5" font-family="Helvetica,sans-Serif" font-size="10.00">BoxWorld</text>
</a>
</g>
</g>
<!-- Node2&#45;&gt;Node1 -->
<g id="edge1" class="edge"><title>Node2&#45;&gt;Node1</title>
<path fill="none" stroke="#9a32cd" stroke-dasharray="5,2" d="M301.551,-66.3477C346.967,-52.2602 421.855,-29.0311 458.474,-17.6723"/>
<polygon fill="#9a32cd" stroke="#9a32cd" points="300.295,-63.0725 291.781,-69.3781 302.369,-69.7583 300.295,-63.0725"/>
<text text-anchor="middle" x="415.985" y="-41.5" font-family="Helvetica,sans-Serif" font-size="10.00"> myGame</text>
</g>
<!-- Node6 -->
<g id="node6" class="node"><title>Node6</title>
<g id="a_node6"><a xlink:href="../../d6/d4f/class_item_box_world.html" target="_top" xlink:title="ItemBoxWorld">
<polygon fill="white" stroke="black" points="99.9849,-0.5 99.9849,-19.5 181.985,-19.5 181.985,-0.5 99.9849,-0.5"/>
<text text-anchor="middle" x="140.985" y="-7.5" font-family="Helvetica,sans-Serif" font-size="10.00">ItemBoxWorld</text>
</a>
</g>
</g>
<!-- Node2&#45;&gt;Node6 -->
<g id="edge6" class="edge"><title>Node2&#45;&gt;Node6</title>
<path fill="none" stroke="midnightblue" d="M260.444,-59.3963C258.104,-51.7822 254.26,-43.4895 247.985,-38 229.96,-22.2316 204.027,-15.4248 182.206,-12.5874"/>
<polygon fill="midnightblue" stroke="midnightblue" points="257.097,-60.4461 262.848,-69.3443 263.901,-58.8019 257.097,-60.4461"/>
</g>
<!-- Node3 -->
<g id="node3" class="node"><title>Node3</title>
<polygon fill="white" stroke="#bfbfbf" points="375.985,-148.5 375.985,-167.5 431.985,-167.5 431.985,-148.5 375.985,-148.5"/>
<text text-anchor="middle" x="403.985" y="-155.5" font-family="Helvetica,sans-Serif" font-size="10.00">Timeline</text>
</g>
<!-- Node3&#45;&gt;Node2 -->
<g id="edge2" class="edge"><title>Node3&#45;&gt;Node2</title>
<path fill="none" stroke="#9a32cd" stroke-dasharray="5,2" d="M396.012,-139.128C390.437,-128.589 382.015,-115.825 370.985,-108 348.276,-91.89 316.965,-85.0467 294.081,-82.1411"/>
<polygon fill="#9a32cd" stroke="#9a32cd" points="392.958,-140.852 400.477,-148.317 399.255,-137.793 392.958,-140.852"/>
<text text-anchor="middle" x="424.485" y="-116.5" font-family="Helvetica,sans-Serif" font-size="10.00"> myAnimation</text>
</g>
<!-- Node4 -->
<g id="node4" class="node"><title>Node4</title>
<polygon fill="white" stroke="#bfbfbf" points="24.4849,-148.5 24.4849,-167.5 69.4849,-167.5 69.4849,-148.5 24.4849,-148.5"/>
<text text-anchor="middle" x="46.9849" y="-155.5" font-family="Helvetica,sans-Serif" font-size="10.00">Stage</text>
</g>
<!-- Node4&#45;&gt;Node2 -->
<g id="edge3" class="edge"><title>Node4&#45;&gt;Node2</title>
<path fill="none" stroke="#9a32cd" stroke-dasharray="5,2" d="M65.5508,-141.942C80.0766,-130.914 101.228,-116.452 121.985,-108 141.824,-99.9213 198.225,-90.1836 233.686,-84.5802"/>
<polygon fill="#9a32cd" stroke="#9a32cd" points="63.1574,-139.37 57.4254,-148.28 67.4629,-144.889 63.1574,-139.37"/>
<text text-anchor="middle" x="145.485" y="-116.5" font-family="Helvetica,sans-Serif" font-size="10.00"> myStage</text>
</g>
<!-- Node4&#45;&gt;Node6 -->
<g id="edge7" class="edge"><title>Node4&#45;&gt;Node6</title>
<path fill="none" stroke="#9a32cd" stroke-dasharray="5,2" d="M29.7199,-140.863C12.3512,-122.603 -9.88891,-92.2491 4.9849,-68 24.8625,-35.593 67.4417,-21.6032 99.6965,-15.5685"/>
<polygon fill="#9a32cd" stroke="#9a32cd" points="27.6564,-143.749 37.2064,-148.337 32.6018,-138.795 27.6564,-143.749"/>
<text text-anchor="middle" x="28.4849" y="-76.5" font-family="Helvetica,sans-Serif" font-size="10.00"> myStage</text>
</g>
<!-- Node5 -->
<g id="node5" class="node"><title>Node5</title>
<polygon fill="white" stroke="#bfbfbf" points="122.985,-148.5 122.985,-167.5 190.985,-167.5 190.985,-148.5 122.985,-148.5"/>
<text text-anchor="middle" x="156.985" y="-155.5" font-family="Helvetica,sans-Serif" font-size="10.00">ImageView</text>
</g>
<!-- Node5&#45;&gt;Node2 -->
<g id="edge4" class="edge"><title>Node5&#45;&gt;Node2</title>
<path fill="none" stroke="#9a32cd" stroke-dasharray="5,2" d="M166.228,-139.217C172.35,-128.912 181.226,-116.362 191.985,-108 204.269,-98.4524 220.203,-91.8083 233.958,-87.3967"/>
<polygon fill="#9a32cd" stroke="#9a32cd" points="163.034,-137.759 161.231,-148.199 169.151,-141.162 163.034,-137.759"/>
<text text-anchor="middle" x="225.485" y="-122" font-family="Helvetica,sans-Serif" font-size="10.00"> myExit</text>
<text text-anchor="middle" x="225.485" y="-111" font-family="Helvetica,sans-Serif" font-size="10.00">obstacleArray</text>
</g>
<!-- Node5&#45;&gt;Node6 -->
<g id="edge8" class="edge"><title>Node5&#45;&gt;Node6</title>
<path fill="none" stroke="#9a32cd" stroke-dasharray="5,2" d="M154.916,-138.121C151.426,-106.272 144.499,-43.0677 141.953,-19.8348"/>
<polygon fill="#9a32cd" stroke="#9a32cd" points="151.463,-138.745 156.032,-148.304 158.422,-137.982 151.463,-138.745"/>
<text text-anchor="middle" x="172.985" y="-82" font-family="Helvetica,sans-Serif" font-size="10.00"> myItem1</text>
<text text-anchor="middle" x="172.985" y="-71" font-family="Helvetica,sans-Serif" font-size="10.00">myItem2</text>
</g>
<!-- Node6&#45;&gt;Node2 -->
<g id="edge5" class="edge"><title>Node6&#45;&gt;Node2</title>
<path fill="none" stroke="#9a32cd" stroke-dasharray="5,2" d="M155.059,-27.3546C162.429,-35.0937 171.989,-43.9437 181.985,-50 197.939,-59.666 217.676,-66.5374 233.789,-71.0536"/>
<polygon fill="#9a32cd" stroke="#9a32cd" points="157.315,-24.6323 148.003,-19.5775 152.13,-29.3356 157.315,-24.6323"/>
<text text-anchor="middle" x="214.985" y="-41.5" font-family="Helvetica,sans-Serif" font-size="10.00"> myNextLevel</text>
</g>
<!-- Node7 -->
<g id="node7" class="node"><title>Node7</title>
<polygon fill="white" stroke="#bfbfbf" points="61.4849,-69.5 61.4849,-88.5 96.4849,-88.5 96.4849,-69.5 61.4849,-69.5"/>
<text text-anchor="middle" x="78.9849" y="-76.5" font-family="Helvetica,sans-Serif" font-size="10.00">Text</text>
</g>
<!-- Node7&#45;&gt;Node6 -->
<g id="edge9" class="edge"><title>Node7&#45;&gt;Node6</title>
<path fill="none" stroke="#9a32cd" stroke-dasharray="5,2" d="M69.8463,-60.077C67.435,-52.7122 66.5777,-44.4236 70.9849,-38 77.7644,-28.1187 88.7117,-21.8525 99.9556,-17.8792"/>
<polygon fill="#9a32cd" stroke="#9a32cd" points="66.6243,-61.4442 73.7492,-69.2855 73.0693,-58.7125 66.6243,-61.4442"/>
<text text-anchor="middle" x="98.9849" y="-41.5" font-family="Helvetica,sans-Serif" font-size="10.00"> myWarning</text>
</g>
<!-- Node8 -->
<g id="node8" class="node"><title>Node8</title>
<polygon fill="white" stroke="#bfbfbf" points="521.485,-148.5 521.485,-167.5 568.485,-167.5 568.485,-148.5 521.485,-148.5"/>
<text text-anchor="middle" x="544.985" y="-155.5" font-family="Helvetica,sans-Serif" font-size="10.00">Scene</text>
</g>
<!-- Node8&#45;&gt;Node1 -->
<g id="edge14" class="edge"><title>Node8&#45;&gt;Node1</title>
<path fill="none" stroke="#9a32cd" stroke-dasharray="5,2" d="M554.882,-139.082C558.771,-129.713 561.549,-118.12 557.985,-108 544.418,-69.4773 508.369,-34.965 490.429,-19.5387"/>
<polygon fill="#9a32cd" stroke="#9a32cd" points="551.676,-137.673 550.475,-148.199 557.978,-140.719 551.676,-137.673"/>
<text text-anchor="middle" x="574.485" y="-76.5" font-family="Helvetica,sans-Serif" font-size="10.00"> myScene</text>
</g>
<!-- Node8&#45;&gt;Node2 -->
<g id="edge10" class="edge"><title>Node8&#45;&gt;Node2</title>
<path fill="none" stroke="#9a32cd" stroke-dasharray="5,2" d="M525.325,-142.366C509.162,-131.106 485.22,-116.138 461.985,-108 404.809,-87.9745 333.583,-82.2397 294.026,-80.6178"/>
<polygon fill="#9a32cd" stroke="#9a32cd" points="523.709,-145.513 533.878,-148.487 527.783,-139.821 523.709,-145.513"/>
<text text-anchor="middle" x="529.485" y="-116.5" font-family="Helvetica,sans-Serif" font-size="10.00"> myScene</text>
</g>
<!-- Node9 -->
<g id="node9" class="node"><title>Node9</title>
<g id="a_node9"><a xlink:href="../../da/de2/class_sticky_box.html" target="_top" xlink:title="StickyBox">
<polygon fill="white" stroke="black" points="230.485,-148.5 230.485,-167.5 293.485,-167.5 293.485,-148.5 230.485,-148.5"/>
<text text-anchor="middle" x="261.985" y="-155.5" font-family="Helvetica,sans-Serif" font-size="10.00">StickyBox</text>
</a>
</g>
</g>
<!-- Node9&#45;&gt;Node2 -->
<g id="edge11" class="edge"><title>Node9&#45;&gt;Node2</title>
<path fill="none" stroke="#9a32cd" stroke-dasharray="5,2" d="M262.47,-138.315C262.879,-122.592 263.444,-100.808 263.756,-88.8094"/>
<polygon fill="#9a32cd" stroke="#9a32cd" points="258.968,-138.378 262.207,-148.465 265.965,-138.56 258.968,-138.378"/>
<text text-anchor="middle" x="287.985" y="-116.5" font-family="Helvetica,sans-Serif" font-size="10.00"> myPlayer</text>
</g>
<!-- Node10 -->
<g id="node10" class="node"><title>Node10</title>
<polygon fill="white" stroke="#bfbfbf" points="230.485,-206.5 230.485,-225.5 293.485,-225.5 293.485,-206.5 230.485,-206.5"/>
<text text-anchor="middle" x="261.985" y="-213.5" font-family="Helvetica,sans-Serif" font-size="10.00">Rectangle</text>
</g>
<!-- Node10&#45;&gt;Node9 -->
<g id="edge12" class="edge"><title>Node10&#45;&gt;Node9</title>
<path fill="none" stroke="midnightblue" d="M261.985,-195.953C261.985,-186.287 261.985,-175.031 261.985,-167.505"/>
<polygon fill="midnightblue" stroke="midnightblue" points="258.485,-196.25 261.985,-206.25 265.485,-196.25 258.485,-196.25"/>
</g>
<!-- Node11 -->
<g id="node11" class="node"><title>Node11</title>
<polygon fill="white" stroke="#bfbfbf" points="311.985,-148.5 311.985,-167.5 357.985,-167.5 357.985,-148.5 311.985,-148.5"/>
<text text-anchor="middle" x="334.985" y="-155.5" font-family="Helvetica,sans-Serif" font-size="10.00">Group</text>
</g>
<!-- Node11&#45;&gt;Node1 -->
<g id="edge15" class="edge"><title>Node11&#45;&gt;Node1</title>
<path fill="none" stroke="#9a32cd" stroke-dasharray="5,2" d="M368.044,-148.25C412.042,-141.036 434.206,-158.83 461.985,-130 491.706,-99.1546 485.369,-41.4012 481.665,-19.6143"/>
<polygon fill="#9a32cd" stroke="#9a32cd" points="367.109,-144.868 357.995,-150.27 368.489,-151.731 367.109,-144.868"/>
<text text-anchor="middle" x="504.985" y="-76.5" font-family="Helvetica,sans-Serif" font-size="10.00"> myRoot</text>
</g>
<!-- Node11&#45;&gt;Node2 -->
<g id="edge13" class="edge"><title>Node11&#45;&gt;Node2</title>
<path fill="none" stroke="#9a32cd" stroke-dasharray="5,2" d="M329.861,-138.732C326.36,-128.767 320.899,-116.723 312.985,-108 305.48,-99.7278 294.942,-93.2705 285.561,-88.6522"/>
<polygon fill="#9a32cd" stroke="#9a32cd" points="326.583,-139.977 332.914,-148.472 333.263,-137.883 326.583,-139.977"/>
<text text-anchor="middle" x="346.985" y="-116.5" font-family="Helvetica,sans-Serif" font-size="10.00"> myRoot</text>
</g>
</g>
</svg>
