<?xml version="1.0" encoding="UTF-8" standalone="no"?>
<!DOCTYPE svg PUBLIC "-//W3C//DTD SVG 1.1//EN"
 "http://www.w3.org/Graphics/SVG/1.1/DTD/svg11.dtd">
<!-- Generated by graphviz version 2.36.0 (20140111.2315)
 -->
<!-- Title: BoxWorld Pages: 1 -->
<!--zoomable 234 -->
<svg id="main" version="1.1" xmlns="http://www.w3.org/2000/svg" xmlns:xlink="http://www.w3.org/1999/xlink" xml:space="preserve" onload="init(evt)">
<style type="text/css"><![CDATA[
.edge:hover path { stroke: red; }
.edge:hover polygon { stroke: red; fill: red; }
]]></style>
<script type="text/javascript"><![CDATA[
var edges = document.getElementsByTagName('g');
if (edges && edges.length) {
  for (var i=0;i<edges.length;i++) {
    if (edges[i].id.substr(0,4)=='edge') {
      edges[i].setAttribute('class','edge');
    }
  }
}
]]></script>
        <defs>
                <circle id="rim" cx="0" cy="0" r="7"/>
                <circle id="rim2" cx="0" cy="0" r="3.5"/>
                <g id="zoomPlus">
                        <use xlink:href="#rim" fill="#404040">
                                <set attributeName="fill" to="#808080" begin="zoomplus.mouseover" end="zoomplus.mouseout"/>
                        </use>
                        <path d="M-4,0h8M0,-4v8" fill="none" stroke="white" stroke-width="1.5" pointer-events="none"/>
                </g>
                <g id="zoomMin">
                        <use xlink:href="#rim" fill="#404040">
                                <set attributeName="fill" to="#808080" begin="zoomminus.mouseover" end="zoomminus.mouseout"/>
                        </use>
                        <path d="M-4,0h8" fill="none" stroke="white" stroke-width="1.5" pointer-events="none"/>
                </g>
                <g id="dirArrow">
                        <path fill="none" stroke="white" stroke-width="1.5" d="M0,-3.0v7 M-2.5,-0.5L0,-3.0L2.5,-0.5"/>
                </g>
               <g id="resetDef">
                       <use xlink:href="#rim2" fill="#404040">
                               <set attributeName="fill" to="#808080" begin="reset.mouseover" end="reset.mouseout"/>
                       </use>
               </g>
        </defs>

<script type="text/javascript">
var viewWidth = 502;
var viewHeight = 234;
var sectionId = 'dynsection-1';
</script>
<script xlink:href="../../svgpan.js"/>
<svg id="graph" class="graph">
<g id="viewport">
<title>BoxWorld</title>
<polygon fill="white" stroke="none" points="-4,4 -4,-230 498,-230 498,4 -4,4"/>
<!-- Node1 -->
<g id="node1" class="node"><title>Node1</title>
<polygon fill="#bfbfbf" stroke="black" points="185,-69.5 185,-88.5 245,-88.5 245,-69.5 185,-69.5"/>
<text text-anchor="middle" x="215" y="-76.5" font-family="Helvetica,sans-Serif" font-size="10.00">BoxWorld</text>
</g>
<!-- Node5 -->
<g id="node5" class="node"><title>Node5</title>
<g id="a_node5"><a xlink:href="../../d6/d4f/class_item_box_world.html" target="_top" xlink:title="ItemBoxWorld">
<polygon fill="white" stroke="black" points="129,-0.5 129,-19.5 211,-19.5 211,-0.5 129,-0.5"/>
<text text-anchor="middle" x="170" y="-7.5" font-family="Helvetica,sans-Serif" font-size="10.00">ItemBoxWorld</text>
</a>
</g>
</g>
<!-- Node1&#45;&gt;Node5 -->
<g id="edge5" class="edge"><title>Node1&#45;&gt;Node5</title>
<path fill="none" stroke="midnightblue" d="M195.975,-62.7128C191.982,-58.868 188.059,-54.5347 185,-50 178.59,-40.4983 174.378,-27.8694 172.093,-19.5928"/>
<polygon fill="midnightblue" stroke="midnightblue" points="193.733,-65.402 203.532,-69.4288 198.383,-60.1697 193.733,-65.402"/>
</g>
<!-- Node2 -->
<g id="node2" class="node"><title>Node2</title>
<polygon fill="white" stroke="#bfbfbf" points="202,-148.5 202,-167.5 258,-167.5 258,-148.5 202,-148.5"/>
<text text-anchor="middle" x="230" y="-155.5" font-family="Helvetica,sans-Serif" font-size="10.00">Timeline</text>
</g>
<!-- Node2&#45;&gt;Node1 -->
<g id="edge1" class="edge"><title>Node2&#45;&gt;Node1</title>
<path fill="none" stroke="#9a32cd" stroke-dasharray="5,2" d="M226.36,-138.315C223.297,-122.592 219.053,-100.808 216.716,-88.8094"/>
<polygon fill="#9a32cd" stroke="#9a32cd" points="222.99,-139.319 228.337,-148.465 229.861,-137.981 222.99,-139.319"/>
<text text-anchor="middle" x="258.5" y="-116.5" font-family="Helvetica,sans-Serif" font-size="10.00"> myAnimation</text>
</g>
<!-- Node3 -->
<g id="node3" class="node"><title>Node3</title>
<polygon fill="white" stroke="#bfbfbf" points="-0.5,-148.5 -0.5,-167.5 44.5,-167.5 44.5,-148.5 -0.5,-148.5"/>
<text text-anchor="middle" x="22" y="-155.5" font-family="Helvetica,sans-Serif" font-size="10.00">Stage</text>
</g>
<!-- Node3&#45;&gt;Node1 -->
<g id="edge2" class="edge"><title>Node3&#45;&gt;Node1</title>
<path fill="none" stroke="#9a32cd" stroke-dasharray="5,2" d="M37.6357,-140.959C49.1811,-130.043 65.8154,-116.151 83,-108 92.128,-103.671 148.888,-92.4625 184.945,-85.6115"/>
<polygon fill="#9a32cd" stroke="#9a32cd" points="34.8832,-138.756 30.1931,-148.256 39.7839,-143.754 34.8832,-138.756"/>
<text text-anchor="middle" x="106.5" y="-116.5" font-family="Helvetica,sans-Serif" font-size="10.00"> myStage</text>
</g>
<!-- Node3&#45;&gt;Node5 -->
<g id="edge6" class="edge"><title>Node3&#45;&gt;Node5</title>
<path fill="none" stroke="#9a32cd" stroke-dasharray="5,2" d="M29.0378,-138.844C37.3442,-119.336 52.7623,-88.3932 74,-68 96.6494,-46.2513 129.076,-29.2025 149.836,-19.6147"/>
<polygon fill="#9a32cd" stroke="#9a32cd" points="25.6904,-137.784 25.1629,-148.365 32.1741,-140.422 25.6904,-137.784"/>
<text text-anchor="middle" x="97.5" y="-76.5" font-family="Helvetica,sans-Serif" font-size="10.00"> myStage</text>
</g>
<!-- Node4 -->
<g id="node4" class="node"><title>Node4</title>
<polygon fill="white" stroke="#bfbfbf" points="89,-148.5 89,-167.5 157,-167.5 157,-148.5 89,-148.5"/>
<text text-anchor="middle" x="123" y="-155.5" font-family="Helvetica,sans-Serif" font-size="10.00">ImageView</text>
</g>
<!-- Node4&#45;&gt;Node1 -->
<g id="edge3" class="edge"><title>Node4&#45;&gt;Node1</title>
<path fill="none" stroke="#9a32cd" stroke-dasharray="5,2" d="M129.631,-138.684C134.08,-128.539 140.818,-116.333 150,-108 159.827,-99.0819 172.931,-92.7051 184.798,-88.3125"/>
<polygon fill="#9a32cd" stroke="#9a32cd" points="126.265,-137.676 125.817,-148.262 132.769,-140.266 126.265,-137.676"/>
<text text-anchor="middle" x="183.5" y="-122" font-family="Helvetica,sans-Serif" font-size="10.00"> myExit</text>
<text text-anchor="middle" x="183.5" y="-111" font-family="Helvetica,sans-Serif" font-size="10.00">obstacleArray</text>
</g>
<!-- Node4&#45;&gt;Node5 -->
<g id="edge7" class="edge"><title>Node4&#45;&gt;Node5</title>
<path fill="none" stroke="#9a32cd" stroke-dasharray="5,2" d="M121.662,-138.338C120.98,-119.906 121.661,-91.1898 130,-68 136.873,-48.888 151.951,-30.3126 161.506,-19.8004"/>
<polygon fill="#9a32cd" stroke="#9a32cd" points="118.168,-138.549 122.206,-148.344 125.158,-138.169 118.168,-138.549"/>
<text text-anchor="middle" x="153" y="-82" font-family="Helvetica,sans-Serif" font-size="10.00"> myItem1</text>
<text text-anchor="middle" x="153" y="-71" font-family="Helvetica,sans-Serif" font-size="10.00">myItem2</text>
</g>
<!-- Node5&#45;&gt;Node1 -->
<g id="edge4" class="edge"><title>Node5&#45;&gt;Node1</title>
<path fill="none" stroke="#9a32cd" stroke-dasharray="5,2" d="M181.525,-28.1594C190.343,-41.2881 202.139,-58.8512 209.117,-69.2409"/>
<polygon fill="#9a32cd" stroke="#9a32cd" points="184.223,-25.8993 175.742,-19.5494 178.412,-29.8023 184.223,-25.8993"/>
<text text-anchor="middle" x="229" y="-41.5" font-family="Helvetica,sans-Serif" font-size="10.00"> myNextLevel</text>
</g>
<!-- Node6 -->
<g id="node6" class="node"><title>Node6</title>
<polygon fill="white" stroke="#bfbfbf" points="274.5,-69.5 274.5,-88.5 309.5,-88.5 309.5,-69.5 274.5,-69.5"/>
<text text-anchor="middle" x="292" y="-76.5" font-family="Helvetica,sans-Serif" font-size="10.00">Text</text>
</g>
<!-- Node6&#45;&gt;Node5 -->
<g id="edge8" class="edge"><title>Node6&#45;&gt;Node5</title>
<path fill="none" stroke="#9a32cd" stroke-dasharray="5,2" d="M284.044,-60.1643C279.731,-52.3367 273.693,-43.6599 266,-38 250.102,-26.3036 229.326,-19.6701 211.169,-15.9098"/>
<polygon fill="#9a32cd" stroke="#9a32cd" points="281.008,-61.9219 288.579,-69.3339 287.283,-58.8186 281.008,-61.9219"/>
<text text-anchor="middle" x="305" y="-41.5" font-family="Helvetica,sans-Serif" font-size="10.00"> myWarning</text>
</g>
<!-- Node7 -->
<g id="node7" class="node"><title>Node7</title>
<polygon fill="white" stroke="#bfbfbf" points="295.5,-148.5 295.5,-167.5 342.5,-167.5 342.5,-148.5 295.5,-148.5"/>
<text text-anchor="middle" x="319" y="-155.5" font-family="Helvetica,sans-Serif" font-size="10.00">Scene</text>
</g>
<!-- Node7&#45;&gt;Node1 -->
<g id="edge9" class="edge"><title>Node7&#45;&gt;Node1</title>
<path fill="none" stroke="#9a32cd" stroke-dasharray="5,2" d="M314.18,-138.45C310.664,-128.227 304.92,-116.021 296,-108 281.949,-95.3652 261.904,-88.3754 245.271,-84.5393"/>
<polygon fill="#9a32cd" stroke="#9a32cd" points="310.856,-139.551 317.078,-148.126 317.562,-137.542 310.856,-139.551"/>
<text text-anchor="middle" x="335.5" y="-116.5" font-family="Helvetica,sans-Serif" font-size="10.00"> myScene</text>
</g>
<!-- Node8 -->
<g id="node8" class="node"><title>Node8</title>
<g id="a_node8"><a xlink:href="../../da/de2/class_sticky_box.html" target="_top" xlink:title="StickyBox">
<polygon fill="white" stroke="black" points="360.5,-148.5 360.5,-167.5 423.5,-167.5 423.5,-148.5 360.5,-148.5"/>
<text text-anchor="middle" x="392" y="-155.5" font-family="Helvetica,sans-Serif" font-size="10.00">StickyBox</text>
</a>
</g>
</g>
<!-- Node8&#45;&gt;Node1 -->
<g id="edge10" class="edge"><title>Node8&#45;&gt;Node1</title>
<path fill="none" stroke="#9a32cd" stroke-dasharray="5,2" d="M385.936,-138.542C381.51,-127.974 374.438,-115.385 364,-108 327.492,-82.1702 308.928,-98.3856 265,-90 258.565,-88.7717 251.673,-87.4179 245.125,-86.1138"/>
<polygon fill="#9a32cd" stroke="#9a32cd" points="382.747,-140.01 389.506,-148.169 389.31,-137.576 382.747,-140.01"/>
<text text-anchor="middle" x="406" y="-116.5" font-family="Helvetica,sans-Serif" font-size="10.00"> myPlayer</text>
</g>
<!-- Node9 -->
<g id="node9" class="node"><title>Node9</title>
<polygon fill="white" stroke="#bfbfbf" points="360.5,-206.5 360.5,-225.5 423.5,-225.5 423.5,-206.5 360.5,-206.5"/>
<text text-anchor="middle" x="392" y="-213.5" font-family="Helvetica,sans-Serif" font-size="10.00">Rectangle</text>
</g>
<!-- Node9&#45;&gt;Node8 -->
<g id="edge11" class="edge"><title>Node9&#45;&gt;Node8</title>
<path fill="none" stroke="midnightblue" d="M392,-195.953C392,-186.287 392,-175.031 392,-167.505"/>
<polygon fill="midnightblue" stroke="midnightblue" points="388.5,-196.25 392,-206.25 395.5,-196.25 388.5,-196.25"/>
</g>
<!-- Node10 -->
<g id="node10" class="node"><title>Node10</title>
<polygon fill="white" stroke="#bfbfbf" points="442,-148.5 442,-167.5 488,-167.5 488,-148.5 442,-148.5"/>
<text text-anchor="middle" x="465" y="-155.5" font-family="Helvetica,sans-Serif" font-size="10.00">Group</text>
</g>
<!-- Node10&#45;&gt;Node1 -->
<g id="edge12" class="edge"><title>Node10&#45;&gt;Node1</title>
<path fill="none" stroke="#9a32cd" stroke-dasharray="5,2" d="M458.323,-138.923C453.337,-128.094 445.401,-115.091 434,-108 401.929,-88.0532 302.334,-95.7094 265,-90 258.524,-89.0097 251.615,-87.7564 245.063,-86.4748"/>
<polygon fill="#9a32cd" stroke="#9a32cd" points="455.172,-140.464 462.218,-148.377 461.645,-137.797 455.172,-140.464"/>
<text text-anchor="middle" x="474" y="-116.5" font-family="Helvetica,sans-Serif" font-size="10.00"> myRoot</text>
</g>
</g>
</svg>
        <g id="navigator" transform="translate(0 0)" fill="#404254">
                <rect fill="#f2f5e9" fill-opacity="0.5" stroke="#606060" stroke-width=".5" x="0" y="0" width="60" height="60"/>
                <use id="zoomplus" xlink:href="#zoomPlus" x="17" y="9" onmousedown="handleZoom(evt,'in')"/>
                <use id="zoomminus" xlink:href="#zoomMin" x="42" y="9" onmousedown="handleZoom(evt,'out')"/>
                <use id="reset" xlink:href="#resetDef" x="30" y="36" onmousedown="handleReset()"/>
                <g id="arrowUp" xlink:href="#dirArrow" transform="translate(30 24)" onmousedown="handlePan(0,-1)">
                  <use xlink:href="#rim" fill="#404040">
                        <set attributeName="fill" to="#808080" begin="arrowUp.mouseover" end="arrowUp.mouseout"/>
                  </use>
                  <path fill="none" stroke="white" stroke-width="1.5" d="M0,-3.0v7 M-2.5,-0.5L0,-3.0L2.5,-0.5"/>
                </g>
                <g id="arrowRight" xlink:href="#dirArrow" transform="rotate(90) translate(36 -43)" onmousedown="handlePan(1,0)">
                  <use xlink:href="#rim" fill="#404040">
                        <set attributeName="fill" to="#808080" begin="arrowRight.mouseover" end="arrowRight.mouseout"/>
                  </use>
                  <path fill="none" stroke="white" stroke-width="1.5" d="M0,-3.0v7 M-2.5,-0.5L0,-3.0L2.5,-0.5"/>
                </g>
                <g id="arrowDown" xlink:href="#dirArrow" transform="rotate(180) translate(-30 -48)" onmousedown="handlePan(0,1)">
                  <use xlink:href="#rim" fill="#404040">
                        <set attributeName="fill" to="#808080" begin="arrowDown.mouseover" end="arrowDown.mouseout"/>
                  </use>
                  <path fill="none" stroke="white" stroke-width="1.5" d="M0,-3.0v7 M-2.5,-0.5L0,-3.0L2.5,-0.5"/>
                </g>
                <g id="arrowLeft" xlink:href="#dirArrow" transform="rotate(270) translate(-36 17)" onmousedown="handlePan(-1,0)">
                  <use xlink:href="#rim" fill="#404040">
                        <set attributeName="fill" to="#808080" begin="arrowLeft.mouseover" end="arrowLeft.mouseout"/>
                  </use>
                  <path fill="none" stroke="white" stroke-width="1.5" d="M0,-3.0v7 M-2.5,-0.5L0,-3.0L2.5,-0.5"/>
                </g>
        </g>
        <svg viewBox="0 0 15 15" width="100%" height="30px" preserveAspectRatio="xMaxYMin meet">
         <g id="arrow_out" transform="scale(0.3 0.3)">
          <a xlink:href="class_box_world__coll__graph_org.svg" target="_base">
           <rect id="button" ry="5" rx="5" y="6" x="6" height="38" width="38"
                fill="#f2f5e9" fill-opacity="0.5" stroke="#606060" stroke-width="1.0"/>
           <path id="arrow"
             d="M 11.500037,31.436501 C 11.940474,20.09759 22.043105,11.32322 32.158766,21.979434 L 37.068811,17.246167 C 37.068811,17.246167 37.088388,32 37.088388,32 L 22.160133,31.978069 C 22.160133,31.978069 26.997745,27.140456 26.997745,27.140456 C 18.528582,18.264221 13.291696,25.230495 11.500037,31.436501 z"
             style="fill:#404040;"/>
          </a>
         </g>
        </svg>
</svg>
