<?xml version="1.0" encoding="UTF-8" standalone="no"?>
<!DOCTYPE svg PUBLIC "-//W3C//DTD SVG 1.1//EN"
 "http://www.w3.org/Graphics/SVG/1.1/DTD/svg11.dtd">
<!-- Generated by graphviz version 2.36.0 (20140111.2315)
 -->
<!-- Title: BoxWorld Pages: 1 -->
<svg width="464pt" height="164pt"
 viewBox="0.00 0.00 464.00 164.00" xmlns="http://www.w3.org/2000/svg" xmlns:xlink="http://www.w3.org/1999/xlink">
<g id="graph0" class="graph" transform="scale(1 1) rotate(0) translate(4 160)">
<title>BoxWorld</title>
<polygon fill="white" stroke="none" points="-4,4 -4,-160 460,-160 460,4 -4,4"/>
<!-- Node1 -->
<g id="node1" class="node"><title>Node1</title>
<polygon fill="#bfbfbf" stroke="black" points="206,-0.5 206,-19.5 266,-19.5 266,-0.5 206,-0.5"/>
<text text-anchor="middle" x="236" y="-7.5" font-family="Helvetica,sans-Serif" font-size="10.00">BoxWorld</text>
</g>
<!-- Node2 -->
<g id="node2" class="node"><title>Node2</title>
<polygon fill="white" stroke="#bfbfbf" points="0,-78.5 0,-97.5 56,-97.5 56,-78.5 0,-78.5"/>
<text text-anchor="middle" x="28" y="-85.5" font-family="Helvetica,sans-Serif" font-size="10.00">Timeline</text>
</g>
<!-- Node2&#45;&gt;Node1 -->
<g id="edge1" class="edge"><title>Node2&#45;&gt;Node1</title>
<path fill="none" stroke="#9a32cd" stroke-dasharray="5,2" d="M32.4496,-68.4723C35.9736,-57.8789 42.0152,-45.288 52,-38 75.927,-20.5353 160.091,-14.2354 205.843,-12.0678"/>
<polygon fill="#9a32cd" stroke="#9a32cd" points="29.072,-67.554 29.712,-78.1295 35.8067,-69.4632 29.072,-67.554"/>
<text text-anchor="middle" x="85.5" y="-46.5" font-family="Helvetica,sans-Serif" font-size="10.00"> myAnimation</text>
</g>
<!-- Node3 -->
<g id="node3" class="node"><title>Node3</title>
<polygon fill="white" stroke="#bfbfbf" points="93.5,-78.5 93.5,-97.5 138.5,-97.5 138.5,-78.5 93.5,-78.5"/>
<text text-anchor="middle" x="116" y="-85.5" font-family="Helvetica,sans-Serif" font-size="10.00">Stage</text>
</g>
<!-- Node3&#45;&gt;Node1 -->
<g id="edge2" class="edge"><title>Node3&#45;&gt;Node1</title>
<path fill="none" stroke="#9a32cd" stroke-dasharray="5,2" d="M119.315,-68.6144C122.096,-58.2545 127.107,-45.8552 136,-38 155.139,-21.0953 183.813,-14.6369 205.556,-12.2372"/>
<polygon fill="#9a32cd" stroke="#9a32cd" points="115.893,-67.8765 117.153,-78.3962 122.728,-69.3869 115.893,-67.8765"/>
<text text-anchor="middle" x="159.5" y="-46.5" font-family="Helvetica,sans-Serif" font-size="10.00"> myStage</text>
</g>
<!-- Node4 -->
<g id="node4" class="node"><title>Node4</title>
<polygon fill="white" stroke="#bfbfbf" points="157,-78.5 157,-97.5 225,-97.5 225,-78.5 157,-78.5"/>
<text text-anchor="middle" x="191" y="-85.5" font-family="Helvetica,sans-Serif" font-size="10.00">ImageView</text>
</g>
<!-- Node4&#45;&gt;Node1 -->
<g id="edge3" class="edge"><title>Node4&#45;&gt;Node1</title>
<path fill="none" stroke="#9a32cd" stroke-dasharray="5,2" d="M186.802,-68.2463C185.646,-58.6187 185.879,-47.0452 191,-38 195.668,-29.7546 203.971,-23.7525 212.183,-19.5319"/>
<polygon fill="#9a32cd" stroke="#9a32cd" points="183.407,-69.1449 188.588,-78.3865 190.301,-67.9311 183.407,-69.1449"/>
<text text-anchor="middle" x="226" y="-52" font-family="Helvetica,sans-Serif" font-size="10.00"> obstacleArray</text>
<text text-anchor="middle" x="226" y="-41" font-family="Helvetica,sans-Serif" font-size="10.00">myExit</text>
</g>
<!-- Node5 -->
<g id="node5" class="node"><title>Node5</title>
<polygon fill="white" stroke="#bfbfbf" points="258.5,-78.5 258.5,-97.5 305.5,-97.5 305.5,-78.5 258.5,-78.5"/>
<text text-anchor="middle" x="282" y="-85.5" font-family="Helvetica,sans-Serif" font-size="10.00">Scene</text>
</g>
<!-- Node5&#45;&gt;Node1 -->
<g id="edge4" class="edge"><title>Node5&#45;&gt;Node1</title>
<path fill="none" stroke="#9a32cd" stroke-dasharray="5,2" d="M275.822,-68.5772C272.212,-59.0543 267.153,-47.4749 261,-38 256.686,-31.3563 250.686,-24.814 245.645,-19.8335"/>
<polygon fill="#9a32cd" stroke="#9a32cd" points="272.61,-69.9885 279.264,-78.2334 279.203,-67.6387 272.61,-69.9885"/>
<text text-anchor="middle" x="297.5" y="-46.5" font-family="Helvetica,sans-Serif" font-size="10.00"> myScene</text>
</g>
<!-- Node6 -->
<g id="node6" class="node"><title>Node6</title>
<g id="a_node6"><a xlink:href="../../da/de2/class_sticky_box.html" target="_top" xlink:title="StickyBox">
<polygon fill="white" stroke="black" points="323.5,-78.5 323.5,-97.5 386.5,-97.5 386.5,-78.5 323.5,-78.5"/>
<text text-anchor="middle" x="355" y="-85.5" font-family="Helvetica,sans-Serif" font-size="10.00">StickyBox</text>
</a>
</g>
</g>
<!-- Node6&#45;&gt;Node1 -->
<g id="edge5" class="edge"><title>Node6&#45;&gt;Node1</title>
<path fill="none" stroke="#9a32cd" stroke-dasharray="5,2" d="M348.25,-68.949C343.497,-58.5272 336.16,-45.9493 326,-38 308.784,-24.5299 284.932,-17.7637 266.108,-14.3738"/>
<polygon fill="#9a32cd" stroke="#9a32cd" points="345.1,-70.4916 352.15,-78.4009 351.571,-67.8218 345.1,-70.4916"/>
<text text-anchor="middle" x="368" y="-46.5" font-family="Helvetica,sans-Serif" font-size="10.00"> myPlayer</text>
</g>
<!-- Node7 -->
<g id="node7" class="node"><title>Node7</title>
<polygon fill="white" stroke="#bfbfbf" points="323.5,-136.5 323.5,-155.5 386.5,-155.5 386.5,-136.5 323.5,-136.5"/>
<text text-anchor="middle" x="355" y="-143.5" font-family="Helvetica,sans-Serif" font-size="10.00">Rectangle</text>
</g>
<!-- Node7&#45;&gt;Node6 -->
<g id="edge6" class="edge"><title>Node7&#45;&gt;Node6</title>
<path fill="none" stroke="midnightblue" d="M355,-125.953C355,-116.287 355,-105.031 355,-97.5052"/>
<polygon fill="midnightblue" stroke="midnightblue" points="351.5,-126.25 355,-136.25 358.5,-126.25 351.5,-126.25"/>
</g>
<!-- Node8 -->
<g id="node8" class="node"><title>Node8</title>
<polygon fill="white" stroke="#bfbfbf" points="405,-78.5 405,-97.5 451,-97.5 451,-78.5 405,-78.5"/>
<text text-anchor="middle" x="428" y="-85.5" font-family="Helvetica,sans-Serif" font-size="10.00">Group</text>
</g>
<!-- Node8&#45;&gt;Node1 -->
<g id="edge7" class="edge"><title>Node8&#45;&gt;Node1</title>
<path fill="none" stroke="#9a32cd" stroke-dasharray="5,2" d="M420.63,-68.785C415.36,-58.1175 407.208,-45.339 396,-38 375.084,-24.3045 306.253,-16.6206 266.007,-13.196"/>
<polygon fill="#9a32cd" stroke="#9a32cd" points="417.528,-70.4204 424.806,-78.1193 423.917,-67.5618 417.528,-70.4204"/>
<text text-anchor="middle" x="436" y="-46.5" font-family="Helvetica,sans-Serif" font-size="10.00"> myRoot</text>
</g>
</g>
</svg>
