<?xml version="1.0" encoding="UTF-8" standalone="no"?>
<!DOCTYPE svg PUBLIC "-//W3C//DTD SVG 1.1//EN"
 "http://www.w3.org/Graphics/SVG/1.1/DTD/svg11.dtd">
<!-- Generated by graphviz version 2.36.0 (20140111.2315)
 -->
<!-- Title: StickyBox.getXDirection Pages: 1 -->
<!--zoomable 198 -->
<svg id="main" version="1.1" xmlns="http://www.w3.org/2000/svg" xmlns:xlink="http://www.w3.org/1999/xlink" xml:space="preserve" onload="init(evt)">
<style type="text/css"><![CDATA[
.edge:hover path { stroke: red; }
.edge:hover polygon { stroke: red; fill: red; }
]]></style>
<script type="text/javascript"><![CDATA[
var edges = document.getElementsByTagName('g');
if (edges && edges.length) {
  for (var i=0;i<edges.length;i++) {
    if (edges[i].id.substr(0,4)=='edge') {
      edges[i].setAttribute('class','edge');
    }
  }
}
]]></script>
        <defs>
                <circle id="rim" cx="0" cy="0" r="7"/>
                <circle id="rim2" cx="0" cy="0" r="3.5"/>
                <g id="zoomPlus">
                        <use xlink:href="#rim" fill="#404040">
                                <set attributeName="fill" to="#808080" begin="zoomplus.mouseover" end="zoomplus.mouseout"/>
                        </use>
                        <path d="M-4,0h8M0,-4v8" fill="none" stroke="white" stroke-width="1.5" pointer-events="none"/>
                </g>
                <g id="zoomMin">
                        <use xlink:href="#rim" fill="#404040">
                                <set attributeName="fill" to="#808080" begin="zoomminus.mouseover" end="zoomminus.mouseout"/>
                        </use>
                        <path d="M-4,0h8" fill="none" stroke="white" stroke-width="1.5" pointer-events="none"/>
                </g>
                <g id="dirArrow">
                        <path fill="none" stroke="white" stroke-width="1.5" d="M0,-3.0v7 M-2.5,-0.5L0,-3.0L2.5,-0.5"/>
                </g>
               <g id="resetDef">
                       <use xlink:href="#rim2" fill="#404040">
                               <set attributeName="fill" to="#808080" begin="reset.mouseover" end="reset.mouseout"/>
                       </use>
               </g>
        </defs>

<script type="text/javascript">
var viewWidth = 2118;
var viewHeight = 198;
var sectionId = 'dynsection-2';
</script>
<script xlink:href="../../svgpan.js"/>
<svg id="graph" class="graph">
<g id="viewport">
<title>StickyBox.getXDirection</title>
<polygon fill="white" stroke="none" points="-4,4 -4,-194 2114,-194 2114,4 -4,4"/>
<!-- Node1 -->
<g id="node1" class="node"><title>Node1</title>
<polygon fill="#bfbfbf" stroke="black" points="0.5,-123.5 0.5,-142.5 131.5,-142.5 131.5,-123.5 0.5,-123.5"/>
<text text-anchor="middle" x="66" y="-130.5" font-family="Helvetica,sans-Serif" font-size="10.00">StickyBox.getXDirection</text>
</g>
<!-- Node2 -->
<g id="node2" class="node"><title>Node2</title>
<g id="a_node2"><a xlink:href="../../db/d97/class_box_world.html#adc4c9d78ffde3d052c4c92047eb98e55" target="_top" xlink:title="BoxWorld.allowMovement">
<polygon fill="white" stroke="black" points="168.5,-85.5 168.5,-104.5 305.5,-104.5 305.5,-85.5 168.5,-85.5"/>
<text text-anchor="middle" x="237" y="-92.5" font-family="Helvetica,sans-Serif" font-size="10.00">BoxWorld.allowMovement</text>
</a>
</g>
</g>
<!-- Node1&#45;&gt;Node2 -->
<g id="edge1" class="edge"><title>Node1&#45;&gt;Node2</title>
<path fill="none" stroke="midnightblue" d="M119.587,-121.176C143.413,-115.818 171.207,-109.569 193.661,-104.52"/>
<polygon fill="midnightblue" stroke="midnightblue" points="118.634,-117.802 109.646,-123.411 120.17,-124.632 118.634,-117.802"/>
</g>
<!-- Node8 -->
<g id="node8" class="node"><title>Node8</title>
<g id="a_node8"><a xlink:href="../../db/d97/class_box_world.html#a6794c083c2a0263c2f585f4ae4b7e39c" target="_top" xlink:title="BoxWorld.updateSprites">
<polygon fill="white" stroke="black" points="1164.5,-104.5 1164.5,-123.5 1295.5,-123.5 1295.5,-104.5 1164.5,-104.5"/>
<text text-anchor="middle" x="1230" y="-111.5" font-family="Helvetica,sans-Serif" font-size="10.00">BoxWorld.updateSprites</text>
</a>
</g>
</g>
<!-- Node1&#45;&gt;Node8 -->
<g id="edge24" class="edge"><title>Node1&#45;&gt;Node8</title>
<path fill="none" stroke="midnightblue" d="M112.691,-145.019C180.388,-161.743 311.56,-190 425,-190 425,-190 425,-190 895,-190 1013.34,-190 1149.52,-144.076 1204.3,-123.625"/>
<polygon fill="midnightblue" stroke="midnightblue" points="113.329,-141.571 102.778,-142.541 111.63,-148.362 113.329,-141.571"/>
</g>
<!-- Node18 -->
<g id="node18" class="node"><title>Node18</title>
<g id="a_node18"><a xlink:href="../../db/d97/class_box_world.html#a55add11037cd6dc48556f2f42a9e11be" target="_top" xlink:title="BoxWorld.checkCollide">
<polygon fill="white" stroke="black" points="176,-123.5 176,-142.5 298,-142.5 298,-123.5 176,-123.5"/>
<text text-anchor="middle" x="237" y="-130.5" font-family="Helvetica,sans-Serif" font-size="10.00">BoxWorld.checkCollide</text>
</a>
</g>
</g>
<!-- Node1&#45;&gt;Node18 -->
<g id="edge21" class="edge"><title>Node1&#45;&gt;Node18</title>
<path fill="none" stroke="midnightblue" d="M142.111,-133C153.372,-133 164.857,-133 175.755,-133"/>
<polygon fill="midnightblue" stroke="midnightblue" points="141.857,-129.5 131.856,-133 141.856,-136.5 141.857,-129.5"/>
</g>
<!-- Node3 -->
<g id="node3" class="node"><title>Node3</title>
<g id="a_node3"><a xlink:href="../../db/d97/class_box_world.html#aa7e2049d7be23e15fd2ec7fa2922ed79" target="_top" xlink:title="BoxWorld.handleKeyInput">
<polygon fill="white" stroke="black" points="358,-66.5 358,-85.5 494,-85.5 494,-66.5 358,-66.5"/>
<text text-anchor="middle" x="426" y="-73.5" font-family="Helvetica,sans-Serif" font-size="10.00">BoxWorld.handleKeyInput</text>
</a>
</g>
</g>
<!-- Node2&#45;&gt;Node3 -->
<g id="edge2" class="edge"><title>Node2&#45;&gt;Node3</title>
<path fill="none" stroke="midnightblue" d="M315.628,-87.1127C329.666,-85.6864 344.196,-84.21 357.901,-82.8175"/>
<polygon fill="midnightblue" stroke="midnightblue" points="315.106,-83.6476 305.511,-88.1406 315.814,-90.6117 315.106,-83.6476"/>
</g>
<!-- Node4 -->
<g id="node4" class="node"><title>Node4</title>
<g id="a_node4"><a xlink:href="../../db/d97/class_box_world.html#a726e747e023543658d7a345cc6466ccb" target="_top" xlink:title="BoxWorld.createScene">
<polygon fill="white" stroke="black" points="546,-66.5 546,-85.5 670,-85.5 670,-66.5 546,-66.5"/>
<text text-anchor="middle" x="608" y="-73.5" font-family="Helvetica,sans-Serif" font-size="10.00">BoxWorld.createScene</text>
</a>
</g>
</g>
<!-- Node3&#45;&gt;Node4 -->
<g id="edge3" class="edge"><title>Node3&#45;&gt;Node4</title>
<path fill="none" stroke="midnightblue" d="M504.096,-76C518.056,-76 532.439,-76 545.864,-76"/>
<polygon fill="midnightblue" stroke="midnightblue" points="504.025,-72.5001 494.025,-76 504.025,-79.5001 504.025,-72.5001"/>
</g>
<!-- Node5 -->
<g id="node5" class="node"><title>Node5</title>
<g id="a_node5"><a xlink:href="../../d6/d4f/class_item_box_world.html#aa559fc2680327b41fb376e2eda8e82e3" target="_top" xlink:title="ItemBoxWorld.init">
<polygon fill="white" stroke="black" points="706.5,-66.5 706.5,-85.5 805.5,-85.5 805.5,-66.5 706.5,-66.5"/>
<text text-anchor="middle" x="756" y="-73.5" font-family="Helvetica,sans-Serif" font-size="10.00">ItemBoxWorld.init</text>
</a>
</g>
</g>
<!-- Node4&#45;&gt;Node5 -->
<g id="edge4" class="edge"><title>Node4&#45;&gt;Node5</title>
<path fill="none" stroke="midnightblue" d="M680.3,-76C689.052,-76 697.836,-76 706.149,-76"/>
<polygon fill="midnightblue" stroke="midnightblue" points="680.071,-72.5001 670.071,-76 680.071,-79.5001 680.071,-72.5001"/>
</g>
<!-- Node10 -->
<g id="node10" class="node"><title>Node10</title>
<g id="a_node10"><a xlink:href="../../db/d97/class_box_world.html#a55bf92d3f466bfaade0f6d199d8c9bd9" target="_top" xlink:title="BoxWorld.init">
<polygon fill="white" stroke="black" points="1454.5,-85.5 1454.5,-104.5 1531.5,-104.5 1531.5,-85.5 1454.5,-85.5"/>
<text text-anchor="middle" x="1493" y="-92.5" font-family="Helvetica,sans-Serif" font-size="10.00">BoxWorld.init</text>
</a>
</g>
</g>
<!-- Node4&#45;&gt;Node10 -->
<g id="edge20" class="edge"><title>Node4&#45;&gt;Node10</title>
<path fill="none" stroke="midnightblue" d="M639.331,-62.259C690.514,-40.3629 797.778,-1.42109e-14 893,-0 893,-0 893,-0 1056,-0 1215.2,-1.42109e-14 1399.76,-61.2163 1466.38,-85.3681"/>
<polygon fill="midnightblue" stroke="midnightblue" points="637.638,-59.1783 629.862,-66.3745 640.429,-65.5981 637.638,-59.1783"/>
</g>
<!-- Node6 -->
<g id="node6" class="node"><title>Node6</title>
<g id="a_node6"><a xlink:href="../../db/d97/class_box_world.html#aad670712776afe126e51791097027e05" target="_top" xlink:title="BoxWorld.winLevel">
<polygon fill="white" stroke="black" points="842.5,-104.5 842.5,-123.5 945.5,-123.5 945.5,-104.5 842.5,-104.5"/>
<text text-anchor="middle" x="894" y="-111.5" font-family="Helvetica,sans-Serif" font-size="10.00">BoxWorld.winLevel</text>
</a>
</g>
</g>
<!-- Node5&#45;&gt;Node6 -->
<g id="edge5" class="edge"><title>Node5&#45;&gt;Node6</title>
<path fill="none" stroke="midnightblue" d="M801.087,-88.3183C819.772,-93.5393 841.218,-99.5316 858.692,-104.414"/>
<polygon fill="midnightblue" stroke="midnightblue" points="801.892,-84.9092 791.319,-85.589 800.008,-91.651 801.892,-84.9092"/>
</g>
<!-- Node6&#45;&gt;Node3 -->
<g id="edge19" class="edge"><title>Node6&#45;&gt;Node3</title>
<path fill="none" stroke="midnightblue" d="M831.988,-112.571C762.563,-110.502 645.859,-105.677 546,-95 524.053,-92.6535 499.985,-89.0141 479.271,-85.5461"/>
<polygon fill="midnightblue" stroke="midnightblue" points="832.2,-116.079 842.297,-112.869 832.402,-109.082 832.2,-116.079"/>
</g>
<!-- Node7 -->
<g id="node7" class="node"><title>Node7</title>
<g id="a_node7"><a xlink:href="../../db/d97/class_box_world.html#a4079bed8937c9f621decfbe1309e31e2" target="_top" xlink:title="BoxWorld.checkAllCollisions">
<polygon fill="white" stroke="black" points="982,-104.5 982,-123.5 1128,-123.5 1128,-104.5 982,-104.5"/>
<text text-anchor="middle" x="1055" y="-111.5" font-family="Helvetica,sans-Serif" font-size="10.00">BoxWorld.checkAllCollisions</text>
</a>
</g>
</g>
<!-- Node6&#45;&gt;Node7 -->
<g id="edge6" class="edge"><title>Node6&#45;&gt;Node7</title>
<path fill="none" stroke="midnightblue" d="M955.879,-114C964.33,-114 973.079,-114 981.713,-114"/>
<polygon fill="midnightblue" stroke="midnightblue" points="955.746,-110.5 945.746,-114 955.746,-117.5 955.746,-110.5"/>
</g>
<!-- Node7&#45;&gt;Node8 -->
<g id="edge7" class="edge"><title>Node7&#45;&gt;Node8</title>
<path fill="none" stroke="midnightblue" d="M1138.35,-114C1147.12,-114 1155.94,-114 1164.45,-114"/>
<polygon fill="midnightblue" stroke="midnightblue" points="1138.11,-110.5 1128.11,-114 1138.11,-117.5 1138.11,-110.5"/>
</g>
<!-- Node9 -->
<g id="node9" class="node"><title>Node9</title>
<g id="a_node9"><a xlink:href="../../db/d97/class_box_world.html#ad20a4e43406c44f4bbf201d1d1028998" target="_top" xlink:title="BoxWorld.start">
<polygon fill="white" stroke="black" points="1332,-85.5 1332,-104.5 1418,-104.5 1418,-85.5 1332,-85.5"/>
<text text-anchor="middle" x="1375" y="-92.5" font-family="Helvetica,sans-Serif" font-size="10.00">BoxWorld.start</text>
</a>
</g>
</g>
<!-- Node8&#45;&gt;Node9 -->
<g id="edge8" class="edge"><title>Node8&#45;&gt;Node9</title>
<path fill="none" stroke="midnightblue" d="M1305.9,-104.049C1314.84,-102.861 1323.7,-101.683 1331.94,-100.588"/>
<polygon fill="midnightblue" stroke="midnightblue" points="1305.26,-100.603 1295.81,-105.389 1306.18,-107.542 1305.26,-100.603"/>
</g>
<!-- Node9&#45;&gt;Node5 -->
<g id="edge9" class="edge"><title>Node9&#45;&gt;Node5</title>
<path fill="none" stroke="midnightblue" d="M1321.45,-93.3817C1203.62,-89.7534 919.752,-81.0118 805.673,-77.4988"/>
<polygon fill="midnightblue" stroke="midnightblue" points="1321.55,-96.8864 1331.65,-93.696 1321.77,-89.8897 1321.55,-96.8864"/>
</g>
<!-- Node9&#45;&gt;Node10 -->
<g id="edge10" class="edge"><title>Node9&#45;&gt;Node10</title>
<path fill="none" stroke="midnightblue" d="M1428.33,-95C1437.06,-95 1445.97,-95 1454.24,-95"/>
<polygon fill="midnightblue" stroke="midnightblue" points="1428.21,-91.5001 1418.21,-95 1428.21,-98.5001 1428.21,-91.5001"/>
</g>
<!-- Node11 -->
<g id="node11" class="node"><title>Node11</title>
<g id="a_node11"><a xlink:href="../../d2/db8/class_menu.html#a3c99ad09e9f2f975c1a0d0597642651a" target="_top" xlink:title="Menu.init">
<polygon fill="white" stroke="black" points="1568,-85.5 1568,-104.5 1628,-104.5 1628,-85.5 1568,-85.5"/>
<text text-anchor="middle" x="1598" y="-92.5" font-family="Helvetica,sans-Serif" font-size="10.00">Menu.init</text>
</a>
</g>
</g>
<!-- Node10&#45;&gt;Node11 -->
<g id="edge11" class="edge"><title>Node10&#45;&gt;Node11</title>
<path fill="none" stroke="midnightblue" d="M1542.03,-95C1550.89,-95 1559.87,-95 1567.95,-95"/>
<polygon fill="midnightblue" stroke="midnightblue" points="1541.77,-91.5001 1531.77,-95 1541.77,-98.5001 1541.77,-91.5001"/>
</g>
<!-- Node12 -->
<g id="node12" class="node"><title>Node12</title>
<g id="a_node12"><a xlink:href="../../d1/de1/class_end_screen.html#a1264ffb72b3a3032443f9c4087222aef" target="_top" xlink:title="EndScreen.init">
<polygon fill="white" stroke="black" points="1666,-123.5 1666,-142.5 1752,-142.5 1752,-123.5 1666,-123.5"/>
<text text-anchor="middle" x="1709" y="-130.5" font-family="Helvetica,sans-Serif" font-size="10.00">EndScreen.init</text>
</a>
</g>
</g>
<!-- Node11&#45;&gt;Node12 -->
<g id="edge12" class="edge"><title>Node11&#45;&gt;Node12</title>
<path fill="none" stroke="midnightblue" d="M1636.21,-107.972C1650.73,-113.034 1667.08,-118.734 1680.5,-123.414"/>
<polygon fill="midnightblue" stroke="midnightblue" points="1637.1,-104.576 1626.51,-104.589 1634.8,-111.186 1637.1,-104.576"/>
</g>
<!-- Node15 -->
<g id="node15" class="node"><title>Node15</title>
<g id="a_node15"><a xlink:href="../../d4/d2f/class_lose_screen.html#a34f2cc2c803500316c9b8d854854d758" target="_top" xlink:title="LoseScreen.init">
<polygon fill="white" stroke="black" points="1664,-85.5 1664,-104.5 1754,-104.5 1754,-85.5 1664,-85.5"/>
<text text-anchor="middle" x="1709" y="-92.5" font-family="Helvetica,sans-Serif" font-size="10.00">LoseScreen.init</text>
</a>
</g>
</g>
<!-- Node11&#45;&gt;Node15 -->
<g id="edge15" class="edge"><title>Node11&#45;&gt;Node15</title>
<path fill="none" stroke="midnightblue" d="M1638.38,-95C1646.68,-95 1655.48,-95 1663.94,-95"/>
<polygon fill="midnightblue" stroke="midnightblue" points="1638.21,-91.5001 1628.21,-95 1638.21,-98.5001 1638.21,-91.5001"/>
</g>
<!-- Node17 -->
<g id="node17" class="node"><title>Node17</title>
<g id="a_node17"><a xlink:href="../../d0/d4b/class_main.html#a7595d13c514a02c35aca322dd91d2063" target="_top" xlink:title="Main.start">
<polygon fill="white" stroke="black" points="1676.5,-47.5 1676.5,-66.5 1741.5,-66.5 1741.5,-47.5 1676.5,-47.5"/>
<text text-anchor="middle" x="1709" y="-54.5" font-family="Helvetica,sans-Serif" font-size="10.00">Main.start</text>
</a>
</g>
</g>
<!-- Node11&#45;&gt;Node17 -->
<g id="edge18" class="edge"><title>Node11&#45;&gt;Node17</title>
<path fill="none" stroke="midnightblue" d="M1636.21,-82.0282C1650.73,-76.9656 1667.08,-71.2659 1680.5,-66.5859"/>
<polygon fill="midnightblue" stroke="midnightblue" points="1634.8,-78.8141 1626.51,-85.411 1637.1,-85.4239 1634.8,-78.8141"/>
</g>
<!-- Node13 -->
<g id="node13" class="node"><title>Node13</title>
<g id="a_node13"><a xlink:href="../../d6/d4f/class_item_box_world.html#a2ed12a6b39993faedc05cc682204476d" target="_top" xlink:title="ItemBoxWorld.winLevel">
<polygon fill="white" stroke="black" points="1790.5,-123.5 1790.5,-142.5 1915.5,-142.5 1915.5,-123.5 1790.5,-123.5"/>
<text text-anchor="middle" x="1853" y="-130.5" font-family="Helvetica,sans-Serif" font-size="10.00">ItemBoxWorld.winLevel</text>
</a>
</g>
</g>
<!-- Node12&#45;&gt;Node13 -->
<g id="edge13" class="edge"><title>Node12&#45;&gt;Node13</title>
<path fill="none" stroke="midnightblue" d="M1762.34,-133C1771.5,-133 1781.11,-133 1790.5,-133"/>
<polygon fill="midnightblue" stroke="midnightblue" points="1762.22,-129.5 1752.22,-133 1762.22,-136.5 1762.22,-129.5"/>
</g>
<!-- Node14 -->
<g id="node14" class="node"><title>Node14</title>
<g id="a_node14"><a xlink:href="../../d6/d4f/class_item_box_world.html#ae442d947b4dafc944336ee27628d2175" target="_top" xlink:title="ItemBoxWorld.handleKeyInput">
<polygon fill="white" stroke="black" points="1952,-123.5 1952,-142.5 2110,-142.5 2110,-123.5 1952,-123.5"/>
<text text-anchor="middle" x="2031" y="-130.5" font-family="Helvetica,sans-Serif" font-size="10.00">ItemBoxWorld.handleKeyInput</text>
</a>
</g>
</g>
<!-- Node13&#45;&gt;Node14 -->
<g id="edge14" class="edge"><title>Node13&#45;&gt;Node14</title>
<path fill="none" stroke="midnightblue" d="M1925.57,-133C1934.2,-133 1943.05,-133 1951.77,-133"/>
<polygon fill="midnightblue" stroke="midnightblue" points="1925.56,-129.5 1915.56,-133 1925.56,-136.5 1925.56,-129.5"/>
</g>
<!-- Node16 -->
<g id="node16" class="node"><title>Node16</title>
<g id="a_node16"><a xlink:href="../../db/d97/class_box_world.html#a72bacb2a6757900d8835249929fcc838" target="_top" xlink:title="BoxWorld.loseGame">
<polygon fill="white" stroke="black" points="1797,-47.5 1797,-66.5 1909,-66.5 1909,-47.5 1797,-47.5"/>
<text text-anchor="middle" x="1853" y="-54.5" font-family="Helvetica,sans-Serif" font-size="10.00">BoxWorld.loseGame</text>
</a>
</g>
</g>
<!-- Node15&#45;&gt;Node16 -->
<g id="edge16" class="edge"><title>Node15&#45;&gt;Node16</title>
<path fill="none" stroke="midnightblue" d="M1755.49,-82.8258C1775.13,-77.5713 1797.77,-71.5134 1816.18,-66.5859"/>
<polygon fill="midnightblue" stroke="midnightblue" points="1754.59,-79.4448 1745.83,-85.411 1756.4,-86.2069 1754.59,-79.4448"/>
</g>
<!-- Node16&#45;&gt;Node7 -->
<g id="edge17" class="edge"><title>Node16&#45;&gt;Node7</title>
<path fill="none" stroke="midnightblue" d="M1802.8,-45.167C1752.05,-34.0138 1670.47,-19 1599,-19 1492,-19 1492,-19 1492,-19 1332.8,-19 1148.24,-80.2163 1081.62,-104.368"/>
<polygon fill="midnightblue" stroke="midnightblue" points="1802.31,-48.6443 1812.83,-47.411 1803.84,-41.813 1802.31,-48.6443"/>
</g>
<!-- Node18&#45;&gt;Node7 -->
<g id="edge23" class="edge"><title>Node18&#45;&gt;Node7</title>
<path fill="none" stroke="midnightblue" d="M308.185,-138.766C382.379,-144.357 502.848,-152 607,-152 607,-152 607,-152 757,-152 846.54,-152 950.047,-134.796 1008.19,-123.54"/>
<polygon fill="midnightblue" stroke="midnightblue" points="308.267,-135.262 298.03,-137.992 307.735,-142.242 308.267,-135.262"/>
</g>
<!-- Node19 -->
<g id="node19" class="node"><title>Node19</title>
<g id="a_node19"><a xlink:href="../../d6/d4f/class_item_box_world.html#ad8a9b79d31264f523f05ed43aa490f0f" target="_top" xlink:title="ItemBoxWorld.checkAllCollisions">
<polygon fill="white" stroke="black" points="342,-104.5 342,-123.5 510,-123.5 510,-104.5 342,-104.5"/>
<text text-anchor="middle" x="426" y="-111.5" font-family="Helvetica,sans-Serif" font-size="10.00">ItemBoxWorld.checkAllCollisions</text>
</a>
</g>
</g>
<!-- Node18&#45;&gt;Node19 -->
<g id="edge22" class="edge"><title>Node18&#45;&gt;Node19</title>
<path fill="none" stroke="midnightblue" d="M308.459,-125.841C319.326,-124.737 330.636,-123.588 341.75,-122.459"/>
<polygon fill="midnightblue" stroke="midnightblue" points="307.792,-122.391 298.197,-126.884 308.5,-129.355 307.792,-122.391"/>
</g>
</g>
</svg>
        <g id="navigator" transform="translate(0 0)" fill="#404254">
                <rect fill="#f2f5e9" fill-opacity="0.5" stroke="#606060" stroke-width=".5" x="0" y="0" width="60" height="60"/>
                <use id="zoomplus" xlink:href="#zoomPlus" x="17" y="9" onmousedown="handleZoom(evt,'in')"/>
                <use id="zoomminus" xlink:href="#zoomMin" x="42" y="9" onmousedown="handleZoom(evt,'out')"/>
                <use id="reset" xlink:href="#resetDef" x="30" y="36" onmousedown="handleReset()"/>
                <g id="arrowUp" xlink:href="#dirArrow" transform="translate(30 24)" onmousedown="handlePan(0,-1)">
                  <use xlink:href="#rim" fill="#404040">
                        <set attributeName="fill" to="#808080" begin="arrowUp.mouseover" end="arrowUp.mouseout"/>
                  </use>
                  <path fill="none" stroke="white" stroke-width="1.5" d="M0,-3.0v7 M-2.5,-0.5L0,-3.0L2.5,-0.5"/>
                </g>
                <g id="arrowRight" xlink:href="#dirArrow" transform="rotate(90) translate(36 -43)" onmousedown="handlePan(1,0)">
                  <use xlink:href="#rim" fill="#404040">
                        <set attributeName="fill" to="#808080" begin="arrowRight.mouseover" end="arrowRight.mouseout"/>
                  </use>
                  <path fill="none" stroke="white" stroke-width="1.5" d="M0,-3.0v7 M-2.5,-0.5L0,-3.0L2.5,-0.5"/>
                </g>
                <g id="arrowDown" xlink:href="#dirArrow" transform="rotate(180) translate(-30 -48)" onmousedown="handlePan(0,1)">
                  <use xlink:href="#rim" fill="#404040">
                        <set attributeName="fill" to="#808080" begin="arrowDown.mouseover" end="arrowDown.mouseout"/>
                  </use>
                  <path fill="none" stroke="white" stroke-width="1.5" d="M0,-3.0v7 M-2.5,-0.5L0,-3.0L2.5,-0.5"/>
                </g>
                <g id="arrowLeft" xlink:href="#dirArrow" transform="rotate(270) translate(-36 17)" onmousedown="handlePan(-1,0)">
                  <use xlink:href="#rim" fill="#404040">
                        <set attributeName="fill" to="#808080" begin="arrowLeft.mouseover" end="arrowLeft.mouseout"/>
                  </use>
                  <path fill="none" stroke="white" stroke-width="1.5" d="M0,-3.0v7 M-2.5,-0.5L0,-3.0L2.5,-0.5"/>
                </g>
        </g>
        <svg viewBox="0 0 15 15" width="100%" height="30px" preserveAspectRatio="xMaxYMin meet">
         <g id="arrow_out" transform="scale(0.3 0.3)">
          <a xlink:href="class_sticky_box_a6ba3f89630df9d81df5644a3e5f4e387_icgraph_org.svg" target="_base">
           <rect id="button" ry="5" rx="5" y="6" x="6" height="38" width="38"
                fill="#f2f5e9" fill-opacity="0.5" stroke="#606060" stroke-width="1.0"/>
           <path id="arrow"
             d="M 11.500037,31.436501 C 11.940474,20.09759 22.043105,11.32322 32.158766,21.979434 L 37.068811,17.246167 C 37.068811,17.246167 37.088388,32 37.088388,32 L 22.160133,31.978069 C 22.160133,31.978069 26.997745,27.140456 26.997745,27.140456 C 18.528582,18.264221 13.291696,25.230495 11.500037,31.436501 z"
             style="fill:#404040;"/>
          </a>
         </g>
        </svg>
</svg>
