<?xml version="1.0" encoding="UTF-8" standalone="no"?>
<!DOCTYPE svg PUBLIC "-//W3C//DTD SVG 1.1//EN"
 "http://www.w3.org/Graphics/SVG/1.1/DTD/svg11.dtd">
<!-- Generated by graphviz version 2.36.0 (20140111.2315)
 -->
<!-- Title: StickyBox.setDirection Pages: 1 -->
<svg width="1842pt" height="170pt"
 viewBox="0.00 0.00 1842.00 170.00" xmlns="http://www.w3.org/2000/svg" xmlns:xlink="http://www.w3.org/1999/xlink">
<g id="graph0" class="graph" transform="scale(1 1) rotate(0) translate(4 166)">
<title>StickyBox.setDirection</title>
<polygon fill="white" stroke="none" points="-4,4 -4,-166 1838,-166 1838,4 -4,4"/>
<!-- Node1 -->
<g id="node1" class="node"><title>Node1</title>
<polygon fill="#bfbfbf" stroke="black" points="0,-95.5 0,-114.5 124,-114.5 124,-95.5 0,-95.5"/>
<text text-anchor="middle" x="62" y="-102.5" font-family="Helvetica,sans-Serif" font-size="10.00">StickyBox.setDirection</text>
</g>
<!-- Node2 -->
<g id="node2" class="node"><title>Node2</title>
<g id="a_node2"><a xlink:href="../../db/d97/class_box_world.html#aa7e2049d7be23e15fd2ec7fa2922ed79" target="_top" xlink:title="BoxWorld.handleKeyInput">
<polygon fill="white" stroke="black" points="284,-57.5 284,-76.5 420,-76.5 420,-57.5 284,-57.5"/>
<text text-anchor="middle" x="352" y="-64.5" font-family="Helvetica,sans-Serif" font-size="10.00">BoxWorld.handleKeyInput</text>
</a>
</g>
</g>
<!-- Node1&#45;&gt;Node2 -->
<g id="edge1" class="edge"><title>Node1&#45;&gt;Node2</title>
<path fill="none" stroke="midnightblue" d="M117.186,-93.4499C131.095,-90.7428 146.066,-88.0531 160,-86 200.88,-79.9767 246.969,-75.3307 283.631,-72.141"/>
<polygon fill="midnightblue" stroke="midnightblue" points="116.403,-90.0368 107.275,-95.4152 117.765,-96.9031 116.403,-90.0368"/>
</g>
<!-- Node7 -->
<g id="node7" class="node"><title>Node7</title>
<g id="a_node7"><a xlink:href="../../db/d97/class_box_world.html#a6794c083c2a0263c2f585f4ae4b7e39c" target="_top" xlink:title="BoxWorld.updateSprites">
<polygon fill="white" stroke="black" points="1074.5,-76.5 1074.5,-95.5 1205.5,-95.5 1205.5,-76.5 1074.5,-76.5"/>
<text text-anchor="middle" x="1140" y="-83.5" font-family="Helvetica,sans-Serif" font-size="10.00">BoxWorld.updateSprites</text>
</a>
</g>
</g>
<!-- Node1&#45;&gt;Node7 -->
<g id="edge22" class="edge"><title>Node1&#45;&gt;Node7</title>
<path fill="none" stroke="midnightblue" d="M101.283,-117.538C156.015,-134.32 260.072,-162 351,-162 351,-162 351,-162 805,-162 923.342,-162 1059.52,-116.076 1114.3,-95.6255"/>
<polygon fill="midnightblue" stroke="midnightblue" points="102.24,-114.17 91.652,-114.541 100.16,-120.854 102.24,-114.17"/>
</g>
<!-- Node17 -->
<g id="node17" class="node"><title>Node17</title>
<g id="a_node17"><a xlink:href="../../db/d97/class_box_world.html#a04c6bf977c4292a5433649fb3745fd6b" target="_top" xlink:title="BoxWorld.reset">
<polygon fill="white" stroke="black" points="160,-95.5 160,-114.5 248,-114.5 248,-95.5 160,-95.5"/>
<text text-anchor="middle" x="204" y="-102.5" font-family="Helvetica,sans-Serif" font-size="10.00">BoxWorld.reset</text>
</a>
</g>
</g>
<!-- Node1&#45;&gt;Node17 -->
<g id="edge20" class="edge"><title>Node1&#45;&gt;Node17</title>
<path fill="none" stroke="midnightblue" d="M134.497,-105C143.108,-105 151.688,-105 159.717,-105"/>
<polygon fill="midnightblue" stroke="midnightblue" points="134.406,-101.5 124.406,-105 134.406,-108.5 134.406,-101.5"/>
</g>
<!-- Node3 -->
<g id="node3" class="node"><title>Node3</title>
<g id="a_node3"><a xlink:href="../../db/d97/class_box_world.html#a726e747e023543658d7a345cc6466ccb" target="_top" xlink:title="BoxWorld.createScene">
<polygon fill="white" stroke="black" points="456,-57.5 456,-76.5 580,-76.5 580,-57.5 456,-57.5"/>
<text text-anchor="middle" x="518" y="-64.5" font-family="Helvetica,sans-Serif" font-size="10.00">BoxWorld.createScene</text>
</a>
</g>
</g>
<!-- Node2&#45;&gt;Node3 -->
<g id="edge2" class="edge"><title>Node2&#45;&gt;Node3</title>
<path fill="none" stroke="midnightblue" d="M430.258,-67C438.892,-67 447.596,-67 455.985,-67"/>
<polygon fill="midnightblue" stroke="midnightblue" points="430.178,-63.5001 420.178,-67 430.178,-70.5001 430.178,-63.5001"/>
</g>
<!-- Node4 -->
<g id="node4" class="node"><title>Node4</title>
<g id="a_node4"><a xlink:href="../../d6/d4f/class_item_box_world.html#aa559fc2680327b41fb376e2eda8e82e3" target="_top" xlink:title="ItemBoxWorld.init">
<polygon fill="white" stroke="black" points="616.5,-38.5 616.5,-57.5 715.5,-57.5 715.5,-38.5 616.5,-38.5"/>
<text text-anchor="middle" x="666" y="-45.5" font-family="Helvetica,sans-Serif" font-size="10.00">ItemBoxWorld.init</text>
</a>
</g>
</g>
<!-- Node3&#45;&gt;Node4 -->
<g id="edge3" class="edge"><title>Node3&#45;&gt;Node4</title>
<path fill="none" stroke="midnightblue" d="M590.014,-57.7584C598.861,-56.6072 607.746,-55.4509 616.149,-54.3573"/>
<polygon fill="midnightblue" stroke="midnightblue" points="589.536,-54.2911 580.071,-59.0524 590.439,-61.2325 589.536,-54.2911"/>
</g>
<!-- Node9 -->
<g id="node9" class="node"><title>Node9</title>
<g id="a_node9"><a xlink:href="../../db/d97/class_box_world.html#a55bf92d3f466bfaade0f6d199d8c9bd9" target="_top" xlink:title="BoxWorld.init">
<polygon fill="white" stroke="black" points="1364.5,-76.5 1364.5,-95.5 1441.5,-95.5 1441.5,-76.5 1364.5,-76.5"/>
<text text-anchor="middle" x="1403" y="-83.5" font-family="Helvetica,sans-Serif" font-size="10.00">BoxWorld.init</text>
</a>
</g>
</g>
<!-- Node3&#45;&gt;Node9 -->
<g id="edge19" class="edge"><title>Node3&#45;&gt;Node9</title>
<path fill="none" stroke="midnightblue" d="M557.075,-79.6427C611.12,-96.4346 713.473,-124 803,-124 803,-124 803,-124 1141,-124 1224.54,-124 1245.76,-119.651 1328,-105 1341.58,-102.581 1356.34,-98.9914 1369.08,-95.5819"/>
<polygon fill="midnightblue" stroke="midnightblue" points="557.833,-76.212 547.244,-76.5405 555.727,-82.8876 557.833,-76.212"/>
</g>
<!-- Node5 -->
<g id="node5" class="node"><title>Node5</title>
<g id="a_node5"><a xlink:href="../../db/d97/class_box_world.html#aad670712776afe126e51791097027e05" target="_top" xlink:title="BoxWorld.winLevel">
<polygon fill="white" stroke="black" points="752.5,-0.5 752.5,-19.5 855.5,-19.5 855.5,-0.5 752.5,-0.5"/>
<text text-anchor="middle" x="804" y="-7.5" font-family="Helvetica,sans-Serif" font-size="10.00">BoxWorld.winLevel</text>
</a>
</g>
</g>
<!-- Node4&#45;&gt;Node5 -->
<g id="edge4" class="edge"><title>Node4&#45;&gt;Node5</title>
<path fill="none" stroke="midnightblue" d="M711.087,-35.6817C729.772,-30.4607 751.218,-24.4684 768.692,-19.5859"/>
<polygon fill="midnightblue" stroke="midnightblue" points="710.008,-32.349 701.319,-38.411 711.892,-39.0908 710.008,-32.349"/>
</g>
<!-- Node5&#45;&gt;Node2 -->
<g id="edge18" class="edge"><title>Node5&#45;&gt;Node2</title>
<path fill="none" stroke="midnightblue" d="M741.944,-15.1509C672.479,-21.3671 555.74,-32.8946 456,-48 438.021,-50.7228 418.372,-54.2176 401.1,-57.4658"/>
<polygon fill="midnightblue" stroke="midnightblue" points="742.608,-18.6059 752.259,-14.2358 741.989,-11.6333 742.608,-18.6059"/>
</g>
<!-- Node6 -->
<g id="node6" class="node"><title>Node6</title>
<g id="a_node6"><a xlink:href="../../db/d97/class_box_world.html#a4079bed8937c9f621decfbe1309e31e2" target="_top" xlink:title="BoxWorld.checkAllCollisions">
<polygon fill="white" stroke="black" points="892,-0.5 892,-19.5 1038,-19.5 1038,-0.5 892,-0.5"/>
<text text-anchor="middle" x="965" y="-7.5" font-family="Helvetica,sans-Serif" font-size="10.00">BoxWorld.checkAllCollisions</text>
</a>
</g>
</g>
<!-- Node5&#45;&gt;Node6 -->
<g id="edge5" class="edge"><title>Node5&#45;&gt;Node6</title>
<path fill="none" stroke="midnightblue" d="M865.879,-10C874.33,-10 883.079,-10 891.713,-10"/>
<polygon fill="midnightblue" stroke="midnightblue" points="865.746,-6.5001 855.746,-10 865.746,-13.5001 865.746,-6.5001"/>
</g>
<!-- Node6&#45;&gt;Node7 -->
<g id="edge6" class="edge"><title>Node6&#45;&gt;Node7</title>
<path fill="none" stroke="midnightblue" d="M997.109,-23.6662C1031.78,-38.8978 1086.95,-63.1326 1117.27,-76.4527"/>
<polygon fill="midnightblue" stroke="midnightblue" points="998.474,-20.4432 987.911,-19.6255 995.658,-26.852 998.474,-20.4432"/>
</g>
<!-- Node8 -->
<g id="node8" class="node"><title>Node8</title>
<g id="a_node8"><a xlink:href="../../db/d97/class_box_world.html#ad20a4e43406c44f4bbf201d1d1028998" target="_top" xlink:title="BoxWorld.start">
<polygon fill="white" stroke="black" points="1242,-76.5 1242,-95.5 1328,-95.5 1328,-76.5 1242,-76.5"/>
<text text-anchor="middle" x="1285" y="-83.5" font-family="Helvetica,sans-Serif" font-size="10.00">BoxWorld.start</text>
</a>
</g>
</g>
<!-- Node7&#45;&gt;Node8 -->
<g id="edge7" class="edge"><title>Node7&#45;&gt;Node8</title>
<path fill="none" stroke="midnightblue" d="M1215.9,-86C1224.84,-86 1233.7,-86 1241.94,-86"/>
<polygon fill="midnightblue" stroke="midnightblue" points="1215.81,-82.5001 1205.81,-86 1215.81,-89.5001 1215.81,-82.5001"/>
</g>
<!-- Node8&#45;&gt;Node4 -->
<g id="edge8" class="edge"><title>Node8&#45;&gt;Node4</title>
<path fill="none" stroke="midnightblue" d="M1241.51,-73.9913C1230.07,-71.2144 1217.64,-68.6057 1206,-67 1026.52,-42.2401 810.419,-44.055 715.6,-46.4171"/>
<polygon fill="midnightblue" stroke="midnightblue" points="1240.71,-77.3994 1251.27,-76.4539 1242.43,-70.6124 1240.71,-77.3994"/>
</g>
<!-- Node8&#45;&gt;Node9 -->
<g id="edge9" class="edge"><title>Node8&#45;&gt;Node9</title>
<path fill="none" stroke="midnightblue" d="M1338.33,-86C1347.06,-86 1355.97,-86 1364.24,-86"/>
<polygon fill="midnightblue" stroke="midnightblue" points="1338.21,-82.5001 1328.21,-86 1338.21,-89.5001 1338.21,-82.5001"/>
</g>
<!-- Node10 -->
<g id="node10" class="node"><title>Node10</title>
<g id="a_node10"><a xlink:href="../../d2/db8/class_menu.html#a3c99ad09e9f2f975c1a0d0597642651a" target="_top" xlink:title="Menu.init">
<polygon fill="white" stroke="black" points="1478,-76.5 1478,-95.5 1538,-95.5 1538,-76.5 1478,-76.5"/>
<text text-anchor="middle" x="1508" y="-83.5" font-family="Helvetica,sans-Serif" font-size="10.00">Menu.init</text>
</a>
</g>
</g>
<!-- Node9&#45;&gt;Node10 -->
<g id="edge10" class="edge"><title>Node9&#45;&gt;Node10</title>
<path fill="none" stroke="midnightblue" d="M1452.03,-86C1460.89,-86 1469.87,-86 1477.95,-86"/>
<polygon fill="midnightblue" stroke="midnightblue" points="1451.77,-82.5001 1441.77,-86 1451.77,-89.5001 1451.77,-82.5001"/>
</g>
<!-- Node11 -->
<g id="node11" class="node"><title>Node11</title>
<g id="a_node11"><a xlink:href="../../d4/d2f/class_lose_screen.html#a34f2cc2c803500316c9b8d854854d758" target="_top" xlink:title="LoseScreen.init">
<polygon fill="white" stroke="black" points="1574,-38.5 1574,-57.5 1664,-57.5 1664,-38.5 1574,-38.5"/>
<text text-anchor="middle" x="1619" y="-45.5" font-family="Helvetica,sans-Serif" font-size="10.00">LoseScreen.init</text>
</a>
</g>
</g>
<!-- Node10&#45;&gt;Node11 -->
<g id="edge11" class="edge"><title>Node10&#45;&gt;Node11</title>
<path fill="none" stroke="midnightblue" d="M1546.21,-73.0282C1560.73,-67.9656 1577.08,-62.2659 1590.5,-57.5859"/>
<polygon fill="midnightblue" stroke="midnightblue" points="1544.8,-69.8141 1536.51,-76.411 1547.1,-76.4239 1544.8,-69.8141"/>
</g>
<!-- Node14 -->
<g id="node14" class="node"><title>Node14</title>
<g id="a_node14"><a xlink:href="../../d1/de1/class_end_screen.html#a1264ffb72b3a3032443f9c4087222aef" target="_top" xlink:title="EndScreen.init">
<polygon fill="white" stroke="black" points="1576,-76.5 1576,-95.5 1662,-95.5 1662,-76.5 1576,-76.5"/>
<text text-anchor="middle" x="1619" y="-83.5" font-family="Helvetica,sans-Serif" font-size="10.00">EndScreen.init</text>
</a>
</g>
</g>
<!-- Node10&#45;&gt;Node14 -->
<g id="edge15" class="edge"><title>Node10&#45;&gt;Node14</title>
<path fill="none" stroke="midnightblue" d="M1548.29,-86C1557.15,-86 1566.6,-86 1575.59,-86"/>
<polygon fill="midnightblue" stroke="midnightblue" points="1548.21,-82.5001 1538.21,-86 1548.21,-89.5001 1548.21,-82.5001"/>
</g>
<!-- Node16 -->
<g id="node16" class="node"><title>Node16</title>
<g id="a_node16"><a xlink:href="../../d0/d4b/class_main.html#a7595d13c514a02c35aca322dd91d2063" target="_top" xlink:title="Main.start">
<polygon fill="white" stroke="black" points="1586.5,-114.5 1586.5,-133.5 1651.5,-133.5 1651.5,-114.5 1586.5,-114.5"/>
<text text-anchor="middle" x="1619" y="-121.5" font-family="Helvetica,sans-Serif" font-size="10.00">Main.start</text>
</a>
</g>
</g>
<!-- Node10&#45;&gt;Node16 -->
<g id="edge17" class="edge"><title>Node10&#45;&gt;Node16</title>
<path fill="none" stroke="midnightblue" d="M1546.21,-98.9718C1560.73,-104.034 1577.08,-109.734 1590.5,-114.414"/>
<polygon fill="midnightblue" stroke="midnightblue" points="1547.1,-95.5761 1536.51,-95.589 1544.8,-102.186 1547.1,-95.5761"/>
</g>
<!-- Node12 -->
<g id="node12" class="node"><title>Node12</title>
<g id="a_node12"><a xlink:href="../../d6/d4f/class_item_box_world.html#a295cf7212ad54fa599e2a2d85ee0523d" target="_top" xlink:title="ItemBoxWorld.loseGame">
<polygon fill="white" stroke="black" points="1700,-38.5 1700,-57.5 1834,-57.5 1834,-38.5 1700,-38.5"/>
<text text-anchor="middle" x="1767" y="-45.5" font-family="Helvetica,sans-Serif" font-size="10.00">ItemBoxWorld.loseGame</text>
</a>
</g>
</g>
<!-- Node11&#45;&gt;Node12 -->
<g id="edge12" class="edge"><title>Node11&#45;&gt;Node12</title>
<path fill="none" stroke="midnightblue" d="M1674.47,-48C1682.75,-48 1691.37,-48 1699.86,-48"/>
<polygon fill="midnightblue" stroke="midnightblue" points="1674.2,-44.5001 1664.2,-48 1674.2,-51.5001 1674.2,-44.5001"/>
</g>
<!-- Node13 -->
<g id="node13" class="node"><title>Node13</title>
<g id="a_node13"><a xlink:href="../../db/d97/class_box_world.html#a72bacb2a6757900d8835249929fcc838" target="_top" xlink:title="BoxWorld.loseGame">
<polygon fill="white" stroke="black" points="1711,-0.5 1711,-19.5 1823,-19.5 1823,-0.5 1711,-0.5"/>
<text text-anchor="middle" x="1767" y="-7.5" font-family="Helvetica,sans-Serif" font-size="10.00">BoxWorld.loseGame</text>
</a>
</g>
</g>
<!-- Node11&#45;&gt;Node13 -->
<g id="edge13" class="edge"><title>Node11&#45;&gt;Node13</title>
<path fill="none" stroke="midnightblue" d="M1666.54,-35.8879C1686.87,-30.5956 1710.37,-24.4787 1729.42,-19.5201"/>
<polygon fill="midnightblue" stroke="midnightblue" points="1665.64,-32.5049 1656.84,-38.411 1667.4,-39.2793 1665.64,-32.5049"/>
</g>
<!-- Node13&#45;&gt;Node6 -->
<g id="edge14" class="edge"><title>Node13&#45;&gt;Node6</title>
<path fill="none" stroke="midnightblue" d="M1700.78,-10C1648.83,-10 1574.25,-10 1509,-10 1284,-10 1284,-10 1284,-10 1199.67,-10 1102.76,-10 1038.3,-10"/>
<polygon fill="midnightblue" stroke="midnightblue" points="1700.85,-13.5001 1710.85,-10 1700.85,-6.5001 1700.85,-13.5001"/>
</g>
<!-- Node15 -->
<g id="node15" class="node"><title>Node15</title>
<g id="a_node15"><a xlink:href="../../d6/d4f/class_item_box_world.html#a2ed12a6b39993faedc05cc682204476d" target="_top" xlink:title="ItemBoxWorld.winLevel">
<polygon fill="white" stroke="black" points="1704.5,-76.5 1704.5,-95.5 1829.5,-95.5 1829.5,-76.5 1704.5,-76.5"/>
<text text-anchor="middle" x="1767" y="-83.5" font-family="Helvetica,sans-Serif" font-size="10.00">ItemBoxWorld.winLevel</text>
</a>
</g>
</g>
<!-- Node14&#45;&gt;Node15 -->
<g id="edge16" class="edge"><title>Node14&#45;&gt;Node15</title>
<path fill="none" stroke="midnightblue" d="M1672.35,-86C1682.71,-86 1693.68,-86 1704.31,-86"/>
<polygon fill="midnightblue" stroke="midnightblue" points="1672.23,-82.5001 1662.23,-86 1672.23,-89.5001 1672.23,-82.5001"/>
</g>
<!-- Node17&#45;&gt;Node2 -->
<g id="edge21" class="edge"><title>Node17&#45;&gt;Node2</title>
<path fill="none" stroke="midnightblue" d="M251.536,-92.8879C271.87,-87.5956 295.371,-81.4787 314.423,-76.5201"/>
<polygon fill="midnightblue" stroke="midnightblue" points="250.638,-89.5049 241.842,-95.411 252.401,-96.2793 250.638,-89.5049"/>
</g>
</g>
</svg>
