<?xml version="1.0" encoding="UTF-8" standalone="no"?>
<!DOCTYPE svg PUBLIC "-//W3C//DTD SVG 1.1//EN"
 "http://www.w3.org/Graphics/SVG/1.1/DTD/svg11.dtd">
<!-- Generated by graphviz version 2.36.0 (20140111.2315)
 -->
<!-- Title: StickyBox.move Pages: 1 -->
<svg width="1688pt" height="164pt"
 viewBox="0.00 0.00 1688.00 164.02" xmlns="http://www.w3.org/2000/svg" xmlns:xlink="http://www.w3.org/1999/xlink">
<g id="graph0" class="graph" transform="scale(1 1) rotate(0) translate(4 160.019)">
<title>StickyBox.move</title>
<polygon fill="white" stroke="none" points="-4,4 -4,-160.019 1684,-160.019 1684,4 -4,4"/>
<!-- Node1 -->
<g id="node1" class="node"><title>Node1</title>
<polygon fill="#bfbfbf" stroke="black" points="0.5,-11.5094 0.5,-30.5094 93.5,-30.5094 93.5,-11.5094 0.5,-11.5094"/>
<text text-anchor="middle" x="47" y="-18.5094" font-family="Helvetica,sans-Serif" font-size="10.00">StickyBox.move</text>
</g>
<!-- Node2 -->
<g id="node2" class="node"><title>Node2</title>
<g id="a_node2"><a xlink:href="../../db/d97/class_box_world.html#a6794c083c2a0263c2f585f4ae4b7e39c" target="_top" xlink:title="BoxWorld.updateSprites">
<polygon fill="white" stroke="black" points="130.5,-11.5094 130.5,-30.5094 261.5,-30.5094 261.5,-11.5094 130.5,-11.5094"/>
<text text-anchor="middle" x="196" y="-18.5094" font-family="Helvetica,sans-Serif" font-size="10.00">BoxWorld.updateSprites</text>
</a>
</g>
</g>
<!-- Node1&#45;&gt;Node2 -->
<g id="edge1" class="edge"><title>Node1&#45;&gt;Node2</title>
<path fill="none" stroke="midnightblue" d="M103.746,-21.0094C112.465,-21.0094 121.538,-21.0094 130.433,-21.0094"/>
<polygon fill="midnightblue" stroke="midnightblue" points="103.706,-17.5095 93.7059,-21.0094 103.706,-24.5095 103.706,-17.5095"/>
</g>
<!-- Node3 -->
<g id="node3" class="node"><title>Node3</title>
<g id="a_node3"><a xlink:href="../../db/d97/class_box_world.html#ad20a4e43406c44f4bbf201d1d1028998" target="_top" xlink:title="BoxWorld.start">
<polygon fill="white" stroke="black" points="298,-30.5094 298,-49.5094 384,-49.5094 384,-30.5094 298,-30.5094"/>
<text text-anchor="middle" x="341" y="-37.5094" font-family="Helvetica,sans-Serif" font-size="10.00">BoxWorld.start</text>
</a>
</g>
</g>
<!-- Node2&#45;&gt;Node3 -->
<g id="edge2" class="edge"><title>Node2&#45;&gt;Node3</title>
<path fill="none" stroke="midnightblue" d="M271.898,-30.9609C280.837,-32.1486 289.705,-33.3268 297.941,-34.4212"/>
<polygon fill="midnightblue" stroke="midnightblue" points="272.18,-27.4676 261.806,-29.6199 271.257,-34.4066 272.18,-27.4676"/>
</g>
<!-- Node4 -->
<g id="node4" class="node"><title>Node4</title>
<g id="a_node4"><a xlink:href="../../d6/d4f/class_item_box_world.html#aa559fc2680327b41fb376e2eda8e82e3" target="_top" xlink:title="ItemBoxWorld.init">
<polygon fill="white" stroke="black" points="420.5,-68.5094 420.5,-87.5094 519.5,-87.5094 519.5,-68.5094 420.5,-68.5094"/>
<text text-anchor="middle" x="470" y="-75.5094" font-family="Helvetica,sans-Serif" font-size="10.00">ItemBoxWorld.init</text>
</a>
</g>
</g>
<!-- Node3&#45;&gt;Node4 -->
<g id="edge3" class="edge"><title>Node3&#45;&gt;Node4</title>
<path fill="none" stroke="midnightblue" d="M383.894,-52.5447C401.171,-57.7142 420.871,-63.6085 436.963,-68.4235"/>
<polygon fill="midnightblue" stroke="midnightblue" points="384.631,-49.1119 374.047,-49.5984 382.624,-55.8182 384.631,-49.1119"/>
</g>
<!-- Node9 -->
<g id="node9" class="node"><title>Node9</title>
<g id="a_node9"><a xlink:href="../../db/d97/class_box_world.html#a55bf92d3f466bfaade0f6d199d8c9bd9" target="_top" xlink:title="BoxWorld.init">
<polygon fill="white" stroke="black" points="1028.5,-68.5094 1028.5,-87.5094 1105.5,-87.5094 1105.5,-68.5094 1028.5,-68.5094"/>
<text text-anchor="middle" x="1067" y="-75.5094" font-family="Helvetica,sans-Serif" font-size="10.00">BoxWorld.init</text>
</a>
</g>
</g>
<!-- Node3&#45;&gt;Node9 -->
<g id="edge19" class="edge"><title>Node3&#45;&gt;Node9</title>
<path fill="none" stroke="midnightblue" d="M394.48,-40.0094C447.944,-40.0094 533.245,-40.0094 607,-40.0094 607,-40.0094 607,-40.0094 765,-40.0094 866.242,-40.0094 892.174,-42.1389 992,-59.0094 1005.86,-61.3523 1020.93,-65.0125 1033.83,-68.4974"/>
<polygon fill="midnightblue" stroke="midnightblue" points="394.225,-36.5095 384.225,-40.0094 394.225,-43.5095 394.225,-36.5095"/>
</g>
<!-- Node5 -->
<g id="node5" class="node"><title>Node5</title>
<g id="a_node5"><a xlink:href="../../db/d97/class_box_world.html#aad670712776afe126e51791097027e05" target="_top" xlink:title="BoxWorld.winLevel">
<polygon fill="white" stroke="black" points="556.5,-106.509 556.5,-125.509 659.5,-125.509 659.5,-106.509 556.5,-106.509"/>
<text text-anchor="middle" x="608" y="-113.509" font-family="Helvetica,sans-Serif" font-size="10.00">BoxWorld.winLevel</text>
</a>
</g>
</g>
<!-- Node4&#45;&gt;Node5 -->
<g id="edge4" class="edge"><title>Node4&#45;&gt;Node5</title>
<path fill="none" stroke="midnightblue" d="M515.087,-90.3277C533.772,-95.5487 555.218,-101.541 572.692,-106.423"/>
<polygon fill="midnightblue" stroke="midnightblue" points="515.892,-86.9186 505.319,-87.5984 514.008,-93.6604 515.892,-86.9186"/>
</g>
<!-- Node6 -->
<g id="node6" class="node"><title>Node6</title>
<g id="a_node6"><a xlink:href="../../db/d97/class_box_world.html#a4079bed8937c9f621decfbe1309e31e2" target="_top" xlink:title="BoxWorld.checkAllCollisions">
<polygon fill="white" stroke="black" points="1534,-68.5094 1534,-87.5094 1680,-87.5094 1680,-68.5094 1534,-68.5094"/>
<text text-anchor="middle" x="1607" y="-75.5094" font-family="Helvetica,sans-Serif" font-size="10.00">BoxWorld.checkAllCollisions</text>
</a>
</g>
</g>
<!-- Node5&#45;&gt;Node6 -->
<g id="edge5" class="edge"><title>Node5&#45;&gt;Node6</title>
<path fill="none" stroke="midnightblue" d="M657.174,-127.732C669.75,-130.461 683.331,-133.118 696,-135.009 798.761,-150.35 825.101,-154.009 929,-154.009 929,-154.009 929,-154.009 1284,-154.009 1379.49,-154.009 1406.42,-162.047 1498,-135.009 1534.19,-124.323 1572.27,-100.94 1592.11,-87.6835"/>
<polygon fill="midnightblue" stroke="midnightblue" points="657.863,-124.299 647.341,-125.541 656.34,-131.132 657.863,-124.299"/>
</g>
<!-- Node7 -->
<g id="node7" class="node"><title>Node7</title>
<g id="a_node7"><a xlink:href="../../db/d97/class_box_world.html#aa7e2049d7be23e15fd2ec7fa2922ed79" target="_top" xlink:title="BoxWorld.handleKeyInput">
<polygon fill="white" stroke="black" points="696,-106.509 696,-125.509 832,-125.509 832,-106.509 696,-106.509"/>
<text text-anchor="middle" x="764" y="-113.509" font-family="Helvetica,sans-Serif" font-size="10.00">BoxWorld.handleKeyInput</text>
</a>
</g>
</g>
<!-- Node5&#45;&gt;Node7 -->
<g id="edge7" class="edge"><title>Node5&#45;&gt;Node7</title>
<path fill="none" stroke="midnightblue" d="M670.075,-116.009C678.591,-116.009 687.378,-116.009 695.996,-116.009"/>
<polygon fill="midnightblue" stroke="midnightblue" points="669.852,-112.51 659.852,-116.009 669.852,-119.51 669.852,-112.51"/>
</g>
<!-- Node6&#45;&gt;Node2 -->
<g id="edge6" class="edge"><title>Node6&#45;&gt;Node2</title>
<path fill="none" stroke="midnightblue" d="M1583.57,-62.7527C1562.48,-49.2609 1529.53,-30.3178 1498,-21.0094 1406.42,6.02821 1379.49,-2.0094 1284,-2.0094 469,-2.0094 469,-2.0094 469,-2.0094 397.994,-2.0094 316.814,-8.53254 261.761,-13.9345"/>
<polygon fill="midnightblue" stroke="midnightblue" points="1581.83,-65.7928 1592.11,-68.3353 1585.66,-59.9338 1581.83,-65.7928"/>
</g>
<!-- Node8 -->
<g id="node8" class="node"><title>Node8</title>
<g id="a_node8"><a xlink:href="../../db/d97/class_box_world.html#a726e747e023543658d7a345cc6466ccb" target="_top" xlink:title="BoxWorld.createScene">
<polygon fill="white" stroke="black" points="868,-68.5094 868,-87.5094 992,-87.5094 992,-68.5094 868,-68.5094"/>
<text text-anchor="middle" x="930" y="-75.5094" font-family="Helvetica,sans-Serif" font-size="10.00">BoxWorld.createScene</text>
</a>
</g>
</g>
<!-- Node7&#45;&gt;Node8 -->
<g id="edge8" class="edge"><title>Node7&#45;&gt;Node8</title>
<path fill="none" stroke="midnightblue" d="M816.341,-104.113C839.393,-98.772 866.221,-92.5557 887.913,-87.5295"/>
<polygon fill="midnightblue" stroke="midnightblue" points="815.336,-100.753 806.384,-106.42 816.916,-107.573 815.336,-100.753"/>
</g>
<!-- Node8&#45;&gt;Node4 -->
<g id="edge9" class="edge"><title>Node8&#45;&gt;Node4</title>
<path fill="none" stroke="midnightblue" d="M857.632,-78.0094C763.569,-78.0094 600.574,-78.0094 519.58,-78.0094"/>
<polygon fill="midnightblue" stroke="midnightblue" points="857.912,-81.5095 867.912,-78.0094 857.912,-74.5095 857.912,-81.5095"/>
</g>
<!-- Node8&#45;&gt;Node9 -->
<g id="edge10" class="edge"><title>Node8&#45;&gt;Node9</title>
<path fill="none" stroke="midnightblue" d="M1002.28,-78.0094C1011.23,-78.0094 1020.08,-78.0094 1028.22,-78.0094"/>
<polygon fill="midnightblue" stroke="midnightblue" points="1002.18,-74.5095 992.18,-78.0094 1002.18,-81.5095 1002.18,-74.5095"/>
</g>
<!-- Node10 -->
<g id="node10" class="node"><title>Node10</title>
<g id="a_node10"><a xlink:href="../../d2/db8/class_menu.html#a3c99ad09e9f2f975c1a0d0597642651a" target="_top" xlink:title="Menu.init">
<polygon fill="white" stroke="black" points="1142,-68.5094 1142,-87.5094 1202,-87.5094 1202,-68.5094 1142,-68.5094"/>
<text text-anchor="middle" x="1172" y="-75.5094" font-family="Helvetica,sans-Serif" font-size="10.00">Menu.init</text>
</a>
</g>
</g>
<!-- Node9&#45;&gt;Node10 -->
<g id="edge11" class="edge"><title>Node9&#45;&gt;Node10</title>
<path fill="none" stroke="midnightblue" d="M1116.03,-78.0094C1124.89,-78.0094 1133.87,-78.0094 1141.95,-78.0094"/>
<polygon fill="midnightblue" stroke="midnightblue" points="1115.77,-74.5095 1105.77,-78.0094 1115.77,-81.5095 1115.77,-74.5095"/>
</g>
<!-- Node11 -->
<g id="node11" class="node"><title>Node11</title>
<g id="a_node11"><a xlink:href="../../d4/d2f/class_lose_screen.html#a34f2cc2c803500316c9b8d854854d758" target="_top" xlink:title="LoseScreen.init">
<polygon fill="white" stroke="black" points="1238,-106.509 1238,-125.509 1328,-125.509 1328,-106.509 1238,-106.509"/>
<text text-anchor="middle" x="1283" y="-113.509" font-family="Helvetica,sans-Serif" font-size="10.00">LoseScreen.init</text>
</a>
</g>
</g>
<!-- Node10&#45;&gt;Node11 -->
<g id="edge12" class="edge"><title>Node10&#45;&gt;Node11</title>
<path fill="none" stroke="midnightblue" d="M1210.21,-90.9812C1224.73,-96.0438 1241.08,-101.743 1254.5,-106.423"/>
<polygon fill="midnightblue" stroke="midnightblue" points="1211.1,-87.5855 1200.51,-87.5984 1208.8,-94.1953 1211.1,-87.5855"/>
</g>
<!-- Node14 -->
<g id="node14" class="node"><title>Node14</title>
<g id="a_node14"><a xlink:href="../../d1/de1/class_end_screen.html#a1264ffb72b3a3032443f9c4087222aef" target="_top" xlink:title="EndScreen.init">
<polygon fill="white" stroke="black" points="1240,-68.5094 1240,-87.5094 1326,-87.5094 1326,-68.5094 1240,-68.5094"/>
<text text-anchor="middle" x="1283" y="-75.5094" font-family="Helvetica,sans-Serif" font-size="10.00">EndScreen.init</text>
</a>
</g>
</g>
<!-- Node10&#45;&gt;Node14 -->
<g id="edge16" class="edge"><title>Node10&#45;&gt;Node14</title>
<path fill="none" stroke="midnightblue" d="M1212.29,-78.0094C1221.15,-78.0094 1230.6,-78.0094 1239.59,-78.0094"/>
<polygon fill="midnightblue" stroke="midnightblue" points="1212.21,-74.5095 1202.21,-78.0094 1212.21,-81.5095 1212.21,-74.5095"/>
</g>
<!-- Node16 -->
<g id="node16" class="node"><title>Node16</title>
<g id="a_node16"><a xlink:href="../../d0/d4b/class_main.html#a7595d13c514a02c35aca322dd91d2063" target="_top" xlink:title="Main.start">
<polygon fill="white" stroke="black" points="1250.5,-30.5094 1250.5,-49.5094 1315.5,-49.5094 1315.5,-30.5094 1250.5,-30.5094"/>
<text text-anchor="middle" x="1283" y="-37.5094" font-family="Helvetica,sans-Serif" font-size="10.00">Main.start</text>
</a>
</g>
</g>
<!-- Node10&#45;&gt;Node16 -->
<g id="edge18" class="edge"><title>Node10&#45;&gt;Node16</title>
<path fill="none" stroke="midnightblue" d="M1210.21,-65.0376C1224.73,-59.975 1241.08,-54.2753 1254.5,-49.5953"/>
<polygon fill="midnightblue" stroke="midnightblue" points="1208.8,-61.8235 1200.51,-68.4204 1211.1,-68.4333 1208.8,-61.8235"/>
</g>
<!-- Node12 -->
<g id="node12" class="node"><title>Node12</title>
<g id="a_node12"><a xlink:href="../../d6/d4f/class_item_box_world.html#a295cf7212ad54fa599e2a2d85ee0523d" target="_top" xlink:title="ItemBoxWorld.loseGame">
<polygon fill="white" stroke="black" points="1364,-106.509 1364,-125.509 1498,-125.509 1498,-106.509 1364,-106.509"/>
<text text-anchor="middle" x="1431" y="-113.509" font-family="Helvetica,sans-Serif" font-size="10.00">ItemBoxWorld.loseGame</text>
</a>
</g>
</g>
<!-- Node11&#45;&gt;Node12 -->
<g id="edge13" class="edge"><title>Node11&#45;&gt;Node12</title>
<path fill="none" stroke="midnightblue" d="M1338.47,-116.009C1346.75,-116.009 1355.37,-116.009 1363.86,-116.009"/>
<polygon fill="midnightblue" stroke="midnightblue" points="1338.2,-112.51 1328.2,-116.009 1338.2,-119.51 1338.2,-112.51"/>
</g>
<!-- Node13 -->
<g id="node13" class="node"><title>Node13</title>
<g id="a_node13"><a xlink:href="../../db/d97/class_box_world.html#a72bacb2a6757900d8835249929fcc838" target="_top" xlink:title="BoxWorld.loseGame">
<polygon fill="white" stroke="black" points="1375,-68.5094 1375,-87.5094 1487,-87.5094 1487,-68.5094 1375,-68.5094"/>
<text text-anchor="middle" x="1431" y="-75.5094" font-family="Helvetica,sans-Serif" font-size="10.00">BoxWorld.loseGame</text>
</a>
</g>
</g>
<!-- Node11&#45;&gt;Node13 -->
<g id="edge14" class="edge"><title>Node11&#45;&gt;Node13</title>
<path fill="none" stroke="midnightblue" d="M1330.54,-103.897C1350.87,-98.605 1374.37,-92.4881 1393.42,-87.5295"/>
<polygon fill="midnightblue" stroke="midnightblue" points="1329.64,-100.514 1320.84,-106.42 1331.4,-107.289 1329.64,-100.514"/>
</g>
<!-- Node13&#45;&gt;Node6 -->
<g id="edge15" class="edge"><title>Node13&#45;&gt;Node6</title>
<path fill="none" stroke="midnightblue" d="M1497.34,-78.0094C1509.23,-78.0094 1521.7,-78.0094 1533.78,-78.0094"/>
<polygon fill="midnightblue" stroke="midnightblue" points="1497.05,-74.5095 1487.05,-78.0094 1497.05,-81.5095 1497.05,-74.5095"/>
</g>
<!-- Node15 -->
<g id="node15" class="node"><title>Node15</title>
<g id="a_node15"><a xlink:href="../../d6/d4f/class_item_box_world.html#a2ed12a6b39993faedc05cc682204476d" target="_top" xlink:title="ItemBoxWorld.winLevel">
<polygon fill="white" stroke="black" points="1368.5,-30.5094 1368.5,-49.5094 1493.5,-49.5094 1493.5,-30.5094 1368.5,-30.5094"/>
<text text-anchor="middle" x="1431" y="-37.5094" font-family="Helvetica,sans-Serif" font-size="10.00">ItemBoxWorld.winLevel</text>
</a>
</g>
</g>
<!-- Node14&#45;&gt;Node15 -->
<g id="edge17" class="edge"><title>Node14&#45;&gt;Node15</title>
<path fill="none" stroke="midnightblue" d="M1330.54,-65.8973C1350.87,-60.605 1374.37,-54.4881 1393.42,-49.5295"/>
<polygon fill="midnightblue" stroke="midnightblue" points="1329.64,-62.5143 1320.84,-68.4204 1331.4,-69.2887 1329.64,-62.5143"/>
</g>
</g>
</svg>
