<?xml version="1.0" encoding="UTF-8" standalone="no"?>
<!DOCTYPE svg PUBLIC "-//W3C//DTD SVG 1.1//EN"
 "http://www.w3.org/Graphics/SVG/1.1/DTD/svg11.dtd">
<!-- Generated by graphviz version 2.36.0 (20140111.2315)
 -->
<!-- Title: StickyBox.setStuck Pages: 1 -->
<!--zoomable 170 -->
<svg id="main" version="1.1" xmlns="http://www.w3.org/2000/svg" xmlns:xlink="http://www.w3.org/1999/xlink" xml:space="preserve" onload="init(evt)">
<style type="text/css"><![CDATA[
.edge:hover path { stroke: red; }
.edge:hover polygon { stroke: red; fill: red; }
]]></style>
<script type="text/javascript"><![CDATA[
var edges = document.getElementsByTagName('g');
if (edges && edges.length) {
  for (var i=0;i<edges.length;i++) {
    if (edges[i].id.substr(0,4)=='edge') {
      edges[i].setAttribute('class','edge');
    }
  }
}
]]></script>
        <defs>
                <circle id="rim" cx="0" cy="0" r="7"/>
                <circle id="rim2" cx="0" cy="0" r="3.5"/>
                <g id="zoomPlus">
                        <use xlink:href="#rim" fill="#404040">
                                <set attributeName="fill" to="#808080" begin="zoomplus.mouseover" end="zoomplus.mouseout"/>
                        </use>
                        <path d="M-4,0h8M0,-4v8" fill="none" stroke="white" stroke-width="1.5" pointer-events="none"/>
                </g>
                <g id="zoomMin">
                        <use xlink:href="#rim" fill="#404040">
                                <set attributeName="fill" to="#808080" begin="zoomminus.mouseover" end="zoomminus.mouseout"/>
                        </use>
                        <path d="M-4,0h8" fill="none" stroke="white" stroke-width="1.5" pointer-events="none"/>
                </g>
                <g id="dirArrow">
                        <path fill="none" stroke="white" stroke-width="1.5" d="M0,-3.0v7 M-2.5,-0.5L0,-3.0L2.5,-0.5"/>
                </g>
               <g id="resetDef">
                       <use xlink:href="#rim2" fill="#404040">
                               <set attributeName="fill" to="#808080" begin="reset.mouseover" end="reset.mouseout"/>
                       </use>
               </g>
        </defs>

<script type="text/javascript">
var viewWidth = 1706;
var viewHeight = 170;
var sectionId = 'dynsection-9';
</script>
<script xlink:href="../../svgpan.js"/>
<svg id="graph" class="graph">
<g id="viewport">
<title>StickyBox.setStuck</title>
<polygon fill="white" stroke="none" points="-4,4 -4,-166 1702,-166 1702,4 -4,4"/>
<!-- Node1 -->
<g id="node1" class="node"><title>Node1</title>
<polygon fill="#bfbfbf" stroke="black" points="0,-28.5 0,-47.5 108,-47.5 108,-28.5 0,-28.5"/>
<text text-anchor="middle" x="54" y="-35.5" font-family="Helvetica,sans-Serif" font-size="10.00">StickyBox.setStuck</text>
</g>
<!-- Node2 -->
<g id="node2" class="node"><title>Node2</title>
<g id="a_node2"><a xlink:href="../../db/d97/class_box_world.html#a6794c083c2a0263c2f585f4ae4b7e39c" target="_top" xlink:title="BoxWorld.updateSprites">
<polygon fill="white" stroke="black" points="144.5,-28.5 144.5,-47.5 275.5,-47.5 275.5,-28.5 144.5,-28.5"/>
<text text-anchor="middle" x="210" y="-35.5" font-family="Helvetica,sans-Serif" font-size="10.00">BoxWorld.updateSprites</text>
</a>
</g>
</g>
<!-- Node1&#45;&gt;Node2 -->
<g id="edge1" class="edge"><title>Node1&#45;&gt;Node2</title>
<path fill="none" stroke="midnightblue" d="M118.617,-38C127.083,-38 135.771,-38 144.256,-38"/>
<polygon fill="midnightblue" stroke="midnightblue" points="118.43,-34.5001 108.43,-38 118.429,-41.5001 118.43,-34.5001"/>
</g>
<!-- Node3 -->
<g id="node3" class="node"><title>Node3</title>
<g id="a_node3"><a xlink:href="../../db/d97/class_box_world.html#ad20a4e43406c44f4bbf201d1d1028998" target="_top" xlink:title="BoxWorld.start">
<polygon fill="white" stroke="black" points="312,-85.5 312,-104.5 398,-104.5 398,-85.5 312,-85.5"/>
<text text-anchor="middle" x="355" y="-92.5" font-family="Helvetica,sans-Serif" font-size="10.00">BoxWorld.start</text>
</a>
</g>
</g>
<!-- Node2&#45;&gt;Node3 -->
<g id="edge2" class="edge"><title>Node2&#45;&gt;Node3</title>
<path fill="none" stroke="midnightblue" d="M244.469,-51.3409C270.696,-61.795 306.553,-76.0874 329.987,-85.4284"/>
<polygon fill="midnightblue" stroke="midnightblue" points="245.52,-47.992 234.935,-47.5405 242.928,-54.4945 245.52,-47.992"/>
</g>
<!-- Node4 -->
<g id="node4" class="node"><title>Node4</title>
<g id="a_node4"><a xlink:href="../../d6/d4f/class_item_box_world.html#aa559fc2680327b41fb376e2eda8e82e3" target="_top" xlink:title="ItemBoxWorld.init">
<polygon fill="white" stroke="black" points="434.5,-85.5 434.5,-104.5 533.5,-104.5 533.5,-85.5 434.5,-85.5"/>
<text text-anchor="middle" x="484" y="-92.5" font-family="Helvetica,sans-Serif" font-size="10.00">ItemBoxWorld.init</text>
</a>
</g>
</g>
<!-- Node3&#45;&gt;Node4 -->
<g id="edge3" class="edge"><title>Node3&#45;&gt;Node4</title>
<path fill="none" stroke="midnightblue" d="M408.523,-95C417.059,-95 425.868,-95 434.307,-95"/>
<polygon fill="midnightblue" stroke="midnightblue" points="408.289,-91.5001 398.289,-95 408.289,-98.5001 408.289,-91.5001"/>
</g>
<!-- Node9 -->
<g id="node9" class="node"><title>Node9</title>
<g id="a_node9"><a xlink:href="../../db/d97/class_box_world.html#a55bf92d3f466bfaade0f6d199d8c9bd9" target="_top" xlink:title="BoxWorld.init">
<polygon fill="white" stroke="black" points="1042.5,-104.5 1042.5,-123.5 1119.5,-123.5 1119.5,-104.5 1042.5,-104.5"/>
<text text-anchor="middle" x="1081" y="-111.5" font-family="Helvetica,sans-Serif" font-size="10.00">BoxWorld.init</text>
</a>
</g>
</g>
<!-- Node3&#45;&gt;Node9 -->
<g id="edge19" class="edge"><title>Node3&#45;&gt;Node9</title>
<path fill="none" stroke="midnightblue" d="M391.775,-107.748C442.207,-124.549 537.396,-152 621,-152 621,-152 621,-152 779,-152 880.242,-152 906.174,-149.87 1006,-133 1019.86,-130.657 1034.93,-126.997 1047.83,-123.512"/>
<polygon fill="midnightblue" stroke="midnightblue" points="392.897,-104.432 382.303,-104.541 390.652,-111.062 392.897,-104.432"/>
</g>
<!-- Node5 -->
<g id="node5" class="node"><title>Node5</title>
<g id="a_node5"><a xlink:href="../../db/d97/class_box_world.html#aad670712776afe126e51791097027e05" target="_top" xlink:title="BoxWorld.winLevel">
<polygon fill="white" stroke="black" points="570.5,-66.5 570.5,-85.5 673.5,-85.5 673.5,-66.5 570.5,-66.5"/>
<text text-anchor="middle" x="622" y="-73.5" font-family="Helvetica,sans-Serif" font-size="10.00">BoxWorld.winLevel</text>
</a>
</g>
</g>
<!-- Node4&#45;&gt;Node5 -->
<g id="edge4" class="edge"><title>Node4&#45;&gt;Node5</title>
<path fill="none" stroke="midnightblue" d="M543.628,-86.8094C552.519,-85.5672 561.628,-84.2946 570.331,-83.0787"/>
<polygon fill="midnightblue" stroke="midnightblue" points="543.135,-83.3442 533.715,-88.1942 544.103,-90.2769 543.135,-83.3442"/>
</g>
<!-- Node6 -->
<g id="node6" class="node"><title>Node6</title>
<g id="a_node6"><a xlink:href="../../db/d97/class_box_world.html#a4079bed8937c9f621decfbe1309e31e2" target="_top" xlink:title="BoxWorld.checkAllCollisions">
<polygon fill="white" stroke="black" points="1546,-28.5 1546,-47.5 1692,-47.5 1692,-28.5 1546,-28.5"/>
<text text-anchor="middle" x="1619" y="-35.5" font-family="Helvetica,sans-Serif" font-size="10.00">BoxWorld.checkAllCollisions</text>
</a>
</g>
</g>
<!-- Node5&#45;&gt;Node6 -->
<g id="edge5" class="edge"><title>Node5&#45;&gt;Node6</title>
<path fill="none" stroke="midnightblue" d="M671.174,-64.2777C683.75,-61.5484 697.331,-58.8912 710,-57 812.761,-41.6595 839.101,-38 943,-38 943,-38 943,-38 1298,-38 1383.14,-38 1481.02,-38 1545.88,-38"/>
<polygon fill="midnightblue" stroke="midnightblue" points="670.34,-60.8776 661.341,-66.4687 671.863,-67.7101 670.34,-60.8776"/>
</g>
<!-- Node7 -->
<g id="node7" class="node"><title>Node7</title>
<g id="a_node7"><a xlink:href="../../db/d97/class_box_world.html#aa7e2049d7be23e15fd2ec7fa2922ed79" target="_top" xlink:title="BoxWorld.handleKeyInput">
<polygon fill="white" stroke="black" points="710,-66.5 710,-85.5 846,-85.5 846,-66.5 710,-66.5"/>
<text text-anchor="middle" x="778" y="-73.5" font-family="Helvetica,sans-Serif" font-size="10.00">BoxWorld.handleKeyInput</text>
</a>
</g>
</g>
<!-- Node5&#45;&gt;Node7 -->
<g id="edge7" class="edge"><title>Node5&#45;&gt;Node7</title>
<path fill="none" stroke="midnightblue" d="M684.075,-76C692.591,-76 701.378,-76 709.996,-76"/>
<polygon fill="midnightblue" stroke="midnightblue" points="683.852,-72.5001 673.852,-76 683.852,-79.5001 683.852,-72.5001"/>
</g>
<!-- Node6&#45;&gt;Node2 -->
<g id="edge6" class="edge"><title>Node6&#45;&gt;Node2</title>
<path fill="none" stroke="midnightblue" d="M1558.69,-26.7022C1494.63,-15.5008 1389.47,-0 1298,-0 483,-0 483,-0 483,-0 400.989,-0 306.395,-17.1538 253.148,-28.411"/>
<polygon fill="midnightblue" stroke="midnightblue" points="1558.15,-30.1612 1568.6,-28.46 1559.37,-23.2686 1558.15,-30.1612"/>
</g>
<!-- Node8 -->
<g id="node8" class="node"><title>Node8</title>
<g id="a_node8"><a xlink:href="../../db/d97/class_box_world.html#a726e747e023543658d7a345cc6466ccb" target="_top" xlink:title="BoxWorld.createScene">
<polygon fill="white" stroke="black" points="882,-104.5 882,-123.5 1006,-123.5 1006,-104.5 882,-104.5"/>
<text text-anchor="middle" x="944" y="-111.5" font-family="Helvetica,sans-Serif" font-size="10.00">BoxWorld.createScene</text>
</a>
</g>
</g>
<!-- Node7&#45;&gt;Node8 -->
<g id="edge8" class="edge"><title>Node7&#45;&gt;Node8</title>
<path fill="none" stroke="midnightblue" d="M830.341,-87.8961C853.393,-93.2374 880.221,-99.4537 901.913,-104.48"/>
<polygon fill="midnightblue" stroke="midnightblue" points="830.916,-84.4367 820.384,-85.589 829.336,-91.256 830.916,-84.4367"/>
</g>
<!-- Node8&#45;&gt;Node4 -->
<g id="edge9" class="edge"><title>Node8&#45;&gt;Node4</title>
<path fill="none" stroke="midnightblue" d="M871.918,-111.051C777.899,-107.151 614.656,-100.379 533.58,-97.0153"/>
<polygon fill="midnightblue" stroke="midnightblue" points="871.775,-114.548 881.912,-111.466 872.066,-107.554 871.775,-114.548"/>
</g>
<!-- Node8&#45;&gt;Node9 -->
<g id="edge10" class="edge"><title>Node8&#45;&gt;Node9</title>
<path fill="none" stroke="midnightblue" d="M1016.28,-114C1025.23,-114 1034.08,-114 1042.22,-114"/>
<polygon fill="midnightblue" stroke="midnightblue" points="1016.18,-110.5 1006.18,-114 1016.18,-117.5 1016.18,-110.5"/>
</g>
<!-- Node10 -->
<g id="node10" class="node"><title>Node10</title>
<g id="a_node10"><a xlink:href="../../d2/db8/class_menu.html#a3c99ad09e9f2f975c1a0d0597642651a" target="_top" xlink:title="Menu.init">
<polygon fill="white" stroke="black" points="1156,-104.5 1156,-123.5 1216,-123.5 1216,-104.5 1156,-104.5"/>
<text text-anchor="middle" x="1186" y="-111.5" font-family="Helvetica,sans-Serif" font-size="10.00">Menu.init</text>
</a>
</g>
</g>
<!-- Node9&#45;&gt;Node10 -->
<g id="edge11" class="edge"><title>Node9&#45;&gt;Node10</title>
<path fill="none" stroke="midnightblue" d="M1130.03,-114C1138.89,-114 1147.87,-114 1155.95,-114"/>
<polygon fill="midnightblue" stroke="midnightblue" points="1129.77,-110.5 1119.77,-114 1129.77,-117.5 1129.77,-110.5"/>
</g>
<!-- Node11 -->
<g id="node11" class="node"><title>Node11</title>
<g id="a_node11"><a xlink:href="../../d1/de1/class_end_screen.html#a1264ffb72b3a3032443f9c4087222aef" target="_top" xlink:title="EndScreen.init">
<polygon fill="white" stroke="black" points="1254,-142.5 1254,-161.5 1340,-161.5 1340,-142.5 1254,-142.5"/>
<text text-anchor="middle" x="1297" y="-149.5" font-family="Helvetica,sans-Serif" font-size="10.00">EndScreen.init</text>
</a>
</g>
</g>
<!-- Node10&#45;&gt;Node11 -->
<g id="edge12" class="edge"><title>Node10&#45;&gt;Node11</title>
<path fill="none" stroke="midnightblue" d="M1224.21,-126.972C1238.73,-132.034 1255.08,-137.734 1268.5,-142.414"/>
<polygon fill="midnightblue" stroke="midnightblue" points="1225.1,-123.576 1214.51,-123.589 1222.8,-130.186 1225.1,-123.576"/>
</g>
<!-- Node14 -->
<g id="node14" class="node"><title>Node14</title>
<g id="a_node14"><a xlink:href="../../d4/d2f/class_lose_screen.html#a34f2cc2c803500316c9b8d854854d758" target="_top" xlink:title="LoseScreen.init">
<polygon fill="white" stroke="black" points="1252,-66.5 1252,-85.5 1342,-85.5 1342,-66.5 1252,-66.5"/>
<text text-anchor="middle" x="1297" y="-73.5" font-family="Helvetica,sans-Serif" font-size="10.00">LoseScreen.init</text>
</a>
</g>
</g>
<!-- Node10&#45;&gt;Node14 -->
<g id="edge15" class="edge"><title>Node10&#45;&gt;Node14</title>
<path fill="none" stroke="midnightblue" d="M1224.21,-101.028C1238.73,-95.9656 1255.08,-90.2659 1268.5,-85.5859"/>
<polygon fill="midnightblue" stroke="midnightblue" points="1222.8,-97.8141 1214.51,-104.411 1225.1,-104.424 1222.8,-97.8141"/>
</g>
<!-- Node16 -->
<g id="node16" class="node"><title>Node16</title>
<g id="a_node16"><a xlink:href="../../d0/d4b/class_main.html#a7595d13c514a02c35aca322dd91d2063" target="_top" xlink:title="Main.start">
<polygon fill="white" stroke="black" points="1264.5,-104.5 1264.5,-123.5 1329.5,-123.5 1329.5,-104.5 1264.5,-104.5"/>
<text text-anchor="middle" x="1297" y="-111.5" font-family="Helvetica,sans-Serif" font-size="10.00">Main.start</text>
</a>
</g>
</g>
<!-- Node10&#45;&gt;Node16 -->
<g id="edge18" class="edge"><title>Node10&#45;&gt;Node16</title>
<path fill="none" stroke="midnightblue" d="M1226.38,-114C1238.88,-114 1252.53,-114 1264.41,-114"/>
<polygon fill="midnightblue" stroke="midnightblue" points="1226.21,-110.5 1216.21,-114 1226.21,-117.5 1226.21,-110.5"/>
</g>
<!-- Node12 -->
<g id="node12" class="node"><title>Node12</title>
<g id="a_node12"><a xlink:href="../../d6/d4f/class_item_box_world.html#a2ed12a6b39993faedc05cc682204476d" target="_top" xlink:title="ItemBoxWorld.winLevel">
<polygon fill="white" stroke="black" points="1378.5,-142.5 1378.5,-161.5 1503.5,-161.5 1503.5,-142.5 1378.5,-142.5"/>
<text text-anchor="middle" x="1441" y="-149.5" font-family="Helvetica,sans-Serif" font-size="10.00">ItemBoxWorld.winLevel</text>
</a>
</g>
</g>
<!-- Node11&#45;&gt;Node12 -->
<g id="edge13" class="edge"><title>Node11&#45;&gt;Node12</title>
<path fill="none" stroke="midnightblue" d="M1350.34,-152C1359.5,-152 1369.11,-152 1378.5,-152"/>
<polygon fill="midnightblue" stroke="midnightblue" points="1350.22,-148.5 1340.22,-152 1350.22,-155.5 1350.22,-148.5"/>
</g>
<!-- Node13 -->
<g id="node13" class="node"><title>Node13</title>
<g id="a_node13"><a xlink:href="../../d6/d4f/class_item_box_world.html#ae442d947b4dafc944336ee27628d2175" target="_top" xlink:title="ItemBoxWorld.handleKeyInput">
<polygon fill="white" stroke="black" points="1540,-142.5 1540,-161.5 1698,-161.5 1698,-142.5 1540,-142.5"/>
<text text-anchor="middle" x="1619" y="-149.5" font-family="Helvetica,sans-Serif" font-size="10.00">ItemBoxWorld.handleKeyInput</text>
</a>
</g>
</g>
<!-- Node12&#45;&gt;Node13 -->
<g id="edge14" class="edge"><title>Node12&#45;&gt;Node13</title>
<path fill="none" stroke="midnightblue" d="M1513.57,-152C1522.2,-152 1531.05,-152 1539.77,-152"/>
<polygon fill="midnightblue" stroke="midnightblue" points="1513.56,-148.5 1503.56,-152 1513.56,-155.5 1513.56,-148.5"/>
</g>
<!-- Node15 -->
<g id="node15" class="node"><title>Node15</title>
<g id="a_node15"><a xlink:href="../../db/d97/class_box_world.html#a72bacb2a6757900d8835249929fcc838" target="_top" xlink:title="BoxWorld.loseGame">
<polygon fill="white" stroke="black" points="1385,-66.5 1385,-85.5 1497,-85.5 1497,-66.5 1385,-66.5"/>
<text text-anchor="middle" x="1441" y="-73.5" font-family="Helvetica,sans-Serif" font-size="10.00">BoxWorld.loseGame</text>
</a>
</g>
</g>
<!-- Node14&#45;&gt;Node15 -->
<g id="edge16" class="edge"><title>Node14&#45;&gt;Node15</title>
<path fill="none" stroke="midnightblue" d="M1352.2,-76C1362.9,-76 1374.13,-76 1384.85,-76"/>
<polygon fill="midnightblue" stroke="midnightblue" points="1352.15,-72.5001 1342.15,-76 1352.15,-79.5001 1352.15,-72.5001"/>
</g>
<!-- Node15&#45;&gt;Node6 -->
<g id="edge17" class="edge"><title>Node15&#45;&gt;Node6</title>
<path fill="none" stroke="midnightblue" d="M1496.43,-64.2474C1521.32,-58.8742 1550.42,-52.5914 1573.91,-47.5201"/>
<polygon fill="midnightblue" stroke="midnightblue" points="1495.45,-60.8793 1486.41,-66.411 1496.93,-67.7216 1495.45,-60.8793"/>
</g>
</g>
</svg>
        <g id="navigator" transform="translate(0 0)" fill="#404254">
                <rect fill="#f2f5e9" fill-opacity="0.5" stroke="#606060" stroke-width=".5" x="0" y="0" width="60" height="60"/>
                <use id="zoomplus" xlink:href="#zoomPlus" x="17" y="9" onmousedown="handleZoom(evt,'in')"/>
                <use id="zoomminus" xlink:href="#zoomMin" x="42" y="9" onmousedown="handleZoom(evt,'out')"/>
                <use id="reset" xlink:href="#resetDef" x="30" y="36" onmousedown="handleReset()"/>
                <g id="arrowUp" xlink:href="#dirArrow" transform="translate(30 24)" onmousedown="handlePan(0,-1)">
                  <use xlink:href="#rim" fill="#404040">
                        <set attributeName="fill" to="#808080" begin="arrowUp.mouseover" end="arrowUp.mouseout"/>
                  </use>
                  <path fill="none" stroke="white" stroke-width="1.5" d="M0,-3.0v7 M-2.5,-0.5L0,-3.0L2.5,-0.5"/>
                </g>
                <g id="arrowRight" xlink:href="#dirArrow" transform="rotate(90) translate(36 -43)" onmousedown="handlePan(1,0)">
                  <use xlink:href="#rim" fill="#404040">
                        <set attributeName="fill" to="#808080" begin="arrowRight.mouseover" end="arrowRight.mouseout"/>
                  </use>
                  <path fill="none" stroke="white" stroke-width="1.5" d="M0,-3.0v7 M-2.5,-0.5L0,-3.0L2.5,-0.5"/>
                </g>
                <g id="arrowDown" xlink:href="#dirArrow" transform="rotate(180) translate(-30 -48)" onmousedown="handlePan(0,1)">
                  <use xlink:href="#rim" fill="#404040">
                        <set attributeName="fill" to="#808080" begin="arrowDown.mouseover" end="arrowDown.mouseout"/>
                  </use>
                  <path fill="none" stroke="white" stroke-width="1.5" d="M0,-3.0v7 M-2.5,-0.5L0,-3.0L2.5,-0.5"/>
                </g>
                <g id="arrowLeft" xlink:href="#dirArrow" transform="rotate(270) translate(-36 17)" onmousedown="handlePan(-1,0)">
                  <use xlink:href="#rim" fill="#404040">
                        <set attributeName="fill" to="#808080" begin="arrowLeft.mouseover" end="arrowLeft.mouseout"/>
                  </use>
                  <path fill="none" stroke="white" stroke-width="1.5" d="M0,-3.0v7 M-2.5,-0.5L0,-3.0L2.5,-0.5"/>
                </g>
        </g>
        <svg viewBox="0 0 15 15" width="100%" height="30px" preserveAspectRatio="xMaxYMin meet">
         <g id="arrow_out" transform="scale(0.3 0.3)">
          <a xlink:href="class_sticky_box_a59337f0aa3c7379a2cb9c76bdc621daf_icgraph_org.svg" target="_base">
           <rect id="button" ry="5" rx="5" y="6" x="6" height="38" width="38"
                fill="#f2f5e9" fill-opacity="0.5" stroke="#606060" stroke-width="1.0"/>
           <path id="arrow"
             d="M 11.500037,31.436501 C 11.940474,20.09759 22.043105,11.32322 32.158766,21.979434 L 37.068811,17.246167 C 37.068811,17.246167 37.088388,32 37.088388,32 L 22.160133,31.978069 C 22.160133,31.978069 26.997745,27.140456 26.997745,27.140456 C 18.528582,18.264221 13.291696,25.230495 11.500037,31.436501 z"
             style="fill:#404040;"/>
          </a>
         </g>
        </svg>
</svg>
