<?xml version="1.0" encoding="UTF-8" standalone="no"?>
<!DOCTYPE svg PUBLIC "-//W3C//DTD SVG 1.1//EN"
 "http://www.w3.org/Graphics/SVG/1.1/DTD/svg11.dtd">
<!-- Generated by graphviz version 2.36.0 (20140111.2315)
 -->
<!-- Title: StickyBox.move Pages: 1 -->
<svg width="1692pt" height="170pt"
 viewBox="0.00 0.00 1692.00 170.00" xmlns="http://www.w3.org/2000/svg" xmlns:xlink="http://www.w3.org/1999/xlink">
<g id="graph0" class="graph" transform="scale(1 1) rotate(0) translate(4 166)">
<title>StickyBox.move</title>
<polygon fill="white" stroke="none" points="-4,4 -4,-166 1688,-166 1688,4 -4,4"/>
<!-- Node1 -->
<g id="node1" class="node"><title>Node1</title>
<polygon fill="#bfbfbf" stroke="black" points="0.5,-28.5 0.5,-47.5 93.5,-47.5 93.5,-28.5 0.5,-28.5"/>
<text text-anchor="middle" x="47" y="-35.5" font-family="Helvetica,sans-Serif" font-size="10.00">StickyBox.move</text>
</g>
<!-- Node2 -->
<g id="node2" class="node"><title>Node2</title>
<g id="a_node2"><a xlink:href="../../db/d97/class_box_world.html#a6794c083c2a0263c2f585f4ae4b7e39c" target="_top" xlink:title="BoxWorld.updateSprites">
<polygon fill="white" stroke="black" points="130.5,-28.5 130.5,-47.5 261.5,-47.5 261.5,-28.5 130.5,-28.5"/>
<text text-anchor="middle" x="196" y="-35.5" font-family="Helvetica,sans-Serif" font-size="10.00">BoxWorld.updateSprites</text>
</a>
</g>
</g>
<!-- Node1&#45;&gt;Node2 -->
<g id="edge1" class="edge"><title>Node1&#45;&gt;Node2</title>
<path fill="none" stroke="midnightblue" d="M103.746,-38C112.465,-38 121.538,-38 130.433,-38"/>
<polygon fill="midnightblue" stroke="midnightblue" points="103.706,-34.5001 93.7059,-38 103.706,-41.5001 103.706,-34.5001"/>
</g>
<!-- Node3 -->
<g id="node3" class="node"><title>Node3</title>
<g id="a_node3"><a xlink:href="../../db/d97/class_box_world.html#ad20a4e43406c44f4bbf201d1d1028998" target="_top" xlink:title="BoxWorld.start">
<polygon fill="white" stroke="black" points="298,-85.5 298,-104.5 384,-104.5 384,-85.5 298,-85.5"/>
<text text-anchor="middle" x="341" y="-92.5" font-family="Helvetica,sans-Serif" font-size="10.00">BoxWorld.start</text>
</a>
</g>
</g>
<!-- Node2&#45;&gt;Node3 -->
<g id="edge2" class="edge"><title>Node2&#45;&gt;Node3</title>
<path fill="none" stroke="midnightblue" d="M230.469,-51.3409C256.696,-61.795 292.553,-76.0874 315.987,-85.4284"/>
<polygon fill="midnightblue" stroke="midnightblue" points="231.52,-47.992 220.935,-47.5405 228.928,-54.4945 231.52,-47.992"/>
</g>
<!-- Node4 -->
<g id="node4" class="node"><title>Node4</title>
<g id="a_node4"><a xlink:href="../../d6/d4f/class_item_box_world.html#aa559fc2680327b41fb376e2eda8e82e3" target="_top" xlink:title="ItemBoxWorld.init">
<polygon fill="white" stroke="black" points="420.5,-85.5 420.5,-104.5 519.5,-104.5 519.5,-85.5 420.5,-85.5"/>
<text text-anchor="middle" x="470" y="-92.5" font-family="Helvetica,sans-Serif" font-size="10.00">ItemBoxWorld.init</text>
</a>
</g>
</g>
<!-- Node3&#45;&gt;Node4 -->
<g id="edge3" class="edge"><title>Node3&#45;&gt;Node4</title>
<path fill="none" stroke="midnightblue" d="M394.523,-95C403.059,-95 411.868,-95 420.307,-95"/>
<polygon fill="midnightblue" stroke="midnightblue" points="394.289,-91.5001 384.289,-95 394.289,-98.5001 394.289,-91.5001"/>
</g>
<!-- Node9 -->
<g id="node9" class="node"><title>Node9</title>
<g id="a_node9"><a xlink:href="../../db/d97/class_box_world.html#a55bf92d3f466bfaade0f6d199d8c9bd9" target="_top" xlink:title="BoxWorld.init">
<polygon fill="white" stroke="black" points="1028.5,-104.5 1028.5,-123.5 1105.5,-123.5 1105.5,-104.5 1028.5,-104.5"/>
<text text-anchor="middle" x="1067" y="-111.5" font-family="Helvetica,sans-Serif" font-size="10.00">BoxWorld.init</text>
</a>
</g>
</g>
<!-- Node3&#45;&gt;Node9 -->
<g id="edge19" class="edge"><title>Node3&#45;&gt;Node9</title>
<path fill="none" stroke="midnightblue" d="M377.775,-107.748C428.207,-124.549 523.396,-152 607,-152 607,-152 607,-152 765,-152 866.242,-152 892.174,-149.87 992,-133 1005.86,-130.657 1020.93,-126.997 1033.83,-123.512"/>
<polygon fill="midnightblue" stroke="midnightblue" points="378.897,-104.432 368.303,-104.541 376.652,-111.062 378.897,-104.432"/>
</g>
<!-- Node5 -->
<g id="node5" class="node"><title>Node5</title>
<g id="a_node5"><a xlink:href="../../db/d97/class_box_world.html#aad670712776afe126e51791097027e05" target="_top" xlink:title="BoxWorld.winLevel">
<polygon fill="white" stroke="black" points="556.5,-66.5 556.5,-85.5 659.5,-85.5 659.5,-66.5 556.5,-66.5"/>
<text text-anchor="middle" x="608" y="-73.5" font-family="Helvetica,sans-Serif" font-size="10.00">BoxWorld.winLevel</text>
</a>
</g>
</g>
<!-- Node4&#45;&gt;Node5 -->
<g id="edge4" class="edge"><title>Node4&#45;&gt;Node5</title>
<path fill="none" stroke="midnightblue" d="M529.628,-86.8094C538.519,-85.5672 547.628,-84.2946 556.331,-83.0787"/>
<polygon fill="midnightblue" stroke="midnightblue" points="529.135,-83.3442 519.715,-88.1942 530.103,-90.2769 529.135,-83.3442"/>
</g>
<!-- Node6 -->
<g id="node6" class="node"><title>Node6</title>
<g id="a_node6"><a xlink:href="../../db/d97/class_box_world.html#a4079bed8937c9f621decfbe1309e31e2" target="_top" xlink:title="BoxWorld.checkAllCollisions">
<polygon fill="white" stroke="black" points="1532,-28.5 1532,-47.5 1678,-47.5 1678,-28.5 1532,-28.5"/>
<text text-anchor="middle" x="1605" y="-35.5" font-family="Helvetica,sans-Serif" font-size="10.00">BoxWorld.checkAllCollisions</text>
</a>
</g>
</g>
<!-- Node5&#45;&gt;Node6 -->
<g id="edge5" class="edge"><title>Node5&#45;&gt;Node6</title>
<path fill="none" stroke="midnightblue" d="M657.174,-64.2777C669.75,-61.5484 683.331,-58.8912 696,-57 798.761,-41.6595 825.101,-38 929,-38 929,-38 929,-38 1284,-38 1369.14,-38 1467.02,-38 1531.88,-38"/>
<polygon fill="midnightblue" stroke="midnightblue" points="656.34,-60.8776 647.341,-66.4687 657.863,-67.7101 656.34,-60.8776"/>
</g>
<!-- Node7 -->
<g id="node7" class="node"><title>Node7</title>
<g id="a_node7"><a xlink:href="../../db/d97/class_box_world.html#aa7e2049d7be23e15fd2ec7fa2922ed79" target="_top" xlink:title="BoxWorld.handleKeyInput">
<polygon fill="white" stroke="black" points="696,-66.5 696,-85.5 832,-85.5 832,-66.5 696,-66.5"/>
<text text-anchor="middle" x="764" y="-73.5" font-family="Helvetica,sans-Serif" font-size="10.00">BoxWorld.handleKeyInput</text>
</a>
</g>
</g>
<!-- Node5&#45;&gt;Node7 -->
<g id="edge7" class="edge"><title>Node5&#45;&gt;Node7</title>
<path fill="none" stroke="midnightblue" d="M670.075,-76C678.591,-76 687.378,-76 695.996,-76"/>
<polygon fill="midnightblue" stroke="midnightblue" points="669.852,-72.5001 659.852,-76 669.852,-79.5001 669.852,-72.5001"/>
</g>
<!-- Node6&#45;&gt;Node2 -->
<g id="edge6" class="edge"><title>Node6&#45;&gt;Node2</title>
<path fill="none" stroke="midnightblue" d="M1544.69,-26.7022C1480.63,-15.5008 1375.47,-0 1284,-0 469,-0 469,-0 469,-0 386.989,-0 292.395,-17.1538 239.148,-28.411"/>
<polygon fill="midnightblue" stroke="midnightblue" points="1544.15,-30.1612 1554.6,-28.46 1545.37,-23.2686 1544.15,-30.1612"/>
</g>
<!-- Node8 -->
<g id="node8" class="node"><title>Node8</title>
<g id="a_node8"><a xlink:href="../../db/d97/class_box_world.html#a726e747e023543658d7a345cc6466ccb" target="_top" xlink:title="BoxWorld.createScene">
<polygon fill="white" stroke="black" points="868,-104.5 868,-123.5 992,-123.5 992,-104.5 868,-104.5"/>
<text text-anchor="middle" x="930" y="-111.5" font-family="Helvetica,sans-Serif" font-size="10.00">BoxWorld.createScene</text>
</a>
</g>
</g>
<!-- Node7&#45;&gt;Node8 -->
<g id="edge8" class="edge"><title>Node7&#45;&gt;Node8</title>
<path fill="none" stroke="midnightblue" d="M816.341,-87.8961C839.393,-93.2374 866.221,-99.4537 887.913,-104.48"/>
<polygon fill="midnightblue" stroke="midnightblue" points="816.916,-84.4367 806.384,-85.589 815.336,-91.256 816.916,-84.4367"/>
</g>
<!-- Node8&#45;&gt;Node4 -->
<g id="edge9" class="edge"><title>Node8&#45;&gt;Node4</title>
<path fill="none" stroke="midnightblue" d="M857.918,-111.051C763.899,-107.151 600.656,-100.379 519.58,-97.0153"/>
<polygon fill="midnightblue" stroke="midnightblue" points="857.775,-114.548 867.912,-111.466 858.066,-107.554 857.775,-114.548"/>
</g>
<!-- Node8&#45;&gt;Node9 -->
<g id="edge10" class="edge"><title>Node8&#45;&gt;Node9</title>
<path fill="none" stroke="midnightblue" d="M1002.28,-114C1011.23,-114 1020.08,-114 1028.22,-114"/>
<polygon fill="midnightblue" stroke="midnightblue" points="1002.18,-110.5 992.18,-114 1002.18,-117.5 1002.18,-110.5"/>
</g>
<!-- Node10 -->
<g id="node10" class="node"><title>Node10</title>
<g id="a_node10"><a xlink:href="../../d2/db8/class_menu.html#a3c99ad09e9f2f975c1a0d0597642651a" target="_top" xlink:title="Menu.init">
<polygon fill="white" stroke="black" points="1142,-104.5 1142,-123.5 1202,-123.5 1202,-104.5 1142,-104.5"/>
<text text-anchor="middle" x="1172" y="-111.5" font-family="Helvetica,sans-Serif" font-size="10.00">Menu.init</text>
</a>
</g>
</g>
<!-- Node9&#45;&gt;Node10 -->
<g id="edge11" class="edge"><title>Node9&#45;&gt;Node10</title>
<path fill="none" stroke="midnightblue" d="M1116.03,-114C1124.89,-114 1133.87,-114 1141.95,-114"/>
<polygon fill="midnightblue" stroke="midnightblue" points="1115.77,-110.5 1105.77,-114 1115.77,-117.5 1115.77,-110.5"/>
</g>
<!-- Node11 -->
<g id="node11" class="node"><title>Node11</title>
<g id="a_node11"><a xlink:href="../../d4/d2f/class_lose_screen.html#a34f2cc2c803500316c9b8d854854d758" target="_top" xlink:title="LoseScreen.init">
<polygon fill="white" stroke="black" points="1238,-66.5 1238,-85.5 1328,-85.5 1328,-66.5 1238,-66.5"/>
<text text-anchor="middle" x="1283" y="-73.5" font-family="Helvetica,sans-Serif" font-size="10.00">LoseScreen.init</text>
</a>
</g>
</g>
<!-- Node10&#45;&gt;Node11 -->
<g id="edge12" class="edge"><title>Node10&#45;&gt;Node11</title>
<path fill="none" stroke="midnightblue" d="M1210.21,-101.028C1224.73,-95.9656 1241.08,-90.2659 1254.5,-85.5859"/>
<polygon fill="midnightblue" stroke="midnightblue" points="1208.8,-97.8141 1200.51,-104.411 1211.1,-104.424 1208.8,-97.8141"/>
</g>
<!-- Node13 -->
<g id="node13" class="node"><title>Node13</title>
<g id="a_node13"><a xlink:href="../../d1/de1/class_end_screen.html#a1264ffb72b3a3032443f9c4087222aef" target="_top" xlink:title="EndScreen.init">
<polygon fill="white" stroke="black" points="1240,-142.5 1240,-161.5 1326,-161.5 1326,-142.5 1240,-142.5"/>
<text text-anchor="middle" x="1283" y="-149.5" font-family="Helvetica,sans-Serif" font-size="10.00">EndScreen.init</text>
</a>
</g>
</g>
<!-- Node10&#45;&gt;Node13 -->
<g id="edge15" class="edge"><title>Node10&#45;&gt;Node13</title>
<path fill="none" stroke="midnightblue" d="M1210.21,-126.972C1224.73,-132.034 1241.08,-137.734 1254.5,-142.414"/>
<polygon fill="midnightblue" stroke="midnightblue" points="1211.1,-123.576 1200.51,-123.589 1208.8,-130.186 1211.1,-123.576"/>
</g>
<!-- Node16 -->
<g id="node16" class="node"><title>Node16</title>
<g id="a_node16"><a xlink:href="../../d0/d4b/class_main.html#a7595d13c514a02c35aca322dd91d2063" target="_top" xlink:title="Main.start">
<polygon fill="white" stroke="black" points="1250.5,-104.5 1250.5,-123.5 1315.5,-123.5 1315.5,-104.5 1250.5,-104.5"/>
<text text-anchor="middle" x="1283" y="-111.5" font-family="Helvetica,sans-Serif" font-size="10.00">Main.start</text>
</a>
</g>
</g>
<!-- Node10&#45;&gt;Node16 -->
<g id="edge18" class="edge"><title>Node10&#45;&gt;Node16</title>
<path fill="none" stroke="midnightblue" d="M1212.38,-114C1224.88,-114 1238.53,-114 1250.41,-114"/>
<polygon fill="midnightblue" stroke="midnightblue" points="1212.21,-110.5 1202.21,-114 1212.21,-117.5 1212.21,-110.5"/>
</g>
<!-- Node12 -->
<g id="node12" class="node"><title>Node12</title>
<g id="a_node12"><a xlink:href="../../db/d97/class_box_world.html#a72bacb2a6757900d8835249929fcc838" target="_top" xlink:title="BoxWorld.loseGame">
<polygon fill="white" stroke="black" points="1371,-66.5 1371,-85.5 1483,-85.5 1483,-66.5 1371,-66.5"/>
<text text-anchor="middle" x="1427" y="-73.5" font-family="Helvetica,sans-Serif" font-size="10.00">BoxWorld.loseGame</text>
</a>
</g>
</g>
<!-- Node11&#45;&gt;Node12 -->
<g id="edge13" class="edge"><title>Node11&#45;&gt;Node12</title>
<path fill="none" stroke="midnightblue" d="M1338.2,-76C1348.9,-76 1360.13,-76 1370.85,-76"/>
<polygon fill="midnightblue" stroke="midnightblue" points="1338.15,-72.5001 1328.15,-76 1338.15,-79.5001 1338.15,-72.5001"/>
</g>
<!-- Node12&#45;&gt;Node6 -->
<g id="edge14" class="edge"><title>Node12&#45;&gt;Node6</title>
<path fill="none" stroke="midnightblue" d="M1482.43,-64.2474C1507.32,-58.8742 1536.42,-52.5914 1559.91,-47.5201"/>
<polygon fill="midnightblue" stroke="midnightblue" points="1481.45,-60.8793 1472.41,-66.411 1482.93,-67.7216 1481.45,-60.8793"/>
</g>
<!-- Node14 -->
<g id="node14" class="node"><title>Node14</title>
<g id="a_node14"><a xlink:href="../../d6/d4f/class_item_box_world.html#a2ed12a6b39993faedc05cc682204476d" target="_top" xlink:title="ItemBoxWorld.winLevel">
<polygon fill="white" stroke="black" points="1364.5,-142.5 1364.5,-161.5 1489.5,-161.5 1489.5,-142.5 1364.5,-142.5"/>
<text text-anchor="middle" x="1427" y="-149.5" font-family="Helvetica,sans-Serif" font-size="10.00">ItemBoxWorld.winLevel</text>
</a>
</g>
</g>
<!-- Node13&#45;&gt;Node14 -->
<g id="edge16" class="edge"><title>Node13&#45;&gt;Node14</title>
<path fill="none" stroke="midnightblue" d="M1336.34,-152C1345.5,-152 1355.11,-152 1364.5,-152"/>
<polygon fill="midnightblue" stroke="midnightblue" points="1336.22,-148.5 1326.22,-152 1336.22,-155.5 1336.22,-148.5"/>
</g>
<!-- Node15 -->
<g id="node15" class="node"><title>Node15</title>
<g id="a_node15"><a xlink:href="../../d6/d4f/class_item_box_world.html#ae442d947b4dafc944336ee27628d2175" target="_top" xlink:title="ItemBoxWorld.handleKeyInput">
<polygon fill="white" stroke="black" points="1526,-142.5 1526,-161.5 1684,-161.5 1684,-142.5 1526,-142.5"/>
<text text-anchor="middle" x="1605" y="-149.5" font-family="Helvetica,sans-Serif" font-size="10.00">ItemBoxWorld.handleKeyInput</text>
</a>
</g>
</g>
<!-- Node14&#45;&gt;Node15 -->
<g id="edge17" class="edge"><title>Node14&#45;&gt;Node15</title>
<path fill="none" stroke="midnightblue" d="M1499.57,-152C1508.2,-152 1517.05,-152 1525.77,-152"/>
<polygon fill="midnightblue" stroke="midnightblue" points="1499.56,-148.5 1489.56,-152 1499.56,-155.5 1499.56,-148.5"/>
</g>
</g>
</svg>
