<?xml version="1.0" encoding="UTF-8" standalone="no"?>
<!DOCTYPE svg PUBLIC "-//W3C//DTD SVG 1.1//EN"
 "http://www.w3.org/Graphics/SVG/1.1/DTD/svg11.dtd">
<!-- Generated by graphviz version 2.36.0 (20140111.2315)
 -->
<!-- Title: StickyBox.getXPrev Pages: 1 -->
<svg width="2064pt" height="132pt"
 viewBox="0.00 0.00 2064.00 132.00" xmlns="http://www.w3.org/2000/svg" xmlns:xlink="http://www.w3.org/1999/xlink">
<g id="graph0" class="graph" transform="scale(1 1) rotate(0) translate(4 128)">
<title>StickyBox.getXPrev</title>
<polygon fill="white" stroke="none" points="-4,4 -4,-128 2060,-128 2060,4 -4,4"/>
<!-- Node1 -->
<g id="node1" class="node"><title>Node1</title>
<polygon fill="#bfbfbf" stroke="black" points="0.5,-47.5 0.5,-66.5 109.5,-66.5 109.5,-47.5 0.5,-47.5"/>
<text text-anchor="middle" x="55" y="-54.5" font-family="Helvetica,sans-Serif" font-size="10.00">StickyBox.getXPrev</text>
</g>
<!-- Node2 -->
<g id="node2" class="node"><title>Node2</title>
<g id="a_node2"><a xlink:href="../../db/d97/class_box_world.html#adc4c9d78ffde3d052c4c92047eb98e55" target="_top" xlink:title="BoxWorld.allowMovement">
<polygon fill="white" stroke="black" points="146.5,-47.5 146.5,-66.5 283.5,-66.5 283.5,-47.5 146.5,-47.5"/>
<text text-anchor="middle" x="215" y="-54.5" font-family="Helvetica,sans-Serif" font-size="10.00">BoxWorld.allowMovement</text>
</a>
</g>
</g>
<!-- Node1&#45;&gt;Node2 -->
<g id="edge1" class="edge"><title>Node1&#45;&gt;Node2</title>
<path fill="none" stroke="midnightblue" d="M119.982,-57C128.663,-57 137.596,-57 146.339,-57"/>
<polygon fill="midnightblue" stroke="midnightblue" points="119.933,-53.5001 109.933,-57 119.933,-60.5001 119.933,-53.5001"/>
</g>
<!-- Node3 -->
<g id="node3" class="node"><title>Node3</title>
<g id="a_node3"><a xlink:href="../../db/d97/class_box_world.html#aa7e2049d7be23e15fd2ec7fa2922ed79" target="_top" xlink:title="BoxWorld.handleKeyInput">
<polygon fill="white" stroke="black" points="320,-47.5 320,-66.5 456,-66.5 456,-47.5 320,-47.5"/>
<text text-anchor="middle" x="388" y="-54.5" font-family="Helvetica,sans-Serif" font-size="10.00">BoxWorld.handleKeyInput</text>
</a>
</g>
</g>
<!-- Node2&#45;&gt;Node3 -->
<g id="edge2" class="edge"><title>Node2&#45;&gt;Node3</title>
<path fill="none" stroke="midnightblue" d="M293.76,-57C302.49,-57 311.328,-57 319.907,-57"/>
<polygon fill="midnightblue" stroke="midnightblue" points="293.584,-53.5001 283.584,-57 293.584,-60.5001 293.584,-53.5001"/>
</g>
<!-- Node4 -->
<g id="node4" class="node"><title>Node4</title>
<g id="a_node4"><a xlink:href="../../db/d97/class_box_world.html#a726e747e023543658d7a345cc6466ccb" target="_top" xlink:title="BoxWorld.createScene">
<polygon fill="white" stroke="black" points="492,-66.5 492,-85.5 616,-85.5 616,-66.5 492,-66.5"/>
<text text-anchor="middle" x="554" y="-73.5" font-family="Helvetica,sans-Serif" font-size="10.00">BoxWorld.createScene</text>
</a>
</g>
</g>
<!-- Node3&#45;&gt;Node4 -->
<g id="edge3" class="edge"><title>Node3&#45;&gt;Node4</title>
<path fill="none" stroke="midnightblue" d="M466.258,-65.9506C474.892,-66.9509 483.596,-67.9592 491.985,-68.9312"/>
<polygon fill="midnightblue" stroke="midnightblue" points="466.515,-62.457 456.178,-64.7828 465.709,-69.4105 466.515,-62.457"/>
</g>
<!-- Node5 -->
<g id="node5" class="node"><title>Node5</title>
<g id="a_node5"><a xlink:href="../../d6/d4f/class_item_box_world.html#aa559fc2680327b41fb376e2eda8e82e3" target="_top" xlink:title="ItemBoxWorld.init">
<polygon fill="white" stroke="black" points="652.5,-66.5 652.5,-85.5 751.5,-85.5 751.5,-66.5 652.5,-66.5"/>
<text text-anchor="middle" x="702" y="-73.5" font-family="Helvetica,sans-Serif" font-size="10.00">ItemBoxWorld.init</text>
</a>
</g>
</g>
<!-- Node4&#45;&gt;Node5 -->
<g id="edge4" class="edge"><title>Node4&#45;&gt;Node5</title>
<path fill="none" stroke="midnightblue" d="M626.3,-76C635.052,-76 643.836,-76 652.149,-76"/>
<polygon fill="midnightblue" stroke="midnightblue" points="626.071,-72.5001 616.071,-76 626.071,-79.5001 626.071,-72.5001"/>
</g>
<!-- Node10 -->
<g id="node10" class="node"><title>Node10</title>
<g id="a_node10"><a xlink:href="../../db/d97/class_box_world.html#a55bf92d3f466bfaade0f6d199d8c9bd9" target="_top" xlink:title="BoxWorld.init">
<polygon fill="white" stroke="black" points="1400.5,-66.5 1400.5,-85.5 1477.5,-85.5 1477.5,-66.5 1400.5,-66.5"/>
<text text-anchor="middle" x="1439" y="-73.5" font-family="Helvetica,sans-Serif" font-size="10.00">BoxWorld.init</text>
</a>
</g>
</g>
<!-- Node4&#45;&gt;Node10 -->
<g id="edge20" class="edge"><title>Node4&#45;&gt;Node10</title>
<path fill="none" stroke="midnightblue" d="M608.885,-87.5544C665.797,-98.7344 758.285,-114 839,-114 839,-114 839,-114 1177,-114 1260.54,-114 1281.76,-109.651 1364,-95 1377.58,-92.5807 1392.34,-88.9914 1405.08,-85.5819"/>
<polygon fill="midnightblue" stroke="midnightblue" points="609.52,-84.1122 599.029,-85.589 608.151,-90.9771 609.52,-84.1122"/>
</g>
<!-- Node6 -->
<g id="node6" class="node"><title>Node6</title>
<g id="a_node6"><a xlink:href="../../db/d97/class_box_world.html#aad670712776afe126e51791097027e05" target="_top" xlink:title="BoxWorld.winLevel">
<polygon fill="white" stroke="black" points="788.5,-28.5 788.5,-47.5 891.5,-47.5 891.5,-28.5 788.5,-28.5"/>
<text text-anchor="middle" x="840" y="-35.5" font-family="Helvetica,sans-Serif" font-size="10.00">BoxWorld.winLevel</text>
</a>
</g>
</g>
<!-- Node5&#45;&gt;Node6 -->
<g id="edge5" class="edge"><title>Node5&#45;&gt;Node6</title>
<path fill="none" stroke="midnightblue" d="M747.087,-63.6817C765.772,-58.4607 787.218,-52.4684 804.692,-47.5859"/>
<polygon fill="midnightblue" stroke="midnightblue" points="746.008,-60.349 737.319,-66.411 747.892,-67.0908 746.008,-60.349"/>
</g>
<!-- Node6&#45;&gt;Node3 -->
<g id="edge19" class="edge"><title>Node6&#45;&gt;Node3</title>
<path fill="none" stroke="midnightblue" d="M778.155,-40.569C694.262,-44.1111 543.574,-50.4736 456.37,-54.1555"/>
<polygon fill="midnightblue" stroke="midnightblue" points="778.451,-44.0597 788.294,-40.1409 778.155,-37.066 778.451,-44.0597"/>
</g>
<!-- Node7 -->
<g id="node7" class="node"><title>Node7</title>
<g id="a_node7"><a xlink:href="../../db/d97/class_box_world.html#a4079bed8937c9f621decfbe1309e31e2" target="_top" xlink:title="BoxWorld.checkAllCollisions">
<polygon fill="white" stroke="black" points="928,-28.5 928,-47.5 1074,-47.5 1074,-28.5 928,-28.5"/>
<text text-anchor="middle" x="1001" y="-35.5" font-family="Helvetica,sans-Serif" font-size="10.00">BoxWorld.checkAllCollisions</text>
</a>
</g>
</g>
<!-- Node6&#45;&gt;Node7 -->
<g id="edge6" class="edge"><title>Node6&#45;&gt;Node7</title>
<path fill="none" stroke="midnightblue" d="M901.879,-38C910.33,-38 919.079,-38 927.713,-38"/>
<polygon fill="midnightblue" stroke="midnightblue" points="901.746,-34.5001 891.746,-38 901.746,-41.5001 901.746,-34.5001"/>
</g>
<!-- Node8 -->
<g id="node8" class="node"><title>Node8</title>
<g id="a_node8"><a xlink:href="../../db/d97/class_box_world.html#a6794c083c2a0263c2f585f4ae4b7e39c" target="_top" xlink:title="BoxWorld.updateSprites">
<polygon fill="white" stroke="black" points="1110.5,-28.5 1110.5,-47.5 1241.5,-47.5 1241.5,-28.5 1110.5,-28.5"/>
<text text-anchor="middle" x="1176" y="-35.5" font-family="Helvetica,sans-Serif" font-size="10.00">BoxWorld.updateSprites</text>
</a>
</g>
</g>
<!-- Node7&#45;&gt;Node8 -->
<g id="edge7" class="edge"><title>Node7&#45;&gt;Node8</title>
<path fill="none" stroke="midnightblue" d="M1084.35,-38C1093.12,-38 1101.94,-38 1110.45,-38"/>
<polygon fill="midnightblue" stroke="midnightblue" points="1084.11,-34.5001 1074.11,-38 1084.11,-41.5001 1084.11,-34.5001"/>
</g>
<!-- Node9 -->
<g id="node9" class="node"><title>Node9</title>
<g id="a_node9"><a xlink:href="../../db/d97/class_box_world.html#ad20a4e43406c44f4bbf201d1d1028998" target="_top" xlink:title="BoxWorld.start">
<polygon fill="white" stroke="black" points="1278,-66.5 1278,-85.5 1364,-85.5 1364,-66.5 1278,-66.5"/>
<text text-anchor="middle" x="1321" y="-73.5" font-family="Helvetica,sans-Serif" font-size="10.00">BoxWorld.start</text>
</a>
</g>
</g>
<!-- Node8&#45;&gt;Node9 -->
<g id="edge8" class="edge"><title>Node8&#45;&gt;Node9</title>
<path fill="none" stroke="midnightblue" d="M1222.81,-50.1742C1242.59,-55.4287 1265.38,-61.4866 1283.93,-66.4141"/>
<polygon fill="midnightblue" stroke="midnightblue" points="1223.65,-46.7747 1213.08,-47.589 1221.85,-53.5399 1223.65,-46.7747"/>
</g>
<!-- Node9&#45;&gt;Node5 -->
<g id="edge9" class="edge"><title>Node9&#45;&gt;Node5</title>
<path fill="none" stroke="midnightblue" d="M1267.45,-76C1149.62,-76 865.752,-76 751.673,-76"/>
<polygon fill="midnightblue" stroke="midnightblue" points="1267.65,-79.5001 1277.65,-76 1267.65,-72.5001 1267.65,-79.5001"/>
</g>
<!-- Node9&#45;&gt;Node10 -->
<g id="edge10" class="edge"><title>Node9&#45;&gt;Node10</title>
<path fill="none" stroke="midnightblue" d="M1374.33,-76C1383.06,-76 1391.97,-76 1400.24,-76"/>
<polygon fill="midnightblue" stroke="midnightblue" points="1374.21,-72.5001 1364.21,-76 1374.21,-79.5001 1374.21,-72.5001"/>
</g>
<!-- Node11 -->
<g id="node11" class="node"><title>Node11</title>
<g id="a_node11"><a xlink:href="../../d2/db8/class_menu.html#a3c99ad09e9f2f975c1a0d0597642651a" target="_top" xlink:title="Menu.init">
<polygon fill="white" stroke="black" points="1514,-66.5 1514,-85.5 1574,-85.5 1574,-66.5 1514,-66.5"/>
<text text-anchor="middle" x="1544" y="-73.5" font-family="Helvetica,sans-Serif" font-size="10.00">Menu.init</text>
</a>
</g>
</g>
<!-- Node10&#45;&gt;Node11 -->
<g id="edge11" class="edge"><title>Node10&#45;&gt;Node11</title>
<path fill="none" stroke="midnightblue" d="M1488.03,-76C1496.89,-76 1505.87,-76 1513.95,-76"/>
<polygon fill="midnightblue" stroke="midnightblue" points="1487.77,-72.5001 1477.77,-76 1487.77,-79.5001 1487.77,-72.5001"/>
</g>
<!-- Node12 -->
<g id="node12" class="node"><title>Node12</title>
<g id="a_node12"><a xlink:href="../../d1/de1/class_end_screen.html#a1264ffb72b3a3032443f9c4087222aef" target="_top" xlink:title="EndScreen.init">
<polygon fill="white" stroke="black" points="1612,-66.5 1612,-85.5 1698,-85.5 1698,-66.5 1612,-66.5"/>
<text text-anchor="middle" x="1655" y="-73.5" font-family="Helvetica,sans-Serif" font-size="10.00">EndScreen.init</text>
</a>
</g>
</g>
<!-- Node11&#45;&gt;Node12 -->
<g id="edge12" class="edge"><title>Node11&#45;&gt;Node12</title>
<path fill="none" stroke="midnightblue" d="M1584.29,-76C1593.15,-76 1602.6,-76 1611.59,-76"/>
<polygon fill="midnightblue" stroke="midnightblue" points="1584.21,-72.5001 1574.21,-76 1584.21,-79.5001 1584.21,-72.5001"/>
</g>
<!-- Node15 -->
<g id="node15" class="node"><title>Node15</title>
<g id="a_node15"><a xlink:href="../../d4/d2f/class_lose_screen.html#a34f2cc2c803500316c9b8d854854d758" target="_top" xlink:title="LoseScreen.init">
<polygon fill="white" stroke="black" points="1610,-28.5 1610,-47.5 1700,-47.5 1700,-28.5 1610,-28.5"/>
<text text-anchor="middle" x="1655" y="-35.5" font-family="Helvetica,sans-Serif" font-size="10.00">LoseScreen.init</text>
</a>
</g>
</g>
<!-- Node11&#45;&gt;Node15 -->
<g id="edge15" class="edge"><title>Node11&#45;&gt;Node15</title>
<path fill="none" stroke="midnightblue" d="M1582.21,-63.0282C1596.73,-57.9656 1613.08,-52.2659 1626.5,-47.5859"/>
<polygon fill="midnightblue" stroke="midnightblue" points="1580.8,-59.8141 1572.51,-66.411 1583.1,-66.4239 1580.8,-59.8141"/>
</g>
<!-- Node17 -->
<g id="node17" class="node"><title>Node17</title>
<g id="a_node17"><a xlink:href="../../d0/d4b/class_main.html#a7595d13c514a02c35aca322dd91d2063" target="_top" xlink:title="Main.start">
<polygon fill="white" stroke="black" points="1622.5,-104.5 1622.5,-123.5 1687.5,-123.5 1687.5,-104.5 1622.5,-104.5"/>
<text text-anchor="middle" x="1655" y="-111.5" font-family="Helvetica,sans-Serif" font-size="10.00">Main.start</text>
</a>
</g>
</g>
<!-- Node11&#45;&gt;Node17 -->
<g id="edge18" class="edge"><title>Node11&#45;&gt;Node17</title>
<path fill="none" stroke="midnightblue" d="M1582.21,-88.9718C1596.73,-94.0344 1613.08,-99.7341 1626.5,-104.414"/>
<polygon fill="midnightblue" stroke="midnightblue" points="1583.1,-85.5761 1572.51,-85.589 1580.8,-92.1859 1583.1,-85.5761"/>
</g>
<!-- Node13 -->
<g id="node13" class="node"><title>Node13</title>
<g id="a_node13"><a xlink:href="../../d6/d4f/class_item_box_world.html#a2ed12a6b39993faedc05cc682204476d" target="_top" xlink:title="ItemBoxWorld.winLevel">
<polygon fill="white" stroke="black" points="1736.5,-66.5 1736.5,-85.5 1861.5,-85.5 1861.5,-66.5 1736.5,-66.5"/>
<text text-anchor="middle" x="1799" y="-73.5" font-family="Helvetica,sans-Serif" font-size="10.00">ItemBoxWorld.winLevel</text>
</a>
</g>
</g>
<!-- Node12&#45;&gt;Node13 -->
<g id="edge13" class="edge"><title>Node12&#45;&gt;Node13</title>
<path fill="none" stroke="midnightblue" d="M1708.34,-76C1717.5,-76 1727.11,-76 1736.5,-76"/>
<polygon fill="midnightblue" stroke="midnightblue" points="1708.22,-72.5001 1698.22,-76 1708.22,-79.5001 1708.22,-72.5001"/>
</g>
<!-- Node14 -->
<g id="node14" class="node"><title>Node14</title>
<g id="a_node14"><a xlink:href="../../d6/d4f/class_item_box_world.html#ae442d947b4dafc944336ee27628d2175" target="_top" xlink:title="ItemBoxWorld.handleKeyInput">
<polygon fill="white" stroke="black" points="1898,-66.5 1898,-85.5 2056,-85.5 2056,-66.5 1898,-66.5"/>
<text text-anchor="middle" x="1977" y="-73.5" font-family="Helvetica,sans-Serif" font-size="10.00">ItemBoxWorld.handleKeyInput</text>
</a>
</g>
</g>
<!-- Node13&#45;&gt;Node14 -->
<g id="edge14" class="edge"><title>Node13&#45;&gt;Node14</title>
<path fill="none" stroke="midnightblue" d="M1871.57,-76C1880.2,-76 1889.05,-76 1897.77,-76"/>
<polygon fill="midnightblue" stroke="midnightblue" points="1871.56,-72.5001 1861.56,-76 1871.56,-79.5001 1871.56,-72.5001"/>
</g>
<!-- Node16 -->
<g id="node16" class="node"><title>Node16</title>
<g id="a_node16"><a xlink:href="../../db/d97/class_box_world.html#a72bacb2a6757900d8835249929fcc838" target="_top" xlink:title="BoxWorld.loseGame">
<polygon fill="white" stroke="black" points="1743,-9.5 1743,-28.5 1855,-28.5 1855,-9.5 1743,-9.5"/>
<text text-anchor="middle" x="1799" y="-16.5" font-family="Helvetica,sans-Serif" font-size="10.00">BoxWorld.loseGame</text>
</a>
</g>
</g>
<!-- Node15&#45;&gt;Node16 -->
<g id="edge16" class="edge"><title>Node15&#45;&gt;Node16</title>
<path fill="none" stroke="midnightblue" d="M1710.2,-30.7473C1720.9,-29.3165 1732.13,-27.8135 1742.85,-26.3786"/>
<polygon fill="midnightblue" stroke="midnightblue" points="1709.6,-27.2971 1700.15,-32.0924 1710.53,-34.2352 1709.6,-27.2971"/>
</g>
<!-- Node16&#45;&gt;Node7 -->
<g id="edge17" class="edge"><title>Node16&#45;&gt;Node7</title>
<path fill="none" stroke="midnightblue" d="M1732.59,-11.3825C1681.56,-6.09633 1608.87,-0 1545,-0 1320,-0 1320,-0 1320,-0 1224.23,-1.42109e-14 1113.37,-17.2037 1051.08,-28.46"/>
<polygon fill="midnightblue" stroke="midnightblue" points="1732.5,-14.8929 1742.81,-12.4613 1733.24,-7.93152 1732.5,-14.8929"/>
</g>
</g>
</svg>
