<?xml version="1.0" encoding="UTF-8" standalone="no"?>
<!DOCTYPE svg PUBLIC "-//W3C//DTD SVG 1.1//EN"
 "http://www.w3.org/Graphics/SVG/1.1/DTD/svg11.dtd">
<!-- Generated by graphviz version 2.36.0 (20140111.2315)
 -->
<!-- Title: StickyBox.setPreviousDirection Pages: 1 -->
<svg width="2068pt" height="170pt"
 viewBox="0.00 0.00 2068.00 170.00" xmlns="http://www.w3.org/2000/svg" xmlns:xlink="http://www.w3.org/1999/xlink">
<g id="graph0" class="graph" transform="scale(1 1) rotate(0) translate(4 166)">
<title>StickyBox.setPreviousDirection</title>
<polygon fill="white" stroke="none" points="-4,4 -4,-166 2064,-166 2064,4 -4,4"/>
<!-- Node1 -->
<g id="node1" class="node"><title>Node1</title>
<polygon fill="#bfbfbf" stroke="black" points="0,-133.5 0,-152.5 164,-152.5 164,-133.5 0,-133.5"/>
<text text-anchor="middle" x="82" y="-140.5" font-family="Helvetica,sans-Serif" font-size="10.00">StickyBox.setPreviousDirection</text>
</g>
<!-- Node2 -->
<g id="node2" class="node"><title>Node2</title>
<g id="a_node2"><a xlink:href="../../db/d97/class_box_world.html#a04c6bf977c4292a5433649fb3745fd6b" target="_top" xlink:title="BoxWorld.reset">
<polygon fill="white" stroke="black" points="200,-95.5 200,-114.5 288,-114.5 288,-95.5 200,-95.5"/>
<text text-anchor="middle" x="244" y="-102.5" font-family="Helvetica,sans-Serif" font-size="10.00">BoxWorld.reset</text>
</a>
</g>
</g>
<!-- Node1&#45;&gt;Node2 -->
<g id="edge1" class="edge"><title>Node1&#45;&gt;Node2</title>
<path fill="none" stroke="midnightblue" d="M133.392,-131.032C155.813,-125.707 181.847,-119.524 202.916,-114.52"/>
<polygon fill="midnightblue" stroke="midnightblue" points="132.295,-127.695 123.375,-133.411 133.913,-134.505 132.295,-127.695"/>
</g>
<!-- Node8 -->
<g id="node8" class="node"><title>Node8</title>
<g id="a_node8"><a xlink:href="../../db/d97/class_box_world.html#a6794c083c2a0263c2f585f4ae4b7e39c" target="_top" xlink:title="BoxWorld.updateSprites">
<polygon fill="white" stroke="black" points="1114.5,-76.5 1114.5,-95.5 1245.5,-95.5 1245.5,-76.5 1114.5,-76.5"/>
<text text-anchor="middle" x="1180" y="-83.5" font-family="Helvetica,sans-Serif" font-size="10.00">BoxWorld.updateSprites</text>
</a>
</g>
</g>
<!-- Node1&#45;&gt;Node8 -->
<g id="edge21" class="edge"><title>Node1&#45;&gt;Node8</title>
<path fill="none" stroke="midnightblue" d="M174.324,-151.592C235.562,-156.624 318.049,-162 391,-162 391,-162 391,-162 845,-162 963.342,-162 1099.52,-116.076 1154.3,-95.6255"/>
<polygon fill="midnightblue" stroke="midnightblue" points="174.556,-148.099 164.3,-150.755 173.974,-155.075 174.556,-148.099"/>
</g>
<!-- Node3 -->
<g id="node3" class="node"><title>Node3</title>
<g id="a_node3"><a xlink:href="../../db/d97/class_box_world.html#aa7e2049d7be23e15fd2ec7fa2922ed79" target="_top" xlink:title="BoxWorld.handleKeyInput">
<polygon fill="white" stroke="black" points="324,-76.5 324,-95.5 460,-95.5 460,-76.5 324,-76.5"/>
<text text-anchor="middle" x="392" y="-83.5" font-family="Helvetica,sans-Serif" font-size="10.00">BoxWorld.handleKeyInput</text>
</a>
</g>
</g>
<!-- Node2&#45;&gt;Node3 -->
<g id="edge2" class="edge"><title>Node2&#45;&gt;Node3</title>
<path fill="none" stroke="midnightblue" d="M298.046,-98.0968C306.451,-97.0029 315.24,-95.8592 323.916,-94.7302"/>
<polygon fill="midnightblue" stroke="midnightblue" points="297.48,-94.6408 288.015,-99.4021 298.383,-101.582 297.48,-94.6408"/>
</g>
<!-- Node4 -->
<g id="node4" class="node"><title>Node4</title>
<g id="a_node4"><a xlink:href="../../db/d97/class_box_world.html#a726e747e023543658d7a345cc6466ccb" target="_top" xlink:title="BoxWorld.createScene">
<polygon fill="white" stroke="black" points="496,-76.5 496,-95.5 620,-95.5 620,-76.5 496,-76.5"/>
<text text-anchor="middle" x="558" y="-83.5" font-family="Helvetica,sans-Serif" font-size="10.00">BoxWorld.createScene</text>
</a>
</g>
</g>
<!-- Node3&#45;&gt;Node4 -->
<g id="edge3" class="edge"><title>Node3&#45;&gt;Node4</title>
<path fill="none" stroke="midnightblue" d="M470.258,-86C478.892,-86 487.596,-86 495.985,-86"/>
<polygon fill="midnightblue" stroke="midnightblue" points="470.178,-82.5001 460.178,-86 470.178,-89.5001 470.178,-82.5001"/>
</g>
<!-- Node5 -->
<g id="node5" class="node"><title>Node5</title>
<g id="a_node5"><a xlink:href="../../d6/d4f/class_item_box_world.html#aa559fc2680327b41fb376e2eda8e82e3" target="_top" xlink:title="ItemBoxWorld.init">
<polygon fill="white" stroke="black" points="656.5,-38.5 656.5,-57.5 755.5,-57.5 755.5,-38.5 656.5,-38.5"/>
<text text-anchor="middle" x="706" y="-45.5" font-family="Helvetica,sans-Serif" font-size="10.00">ItemBoxWorld.init</text>
</a>
</g>
</g>
<!-- Node4&#45;&gt;Node5 -->
<g id="edge4" class="edge"><title>Node4&#45;&gt;Node5</title>
<path fill="none" stroke="midnightblue" d="M605.536,-73.8879C625.87,-68.5956 649.371,-62.4787 668.423,-57.5201"/>
<polygon fill="midnightblue" stroke="midnightblue" points="604.638,-70.5049 595.842,-76.411 606.401,-77.2793 604.638,-70.5049"/>
</g>
<!-- Node10 -->
<g id="node10" class="node"><title>Node10</title>
<g id="a_node10"><a xlink:href="../../db/d97/class_box_world.html#a55bf92d3f466bfaade0f6d199d8c9bd9" target="_top" xlink:title="BoxWorld.init">
<polygon fill="white" stroke="black" points="1404.5,-76.5 1404.5,-95.5 1481.5,-95.5 1481.5,-76.5 1404.5,-76.5"/>
<text text-anchor="middle" x="1443" y="-83.5" font-family="Helvetica,sans-Serif" font-size="10.00">BoxWorld.init</text>
</a>
</g>
</g>
<!-- Node4&#45;&gt;Node10 -->
<g id="edge20" class="edge"><title>Node4&#45;&gt;Node10</title>
<path fill="none" stroke="midnightblue" d="M612.885,-97.5544C669.797,-108.734 762.285,-124 843,-124 843,-124 843,-124 1181,-124 1264.54,-124 1285.76,-119.651 1368,-105 1381.58,-102.581 1396.34,-98.9914 1409.08,-95.5819"/>
<polygon fill="midnightblue" stroke="midnightblue" points="613.52,-94.1122 603.029,-95.589 612.151,-100.977 613.52,-94.1122"/>
</g>
<!-- Node6 -->
<g id="node6" class="node"><title>Node6</title>
<g id="a_node6"><a xlink:href="../../db/d97/class_box_world.html#aad670712776afe126e51791097027e05" target="_top" xlink:title="BoxWorld.winLevel">
<polygon fill="white" stroke="black" points="792.5,-0.5 792.5,-19.5 895.5,-19.5 895.5,-0.5 792.5,-0.5"/>
<text text-anchor="middle" x="844" y="-7.5" font-family="Helvetica,sans-Serif" font-size="10.00">BoxWorld.winLevel</text>
</a>
</g>
</g>
<!-- Node5&#45;&gt;Node6 -->
<g id="edge5" class="edge"><title>Node5&#45;&gt;Node6</title>
<path fill="none" stroke="midnightblue" d="M751.087,-35.6817C769.772,-30.4607 791.218,-24.4684 808.692,-19.5859"/>
<polygon fill="midnightblue" stroke="midnightblue" points="750.008,-32.349 741.319,-38.411 751.892,-39.0908 750.008,-32.349"/>
</g>
<!-- Node6&#45;&gt;Node3 -->
<g id="edge19" class="edge"><title>Node6&#45;&gt;Node3</title>
<path fill="none" stroke="midnightblue" d="M782.355,-14.4282C745.652,-17.5382 697.98,-22.3397 656,-29 575.02,-41.8479 481.468,-63.8687 430.64,-76.4473"/>
<polygon fill="midnightblue" stroke="midnightblue" points="782.726,-17.9096 792.403,-13.5958 782.148,-10.9335 782.726,-17.9096"/>
</g>
<!-- Node7 -->
<g id="node7" class="node"><title>Node7</title>
<g id="a_node7"><a xlink:href="../../db/d97/class_box_world.html#a4079bed8937c9f621decfbe1309e31e2" target="_top" xlink:title="BoxWorld.checkAllCollisions">
<polygon fill="white" stroke="black" points="932,-0.5 932,-19.5 1078,-19.5 1078,-0.5 932,-0.5"/>
<text text-anchor="middle" x="1005" y="-7.5" font-family="Helvetica,sans-Serif" font-size="10.00">BoxWorld.checkAllCollisions</text>
</a>
</g>
</g>
<!-- Node6&#45;&gt;Node7 -->
<g id="edge6" class="edge"><title>Node6&#45;&gt;Node7</title>
<path fill="none" stroke="midnightblue" d="M905.879,-10C914.33,-10 923.079,-10 931.713,-10"/>
<polygon fill="midnightblue" stroke="midnightblue" points="905.746,-6.5001 895.746,-10 905.746,-13.5001 905.746,-6.5001"/>
</g>
<!-- Node7&#45;&gt;Node8 -->
<g id="edge7" class="edge"><title>Node7&#45;&gt;Node8</title>
<path fill="none" stroke="midnightblue" d="M1037.11,-23.6662C1071.78,-38.8978 1126.95,-63.1326 1157.27,-76.4527"/>
<polygon fill="midnightblue" stroke="midnightblue" points="1038.47,-20.4432 1027.91,-19.6255 1035.66,-26.852 1038.47,-20.4432"/>
</g>
<!-- Node9 -->
<g id="node9" class="node"><title>Node9</title>
<g id="a_node9"><a xlink:href="../../db/d97/class_box_world.html#ad20a4e43406c44f4bbf201d1d1028998" target="_top" xlink:title="BoxWorld.start">
<polygon fill="white" stroke="black" points="1282,-76.5 1282,-95.5 1368,-95.5 1368,-76.5 1282,-76.5"/>
<text text-anchor="middle" x="1325" y="-83.5" font-family="Helvetica,sans-Serif" font-size="10.00">BoxWorld.start</text>
</a>
</g>
</g>
<!-- Node8&#45;&gt;Node9 -->
<g id="edge8" class="edge"><title>Node8&#45;&gt;Node9</title>
<path fill="none" stroke="midnightblue" d="M1255.9,-86C1264.84,-86 1273.7,-86 1281.94,-86"/>
<polygon fill="midnightblue" stroke="midnightblue" points="1255.81,-82.5001 1245.81,-86 1255.81,-89.5001 1255.81,-82.5001"/>
</g>
<!-- Node9&#45;&gt;Node5 -->
<g id="edge9" class="edge"><title>Node9&#45;&gt;Node5</title>
<path fill="none" stroke="midnightblue" d="M1281.51,-73.9913C1270.07,-71.2144 1257.64,-68.6057 1246,-67 1066.52,-42.2401 850.419,-44.055 755.6,-46.4171"/>
<polygon fill="midnightblue" stroke="midnightblue" points="1280.71,-77.3994 1291.27,-76.4539 1282.43,-70.6124 1280.71,-77.3994"/>
</g>
<!-- Node9&#45;&gt;Node10 -->
<g id="edge10" class="edge"><title>Node9&#45;&gt;Node10</title>
<path fill="none" stroke="midnightblue" d="M1378.33,-86C1387.06,-86 1395.97,-86 1404.24,-86"/>
<polygon fill="midnightblue" stroke="midnightblue" points="1378.21,-82.5001 1368.21,-86 1378.21,-89.5001 1378.21,-82.5001"/>
</g>
<!-- Node11 -->
<g id="node11" class="node"><title>Node11</title>
<g id="a_node11"><a xlink:href="../../d2/db8/class_menu.html#a3c99ad09e9f2f975c1a0d0597642651a" target="_top" xlink:title="Menu.init">
<polygon fill="white" stroke="black" points="1518,-76.5 1518,-95.5 1578,-95.5 1578,-76.5 1518,-76.5"/>
<text text-anchor="middle" x="1548" y="-83.5" font-family="Helvetica,sans-Serif" font-size="10.00">Menu.init</text>
</a>
</g>
</g>
<!-- Node10&#45;&gt;Node11 -->
<g id="edge11" class="edge"><title>Node10&#45;&gt;Node11</title>
<path fill="none" stroke="midnightblue" d="M1492.03,-86C1500.89,-86 1509.87,-86 1517.95,-86"/>
<polygon fill="midnightblue" stroke="midnightblue" points="1491.77,-82.5001 1481.77,-86 1491.77,-89.5001 1491.77,-82.5001"/>
</g>
<!-- Node12 -->
<g id="node12" class="node"><title>Node12</title>
<g id="a_node12"><a xlink:href="../../d4/d2f/class_lose_screen.html#a34f2cc2c803500316c9b8d854854d758" target="_top" xlink:title="LoseScreen.init">
<polygon fill="white" stroke="black" points="1614,-38.5 1614,-57.5 1704,-57.5 1704,-38.5 1614,-38.5"/>
<text text-anchor="middle" x="1659" y="-45.5" font-family="Helvetica,sans-Serif" font-size="10.00">LoseScreen.init</text>
</a>
</g>
</g>
<!-- Node11&#45;&gt;Node12 -->
<g id="edge12" class="edge"><title>Node11&#45;&gt;Node12</title>
<path fill="none" stroke="midnightblue" d="M1586.21,-73.0282C1600.73,-67.9656 1617.08,-62.2659 1630.5,-57.5859"/>
<polygon fill="midnightblue" stroke="midnightblue" points="1584.8,-69.8141 1576.51,-76.411 1587.1,-76.4239 1584.8,-69.8141"/>
</g>
<!-- Node14 -->
<g id="node14" class="node"><title>Node14</title>
<g id="a_node14"><a xlink:href="../../d1/de1/class_end_screen.html#a1264ffb72b3a3032443f9c4087222aef" target="_top" xlink:title="EndScreen.init">
<polygon fill="white" stroke="black" points="1616,-76.5 1616,-95.5 1702,-95.5 1702,-76.5 1616,-76.5"/>
<text text-anchor="middle" x="1659" y="-83.5" font-family="Helvetica,sans-Serif" font-size="10.00">EndScreen.init</text>
</a>
</g>
</g>
<!-- Node11&#45;&gt;Node14 -->
<g id="edge15" class="edge"><title>Node11&#45;&gt;Node14</title>
<path fill="none" stroke="midnightblue" d="M1588.29,-86C1597.15,-86 1606.6,-86 1615.59,-86"/>
<polygon fill="midnightblue" stroke="midnightblue" points="1588.21,-82.5001 1578.21,-86 1588.21,-89.5001 1588.21,-82.5001"/>
</g>
<!-- Node17 -->
<g id="node17" class="node"><title>Node17</title>
<g id="a_node17"><a xlink:href="../../d0/d4b/class_main.html#a7595d13c514a02c35aca322dd91d2063" target="_top" xlink:title="Main.start">
<polygon fill="white" stroke="black" points="1626.5,-114.5 1626.5,-133.5 1691.5,-133.5 1691.5,-114.5 1626.5,-114.5"/>
<text text-anchor="middle" x="1659" y="-121.5" font-family="Helvetica,sans-Serif" font-size="10.00">Main.start</text>
</a>
</g>
</g>
<!-- Node11&#45;&gt;Node17 -->
<g id="edge18" class="edge"><title>Node11&#45;&gt;Node17</title>
<path fill="none" stroke="midnightblue" d="M1586.21,-98.9718C1600.73,-104.034 1617.08,-109.734 1630.5,-114.414"/>
<polygon fill="midnightblue" stroke="midnightblue" points="1587.1,-95.5761 1576.51,-95.589 1584.8,-102.186 1587.1,-95.5761"/>
</g>
<!-- Node13 -->
<g id="node13" class="node"><title>Node13</title>
<g id="a_node13"><a xlink:href="../../db/d97/class_box_world.html#a72bacb2a6757900d8835249929fcc838" target="_top" xlink:title="BoxWorld.loseGame">
<polygon fill="white" stroke="black" points="1747,-19.5 1747,-38.5 1859,-38.5 1859,-19.5 1747,-19.5"/>
<text text-anchor="middle" x="1803" y="-26.5" font-family="Helvetica,sans-Serif" font-size="10.00">BoxWorld.loseGame</text>
</a>
</g>
</g>
<!-- Node12&#45;&gt;Node13 -->
<g id="edge13" class="edge"><title>Node12&#45;&gt;Node13</title>
<path fill="none" stroke="midnightblue" d="M1714.2,-40.7473C1724.9,-39.3165 1736.13,-37.8135 1746.85,-36.3786"/>
<polygon fill="midnightblue" stroke="midnightblue" points="1713.6,-37.2971 1704.15,-42.0924 1714.53,-44.2352 1713.6,-37.2971"/>
</g>
<!-- Node13&#45;&gt;Node7 -->
<g id="edge14" class="edge"><title>Node13&#45;&gt;Node7</title>
<path fill="none" stroke="midnightblue" d="M1736.59,-21.3825C1685.56,-16.0963 1612.87,-10 1549,-10 1324,-10 1324,-10 1324,-10 1239.67,-10 1142.76,-10 1078.3,-10"/>
<polygon fill="midnightblue" stroke="midnightblue" points="1736.5,-24.8929 1746.81,-22.4613 1737.24,-17.9315 1736.5,-24.8929"/>
</g>
<!-- Node15 -->
<g id="node15" class="node"><title>Node15</title>
<g id="a_node15"><a xlink:href="../../d6/d4f/class_item_box_world.html#a2ed12a6b39993faedc05cc682204476d" target="_top" xlink:title="ItemBoxWorld.winLevel">
<polygon fill="white" stroke="black" points="1740.5,-76.5 1740.5,-95.5 1865.5,-95.5 1865.5,-76.5 1740.5,-76.5"/>
<text text-anchor="middle" x="1803" y="-83.5" font-family="Helvetica,sans-Serif" font-size="10.00">ItemBoxWorld.winLevel</text>
</a>
</g>
</g>
<!-- Node14&#45;&gt;Node15 -->
<g id="edge16" class="edge"><title>Node14&#45;&gt;Node15</title>
<path fill="none" stroke="midnightblue" d="M1712.34,-86C1721.5,-86 1731.11,-86 1740.5,-86"/>
<polygon fill="midnightblue" stroke="midnightblue" points="1712.22,-82.5001 1702.22,-86 1712.22,-89.5001 1712.22,-82.5001"/>
</g>
<!-- Node16 -->
<g id="node16" class="node"><title>Node16</title>
<g id="a_node16"><a xlink:href="../../d6/d4f/class_item_box_world.html#ae442d947b4dafc944336ee27628d2175" target="_top" xlink:title="ItemBoxWorld.handleKeyInput">
<polygon fill="white" stroke="black" points="1902,-76.5 1902,-95.5 2060,-95.5 2060,-76.5 1902,-76.5"/>
<text text-anchor="middle" x="1981" y="-83.5" font-family="Helvetica,sans-Serif" font-size="10.00">ItemBoxWorld.handleKeyInput</text>
</a>
</g>
</g>
<!-- Node15&#45;&gt;Node16 -->
<g id="edge17" class="edge"><title>Node15&#45;&gt;Node16</title>
<path fill="none" stroke="midnightblue" d="M1875.57,-86C1884.2,-86 1893.05,-86 1901.77,-86"/>
<polygon fill="midnightblue" stroke="midnightblue" points="1875.56,-82.5001 1865.56,-86 1875.56,-89.5001 1875.56,-82.5001"/>
</g>
</g>
</svg>
