<?xml version="1.0" encoding="UTF-8" standalone="no"?>
<!DOCTYPE svg PUBLIC "-//W3C//DTD SVG 1.1//EN"
 "http://www.w3.org/Graphics/SVG/1.1/DTD/svg11.dtd">
<!-- Generated by graphviz version 2.36.0 (20140111.2315)
 -->
<!-- Title: StickyBox.getXDirection Pages: 1 -->
<svg width="1932pt" height="246pt"
 viewBox="0.00 0.00 1932.00 246.00" xmlns="http://www.w3.org/2000/svg" xmlns:xlink="http://www.w3.org/1999/xlink">
<g id="graph0" class="graph" transform="scale(1 1) rotate(0) translate(4 242)">
<title>StickyBox.getXDirection</title>
<polygon fill="white" stroke="none" points="-4,4 -4,-242 1928,-242 1928,4 -4,4"/>
<!-- Node1 -->
<g id="node1" class="node"><title>Node1</title>
<polygon fill="#bfbfbf" stroke="black" points="0.5,-95.5 0.5,-114.5 131.5,-114.5 131.5,-95.5 0.5,-95.5"/>
<text text-anchor="middle" x="66" y="-102.5" font-family="Helvetica,sans-Serif" font-size="10.00">StickyBox.getXDirection</text>
</g>
<!-- Node2 -->
<g id="node2" class="node"><title>Node2</title>
<g id="a_node2"><a xlink:href="../../db/d97/class_box_world.html#adc4c9d78ffde3d052c4c92047eb98e55" target="_top" xlink:title="BoxWorld.allowMovement">
<polygon fill="white" stroke="black" points="168.5,-95.5 168.5,-114.5 305.5,-114.5 305.5,-95.5 168.5,-95.5"/>
<text text-anchor="middle" x="237" y="-102.5" font-family="Helvetica,sans-Serif" font-size="10.00">BoxWorld.allowMovement</text>
</a>
</g>
</g>
<!-- Node1&#45;&gt;Node2 -->
<g id="edge1" class="edge"><title>Node1&#45;&gt;Node2</title>
<path fill="none" stroke="midnightblue" d="M142.018,-105C150.746,-105 159.612,-105 168.235,-105"/>
<polygon fill="midnightblue" stroke="midnightblue" points="141.857,-101.5 131.856,-105 141.856,-108.5 141.857,-101.5"/>
</g>
<!-- Node8 -->
<g id="node8" class="node"><title>Node8</title>
<g id="a_node8"><a xlink:href="../../db/d97/class_box_world.html#a6794c083c2a0263c2f585f4ae4b7e39c" target="_top" xlink:title="BoxWorld.updateSprites">
<polygon fill="white" stroke="black" points="1164.5,-152.5 1164.5,-171.5 1295.5,-171.5 1295.5,-152.5 1164.5,-152.5"/>
<text text-anchor="middle" x="1230" y="-159.5" font-family="Helvetica,sans-Serif" font-size="10.00">BoxWorld.updateSprites</text>
</a>
</g>
</g>
<!-- Node1&#45;&gt;Node8 -->
<g id="edge24" class="edge"><title>Node1&#45;&gt;Node8</title>
<path fill="none" stroke="midnightblue" d="M89.9456,-120.103C145.172,-154.948 290.87,-238 425,-238 425,-238 425,-238 895,-238 1013.34,-238 1149.52,-192.076 1204.3,-171.625"/>
<polygon fill="midnightblue" stroke="midnightblue" points="91.5989,-117.006 81.289,-114.565 87.8265,-122.902 91.5989,-117.006"/>
</g>
<!-- Node18 -->
<g id="node18" class="node"><title>Node18</title>
<g id="a_node18"><a xlink:href="../../db/d97/class_box_world.html#a55add11037cd6dc48556f2f42a9e11be" target="_top" xlink:title="BoxWorld.checkCollide">
<polygon fill="white" stroke="black" points="176,-38.5 176,-57.5 298,-57.5 298,-38.5 176,-38.5"/>
<text text-anchor="middle" x="237" y="-45.5" font-family="Helvetica,sans-Serif" font-size="10.00">BoxWorld.checkCollide</text>
</a>
</g>
</g>
<!-- Node1&#45;&gt;Node18 -->
<g id="edge21" class="edge"><title>Node1&#45;&gt;Node18</title>
<path fill="none" stroke="midnightblue" d="M104.927,-92.2081C136.052,-81.7102 179.438,-67.0772 207.621,-57.5716"/>
<polygon fill="midnightblue" stroke="midnightblue" points="103.644,-88.9471 95.2868,-95.4595 105.881,-95.58 103.644,-88.9471"/>
</g>
<!-- Node3 -->
<g id="node3" class="node"><title>Node3</title>
<g id="a_node3"><a xlink:href="../../db/d97/class_box_world.html#aa7e2049d7be23e15fd2ec7fa2922ed79" target="_top" xlink:title="BoxWorld.handleKeyInput">
<polygon fill="white" stroke="black" points="358,-95.5 358,-114.5 494,-114.5 494,-95.5 358,-95.5"/>
<text text-anchor="middle" x="426" y="-102.5" font-family="Helvetica,sans-Serif" font-size="10.00">BoxWorld.handleKeyInput</text>
</a>
</g>
</g>
<!-- Node2&#45;&gt;Node3 -->
<g id="edge2" class="edge"><title>Node2&#45;&gt;Node3</title>
<path fill="none" stroke="midnightblue" d="M315.628,-105C329.666,-105 344.196,-105 357.901,-105"/>
<polygon fill="midnightblue" stroke="midnightblue" points="315.511,-101.5 305.511,-105 315.511,-108.5 315.511,-101.5"/>
</g>
<!-- Node4 -->
<g id="node4" class="node"><title>Node4</title>
<g id="a_node4"><a xlink:href="../../db/d97/class_box_world.html#a726e747e023543658d7a345cc6466ccb" target="_top" xlink:title="BoxWorld.createScene">
<polygon fill="white" stroke="black" points="546,-114.5 546,-133.5 670,-133.5 670,-114.5 546,-114.5"/>
<text text-anchor="middle" x="608" y="-121.5" font-family="Helvetica,sans-Serif" font-size="10.00">BoxWorld.createScene</text>
</a>
</g>
</g>
<!-- Node3&#45;&gt;Node4 -->
<g id="edge3" class="edge"><title>Node3&#45;&gt;Node4</title>
<path fill="none" stroke="midnightblue" d="M504.096,-113.138C518.056,-114.611 532.439,-116.13 545.864,-117.547"/>
<polygon fill="midnightblue" stroke="midnightblue" points="504.338,-109.644 494.025,-112.075 503.603,-116.605 504.338,-109.644"/>
</g>
<!-- Node5 -->
<g id="node5" class="node"><title>Node5</title>
<g id="a_node5"><a xlink:href="../../d6/d4f/class_item_box_world.html#aa559fc2680327b41fb376e2eda8e82e3" target="_top" xlink:title="ItemBoxWorld.init">
<polygon fill="white" stroke="black" points="706.5,-114.5 706.5,-133.5 805.5,-133.5 805.5,-114.5 706.5,-114.5"/>
<text text-anchor="middle" x="756" y="-121.5" font-family="Helvetica,sans-Serif" font-size="10.00">ItemBoxWorld.init</text>
</a>
</g>
</g>
<!-- Node4&#45;&gt;Node5 -->
<g id="edge4" class="edge"><title>Node4&#45;&gt;Node5</title>
<path fill="none" stroke="midnightblue" d="M680.3,-124C689.052,-124 697.836,-124 706.149,-124"/>
<polygon fill="midnightblue" stroke="midnightblue" points="680.071,-120.5 670.071,-124 680.071,-127.5 680.071,-120.5"/>
</g>
<!-- Node10 -->
<g id="node10" class="node"><title>Node10</title>
<g id="a_node10"><a xlink:href="../../db/d97/class_box_world.html#a55bf92d3f466bfaade0f6d199d8c9bd9" target="_top" xlink:title="BoxWorld.init">
<polygon fill="white" stroke="black" points="1454.5,-152.5 1454.5,-171.5 1531.5,-171.5 1531.5,-152.5 1454.5,-152.5"/>
<text text-anchor="middle" x="1493" y="-159.5" font-family="Helvetica,sans-Serif" font-size="10.00">BoxWorld.init</text>
</a>
</g>
</g>
<!-- Node4&#45;&gt;Node10 -->
<g id="edge20" class="edge"><title>Node4&#45;&gt;Node10</title>
<path fill="none" stroke="midnightblue" d="M639.331,-137.741C690.514,-159.637 797.778,-200 893,-200 893,-200 893,-200 1231,-200 1314.54,-200 1335.76,-195.651 1418,-181 1431.58,-178.581 1446.34,-174.991 1459.08,-171.582"/>
<polygon fill="midnightblue" stroke="midnightblue" points="640.429,-134.402 629.862,-133.625 637.638,-140.822 640.429,-134.402"/>
</g>
<!-- Node6 -->
<g id="node6" class="node"><title>Node6</title>
<g id="a_node6"><a xlink:href="../../db/d97/class_box_world.html#aad670712776afe126e51791097027e05" target="_top" xlink:title="BoxWorld.winLevel">
<polygon fill="white" stroke="black" points="842.5,-76.5 842.5,-95.5 945.5,-95.5 945.5,-76.5 842.5,-76.5"/>
<text text-anchor="middle" x="894" y="-83.5" font-family="Helvetica,sans-Serif" font-size="10.00">BoxWorld.winLevel</text>
</a>
</g>
</g>
<!-- Node5&#45;&gt;Node6 -->
<g id="edge5" class="edge"><title>Node5&#45;&gt;Node6</title>
<path fill="none" stroke="midnightblue" d="M801.087,-111.682C819.772,-106.461 841.218,-100.468 858.692,-95.5859"/>
<polygon fill="midnightblue" stroke="midnightblue" points="800.008,-108.349 791.319,-114.411 801.892,-115.091 800.008,-108.349"/>
</g>
<!-- Node6&#45;&gt;Node3 -->
<g id="edge19" class="edge"><title>Node6&#45;&gt;Node3</title>
<path fill="none" stroke="midnightblue" d="M832.252,-88.4768C745.051,-92.0323 584.939,-98.5604 494.263,-102.258"/>
<polygon fill="midnightblue" stroke="midnightblue" points="832.409,-91.9734 842.258,-88.0689 832.124,-84.9793 832.409,-91.9734"/>
</g>
<!-- Node7 -->
<g id="node7" class="node"><title>Node7</title>
<g id="a_node7"><a xlink:href="../../db/d97/class_box_world.html#a4079bed8937c9f621decfbe1309e31e2" target="_top" xlink:title="BoxWorld.checkAllCollisions">
<polygon fill="white" stroke="black" points="982,-76.5 982,-95.5 1128,-95.5 1128,-76.5 982,-76.5"/>
<text text-anchor="middle" x="1055" y="-83.5" font-family="Helvetica,sans-Serif" font-size="10.00">BoxWorld.checkAllCollisions</text>
</a>
</g>
</g>
<!-- Node6&#45;&gt;Node7 -->
<g id="edge6" class="edge"><title>Node6&#45;&gt;Node7</title>
<path fill="none" stroke="midnightblue" d="M955.879,-86C964.33,-86 973.079,-86 981.713,-86"/>
<polygon fill="midnightblue" stroke="midnightblue" points="955.746,-82.5001 945.746,-86 955.746,-89.5001 955.746,-82.5001"/>
</g>
<!-- Node7&#45;&gt;Node8 -->
<g id="edge7" class="edge"><title>Node7&#45;&gt;Node8</title>
<path fill="none" stroke="midnightblue" d="M1087.11,-99.6662C1121.78,-114.898 1176.95,-139.133 1207.27,-152.453"/>
<polygon fill="midnightblue" stroke="midnightblue" points="1088.47,-96.4432 1077.91,-95.6255 1085.66,-102.852 1088.47,-96.4432"/>
</g>
<!-- Node9 -->
<g id="node9" class="node"><title>Node9</title>
<g id="a_node9"><a xlink:href="../../db/d97/class_box_world.html#ad20a4e43406c44f4bbf201d1d1028998" target="_top" xlink:title="BoxWorld.start">
<polygon fill="white" stroke="black" points="1332,-152.5 1332,-171.5 1418,-171.5 1418,-152.5 1332,-152.5"/>
<text text-anchor="middle" x="1375" y="-159.5" font-family="Helvetica,sans-Serif" font-size="10.00">BoxWorld.start</text>
</a>
</g>
</g>
<!-- Node8&#45;&gt;Node9 -->
<g id="edge8" class="edge"><title>Node8&#45;&gt;Node9</title>
<path fill="none" stroke="midnightblue" d="M1305.9,-162C1314.84,-162 1323.7,-162 1331.94,-162"/>
<polygon fill="midnightblue" stroke="midnightblue" points="1305.81,-158.5 1295.81,-162 1305.81,-165.5 1305.81,-158.5"/>
</g>
<!-- Node9&#45;&gt;Node5 -->
<g id="edge9" class="edge"><title>Node9&#45;&gt;Node5</title>
<path fill="none" stroke="midnightblue" d="M1331.51,-149.991C1320.07,-147.214 1307.64,-144.606 1296,-143 1116.52,-118.24 900.419,-120.055 805.6,-122.417"/>
<polygon fill="midnightblue" stroke="midnightblue" points="1330.71,-153.399 1341.27,-152.454 1332.43,-146.612 1330.71,-153.399"/>
</g>
<!-- Node9&#45;&gt;Node10 -->
<g id="edge10" class="edge"><title>Node9&#45;&gt;Node10</title>
<path fill="none" stroke="midnightblue" d="M1428.33,-162C1437.06,-162 1445.97,-162 1454.24,-162"/>
<polygon fill="midnightblue" stroke="midnightblue" points="1428.21,-158.5 1418.21,-162 1428.21,-165.5 1428.21,-158.5"/>
</g>
<!-- Node11 -->
<g id="node11" class="node"><title>Node11</title>
<g id="a_node11"><a xlink:href="../../d2/db8/class_menu.html#a3c99ad09e9f2f975c1a0d0597642651a" target="_top" xlink:title="Menu.init">
<polygon fill="white" stroke="black" points="1568,-152.5 1568,-171.5 1628,-171.5 1628,-152.5 1568,-152.5"/>
<text text-anchor="middle" x="1598" y="-159.5" font-family="Helvetica,sans-Serif" font-size="10.00">Menu.init</text>
</a>
</g>
</g>
<!-- Node10&#45;&gt;Node11 -->
<g id="edge11" class="edge"><title>Node10&#45;&gt;Node11</title>
<path fill="none" stroke="midnightblue" d="M1542.03,-162C1550.89,-162 1559.87,-162 1567.95,-162"/>
<polygon fill="midnightblue" stroke="midnightblue" points="1541.77,-158.5 1531.77,-162 1541.77,-165.5 1541.77,-158.5"/>
</g>
<!-- Node12 -->
<g id="node12" class="node"><title>Node12</title>
<g id="a_node12"><a xlink:href="../../d4/d2f/class_lose_screen.html#a34f2cc2c803500316c9b8d854854d758" target="_top" xlink:title="LoseScreen.init">
<polygon fill="white" stroke="black" points="1664,-114.5 1664,-133.5 1754,-133.5 1754,-114.5 1664,-114.5"/>
<text text-anchor="middle" x="1709" y="-121.5" font-family="Helvetica,sans-Serif" font-size="10.00">LoseScreen.init</text>
</a>
</g>
</g>
<!-- Node11&#45;&gt;Node12 -->
<g id="edge12" class="edge"><title>Node11&#45;&gt;Node12</title>
<path fill="none" stroke="midnightblue" d="M1636.21,-149.028C1650.73,-143.966 1667.08,-138.266 1680.5,-133.586"/>
<polygon fill="midnightblue" stroke="midnightblue" points="1634.8,-145.814 1626.51,-152.411 1637.1,-152.424 1634.8,-145.814"/>
</g>
<!-- Node15 -->
<g id="node15" class="node"><title>Node15</title>
<g id="a_node15"><a xlink:href="../../d1/de1/class_end_screen.html#a1264ffb72b3a3032443f9c4087222aef" target="_top" xlink:title="EndScreen.init">
<polygon fill="white" stroke="black" points="1666,-152.5 1666,-171.5 1752,-171.5 1752,-152.5 1666,-152.5"/>
<text text-anchor="middle" x="1709" y="-159.5" font-family="Helvetica,sans-Serif" font-size="10.00">EndScreen.init</text>
</a>
</g>
</g>
<!-- Node11&#45;&gt;Node15 -->
<g id="edge16" class="edge"><title>Node11&#45;&gt;Node15</title>
<path fill="none" stroke="midnightblue" d="M1638.29,-162C1647.15,-162 1656.6,-162 1665.59,-162"/>
<polygon fill="midnightblue" stroke="midnightblue" points="1638.21,-158.5 1628.21,-162 1638.21,-165.5 1638.21,-158.5"/>
</g>
<!-- Node17 -->
<g id="node17" class="node"><title>Node17</title>
<g id="a_node17"><a xlink:href="../../d0/d4b/class_main.html#a7595d13c514a02c35aca322dd91d2063" target="_top" xlink:title="Main.start">
<polygon fill="white" stroke="black" points="1676.5,-190.5 1676.5,-209.5 1741.5,-209.5 1741.5,-190.5 1676.5,-190.5"/>
<text text-anchor="middle" x="1709" y="-197.5" font-family="Helvetica,sans-Serif" font-size="10.00">Main.start</text>
</a>
</g>
</g>
<!-- Node11&#45;&gt;Node17 -->
<g id="edge18" class="edge"><title>Node11&#45;&gt;Node17</title>
<path fill="none" stroke="midnightblue" d="M1636.21,-174.972C1650.73,-180.034 1667.08,-185.734 1680.5,-190.414"/>
<polygon fill="midnightblue" stroke="midnightblue" points="1637.1,-171.576 1626.51,-171.589 1634.8,-178.186 1637.1,-171.576"/>
</g>
<!-- Node13 -->
<g id="node13" class="node"><title>Node13</title>
<g id="a_node13"><a xlink:href="../../d6/d4f/class_item_box_world.html#a295cf7212ad54fa599e2a2d85ee0523d" target="_top" xlink:title="ItemBoxWorld.loseGame">
<polygon fill="white" stroke="black" points="1790,-114.5 1790,-133.5 1924,-133.5 1924,-114.5 1790,-114.5"/>
<text text-anchor="middle" x="1857" y="-121.5" font-family="Helvetica,sans-Serif" font-size="10.00">ItemBoxWorld.loseGame</text>
</a>
</g>
</g>
<!-- Node12&#45;&gt;Node13 -->
<g id="edge13" class="edge"><title>Node12&#45;&gt;Node13</title>
<path fill="none" stroke="midnightblue" d="M1764.47,-124C1772.75,-124 1781.37,-124 1789.86,-124"/>
<polygon fill="midnightblue" stroke="midnightblue" points="1764.2,-120.5 1754.2,-124 1764.2,-127.5 1764.2,-120.5"/>
</g>
<!-- Node14 -->
<g id="node14" class="node"><title>Node14</title>
<g id="a_node14"><a xlink:href="../../db/d97/class_box_world.html#a72bacb2a6757900d8835249929fcc838" target="_top" xlink:title="BoxWorld.loseGame">
<polygon fill="white" stroke="black" points="1801,-76.5 1801,-95.5 1913,-95.5 1913,-76.5 1801,-76.5"/>
<text text-anchor="middle" x="1857" y="-83.5" font-family="Helvetica,sans-Serif" font-size="10.00">BoxWorld.loseGame</text>
</a>
</g>
</g>
<!-- Node12&#45;&gt;Node14 -->
<g id="edge14" class="edge"><title>Node12&#45;&gt;Node14</title>
<path fill="none" stroke="midnightblue" d="M1756.54,-111.888C1776.87,-106.596 1800.37,-100.479 1819.42,-95.5201"/>
<polygon fill="midnightblue" stroke="midnightblue" points="1755.64,-108.505 1746.84,-114.411 1757.4,-115.279 1755.64,-108.505"/>
</g>
<!-- Node14&#45;&gt;Node7 -->
<g id="edge15" class="edge"><title>Node14&#45;&gt;Node7</title>
<path fill="none" stroke="midnightblue" d="M1790.78,-86C1738.83,-86 1664.25,-86 1599,-86 1374,-86 1374,-86 1374,-86 1289.67,-86 1192.76,-86 1128.3,-86"/>
<polygon fill="midnightblue" stroke="midnightblue" points="1790.85,-89.5001 1800.85,-86 1790.85,-82.5001 1790.85,-89.5001"/>
</g>
<!-- Node16 -->
<g id="node16" class="node"><title>Node16</title>
<g id="a_node16"><a xlink:href="../../d6/d4f/class_item_box_world.html#a2ed12a6b39993faedc05cc682204476d" target="_top" xlink:title="ItemBoxWorld.winLevel">
<polygon fill="white" stroke="black" points="1794.5,-152.5 1794.5,-171.5 1919.5,-171.5 1919.5,-152.5 1794.5,-152.5"/>
<text text-anchor="middle" x="1857" y="-159.5" font-family="Helvetica,sans-Serif" font-size="10.00">ItemBoxWorld.winLevel</text>
</a>
</g>
</g>
<!-- Node15&#45;&gt;Node16 -->
<g id="edge17" class="edge"><title>Node15&#45;&gt;Node16</title>
<path fill="none" stroke="midnightblue" d="M1762.35,-162C1772.71,-162 1783.68,-162 1794.31,-162"/>
<polygon fill="midnightblue" stroke="midnightblue" points="1762.23,-158.5 1752.23,-162 1762.23,-165.5 1762.23,-158.5"/>
</g>
<!-- Node18&#45;&gt;Node7 -->
<g id="edge23" class="edge"><title>Node18&#45;&gt;Node7</title>
<path fill="none" stroke="midnightblue" d="M308.241,-48C382.48,-48 502.986,-48 607,-48 607,-48 607,-48 757,-48 846.54,-48 950.047,-65.2037 1008.19,-76.46"/>
<polygon fill="midnightblue" stroke="midnightblue" points="308.079,-44.5001 298.079,-48 308.079,-51.5001 308.079,-44.5001"/>
</g>
<!-- Node19 -->
<g id="node19" class="node"><title>Node19</title>
<g id="a_node19"><a xlink:href="../../d6/d4f/class_item_box_world.html#ad8a9b79d31264f523f05ed43aa490f0f" target="_top" xlink:title="ItemBoxWorld.checkAllCollisions">
<polygon fill="white" stroke="black" points="342,-0.5 342,-19.5 510,-19.5 510,-0.5 342,-0.5"/>
<text text-anchor="middle" x="426" y="-7.5" font-family="Helvetica,sans-Serif" font-size="10.00">ItemBoxWorld.checkAllCollisions</text>
</a>
</g>
</g>
<!-- Node18&#45;&gt;Node19 -->
<g id="edge22" class="edge"><title>Node18&#45;&gt;Node19</title>
<path fill="none" stroke="midnightblue" d="M295.131,-36.3905C321.727,-30.986 352.973,-24.6365 378.151,-19.5201"/>
<polygon fill="midnightblue" stroke="midnightblue" points="294.291,-32.9896 285.188,-38.411 295.685,-39.8494 294.291,-32.9896"/>
</g>
</g>
</svg>
