<?xml version="1.0" encoding="UTF-8" standalone="no"?>
<!DOCTYPE svg PUBLIC "-//W3C//DTD SVG 1.1//EN"
 "http://www.w3.org/Graphics/SVG/1.1/DTD/svg11.dtd">
<!-- Generated by graphviz version 2.36.0 (20140111.2315)
 -->
<!-- Title: StickyBox.getXPrev Pages: 1 -->
<!--zoomable 142 -->
<svg id="main" version="1.1" xmlns="http://www.w3.org/2000/svg" xmlns:xlink="http://www.w3.org/1999/xlink" xml:space="preserve" onload="init(evt)">
<style type="text/css"><![CDATA[
.edge:hover path { stroke: red; }
.edge:hover polygon { stroke: red; fill: red; }
]]></style>
<script type="text/javascript"><![CDATA[
var edges = document.getElementsByTagName('g');
if (edges && edges.length) {
  for (var i=0;i<edges.length;i++) {
    if (edges[i].id.substr(0,4)=='edge') {
      edges[i].setAttribute('class','edge');
    }
  }
}
]]></script>
        <defs>
                <circle id="rim" cx="0" cy="0" r="7"/>
                <circle id="rim2" cx="0" cy="0" r="3.5"/>
                <g id="zoomPlus">
                        <use xlink:href="#rim" fill="#404040">
                                <set attributeName="fill" to="#808080" begin="zoomplus.mouseover" end="zoomplus.mouseout"/>
                        </use>
                        <path d="M-4,0h8M0,-4v8" fill="none" stroke="white" stroke-width="1.5" pointer-events="none"/>
                </g>
                <g id="zoomMin">
                        <use xlink:href="#rim" fill="#404040">
                                <set attributeName="fill" to="#808080" begin="zoomminus.mouseover" end="zoomminus.mouseout"/>
                        </use>
                        <path d="M-4,0h8" fill="none" stroke="white" stroke-width="1.5" pointer-events="none"/>
                </g>
                <g id="dirArrow">
                        <path fill="none" stroke="white" stroke-width="1.5" d="M0,-3.0v7 M-2.5,-0.5L0,-3.0L2.5,-0.5"/>
                </g>
               <g id="resetDef">
                       <use xlink:href="#rim2" fill="#404040">
                               <set attributeName="fill" to="#808080" begin="reset.mouseover" end="reset.mouseout"/>
                       </use>
               </g>
        </defs>

<script type="text/javascript">
var viewWidth = 1878;
var viewHeight = 142;
var sectionId = 'dynsection-3';
</script>
<script xlink:href="../../svgpan.js"/>
<svg id="graph" class="graph">
<g id="viewport">
<title>StickyBox.getXPrev</title>
<polygon fill="white" stroke="none" points="-4,4 -4,-138 1874,-138 1874,4 -4,4"/>
<!-- Node1 -->
<g id="node1" class="node"><title>Node1</title>
<polygon fill="#bfbfbf" stroke="black" points="0.5,-57.5 0.5,-76.5 109.5,-76.5 109.5,-57.5 0.5,-57.5"/>
<text text-anchor="middle" x="55" y="-64.5" font-family="Helvetica,sans-Serif" font-size="10.00">StickyBox.getXPrev</text>
</g>
<!-- Node2 -->
<g id="node2" class="node"><title>Node2</title>
<g id="a_node2"><a xlink:href="../../db/d97/class_box_world.html#adc4c9d78ffde3d052c4c92047eb98e55" target="_top" xlink:title="BoxWorld.allowMovement">
<polygon fill="white" stroke="black" points="146.5,-57.5 146.5,-76.5 283.5,-76.5 283.5,-57.5 146.5,-57.5"/>
<text text-anchor="middle" x="215" y="-64.5" font-family="Helvetica,sans-Serif" font-size="10.00">BoxWorld.allowMovement</text>
</a>
</g>
</g>
<!-- Node1&#45;&gt;Node2 -->
<g id="edge1" class="edge"><title>Node1&#45;&gt;Node2</title>
<path fill="none" stroke="midnightblue" d="M119.982,-67C128.663,-67 137.596,-67 146.339,-67"/>
<polygon fill="midnightblue" stroke="midnightblue" points="119.933,-63.5001 109.933,-67 119.933,-70.5001 119.933,-63.5001"/>
</g>
<!-- Node3 -->
<g id="node3" class="node"><title>Node3</title>
<g id="a_node3"><a xlink:href="../../db/d97/class_box_world.html#aa7e2049d7be23e15fd2ec7fa2922ed79" target="_top" xlink:title="BoxWorld.handleKeyInput">
<polygon fill="white" stroke="black" points="320,-57.5 320,-76.5 456,-76.5 456,-57.5 320,-57.5"/>
<text text-anchor="middle" x="388" y="-64.5" font-family="Helvetica,sans-Serif" font-size="10.00">BoxWorld.handleKeyInput</text>
</a>
</g>
</g>
<!-- Node2&#45;&gt;Node3 -->
<g id="edge2" class="edge"><title>Node2&#45;&gt;Node3</title>
<path fill="none" stroke="midnightblue" d="M293.76,-67C302.49,-67 311.328,-67 319.907,-67"/>
<polygon fill="midnightblue" stroke="midnightblue" points="293.584,-63.5001 283.584,-67 293.584,-70.5001 293.584,-63.5001"/>
</g>
<!-- Node4 -->
<g id="node4" class="node"><title>Node4</title>
<g id="a_node4"><a xlink:href="../../db/d97/class_box_world.html#a726e747e023543658d7a345cc6466ccb" target="_top" xlink:title="BoxWorld.createScene">
<polygon fill="white" stroke="black" points="492,-76.5 492,-95.5 616,-95.5 616,-76.5 492,-76.5"/>
<text text-anchor="middle" x="554" y="-83.5" font-family="Helvetica,sans-Serif" font-size="10.00">BoxWorld.createScene</text>
</a>
</g>
</g>
<!-- Node3&#45;&gt;Node4 -->
<g id="edge3" class="edge"><title>Node3&#45;&gt;Node4</title>
<path fill="none" stroke="midnightblue" d="M466.258,-75.9506C474.892,-76.9509 483.596,-77.9592 491.985,-78.9312"/>
<polygon fill="midnightblue" stroke="midnightblue" points="466.515,-72.457 456.178,-74.7828 465.709,-79.4105 466.515,-72.457"/>
</g>
<!-- Node5 -->
<g id="node5" class="node"><title>Node5</title>
<g id="a_node5"><a xlink:href="../../d6/d4f/class_item_box_world.html#aa559fc2680327b41fb376e2eda8e82e3" target="_top" xlink:title="ItemBoxWorld.init">
<polygon fill="white" stroke="black" points="652.5,-76.5 652.5,-95.5 751.5,-95.5 751.5,-76.5 652.5,-76.5"/>
<text text-anchor="middle" x="702" y="-83.5" font-family="Helvetica,sans-Serif" font-size="10.00">ItemBoxWorld.init</text>
</a>
</g>
</g>
<!-- Node4&#45;&gt;Node5 -->
<g id="edge4" class="edge"><title>Node4&#45;&gt;Node5</title>
<path fill="none" stroke="midnightblue" d="M626.3,-86C635.052,-86 643.836,-86 652.149,-86"/>
<polygon fill="midnightblue" stroke="midnightblue" points="626.071,-82.5001 616.071,-86 626.071,-89.5001 626.071,-82.5001"/>
</g>
<!-- Node10 -->
<g id="node10" class="node"><title>Node10</title>
<g id="a_node10"><a xlink:href="../../db/d97/class_box_world.html#a55bf92d3f466bfaade0f6d199d8c9bd9" target="_top" xlink:title="BoxWorld.init">
<polygon fill="white" stroke="black" points="1400.5,-76.5 1400.5,-95.5 1477.5,-95.5 1477.5,-76.5 1400.5,-76.5"/>
<text text-anchor="middle" x="1439" y="-83.5" font-family="Helvetica,sans-Serif" font-size="10.00">BoxWorld.init</text>
</a>
</g>
</g>
<!-- Node4&#45;&gt;Node10 -->
<g id="edge20" class="edge"><title>Node4&#45;&gt;Node10</title>
<path fill="none" stroke="midnightblue" d="M608.885,-97.5544C665.797,-108.734 758.285,-124 839,-124 839,-124 839,-124 1177,-124 1260.54,-124 1281.76,-119.651 1364,-105 1377.58,-102.581 1392.34,-98.9914 1405.08,-95.5819"/>
<polygon fill="midnightblue" stroke="midnightblue" points="609.52,-94.1122 599.029,-95.589 608.151,-100.977 609.52,-94.1122"/>
</g>
<!-- Node6 -->
<g id="node6" class="node"><title>Node6</title>
<g id="a_node6"><a xlink:href="../../db/d97/class_box_world.html#aad670712776afe126e51791097027e05" target="_top" xlink:title="BoxWorld.winLevel">
<polygon fill="white" stroke="black" points="788.5,-38.5 788.5,-57.5 891.5,-57.5 891.5,-38.5 788.5,-38.5"/>
<text text-anchor="middle" x="840" y="-45.5" font-family="Helvetica,sans-Serif" font-size="10.00">BoxWorld.winLevel</text>
</a>
</g>
</g>
<!-- Node5&#45;&gt;Node6 -->
<g id="edge5" class="edge"><title>Node5&#45;&gt;Node6</title>
<path fill="none" stroke="midnightblue" d="M747.087,-73.6817C765.772,-68.4607 787.218,-62.4684 804.692,-57.5859"/>
<polygon fill="midnightblue" stroke="midnightblue" points="746.008,-70.349 737.319,-76.411 747.892,-77.0908 746.008,-70.349"/>
</g>
<!-- Node6&#45;&gt;Node3 -->
<g id="edge19" class="edge"><title>Node6&#45;&gt;Node3</title>
<path fill="none" stroke="midnightblue" d="M778.155,-50.569C694.262,-54.1111 543.574,-60.4736 456.37,-64.1555"/>
<polygon fill="midnightblue" stroke="midnightblue" points="778.451,-54.0597 788.294,-50.1409 778.155,-47.066 778.451,-54.0597"/>
</g>
<!-- Node7 -->
<g id="node7" class="node"><title>Node7</title>
<g id="a_node7"><a xlink:href="../../db/d97/class_box_world.html#a4079bed8937c9f621decfbe1309e31e2" target="_top" xlink:title="BoxWorld.checkAllCollisions">
<polygon fill="white" stroke="black" points="928,-38.5 928,-57.5 1074,-57.5 1074,-38.5 928,-38.5"/>
<text text-anchor="middle" x="1001" y="-45.5" font-family="Helvetica,sans-Serif" font-size="10.00">BoxWorld.checkAllCollisions</text>
</a>
</g>
</g>
<!-- Node6&#45;&gt;Node7 -->
<g id="edge6" class="edge"><title>Node6&#45;&gt;Node7</title>
<path fill="none" stroke="midnightblue" d="M901.879,-48C910.33,-48 919.079,-48 927.713,-48"/>
<polygon fill="midnightblue" stroke="midnightblue" points="901.746,-44.5001 891.746,-48 901.746,-51.5001 901.746,-44.5001"/>
</g>
<!-- Node8 -->
<g id="node8" class="node"><title>Node8</title>
<g id="a_node8"><a xlink:href="../../db/d97/class_box_world.html#a6794c083c2a0263c2f585f4ae4b7e39c" target="_top" xlink:title="BoxWorld.updateSprites">
<polygon fill="white" stroke="black" points="1110.5,-38.5 1110.5,-57.5 1241.5,-57.5 1241.5,-38.5 1110.5,-38.5"/>
<text text-anchor="middle" x="1176" y="-45.5" font-family="Helvetica,sans-Serif" font-size="10.00">BoxWorld.updateSprites</text>
</a>
</g>
</g>
<!-- Node7&#45;&gt;Node8 -->
<g id="edge7" class="edge"><title>Node7&#45;&gt;Node8</title>
<path fill="none" stroke="midnightblue" d="M1084.35,-48C1093.12,-48 1101.94,-48 1110.45,-48"/>
<polygon fill="midnightblue" stroke="midnightblue" points="1084.11,-44.5001 1074.11,-48 1084.11,-51.5001 1084.11,-44.5001"/>
</g>
<!-- Node9 -->
<g id="node9" class="node"><title>Node9</title>
<g id="a_node9"><a xlink:href="../../db/d97/class_box_world.html#ad20a4e43406c44f4bbf201d1d1028998" target="_top" xlink:title="BoxWorld.start">
<polygon fill="white" stroke="black" points="1278,-76.5 1278,-95.5 1364,-95.5 1364,-76.5 1278,-76.5"/>
<text text-anchor="middle" x="1321" y="-83.5" font-family="Helvetica,sans-Serif" font-size="10.00">BoxWorld.start</text>
</a>
</g>
</g>
<!-- Node8&#45;&gt;Node9 -->
<g id="edge8" class="edge"><title>Node8&#45;&gt;Node9</title>
<path fill="none" stroke="midnightblue" d="M1222.81,-60.1742C1242.59,-65.4287 1265.38,-71.4866 1283.93,-76.4141"/>
<polygon fill="midnightblue" stroke="midnightblue" points="1223.65,-56.7747 1213.08,-57.589 1221.85,-63.5399 1223.65,-56.7747"/>
</g>
<!-- Node9&#45;&gt;Node5 -->
<g id="edge9" class="edge"><title>Node9&#45;&gt;Node5</title>
<path fill="none" stroke="midnightblue" d="M1267.45,-86C1149.62,-86 865.752,-86 751.673,-86"/>
<polygon fill="midnightblue" stroke="midnightblue" points="1267.65,-89.5001 1277.65,-86 1267.65,-82.5001 1267.65,-89.5001"/>
</g>
<!-- Node9&#45;&gt;Node10 -->
<g id="edge10" class="edge"><title>Node9&#45;&gt;Node10</title>
<path fill="none" stroke="midnightblue" d="M1374.33,-86C1383.06,-86 1391.97,-86 1400.24,-86"/>
<polygon fill="midnightblue" stroke="midnightblue" points="1374.21,-82.5001 1364.21,-86 1374.21,-89.5001 1374.21,-82.5001"/>
</g>
<!-- Node11 -->
<g id="node11" class="node"><title>Node11</title>
<g id="a_node11"><a xlink:href="../../d2/db8/class_menu.html#a3c99ad09e9f2f975c1a0d0597642651a" target="_top" xlink:title="Menu.init">
<polygon fill="white" stroke="black" points="1514,-76.5 1514,-95.5 1574,-95.5 1574,-76.5 1514,-76.5"/>
<text text-anchor="middle" x="1544" y="-83.5" font-family="Helvetica,sans-Serif" font-size="10.00">Menu.init</text>
</a>
</g>
</g>
<!-- Node10&#45;&gt;Node11 -->
<g id="edge11" class="edge"><title>Node10&#45;&gt;Node11</title>
<path fill="none" stroke="midnightblue" d="M1488.03,-86C1496.89,-86 1505.87,-86 1513.95,-86"/>
<polygon fill="midnightblue" stroke="midnightblue" points="1487.77,-82.5001 1477.77,-86 1487.77,-89.5001 1487.77,-82.5001"/>
</g>
<!-- Node12 -->
<g id="node12" class="node"><title>Node12</title>
<g id="a_node12"><a xlink:href="../../d4/d2f/class_lose_screen.html#a34f2cc2c803500316c9b8d854854d758" target="_top" xlink:title="LoseScreen.init">
<polygon fill="white" stroke="black" points="1610,-38.5 1610,-57.5 1700,-57.5 1700,-38.5 1610,-38.5"/>
<text text-anchor="middle" x="1655" y="-45.5" font-family="Helvetica,sans-Serif" font-size="10.00">LoseScreen.init</text>
</a>
</g>
</g>
<!-- Node11&#45;&gt;Node12 -->
<g id="edge12" class="edge"><title>Node11&#45;&gt;Node12</title>
<path fill="none" stroke="midnightblue" d="M1582.21,-73.0282C1596.73,-67.9656 1613.08,-62.2659 1626.5,-57.5859"/>
<polygon fill="midnightblue" stroke="midnightblue" points="1580.8,-69.8141 1572.51,-76.411 1583.1,-76.4239 1580.8,-69.8141"/>
</g>
<!-- Node15 -->
<g id="node15" class="node"><title>Node15</title>
<g id="a_node15"><a xlink:href="../../d1/de1/class_end_screen.html#a1264ffb72b3a3032443f9c4087222aef" target="_top" xlink:title="EndScreen.init">
<polygon fill="white" stroke="black" points="1612,-76.5 1612,-95.5 1698,-95.5 1698,-76.5 1612,-76.5"/>
<text text-anchor="middle" x="1655" y="-83.5" font-family="Helvetica,sans-Serif" font-size="10.00">EndScreen.init</text>
</a>
</g>
</g>
<!-- Node11&#45;&gt;Node15 -->
<g id="edge16" class="edge"><title>Node11&#45;&gt;Node15</title>
<path fill="none" stroke="midnightblue" d="M1584.29,-86C1593.15,-86 1602.6,-86 1611.59,-86"/>
<polygon fill="midnightblue" stroke="midnightblue" points="1584.21,-82.5001 1574.21,-86 1584.21,-89.5001 1584.21,-82.5001"/>
</g>
<!-- Node17 -->
<g id="node17" class="node"><title>Node17</title>
<g id="a_node17"><a xlink:href="../../d0/d4b/class_main.html#a7595d13c514a02c35aca322dd91d2063" target="_top" xlink:title="Main.start">
<polygon fill="white" stroke="black" points="1622.5,-114.5 1622.5,-133.5 1687.5,-133.5 1687.5,-114.5 1622.5,-114.5"/>
<text text-anchor="middle" x="1655" y="-121.5" font-family="Helvetica,sans-Serif" font-size="10.00">Main.start</text>
</a>
</g>
</g>
<!-- Node11&#45;&gt;Node17 -->
<g id="edge18" class="edge"><title>Node11&#45;&gt;Node17</title>
<path fill="none" stroke="midnightblue" d="M1582.21,-98.9718C1596.73,-104.034 1613.08,-109.734 1626.5,-114.414"/>
<polygon fill="midnightblue" stroke="midnightblue" points="1583.1,-95.5761 1572.51,-95.589 1580.8,-102.186 1583.1,-95.5761"/>
</g>
<!-- Node13 -->
<g id="node13" class="node"><title>Node13</title>
<g id="a_node13"><a xlink:href="../../d6/d4f/class_item_box_world.html#a295cf7212ad54fa599e2a2d85ee0523d" target="_top" xlink:title="ItemBoxWorld.loseGame">
<polygon fill="white" stroke="black" points="1736,-38.5 1736,-57.5 1870,-57.5 1870,-38.5 1736,-38.5"/>
<text text-anchor="middle" x="1803" y="-45.5" font-family="Helvetica,sans-Serif" font-size="10.00">ItemBoxWorld.loseGame</text>
</a>
</g>
</g>
<!-- Node12&#45;&gt;Node13 -->
<g id="edge13" class="edge"><title>Node12&#45;&gt;Node13</title>
<path fill="none" stroke="midnightblue" d="M1710.47,-48C1718.75,-48 1727.37,-48 1735.86,-48"/>
<polygon fill="midnightblue" stroke="midnightblue" points="1710.2,-44.5001 1700.2,-48 1710.2,-51.5001 1710.2,-44.5001"/>
</g>
<!-- Node14 -->
<g id="node14" class="node"><title>Node14</title>
<g id="a_node14"><a xlink:href="../../db/d97/class_box_world.html#a72bacb2a6757900d8835249929fcc838" target="_top" xlink:title="BoxWorld.loseGame">
<polygon fill="white" stroke="black" points="1747,-0.5 1747,-19.5 1859,-19.5 1859,-0.5 1747,-0.5"/>
<text text-anchor="middle" x="1803" y="-7.5" font-family="Helvetica,sans-Serif" font-size="10.00">BoxWorld.loseGame</text>
</a>
</g>
</g>
<!-- Node12&#45;&gt;Node14 -->
<g id="edge14" class="edge"><title>Node12&#45;&gt;Node14</title>
<path fill="none" stroke="midnightblue" d="M1702.54,-35.8879C1722.87,-30.5956 1746.37,-24.4787 1765.42,-19.5201"/>
<polygon fill="midnightblue" stroke="midnightblue" points="1701.64,-32.5049 1692.84,-38.411 1703.4,-39.2793 1701.64,-32.5049"/>
</g>
<!-- Node14&#45;&gt;Node7 -->
<g id="edge15" class="edge"><title>Node14&#45;&gt;Node7</title>
<path fill="none" stroke="midnightblue" d="M1736.78,-10C1684.83,-10 1610.25,-10 1545,-10 1320,-10 1320,-10 1320,-10 1224.23,-10 1113.37,-27.2037 1051.08,-38.46"/>
<polygon fill="midnightblue" stroke="midnightblue" points="1736.85,-13.5001 1746.85,-10 1736.85,-6.5001 1736.85,-13.5001"/>
</g>
<!-- Node16 -->
<g id="node16" class="node"><title>Node16</title>
<g id="a_node16"><a xlink:href="../../d6/d4f/class_item_box_world.html#a2ed12a6b39993faedc05cc682204476d" target="_top" xlink:title="ItemBoxWorld.winLevel">
<polygon fill="white" stroke="black" points="1740.5,-76.5 1740.5,-95.5 1865.5,-95.5 1865.5,-76.5 1740.5,-76.5"/>
<text text-anchor="middle" x="1803" y="-83.5" font-family="Helvetica,sans-Serif" font-size="10.00">ItemBoxWorld.winLevel</text>
</a>
</g>
</g>
<!-- Node15&#45;&gt;Node16 -->
<g id="edge17" class="edge"><title>Node15&#45;&gt;Node16</title>
<path fill="none" stroke="midnightblue" d="M1708.35,-86C1718.71,-86 1729.68,-86 1740.31,-86"/>
<polygon fill="midnightblue" stroke="midnightblue" points="1708.23,-82.5001 1698.23,-86 1708.23,-89.5001 1708.23,-82.5001"/>
</g>
</g>
</svg>
        <g id="navigator" transform="translate(0 0)" fill="#404254">
                <rect fill="#f2f5e9" fill-opacity="0.5" stroke="#606060" stroke-width=".5" x="0" y="0" width="60" height="60"/>
                <use id="zoomplus" xlink:href="#zoomPlus" x="17" y="9" onmousedown="handleZoom(evt,'in')"/>
                <use id="zoomminus" xlink:href="#zoomMin" x="42" y="9" onmousedown="handleZoom(evt,'out')"/>
                <use id="reset" xlink:href="#resetDef" x="30" y="36" onmousedown="handleReset()"/>
                <g id="arrowUp" xlink:href="#dirArrow" transform="translate(30 24)" onmousedown="handlePan(0,-1)">
                  <use xlink:href="#rim" fill="#404040">
                        <set attributeName="fill" to="#808080" begin="arrowUp.mouseover" end="arrowUp.mouseout"/>
                  </use>
                  <path fill="none" stroke="white" stroke-width="1.5" d="M0,-3.0v7 M-2.5,-0.5L0,-3.0L2.5,-0.5"/>
                </g>
                <g id="arrowRight" xlink:href="#dirArrow" transform="rotate(90) translate(36 -43)" onmousedown="handlePan(1,0)">
                  <use xlink:href="#rim" fill="#404040">
                        <set attributeName="fill" to="#808080" begin="arrowRight.mouseover" end="arrowRight.mouseout"/>
                  </use>
                  <path fill="none" stroke="white" stroke-width="1.5" d="M0,-3.0v7 M-2.5,-0.5L0,-3.0L2.5,-0.5"/>
                </g>
                <g id="arrowDown" xlink:href="#dirArrow" transform="rotate(180) translate(-30 -48)" onmousedown="handlePan(0,1)">
                  <use xlink:href="#rim" fill="#404040">
                        <set attributeName="fill" to="#808080" begin="arrowDown.mouseover" end="arrowDown.mouseout"/>
                  </use>
                  <path fill="none" stroke="white" stroke-width="1.5" d="M0,-3.0v7 M-2.5,-0.5L0,-3.0L2.5,-0.5"/>
                </g>
                <g id="arrowLeft" xlink:href="#dirArrow" transform="rotate(270) translate(-36 17)" onmousedown="handlePan(-1,0)">
                  <use xlink:href="#rim" fill="#404040">
                        <set attributeName="fill" to="#808080" begin="arrowLeft.mouseover" end="arrowLeft.mouseout"/>
                  </use>
                  <path fill="none" stroke="white" stroke-width="1.5" d="M0,-3.0v7 M-2.5,-0.5L0,-3.0L2.5,-0.5"/>
                </g>
        </g>
        <svg viewBox="0 0 15 15" width="100%" height="30px" preserveAspectRatio="xMaxYMin meet">
         <g id="arrow_out" transform="scale(0.3 0.3)">
          <a xlink:href="class_sticky_box_ab0bd7cafb7f243e3951558ddb8728b96_icgraph_org.svg" target="_base">
           <rect id="button" ry="5" rx="5" y="6" x="6" height="38" width="38"
                fill="#f2f5e9" fill-opacity="0.5" stroke="#606060" stroke-width="1.0"/>
           <path id="arrow"
             d="M 11.500037,31.436501 C 11.940474,20.09759 22.043105,11.32322 32.158766,21.979434 L 37.068811,17.246167 C 37.068811,17.246167 37.088388,32 37.088388,32 L 22.160133,31.978069 C 22.160133,31.978069 26.997745,27.140456 26.997745,27.140456 C 18.528582,18.264221 13.291696,25.230495 11.500037,31.436501 z"
             style="fill:#404040;"/>
          </a>
         </g>
        </svg>
</svg>
