<?xml version="1.0" encoding="UTF-8" standalone="no"?>
<!DOCTYPE svg PUBLIC "-//W3C//DTD SVG 1.1//EN"
 "http://www.w3.org/Graphics/SVG/1.1/DTD/svg11.dtd">
<!-- Generated by graphviz version 2.36.0 (20140111.2315)
 -->
<!-- Title: StickyBox.getYDirection Pages: 1 -->
<svg width="1930pt" height="246pt"
 viewBox="0.00 0.00 1930.00 246.00" xmlns="http://www.w3.org/2000/svg" xmlns:xlink="http://www.w3.org/1999/xlink">
<g id="graph0" class="graph" transform="scale(1 1) rotate(0) translate(4 242)">
<title>StickyBox.getYDirection</title>
<polygon fill="white" stroke="none" points="-4,4 -4,-242 1926,-242 1926,4 -4,4"/>
<!-- Node1 -->
<g id="node1" class="node"><title>Node1</title>
<polygon fill="#bfbfbf" stroke="black" points="0,-95.5 0,-114.5 130,-114.5 130,-95.5 0,-95.5"/>
<text text-anchor="middle" x="65" y="-102.5" font-family="Helvetica,sans-Serif" font-size="10.00">StickyBox.getYDirection</text>
</g>
<!-- Node2 -->
<g id="node2" class="node"><title>Node2</title>
<g id="a_node2"><a xlink:href="../../db/d97/class_box_world.html#adc4c9d78ffde3d052c4c92047eb98e55" target="_top" xlink:title="BoxWorld.allowMovement">
<polygon fill="white" stroke="black" points="166.5,-95.5 166.5,-114.5 303.5,-114.5 303.5,-95.5 166.5,-95.5"/>
<text text-anchor="middle" x="235" y="-102.5" font-family="Helvetica,sans-Serif" font-size="10.00">BoxWorld.allowMovement</text>
</a>
</g>
</g>
<!-- Node1&#45;&gt;Node2 -->
<g id="edge1" class="edge"><title>Node1&#45;&gt;Node2</title>
<path fill="none" stroke="midnightblue" d="M140.494,-105C149.103,-105 157.846,-105 166.356,-105"/>
<polygon fill="midnightblue" stroke="midnightblue" points="140.473,-101.5 130.473,-105 140.473,-108.5 140.473,-101.5"/>
</g>
<!-- Node8 -->
<g id="node8" class="node"><title>Node8</title>
<g id="a_node8"><a xlink:href="../../db/d97/class_box_world.html#a6794c083c2a0263c2f585f4ae4b7e39c" target="_top" xlink:title="BoxWorld.updateSprites">
<polygon fill="white" stroke="black" points="1162.5,-152.5 1162.5,-171.5 1293.5,-171.5 1293.5,-152.5 1162.5,-152.5"/>
<text text-anchor="middle" x="1228" y="-159.5" font-family="Helvetica,sans-Serif" font-size="10.00">BoxWorld.updateSprites</text>
</a>
</g>
</g>
<!-- Node1&#45;&gt;Node8 -->
<g id="edge24" class="edge"><title>Node1&#45;&gt;Node8</title>
<path fill="none" stroke="midnightblue" d="M88.8755,-120.103C143.934,-154.948 289.2,-238 423,-238 423,-238 423,-238 893,-238 1011.34,-238 1147.52,-192.076 1202.3,-171.625"/>
<polygon fill="midnightblue" stroke="midnightblue" points="90.5517,-117.02 80.2452,-114.565 86.7712,-122.911 90.5517,-117.02"/>
</g>
<!-- Node18 -->
<g id="node18" class="node"><title>Node18</title>
<g id="a_node18"><a xlink:href="../../db/d97/class_box_world.html#a55add11037cd6dc48556f2f42a9e11be" target="_top" xlink:title="BoxWorld.checkCollide">
<polygon fill="white" stroke="black" points="174,-38.5 174,-57.5 296,-57.5 296,-38.5 174,-38.5"/>
<text text-anchor="middle" x="235" y="-45.5" font-family="Helvetica,sans-Serif" font-size="10.00">BoxWorld.checkCollide</text>
</a>
</g>
</g>
<!-- Node1&#45;&gt;Node18 -->
<g id="edge21" class="edge"><title>Node1&#45;&gt;Node18</title>
<path fill="none" stroke="midnightblue" d="M103.702,-92.2081C134.644,-81.7102 177.772,-67.0772 205.789,-57.5716"/>
<polygon fill="midnightblue" stroke="midnightblue" points="102.465,-88.932 94.1194,-95.4595 104.714,-95.5609 102.465,-88.932"/>
</g>
<!-- Node3 -->
<g id="node3" class="node"><title>Node3</title>
<g id="a_node3"><a xlink:href="../../db/d97/class_box_world.html#aa7e2049d7be23e15fd2ec7fa2922ed79" target="_top" xlink:title="BoxWorld.handleKeyInput">
<polygon fill="white" stroke="black" points="356,-95.5 356,-114.5 492,-114.5 492,-95.5 356,-95.5"/>
<text text-anchor="middle" x="424" y="-102.5" font-family="Helvetica,sans-Serif" font-size="10.00">BoxWorld.handleKeyInput</text>
</a>
</g>
</g>
<!-- Node2&#45;&gt;Node3 -->
<g id="edge2" class="edge"><title>Node2&#45;&gt;Node3</title>
<path fill="none" stroke="midnightblue" d="M313.628,-105C327.666,-105 342.196,-105 355.901,-105"/>
<polygon fill="midnightblue" stroke="midnightblue" points="313.511,-101.5 303.511,-105 313.511,-108.5 313.511,-101.5"/>
</g>
<!-- Node4 -->
<g id="node4" class="node"><title>Node4</title>
<g id="a_node4"><a xlink:href="../../db/d97/class_box_world.html#a726e747e023543658d7a345cc6466ccb" target="_top" xlink:title="BoxWorld.createScene">
<polygon fill="white" stroke="black" points="544,-114.5 544,-133.5 668,-133.5 668,-114.5 544,-114.5"/>
<text text-anchor="middle" x="606" y="-121.5" font-family="Helvetica,sans-Serif" font-size="10.00">BoxWorld.createScene</text>
</a>
</g>
</g>
<!-- Node3&#45;&gt;Node4 -->
<g id="edge3" class="edge"><title>Node3&#45;&gt;Node4</title>
<path fill="none" stroke="midnightblue" d="M502.096,-113.138C516.056,-114.611 530.439,-116.13 543.864,-117.547"/>
<polygon fill="midnightblue" stroke="midnightblue" points="502.338,-109.644 492.025,-112.075 501.603,-116.605 502.338,-109.644"/>
</g>
<!-- Node5 -->
<g id="node5" class="node"><title>Node5</title>
<g id="a_node5"><a xlink:href="../../d6/d4f/class_item_box_world.html#aa559fc2680327b41fb376e2eda8e82e3" target="_top" xlink:title="ItemBoxWorld.init">
<polygon fill="white" stroke="black" points="704.5,-114.5 704.5,-133.5 803.5,-133.5 803.5,-114.5 704.5,-114.5"/>
<text text-anchor="middle" x="754" y="-121.5" font-family="Helvetica,sans-Serif" font-size="10.00">ItemBoxWorld.init</text>
</a>
</g>
</g>
<!-- Node4&#45;&gt;Node5 -->
<g id="edge4" class="edge"><title>Node4&#45;&gt;Node5</title>
<path fill="none" stroke="midnightblue" d="M678.3,-124C687.052,-124 695.836,-124 704.149,-124"/>
<polygon fill="midnightblue" stroke="midnightblue" points="678.071,-120.5 668.071,-124 678.071,-127.5 678.071,-120.5"/>
</g>
<!-- Node10 -->
<g id="node10" class="node"><title>Node10</title>
<g id="a_node10"><a xlink:href="../../db/d97/class_box_world.html#a55bf92d3f466bfaade0f6d199d8c9bd9" target="_top" xlink:title="BoxWorld.init">
<polygon fill="white" stroke="black" points="1452.5,-152.5 1452.5,-171.5 1529.5,-171.5 1529.5,-152.5 1452.5,-152.5"/>
<text text-anchor="middle" x="1491" y="-159.5" font-family="Helvetica,sans-Serif" font-size="10.00">BoxWorld.init</text>
</a>
</g>
</g>
<!-- Node4&#45;&gt;Node10 -->
<g id="edge20" class="edge"><title>Node4&#45;&gt;Node10</title>
<path fill="none" stroke="midnightblue" d="M637.331,-137.741C688.514,-159.637 795.778,-200 891,-200 891,-200 891,-200 1229,-200 1312.54,-200 1333.76,-195.651 1416,-181 1429.58,-178.581 1444.34,-174.991 1457.08,-171.582"/>
<polygon fill="midnightblue" stroke="midnightblue" points="638.429,-134.402 627.862,-133.625 635.638,-140.822 638.429,-134.402"/>
</g>
<!-- Node6 -->
<g id="node6" class="node"><title>Node6</title>
<g id="a_node6"><a xlink:href="../../db/d97/class_box_world.html#aad670712776afe126e51791097027e05" target="_top" xlink:title="BoxWorld.winLevel">
<polygon fill="white" stroke="black" points="840.5,-76.5 840.5,-95.5 943.5,-95.5 943.5,-76.5 840.5,-76.5"/>
<text text-anchor="middle" x="892" y="-83.5" font-family="Helvetica,sans-Serif" font-size="10.00">BoxWorld.winLevel</text>
</a>
</g>
</g>
<!-- Node5&#45;&gt;Node6 -->
<g id="edge5" class="edge"><title>Node5&#45;&gt;Node6</title>
<path fill="none" stroke="midnightblue" d="M799.087,-111.682C817.772,-106.461 839.218,-100.468 856.692,-95.5859"/>
<polygon fill="midnightblue" stroke="midnightblue" points="798.008,-108.349 789.319,-114.411 799.892,-115.091 798.008,-108.349"/>
</g>
<!-- Node6&#45;&gt;Node3 -->
<g id="edge19" class="edge"><title>Node6&#45;&gt;Node3</title>
<path fill="none" stroke="midnightblue" d="M830.252,-88.4768C743.051,-92.0323 582.939,-98.5604 492.263,-102.258"/>
<polygon fill="midnightblue" stroke="midnightblue" points="830.409,-91.9734 840.258,-88.0689 830.124,-84.9793 830.409,-91.9734"/>
</g>
<!-- Node7 -->
<g id="node7" class="node"><title>Node7</title>
<g id="a_node7"><a xlink:href="../../db/d97/class_box_world.html#a4079bed8937c9f621decfbe1309e31e2" target="_top" xlink:title="BoxWorld.checkAllCollisions">
<polygon fill="white" stroke="black" points="980,-76.5 980,-95.5 1126,-95.5 1126,-76.5 980,-76.5"/>
<text text-anchor="middle" x="1053" y="-83.5" font-family="Helvetica,sans-Serif" font-size="10.00">BoxWorld.checkAllCollisions</text>
</a>
</g>
</g>
<!-- Node6&#45;&gt;Node7 -->
<g id="edge6" class="edge"><title>Node6&#45;&gt;Node7</title>
<path fill="none" stroke="midnightblue" d="M953.879,-86C962.33,-86 971.079,-86 979.713,-86"/>
<polygon fill="midnightblue" stroke="midnightblue" points="953.746,-82.5001 943.746,-86 953.746,-89.5001 953.746,-82.5001"/>
</g>
<!-- Node7&#45;&gt;Node8 -->
<g id="edge7" class="edge"><title>Node7&#45;&gt;Node8</title>
<path fill="none" stroke="midnightblue" d="M1085.11,-99.6662C1119.78,-114.898 1174.95,-139.133 1205.27,-152.453"/>
<polygon fill="midnightblue" stroke="midnightblue" points="1086.47,-96.4432 1075.91,-95.6255 1083.66,-102.852 1086.47,-96.4432"/>
</g>
<!-- Node9 -->
<g id="node9" class="node"><title>Node9</title>
<g id="a_node9"><a xlink:href="../../db/d97/class_box_world.html#ad20a4e43406c44f4bbf201d1d1028998" target="_top" xlink:title="BoxWorld.start">
<polygon fill="white" stroke="black" points="1330,-152.5 1330,-171.5 1416,-171.5 1416,-152.5 1330,-152.5"/>
<text text-anchor="middle" x="1373" y="-159.5" font-family="Helvetica,sans-Serif" font-size="10.00">BoxWorld.start</text>
</a>
</g>
</g>
<!-- Node8&#45;&gt;Node9 -->
<g id="edge8" class="edge"><title>Node8&#45;&gt;Node9</title>
<path fill="none" stroke="midnightblue" d="M1303.9,-162C1312.84,-162 1321.7,-162 1329.94,-162"/>
<polygon fill="midnightblue" stroke="midnightblue" points="1303.81,-158.5 1293.81,-162 1303.81,-165.5 1303.81,-158.5"/>
</g>
<!-- Node9&#45;&gt;Node5 -->
<g id="edge9" class="edge"><title>Node9&#45;&gt;Node5</title>
<path fill="none" stroke="midnightblue" d="M1329.51,-149.991C1318.07,-147.214 1305.64,-144.606 1294,-143 1114.52,-118.24 898.419,-120.055 803.6,-122.417"/>
<polygon fill="midnightblue" stroke="midnightblue" points="1328.71,-153.399 1339.27,-152.454 1330.43,-146.612 1328.71,-153.399"/>
</g>
<!-- Node9&#45;&gt;Node10 -->
<g id="edge10" class="edge"><title>Node9&#45;&gt;Node10</title>
<path fill="none" stroke="midnightblue" d="M1426.33,-162C1435.06,-162 1443.97,-162 1452.24,-162"/>
<polygon fill="midnightblue" stroke="midnightblue" points="1426.21,-158.5 1416.21,-162 1426.21,-165.5 1426.21,-158.5"/>
</g>
<!-- Node11 -->
<g id="node11" class="node"><title>Node11</title>
<g id="a_node11"><a xlink:href="../../d2/db8/class_menu.html#a3c99ad09e9f2f975c1a0d0597642651a" target="_top" xlink:title="Menu.init">
<polygon fill="white" stroke="black" points="1566,-152.5 1566,-171.5 1626,-171.5 1626,-152.5 1566,-152.5"/>
<text text-anchor="middle" x="1596" y="-159.5" font-family="Helvetica,sans-Serif" font-size="10.00">Menu.init</text>
</a>
</g>
</g>
<!-- Node10&#45;&gt;Node11 -->
<g id="edge11" class="edge"><title>Node10&#45;&gt;Node11</title>
<path fill="none" stroke="midnightblue" d="M1540.03,-162C1548.89,-162 1557.87,-162 1565.95,-162"/>
<polygon fill="midnightblue" stroke="midnightblue" points="1539.77,-158.5 1529.77,-162 1539.77,-165.5 1539.77,-158.5"/>
</g>
<!-- Node12 -->
<g id="node12" class="node"><title>Node12</title>
<g id="a_node12"><a xlink:href="../../d4/d2f/class_lose_screen.html#a34f2cc2c803500316c9b8d854854d758" target="_top" xlink:title="LoseScreen.init">
<polygon fill="white" stroke="black" points="1662,-114.5 1662,-133.5 1752,-133.5 1752,-114.5 1662,-114.5"/>
<text text-anchor="middle" x="1707" y="-121.5" font-family="Helvetica,sans-Serif" font-size="10.00">LoseScreen.init</text>
</a>
</g>
</g>
<!-- Node11&#45;&gt;Node12 -->
<g id="edge12" class="edge"><title>Node11&#45;&gt;Node12</title>
<path fill="none" stroke="midnightblue" d="M1634.21,-149.028C1648.73,-143.966 1665.08,-138.266 1678.5,-133.586"/>
<polygon fill="midnightblue" stroke="midnightblue" points="1632.8,-145.814 1624.51,-152.411 1635.1,-152.424 1632.8,-145.814"/>
</g>
<!-- Node15 -->
<g id="node15" class="node"><title>Node15</title>
<g id="a_node15"><a xlink:href="../../d1/de1/class_end_screen.html#a1264ffb72b3a3032443f9c4087222aef" target="_top" xlink:title="EndScreen.init">
<polygon fill="white" stroke="black" points="1664,-152.5 1664,-171.5 1750,-171.5 1750,-152.5 1664,-152.5"/>
<text text-anchor="middle" x="1707" y="-159.5" font-family="Helvetica,sans-Serif" font-size="10.00">EndScreen.init</text>
</a>
</g>
</g>
<!-- Node11&#45;&gt;Node15 -->
<g id="edge16" class="edge"><title>Node11&#45;&gt;Node15</title>
<path fill="none" stroke="midnightblue" d="M1636.29,-162C1645.15,-162 1654.6,-162 1663.59,-162"/>
<polygon fill="midnightblue" stroke="midnightblue" points="1636.21,-158.5 1626.21,-162 1636.21,-165.5 1636.21,-158.5"/>
</g>
<!-- Node17 -->
<g id="node17" class="node"><title>Node17</title>
<g id="a_node17"><a xlink:href="../../d0/d4b/class_main.html#a7595d13c514a02c35aca322dd91d2063" target="_top" xlink:title="Main.start">
<polygon fill="white" stroke="black" points="1674.5,-190.5 1674.5,-209.5 1739.5,-209.5 1739.5,-190.5 1674.5,-190.5"/>
<text text-anchor="middle" x="1707" y="-197.5" font-family="Helvetica,sans-Serif" font-size="10.00">Main.start</text>
</a>
</g>
</g>
<!-- Node11&#45;&gt;Node17 -->
<g id="edge18" class="edge"><title>Node11&#45;&gt;Node17</title>
<path fill="none" stroke="midnightblue" d="M1634.21,-174.972C1648.73,-180.034 1665.08,-185.734 1678.5,-190.414"/>
<polygon fill="midnightblue" stroke="midnightblue" points="1635.1,-171.576 1624.51,-171.589 1632.8,-178.186 1635.1,-171.576"/>
</g>
<!-- Node13 -->
<g id="node13" class="node"><title>Node13</title>
<g id="a_node13"><a xlink:href="../../d6/d4f/class_item_box_world.html#a295cf7212ad54fa599e2a2d85ee0523d" target="_top" xlink:title="ItemBoxWorld.loseGame">
<polygon fill="white" stroke="black" points="1788,-114.5 1788,-133.5 1922,-133.5 1922,-114.5 1788,-114.5"/>
<text text-anchor="middle" x="1855" y="-121.5" font-family="Helvetica,sans-Serif" font-size="10.00">ItemBoxWorld.loseGame</text>
</a>
</g>
</g>
<!-- Node12&#45;&gt;Node13 -->
<g id="edge13" class="edge"><title>Node12&#45;&gt;Node13</title>
<path fill="none" stroke="midnightblue" d="M1762.47,-124C1770.75,-124 1779.37,-124 1787.86,-124"/>
<polygon fill="midnightblue" stroke="midnightblue" points="1762.2,-120.5 1752.2,-124 1762.2,-127.5 1762.2,-120.5"/>
</g>
<!-- Node14 -->
<g id="node14" class="node"><title>Node14</title>
<g id="a_node14"><a xlink:href="../../db/d97/class_box_world.html#a72bacb2a6757900d8835249929fcc838" target="_top" xlink:title="BoxWorld.loseGame">
<polygon fill="white" stroke="black" points="1799,-76.5 1799,-95.5 1911,-95.5 1911,-76.5 1799,-76.5"/>
<text text-anchor="middle" x="1855" y="-83.5" font-family="Helvetica,sans-Serif" font-size="10.00">BoxWorld.loseGame</text>
</a>
</g>
</g>
<!-- Node12&#45;&gt;Node14 -->
<g id="edge14" class="edge"><title>Node12&#45;&gt;Node14</title>
<path fill="none" stroke="midnightblue" d="M1754.54,-111.888C1774.87,-106.596 1798.37,-100.479 1817.42,-95.5201"/>
<polygon fill="midnightblue" stroke="midnightblue" points="1753.64,-108.505 1744.84,-114.411 1755.4,-115.279 1753.64,-108.505"/>
</g>
<!-- Node14&#45;&gt;Node7 -->
<g id="edge15" class="edge"><title>Node14&#45;&gt;Node7</title>
<path fill="none" stroke="midnightblue" d="M1788.78,-86C1736.83,-86 1662.25,-86 1597,-86 1372,-86 1372,-86 1372,-86 1287.67,-86 1190.76,-86 1126.3,-86"/>
<polygon fill="midnightblue" stroke="midnightblue" points="1788.85,-89.5001 1798.85,-86 1788.85,-82.5001 1788.85,-89.5001"/>
</g>
<!-- Node16 -->
<g id="node16" class="node"><title>Node16</title>
<g id="a_node16"><a xlink:href="../../d6/d4f/class_item_box_world.html#a2ed12a6b39993faedc05cc682204476d" target="_top" xlink:title="ItemBoxWorld.winLevel">
<polygon fill="white" stroke="black" points="1792.5,-152.5 1792.5,-171.5 1917.5,-171.5 1917.5,-152.5 1792.5,-152.5"/>
<text text-anchor="middle" x="1855" y="-159.5" font-family="Helvetica,sans-Serif" font-size="10.00">ItemBoxWorld.winLevel</text>
</a>
</g>
</g>
<!-- Node15&#45;&gt;Node16 -->
<g id="edge17" class="edge"><title>Node15&#45;&gt;Node16</title>
<path fill="none" stroke="midnightblue" d="M1760.35,-162C1770.71,-162 1781.68,-162 1792.31,-162"/>
<polygon fill="midnightblue" stroke="midnightblue" points="1760.23,-158.5 1750.23,-162 1760.23,-165.5 1760.23,-158.5"/>
</g>
<!-- Node18&#45;&gt;Node7 -->
<g id="edge23" class="edge"><title>Node18&#45;&gt;Node7</title>
<path fill="none" stroke="midnightblue" d="M306.241,-48C380.48,-48 500.986,-48 605,-48 605,-48 605,-48 755,-48 844.54,-48 948.047,-65.2037 1006.19,-76.46"/>
<polygon fill="midnightblue" stroke="midnightblue" points="306.079,-44.5001 296.079,-48 306.079,-51.5001 306.079,-44.5001"/>
</g>
<!-- Node19 -->
<g id="node19" class="node"><title>Node19</title>
<g id="a_node19"><a xlink:href="../../d6/d4f/class_item_box_world.html#ad8a9b79d31264f523f05ed43aa490f0f" target="_top" xlink:title="ItemBoxWorld.checkAllCollisions">
<polygon fill="white" stroke="black" points="340,-0.5 340,-19.5 508,-19.5 508,-0.5 340,-0.5"/>
<text text-anchor="middle" x="424" y="-7.5" font-family="Helvetica,sans-Serif" font-size="10.00">ItemBoxWorld.checkAllCollisions</text>
</a>
</g>
</g>
<!-- Node18&#45;&gt;Node19 -->
<g id="edge22" class="edge"><title>Node18&#45;&gt;Node19</title>
<path fill="none" stroke="midnightblue" d="M293.131,-36.3905C319.727,-30.986 350.973,-24.6365 376.151,-19.5201"/>
<polygon fill="midnightblue" stroke="midnightblue" points="292.291,-32.9896 283.188,-38.411 293.685,-39.8494 292.291,-32.9896"/>
</g>
</g>
</svg>
