<?xml version="1.0" encoding="UTF-8" standalone="no"?>
<!DOCTYPE svg PUBLIC "-//W3C//DTD SVG 1.1//EN"
 "http://www.w3.org/Graphics/SVG/1.1/DTD/svg11.dtd">
<!-- Generated by graphviz version 2.36.0 (20140111.2315)
 -->
<!-- Title: StickyBox.setStuck Pages: 1 -->
<svg width="1702pt" height="164pt"
 viewBox="0.00 0.00 1702.00 164.02" xmlns="http://www.w3.org/2000/svg" xmlns:xlink="http://www.w3.org/1999/xlink">
<g id="graph0" class="graph" transform="scale(1 1) rotate(0) translate(4 160.019)">
<title>StickyBox.setStuck</title>
<polygon fill="white" stroke="none" points="-4,4 -4,-160.019 1698,-160.019 1698,4 -4,4"/>
<!-- Node1 -->
<g id="node1" class="node"><title>Node1</title>
<polygon fill="#bfbfbf" stroke="black" points="0,-11.5094 0,-30.5094 108,-30.5094 108,-11.5094 0,-11.5094"/>
<text text-anchor="middle" x="54" y="-18.5094" font-family="Helvetica,sans-Serif" font-size="10.00">StickyBox.setStuck</text>
</g>
<!-- Node2 -->
<g id="node2" class="node"><title>Node2</title>
<g id="a_node2"><a xlink:href="../../db/d97/class_box_world.html#a6794c083c2a0263c2f585f4ae4b7e39c" target="_top" xlink:title="BoxWorld.updateSprites">
<polygon fill="white" stroke="black" points="144.5,-11.5094 144.5,-30.5094 275.5,-30.5094 275.5,-11.5094 144.5,-11.5094"/>
<text text-anchor="middle" x="210" y="-18.5094" font-family="Helvetica,sans-Serif" font-size="10.00">BoxWorld.updateSprites</text>
</a>
</g>
</g>
<!-- Node1&#45;&gt;Node2 -->
<g id="edge1" class="edge"><title>Node1&#45;&gt;Node2</title>
<path fill="none" stroke="midnightblue" d="M118.617,-21.0094C127.083,-21.0094 135.771,-21.0094 144.256,-21.0094"/>
<polygon fill="midnightblue" stroke="midnightblue" points="118.43,-17.5095 108.43,-21.0094 118.429,-24.5095 118.43,-17.5095"/>
</g>
<!-- Node3 -->
<g id="node3" class="node"><title>Node3</title>
<g id="a_node3"><a xlink:href="../../db/d97/class_box_world.html#ad20a4e43406c44f4bbf201d1d1028998" target="_top" xlink:title="BoxWorld.start">
<polygon fill="white" stroke="black" points="312,-30.5094 312,-49.5094 398,-49.5094 398,-30.5094 312,-30.5094"/>
<text text-anchor="middle" x="355" y="-37.5094" font-family="Helvetica,sans-Serif" font-size="10.00">BoxWorld.start</text>
</a>
</g>
</g>
<!-- Node2&#45;&gt;Node3 -->
<g id="edge2" class="edge"><title>Node2&#45;&gt;Node3</title>
<path fill="none" stroke="midnightblue" d="M285.898,-30.9609C294.837,-32.1486 303.705,-33.3268 311.941,-34.4212"/>
<polygon fill="midnightblue" stroke="midnightblue" points="286.18,-27.4676 275.806,-29.6199 285.257,-34.4066 286.18,-27.4676"/>
</g>
<!-- Node4 -->
<g id="node4" class="node"><title>Node4</title>
<g id="a_node4"><a xlink:href="../../d6/d4f/class_item_box_world.html#aa559fc2680327b41fb376e2eda8e82e3" target="_top" xlink:title="ItemBoxWorld.init">
<polygon fill="white" stroke="black" points="434.5,-68.5094 434.5,-87.5094 533.5,-87.5094 533.5,-68.5094 434.5,-68.5094"/>
<text text-anchor="middle" x="484" y="-75.5094" font-family="Helvetica,sans-Serif" font-size="10.00">ItemBoxWorld.init</text>
</a>
</g>
</g>
<!-- Node3&#45;&gt;Node4 -->
<g id="edge3" class="edge"><title>Node3&#45;&gt;Node4</title>
<path fill="none" stroke="midnightblue" d="M397.894,-52.5447C415.171,-57.7142 434.871,-63.6085 450.963,-68.4235"/>
<polygon fill="midnightblue" stroke="midnightblue" points="398.631,-49.1119 388.047,-49.5984 396.624,-55.8182 398.631,-49.1119"/>
</g>
<!-- Node9 -->
<g id="node9" class="node"><title>Node9</title>
<g id="a_node9"><a xlink:href="../../db/d97/class_box_world.html#a55bf92d3f466bfaade0f6d199d8c9bd9" target="_top" xlink:title="BoxWorld.init">
<polygon fill="white" stroke="black" points="1042.5,-68.5094 1042.5,-87.5094 1119.5,-87.5094 1119.5,-68.5094 1042.5,-68.5094"/>
<text text-anchor="middle" x="1081" y="-75.5094" font-family="Helvetica,sans-Serif" font-size="10.00">BoxWorld.init</text>
</a>
</g>
</g>
<!-- Node3&#45;&gt;Node9 -->
<g id="edge19" class="edge"><title>Node3&#45;&gt;Node9</title>
<path fill="none" stroke="midnightblue" d="M408.48,-40.0094C461.944,-40.0094 547.245,-40.0094 621,-40.0094 621,-40.0094 621,-40.0094 779,-40.0094 880.242,-40.0094 906.174,-42.1389 1006,-59.0094 1019.86,-61.3523 1034.93,-65.0125 1047.83,-68.4974"/>
<polygon fill="midnightblue" stroke="midnightblue" points="408.225,-36.5095 398.225,-40.0094 408.225,-43.5095 408.225,-36.5095"/>
</g>
<!-- Node5 -->
<g id="node5" class="node"><title>Node5</title>
<g id="a_node5"><a xlink:href="../../db/d97/class_box_world.html#aad670712776afe126e51791097027e05" target="_top" xlink:title="BoxWorld.winLevel">
<polygon fill="white" stroke="black" points="570.5,-106.509 570.5,-125.509 673.5,-125.509 673.5,-106.509 570.5,-106.509"/>
<text text-anchor="middle" x="622" y="-113.509" font-family="Helvetica,sans-Serif" font-size="10.00">BoxWorld.winLevel</text>
</a>
</g>
</g>
<!-- Node4&#45;&gt;Node5 -->
<g id="edge4" class="edge"><title>Node4&#45;&gt;Node5</title>
<path fill="none" stroke="midnightblue" d="M529.087,-90.3277C547.772,-95.5487 569.218,-101.541 586.692,-106.423"/>
<polygon fill="midnightblue" stroke="midnightblue" points="529.892,-86.9186 519.319,-87.5984 528.008,-93.6604 529.892,-86.9186"/>
</g>
<!-- Node6 -->
<g id="node6" class="node"><title>Node6</title>
<g id="a_node6"><a xlink:href="../../db/d97/class_box_world.html#a4079bed8937c9f621decfbe1309e31e2" target="_top" xlink:title="BoxWorld.checkAllCollisions">
<polygon fill="white" stroke="black" points="1548,-68.5094 1548,-87.5094 1694,-87.5094 1694,-68.5094 1548,-68.5094"/>
<text text-anchor="middle" x="1621" y="-75.5094" font-family="Helvetica,sans-Serif" font-size="10.00">BoxWorld.checkAllCollisions</text>
</a>
</g>
</g>
<!-- Node5&#45;&gt;Node6 -->
<g id="edge5" class="edge"><title>Node5&#45;&gt;Node6</title>
<path fill="none" stroke="midnightblue" d="M671.174,-127.732C683.75,-130.461 697.331,-133.118 710,-135.009 812.761,-150.35 839.101,-154.009 943,-154.009 943,-154.009 943,-154.009 1298,-154.009 1393.49,-154.009 1420.42,-162.047 1512,-135.009 1548.19,-124.323 1586.27,-100.94 1606.11,-87.6835"/>
<polygon fill="midnightblue" stroke="midnightblue" points="671.863,-124.299 661.341,-125.541 670.34,-131.132 671.863,-124.299"/>
</g>
<!-- Node7 -->
<g id="node7" class="node"><title>Node7</title>
<g id="a_node7"><a xlink:href="../../db/d97/class_box_world.html#aa7e2049d7be23e15fd2ec7fa2922ed79" target="_top" xlink:title="BoxWorld.handleKeyInput">
<polygon fill="white" stroke="black" points="710,-106.509 710,-125.509 846,-125.509 846,-106.509 710,-106.509"/>
<text text-anchor="middle" x="778" y="-113.509" font-family="Helvetica,sans-Serif" font-size="10.00">BoxWorld.handleKeyInput</text>
</a>
</g>
</g>
<!-- Node5&#45;&gt;Node7 -->
<g id="edge7" class="edge"><title>Node5&#45;&gt;Node7</title>
<path fill="none" stroke="midnightblue" d="M684.075,-116.009C692.591,-116.009 701.378,-116.009 709.996,-116.009"/>
<polygon fill="midnightblue" stroke="midnightblue" points="683.852,-112.51 673.852,-116.009 683.852,-119.51 683.852,-112.51"/>
</g>
<!-- Node6&#45;&gt;Node2 -->
<g id="edge6" class="edge"><title>Node6&#45;&gt;Node2</title>
<path fill="none" stroke="midnightblue" d="M1597.57,-62.7527C1576.48,-49.2609 1543.53,-30.3178 1512,-21.0094 1420.42,6.02821 1393.49,-2.0094 1298,-2.0094 483,-2.0094 483,-2.0094 483,-2.0094 411.994,-2.0094 330.814,-8.53254 275.761,-13.9345"/>
<polygon fill="midnightblue" stroke="midnightblue" points="1595.83,-65.7928 1606.11,-68.3353 1599.66,-59.9338 1595.83,-65.7928"/>
</g>
<!-- Node8 -->
<g id="node8" class="node"><title>Node8</title>
<g id="a_node8"><a xlink:href="../../db/d97/class_box_world.html#a726e747e023543658d7a345cc6466ccb" target="_top" xlink:title="BoxWorld.createScene">
<polygon fill="white" stroke="black" points="882,-68.5094 882,-87.5094 1006,-87.5094 1006,-68.5094 882,-68.5094"/>
<text text-anchor="middle" x="944" y="-75.5094" font-family="Helvetica,sans-Serif" font-size="10.00">BoxWorld.createScene</text>
</a>
</g>
</g>
<!-- Node7&#45;&gt;Node8 -->
<g id="edge8" class="edge"><title>Node7&#45;&gt;Node8</title>
<path fill="none" stroke="midnightblue" d="M830.341,-104.113C853.393,-98.772 880.221,-92.5557 901.913,-87.5295"/>
<polygon fill="midnightblue" stroke="midnightblue" points="829.336,-100.753 820.384,-106.42 830.916,-107.573 829.336,-100.753"/>
</g>
<!-- Node8&#45;&gt;Node4 -->
<g id="edge9" class="edge"><title>Node8&#45;&gt;Node4</title>
<path fill="none" stroke="midnightblue" d="M871.632,-78.0094C777.569,-78.0094 614.574,-78.0094 533.58,-78.0094"/>
<polygon fill="midnightblue" stroke="midnightblue" points="871.912,-81.5095 881.912,-78.0094 871.912,-74.5095 871.912,-81.5095"/>
</g>
<!-- Node8&#45;&gt;Node9 -->
<g id="edge10" class="edge"><title>Node8&#45;&gt;Node9</title>
<path fill="none" stroke="midnightblue" d="M1016.28,-78.0094C1025.23,-78.0094 1034.08,-78.0094 1042.22,-78.0094"/>
<polygon fill="midnightblue" stroke="midnightblue" points="1016.18,-74.5095 1006.18,-78.0094 1016.18,-81.5095 1016.18,-74.5095"/>
</g>
<!-- Node10 -->
<g id="node10" class="node"><title>Node10</title>
<g id="a_node10"><a xlink:href="../../d2/db8/class_menu.html#a3c99ad09e9f2f975c1a0d0597642651a" target="_top" xlink:title="Menu.init">
<polygon fill="white" stroke="black" points="1156,-68.5094 1156,-87.5094 1216,-87.5094 1216,-68.5094 1156,-68.5094"/>
<text text-anchor="middle" x="1186" y="-75.5094" font-family="Helvetica,sans-Serif" font-size="10.00">Menu.init</text>
</a>
</g>
</g>
<!-- Node9&#45;&gt;Node10 -->
<g id="edge11" class="edge"><title>Node9&#45;&gt;Node10</title>
<path fill="none" stroke="midnightblue" d="M1130.03,-78.0094C1138.89,-78.0094 1147.87,-78.0094 1155.95,-78.0094"/>
<polygon fill="midnightblue" stroke="midnightblue" points="1129.77,-74.5095 1119.77,-78.0094 1129.77,-81.5095 1129.77,-74.5095"/>
</g>
<!-- Node11 -->
<g id="node11" class="node"><title>Node11</title>
<g id="a_node11"><a xlink:href="../../d4/d2f/class_lose_screen.html#a34f2cc2c803500316c9b8d854854d758" target="_top" xlink:title="LoseScreen.init">
<polygon fill="white" stroke="black" points="1252,-106.509 1252,-125.509 1342,-125.509 1342,-106.509 1252,-106.509"/>
<text text-anchor="middle" x="1297" y="-113.509" font-family="Helvetica,sans-Serif" font-size="10.00">LoseScreen.init</text>
</a>
</g>
</g>
<!-- Node10&#45;&gt;Node11 -->
<g id="edge12" class="edge"><title>Node10&#45;&gt;Node11</title>
<path fill="none" stroke="midnightblue" d="M1224.21,-90.9812C1238.73,-96.0438 1255.08,-101.743 1268.5,-106.423"/>
<polygon fill="midnightblue" stroke="midnightblue" points="1225.1,-87.5855 1214.51,-87.5984 1222.8,-94.1953 1225.1,-87.5855"/>
</g>
<!-- Node14 -->
<g id="node14" class="node"><title>Node14</title>
<g id="a_node14"><a xlink:href="../../d1/de1/class_end_screen.html#a1264ffb72b3a3032443f9c4087222aef" target="_top" xlink:title="EndScreen.init">
<polygon fill="white" stroke="black" points="1254,-68.5094 1254,-87.5094 1340,-87.5094 1340,-68.5094 1254,-68.5094"/>
<text text-anchor="middle" x="1297" y="-75.5094" font-family="Helvetica,sans-Serif" font-size="10.00">EndScreen.init</text>
</a>
</g>
</g>
<!-- Node10&#45;&gt;Node14 -->
<g id="edge16" class="edge"><title>Node10&#45;&gt;Node14</title>
<path fill="none" stroke="midnightblue" d="M1226.29,-78.0094C1235.15,-78.0094 1244.6,-78.0094 1253.59,-78.0094"/>
<polygon fill="midnightblue" stroke="midnightblue" points="1226.21,-74.5095 1216.21,-78.0094 1226.21,-81.5095 1226.21,-74.5095"/>
</g>
<!-- Node16 -->
<g id="node16" class="node"><title>Node16</title>
<g id="a_node16"><a xlink:href="../../d0/d4b/class_main.html#a7595d13c514a02c35aca322dd91d2063" target="_top" xlink:title="Main.start">
<polygon fill="white" stroke="black" points="1264.5,-30.5094 1264.5,-49.5094 1329.5,-49.5094 1329.5,-30.5094 1264.5,-30.5094"/>
<text text-anchor="middle" x="1297" y="-37.5094" font-family="Helvetica,sans-Serif" font-size="10.00">Main.start</text>
</a>
</g>
</g>
<!-- Node10&#45;&gt;Node16 -->
<g id="edge18" class="edge"><title>Node10&#45;&gt;Node16</title>
<path fill="none" stroke="midnightblue" d="M1224.21,-65.0376C1238.73,-59.975 1255.08,-54.2753 1268.5,-49.5953"/>
<polygon fill="midnightblue" stroke="midnightblue" points="1222.8,-61.8235 1214.51,-68.4204 1225.1,-68.4333 1222.8,-61.8235"/>
</g>
<!-- Node12 -->
<g id="node12" class="node"><title>Node12</title>
<g id="a_node12"><a xlink:href="../../d6/d4f/class_item_box_world.html#a295cf7212ad54fa599e2a2d85ee0523d" target="_top" xlink:title="ItemBoxWorld.loseGame">
<polygon fill="white" stroke="black" points="1378,-106.509 1378,-125.509 1512,-125.509 1512,-106.509 1378,-106.509"/>
<text text-anchor="middle" x="1445" y="-113.509" font-family="Helvetica,sans-Serif" font-size="10.00">ItemBoxWorld.loseGame</text>
</a>
</g>
</g>
<!-- Node11&#45;&gt;Node12 -->
<g id="edge13" class="edge"><title>Node11&#45;&gt;Node12</title>
<path fill="none" stroke="midnightblue" d="M1352.47,-116.009C1360.75,-116.009 1369.37,-116.009 1377.86,-116.009"/>
<polygon fill="midnightblue" stroke="midnightblue" points="1352.2,-112.51 1342.2,-116.009 1352.2,-119.51 1352.2,-112.51"/>
</g>
<!-- Node13 -->
<g id="node13" class="node"><title>Node13</title>
<g id="a_node13"><a xlink:href="../../db/d97/class_box_world.html#a72bacb2a6757900d8835249929fcc838" target="_top" xlink:title="BoxWorld.loseGame">
<polygon fill="white" stroke="black" points="1389,-68.5094 1389,-87.5094 1501,-87.5094 1501,-68.5094 1389,-68.5094"/>
<text text-anchor="middle" x="1445" y="-75.5094" font-family="Helvetica,sans-Serif" font-size="10.00">BoxWorld.loseGame</text>
</a>
</g>
</g>
<!-- Node11&#45;&gt;Node13 -->
<g id="edge14" class="edge"><title>Node11&#45;&gt;Node13</title>
<path fill="none" stroke="midnightblue" d="M1344.54,-103.897C1364.87,-98.605 1388.37,-92.4881 1407.42,-87.5295"/>
<polygon fill="midnightblue" stroke="midnightblue" points="1343.64,-100.514 1334.84,-106.42 1345.4,-107.289 1343.64,-100.514"/>
</g>
<!-- Node13&#45;&gt;Node6 -->
<g id="edge15" class="edge"><title>Node13&#45;&gt;Node6</title>
<path fill="none" stroke="midnightblue" d="M1511.34,-78.0094C1523.23,-78.0094 1535.7,-78.0094 1547.78,-78.0094"/>
<polygon fill="midnightblue" stroke="midnightblue" points="1511.05,-74.5095 1501.05,-78.0094 1511.05,-81.5095 1511.05,-74.5095"/>
</g>
<!-- Node15 -->
<g id="node15" class="node"><title>Node15</title>
<g id="a_node15"><a xlink:href="../../d6/d4f/class_item_box_world.html#a2ed12a6b39993faedc05cc682204476d" target="_top" xlink:title="ItemBoxWorld.winLevel">
<polygon fill="white" stroke="black" points="1382.5,-30.5094 1382.5,-49.5094 1507.5,-49.5094 1507.5,-30.5094 1382.5,-30.5094"/>
<text text-anchor="middle" x="1445" y="-37.5094" font-family="Helvetica,sans-Serif" font-size="10.00">ItemBoxWorld.winLevel</text>
</a>
</g>
</g>
<!-- Node14&#45;&gt;Node15 -->
<g id="edge17" class="edge"><title>Node14&#45;&gt;Node15</title>
<path fill="none" stroke="midnightblue" d="M1344.54,-65.8973C1364.87,-60.605 1388.37,-54.4881 1407.42,-49.5295"/>
<polygon fill="midnightblue" stroke="midnightblue" points="1343.64,-62.5143 1334.84,-68.4204 1345.4,-69.2887 1343.64,-62.5143"/>
</g>
</g>
</svg>
