<?xml version="1.0" encoding="UTF-8" standalone="no"?>
<!DOCTYPE svg PUBLIC "-//W3C//DTD SVG 1.1//EN"
 "http://www.w3.org/Graphics/SVG/1.1/DTD/svg11.dtd">
<!-- Generated by graphviz version 2.36.0 (20140111.2315)
 -->
<!-- Title: StickyBox.getYDirection Pages: 1 -->
<svg width="2116pt" height="198pt"
 viewBox="0.00 0.00 2116.00 198.00" xmlns="http://www.w3.org/2000/svg" xmlns:xlink="http://www.w3.org/1999/xlink">
<g id="graph0" class="graph" transform="scale(1 1) rotate(0) translate(4 194)">
<title>StickyBox.getYDirection</title>
<polygon fill="white" stroke="none" points="-4,4 -4,-194 2112,-194 2112,4 -4,4"/>
<!-- Node1 -->
<g id="node1" class="node"><title>Node1</title>
<polygon fill="#bfbfbf" stroke="black" points="0,-123.5 0,-142.5 130,-142.5 130,-123.5 0,-123.5"/>
<text text-anchor="middle" x="65" y="-130.5" font-family="Helvetica,sans-Serif" font-size="10.00">StickyBox.getYDirection</text>
</g>
<!-- Node2 -->
<g id="node2" class="node"><title>Node2</title>
<g id="a_node2"><a xlink:href="../../db/d97/class_box_world.html#adc4c9d78ffde3d052c4c92047eb98e55" target="_top" xlink:title="BoxWorld.allowMovement">
<polygon fill="white" stroke="black" points="166.5,-85.5 166.5,-104.5 303.5,-104.5 303.5,-85.5 166.5,-85.5"/>
<text text-anchor="middle" x="235" y="-92.5" font-family="Helvetica,sans-Serif" font-size="10.00">BoxWorld.allowMovement</text>
</a>
</g>
</g>
<!-- Node1&#45;&gt;Node2 -->
<g id="edge1" class="edge"><title>Node1&#45;&gt;Node2</title>
<path fill="none" stroke="midnightblue" d="M118.276,-121.176C141.961,-115.818 169.59,-109.569 191.911,-104.52"/>
<polygon fill="midnightblue" stroke="midnightblue" points="117.375,-117.791 108.393,-123.411 118.919,-124.619 117.375,-117.791"/>
</g>
<!-- Node8 -->
<g id="node8" class="node"><title>Node8</title>
<g id="a_node8"><a xlink:href="../../db/d97/class_box_world.html#a6794c083c2a0263c2f585f4ae4b7e39c" target="_top" xlink:title="BoxWorld.updateSprites">
<polygon fill="white" stroke="black" points="1162.5,-104.5 1162.5,-123.5 1293.5,-123.5 1293.5,-104.5 1162.5,-104.5"/>
<text text-anchor="middle" x="1228" y="-111.5" font-family="Helvetica,sans-Serif" font-size="10.00">BoxWorld.updateSprites</text>
</a>
</g>
</g>
<!-- Node1&#45;&gt;Node8 -->
<g id="edge24" class="edge"><title>Node1&#45;&gt;Node8</title>
<path fill="none" stroke="midnightblue" d="M111.561,-145.019C179.067,-161.743 309.869,-190 423,-190 423,-190 423,-190 893,-190 1011.34,-190 1147.52,-144.076 1202.3,-123.625"/>
<polygon fill="midnightblue" stroke="midnightblue" points="112.228,-141.578 101.677,-142.541 110.525,-148.368 112.228,-141.578"/>
</g>
<!-- Node18 -->
<g id="node18" class="node"><title>Node18</title>
<g id="a_node18"><a xlink:href="../../db/d97/class_box_world.html#a55add11037cd6dc48556f2f42a9e11be" target="_top" xlink:title="BoxWorld.checkCollide">
<polygon fill="white" stroke="black" points="174,-123.5 174,-142.5 296,-142.5 296,-123.5 174,-123.5"/>
<text text-anchor="middle" x="235" y="-130.5" font-family="Helvetica,sans-Serif" font-size="10.00">BoxWorld.checkCollide</text>
</a>
</g>
</g>
<!-- Node1&#45;&gt;Node18 -->
<g id="edge21" class="edge"><title>Node1&#45;&gt;Node18</title>
<path fill="none" stroke="midnightblue" d="M140.6,-133C151.721,-133 163.064,-133 173.837,-133"/>
<polygon fill="midnightblue" stroke="midnightblue" points="140.473,-129.5 130.473,-133 140.473,-136.5 140.473,-129.5"/>
</g>
<!-- Node3 -->
<g id="node3" class="node"><title>Node3</title>
<g id="a_node3"><a xlink:href="../../db/d97/class_box_world.html#aa7e2049d7be23e15fd2ec7fa2922ed79" target="_top" xlink:title="BoxWorld.handleKeyInput">
<polygon fill="white" stroke="black" points="356,-66.5 356,-85.5 492,-85.5 492,-66.5 356,-66.5"/>
<text text-anchor="middle" x="424" y="-73.5" font-family="Helvetica,sans-Serif" font-size="10.00">BoxWorld.handleKeyInput</text>
</a>
</g>
</g>
<!-- Node2&#45;&gt;Node3 -->
<g id="edge2" class="edge"><title>Node2&#45;&gt;Node3</title>
<path fill="none" stroke="midnightblue" d="M313.628,-87.1127C327.666,-85.6864 342.196,-84.21 355.901,-82.8175"/>
<polygon fill="midnightblue" stroke="midnightblue" points="313.106,-83.6476 303.511,-88.1406 313.814,-90.6117 313.106,-83.6476"/>
</g>
<!-- Node4 -->
<g id="node4" class="node"><title>Node4</title>
<g id="a_node4"><a xlink:href="../../db/d97/class_box_world.html#a726e747e023543658d7a345cc6466ccb" target="_top" xlink:title="BoxWorld.createScene">
<polygon fill="white" stroke="black" points="544,-66.5 544,-85.5 668,-85.5 668,-66.5 544,-66.5"/>
<text text-anchor="middle" x="606" y="-73.5" font-family="Helvetica,sans-Serif" font-size="10.00">BoxWorld.createScene</text>
</a>
</g>
</g>
<!-- Node3&#45;&gt;Node4 -->
<g id="edge3" class="edge"><title>Node3&#45;&gt;Node4</title>
<path fill="none" stroke="midnightblue" d="M502.096,-76C516.056,-76 530.439,-76 543.864,-76"/>
<polygon fill="midnightblue" stroke="midnightblue" points="502.025,-72.5001 492.025,-76 502.025,-79.5001 502.025,-72.5001"/>
</g>
<!-- Node5 -->
<g id="node5" class="node"><title>Node5</title>
<g id="a_node5"><a xlink:href="../../d6/d4f/class_item_box_world.html#aa559fc2680327b41fb376e2eda8e82e3" target="_top" xlink:title="ItemBoxWorld.init">
<polygon fill="white" stroke="black" points="704.5,-66.5 704.5,-85.5 803.5,-85.5 803.5,-66.5 704.5,-66.5"/>
<text text-anchor="middle" x="754" y="-73.5" font-family="Helvetica,sans-Serif" font-size="10.00">ItemBoxWorld.init</text>
</a>
</g>
</g>
<!-- Node4&#45;&gt;Node5 -->
<g id="edge4" class="edge"><title>Node4&#45;&gt;Node5</title>
<path fill="none" stroke="midnightblue" d="M678.3,-76C687.052,-76 695.836,-76 704.149,-76"/>
<polygon fill="midnightblue" stroke="midnightblue" points="678.071,-72.5001 668.071,-76 678.071,-79.5001 678.071,-72.5001"/>
</g>
<!-- Node10 -->
<g id="node10" class="node"><title>Node10</title>
<g id="a_node10"><a xlink:href="../../db/d97/class_box_world.html#a55bf92d3f466bfaade0f6d199d8c9bd9" target="_top" xlink:title="BoxWorld.init">
<polygon fill="white" stroke="black" points="1452.5,-85.5 1452.5,-104.5 1529.5,-104.5 1529.5,-85.5 1452.5,-85.5"/>
<text text-anchor="middle" x="1491" y="-92.5" font-family="Helvetica,sans-Serif" font-size="10.00">BoxWorld.init</text>
</a>
</g>
</g>
<!-- Node4&#45;&gt;Node10 -->
<g id="edge20" class="edge"><title>Node4&#45;&gt;Node10</title>
<path fill="none" stroke="midnightblue" d="M637.331,-62.259C688.514,-40.3629 795.778,-1.42109e-14 891,-0 891,-0 891,-0 1054,-0 1213.2,-1.42109e-14 1397.76,-61.2163 1464.38,-85.3681"/>
<polygon fill="midnightblue" stroke="midnightblue" points="635.638,-59.1783 627.862,-66.3745 638.429,-65.5981 635.638,-59.1783"/>
</g>
<!-- Node6 -->
<g id="node6" class="node"><title>Node6</title>
<g id="a_node6"><a xlink:href="../../db/d97/class_box_world.html#aad670712776afe126e51791097027e05" target="_top" xlink:title="BoxWorld.winLevel">
<polygon fill="white" stroke="black" points="840.5,-104.5 840.5,-123.5 943.5,-123.5 943.5,-104.5 840.5,-104.5"/>
<text text-anchor="middle" x="892" y="-111.5" font-family="Helvetica,sans-Serif" font-size="10.00">BoxWorld.winLevel</text>
</a>
</g>
</g>
<!-- Node5&#45;&gt;Node6 -->
<g id="edge5" class="edge"><title>Node5&#45;&gt;Node6</title>
<path fill="none" stroke="midnightblue" d="M799.087,-88.3183C817.772,-93.5393 839.218,-99.5316 856.692,-104.414"/>
<polygon fill="midnightblue" stroke="midnightblue" points="799.892,-84.9092 789.319,-85.589 798.008,-91.651 799.892,-84.9092"/>
</g>
<!-- Node6&#45;&gt;Node3 -->
<g id="edge19" class="edge"><title>Node6&#45;&gt;Node3</title>
<path fill="none" stroke="midnightblue" d="M829.988,-112.571C760.563,-110.502 643.859,-105.677 544,-95 522.053,-92.6535 497.985,-89.0141 477.271,-85.5461"/>
<polygon fill="midnightblue" stroke="midnightblue" points="830.2,-116.079 840.297,-112.869 830.402,-109.082 830.2,-116.079"/>
</g>
<!-- Node7 -->
<g id="node7" class="node"><title>Node7</title>
<g id="a_node7"><a xlink:href="../../db/d97/class_box_world.html#a4079bed8937c9f621decfbe1309e31e2" target="_top" xlink:title="BoxWorld.checkAllCollisions">
<polygon fill="white" stroke="black" points="980,-104.5 980,-123.5 1126,-123.5 1126,-104.5 980,-104.5"/>
<text text-anchor="middle" x="1053" y="-111.5" font-family="Helvetica,sans-Serif" font-size="10.00">BoxWorld.checkAllCollisions</text>
</a>
</g>
</g>
<!-- Node6&#45;&gt;Node7 -->
<g id="edge6" class="edge"><title>Node6&#45;&gt;Node7</title>
<path fill="none" stroke="midnightblue" d="M953.879,-114C962.33,-114 971.079,-114 979.713,-114"/>
<polygon fill="midnightblue" stroke="midnightblue" points="953.746,-110.5 943.746,-114 953.746,-117.5 953.746,-110.5"/>
</g>
<!-- Node7&#45;&gt;Node8 -->
<g id="edge7" class="edge"><title>Node7&#45;&gt;Node8</title>
<path fill="none" stroke="midnightblue" d="M1136.35,-114C1145.12,-114 1153.94,-114 1162.45,-114"/>
<polygon fill="midnightblue" stroke="midnightblue" points="1136.11,-110.5 1126.11,-114 1136.11,-117.5 1136.11,-110.5"/>
</g>
<!-- Node9 -->
<g id="node9" class="node"><title>Node9</title>
<g id="a_node9"><a xlink:href="../../db/d97/class_box_world.html#ad20a4e43406c44f4bbf201d1d1028998" target="_top" xlink:title="BoxWorld.start">
<polygon fill="white" stroke="black" points="1330,-85.5 1330,-104.5 1416,-104.5 1416,-85.5 1330,-85.5"/>
<text text-anchor="middle" x="1373" y="-92.5" font-family="Helvetica,sans-Serif" font-size="10.00">BoxWorld.start</text>
</a>
</g>
</g>
<!-- Node8&#45;&gt;Node9 -->
<g id="edge8" class="edge"><title>Node8&#45;&gt;Node9</title>
<path fill="none" stroke="midnightblue" d="M1303.9,-104.049C1312.84,-102.861 1321.7,-101.683 1329.94,-100.588"/>
<polygon fill="midnightblue" stroke="midnightblue" points="1303.26,-100.603 1293.81,-105.389 1304.18,-107.542 1303.26,-100.603"/>
</g>
<!-- Node9&#45;&gt;Node5 -->
<g id="edge9" class="edge"><title>Node9&#45;&gt;Node5</title>
<path fill="none" stroke="midnightblue" d="M1319.45,-93.3817C1201.62,-89.7534 917.752,-81.0118 803.673,-77.4988"/>
<polygon fill="midnightblue" stroke="midnightblue" points="1319.55,-96.8864 1329.65,-93.696 1319.77,-89.8897 1319.55,-96.8864"/>
</g>
<!-- Node9&#45;&gt;Node10 -->
<g id="edge10" class="edge"><title>Node9&#45;&gt;Node10</title>
<path fill="none" stroke="midnightblue" d="M1426.33,-95C1435.06,-95 1443.97,-95 1452.24,-95"/>
<polygon fill="midnightblue" stroke="midnightblue" points="1426.21,-91.5001 1416.21,-95 1426.21,-98.5001 1426.21,-91.5001"/>
</g>
<!-- Node11 -->
<g id="node11" class="node"><title>Node11</title>
<g id="a_node11"><a xlink:href="../../d2/db8/class_menu.html#a3c99ad09e9f2f975c1a0d0597642651a" target="_top" xlink:title="Menu.init">
<polygon fill="white" stroke="black" points="1566,-85.5 1566,-104.5 1626,-104.5 1626,-85.5 1566,-85.5"/>
<text text-anchor="middle" x="1596" y="-92.5" font-family="Helvetica,sans-Serif" font-size="10.00">Menu.init</text>
</a>
</g>
</g>
<!-- Node10&#45;&gt;Node11 -->
<g id="edge11" class="edge"><title>Node10&#45;&gt;Node11</title>
<path fill="none" stroke="midnightblue" d="M1540.03,-95C1548.89,-95 1557.87,-95 1565.95,-95"/>
<polygon fill="midnightblue" stroke="midnightblue" points="1539.77,-91.5001 1529.77,-95 1539.77,-98.5001 1539.77,-91.5001"/>
</g>
<!-- Node12 -->
<g id="node12" class="node"><title>Node12</title>
<g id="a_node12"><a xlink:href="../../d1/de1/class_end_screen.html#a1264ffb72b3a3032443f9c4087222aef" target="_top" xlink:title="EndScreen.init">
<polygon fill="white" stroke="black" points="1664,-123.5 1664,-142.5 1750,-142.5 1750,-123.5 1664,-123.5"/>
<text text-anchor="middle" x="1707" y="-130.5" font-family="Helvetica,sans-Serif" font-size="10.00">EndScreen.init</text>
</a>
</g>
</g>
<!-- Node11&#45;&gt;Node12 -->
<g id="edge12" class="edge"><title>Node11&#45;&gt;Node12</title>
<path fill="none" stroke="midnightblue" d="M1634.21,-107.972C1648.73,-113.034 1665.08,-118.734 1678.5,-123.414"/>
<polygon fill="midnightblue" stroke="midnightblue" points="1635.1,-104.576 1624.51,-104.589 1632.8,-111.186 1635.1,-104.576"/>
</g>
<!-- Node15 -->
<g id="node15" class="node"><title>Node15</title>
<g id="a_node15"><a xlink:href="../../d4/d2f/class_lose_screen.html#a34f2cc2c803500316c9b8d854854d758" target="_top" xlink:title="LoseScreen.init">
<polygon fill="white" stroke="black" points="1662,-85.5 1662,-104.5 1752,-104.5 1752,-85.5 1662,-85.5"/>
<text text-anchor="middle" x="1707" y="-92.5" font-family="Helvetica,sans-Serif" font-size="10.00">LoseScreen.init</text>
</a>
</g>
</g>
<!-- Node11&#45;&gt;Node15 -->
<g id="edge15" class="edge"><title>Node11&#45;&gt;Node15</title>
<path fill="none" stroke="midnightblue" d="M1636.38,-95C1644.68,-95 1653.48,-95 1661.94,-95"/>
<polygon fill="midnightblue" stroke="midnightblue" points="1636.21,-91.5001 1626.21,-95 1636.21,-98.5001 1636.21,-91.5001"/>
</g>
<!-- Node17 -->
<g id="node17" class="node"><title>Node17</title>
<g id="a_node17"><a xlink:href="../../d0/d4b/class_main.html#a7595d13c514a02c35aca322dd91d2063" target="_top" xlink:title="Main.start">
<polygon fill="white" stroke="black" points="1674.5,-47.5 1674.5,-66.5 1739.5,-66.5 1739.5,-47.5 1674.5,-47.5"/>
<text text-anchor="middle" x="1707" y="-54.5" font-family="Helvetica,sans-Serif" font-size="10.00">Main.start</text>
</a>
</g>
</g>
<!-- Node11&#45;&gt;Node17 -->
<g id="edge18" class="edge"><title>Node11&#45;&gt;Node17</title>
<path fill="none" stroke="midnightblue" d="M1634.21,-82.0282C1648.73,-76.9656 1665.08,-71.2659 1678.5,-66.5859"/>
<polygon fill="midnightblue" stroke="midnightblue" points="1632.8,-78.8141 1624.51,-85.411 1635.1,-85.4239 1632.8,-78.8141"/>
</g>
<!-- Node13 -->
<g id="node13" class="node"><title>Node13</title>
<g id="a_node13"><a xlink:href="../../d6/d4f/class_item_box_world.html#a2ed12a6b39993faedc05cc682204476d" target="_top" xlink:title="ItemBoxWorld.winLevel">
<polygon fill="white" stroke="black" points="1788.5,-123.5 1788.5,-142.5 1913.5,-142.5 1913.5,-123.5 1788.5,-123.5"/>
<text text-anchor="middle" x="1851" y="-130.5" font-family="Helvetica,sans-Serif" font-size="10.00">ItemBoxWorld.winLevel</text>
</a>
</g>
</g>
<!-- Node12&#45;&gt;Node13 -->
<g id="edge13" class="edge"><title>Node12&#45;&gt;Node13</title>
<path fill="none" stroke="midnightblue" d="M1760.34,-133C1769.5,-133 1779.11,-133 1788.5,-133"/>
<polygon fill="midnightblue" stroke="midnightblue" points="1760.22,-129.5 1750.22,-133 1760.22,-136.5 1760.22,-129.5"/>
</g>
<!-- Node14 -->
<g id="node14" class="node"><title>Node14</title>
<g id="a_node14"><a xlink:href="../../d6/d4f/class_item_box_world.html#ae442d947b4dafc944336ee27628d2175" target="_top" xlink:title="ItemBoxWorld.handleKeyInput">
<polygon fill="white" stroke="black" points="1950,-123.5 1950,-142.5 2108,-142.5 2108,-123.5 1950,-123.5"/>
<text text-anchor="middle" x="2029" y="-130.5" font-family="Helvetica,sans-Serif" font-size="10.00">ItemBoxWorld.handleKeyInput</text>
</a>
</g>
</g>
<!-- Node13&#45;&gt;Node14 -->
<g id="edge14" class="edge"><title>Node13&#45;&gt;Node14</title>
<path fill="none" stroke="midnightblue" d="M1923.57,-133C1932.2,-133 1941.05,-133 1949.77,-133"/>
<polygon fill="midnightblue" stroke="midnightblue" points="1923.56,-129.5 1913.56,-133 1923.56,-136.5 1923.56,-129.5"/>
</g>
<!-- Node16 -->
<g id="node16" class="node"><title>Node16</title>
<g id="a_node16"><a xlink:href="../../db/d97/class_box_world.html#a72bacb2a6757900d8835249929fcc838" target="_top" xlink:title="BoxWorld.loseGame">
<polygon fill="white" stroke="black" points="1795,-47.5 1795,-66.5 1907,-66.5 1907,-47.5 1795,-47.5"/>
<text text-anchor="middle" x="1851" y="-54.5" font-family="Helvetica,sans-Serif" font-size="10.00">BoxWorld.loseGame</text>
</a>
</g>
</g>
<!-- Node15&#45;&gt;Node16 -->
<g id="edge16" class="edge"><title>Node15&#45;&gt;Node16</title>
<path fill="none" stroke="midnightblue" d="M1753.49,-82.8258C1773.13,-77.5713 1795.77,-71.5134 1814.18,-66.5859"/>
<polygon fill="midnightblue" stroke="midnightblue" points="1752.59,-79.4448 1743.83,-85.411 1754.4,-86.2069 1752.59,-79.4448"/>
</g>
<!-- Node16&#45;&gt;Node7 -->
<g id="edge17" class="edge"><title>Node16&#45;&gt;Node7</title>
<path fill="none" stroke="midnightblue" d="M1800.8,-45.167C1750.05,-34.0138 1668.47,-19 1597,-19 1490,-19 1490,-19 1490,-19 1330.8,-19 1146.24,-80.2163 1079.62,-104.368"/>
<polygon fill="midnightblue" stroke="midnightblue" points="1800.31,-48.6443 1810.83,-47.411 1801.84,-41.813 1800.31,-48.6443"/>
</g>
<!-- Node18&#45;&gt;Node7 -->
<g id="edge23" class="edge"><title>Node18&#45;&gt;Node7</title>
<path fill="none" stroke="midnightblue" d="M306.185,-138.766C380.379,-144.357 500.848,-152 605,-152 605,-152 605,-152 755,-152 844.54,-152 948.047,-134.796 1006.19,-123.54"/>
<polygon fill="midnightblue" stroke="midnightblue" points="306.267,-135.262 296.03,-137.992 305.735,-142.242 306.267,-135.262"/>
</g>
<!-- Node19 -->
<g id="node19" class="node"><title>Node19</title>
<g id="a_node19"><a xlink:href="../../d6/d4f/class_item_box_world.html#ad8a9b79d31264f523f05ed43aa490f0f" target="_top" xlink:title="ItemBoxWorld.checkAllCollisions">
<polygon fill="white" stroke="black" points="340,-104.5 340,-123.5 508,-123.5 508,-104.5 340,-104.5"/>
<text text-anchor="middle" x="424" y="-111.5" font-family="Helvetica,sans-Serif" font-size="10.00">ItemBoxWorld.checkAllCollisions</text>
</a>
</g>
</g>
<!-- Node18&#45;&gt;Node19 -->
<g id="edge22" class="edge"><title>Node18&#45;&gt;Node19</title>
<path fill="none" stroke="midnightblue" d="M306.459,-125.841C317.326,-124.737 328.636,-123.588 339.75,-122.459"/>
<polygon fill="midnightblue" stroke="midnightblue" points="305.792,-122.391 296.197,-126.884 306.5,-129.355 305.792,-122.391"/>
</g>
</g>
</svg>
