<?xml version="1.0" encoding="UTF-8" standalone="no"?>
<!DOCTYPE svg PUBLIC "-//W3C//DTD SVG 1.1//EN"
 "http://www.w3.org/Graphics/SVG/1.1/DTD/svg11.dtd">
<!-- Generated by graphviz version 2.36.0 (20140111.2315)
 -->
<!-- Title: StickyBox.getYPrev Pages: 1 -->
<svg width="2062pt" height="132pt"
 viewBox="0.00 0.00 2062.00 132.00" xmlns="http://www.w3.org/2000/svg" xmlns:xlink="http://www.w3.org/1999/xlink">
<g id="graph0" class="graph" transform="scale(1 1) rotate(0) translate(4 128)">
<title>StickyBox.getYPrev</title>
<polygon fill="white" stroke="none" points="-4,4 -4,-128 2058,-128 2058,4 -4,4"/>
<!-- Node1 -->
<g id="node1" class="node"><title>Node1</title>
<polygon fill="#bfbfbf" stroke="black" points="0,-47.5 0,-66.5 108,-66.5 108,-47.5 0,-47.5"/>
<text text-anchor="middle" x="54" y="-54.5" font-family="Helvetica,sans-Serif" font-size="10.00">StickyBox.getYPrev</text>
</g>
<!-- Node2 -->
<g id="node2" class="node"><title>Node2</title>
<g id="a_node2"><a xlink:href="../../db/d97/class_box_world.html#adc4c9d78ffde3d052c4c92047eb98e55" target="_top" xlink:title="BoxWorld.allowMovement">
<polygon fill="white" stroke="black" points="144.5,-47.5 144.5,-66.5 281.5,-66.5 281.5,-47.5 144.5,-47.5"/>
<text text-anchor="middle" x="213" y="-54.5" font-family="Helvetica,sans-Serif" font-size="10.00">BoxWorld.allowMovement</text>
</a>
</g>
</g>
<!-- Node1&#45;&gt;Node2 -->
<g id="edge1" class="edge"><title>Node1&#45;&gt;Node2</title>
<path fill="none" stroke="midnightblue" d="M118.157,-57C126.803,-57 135.708,-57 144.428,-57"/>
<polygon fill="midnightblue" stroke="midnightblue" points="118.153,-53.5001 108.153,-57 118.153,-60.5001 118.153,-53.5001"/>
</g>
<!-- Node3 -->
<g id="node3" class="node"><title>Node3</title>
<g id="a_node3"><a xlink:href="../../db/d97/class_box_world.html#aa7e2049d7be23e15fd2ec7fa2922ed79" target="_top" xlink:title="BoxWorld.handleKeyInput">
<polygon fill="white" stroke="black" points="318,-47.5 318,-66.5 454,-66.5 454,-47.5 318,-47.5"/>
<text text-anchor="middle" x="386" y="-54.5" font-family="Helvetica,sans-Serif" font-size="10.00">BoxWorld.handleKeyInput</text>
</a>
</g>
</g>
<!-- Node2&#45;&gt;Node3 -->
<g id="edge2" class="edge"><title>Node2&#45;&gt;Node3</title>
<path fill="none" stroke="midnightblue" d="M291.76,-57C300.49,-57 309.328,-57 317.907,-57"/>
<polygon fill="midnightblue" stroke="midnightblue" points="291.584,-53.5001 281.584,-57 291.584,-60.5001 291.584,-53.5001"/>
</g>
<!-- Node4 -->
<g id="node4" class="node"><title>Node4</title>
<g id="a_node4"><a xlink:href="../../db/d97/class_box_world.html#a726e747e023543658d7a345cc6466ccb" target="_top" xlink:title="BoxWorld.createScene">
<polygon fill="white" stroke="black" points="490,-66.5 490,-85.5 614,-85.5 614,-66.5 490,-66.5"/>
<text text-anchor="middle" x="552" y="-73.5" font-family="Helvetica,sans-Serif" font-size="10.00">BoxWorld.createScene</text>
</a>
</g>
</g>
<!-- Node3&#45;&gt;Node4 -->
<g id="edge3" class="edge"><title>Node3&#45;&gt;Node4</title>
<path fill="none" stroke="midnightblue" d="M464.258,-65.9506C472.892,-66.9509 481.596,-67.9592 489.985,-68.9312"/>
<polygon fill="midnightblue" stroke="midnightblue" points="464.515,-62.457 454.178,-64.7828 463.709,-69.4105 464.515,-62.457"/>
</g>
<!-- Node5 -->
<g id="node5" class="node"><title>Node5</title>
<g id="a_node5"><a xlink:href="../../d6/d4f/class_item_box_world.html#aa559fc2680327b41fb376e2eda8e82e3" target="_top" xlink:title="ItemBoxWorld.init">
<polygon fill="white" stroke="black" points="650.5,-66.5 650.5,-85.5 749.5,-85.5 749.5,-66.5 650.5,-66.5"/>
<text text-anchor="middle" x="700" y="-73.5" font-family="Helvetica,sans-Serif" font-size="10.00">ItemBoxWorld.init</text>
</a>
</g>
</g>
<!-- Node4&#45;&gt;Node5 -->
<g id="edge4" class="edge"><title>Node4&#45;&gt;Node5</title>
<path fill="none" stroke="midnightblue" d="M624.3,-76C633.052,-76 641.836,-76 650.149,-76"/>
<polygon fill="midnightblue" stroke="midnightblue" points="624.071,-72.5001 614.071,-76 624.071,-79.5001 624.071,-72.5001"/>
</g>
<!-- Node10 -->
<g id="node10" class="node"><title>Node10</title>
<g id="a_node10"><a xlink:href="../../db/d97/class_box_world.html#a55bf92d3f466bfaade0f6d199d8c9bd9" target="_top" xlink:title="BoxWorld.init">
<polygon fill="white" stroke="black" points="1398.5,-66.5 1398.5,-85.5 1475.5,-85.5 1475.5,-66.5 1398.5,-66.5"/>
<text text-anchor="middle" x="1437" y="-73.5" font-family="Helvetica,sans-Serif" font-size="10.00">BoxWorld.init</text>
</a>
</g>
</g>
<!-- Node4&#45;&gt;Node10 -->
<g id="edge20" class="edge"><title>Node4&#45;&gt;Node10</title>
<path fill="none" stroke="midnightblue" d="M606.885,-87.5544C663.797,-98.7344 756.285,-114 837,-114 837,-114 837,-114 1175,-114 1258.54,-114 1279.76,-109.651 1362,-95 1375.58,-92.5807 1390.34,-88.9914 1403.08,-85.5819"/>
<polygon fill="midnightblue" stroke="midnightblue" points="607.52,-84.1122 597.029,-85.589 606.151,-90.9771 607.52,-84.1122"/>
</g>
<!-- Node6 -->
<g id="node6" class="node"><title>Node6</title>
<g id="a_node6"><a xlink:href="../../db/d97/class_box_world.html#aad670712776afe126e51791097027e05" target="_top" xlink:title="BoxWorld.winLevel">
<polygon fill="white" stroke="black" points="786.5,-28.5 786.5,-47.5 889.5,-47.5 889.5,-28.5 786.5,-28.5"/>
<text text-anchor="middle" x="838" y="-35.5" font-family="Helvetica,sans-Serif" font-size="10.00">BoxWorld.winLevel</text>
</a>
</g>
</g>
<!-- Node5&#45;&gt;Node6 -->
<g id="edge5" class="edge"><title>Node5&#45;&gt;Node6</title>
<path fill="none" stroke="midnightblue" d="M745.087,-63.6817C763.772,-58.4607 785.218,-52.4684 802.692,-47.5859"/>
<polygon fill="midnightblue" stroke="midnightblue" points="744.008,-60.349 735.319,-66.411 745.892,-67.0908 744.008,-60.349"/>
</g>
<!-- Node6&#45;&gt;Node3 -->
<g id="edge19" class="edge"><title>Node6&#45;&gt;Node3</title>
<path fill="none" stroke="midnightblue" d="M776.155,-40.569C692.262,-44.1111 541.574,-50.4736 454.37,-54.1555"/>
<polygon fill="midnightblue" stroke="midnightblue" points="776.451,-44.0597 786.294,-40.1409 776.155,-37.066 776.451,-44.0597"/>
</g>
<!-- Node7 -->
<g id="node7" class="node"><title>Node7</title>
<g id="a_node7"><a xlink:href="../../db/d97/class_box_world.html#a4079bed8937c9f621decfbe1309e31e2" target="_top" xlink:title="BoxWorld.checkAllCollisions">
<polygon fill="white" stroke="black" points="926,-28.5 926,-47.5 1072,-47.5 1072,-28.5 926,-28.5"/>
<text text-anchor="middle" x="999" y="-35.5" font-family="Helvetica,sans-Serif" font-size="10.00">BoxWorld.checkAllCollisions</text>
</a>
</g>
</g>
<!-- Node6&#45;&gt;Node7 -->
<g id="edge6" class="edge"><title>Node6&#45;&gt;Node7</title>
<path fill="none" stroke="midnightblue" d="M899.879,-38C908.33,-38 917.079,-38 925.713,-38"/>
<polygon fill="midnightblue" stroke="midnightblue" points="899.746,-34.5001 889.746,-38 899.746,-41.5001 899.746,-34.5001"/>
</g>
<!-- Node8 -->
<g id="node8" class="node"><title>Node8</title>
<g id="a_node8"><a xlink:href="../../db/d97/class_box_world.html#a6794c083c2a0263c2f585f4ae4b7e39c" target="_top" xlink:title="BoxWorld.updateSprites">
<polygon fill="white" stroke="black" points="1108.5,-28.5 1108.5,-47.5 1239.5,-47.5 1239.5,-28.5 1108.5,-28.5"/>
<text text-anchor="middle" x="1174" y="-35.5" font-family="Helvetica,sans-Serif" font-size="10.00">BoxWorld.updateSprites</text>
</a>
</g>
</g>
<!-- Node7&#45;&gt;Node8 -->
<g id="edge7" class="edge"><title>Node7&#45;&gt;Node8</title>
<path fill="none" stroke="midnightblue" d="M1082.35,-38C1091.12,-38 1099.94,-38 1108.45,-38"/>
<polygon fill="midnightblue" stroke="midnightblue" points="1082.11,-34.5001 1072.11,-38 1082.11,-41.5001 1082.11,-34.5001"/>
</g>
<!-- Node9 -->
<g id="node9" class="node"><title>Node9</title>
<g id="a_node9"><a xlink:href="../../db/d97/class_box_world.html#ad20a4e43406c44f4bbf201d1d1028998" target="_top" xlink:title="BoxWorld.start">
<polygon fill="white" stroke="black" points="1276,-66.5 1276,-85.5 1362,-85.5 1362,-66.5 1276,-66.5"/>
<text text-anchor="middle" x="1319" y="-73.5" font-family="Helvetica,sans-Serif" font-size="10.00">BoxWorld.start</text>
</a>
</g>
</g>
<!-- Node8&#45;&gt;Node9 -->
<g id="edge8" class="edge"><title>Node8&#45;&gt;Node9</title>
<path fill="none" stroke="midnightblue" d="M1220.81,-50.1742C1240.59,-55.4287 1263.38,-61.4866 1281.93,-66.4141"/>
<polygon fill="midnightblue" stroke="midnightblue" points="1221.65,-46.7747 1211.08,-47.589 1219.85,-53.5399 1221.65,-46.7747"/>
</g>
<!-- Node9&#45;&gt;Node5 -->
<g id="edge9" class="edge"><title>Node9&#45;&gt;Node5</title>
<path fill="none" stroke="midnightblue" d="M1265.45,-76C1147.62,-76 863.752,-76 749.673,-76"/>
<polygon fill="midnightblue" stroke="midnightblue" points="1265.65,-79.5001 1275.65,-76 1265.65,-72.5001 1265.65,-79.5001"/>
</g>
<!-- Node9&#45;&gt;Node10 -->
<g id="edge10" class="edge"><title>Node9&#45;&gt;Node10</title>
<path fill="none" stroke="midnightblue" d="M1372.33,-76C1381.06,-76 1389.97,-76 1398.24,-76"/>
<polygon fill="midnightblue" stroke="midnightblue" points="1372.21,-72.5001 1362.21,-76 1372.21,-79.5001 1372.21,-72.5001"/>
</g>
<!-- Node11 -->
<g id="node11" class="node"><title>Node11</title>
<g id="a_node11"><a xlink:href="../../d2/db8/class_menu.html#a3c99ad09e9f2f975c1a0d0597642651a" target="_top" xlink:title="Menu.init">
<polygon fill="white" stroke="black" points="1512,-66.5 1512,-85.5 1572,-85.5 1572,-66.5 1512,-66.5"/>
<text text-anchor="middle" x="1542" y="-73.5" font-family="Helvetica,sans-Serif" font-size="10.00">Menu.init</text>
</a>
</g>
</g>
<!-- Node10&#45;&gt;Node11 -->
<g id="edge11" class="edge"><title>Node10&#45;&gt;Node11</title>
<path fill="none" stroke="midnightblue" d="M1486.03,-76C1494.89,-76 1503.87,-76 1511.95,-76"/>
<polygon fill="midnightblue" stroke="midnightblue" points="1485.77,-72.5001 1475.77,-76 1485.77,-79.5001 1485.77,-72.5001"/>
</g>
<!-- Node12 -->
<g id="node12" class="node"><title>Node12</title>
<g id="a_node12"><a xlink:href="../../d1/de1/class_end_screen.html#a1264ffb72b3a3032443f9c4087222aef" target="_top" xlink:title="EndScreen.init">
<polygon fill="white" stroke="black" points="1610,-66.5 1610,-85.5 1696,-85.5 1696,-66.5 1610,-66.5"/>
<text text-anchor="middle" x="1653" y="-73.5" font-family="Helvetica,sans-Serif" font-size="10.00">EndScreen.init</text>
</a>
</g>
</g>
<!-- Node11&#45;&gt;Node12 -->
<g id="edge12" class="edge"><title>Node11&#45;&gt;Node12</title>
<path fill="none" stroke="midnightblue" d="M1582.29,-76C1591.15,-76 1600.6,-76 1609.59,-76"/>
<polygon fill="midnightblue" stroke="midnightblue" points="1582.21,-72.5001 1572.21,-76 1582.21,-79.5001 1582.21,-72.5001"/>
</g>
<!-- Node15 -->
<g id="node15" class="node"><title>Node15</title>
<g id="a_node15"><a xlink:href="../../d4/d2f/class_lose_screen.html#a34f2cc2c803500316c9b8d854854d758" target="_top" xlink:title="LoseScreen.init">
<polygon fill="white" stroke="black" points="1608,-28.5 1608,-47.5 1698,-47.5 1698,-28.5 1608,-28.5"/>
<text text-anchor="middle" x="1653" y="-35.5" font-family="Helvetica,sans-Serif" font-size="10.00">LoseScreen.init</text>
</a>
</g>
</g>
<!-- Node11&#45;&gt;Node15 -->
<g id="edge15" class="edge"><title>Node11&#45;&gt;Node15</title>
<path fill="none" stroke="midnightblue" d="M1580.21,-63.0282C1594.73,-57.9656 1611.08,-52.2659 1624.5,-47.5859"/>
<polygon fill="midnightblue" stroke="midnightblue" points="1578.8,-59.8141 1570.51,-66.411 1581.1,-66.4239 1578.8,-59.8141"/>
</g>
<!-- Node17 -->
<g id="node17" class="node"><title>Node17</title>
<g id="a_node17"><a xlink:href="../../d0/d4b/class_main.html#a7595d13c514a02c35aca322dd91d2063" target="_top" xlink:title="Main.start">
<polygon fill="white" stroke="black" points="1620.5,-104.5 1620.5,-123.5 1685.5,-123.5 1685.5,-104.5 1620.5,-104.5"/>
<text text-anchor="middle" x="1653" y="-111.5" font-family="Helvetica,sans-Serif" font-size="10.00">Main.start</text>
</a>
</g>
</g>
<!-- Node11&#45;&gt;Node17 -->
<g id="edge18" class="edge"><title>Node11&#45;&gt;Node17</title>
<path fill="none" stroke="midnightblue" d="M1580.21,-88.9718C1594.73,-94.0344 1611.08,-99.7341 1624.5,-104.414"/>
<polygon fill="midnightblue" stroke="midnightblue" points="1581.1,-85.5761 1570.51,-85.589 1578.8,-92.1859 1581.1,-85.5761"/>
</g>
<!-- Node13 -->
<g id="node13" class="node"><title>Node13</title>
<g id="a_node13"><a xlink:href="../../d6/d4f/class_item_box_world.html#a2ed12a6b39993faedc05cc682204476d" target="_top" xlink:title="ItemBoxWorld.winLevel">
<polygon fill="white" stroke="black" points="1734.5,-66.5 1734.5,-85.5 1859.5,-85.5 1859.5,-66.5 1734.5,-66.5"/>
<text text-anchor="middle" x="1797" y="-73.5" font-family="Helvetica,sans-Serif" font-size="10.00">ItemBoxWorld.winLevel</text>
</a>
</g>
</g>
<!-- Node12&#45;&gt;Node13 -->
<g id="edge13" class="edge"><title>Node12&#45;&gt;Node13</title>
<path fill="none" stroke="midnightblue" d="M1706.34,-76C1715.5,-76 1725.11,-76 1734.5,-76"/>
<polygon fill="midnightblue" stroke="midnightblue" points="1706.22,-72.5001 1696.22,-76 1706.22,-79.5001 1706.22,-72.5001"/>
</g>
<!-- Node14 -->
<g id="node14" class="node"><title>Node14</title>
<g id="a_node14"><a xlink:href="../../d6/d4f/class_item_box_world.html#ae442d947b4dafc944336ee27628d2175" target="_top" xlink:title="ItemBoxWorld.handleKeyInput">
<polygon fill="white" stroke="black" points="1896,-66.5 1896,-85.5 2054,-85.5 2054,-66.5 1896,-66.5"/>
<text text-anchor="middle" x="1975" y="-73.5" font-family="Helvetica,sans-Serif" font-size="10.00">ItemBoxWorld.handleKeyInput</text>
</a>
</g>
</g>
<!-- Node13&#45;&gt;Node14 -->
<g id="edge14" class="edge"><title>Node13&#45;&gt;Node14</title>
<path fill="none" stroke="midnightblue" d="M1869.57,-76C1878.2,-76 1887.05,-76 1895.77,-76"/>
<polygon fill="midnightblue" stroke="midnightblue" points="1869.56,-72.5001 1859.56,-76 1869.56,-79.5001 1869.56,-72.5001"/>
</g>
<!-- Node16 -->
<g id="node16" class="node"><title>Node16</title>
<g id="a_node16"><a xlink:href="../../db/d97/class_box_world.html#a72bacb2a6757900d8835249929fcc838" target="_top" xlink:title="BoxWorld.loseGame">
<polygon fill="white" stroke="black" points="1741,-9.5 1741,-28.5 1853,-28.5 1853,-9.5 1741,-9.5"/>
<text text-anchor="middle" x="1797" y="-16.5" font-family="Helvetica,sans-Serif" font-size="10.00">BoxWorld.loseGame</text>
</a>
</g>
</g>
<!-- Node15&#45;&gt;Node16 -->
<g id="edge16" class="edge"><title>Node15&#45;&gt;Node16</title>
<path fill="none" stroke="midnightblue" d="M1708.2,-30.7473C1718.9,-29.3165 1730.13,-27.8135 1740.85,-26.3786"/>
<polygon fill="midnightblue" stroke="midnightblue" points="1707.6,-27.2971 1698.15,-32.0924 1708.53,-34.2352 1707.6,-27.2971"/>
</g>
<!-- Node16&#45;&gt;Node7 -->
<g id="edge17" class="edge"><title>Node16&#45;&gt;Node7</title>
<path fill="none" stroke="midnightblue" d="M1730.59,-11.3825C1679.56,-6.09633 1606.87,-0 1543,-0 1318,-0 1318,-0 1318,-0 1222.23,-1.42109e-14 1111.37,-17.2037 1049.08,-28.46"/>
<polygon fill="midnightblue" stroke="midnightblue" points="1730.5,-14.8929 1740.81,-12.4613 1731.24,-7.93152 1730.5,-14.8929"/>
</g>
</g>
</svg>
