<?xml version="1.0" encoding="UTF-8" standalone="no"?>
<!DOCTYPE svg PUBLIC "-//W3C//DTD SVG 1.1//EN"
 "http://www.w3.org/Graphics/SVG/1.1/DTD/svg11.dtd">
<!-- Generated by graphviz version 2.36.0 (20140111.2315)
 -->
<!-- Title: StickyBox.getYPrev Pages: 1 -->
<svg width="1876pt" height="142pt"
 viewBox="0.00 0.00 1876.00 142.00" xmlns="http://www.w3.org/2000/svg" xmlns:xlink="http://www.w3.org/1999/xlink">
<g id="graph0" class="graph" transform="scale(1 1) rotate(0) translate(4 138)">
<title>StickyBox.getYPrev</title>
<polygon fill="white" stroke="none" points="-4,4 -4,-138 1872,-138 1872,4 -4,4"/>
<!-- Node1 -->
<g id="node1" class="node"><title>Node1</title>
<polygon fill="#bfbfbf" stroke="black" points="0,-57.5 0,-76.5 108,-76.5 108,-57.5 0,-57.5"/>
<text text-anchor="middle" x="54" y="-64.5" font-family="Helvetica,sans-Serif" font-size="10.00">StickyBox.getYPrev</text>
</g>
<!-- Node2 -->
<g id="node2" class="node"><title>Node2</title>
<g id="a_node2"><a xlink:href="../../db/d97/class_box_world.html#adc4c9d78ffde3d052c4c92047eb98e55" target="_top" xlink:title="BoxWorld.allowMovement">
<polygon fill="white" stroke="black" points="144.5,-57.5 144.5,-76.5 281.5,-76.5 281.5,-57.5 144.5,-57.5"/>
<text text-anchor="middle" x="213" y="-64.5" font-family="Helvetica,sans-Serif" font-size="10.00">BoxWorld.allowMovement</text>
</a>
</g>
</g>
<!-- Node1&#45;&gt;Node2 -->
<g id="edge1" class="edge"><title>Node1&#45;&gt;Node2</title>
<path fill="none" stroke="midnightblue" d="M118.157,-67C126.803,-67 135.708,-67 144.428,-67"/>
<polygon fill="midnightblue" stroke="midnightblue" points="118.153,-63.5001 108.153,-67 118.153,-70.5001 118.153,-63.5001"/>
</g>
<!-- Node3 -->
<g id="node3" class="node"><title>Node3</title>
<g id="a_node3"><a xlink:href="../../db/d97/class_box_world.html#aa7e2049d7be23e15fd2ec7fa2922ed79" target="_top" xlink:title="BoxWorld.handleKeyInput">
<polygon fill="white" stroke="black" points="318,-57.5 318,-76.5 454,-76.5 454,-57.5 318,-57.5"/>
<text text-anchor="middle" x="386" y="-64.5" font-family="Helvetica,sans-Serif" font-size="10.00">BoxWorld.handleKeyInput</text>
</a>
</g>
</g>
<!-- Node2&#45;&gt;Node3 -->
<g id="edge2" class="edge"><title>Node2&#45;&gt;Node3</title>
<path fill="none" stroke="midnightblue" d="M291.76,-67C300.49,-67 309.328,-67 317.907,-67"/>
<polygon fill="midnightblue" stroke="midnightblue" points="291.584,-63.5001 281.584,-67 291.584,-70.5001 291.584,-63.5001"/>
</g>
<!-- Node4 -->
<g id="node4" class="node"><title>Node4</title>
<g id="a_node4"><a xlink:href="../../db/d97/class_box_world.html#a726e747e023543658d7a345cc6466ccb" target="_top" xlink:title="BoxWorld.createScene">
<polygon fill="white" stroke="black" points="490,-76.5 490,-95.5 614,-95.5 614,-76.5 490,-76.5"/>
<text text-anchor="middle" x="552" y="-83.5" font-family="Helvetica,sans-Serif" font-size="10.00">BoxWorld.createScene</text>
</a>
</g>
</g>
<!-- Node3&#45;&gt;Node4 -->
<g id="edge3" class="edge"><title>Node3&#45;&gt;Node4</title>
<path fill="none" stroke="midnightblue" d="M464.258,-75.9506C472.892,-76.9509 481.596,-77.9592 489.985,-78.9312"/>
<polygon fill="midnightblue" stroke="midnightblue" points="464.515,-72.457 454.178,-74.7828 463.709,-79.4105 464.515,-72.457"/>
</g>
<!-- Node5 -->
<g id="node5" class="node"><title>Node5</title>
<g id="a_node5"><a xlink:href="../../d6/d4f/class_item_box_world.html#aa559fc2680327b41fb376e2eda8e82e3" target="_top" xlink:title="ItemBoxWorld.init">
<polygon fill="white" stroke="black" points="650.5,-76.5 650.5,-95.5 749.5,-95.5 749.5,-76.5 650.5,-76.5"/>
<text text-anchor="middle" x="700" y="-83.5" font-family="Helvetica,sans-Serif" font-size="10.00">ItemBoxWorld.init</text>
</a>
</g>
</g>
<!-- Node4&#45;&gt;Node5 -->
<g id="edge4" class="edge"><title>Node4&#45;&gt;Node5</title>
<path fill="none" stroke="midnightblue" d="M624.3,-86C633.052,-86 641.836,-86 650.149,-86"/>
<polygon fill="midnightblue" stroke="midnightblue" points="624.071,-82.5001 614.071,-86 624.071,-89.5001 624.071,-82.5001"/>
</g>
<!-- Node10 -->
<g id="node10" class="node"><title>Node10</title>
<g id="a_node10"><a xlink:href="../../db/d97/class_box_world.html#a55bf92d3f466bfaade0f6d199d8c9bd9" target="_top" xlink:title="BoxWorld.init">
<polygon fill="white" stroke="black" points="1398.5,-76.5 1398.5,-95.5 1475.5,-95.5 1475.5,-76.5 1398.5,-76.5"/>
<text text-anchor="middle" x="1437" y="-83.5" font-family="Helvetica,sans-Serif" font-size="10.00">BoxWorld.init</text>
</a>
</g>
</g>
<!-- Node4&#45;&gt;Node10 -->
<g id="edge20" class="edge"><title>Node4&#45;&gt;Node10</title>
<path fill="none" stroke="midnightblue" d="M606.885,-97.5544C663.797,-108.734 756.285,-124 837,-124 837,-124 837,-124 1175,-124 1258.54,-124 1279.76,-119.651 1362,-105 1375.58,-102.581 1390.34,-98.9914 1403.08,-95.5819"/>
<polygon fill="midnightblue" stroke="midnightblue" points="607.52,-94.1122 597.029,-95.589 606.151,-100.977 607.52,-94.1122"/>
</g>
<!-- Node6 -->
<g id="node6" class="node"><title>Node6</title>
<g id="a_node6"><a xlink:href="../../db/d97/class_box_world.html#aad670712776afe126e51791097027e05" target="_top" xlink:title="BoxWorld.winLevel">
<polygon fill="white" stroke="black" points="786.5,-38.5 786.5,-57.5 889.5,-57.5 889.5,-38.5 786.5,-38.5"/>
<text text-anchor="middle" x="838" y="-45.5" font-family="Helvetica,sans-Serif" font-size="10.00">BoxWorld.winLevel</text>
</a>
</g>
</g>
<!-- Node5&#45;&gt;Node6 -->
<g id="edge5" class="edge"><title>Node5&#45;&gt;Node6</title>
<path fill="none" stroke="midnightblue" d="M745.087,-73.6817C763.772,-68.4607 785.218,-62.4684 802.692,-57.5859"/>
<polygon fill="midnightblue" stroke="midnightblue" points="744.008,-70.349 735.319,-76.411 745.892,-77.0908 744.008,-70.349"/>
</g>
<!-- Node6&#45;&gt;Node3 -->
<g id="edge19" class="edge"><title>Node6&#45;&gt;Node3</title>
<path fill="none" stroke="midnightblue" d="M776.155,-50.569C692.262,-54.1111 541.574,-60.4736 454.37,-64.1555"/>
<polygon fill="midnightblue" stroke="midnightblue" points="776.451,-54.0597 786.294,-50.1409 776.155,-47.066 776.451,-54.0597"/>
</g>
<!-- Node7 -->
<g id="node7" class="node"><title>Node7</title>
<g id="a_node7"><a xlink:href="../../db/d97/class_box_world.html#a4079bed8937c9f621decfbe1309e31e2" target="_top" xlink:title="BoxWorld.checkAllCollisions">
<polygon fill="white" stroke="black" points="926,-38.5 926,-57.5 1072,-57.5 1072,-38.5 926,-38.5"/>
<text text-anchor="middle" x="999" y="-45.5" font-family="Helvetica,sans-Serif" font-size="10.00">BoxWorld.checkAllCollisions</text>
</a>
</g>
</g>
<!-- Node6&#45;&gt;Node7 -->
<g id="edge6" class="edge"><title>Node6&#45;&gt;Node7</title>
<path fill="none" stroke="midnightblue" d="M899.879,-48C908.33,-48 917.079,-48 925.713,-48"/>
<polygon fill="midnightblue" stroke="midnightblue" points="899.746,-44.5001 889.746,-48 899.746,-51.5001 899.746,-44.5001"/>
</g>
<!-- Node8 -->
<g id="node8" class="node"><title>Node8</title>
<g id="a_node8"><a xlink:href="../../db/d97/class_box_world.html#a6794c083c2a0263c2f585f4ae4b7e39c" target="_top" xlink:title="BoxWorld.updateSprites">
<polygon fill="white" stroke="black" points="1108.5,-38.5 1108.5,-57.5 1239.5,-57.5 1239.5,-38.5 1108.5,-38.5"/>
<text text-anchor="middle" x="1174" y="-45.5" font-family="Helvetica,sans-Serif" font-size="10.00">BoxWorld.updateSprites</text>
</a>
</g>
</g>
<!-- Node7&#45;&gt;Node8 -->
<g id="edge7" class="edge"><title>Node7&#45;&gt;Node8</title>
<path fill="none" stroke="midnightblue" d="M1082.35,-48C1091.12,-48 1099.94,-48 1108.45,-48"/>
<polygon fill="midnightblue" stroke="midnightblue" points="1082.11,-44.5001 1072.11,-48 1082.11,-51.5001 1082.11,-44.5001"/>
</g>
<!-- Node9 -->
<g id="node9" class="node"><title>Node9</title>
<g id="a_node9"><a xlink:href="../../db/d97/class_box_world.html#ad20a4e43406c44f4bbf201d1d1028998" target="_top" xlink:title="BoxWorld.start">
<polygon fill="white" stroke="black" points="1276,-76.5 1276,-95.5 1362,-95.5 1362,-76.5 1276,-76.5"/>
<text text-anchor="middle" x="1319" y="-83.5" font-family="Helvetica,sans-Serif" font-size="10.00">BoxWorld.start</text>
</a>
</g>
</g>
<!-- Node8&#45;&gt;Node9 -->
<g id="edge8" class="edge"><title>Node8&#45;&gt;Node9</title>
<path fill="none" stroke="midnightblue" d="M1220.81,-60.1742C1240.59,-65.4287 1263.38,-71.4866 1281.93,-76.4141"/>
<polygon fill="midnightblue" stroke="midnightblue" points="1221.65,-56.7747 1211.08,-57.589 1219.85,-63.5399 1221.65,-56.7747"/>
</g>
<!-- Node9&#45;&gt;Node5 -->
<g id="edge9" class="edge"><title>Node9&#45;&gt;Node5</title>
<path fill="none" stroke="midnightblue" d="M1265.45,-86C1147.62,-86 863.752,-86 749.673,-86"/>
<polygon fill="midnightblue" stroke="midnightblue" points="1265.65,-89.5001 1275.65,-86 1265.65,-82.5001 1265.65,-89.5001"/>
</g>
<!-- Node9&#45;&gt;Node10 -->
<g id="edge10" class="edge"><title>Node9&#45;&gt;Node10</title>
<path fill="none" stroke="midnightblue" d="M1372.33,-86C1381.06,-86 1389.97,-86 1398.24,-86"/>
<polygon fill="midnightblue" stroke="midnightblue" points="1372.21,-82.5001 1362.21,-86 1372.21,-89.5001 1372.21,-82.5001"/>
</g>
<!-- Node11 -->
<g id="node11" class="node"><title>Node11</title>
<g id="a_node11"><a xlink:href="../../d2/db8/class_menu.html#a3c99ad09e9f2f975c1a0d0597642651a" target="_top" xlink:title="Menu.init">
<polygon fill="white" stroke="black" points="1512,-76.5 1512,-95.5 1572,-95.5 1572,-76.5 1512,-76.5"/>
<text text-anchor="middle" x="1542" y="-83.5" font-family="Helvetica,sans-Serif" font-size="10.00">Menu.init</text>
</a>
</g>
</g>
<!-- Node10&#45;&gt;Node11 -->
<g id="edge11" class="edge"><title>Node10&#45;&gt;Node11</title>
<path fill="none" stroke="midnightblue" d="M1486.03,-86C1494.89,-86 1503.87,-86 1511.95,-86"/>
<polygon fill="midnightblue" stroke="midnightblue" points="1485.77,-82.5001 1475.77,-86 1485.77,-89.5001 1485.77,-82.5001"/>
</g>
<!-- Node12 -->
<g id="node12" class="node"><title>Node12</title>
<g id="a_node12"><a xlink:href="../../d4/d2f/class_lose_screen.html#a34f2cc2c803500316c9b8d854854d758" target="_top" xlink:title="LoseScreen.init">
<polygon fill="white" stroke="black" points="1608,-38.5 1608,-57.5 1698,-57.5 1698,-38.5 1608,-38.5"/>
<text text-anchor="middle" x="1653" y="-45.5" font-family="Helvetica,sans-Serif" font-size="10.00">LoseScreen.init</text>
</a>
</g>
</g>
<!-- Node11&#45;&gt;Node12 -->
<g id="edge12" class="edge"><title>Node11&#45;&gt;Node12</title>
<path fill="none" stroke="midnightblue" d="M1580.21,-73.0282C1594.73,-67.9656 1611.08,-62.2659 1624.5,-57.5859"/>
<polygon fill="midnightblue" stroke="midnightblue" points="1578.8,-69.8141 1570.51,-76.411 1581.1,-76.4239 1578.8,-69.8141"/>
</g>
<!-- Node15 -->
<g id="node15" class="node"><title>Node15</title>
<g id="a_node15"><a xlink:href="../../d1/de1/class_end_screen.html#a1264ffb72b3a3032443f9c4087222aef" target="_top" xlink:title="EndScreen.init">
<polygon fill="white" stroke="black" points="1610,-76.5 1610,-95.5 1696,-95.5 1696,-76.5 1610,-76.5"/>
<text text-anchor="middle" x="1653" y="-83.5" font-family="Helvetica,sans-Serif" font-size="10.00">EndScreen.init</text>
</a>
</g>
</g>
<!-- Node11&#45;&gt;Node15 -->
<g id="edge16" class="edge"><title>Node11&#45;&gt;Node15</title>
<path fill="none" stroke="midnightblue" d="M1582.29,-86C1591.15,-86 1600.6,-86 1609.59,-86"/>
<polygon fill="midnightblue" stroke="midnightblue" points="1582.21,-82.5001 1572.21,-86 1582.21,-89.5001 1582.21,-82.5001"/>
</g>
<!-- Node17 -->
<g id="node17" class="node"><title>Node17</title>
<g id="a_node17"><a xlink:href="../../d0/d4b/class_main.html#a7595d13c514a02c35aca322dd91d2063" target="_top" xlink:title="Main.start">
<polygon fill="white" stroke="black" points="1620.5,-114.5 1620.5,-133.5 1685.5,-133.5 1685.5,-114.5 1620.5,-114.5"/>
<text text-anchor="middle" x="1653" y="-121.5" font-family="Helvetica,sans-Serif" font-size="10.00">Main.start</text>
</a>
</g>
</g>
<!-- Node11&#45;&gt;Node17 -->
<g id="edge18" class="edge"><title>Node11&#45;&gt;Node17</title>
<path fill="none" stroke="midnightblue" d="M1580.21,-98.9718C1594.73,-104.034 1611.08,-109.734 1624.5,-114.414"/>
<polygon fill="midnightblue" stroke="midnightblue" points="1581.1,-95.5761 1570.51,-95.589 1578.8,-102.186 1581.1,-95.5761"/>
</g>
<!-- Node13 -->
<g id="node13" class="node"><title>Node13</title>
<g id="a_node13"><a xlink:href="../../d6/d4f/class_item_box_world.html#a295cf7212ad54fa599e2a2d85ee0523d" target="_top" xlink:title="ItemBoxWorld.loseGame">
<polygon fill="white" stroke="black" points="1734,-38.5 1734,-57.5 1868,-57.5 1868,-38.5 1734,-38.5"/>
<text text-anchor="middle" x="1801" y="-45.5" font-family="Helvetica,sans-Serif" font-size="10.00">ItemBoxWorld.loseGame</text>
</a>
</g>
</g>
<!-- Node12&#45;&gt;Node13 -->
<g id="edge13" class="edge"><title>Node12&#45;&gt;Node13</title>
<path fill="none" stroke="midnightblue" d="M1708.47,-48C1716.75,-48 1725.37,-48 1733.86,-48"/>
<polygon fill="midnightblue" stroke="midnightblue" points="1708.2,-44.5001 1698.2,-48 1708.2,-51.5001 1708.2,-44.5001"/>
</g>
<!-- Node14 -->
<g id="node14" class="node"><title>Node14</title>
<g id="a_node14"><a xlink:href="../../db/d97/class_box_world.html#a72bacb2a6757900d8835249929fcc838" target="_top" xlink:title="BoxWorld.loseGame">
<polygon fill="white" stroke="black" points="1745,-0.5 1745,-19.5 1857,-19.5 1857,-0.5 1745,-0.5"/>
<text text-anchor="middle" x="1801" y="-7.5" font-family="Helvetica,sans-Serif" font-size="10.00">BoxWorld.loseGame</text>
</a>
</g>
</g>
<!-- Node12&#45;&gt;Node14 -->
<g id="edge14" class="edge"><title>Node12&#45;&gt;Node14</title>
<path fill="none" stroke="midnightblue" d="M1700.54,-35.8879C1720.87,-30.5956 1744.37,-24.4787 1763.42,-19.5201"/>
<polygon fill="midnightblue" stroke="midnightblue" points="1699.64,-32.5049 1690.84,-38.411 1701.4,-39.2793 1699.64,-32.5049"/>
</g>
<!-- Node14&#45;&gt;Node7 -->
<g id="edge15" class="edge"><title>Node14&#45;&gt;Node7</title>
<path fill="none" stroke="midnightblue" d="M1734.78,-10C1682.83,-10 1608.25,-10 1543,-10 1318,-10 1318,-10 1318,-10 1222.23,-10 1111.37,-27.2037 1049.08,-38.46"/>
<polygon fill="midnightblue" stroke="midnightblue" points="1734.85,-13.5001 1744.85,-10 1734.85,-6.5001 1734.85,-13.5001"/>
</g>
<!-- Node16 -->
<g id="node16" class="node"><title>Node16</title>
<g id="a_node16"><a xlink:href="../../d6/d4f/class_item_box_world.html#a2ed12a6b39993faedc05cc682204476d" target="_top" xlink:title="ItemBoxWorld.winLevel">
<polygon fill="white" stroke="black" points="1738.5,-76.5 1738.5,-95.5 1863.5,-95.5 1863.5,-76.5 1738.5,-76.5"/>
<text text-anchor="middle" x="1801" y="-83.5" font-family="Helvetica,sans-Serif" font-size="10.00">ItemBoxWorld.winLevel</text>
</a>
</g>
</g>
<!-- Node15&#45;&gt;Node16 -->
<g id="edge17" class="edge"><title>Node15&#45;&gt;Node16</title>
<path fill="none" stroke="midnightblue" d="M1706.35,-86C1716.71,-86 1727.68,-86 1738.31,-86"/>
<polygon fill="midnightblue" stroke="midnightblue" points="1706.23,-82.5001 1696.23,-86 1706.23,-89.5001 1706.23,-82.5001"/>
</g>
</g>
</svg>
