<?xml version="1.0" encoding="UTF-8" standalone="no"?>
<!DOCTYPE svg PUBLIC "-//W3C//DTD SVG 1.1//EN"
 "http://www.w3.org/Graphics/SVG/1.1/DTD/svg11.dtd">
<!-- Generated by graphviz version 2.36.0 (20140111.2315)
 -->
<!-- Title: Main.start Pages: 1 -->
<svg width="1860pt" height="342pt"
 viewBox="0.00 0.00 1860.00 342.03" xmlns="http://www.w3.org/2000/svg" xmlns:xlink="http://www.w3.org/1999/xlink">
<g id="graph0" class="graph" transform="scale(1 1) rotate(0) translate(4 338.026)">
<title>Main.start</title>
<polygon fill="white" stroke="none" points="-4,4 -4,-338.026 1856,-338.026 1856,4 -4,4"/>
<!-- Node1 -->
<g id="node1" class="node"><title>Node1</title>
<polygon fill="#bfbfbf" stroke="black" points="0.5,-161.5 0.5,-180.5 65.5,-180.5 65.5,-161.5 0.5,-161.5"/>
<text text-anchor="middle" x="33" y="-168.5" font-family="Helvetica,sans-Serif" font-size="10.00">Main.start</text>
</g>
<!-- Node2 -->
<g id="node2" class="node"><title>Node2</title>
<g id="a_node2"><a xlink:href="../../d2/db8/class_menu.html#a3c99ad09e9f2f975c1a0d0597642651a" target="_top" xlink:title="Menu.init">
<polygon fill="white" stroke="black" points="102,-161.5 102,-180.5 162,-180.5 162,-161.5 102,-161.5"/>
<text text-anchor="middle" x="132" y="-168.5" font-family="Helvetica,sans-Serif" font-size="10.00">Menu.init</text>
</a>
</g>
</g>
<!-- Node1&#45;&gt;Node2 -->
<g id="edge1" class="edge"><title>Node1&#45;&gt;Node2</title>
<path fill="none" stroke="midnightblue" d="M65.7614,-171C74.0105,-171 82.9958,-171 91.5867,-171"/>
<polygon fill="midnightblue" stroke="midnightblue" points="91.7941,-174.5 101.794,-171 91.794,-167.5 91.7941,-174.5"/>
</g>
<!-- Node3 -->
<g id="node3" class="node"><title>Node3</title>
<g id="a_node3"><a xlink:href="../../d2/db8/class_menu.html#a8a6e6125f0dc2dc7e19c6655ba6376a2" target="_top" xlink:title="Menu.addIntroText">
<polygon fill="white" stroke="black" points="198,-199.5 198,-218.5 302,-218.5 302,-199.5 198,-199.5"/>
<text text-anchor="middle" x="250" y="-206.5" font-family="Helvetica,sans-Serif" font-size="10.00">Menu.addIntroText</text>
</a>
</g>
</g>
<!-- Node2&#45;&gt;Node3 -->
<g id="edge2" class="edge"><title>Node2&#45;&gt;Node3</title>
<path fill="none" stroke="midnightblue" d="M162.272,-180.589C176.697,-185.314 194.293,-191.079 209.857,-196.177"/>
<polygon fill="midnightblue" stroke="midnightblue" points="209.145,-199.627 219.738,-199.414 211.324,-192.975 209.145,-199.627"/>
</g>
<!-- Node4 -->
<g id="node4" class="node"><title>Node4</title>
<g id="a_node4"><a xlink:href="../../db/d97/class_box_world.html#a55bf92d3f466bfaade0f6d199d8c9bd9" target="_top" xlink:title="BoxWorld.init">
<polygon fill="white" stroke="black" points="211.5,-161.5 211.5,-180.5 288.5,-180.5 288.5,-161.5 211.5,-161.5"/>
<text text-anchor="middle" x="250" y="-168.5" font-family="Helvetica,sans-Serif" font-size="10.00">BoxWorld.init</text>
</a>
</g>
</g>
<!-- Node2&#45;&gt;Node4 -->
<g id="edge3" class="edge"><title>Node2&#45;&gt;Node4</title>
<path fill="none" stroke="midnightblue" d="M162.272,-171C174.029,-171 187.893,-171 201.046,-171"/>
<polygon fill="midnightblue" stroke="midnightblue" points="201.388,-174.5 211.388,-171 201.388,-167.5 201.388,-174.5"/>
</g>
<!-- Node5 -->
<g id="node5" class="node"><title>Node5</title>
<g id="a_node5"><a xlink:href="../../db/d97/class_box_world.html#a69798621c944e846f045aaf3937505f9" target="_top" xlink:title="BoxWorld.addStarterObjects">
<polygon fill="white" stroke="black" points="960.5,-256.5 960.5,-275.5 1111.5,-275.5 1111.5,-256.5 960.5,-256.5"/>
<text text-anchor="middle" x="1036" y="-263.5" font-family="Helvetica,sans-Serif" font-size="10.00">BoxWorld.addStarterObjects</text>
</a>
</g>
</g>
<!-- Node4&#45;&gt;Node5 -->
<g id="edge4" class="edge"><title>Node4&#45;&gt;Node5</title>
<path fill="none" stroke="midnightblue" d="M278.525,-180.515C286.205,-183.369 294.498,-186.64 302,-190 318.511,-197.396 321.083,-202.588 338,-209 438.093,-246.936 464.959,-266 572,-266 572,-266 572,-266 737,-266 808.893,-266 890.542,-266 950.173,-266"/>
<polygon fill="midnightblue" stroke="midnightblue" points="950.295,-269.5 960.294,-266 950.294,-262.5 950.295,-269.5"/>
</g>
<!-- Node7 -->
<g id="node7" class="node"><title>Node7</title>
<g id="a_node7"><a xlink:href="../../db/d97/class_box_world.html#a726e747e023543658d7a345cc6466ccb" target="_top" xlink:title="BoxWorld.createScene">
<polygon fill="white" stroke="black" points="338,-180.5 338,-199.5 462,-199.5 462,-180.5 338,-180.5"/>
<text text-anchor="middle" x="400" y="-187.5" font-family="Helvetica,sans-Serif" font-size="10.00">BoxWorld.createScene</text>
</a>
</g>
</g>
<!-- Node4&#45;&gt;Node7 -->
<g id="edge6" class="edge"><title>Node4&#45;&gt;Node7</title>
<path fill="none" stroke="midnightblue" d="M288.73,-175.844C300.604,-177.368 314.135,-179.105 327.553,-180.828"/>
<polygon fill="midnightblue" stroke="midnightblue" points="327.399,-184.337 337.763,-182.138 328.29,-177.394 327.399,-184.337"/>
</g>
<!-- Node22 -->
<g id="node22" class="node"><title>Node22</title>
<g id="a_node22"><a xlink:href="../../db/d97/class_box_world.html#ad20a4e43406c44f4bbf201d1d1028998" target="_top" xlink:title="BoxWorld.start">
<polygon fill="white" stroke="black" points="993,-142.5 993,-161.5 1079,-161.5 1079,-142.5 993,-142.5"/>
<text text-anchor="middle" x="1036" y="-149.5" font-family="Helvetica,sans-Serif" font-size="10.00">BoxWorld.start</text>
</a>
</g>
</g>
<!-- Node4&#45;&gt;Node22 -->
<g id="edge42" class="edge"><title>Node4&#45;&gt;Node22</title>
<path fill="none" stroke="midnightblue" d="M288.516,-167.337C348.39,-161.815 469.279,-152 572,-152 572,-152 572,-152 737,-152 822.898,-152 922.724,-152 982.28,-152"/>
<polygon fill="midnightblue" stroke="midnightblue" points="982.56,-155.5 992.56,-152 982.56,-148.5 982.56,-155.5"/>
</g>
<!-- Node6 -->
<g id="node6" class="node"><title>Node6</title>
<g id="a_node6"><a xlink:href="../../db/d97/class_box_world.html#a2542cc74ebeba6a9768a443a55186901" target="_top" xlink:title="BoxWorld.createObstacleArray">
<polygon fill="white" stroke="black" points="1148.5,-294.5 1148.5,-313.5 1309.5,-313.5 1309.5,-294.5 1148.5,-294.5"/>
<text text-anchor="middle" x="1229" y="-301.5" font-family="Helvetica,sans-Serif" font-size="10.00">BoxWorld.createObstacleArray</text>
</a>
</g>
</g>
<!-- Node5&#45;&gt;Node6 -->
<g id="edge5" class="edge"><title>Node5&#45;&gt;Node6</title>
<path fill="none" stroke="midnightblue" d="M1085.2,-275.589C1110.97,-280.716 1142.89,-287.067 1170.01,-292.463"/>
<polygon fill="midnightblue" stroke="midnightblue" points="1169.66,-295.961 1180.15,-294.48 1171.02,-289.096 1169.66,-295.961"/>
</g>
<!-- Node8 -->
<g id="node8" class="node"><title>Node8</title>
<g id="a_node8"><a xlink:href="../../db/d97/class_box_world.html#aa7e2049d7be23e15fd2ec7fa2922ed79" target="_top" xlink:title="BoxWorld.handleKeyInput">
<polygon fill="white" stroke="black" points="505,-104.5 505,-123.5 641,-123.5 641,-104.5 505,-104.5"/>
<text text-anchor="middle" x="573" y="-111.5" font-family="Helvetica,sans-Serif" font-size="10.00">BoxWorld.handleKeyInput</text>
</a>
</g>
</g>
<!-- Node7&#45;&gt;Node8 -->
<g id="edge7" class="edge"><title>Node7&#45;&gt;Node8</title>
<path fill="none" stroke="midnightblue" d="M422.657,-180.375C452.595,-167.069 506.794,-142.98 541.012,-127.772"/>
<polygon fill="midnightblue" stroke="midnightblue" points="542.802,-130.807 550.519,-123.547 539.959,-124.41 542.802,-130.807"/>
</g>
<!-- Node31 -->
<g id="node31" class="node"><title>Node31</title>
<g id="a_node31"><a xlink:href="../../db/d97/class_box_world.html#a2d44485a181577acb4d79b6b81f26fff" target="_top" xlink:title="BoxWorld.handleKeyRelease">
<polygon fill="white" stroke="black" points="498.5,-180.5 498.5,-199.5 647.5,-199.5 647.5,-180.5 498.5,-180.5"/>
<text text-anchor="middle" x="573" y="-187.5" font-family="Helvetica,sans-Serif" font-size="10.00">BoxWorld.handleKeyRelease</text>
</a>
</g>
</g>
<!-- Node7&#45;&gt;Node31 -->
<g id="edge41" class="edge"><title>Node7&#45;&gt;Node31</title>
<path fill="none" stroke="midnightblue" d="M462.252,-190C470.655,-190 479.399,-190 488.121,-190"/>
<polygon fill="midnightblue" stroke="midnightblue" points="488.327,-193.5 498.327,-190 488.327,-186.5 488.327,-193.5"/>
</g>
<!-- Node9 -->
<g id="node9" class="node"><title>Node9</title>
<g id="a_node9"><a xlink:href="../../db/d97/class_box_world.html#adc4c9d78ffde3d052c4c92047eb98e55" target="_top" xlink:title="BoxWorld.allowMovement">
<polygon fill="white" stroke="black" points="1546.5,-104.5 1546.5,-123.5 1683.5,-123.5 1683.5,-104.5 1546.5,-104.5"/>
<text text-anchor="middle" x="1615" y="-111.5" font-family="Helvetica,sans-Serif" font-size="10.00">BoxWorld.allowMovement</text>
</a>
</g>
</g>
<!-- Node8&#45;&gt;Node9 -->
<g id="edge8" class="edge"><title>Node8&#45;&gt;Node9</title>
<path fill="none" stroke="midnightblue" d="M596.016,-104.375C644.862,-83.924 766.415,-38 873,-38 873,-38 873,-38 1230,-38 1354.73,-38 1390.29,-21.9838 1510,-57 1514.19,-58.2257 1558.5,-82.8566 1587.91,-99.3352"/>
<polygon fill="midnightblue" stroke="midnightblue" points="1586.43,-102.52 1596.87,-104.359 1589.86,-96.4145 1586.43,-102.52"/>
</g>
<!-- Node14 -->
<g id="node14" class="node"><title>Node14</title>
<g id="a_node14"><a xlink:href="../../db/d97/class_box_world.html#a04c6bf977c4292a5433649fb3745fd6b" target="_top" xlink:title="BoxWorld.reset">
<polygon fill="white" stroke="black" points="1185,-104.5 1185,-123.5 1273,-123.5 1273,-104.5 1185,-104.5"/>
<text text-anchor="middle" x="1229" y="-111.5" font-family="Helvetica,sans-Serif" font-size="10.00">BoxWorld.reset</text>
</a>
</g>
</g>
<!-- Node8&#45;&gt;Node14 -->
<g id="edge13" class="edge"><title>Node8&#45;&gt;Node14</title>
<path fill="none" stroke="midnightblue" d="M641.221,-114C771.58,-114 1056.3,-114 1174.7,-114"/>
<polygon fill="midnightblue" stroke="midnightblue" points="1174.96,-117.5 1184.96,-114 1174.96,-110.5 1174.96,-117.5"/>
</g>
<!-- Node15 -->
<g id="node15" class="node"><title>Node15</title>
<g id="a_node15"><a xlink:href="../../da/de2/class_sticky_box.html#aa1bb8f78f676b01c688d75d386758444" target="_top" xlink:title="StickyBox.setDirection">
<polygon fill="white" stroke="black" points="1366,-66.5 1366,-85.5 1490,-85.5 1490,-66.5 1366,-66.5"/>
<text text-anchor="middle" x="1428" y="-73.5" font-family="Helvetica,sans-Serif" font-size="10.00">StickyBox.setDirection</text>
</a>
</g>
</g>
<!-- Node8&#45;&gt;Node15 -->
<g id="edge16" class="edge"><title>Node8&#45;&gt;Node15</title>
<path fill="none" stroke="midnightblue" d="M620.124,-104.46C678.66,-93.2037 782.866,-76 873,-76 873,-76 873,-76 1037,-76 1148.29,-76 1277.45,-76 1355.65,-76"/>
<polygon fill="midnightblue" stroke="midnightblue" points="1355.87,-79.5001 1365.87,-76 1355.87,-72.5001 1355.87,-79.5001"/>
</g>
<!-- Node17 -->
<g id="node17" class="node"><title>Node17</title>
<g id="a_node17"><a xlink:href="../../db/d97/class_box_world.html#aad670712776afe126e51791097027e05" target="_top" xlink:title="BoxWorld.winLevel">
<polygon fill="white" stroke="black" points="684.5,-180.5 684.5,-199.5 787.5,-199.5 787.5,-180.5 684.5,-180.5"/>
<text text-anchor="middle" x="736" y="-187.5" font-family="Helvetica,sans-Serif" font-size="10.00">BoxWorld.winLevel</text>
</a>
</g>
</g>
<!-- Node8&#45;&gt;Node17 -->
<g id="edge17" class="edge"><title>Node8&#45;&gt;Node17</title>
<path fill="none" stroke="midnightblue" d="M594.391,-123.625C622.456,-136.874 673.17,-160.813 705.408,-176.031"/>
<polygon fill="midnightblue" stroke="midnightblue" points="704.238,-179.349 714.775,-180.453 707.226,-173.019 704.238,-179.349"/>
</g>
<!-- Node10 -->
<g id="node10" class="node"><title>Node10</title>
<g id="a_node10"><a xlink:href="../../da/de2/class_sticky_box.html#a6ba3f89630df9d81df5644a3e5f4e387" target="_top" xlink:title="StickyBox.getXDirection">
<polygon fill="white" stroke="black" points="1720.5,-142.5 1720.5,-161.5 1851.5,-161.5 1851.5,-142.5 1720.5,-142.5"/>
<text text-anchor="middle" x="1786" y="-149.5" font-family="Helvetica,sans-Serif" font-size="10.00">StickyBox.getXDirection</text>
</a>
</g>
</g>
<!-- Node9&#45;&gt;Node10 -->
<g id="edge9" class="edge"><title>Node9&#45;&gt;Node10</title>
<path fill="none" stroke="midnightblue" d="M1658.65,-123.589C1681.15,-128.649 1708.95,-134.9 1732.74,-140.249"/>
<polygon fill="midnightblue" stroke="midnightblue" points="1732.14,-143.701 1742.66,-142.48 1733.67,-136.871 1732.14,-143.701"/>
</g>
<!-- Node11 -->
<g id="node11" class="node"><title>Node11</title>
<g id="a_node11"><a xlink:href="../../da/de2/class_sticky_box.html#ab0bd7cafb7f243e3951558ddb8728b96" target="_top" xlink:title="StickyBox.getXPrev">
<polygon fill="white" stroke="black" points="1731.5,-66.5 1731.5,-85.5 1840.5,-85.5 1840.5,-66.5 1731.5,-66.5"/>
<text text-anchor="middle" x="1786" y="-73.5" font-family="Helvetica,sans-Serif" font-size="10.00">StickyBox.getXPrev</text>
</a>
</g>
</g>
<!-- Node9&#45;&gt;Node11 -->
<g id="edge10" class="edge"><title>Node9&#45;&gt;Node11</title>
<path fill="none" stroke="midnightblue" d="M1658.65,-104.411C1681.15,-99.3513 1708.95,-93.1004 1732.74,-87.7512"/>
<polygon fill="midnightblue" stroke="midnightblue" points="1733.67,-91.1286 1742.66,-85.5201 1732.14,-84.2991 1733.67,-91.1286"/>
</g>
<!-- Node12 -->
<g id="node12" class="node"><title>Node12</title>
<g id="a_node12"><a xlink:href="../../da/de2/class_sticky_box.html#a69e5ccf2a79159c03dea2e048df13318" target="_top" xlink:title="StickyBox.getYDirection">
<polygon fill="white" stroke="black" points="1721,-199.5 1721,-218.5 1851,-218.5 1851,-199.5 1721,-199.5"/>
<text text-anchor="middle" x="1786" y="-206.5" font-family="Helvetica,sans-Serif" font-size="10.00">StickyBox.getYDirection</text>
</a>
</g>
</g>
<!-- Node9&#45;&gt;Node12 -->
<g id="edge11" class="edge"><title>Node9&#45;&gt;Node12</title>
<path fill="none" stroke="midnightblue" d="M1633.13,-123.632C1662.82,-140.318 1723.98,-174.698 1758.95,-194.356"/>
<polygon fill="midnightblue" stroke="midnightblue" points="1757.64,-197.635 1768.07,-199.484 1761.07,-191.533 1757.64,-197.635"/>
</g>
<!-- Node13 -->
<g id="node13" class="node"><title>Node13</title>
<g id="a_node13"><a xlink:href="../../da/de2/class_sticky_box.html#a4c6abed944faed9d9b226079e99cfc24" target="_top" xlink:title="StickyBox.getYPrev">
<polygon fill="white" stroke="black" points="1732,-104.5 1732,-123.5 1840,-123.5 1840,-104.5 1732,-104.5"/>
<text text-anchor="middle" x="1786" y="-111.5" font-family="Helvetica,sans-Serif" font-size="10.00">StickyBox.getYPrev</text>
</a>
</g>
</g>
<!-- Node9&#45;&gt;Node13 -->
<g id="edge12" class="edge"><title>Node9&#45;&gt;Node13</title>
<path fill="none" stroke="midnightblue" d="M1683.76,-114C1696.25,-114 1709.24,-114 1721.59,-114"/>
<polygon fill="midnightblue" stroke="midnightblue" points="1721.78,-117.5 1731.78,-114 1721.78,-110.5 1721.78,-117.5"/>
</g>
<!-- Node14&#45;&gt;Node15 -->
<g id="edge14" class="edge"><title>Node14&#45;&gt;Node15</title>
<path fill="none" stroke="midnightblue" d="M1273.23,-105.661C1300.91,-100.322 1337.2,-93.3223 1367.57,-87.4637"/>
<polygon fill="midnightblue" stroke="midnightblue" points="1368.47,-90.8554 1377.62,-85.5246 1367.14,-83.9821 1368.47,-90.8554"/>
</g>
<!-- Node16 -->
<g id="node16" class="node"><title>Node16</title>
<g id="a_node16"><a xlink:href="../../da/de2/class_sticky_box.html#a5d95d2ed2e13f0d87a44311db77f9e36" target="_top" xlink:title="StickyBox.setPreviousDirection">
<polygon fill="white" stroke="black" points="1346,-104.5 1346,-123.5 1510,-123.5 1510,-104.5 1346,-104.5"/>
<text text-anchor="middle" x="1428" y="-111.5" font-family="Helvetica,sans-Serif" font-size="10.00">StickyBox.setPreviousDirection</text>
</a>
</g>
</g>
<!-- Node14&#45;&gt;Node16 -->
<g id="edge15" class="edge"><title>Node14&#45;&gt;Node16</title>
<path fill="none" stroke="midnightblue" d="M1273.23,-114C1291.61,-114 1313.79,-114 1335.52,-114"/>
<polygon fill="midnightblue" stroke="midnightblue" points="1335.78,-117.5 1345.78,-114 1335.78,-110.5 1335.78,-117.5"/>
</g>
<!-- Node18 -->
<g id="node18" class="node"><title>Node18</title>
<g id="a_node18"><a xlink:href="../../d6/d4f/class_item_box_world.html#aa559fc2680327b41fb376e2eda8e82e3" target="_top" xlink:title="ItemBoxWorld.init">
<polygon fill="white" stroke="black" points="824.5,-218.5 824.5,-237.5 923.5,-237.5 923.5,-218.5 824.5,-218.5"/>
<text text-anchor="middle" x="874" y="-225.5" font-family="Helvetica,sans-Serif" font-size="10.00">ItemBoxWorld.init</text>
</a>
</g>
</g>
<!-- Node17&#45;&gt;Node18 -->
<g id="edge18" class="edge"><title>Node17&#45;&gt;Node18</title>
<path fill="none" stroke="midnightblue" d="M771.319,-199.589C788.794,-204.472 810.241,-210.464 828.925,-215.685"/>
<polygon fill="midnightblue" stroke="midnightblue" points="828.119,-219.094 838.692,-218.414 830.003,-212.352 828.119,-219.094"/>
</g>
<!-- Node18&#45;&gt;Node5 -->
<g id="edge22" class="edge"><title>Node18&#45;&gt;Node5</title>
<path fill="none" stroke="midnightblue" d="M915.375,-237.589C936.488,-242.604 962.529,-248.788 984.917,-254.105"/>
<polygon fill="midnightblue" stroke="midnightblue" points="984.377,-257.574 994.916,-256.48 985.995,-250.764 984.377,-257.574"/>
</g>
<!-- Node18&#45;&gt;Node7 -->
<g id="edge23" class="edge"><title>Node18&#45;&gt;Node7</title>
<path fill="none" stroke="midnightblue" d="M824.266,-227.747C752.546,-226.874 614.465,-223.283 498,-209 483.192,-207.184 467.255,-204.41 452.663,-201.539"/>
<polygon fill="midnightblue" stroke="midnightblue" points="453.302,-198.097 442.807,-199.546 451.915,-204.958 453.302,-198.097"/>
</g>
<!-- Node19 -->
<g id="node19" class="node"><title>Node19</title>
<g id="a_node19"><a xlink:href="../../d6/d4f/class_item_box_world.html#a7ead15fd9fd8095f928640161d48fdf8" target="_top" xlink:title="ItemBoxWorld.addAllItems">
<polygon fill="white" stroke="black" points="965.5,-218.5 965.5,-237.5 1106.5,-237.5 1106.5,-218.5 965.5,-218.5"/>
<text text-anchor="middle" x="1036" y="-225.5" font-family="Helvetica,sans-Serif" font-size="10.00">ItemBoxWorld.addAllItems</text>
</a>
</g>
</g>
<!-- Node18&#45;&gt;Node19 -->
<g id="edge19" class="edge"><title>Node18&#45;&gt;Node19</title>
<path fill="none" stroke="midnightblue" d="M923.875,-228C933.764,-228 944.405,-228 955.045,-228"/>
<polygon fill="midnightblue" stroke="midnightblue" points="955.222,-231.5 965.222,-228 955.222,-224.5 955.222,-231.5"/>
</g>
<!-- Node18&#45;&gt;Node22 -->
<g id="edge24" class="edge"><title>Node18&#45;&gt;Node22</title>
<path fill="none" stroke="midnightblue" d="M895.264,-218.375C923.156,-205.126 973.554,-181.187 1005.59,-165.969"/>
<polygon fill="midnightblue" stroke="midnightblue" points="1007.37,-168.999 1014.9,-161.547 1004.37,-162.676 1007.37,-168.999"/>
</g>
<!-- Node20 -->
<g id="node20" class="node"><title>Node20</title>
<g id="a_node20"><a xlink:href="../../d6/d4f/class_item_box_world.html#af1bcde0672796e926560684004ed8e81" target="_top" xlink:title="ItemBoxWorld.addSingleItem">
<polygon fill="white" stroke="black" points="1152,-256.5 1152,-275.5 1306,-275.5 1306,-256.5 1152,-256.5"/>
<text text-anchor="middle" x="1229" y="-263.5" font-family="Helvetica,sans-Serif" font-size="10.00">ItemBoxWorld.addSingleItem</text>
</a>
</g>
</g>
<!-- Node19&#45;&gt;Node20 -->
<g id="edge20" class="edge"><title>Node19&#45;&gt;Node20</title>
<path fill="none" stroke="midnightblue" d="M1085.2,-237.589C1110.97,-242.716 1142.89,-249.067 1170.01,-254.463"/>
<polygon fill="midnightblue" stroke="midnightblue" points="1169.66,-257.961 1180.15,-256.48 1171.02,-251.096 1169.66,-257.961"/>
</g>
<!-- Node21 -->
<g id="node21" class="node"><title>Node21</title>
<g id="a_node21"><a xlink:href="../../d6/d4f/class_item_box_world.html#a1890e6c53a4a73e44e9528009fde508d" target="_top" xlink:title="ItemBoxWorld.itemExists">
<polygon fill="white" stroke="black" points="1162,-218.5 1162,-237.5 1296,-237.5 1296,-218.5 1162,-218.5"/>
<text text-anchor="middle" x="1229" y="-225.5" font-family="Helvetica,sans-Serif" font-size="10.00">ItemBoxWorld.itemExists</text>
</a>
</g>
</g>
<!-- Node19&#45;&gt;Node21 -->
<g id="edge21" class="edge"><title>Node19&#45;&gt;Node21</title>
<path fill="none" stroke="midnightblue" d="M1106.77,-228C1121.4,-228 1136.9,-228 1151.76,-228"/>
<polygon fill="midnightblue" stroke="midnightblue" points="1151.92,-231.5 1161.92,-228 1151.92,-224.5 1151.92,-231.5"/>
</g>
<!-- Node23 -->
<g id="node23" class="node"><title>Node23</title>
<g id="a_node23"><a xlink:href="../../db/d97/class_box_world.html#a6794c083c2a0263c2f585f4ae4b7e39c" target="_top" xlink:title="BoxWorld.updateSprites">
<polygon fill="white" stroke="black" points="1163.5,-142.5 1163.5,-161.5 1294.5,-161.5 1294.5,-142.5 1163.5,-142.5"/>
<text text-anchor="middle" x="1229" y="-149.5" font-family="Helvetica,sans-Serif" font-size="10.00">BoxWorld.updateSprites</text>
</a>
</g>
</g>
<!-- Node22&#45;&gt;Node23 -->
<g id="edge25" class="edge"><title>Node22&#45;&gt;Node23</title>
<path fill="none" stroke="midnightblue" d="M1079.39,-152C1101.03,-152 1128,-152 1153,-152"/>
<polygon fill="midnightblue" stroke="midnightblue" points="1153.2,-155.5 1163.2,-152 1153.2,-148.5 1153.2,-155.5"/>
</g>
<!-- Node23&#45;&gt;Node10 -->
<g id="edge35" class="edge"><title>Node23&#45;&gt;Node10</title>
<path fill="none" stroke="midnightblue" d="M1294.75,-152C1398.21,-152 1600.28,-152 1709.92,-152"/>
<polygon fill="midnightblue" stroke="midnightblue" points="1710.23,-155.5 1720.23,-152 1710.23,-148.5 1710.23,-155.5"/>
</g>
<!-- Node23&#45;&gt;Node12 -->
<g id="edge36" class="edge"><title>Node23&#45;&gt;Node12</title>
<path fill="none" stroke="midnightblue" d="M1248.59,-161.581C1266.28,-171.47 1292.7,-188.34 1310,-209 1333.99,-237.657 1314.42,-265.013 1346,-285 1472.94,-365.331 1541.52,-332.617 1684,-285 1718.78,-273.375 1751.2,-244.538 1769.51,-225.916"/>
<polygon fill="midnightblue" stroke="midnightblue" points="1772.08,-228.289 1776.46,-218.641 1767.02,-223.454 1772.08,-228.289"/>
</g>
<!-- Node23&#45;&gt;Node15 -->
<g id="edge38" class="edge"><title>Node23&#45;&gt;Node15</title>
<path fill="none" stroke="midnightblue" d="M1288.35,-142.369C1295.9,-139.92 1303.32,-136.849 1310,-133 1330.16,-121.384 1325.83,-106.588 1346,-95 1349.91,-92.7539 1354.07,-90.7731 1358.36,-89.0262"/>
<polygon fill="midnightblue" stroke="midnightblue" points="1359.71,-92.2596 1367.92,-85.5636 1357.33,-85.6779 1359.71,-92.2596"/>
</g>
<!-- Node23&#45;&gt;Node16 -->
<g id="edge39" class="edge"><title>Node23&#45;&gt;Node16</title>
<path fill="none" stroke="midnightblue" d="M1279.46,-142.46C1306.15,-137.31 1339.3,-130.916 1367.42,-125.494"/>
<polygon fill="midnightblue" stroke="midnightblue" points="1368.37,-128.875 1377.52,-123.544 1367.04,-122.001 1368.37,-128.875"/>
</g>
<!-- Node24 -->
<g id="node24" class="node"><title>Node24</title>
<g id="a_node24"><a xlink:href="../../db/d97/class_box_world.html#a4079bed8937c9f621decfbe1309e31e2" target="_top" xlink:title="BoxWorld.checkAllCollisions">
<polygon fill="white" stroke="black" points="1355,-256.5 1355,-275.5 1501,-275.5 1501,-256.5 1355,-256.5"/>
<text text-anchor="middle" x="1428" y="-263.5" font-family="Helvetica,sans-Serif" font-size="10.00">BoxWorld.checkAllCollisions</text>
</a>
</g>
</g>
<!-- Node23&#45;&gt;Node24 -->
<g id="edge26" class="edge"><title>Node23&#45;&gt;Node24</title>
<path fill="none" stroke="midnightblue" d="M1283.83,-161.585C1293.25,-165.016 1302.44,-169.674 1310,-176 1337.14,-198.697 1318.18,-225.141 1346,-247 1348.29,-248.799 1350.72,-250.432 1353.26,-251.915"/>
<polygon fill="midnightblue" stroke="midnightblue" points="1351.72,-255.06 1362.23,-256.397 1354.85,-248.798 1351.72,-255.06"/>
</g>
<!-- Node29 -->
<g id="node29" class="node"><title>Node29</title>
<g id="a_node29"><a xlink:href="../../da/de2/class_sticky_box.html#a185ee469367b376e6c5969a03d089d57" target="_top" xlink:title="StickyBox.move">
<polygon fill="white" stroke="black" points="1381.5,-218.5 1381.5,-237.5 1474.5,-237.5 1474.5,-218.5 1381.5,-218.5"/>
<text text-anchor="middle" x="1428" y="-225.5" font-family="Helvetica,sans-Serif" font-size="10.00">StickyBox.move</text>
</a>
</g>
</g>
<!-- Node23&#45;&gt;Node29 -->
<g id="edge37" class="edge"><title>Node23&#45;&gt;Node29</title>
<path fill="none" stroke="midnightblue" d="M1274.64,-161.544C1286.57,-165.11 1299.16,-169.839 1310,-176 1328.87,-186.723 1326.81,-198.858 1346,-209 1353.89,-213.168 1362.68,-216.431 1371.49,-218.983"/>
<polygon fill="midnightblue" stroke="midnightblue" points="1370.83,-222.428 1381.39,-221.572 1372.6,-215.655 1370.83,-222.428"/>
</g>
<!-- Node30 -->
<g id="node30" class="node"><title>Node30</title>
<g id="a_node30"><a xlink:href="../../da/de2/class_sticky_box.html#a59337f0aa3c7379a2cb9c76bdc621daf" target="_top" xlink:title="StickyBox.setStuck">
<polygon fill="white" stroke="black" points="1374,-180.5 1374,-199.5 1482,-199.5 1482,-180.5 1374,-180.5"/>
<text text-anchor="middle" x="1428" y="-187.5" font-family="Helvetica,sans-Serif" font-size="10.00">StickyBox.setStuck</text>
</a>
</g>
</g>
<!-- Node23&#45;&gt;Node30 -->
<g id="edge40" class="edge"><title>Node23&#45;&gt;Node30</title>
<path fill="none" stroke="midnightblue" d="M1279.46,-161.54C1306.15,-166.69 1339.3,-173.084 1367.42,-178.506"/>
<polygon fill="midnightblue" stroke="midnightblue" points="1367.04,-181.999 1377.52,-180.456 1368.37,-175.125 1367.04,-181.999"/>
</g>
<!-- Node24&#45;&gt;Node17 -->
<g id="edge34" class="edge"><title>Node24&#45;&gt;Node17</title>
<path fill="none" stroke="midnightblue" d="M1367.92,-256.436C1360.28,-253.977 1352.76,-250.885 1346,-247 1325.83,-235.412 1331.22,-218.545 1310,-209 1220.08,-168.542 926.111,-179.329 797.811,-186.272"/>
<polygon fill="midnightblue" stroke="midnightblue" points="797.551,-182.781 787.759,-186.827 797.937,-189.77 797.551,-182.781"/>
</g>
<!-- Node25 -->
<g id="node25" class="node"><title>Node25</title>
<g id="a_node25"><a xlink:href="../../db/d97/class_box_world.html#a55add11037cd6dc48556f2f42a9e11be" target="_top" xlink:title="BoxWorld.checkCollide">
<polygon fill="white" stroke="black" points="1554,-199.5 1554,-218.5 1676,-218.5 1676,-199.5 1554,-199.5"/>
<text text-anchor="middle" x="1615" y="-206.5" font-family="Helvetica,sans-Serif" font-size="10.00">BoxWorld.checkCollide</text>
</a>
</g>
</g>
<!-- Node24&#45;&gt;Node25 -->
<g id="edge27" class="edge"><title>Node24&#45;&gt;Node25</title>
<path fill="none" stroke="midnightblue" d="M1473.82,-256.499C1485.66,-253.713 1498.37,-250.474 1510,-247 1534.06,-239.811 1560.64,-230.065 1580.91,-222.243"/>
<polygon fill="midnightblue" stroke="midnightblue" points="1582.27,-225.47 1590.31,-218.577 1579.73,-218.948 1582.27,-225.47"/>
</g>
<!-- Node26 -->
<g id="node26" class="node"><title>Node26</title>
<g id="a_node26"><a xlink:href="../../db/d97/class_box_world.html#a72bacb2a6757900d8835249929fcc838" target="_top" xlink:title="BoxWorld.loseGame">
<polygon fill="white" stroke="black" points="1559,-47.5 1559,-66.5 1671,-66.5 1671,-47.5 1559,-47.5"/>
<text text-anchor="middle" x="1615" y="-54.5" font-family="Helvetica,sans-Serif" font-size="10.00">BoxWorld.loseGame</text>
</a>
</g>
</g>
<!-- Node24&#45;&gt;Node26 -->
<g id="edge30" class="edge"><title>Node24&#45;&gt;Node26</title>
<path fill="none" stroke="midnightblue" d="M1497.11,-256.364C1501.84,-253.856 1506.22,-250.775 1510,-247 1559.14,-197.962 1504.16,-150.398 1546,-95 1553.77,-84.7143 1565.18,-76.8201 1576.44,-70.9625"/>
<polygon fill="midnightblue" stroke="midnightblue" points="1578.26,-73.9727 1585.78,-66.5132 1575.25,-67.6527 1578.26,-73.9727"/>
</g>
<!-- Node28 -->
<g id="node28" class="node"><title>Node28</title>
<g id="a_node28"><a xlink:href="../../db/d97/class_box_world.html#ae6ffad41f7ba6122234157c72afe8f9c" target="_top" xlink:title="BoxWorld.onScreen">
<polygon fill="white" stroke="black" points="1560.5,-256.5 1560.5,-275.5 1669.5,-275.5 1669.5,-256.5 1560.5,-256.5"/>
<text text-anchor="middle" x="1615" y="-263.5" font-family="Helvetica,sans-Serif" font-size="10.00">BoxWorld.onScreen</text>
</a>
</g>
</g>
<!-- Node24&#45;&gt;Node28 -->
<g id="edge33" class="edge"><title>Node24&#45;&gt;Node28</title>
<path fill="none" stroke="midnightblue" d="M1501.06,-266C1517.28,-266 1534.4,-266 1550.26,-266"/>
<polygon fill="midnightblue" stroke="midnightblue" points="1550.48,-269.5 1560.48,-266 1550.48,-262.5 1550.48,-269.5"/>
</g>
<!-- Node25&#45;&gt;Node10 -->
<g id="edge28" class="edge"><title>Node25&#45;&gt;Node10</title>
<path fill="none" stroke="midnightblue" d="M1644.29,-199.459C1672.44,-189.965 1715.82,-175.333 1746.97,-164.826"/>
<polygon fill="midnightblue" stroke="midnightblue" points="1748.26,-168.084 1756.62,-161.572 1746.03,-161.451 1748.26,-168.084"/>
</g>
<!-- Node25&#45;&gt;Node12 -->
<g id="edge29" class="edge"><title>Node25&#45;&gt;Node12</title>
<path fill="none" stroke="midnightblue" d="M1676.06,-209C1687.29,-209 1699.14,-209 1710.74,-209"/>
<polygon fill="midnightblue" stroke="midnightblue" points="1710.84,-212.5 1720.84,-209 1710.84,-205.5 1710.84,-212.5"/>
</g>
<!-- Node27 -->
<g id="node27" class="node"><title>Node27</title>
<g id="a_node27"><a xlink:href="../../d4/d2f/class_lose_screen.html#a34f2cc2c803500316c9b8d854854d758" target="_top" xlink:title="LoseScreen.init">
<polygon fill="white" stroke="black" points="1741,-9.5 1741,-28.5 1831,-28.5 1831,-9.5 1741,-9.5"/>
<text text-anchor="middle" x="1786" y="-16.5" font-family="Helvetica,sans-Serif" font-size="10.00">LoseScreen.init</text>
</a>
</g>
</g>
<!-- Node26&#45;&gt;Node27 -->
<g id="edge31" class="edge"><title>Node26&#45;&gt;Node27</title>
<path fill="none" stroke="midnightblue" d="M1658.65,-47.411C1681.15,-42.3513 1708.95,-36.1004 1732.74,-30.7512"/>
<polygon fill="midnightblue" stroke="midnightblue" points="1733.67,-34.1286 1742.66,-28.5201 1732.14,-27.2991 1733.67,-34.1286"/>
</g>
<!-- Node27&#45;&gt;Node2 -->
<g id="edge32" class="edge"><title>Node27&#45;&gt;Node2</title>
<path fill="none" stroke="midnightblue" d="M1740.92,-15.1322C1673.69,-9.57685 1541.49,-1.42109e-14 1429,-0 399,-0 399,-0 399,-0 286.284,-0 183.272,-109.988 146.898,-153.543"/>
<polygon fill="midnightblue" stroke="midnightblue" points="144.16,-151.363 140.529,-161.316 149.574,-155.8 144.16,-151.363"/>
</g>
</g>
</svg>
