<?xml version="1.0" encoding="UTF-8" standalone="no"?>
<!DOCTYPE svg PUBLIC "-//W3C//DTD SVG 1.1//EN"
 "http://www.w3.org/Graphics/SVG/1.1/DTD/svg11.dtd">
<!-- Generated by graphviz version 2.36.0 (20140111.2315)
 -->
<!-- Title: Main.start Pages: 1 -->
<svg width="1892pt" height="550pt"
 viewBox="0.00 0.00 1892.00 550.00" xmlns="http://www.w3.org/2000/svg" xmlns:xlink="http://www.w3.org/1999/xlink">
<g id="graph0" class="graph" transform="scale(1 1) rotate(0) translate(4 546)">
<title>Main.start</title>
<polygon fill="white" stroke="none" points="-4,4 -4,-546 1888,-546 1888,4 -4,4"/>
<!-- Node1 -->
<g id="node1" class="node"><title>Node1</title>
<polygon fill="#bfbfbf" stroke="black" points="0.5,-199.5 0.5,-218.5 65.5,-218.5 65.5,-199.5 0.5,-199.5"/>
<text text-anchor="middle" x="33" y="-206.5" font-family="Helvetica,sans-Serif" font-size="10.00">Main.start</text>
</g>
<!-- Node2 -->
<g id="node2" class="node"><title>Node2</title>
<g id="a_node2"><a xlink:href="../../d2/db8/class_menu.html#a3c99ad09e9f2f975c1a0d0597642651a" target="_top" xlink:title="Menu.init">
<polygon fill="white" stroke="black" points="102,-199.5 102,-218.5 162,-218.5 162,-199.5 102,-199.5"/>
<text text-anchor="middle" x="132" y="-206.5" font-family="Helvetica,sans-Serif" font-size="10.00">Menu.init</text>
</a>
</g>
</g>
<!-- Node1&#45;&gt;Node2 -->
<g id="edge1" class="edge"><title>Node1&#45;&gt;Node2</title>
<path fill="none" stroke="midnightblue" d="M65.7614,-209C74.0105,-209 82.9958,-209 91.5867,-209"/>
<polygon fill="midnightblue" stroke="midnightblue" points="91.7941,-212.5 101.794,-209 91.794,-205.5 91.7941,-212.5"/>
</g>
<!-- Node3 -->
<g id="node3" class="node"><title>Node3</title>
<g id="a_node3"><a xlink:href="../../d2/db8/class_menu.html#a8a6e6125f0dc2dc7e19c6655ba6376a2" target="_top" xlink:title="Menu.addIntroText">
<polygon fill="white" stroke="black" points="198,-237.5 198,-256.5 302,-256.5 302,-237.5 198,-237.5"/>
<text text-anchor="middle" x="250" y="-244.5" font-family="Helvetica,sans-Serif" font-size="10.00">Menu.addIntroText</text>
</a>
</g>
</g>
<!-- Node2&#45;&gt;Node3 -->
<g id="edge2" class="edge"><title>Node2&#45;&gt;Node3</title>
<path fill="none" stroke="midnightblue" d="M162.272,-218.589C176.697,-223.314 194.293,-229.079 209.857,-234.177"/>
<polygon fill="midnightblue" stroke="midnightblue" points="209.145,-237.627 219.738,-237.414 211.324,-230.975 209.145,-237.627"/>
</g>
<!-- Node4 -->
<g id="node4" class="node"><title>Node4</title>
<g id="a_node4"><a xlink:href="../../db/d97/class_box_world.html#a55bf92d3f466bfaade0f6d199d8c9bd9" target="_top" xlink:title="BoxWorld.init">
<polygon fill="white" stroke="black" points="211.5,-199.5 211.5,-218.5 288.5,-218.5 288.5,-199.5 211.5,-199.5"/>
<text text-anchor="middle" x="250" y="-206.5" font-family="Helvetica,sans-Serif" font-size="10.00">BoxWorld.init</text>
</a>
</g>
</g>
<!-- Node2&#45;&gt;Node4 -->
<g id="edge3" class="edge"><title>Node2&#45;&gt;Node4</title>
<path fill="none" stroke="midnightblue" d="M162.272,-209C174.029,-209 187.893,-209 201.046,-209"/>
<polygon fill="midnightblue" stroke="midnightblue" points="201.388,-212.5 211.388,-209 201.388,-205.5 201.388,-212.5"/>
</g>
<!-- Node5 -->
<g id="node5" class="node"><title>Node5</title>
<g id="a_node5"><a xlink:href="../../db/d97/class_box_world.html#a69798621c944e846f045aaf3937505f9" target="_top" xlink:title="BoxWorld.addStarterObjects">
<polygon fill="white" stroke="black" points="976.5,-522.5 976.5,-541.5 1127.5,-541.5 1127.5,-522.5 976.5,-522.5"/>
<text text-anchor="middle" x="1052" y="-529.5" font-family="Helvetica,sans-Serif" font-size="10.00">BoxWorld.addStarterObjects</text>
</a>
</g>
</g>
<!-- Node4&#45;&gt;Node5 -->
<g id="edge4" class="edge"><title>Node4&#45;&gt;Node5</title>
<path fill="none" stroke="midnightblue" d="M281.989,-218.596C288.787,-221.23 295.8,-224.376 302,-228 437.598,-307.256 414.938,-456 572,-456 572,-456 572,-456 737,-456 839.298,-456 860.351,-489.874 960,-513 970.713,-515.486 982.17,-517.995 993.216,-520.338"/>
<polygon fill="midnightblue" stroke="midnightblue" points="992.706,-523.807 1003.21,-522.438 994.145,-516.957 992.706,-523.807"/>
</g>
<!-- Node7 -->
<g id="node7" class="node"><title>Node7</title>
<g id="a_node7"><a xlink:href="../../db/d97/class_box_world.html#a726e747e023543658d7a345cc6466ccb" target="_top" xlink:title="BoxWorld.createScene">
<polygon fill="white" stroke="black" points="338,-218.5 338,-237.5 462,-237.5 462,-218.5 338,-218.5"/>
<text text-anchor="middle" x="400" y="-225.5" font-family="Helvetica,sans-Serif" font-size="10.00">BoxWorld.createScene</text>
</a>
</g>
</g>
<!-- Node4&#45;&gt;Node7 -->
<g id="edge6" class="edge"><title>Node4&#45;&gt;Node7</title>
<path fill="none" stroke="midnightblue" d="M288.73,-213.844C300.604,-215.368 314.135,-217.105 327.553,-218.828"/>
<polygon fill="midnightblue" stroke="midnightblue" points="327.399,-222.337 337.763,-220.138 328.29,-215.394 327.399,-222.337"/>
</g>
<!-- Node29 -->
<g id="node29" class="node"><title>Node29</title>
<g id="a_node29"><a xlink:href="../../db/d97/class_box_world.html#ad20a4e43406c44f4bbf201d1d1028998" target="_top" xlink:title="BoxWorld.start">
<polygon fill="white" stroke="black" points="1009,-180.5 1009,-199.5 1095,-199.5 1095,-180.5 1009,-180.5"/>
<text text-anchor="middle" x="1052" y="-187.5" font-family="Helvetica,sans-Serif" font-size="10.00">BoxWorld.start</text>
</a>
</g>
</g>
<!-- Node4&#45;&gt;Node29 -->
<g id="edge50" class="edge"><title>Node4&#45;&gt;Node29</title>
<path fill="none" stroke="midnightblue" d="M288.516,-205.337C348.39,-199.815 469.279,-190 572,-190 572,-190 572,-190 737,-190 828.986,-190 936.129,-190 998.485,-190"/>
<polygon fill="midnightblue" stroke="midnightblue" points="998.845,-193.5 1008.85,-190 998.845,-186.5 998.845,-193.5"/>
</g>
<!-- Node6 -->
<g id="node6" class="node"><title>Node6</title>
<g id="a_node6"><a xlink:href="../../db/d97/class_box_world.html#a2542cc74ebeba6a9768a443a55186901" target="_top" xlink:title="BoxWorld.createObstacleArray">
<polygon fill="white" stroke="black" points="1180.5,-522.5 1180.5,-541.5 1341.5,-541.5 1341.5,-522.5 1180.5,-522.5"/>
<text text-anchor="middle" x="1261" y="-529.5" font-family="Helvetica,sans-Serif" font-size="10.00">BoxWorld.createObstacleArray</text>
</a>
</g>
</g>
<!-- Node5&#45;&gt;Node6 -->
<g id="edge5" class="edge"><title>Node5&#45;&gt;Node6</title>
<path fill="none" stroke="midnightblue" d="M1127.73,-532C1141.52,-532 1156.06,-532 1170.24,-532"/>
<polygon fill="midnightblue" stroke="midnightblue" points="1170.49,-535.5 1180.49,-532 1170.49,-528.5 1170.49,-535.5"/>
</g>
<!-- Node8 -->
<g id="node8" class="node"><title>Node8</title>
<g id="a_node8"><a xlink:href="../../db/d97/class_box_world.html#aa7e2049d7be23e15fd2ec7fa2922ed79" target="_top" xlink:title="BoxWorld.handleKeyInput">
<polygon fill="white" stroke="black" points="505,-104.5 505,-123.5 641,-123.5 641,-104.5 505,-104.5"/>
<text text-anchor="middle" x="573" y="-111.5" font-family="Helvetica,sans-Serif" font-size="10.00">BoxWorld.handleKeyInput</text>
</a>
</g>
</g>
<!-- Node7&#45;&gt;Node8 -->
<g id="edge7" class="edge"><title>Node7&#45;&gt;Node8</title>
<path fill="none" stroke="midnightblue" d="M415.285,-218.477C444.885,-198.744 513.138,-153.242 549.013,-129.325"/>
<polygon fill="midnightblue" stroke="midnightblue" points="551.014,-132.197 557.393,-123.738 547.131,-126.373 551.014,-132.197"/>
</g>
<!-- Node38 -->
<g id="node38" class="node"><title>Node38</title>
<g id="a_node38"><a xlink:href="../../db/d97/class_box_world.html#a2d44485a181577acb4d79b6b81f26fff" target="_top" xlink:title="BoxWorld.handleKeyRelease">
<polygon fill="white" stroke="black" points="498.5,-218.5 498.5,-237.5 647.5,-237.5 647.5,-218.5 498.5,-218.5"/>
<text text-anchor="middle" x="573" y="-225.5" font-family="Helvetica,sans-Serif" font-size="10.00">BoxWorld.handleKeyRelease</text>
</a>
</g>
</g>
<!-- Node7&#45;&gt;Node38 -->
<g id="edge49" class="edge"><title>Node7&#45;&gt;Node38</title>
<path fill="none" stroke="midnightblue" d="M462.252,-228C470.655,-228 479.399,-228 488.121,-228"/>
<polygon fill="midnightblue" stroke="midnightblue" points="488.327,-231.5 498.327,-228 488.327,-224.5 488.327,-231.5"/>
</g>
<!-- Node9 -->
<g id="node9" class="node"><title>Node9</title>
<g id="a_node9"><a xlink:href="../../db/d97/class_box_world.html#adc4c9d78ffde3d052c4c92047eb98e55" target="_top" xlink:title="BoxWorld.allowMovement">
<polygon fill="white" stroke="black" points="1578.5,-104.5 1578.5,-123.5 1715.5,-123.5 1715.5,-104.5 1578.5,-104.5"/>
<text text-anchor="middle" x="1647" y="-111.5" font-family="Helvetica,sans-Serif" font-size="10.00">BoxWorld.allowMovement</text>
</a>
</g>
</g>
<!-- Node8&#45;&gt;Node9 -->
<g id="edge8" class="edge"><title>Node8&#45;&gt;Node9</title>
<path fill="none" stroke="midnightblue" d="M596.016,-104.375C644.862,-83.924 766.415,-38 873,-38 873,-38 873,-38 1262,-38 1386.73,-38 1422.29,-21.9838 1542,-57 1546.19,-58.2257 1590.5,-82.8566 1619.91,-99.3352"/>
<polygon fill="midnightblue" stroke="midnightblue" points="1618.43,-102.52 1628.87,-104.359 1621.86,-96.4145 1618.43,-102.52"/>
</g>
<!-- Node14 -->
<g id="node14" class="node"><title>Node14</title>
<g id="a_node14"><a xlink:href="../../db/d97/class_box_world.html#a04c6bf977c4292a5433649fb3745fd6b" target="_top" xlink:title="BoxWorld.reset">
<polygon fill="white" stroke="black" points="1217,-104.5 1217,-123.5 1305,-123.5 1305,-104.5 1217,-104.5"/>
<text text-anchor="middle" x="1261" y="-111.5" font-family="Helvetica,sans-Serif" font-size="10.00">BoxWorld.reset</text>
</a>
</g>
</g>
<!-- Node8&#45;&gt;Node14 -->
<g id="edge13" class="edge"><title>Node8&#45;&gt;Node14</title>
<path fill="none" stroke="midnightblue" d="M641.026,-114C776.976,-114 1082.73,-114 1206.49,-114"/>
<polygon fill="midnightblue" stroke="midnightblue" points="1206.83,-117.5 1216.83,-114 1206.83,-110.5 1206.83,-117.5"/>
</g>
<!-- Node15 -->
<g id="node15" class="node"><title>Node15</title>
<g id="a_node15"><a xlink:href="../../da/de2/class_sticky_box.html#aa1bb8f78f676b01c688d75d386758444" target="_top" xlink:title="StickyBox.setDirection">
<polygon fill="white" stroke="black" points="1398,-66.5 1398,-85.5 1522,-85.5 1522,-66.5 1398,-66.5"/>
<text text-anchor="middle" x="1460" y="-73.5" font-family="Helvetica,sans-Serif" font-size="10.00">StickyBox.setDirection</text>
</a>
</g>
</g>
<!-- Node8&#45;&gt;Node15 -->
<g id="edge16" class="edge"><title>Node8&#45;&gt;Node15</title>
<path fill="none" stroke="midnightblue" d="M620.124,-104.46C678.66,-93.2037 782.866,-76 873,-76 873,-76 873,-76 1053,-76 1170.28,-76 1306.61,-76 1387.69,-76"/>
<polygon fill="midnightblue" stroke="midnightblue" points="1387.78,-79.5001 1397.78,-76 1387.78,-72.5001 1387.78,-79.5001"/>
</g>
<!-- Node17 -->
<g id="node17" class="node"><title>Node17</title>
<g id="a_node17"><a xlink:href="../../db/d97/class_box_world.html#aad670712776afe126e51791097027e05" target="_top" xlink:title="BoxWorld.winLevel">
<polygon fill="white" stroke="black" points="684.5,-218.5 684.5,-237.5 787.5,-237.5 787.5,-218.5 684.5,-218.5"/>
<text text-anchor="middle" x="736" y="-225.5" font-family="Helvetica,sans-Serif" font-size="10.00">BoxWorld.winLevel</text>
</a>
</g>
</g>
<!-- Node8&#45;&gt;Node17 -->
<g id="edge17" class="edge"><title>Node8&#45;&gt;Node17</title>
<path fill="none" stroke="midnightblue" d="M587.45,-123.523C615.2,-143.173 679.036,-188.373 712.926,-212.37"/>
<polygon fill="midnightblue" stroke="midnightblue" points="711.063,-215.34 721.247,-218.262 715.108,-209.627 711.063,-215.34"/>
</g>
<!-- Node10 -->
<g id="node10" class="node"><title>Node10</title>
<g id="a_node10"><a xlink:href="../../da/de2/class_sticky_box.html#a6ba3f89630df9d81df5644a3e5f4e387" target="_top" xlink:title="StickyBox.getXDirection">
<polygon fill="white" stroke="black" points="1752.5,-199.5 1752.5,-218.5 1883.5,-218.5 1883.5,-199.5 1752.5,-199.5"/>
<text text-anchor="middle" x="1818" y="-206.5" font-family="Helvetica,sans-Serif" font-size="10.00">StickyBox.getXDirection</text>
</a>
</g>
</g>
<!-- Node9&#45;&gt;Node10 -->
<g id="edge9" class="edge"><title>Node9&#45;&gt;Node10</title>
<path fill="none" stroke="midnightblue" d="M1665.13,-123.632C1694.82,-140.318 1755.98,-174.698 1790.95,-194.356"/>
<polygon fill="midnightblue" stroke="midnightblue" points="1789.64,-197.635 1800.07,-199.484 1793.07,-191.533 1789.64,-197.635"/>
</g>
<!-- Node11 -->
<g id="node11" class="node"><title>Node11</title>
<g id="a_node11"><a xlink:href="../../da/de2/class_sticky_box.html#ab0bd7cafb7f243e3951558ddb8728b96" target="_top" xlink:title="StickyBox.getXPrev">
<polygon fill="white" stroke="black" points="1763.5,-104.5 1763.5,-123.5 1872.5,-123.5 1872.5,-104.5 1763.5,-104.5"/>
<text text-anchor="middle" x="1818" y="-111.5" font-family="Helvetica,sans-Serif" font-size="10.00">StickyBox.getXPrev</text>
</a>
</g>
</g>
<!-- Node9&#45;&gt;Node11 -->
<g id="edge10" class="edge"><title>Node9&#45;&gt;Node11</title>
<path fill="none" stroke="midnightblue" d="M1715.76,-114C1728.1,-114 1740.94,-114 1753.16,-114"/>
<polygon fill="midnightblue" stroke="midnightblue" points="1753.26,-117.5 1763.26,-114 1753.26,-110.5 1753.26,-117.5"/>
</g>
<!-- Node12 -->
<g id="node12" class="node"><title>Node12</title>
<g id="a_node12"><a xlink:href="../../da/de2/class_sticky_box.html#a69e5ccf2a79159c03dea2e048df13318" target="_top" xlink:title="StickyBox.getYDirection">
<polygon fill="white" stroke="black" points="1753,-142.5 1753,-161.5 1883,-161.5 1883,-142.5 1753,-142.5"/>
<text text-anchor="middle" x="1818" y="-149.5" font-family="Helvetica,sans-Serif" font-size="10.00">StickyBox.getYDirection</text>
</a>
</g>
</g>
<!-- Node9&#45;&gt;Node12 -->
<g id="edge11" class="edge"><title>Node9&#45;&gt;Node12</title>
<path fill="none" stroke="midnightblue" d="M1690.65,-123.589C1713.15,-128.649 1740.95,-134.9 1764.74,-140.249"/>
<polygon fill="midnightblue" stroke="midnightblue" points="1764.14,-143.701 1774.66,-142.48 1765.67,-136.871 1764.14,-143.701"/>
</g>
<!-- Node13 -->
<g id="node13" class="node"><title>Node13</title>
<g id="a_node13"><a xlink:href="../../da/de2/class_sticky_box.html#a4c6abed944faed9d9b226079e99cfc24" target="_top" xlink:title="StickyBox.getYPrev">
<polygon fill="white" stroke="black" points="1764,-66.5 1764,-85.5 1872,-85.5 1872,-66.5 1764,-66.5"/>
<text text-anchor="middle" x="1818" y="-73.5" font-family="Helvetica,sans-Serif" font-size="10.00">StickyBox.getYPrev</text>
</a>
</g>
</g>
<!-- Node9&#45;&gt;Node13 -->
<g id="edge12" class="edge"><title>Node9&#45;&gt;Node13</title>
<path fill="none" stroke="midnightblue" d="M1690.65,-104.411C1713.15,-99.3513 1740.95,-93.1004 1764.74,-87.7512"/>
<polygon fill="midnightblue" stroke="midnightblue" points="1765.67,-91.1286 1774.66,-85.5201 1764.14,-84.2991 1765.67,-91.1286"/>
</g>
<!-- Node14&#45;&gt;Node15 -->
<g id="edge14" class="edge"><title>Node14&#45;&gt;Node15</title>
<path fill="none" stroke="midnightblue" d="M1305.23,-105.661C1332.91,-100.322 1369.2,-93.3223 1399.57,-87.4637"/>
<polygon fill="midnightblue" stroke="midnightblue" points="1400.47,-90.8554 1409.62,-85.5246 1399.14,-83.9821 1400.47,-90.8554"/>
</g>
<!-- Node16 -->
<g id="node16" class="node"><title>Node16</title>
<g id="a_node16"><a xlink:href="../../da/de2/class_sticky_box.html#a5d95d2ed2e13f0d87a44311db77f9e36" target="_top" xlink:title="StickyBox.setPreviousDirection">
<polygon fill="white" stroke="black" points="1378,-104.5 1378,-123.5 1542,-123.5 1542,-104.5 1378,-104.5"/>
<text text-anchor="middle" x="1460" y="-111.5" font-family="Helvetica,sans-Serif" font-size="10.00">StickyBox.setPreviousDirection</text>
</a>
</g>
</g>
<!-- Node14&#45;&gt;Node16 -->
<g id="edge15" class="edge"><title>Node14&#45;&gt;Node16</title>
<path fill="none" stroke="midnightblue" d="M1305.23,-114C1323.61,-114 1345.79,-114 1367.52,-114"/>
<polygon fill="midnightblue" stroke="midnightblue" points="1367.78,-117.5 1377.78,-114 1367.78,-110.5 1367.78,-117.5"/>
</g>
<!-- Node18 -->
<g id="node18" class="node"><title>Node18</title>
<g id="a_node18"><a xlink:href="../../d6/d4f/class_item_box_world.html#aa559fc2680327b41fb376e2eda8e82e3" target="_top" xlink:title="ItemBoxWorld.init">
<polygon fill="white" stroke="black" points="824.5,-332.5 824.5,-351.5 923.5,-351.5 923.5,-332.5 824.5,-332.5"/>
<text text-anchor="middle" x="874" y="-339.5" font-family="Helvetica,sans-Serif" font-size="10.00">ItemBoxWorld.init</text>
</a>
</g>
</g>
<!-- Node17&#45;&gt;Node18 -->
<g id="edge18" class="edge"><title>Node17&#45;&gt;Node18</title>
<path fill="none" stroke="midnightblue" d="M748.595,-237.72C771.981,-257.322 825.009,-301.772 853.701,-325.823"/>
<polygon fill="midnightblue" stroke="midnightblue" points="851.522,-328.563 861.434,-332.305 856.019,-323.199 851.522,-328.563"/>
</g>
<!-- Node18&#45;&gt;Node5 -->
<g id="edge24" class="edge"><title>Node18&#45;&gt;Node5</title>
<path fill="none" stroke="midnightblue" d="M879.701,-351.597C897.276,-387.457 958.204,-511.613 960,-513 962.335,-514.804 964.801,-516.446 967.366,-517.942"/>
<polygon fill="midnightblue" stroke="midnightblue" points="965.922,-521.133 976.43,-522.482 969.057,-514.874 965.922,-521.133"/>
</g>
<!-- Node18&#45;&gt;Node7 -->
<g id="edge25" class="edge"><title>Node18&#45;&gt;Node7</title>
<path fill="none" stroke="midnightblue" d="M833.35,-332.423C747.426,-311.671 544.24,-262.596 450.258,-239.897"/>
<polygon fill="midnightblue" stroke="midnightblue" points="450.973,-236.469 440.431,-237.523 449.329,-243.273 450.973,-236.469"/>
</g>
<!-- Node19 -->
<g id="node19" class="node"><title>Node19</title>
<g id="a_node19"><a xlink:href="../../d6/d4f/class_item_box_world.html#a7ead15fd9fd8095f928640161d48fdf8" target="_top" xlink:title="ItemBoxWorld.addAllItems">
<polygon fill="white" stroke="black" points="981.5,-256.5 981.5,-275.5 1122.5,-275.5 1122.5,-256.5 981.5,-256.5"/>
<text text-anchor="middle" x="1052" y="-263.5" font-family="Helvetica,sans-Serif" font-size="10.00">ItemBoxWorld.addAllItems</text>
</a>
</g>
</g>
<!-- Node18&#45;&gt;Node19 -->
<g id="edge19" class="edge"><title>Node18&#45;&gt;Node19</title>
<path fill="none" stroke="midnightblue" d="M886.27,-332.333C901.809,-319.521 931.176,-297.128 960,-285 966.197,-282.393 972.786,-280.131 979.477,-278.171"/>
<polygon fill="midnightblue" stroke="midnightblue" points="980.577,-281.499 989.317,-275.511 978.751,-274.742 980.577,-281.499"/>
</g>
<!-- Node23 -->
<g id="node23" class="node"><title>Node23</title>
<g id="a_node23"><a xlink:href="../../db/d97/class_box_world.html#a61929851f1d60c397e1448e614f1d701" target="_top" xlink:title="BoxWorld.getAnimation">
<polygon fill="white" stroke="black" points="988,-484.5 988,-503.5 1116,-503.5 1116,-484.5 988,-484.5"/>
<text text-anchor="middle" x="1052" y="-491.5" font-family="Helvetica,sans-Serif" font-size="10.00">BoxWorld.getAnimation</text>
</a>
</g>
</g>
<!-- Node18&#45;&gt;Node23 -->
<g id="edge26" class="edge"><title>Node18&#45;&gt;Node23</title>
<path fill="none" stroke="midnightblue" d="M878.144,-351.57C886.811,-376.356 913.537,-442.941 960,-475 965.534,-478.818 971.676,-481.897 978.082,-484.376"/>
<polygon fill="midnightblue" stroke="midnightblue" points="977.023,-487.712 987.617,-487.594 979.261,-481.08 977.023,-487.712"/>
</g>
<!-- Node24 -->
<g id="node24" class="node"><title>Node24</title>
<g id="a_node24"><a xlink:href="../../db/d97/class_box_world.html#a8d7d9f1ae1ebcd87ff73c09780b70629" target="_top" xlink:title="BoxWorld.setAnimation">
<polygon fill="white" stroke="black" points="988.5,-446.5 988.5,-465.5 1115.5,-465.5 1115.5,-446.5 988.5,-446.5"/>
<text text-anchor="middle" x="1052" y="-453.5" font-family="Helvetica,sans-Serif" font-size="10.00">BoxWorld.setAnimation</text>
</a>
</g>
</g>
<!-- Node18&#45;&gt;Node24 -->
<g id="edge27" class="edge"><title>Node18&#45;&gt;Node24</title>
<path fill="none" stroke="midnightblue" d="M880.627,-351.637C892.563,-371.15 922.429,-415.32 960,-437 965.823,-440.36 972.161,-443.13 978.691,-445.412"/>
<polygon fill="midnightblue" stroke="midnightblue" points="977.771,-448.791 988.359,-448.42 979.85,-442.107 977.771,-448.791"/>
</g>
<!-- Node25 -->
<g id="node25" class="node"><title>Node25</title>
<g id="a_node25"><a xlink:href="../../db/d97/class_box_world.html#a3735494d6eeffc036cd757eb21170eb0" target="_top" xlink:title="BoxWorld.setObstacleXCoordinates">
<polygon fill="white" stroke="black" points="960.5,-408.5 960.5,-427.5 1143.5,-427.5 1143.5,-408.5 960.5,-408.5"/>
<text text-anchor="middle" x="1052" y="-415.5" font-family="Helvetica,sans-Serif" font-size="10.00">BoxWorld.setObstacleXCoordinates</text>
</a>
</g>
</g>
<!-- Node18&#45;&gt;Node25 -->
<g id="edge28" class="edge"><title>Node18&#45;&gt;Node25</title>
<path fill="none" stroke="midnightblue" d="M886.27,-351.667C901.809,-364.479 931.176,-386.872 960,-399 966.197,-401.607 972.786,-403.869 979.477,-405.829"/>
<polygon fill="midnightblue" stroke="midnightblue" points="978.751,-409.258 989.317,-408.489 980.577,-402.501 978.751,-409.258"/>
</g>
<!-- Node26 -->
<g id="node26" class="node"><title>Node26</title>
<g id="a_node26"><a xlink:href="../../db/d97/class_box_world.html#ab45827804913790744cdbaaf8a222256" target="_top" xlink:title="BoxWorld.setObstacleYCoordinates">
<polygon fill="white" stroke="black" points="961,-370.5 961,-389.5 1143,-389.5 1143,-370.5 961,-370.5"/>
<text text-anchor="middle" x="1052" y="-377.5" font-family="Helvetica,sans-Serif" font-size="10.00">BoxWorld.setObstacleYCoordinates</text>
</a>
</g>
</g>
<!-- Node18&#45;&gt;Node26 -->
<g id="edge29" class="edge"><title>Node18&#45;&gt;Node26</title>
<path fill="none" stroke="midnightblue" d="M917.345,-351.589C930.956,-354.638 946.107,-357.997 960,-361 971.225,-363.426 983.24,-365.972 994.74,-368.382"/>
<polygon fill="midnightblue" stroke="midnightblue" points="994.175,-371.84 1004.68,-370.46 995.607,-364.988 994.175,-371.84"/>
</g>
<!-- Node27 -->
<g id="node27" class="node"><title>Node27</title>
<g id="a_node27"><a xlink:href="../../db/d97/class_box_world.html#aeeaafc4ff103ded208e6c9393eb4ceca" target="_top" xlink:title="BoxWorld.setRoot">
<polygon fill="white" stroke="black" points="1002.5,-332.5 1002.5,-351.5 1101.5,-351.5 1101.5,-332.5 1002.5,-332.5"/>
<text text-anchor="middle" x="1052" y="-339.5" font-family="Helvetica,sans-Serif" font-size="10.00">BoxWorld.setRoot</text>
</a>
</g>
</g>
<!-- Node18&#45;&gt;Node27 -->
<g id="edge30" class="edge"><title>Node18&#45;&gt;Node27</title>
<path fill="none" stroke="midnightblue" d="M923.559,-342C944.823,-342 969.962,-342 992.269,-342"/>
<polygon fill="midnightblue" stroke="midnightblue" points="992.295,-345.5 1002.29,-342 992.295,-338.5 992.295,-345.5"/>
</g>
<!-- Node28 -->
<g id="node28" class="node"><title>Node28</title>
<g id="a_node28"><a xlink:href="../../db/d97/class_box_world.html#a25c34c68bdd68debd7de01a4f3b98bb1" target="_top" xlink:title="BoxWorld.setStage">
<polygon fill="white" stroke="black" points="998.5,-294.5 998.5,-313.5 1105.5,-313.5 1105.5,-294.5 998.5,-294.5"/>
<text text-anchor="middle" x="1052" y="-301.5" font-family="Helvetica,sans-Serif" font-size="10.00">BoxWorld.setStage</text>
</a>
</g>
</g>
<!-- Node18&#45;&gt;Node28 -->
<g id="edge31" class="edge"><title>Node18&#45;&gt;Node28</title>
<path fill="none" stroke="midnightblue" d="M917.345,-332.411C930.956,-329.362 946.107,-326.003 960,-323 971.225,-320.574 983.24,-318.028 994.74,-315.618"/>
<polygon fill="midnightblue" stroke="midnightblue" points="995.607,-319.012 1004.68,-313.54 994.175,-312.16 995.607,-319.012"/>
</g>
<!-- Node18&#45;&gt;Node29 -->
<g id="edge32" class="edge"><title>Node18&#45;&gt;Node29</title>
<path fill="none" stroke="midnightblue" d="M882.189,-332.29C895.941,-314.128 927.507,-274.382 960,-247 979.756,-230.352 1004.79,-215.024 1023.6,-204.466"/>
<polygon fill="midnightblue" stroke="midnightblue" points="1025.47,-207.43 1032.54,-199.54 1022.1,-201.299 1025.47,-207.43"/>
</g>
<!-- Node20 -->
<g id="node20" class="node"><title>Node20</title>
<g id="a_node20"><a xlink:href="../../d6/d4f/class_item_box_world.html#af1bcde0672796e926560684004ed8e81" target="_top" xlink:title="ItemBoxWorld.addSingleItem">
<polygon fill="white" stroke="black" points="1184,-313.5 1184,-332.5 1338,-332.5 1338,-313.5 1184,-313.5"/>
<text text-anchor="middle" x="1261" y="-320.5" font-family="Helvetica,sans-Serif" font-size="10.00">ItemBoxWorld.addSingleItem</text>
</a>
</g>
</g>
<!-- Node19&#45;&gt;Node20 -->
<g id="edge20" class="edge"><title>Node19&#45;&gt;Node20</title>
<path fill="none" stroke="midnightblue" d="M1103.78,-275.564C1116.94,-278.327 1131.06,-281.541 1144,-285 1171.11,-292.246 1201.21,-302.162 1223.95,-310.048"/>
<polygon fill="midnightblue" stroke="midnightblue" points="1222.93,-313.401 1233.53,-313.4 1225.25,-306.793 1222.93,-313.401"/>
</g>
<!-- Node22 -->
<g id="node22" class="node"><title>Node22</title>
<g id="a_node22"><a xlink:href="../../d6/d4f/class_item_box_world.html#a1890e6c53a4a73e44e9528009fde508d" target="_top" xlink:title="ItemBoxWorld.itemExists">
<polygon fill="white" stroke="black" points="1194,-265.5 1194,-284.5 1328,-284.5 1328,-265.5 1194,-265.5"/>
<text text-anchor="middle" x="1261" y="-272.5" font-family="Helvetica,sans-Serif" font-size="10.00">ItemBoxWorld.itemExists</text>
</a>
</g>
</g>
<!-- Node19&#45;&gt;Node22 -->
<g id="edge22" class="edge"><title>Node19&#45;&gt;Node22</title>
<path fill="none" stroke="midnightblue" d="M1122.5,-269.022C1142.2,-269.878 1163.74,-270.815 1183.8,-271.687"/>
<polygon fill="midnightblue" stroke="midnightblue" points="1183.69,-275.185 1193.83,-272.123 1183.99,-268.192 1183.69,-275.185"/>
</g>
<!-- Node21 -->
<g id="node21" class="node"><title>Node21</title>
<g id="a_node21"><a xlink:href="../../db/d97/class_box_world.html#abb95adb381902ecab1db85efdc1ea6ff" target="_top" xlink:title="BoxWorld.getRoot">
<polygon fill="white" stroke="black" points="1410,-332.5 1410,-351.5 1510,-351.5 1510,-332.5 1410,-332.5"/>
<text text-anchor="middle" x="1460" y="-339.5" font-family="Helvetica,sans-Serif" font-size="10.00">BoxWorld.getRoot</text>
</a>
</g>
</g>
<!-- Node20&#45;&gt;Node21 -->
<g id="edge21" class="edge"><title>Node20&#45;&gt;Node21</title>
<path fill="none" stroke="midnightblue" d="M1338.17,-330.346C1358.54,-332.311 1380.26,-334.406 1399.59,-336.27"/>
<polygon fill="midnightblue" stroke="midnightblue" points="1399.46,-339.774 1409.75,-337.25 1400.13,-332.806 1399.46,-339.774"/>
</g>
<!-- Node22&#45;&gt;Node21 -->
<g id="edge23" class="edge"><title>Node22&#45;&gt;Node21</title>
<path fill="none" stroke="midnightblue" d="M1288.72,-284.513C1304.3,-290.1 1324.3,-297.35 1342,-304 1358.07,-310.037 1361.76,-312.446 1378,-318 1389.82,-322.041 1402.74,-326.049 1414.72,-329.599"/>
<polygon fill="midnightblue" stroke="midnightblue" points="1413.93,-333.017 1424.51,-332.464 1415.9,-326.298 1413.93,-333.017"/>
</g>
<!-- Node30 -->
<g id="node30" class="node"><title>Node30</title>
<g id="a_node30"><a xlink:href="../../db/d97/class_box_world.html#a6794c083c2a0263c2f585f4ae4b7e39c" target="_top" xlink:title="BoxWorld.updateSprites">
<polygon fill="white" stroke="black" points="1195.5,-180.5 1195.5,-199.5 1326.5,-199.5 1326.5,-180.5 1195.5,-180.5"/>
<text text-anchor="middle" x="1261" y="-187.5" font-family="Helvetica,sans-Serif" font-size="10.00">BoxWorld.updateSprites</text>
</a>
</g>
</g>
<!-- Node29&#45;&gt;Node30 -->
<g id="edge33" class="edge"><title>Node29&#45;&gt;Node30</title>
<path fill="none" stroke="midnightblue" d="M1095.14,-190C1121.05,-190 1155,-190 1185.35,-190"/>
<polygon fill="midnightblue" stroke="midnightblue" points="1185.49,-193.5 1195.49,-190 1185.49,-186.5 1185.49,-193.5"/>
</g>
<!-- Node30&#45;&gt;Node10 -->
<g id="edge43" class="edge"><title>Node30&#45;&gt;Node10</title>
<path fill="none" stroke="midnightblue" d="M1273.79,-199.742C1302.99,-223.858 1376.43,-284.439 1378,-285 1519.47,-335.536 1573.52,-332.617 1716,-285 1750.78,-273.375 1783.2,-244.538 1801.51,-225.916"/>
<polygon fill="midnightblue" stroke="midnightblue" points="1804.08,-228.289 1808.46,-218.641 1799.02,-223.454 1804.08,-228.289"/>
</g>
<!-- Node30&#45;&gt;Node12 -->
<g id="edge44" class="edge"><title>Node30&#45;&gt;Node12</title>
<path fill="none" stroke="midnightblue" d="M1312.07,-180.46C1332.45,-176.928 1356.28,-173.241 1378,-171 1505.74,-157.822 1655.3,-153.759 1742.76,-152.522"/>
<polygon fill="midnightblue" stroke="midnightblue" points="1742.89,-156.021 1752.85,-152.388 1742.8,-149.021 1742.89,-156.021"/>
</g>
<!-- Node30&#45;&gt;Node15 -->
<g id="edge46" class="edge"><title>Node30&#45;&gt;Node15</title>
<path fill="none" stroke="midnightblue" d="M1277.39,-180.317C1294,-169.583 1320.9,-151.352 1342,-133 1359.56,-117.734 1357.83,-106.588 1378,-95 1381.91,-92.7539 1386.07,-90.7731 1390.36,-89.0262"/>
<polygon fill="midnightblue" stroke="midnightblue" points="1391.71,-92.2596 1399.92,-85.5636 1389.33,-85.6779 1391.71,-92.2596"/>
</g>
<!-- Node30&#45;&gt;Node16 -->
<g id="edge47" class="edge"><title>Node30&#45;&gt;Node16</title>
<path fill="none" stroke="midnightblue" d="M1281.37,-180.356C1304.14,-169.249 1343.23,-150.879 1378,-138 1389.28,-133.823 1401.64,-129.86 1413.23,-126.403"/>
<polygon fill="midnightblue" stroke="midnightblue" points="1414.56,-129.662 1423.18,-123.501 1412.6,-122.942 1414.56,-129.662"/>
</g>
<!-- Node31 -->
<g id="node31" class="node"><title>Node31</title>
<g id="a_node31"><a xlink:href="../../db/d97/class_box_world.html#a4079bed8937c9f621decfbe1309e31e2" target="_top" xlink:title="BoxWorld.checkAllCollisions">
<polygon fill="white" stroke="black" points="1387,-256.5 1387,-275.5 1533,-275.5 1533,-256.5 1387,-256.5"/>
<text text-anchor="middle" x="1460" y="-263.5" font-family="Helvetica,sans-Serif" font-size="10.00">BoxWorld.checkAllCollisions</text>
</a>
</g>
</g>
<!-- Node30&#45;&gt;Node31 -->
<g id="edge34" class="edge"><title>Node30&#45;&gt;Node31</title>
<path fill="none" stroke="midnightblue" d="M1306.64,-199.544C1318.57,-203.11 1331.16,-207.839 1342,-214 1360.87,-224.723 1358.81,-236.858 1378,-247 1382.32,-249.284 1386.92,-251.296 1391.64,-253.069"/>
<polygon fill="midnightblue" stroke="midnightblue" points="1390.86,-256.5 1401.45,-256.38 1393.1,-249.868 1390.86,-256.5"/>
</g>
<!-- Node36 -->
<g id="node36" class="node"><title>Node36</title>
<g id="a_node36"><a xlink:href="../../da/de2/class_sticky_box.html#a185ee469367b376e6c5969a03d089d57" target="_top" xlink:title="StickyBox.move">
<polygon fill="white" stroke="black" points="1413.5,-218.5 1413.5,-237.5 1506.5,-237.5 1506.5,-218.5 1413.5,-218.5"/>
<text text-anchor="middle" x="1460" y="-225.5" font-family="Helvetica,sans-Serif" font-size="10.00">StickyBox.move</text>
</a>
</g>
</g>
<!-- Node30&#45;&gt;Node36 -->
<g id="edge45" class="edge"><title>Node30&#45;&gt;Node36</title>
<path fill="none" stroke="midnightblue" d="M1311.46,-199.54C1339.39,-204.929 1374.39,-211.68 1403.29,-217.255"/>
<polygon fill="midnightblue" stroke="midnightblue" points="1402.76,-220.716 1413.24,-219.173 1404.08,-213.843 1402.76,-220.716"/>
</g>
<!-- Node37 -->
<g id="node37" class="node"><title>Node37</title>
<g id="a_node37"><a xlink:href="../../da/de2/class_sticky_box.html#a59337f0aa3c7379a2cb9c76bdc621daf" target="_top" xlink:title="StickyBox.setStuck">
<polygon fill="white" stroke="black" points="1406,-180.5 1406,-199.5 1514,-199.5 1514,-180.5 1406,-180.5"/>
<text text-anchor="middle" x="1460" y="-187.5" font-family="Helvetica,sans-Serif" font-size="10.00">StickyBox.setStuck</text>
</a>
</g>
</g>
<!-- Node30&#45;&gt;Node37 -->
<g id="edge48" class="edge"><title>Node30&#45;&gt;Node37</title>
<path fill="none" stroke="midnightblue" d="M1326.51,-190C1348.69,-190 1373.49,-190 1395.59,-190"/>
<polygon fill="midnightblue" stroke="midnightblue" points="1395.86,-193.5 1405.86,-190 1395.86,-186.5 1395.86,-193.5"/>
</g>
<!-- Node31&#45;&gt;Node17 -->
<g id="edge42" class="edge"><title>Node31&#45;&gt;Node17</title>
<path fill="none" stroke="midnightblue" d="M1386.95,-259.397C1372.09,-258.161 1356.54,-256.958 1342,-256 1143.04,-242.898 906.866,-233.843 797.785,-230.028"/>
<polygon fill="midnightblue" stroke="midnightblue" points="797.747,-226.525 787.631,-229.675 797.504,-233.521 797.747,-226.525"/>
</g>
<!-- Node32 -->
<g id="node32" class="node"><title>Node32</title>
<g id="a_node32"><a xlink:href="../../db/d97/class_box_world.html#a55add11037cd6dc48556f2f42a9e11be" target="_top" xlink:title="BoxWorld.checkCollide">
<polygon fill="white" stroke="black" points="1586,-199.5 1586,-218.5 1708,-218.5 1708,-199.5 1586,-199.5"/>
<text text-anchor="middle" x="1647" y="-206.5" font-family="Helvetica,sans-Serif" font-size="10.00">BoxWorld.checkCollide</text>
</a>
</g>
</g>
<!-- Node31&#45;&gt;Node32 -->
<g id="edge35" class="edge"><title>Node31&#45;&gt;Node32</title>
<path fill="none" stroke="midnightblue" d="M1505.82,-256.499C1517.66,-253.713 1530.37,-250.474 1542,-247 1566.06,-239.811 1592.64,-230.065 1612.91,-222.243"/>
<polygon fill="midnightblue" stroke="midnightblue" points="1614.27,-225.47 1622.31,-218.577 1611.73,-218.948 1614.27,-225.47"/>
</g>
<!-- Node33 -->
<g id="node33" class="node"><title>Node33</title>
<g id="a_node33"><a xlink:href="../../db/d97/class_box_world.html#a72bacb2a6757900d8835249929fcc838" target="_top" xlink:title="BoxWorld.loseGame">
<polygon fill="white" stroke="black" points="1591,-47.5 1591,-66.5 1703,-66.5 1703,-47.5 1591,-47.5"/>
<text text-anchor="middle" x="1647" y="-54.5" font-family="Helvetica,sans-Serif" font-size="10.00">BoxWorld.loseGame</text>
</a>
</g>
</g>
<!-- Node31&#45;&gt;Node33 -->
<g id="edge38" class="edge"><title>Node31&#45;&gt;Node33</title>
<path fill="none" stroke="midnightblue" d="M1529.11,-256.364C1533.84,-253.856 1538.22,-250.775 1542,-247 1591.14,-197.962 1536.16,-150.398 1578,-95 1585.77,-84.7143 1597.18,-76.8201 1608.44,-70.9625"/>
<polygon fill="midnightblue" stroke="midnightblue" points="1610.26,-73.9727 1617.78,-66.5132 1607.25,-67.6527 1610.26,-73.9727"/>
</g>
<!-- Node35 -->
<g id="node35" class="node"><title>Node35</title>
<g id="a_node35"><a xlink:href="../../db/d97/class_box_world.html#a167adb49603af3a303ee958011243b5f" target="_top" xlink:title="BoxWorld.onScreen">
<polygon fill="white" stroke="black" points="1592.5,-256.5 1592.5,-275.5 1701.5,-275.5 1701.5,-256.5 1592.5,-256.5"/>
<text text-anchor="middle" x="1647" y="-263.5" font-family="Helvetica,sans-Serif" font-size="10.00">BoxWorld.onScreen</text>
</a>
</g>
</g>
<!-- Node31&#45;&gt;Node35 -->
<g id="edge41" class="edge"><title>Node31&#45;&gt;Node35</title>
<path fill="none" stroke="midnightblue" d="M1533.06,-266C1549.28,-266 1566.4,-266 1582.26,-266"/>
<polygon fill="midnightblue" stroke="midnightblue" points="1582.48,-269.5 1592.48,-266 1582.48,-262.5 1582.48,-269.5"/>
</g>
<!-- Node32&#45;&gt;Node10 -->
<g id="edge36" class="edge"><title>Node32&#45;&gt;Node10</title>
<path fill="none" stroke="midnightblue" d="M1708.06,-209C1719.03,-209 1730.6,-209 1741.94,-209"/>
<polygon fill="midnightblue" stroke="midnightblue" points="1742.26,-212.5 1752.26,-209 1742.26,-205.5 1742.26,-212.5"/>
</g>
<!-- Node32&#45;&gt;Node12 -->
<g id="edge37" class="edge"><title>Node32&#45;&gt;Node12</title>
<path fill="none" stroke="midnightblue" d="M1676.29,-199.459C1704.44,-189.965 1747.82,-175.333 1778.97,-164.826"/>
<polygon fill="midnightblue" stroke="midnightblue" points="1780.26,-168.084 1788.62,-161.572 1778.03,-161.451 1780.26,-168.084"/>
</g>
<!-- Node34 -->
<g id="node34" class="node"><title>Node34</title>
<g id="a_node34"><a xlink:href="../../d4/d2f/class_lose_screen.html#a34f2cc2c803500316c9b8d854854d758" target="_top" xlink:title="LoseScreen.init">
<polygon fill="white" stroke="black" points="1773,-9.5 1773,-28.5 1863,-28.5 1863,-9.5 1773,-9.5"/>
<text text-anchor="middle" x="1818" y="-16.5" font-family="Helvetica,sans-Serif" font-size="10.00">LoseScreen.init</text>
</a>
</g>
</g>
<!-- Node33&#45;&gt;Node34 -->
<g id="edge39" class="edge"><title>Node33&#45;&gt;Node34</title>
<path fill="none" stroke="midnightblue" d="M1690.65,-47.411C1713.15,-42.3513 1740.95,-36.1004 1764.74,-30.7512"/>
<polygon fill="midnightblue" stroke="midnightblue" points="1765.67,-34.1286 1774.66,-28.5201 1764.14,-27.2991 1765.67,-34.1286"/>
</g>
<!-- Node34&#45;&gt;Node2 -->
<g id="edge40" class="edge"><title>Node34&#45;&gt;Node2</title>
<path fill="none" stroke="midnightblue" d="M1772.92,-15.1322C1705.69,-9.57685 1573.49,-0 1461,-0 399,-0 399,-0 399,-0 275.962,-0 176.16,-139.967 143.963,-190.817"/>
<polygon fill="midnightblue" stroke="midnightblue" points="140.888,-189.134 138.592,-199.477 146.837,-192.823 140.888,-189.134"/>
</g>
</g>
</svg>
