<?xml version="1.0" encoding="UTF-8" standalone="no"?>
<!DOCTYPE svg PUBLIC "-//W3C//DTD SVG 1.1//EN"
 "http://www.w3.org/Graphics/SVG/1.1/DTD/svg11.dtd">
<!-- Generated by graphviz version 2.36.0 (20140111.2315)
 -->
<!-- Title: EndScreen Pages: 1 -->
<!--zoomable 302 -->
<svg id="main" version="1.1" xmlns="http://www.w3.org/2000/svg" xmlns:xlink="http://www.w3.org/1999/xlink" xml:space="preserve" onload="init(evt)">
<style type="text/css"><![CDATA[
.edge:hover path { stroke: red; }
.edge:hover polygon { stroke: red; fill: red; }
]]></style>
<script type="text/javascript"><![CDATA[
var edges = document.getElementsByTagName('g');
if (edges && edges.length) {
  for (var i=0;i<edges.length;i++) {
    if (edges[i].id.substr(0,4)=='edge') {
      edges[i].setAttribute('class','edge');
    }
  }
}
]]></script>
        <defs>
                <circle id="rim" cx="0" cy="0" r="7"/>
                <circle id="rim2" cx="0" cy="0" r="3.5"/>
                <g id="zoomPlus">
                        <use xlink:href="#rim" fill="#404040">
                                <set attributeName="fill" to="#808080" begin="zoomplus.mouseover" end="zoomplus.mouseout"/>
                        </use>
                        <path d="M-4,0h8M0,-4v8" fill="none" stroke="white" stroke-width="1.5" pointer-events="none"/>
                </g>
                <g id="zoomMin">
                        <use xlink:href="#rim" fill="#404040">
                                <set attributeName="fill" to="#808080" begin="zoomminus.mouseover" end="zoomminus.mouseout"/>
                        </use>
                        <path d="M-4,0h8" fill="none" stroke="white" stroke-width="1.5" pointer-events="none"/>
                </g>
                <g id="dirArrow">
                        <path fill="none" stroke="white" stroke-width="1.5" d="M0,-3.0v7 M-2.5,-0.5L0,-3.0L2.5,-0.5"/>
                </g>
               <g id="resetDef">
                       <use xlink:href="#rim2" fill="#404040">
                               <set attributeName="fill" to="#808080" begin="reset.mouseover" end="reset.mouseout"/>
                       </use>
               </g>
        </defs>

<script type="text/javascript">
var viewWidth = 686;
var viewHeight = 302;
var sectionId = 'dynsection-0';
</script>
<script xlink:href="../../svgpan.js"/>
<svg id="graph" class="graph">
<g id="viewport">
<title>EndScreen</title>
<polygon fill="white" stroke="none" points="-4,4 -4,-298 681.985,-298 681.985,4 -4,4"/>
<!-- Node1 -->
<g id="node1" class="node"><title>Node1</title>
<polygon fill="#bfbfbf" stroke="black" points="518.985,-0.5 518.985,-19.5 586.985,-19.5 586.985,-0.5 518.985,-0.5"/>
<text text-anchor="middle" x="552.985" y="-7.5" font-family="Helvetica,sans-Serif" font-size="10.00">EndScreen</text>
</g>
<!-- Node2 -->
<g id="node2" class="node"><title>Node2</title>
<polygon fill="white" stroke="#bfbfbf" points="465.485,-216.5 465.485,-235.5 512.485,-235.5 512.485,-216.5 465.485,-216.5"/>
<text text-anchor="middle" x="488.985" y="-223.5" font-family="Helvetica,sans-Serif" font-size="10.00">Scene</text>
</g>
<!-- Node2&#45;&gt;Node1 -->
<g id="edge1" class="edge"><title>Node2&#45;&gt;Node1</title>
<path fill="none" stroke="#9a32cd" stroke-dasharray="5,2" d="M484.875,-206.546C480.377,-182.698 475.144,-140.182 485.985,-106 497.456,-69.8328 528.212,-35.5521 543.742,-19.8922"/>
<polygon fill="#9a32cd" stroke="#9a32cd" points="481.451,-207.272 486.89,-216.365 488.308,-205.865 481.451,-207.272"/>
<text text-anchor="middle" x="510.485" y="-109.5" font-family="Helvetica,sans-Serif" font-size="10.00"> myScene</text>
</g>
<!-- Node3 -->
<g id="node3" class="node"><title>Node3</title>
<g id="a_node3"><a xlink:href="../../d2/db8/class_menu.html" target="_top" xlink:title="Menu">
<polygon fill="white" stroke="black" points="531.485,-68.5 531.485,-87.5 574.485,-87.5 574.485,-68.5 531.485,-68.5"/>
<text text-anchor="middle" x="552.985" y="-75.5" font-family="Helvetica,sans-Serif" font-size="10.00">Menu</text>
</a>
</g>
</g>
<!-- Node2&#45;&gt;Node3 -->
<g id="edge16" class="edge"><title>Node2&#45;&gt;Node3</title>
<path fill="none" stroke="#9a32cd" stroke-dasharray="5,2" d="M498.463,-207.061C500.003,-204.05 501.559,-200.947 502.985,-198 519.965,-162.902 524.387,-154.154 538.985,-118 543.133,-107.727 547.356,-95.7007 550.064,-87.7478"/>
<polygon fill="#9a32cd" stroke="#9a32cd" points="495.29,-205.577 493.777,-216.063 501.499,-208.809 495.29,-205.577"/>
<text text-anchor="middle" x="556.485" y="-144.5" font-family="Helvetica,sans-Serif" font-size="10.00"> myScene</text>
</g>
<!-- Node4 -->
<g id="node4" class="node"><title>Node4</title>
<g id="a_node4"><a xlink:href="../../db/d97/class_box_world.html" target="_top" xlink:title="BoxWorld">
<polygon fill="white" stroke="black" points="233.985,-137.5 233.985,-156.5 293.985,-156.5 293.985,-137.5 233.985,-137.5"/>
<text text-anchor="middle" x="263.985" y="-144.5" font-family="Helvetica,sans-Serif" font-size="10.00">BoxWorld</text>
</a>
</g>
</g>
<!-- Node2&#45;&gt;Node4 -->
<g id="edge12" class="edge"><title>Node2&#45;&gt;Node4</title>
<path fill="none" stroke="#9a32cd" stroke-dasharray="5,2" d="M455.915,-212.866C446.004,-208.695 435.3,-203.638 425.985,-198 412.743,-189.985 412.963,-182.651 398.985,-176 365.267,-159.956 322.512,-153.069 294.255,-150.135"/>
<polygon fill="#9a32cd" stroke="#9a32cd" points="454.897,-216.23 465.48,-216.731 457.519,-209.739 454.897,-216.23"/>
<text text-anchor="middle" x="450.485" y="-184.5" font-family="Helvetica,sans-Serif" font-size="10.00"> myScene</text>
</g>
<!-- Node3&#45;&gt;Node1 -->
<g id="edge2" class="edge"><title>Node3&#45;&gt;Node1</title>
<path fill="none" stroke="#9a32cd" stroke-dasharray="5,2" d="M552.985,-58.0413C552.985,-45.4724 552.985,-29.5631 552.985,-19.8411"/>
<polygon fill="#9a32cd" stroke="#9a32cd" points="549.485,-58.3716 552.985,-68.3717 556.485,-58.3717 549.485,-58.3716"/>
<text text-anchor="middle" x="575.485" y="-41.5" font-family="Helvetica,sans-Serif" font-size="10.00"> myMenu</text>
</g>
<!-- Node4&#45;&gt;Node3 -->
<g id="edge3" class="edge"><title>Node4&#45;&gt;Node3</title>
<path fill="none" stroke="#9a32cd" stroke-dasharray="5,2" d="M304.212,-134.986C335.415,-126.596 379.805,-114.996 418.985,-106 458.305,-96.9719 504.494,-88.0278 531.09,-83.0374"/>
<polygon fill="#9a32cd" stroke="#9a32cd" points="302.904,-131.714 294.162,-137.7 304.728,-138.472 302.904,-131.714"/>
<text text-anchor="middle" x="442.985" y="-109.5" font-family="Helvetica,sans-Serif" font-size="10.00"> myGame</text>
</g>
<!-- Node8 -->
<g id="node8" class="node"><title>Node8</title>
<g id="a_node8"><a xlink:href="../../d6/d4f/class_item_box_world.html" target="_top" xlink:title="ItemBoxWorld">
<polygon fill="white" stroke="black" points="99.9849,-68.5 99.9849,-87.5 181.985,-87.5 181.985,-68.5 99.9849,-68.5"/>
<text text-anchor="middle" x="140.985" y="-75.5" font-family="Helvetica,sans-Serif" font-size="10.00">ItemBoxWorld</text>
</a>
</g>
</g>
<!-- Node4&#45;&gt;Node8 -->
<g id="edge8" class="edge"><title>Node4&#45;&gt;Node8</title>
<path fill="none" stroke="midnightblue" d="M230.849,-133.78C219.839,-129.294 207.669,-123.866 196.985,-118 180.576,-108.991 163.09,-96.2468 152.107,-87.8095"/>
<polygon fill="midnightblue" stroke="midnightblue" points="229.573,-137.039 240.159,-137.466 232.149,-130.53 229.573,-137.039"/>
</g>
<!-- Node5 -->
<g id="node5" class="node"><title>Node5</title>
<polygon fill="white" stroke="#bfbfbf" points="235.985,-216.5 235.985,-235.5 291.985,-235.5 291.985,-216.5 235.985,-216.5"/>
<text text-anchor="middle" x="263.985" y="-223.5" font-family="Helvetica,sans-Serif" font-size="10.00">Timeline</text>
</g>
<!-- Node5&#45;&gt;Node4 -->
<g id="edge4" class="edge"><title>Node5&#45;&gt;Node4</title>
<path fill="none" stroke="#9a32cd" stroke-dasharray="5,2" d="M263.985,-206.315C263.985,-190.592 263.985,-168.808 263.985,-156.809"/>
<polygon fill="#9a32cd" stroke="#9a32cd" points="260.485,-206.465 263.985,-216.465 267.485,-206.465 260.485,-206.465"/>
<text text-anchor="middle" x="297.485" y="-184.5" font-family="Helvetica,sans-Serif" font-size="10.00"> myAnimation</text>
</g>
<!-- Node6 -->
<g id="node6" class="node"><title>Node6</title>
<polygon fill="white" stroke="#bfbfbf" points="24.4849,-216.5 24.4849,-235.5 69.4849,-235.5 69.4849,-216.5 24.4849,-216.5"/>
<text text-anchor="middle" x="46.9849" y="-223.5" font-family="Helvetica,sans-Serif" font-size="10.00">Stage</text>
</g>
<!-- Node6&#45;&gt;Node4 -->
<g id="edge5" class="edge"><title>Node6&#45;&gt;Node4</title>
<path fill="none" stroke="#9a32cd" stroke-dasharray="5,2" d="M65.5508,-209.942C80.0766,-198.914 101.228,-184.452 121.985,-176 141.824,-167.921 198.225,-158.184 233.686,-152.58"/>
<polygon fill="#9a32cd" stroke="#9a32cd" points="63.1574,-207.37 57.4254,-216.28 67.4629,-212.889 63.1574,-207.37"/>
<text text-anchor="middle" x="145.485" y="-184.5" font-family="Helvetica,sans-Serif" font-size="10.00"> myStage</text>
</g>
<!-- Node6&#45;&gt;Node8 -->
<g id="edge9" class="edge"><title>Node6&#45;&gt;Node8</title>
<path fill="none" stroke="#9a32cd" stroke-dasharray="5,2" d="M29.7199,-208.863C12.3512,-190.603 -9.88891,-160.249 4.9849,-136 24.8625,-103.593 67.4417,-89.6032 99.6965,-83.5685"/>
<polygon fill="#9a32cd" stroke="#9a32cd" points="27.6564,-211.749 37.2064,-216.337 32.6018,-206.795 27.6564,-211.749"/>
<text text-anchor="middle" x="28.4849" y="-144.5" font-family="Helvetica,sans-Serif" font-size="10.00"> myStage</text>
</g>
<!-- Node7 -->
<g id="node7" class="node"><title>Node7</title>
<polygon fill="white" stroke="#bfbfbf" points="122.985,-216.5 122.985,-235.5 190.985,-235.5 190.985,-216.5 122.985,-216.5"/>
<text text-anchor="middle" x="156.985" y="-223.5" font-family="Helvetica,sans-Serif" font-size="10.00">ImageView</text>
</g>
<!-- Node7&#45;&gt;Node4 -->
<g id="edge6" class="edge"><title>Node7&#45;&gt;Node4</title>
<path fill="none" stroke="#9a32cd" stroke-dasharray="5,2" d="M166.612,-207.242C172.952,-196.946 182.085,-184.397 192.985,-176 204.951,-166.782 220.34,-160.221 233.729,-155.779"/>
<polygon fill="#9a32cd" stroke="#9a32cd" points="163.4,-205.805 161.423,-216.214 169.46,-209.31 163.4,-205.805"/>
<text text-anchor="middle" x="226.485" y="-190" font-family="Helvetica,sans-Serif" font-size="10.00"> myExit</text>
<text text-anchor="middle" x="226.485" y="-179" font-family="Helvetica,sans-Serif" font-size="10.00">obstacleArray</text>
</g>
<!-- Node7&#45;&gt;Node8 -->
<g id="edge10" class="edge"><title>Node7&#45;&gt;Node8</title>
<path fill="none" stroke="#9a32cd" stroke-dasharray="5,2" d="M154.916,-206.121C151.426,-174.272 144.499,-111.068 141.953,-87.8348"/>
<polygon fill="#9a32cd" stroke="#9a32cd" points="151.463,-206.745 156.032,-216.304 158.422,-205.982 151.463,-206.745"/>
<text text-anchor="middle" x="172.985" y="-150" font-family="Helvetica,sans-Serif" font-size="10.00"> myItem1</text>
<text text-anchor="middle" x="172.985" y="-139" font-family="Helvetica,sans-Serif" font-size="10.00">myItem2</text>
</g>
<!-- Node8&#45;&gt;Node4 -->
<g id="edge7" class="edge"><title>Node8&#45;&gt;Node4</title>
<path fill="none" stroke="#9a32cd" stroke-dasharray="5,2" d="M169.146,-91.976C178.128,-96.2742 188.051,-101.192 196.985,-106 215.833,-116.144 236.937,-129.003 250.333,-137.362"/>
<polygon fill="#9a32cd" stroke="#9a32cd" points="170.398,-88.6965 159.861,-87.5894 167.408,-95.0257 170.398,-88.6965"/>
<text text-anchor="middle" x="250.985" y="-109.5" font-family="Helvetica,sans-Serif" font-size="10.00"> myNextLevel</text>
</g>
<!-- Node9 -->
<g id="node9" class="node"><title>Node9</title>
<polygon fill="white" stroke="#bfbfbf" points="61.4849,-137.5 61.4849,-156.5 96.4849,-156.5 96.4849,-137.5 61.4849,-137.5"/>
<text text-anchor="middle" x="78.9849" y="-144.5" font-family="Helvetica,sans-Serif" font-size="10.00">Text</text>
</g>
<!-- Node9&#45;&gt;Node8 -->
<g id="edge11" class="edge"><title>Node9&#45;&gt;Node8</title>
<path fill="none" stroke="#9a32cd" stroke-dasharray="5,2" d="M69.8463,-128.077C67.435,-120.712 66.5777,-112.424 70.9849,-106 77.7644,-96.1187 88.7117,-89.8525 99.9556,-85.8792"/>
<polygon fill="#9a32cd" stroke="#9a32cd" points="66.6243,-129.444 73.7492,-137.286 73.0693,-126.713 66.6243,-129.444"/>
<text text-anchor="middle" x="98.9849" y="-109.5" font-family="Helvetica,sans-Serif" font-size="10.00"> myWarning</text>
</g>
<!-- Node10 -->
<g id="node10" class="node"><title>Node10</title>
<g id="a_node10"><a xlink:href="../../da/de2/class_sticky_box.html" target="_top" xlink:title="StickyBox">
<polygon fill="white" stroke="black" points="322.485,-216.5 322.485,-235.5 385.485,-235.5 385.485,-216.5 322.485,-216.5"/>
<text text-anchor="middle" x="353.985" y="-223.5" font-family="Helvetica,sans-Serif" font-size="10.00">StickyBox</text>
</a>
</g>
</g>
<!-- Node10&#45;&gt;Node4 -->
<g id="edge13" class="edge"><title>Node10&#45;&gt;Node4</title>
<path fill="none" stroke="#9a32cd" stroke-dasharray="5,2" d="M349.28,-206.326C345.911,-196.234 340.443,-184.197 331.985,-176 321.625,-165.96 307.161,-159.328 294.236,-155.051"/>
<polygon fill="#9a32cd" stroke="#9a32cd" points="346.008,-207.61 352.154,-216.24 352.731,-205.661 346.008,-207.61"/>
<text text-anchor="middle" x="370.985" y="-184.5" font-family="Helvetica,sans-Serif" font-size="10.00"> myPlayer</text>
</g>
<!-- Node11 -->
<g id="node11" class="node"><title>Node11</title>
<polygon fill="white" stroke="#bfbfbf" points="322.485,-274.5 322.485,-293.5 385.485,-293.5 385.485,-274.5 322.485,-274.5"/>
<text text-anchor="middle" x="353.985" y="-281.5" font-family="Helvetica,sans-Serif" font-size="10.00">Rectangle</text>
</g>
<!-- Node11&#45;&gt;Node10 -->
<g id="edge14" class="edge"><title>Node11&#45;&gt;Node10</title>
<path fill="none" stroke="midnightblue" d="M353.985,-263.953C353.985,-254.287 353.985,-243.031 353.985,-235.505"/>
<polygon fill="midnightblue" stroke="midnightblue" points="350.485,-264.25 353.985,-274.25 357.485,-264.25 350.485,-264.25"/>
</g>
<!-- Node12 -->
<g id="node12" class="node"><title>Node12</title>
<polygon fill="white" stroke="#bfbfbf" points="606.985,-216.5 606.985,-235.5 652.985,-235.5 652.985,-216.5 606.985,-216.5"/>
<text text-anchor="middle" x="629.985" y="-223.5" font-family="Helvetica,sans-Serif" font-size="10.00">Group</text>
</g>
<!-- Node12&#45;&gt;Node1 -->
<g id="edge18" class="edge"><title>Node12&#45;&gt;Node1</title>
<path fill="none" stroke="#9a32cd" stroke-dasharray="5,2" d="M635.607,-206.538C640.329,-188.46 645.621,-160.185 640.985,-136 632.16,-89.9602 633,-73.1514 601.985,-38 594.916,-29.9884 584.875,-23.8768 575.721,-19.5114"/>
<polygon fill="#9a32cd" stroke="#9a32cd" points="632.186,-205.774 632.835,-216.349 638.922,-207.678 632.186,-205.774"/>
<text text-anchor="middle" x="657.985" y="-109.5" font-family="Helvetica,sans-Serif" font-size="10.00"> myRoot</text>
</g>
<!-- Node12&#45;&gt;Node3 -->
<g id="edge17" class="edge"><title>Node12&#45;&gt;Node3</title>
<path fill="none" stroke="#9a32cd" stroke-dasharray="5,2" d="M621.314,-207.291C612.412,-189.246 598.052,-160.508 584.985,-136 575.801,-118.776 564.513,-98.9659 558.094,-87.8201"/>
<polygon fill="#9a32cd" stroke="#9a32cd" points="618.211,-208.914 625.764,-216.344 624.493,-205.826 618.211,-208.914"/>
<text text-anchor="middle" x="616.985" y="-144.5" font-family="Helvetica,sans-Serif" font-size="10.00"> myRoot</text>
</g>
<!-- Node12&#45;&gt;Node4 -->
<g id="edge15" class="edge"><title>Node12&#45;&gt;Node4</title>
<path fill="none" stroke="#9a32cd" stroke-dasharray="5,2" d="M598.254,-212.808C568.023,-201.648 521.017,-185.472 478.985,-176 413.989,-161.353 336.091,-153.575 294.203,-150.169"/>
<polygon fill="#9a32cd" stroke="#9a32cd" points="597.239,-216.165 607.832,-216.383 599.687,-209.607 597.239,-216.165"/>
<text text-anchor="middle" x="574.985" y="-184.5" font-family="Helvetica,sans-Serif" font-size="10.00"> myRoot</text>
</g>
</g>
</svg>
        <g id="navigator" transform="translate(0 0)" fill="#404254">
                <rect fill="#f2f5e9" fill-opacity="0.5" stroke="#606060" stroke-width=".5" x="0" y="0" width="60" height="60"/>
                <use id="zoomplus" xlink:href="#zoomPlus" x="17" y="9" onmousedown="handleZoom(evt,'in')"/>
                <use id="zoomminus" xlink:href="#zoomMin" x="42" y="9" onmousedown="handleZoom(evt,'out')"/>
                <use id="reset" xlink:href="#resetDef" x="30" y="36" onmousedown="handleReset()"/>
                <g id="arrowUp" xlink:href="#dirArrow" transform="translate(30 24)" onmousedown="handlePan(0,-1)">
                  <use xlink:href="#rim" fill="#404040">
                        <set attributeName="fill" to="#808080" begin="arrowUp.mouseover" end="arrowUp.mouseout"/>
                  </use>
                  <path fill="none" stroke="white" stroke-width="1.5" d="M0,-3.0v7 M-2.5,-0.5L0,-3.0L2.5,-0.5"/>
                </g>
                <g id="arrowRight" xlink:href="#dirArrow" transform="rotate(90) translate(36 -43)" onmousedown="handlePan(1,0)">
                  <use xlink:href="#rim" fill="#404040">
                        <set attributeName="fill" to="#808080" begin="arrowRight.mouseover" end="arrowRight.mouseout"/>
                  </use>
                  <path fill="none" stroke="white" stroke-width="1.5" d="M0,-3.0v7 M-2.5,-0.5L0,-3.0L2.5,-0.5"/>
                </g>
                <g id="arrowDown" xlink:href="#dirArrow" transform="rotate(180) translate(-30 -48)" onmousedown="handlePan(0,1)">
                  <use xlink:href="#rim" fill="#404040">
                        <set attributeName="fill" to="#808080" begin="arrowDown.mouseover" end="arrowDown.mouseout"/>
                  </use>
                  <path fill="none" stroke="white" stroke-width="1.5" d="M0,-3.0v7 M-2.5,-0.5L0,-3.0L2.5,-0.5"/>
                </g>
                <g id="arrowLeft" xlink:href="#dirArrow" transform="rotate(270) translate(-36 17)" onmousedown="handlePan(-1,0)">
                  <use xlink:href="#rim" fill="#404040">
                        <set attributeName="fill" to="#808080" begin="arrowLeft.mouseover" end="arrowLeft.mouseout"/>
                  </use>
                  <path fill="none" stroke="white" stroke-width="1.5" d="M0,-3.0v7 M-2.5,-0.5L0,-3.0L2.5,-0.5"/>
                </g>
        </g>
        <svg viewBox="0 0 15 15" width="100%" height="30px" preserveAspectRatio="xMaxYMin meet">
         <g id="arrow_out" transform="scale(0.3 0.3)">
          <a xlink:href="class_end_screen__coll__graph_org.svg" target="_base">
           <rect id="button" ry="5" rx="5" y="6" x="6" height="38" width="38"
                fill="#f2f5e9" fill-opacity="0.5" stroke="#606060" stroke-width="1.0"/>
           <path id="arrow"
             d="M 11.500037,31.436501 C 11.940474,20.09759 22.043105,11.32322 32.158766,21.979434 L 37.068811,17.246167 C 37.068811,17.246167 37.088388,32 37.088388,32 L 22.160133,31.978069 C 22.160133,31.978069 26.997745,27.140456 26.997745,27.140456 C 18.528582,18.264221 13.291696,25.230495 11.500037,31.436501 z"
             style="fill:#404040;"/>
          </a>
         </g>
        </svg>
</svg>
