<?xml version="1.0" encoding="UTF-8" standalone="no"?>
<!DOCTYPE svg PUBLIC "-//W3C//DTD SVG 1.1//EN"
 "http://www.w3.org/Graphics/SVG/1.1/DTD/svg11.dtd">
<!-- Generated by graphviz version 2.36.0 (20140111.2315)
 -->
<!-- Title: EndScreen Pages: 1 -->
<!--zoomable 300 -->
<svg id="main" version="1.1" xmlns="http://www.w3.org/2000/svg" xmlns:xlink="http://www.w3.org/1999/xlink" xml:space="preserve" onload="init(evt)">
<style type="text/css"><![CDATA[
.edge:hover path { stroke: red; }
.edge:hover polygon { stroke: red; fill: red; }
]]></style>
<script type="text/javascript"><![CDATA[
var edges = document.getElementsByTagName('g');
if (edges && edges.length) {
  for (var i=0;i<edges.length;i++) {
    if (edges[i].id.substr(0,4)=='edge') {
      edges[i].setAttribute('class','edge');
    }
  }
}
]]></script>
        <defs>
                <circle id="rim" cx="0" cy="0" r="7"/>
                <circle id="rim2" cx="0" cy="0" r="3.5"/>
                <g id="zoomPlus">
                        <use xlink:href="#rim" fill="#404040">
                                <set attributeName="fill" to="#808080" begin="zoomplus.mouseover" end="zoomplus.mouseout"/>
                        </use>
                        <path d="M-4,0h8M0,-4v8" fill="none" stroke="white" stroke-width="1.5" pointer-events="none"/>
                </g>
                <g id="zoomMin">
                        <use xlink:href="#rim" fill="#404040">
                                <set attributeName="fill" to="#808080" begin="zoomminus.mouseover" end="zoomminus.mouseout"/>
                        </use>
                        <path d="M-4,0h8" fill="none" stroke="white" stroke-width="1.5" pointer-events="none"/>
                </g>
                <g id="dirArrow">
                        <path fill="none" stroke="white" stroke-width="1.5" d="M0,-3.0v7 M-2.5,-0.5L0,-3.0L2.5,-0.5"/>
                </g>
               <g id="resetDef">
                       <use xlink:href="#rim2" fill="#404040">
                               <set attributeName="fill" to="#808080" begin="reset.mouseover" end="reset.mouseout"/>
                       </use>
               </g>
        </defs>

<script type="text/javascript">
var viewWidth = 552;
var viewHeight = 300;
var sectionId = 'dynsection-0';
</script>
<script xlink:href="../../svgpan.js"/>
<svg id="graph" class="graph">
<g id="viewport">
<title>EndScreen</title>
<polygon fill="white" stroke="none" points="-4,4 -4,-296 548,-296 548,4 -4,4"/>
<!-- Node1 -->
<g id="node1" class="node"><title>Node1</title>
<polygon fill="#bfbfbf" stroke="black" points="219,-0.5 219,-19.5 287,-19.5 287,-0.5 219,-0.5"/>
<text text-anchor="middle" x="253" y="-7.5" font-family="Helvetica,sans-Serif" font-size="10.00">EndScreen</text>
</g>
<!-- Node2 -->
<g id="node2" class="node"><title>Node2</title>
<polygon fill="white" stroke="#bfbfbf" points="-0.5,-214.5 -0.5,-233.5 46.5,-233.5 46.5,-214.5 -0.5,-214.5"/>
<text text-anchor="middle" x="23" y="-221.5" font-family="Helvetica,sans-Serif" font-size="10.00">Scene</text>
</g>
<!-- Node2&#45;&gt;Node1 -->
<g id="edge1" class="edge"><title>Node2&#45;&gt;Node1</title>
<path fill="none" stroke="#9a32cd" stroke-dasharray="5,2" d="M22.153,-204.197C22.3209,-194.854 23.4304,-183.549 27,-174 40.1353,-138.862 48.6956,-130.619 77,-106 124.944,-64.2989 194.28,-33.6722 229.924,-19.5963"/>
<polygon fill="#9a32cd" stroke="#9a32cd" points="18.6561,-204.428 22.3131,-214.372 25.6553,-204.318 18.6561,-204.428"/>
<text text-anchor="middle" x="101.5" y="-109.5" font-family="Helvetica,sans-Serif" font-size="10.00"> myScene</text>
</g>
<!-- Node3 -->
<g id="node3" class="node"><title>Node3</title>
<g id="a_node3"><a xlink:href="../../d2/db8/class_menu.html" target="_top" xlink:title="Menu">
<polygon fill="white" stroke="black" points="231.5,-68.5 231.5,-87.5 274.5,-87.5 274.5,-68.5 231.5,-68.5"/>
<text text-anchor="middle" x="253" y="-75.5" font-family="Helvetica,sans-Serif" font-size="10.00">Menu</text>
</a>
</g>
</g>
<!-- Node2&#45;&gt;Node3 -->
<g id="edge11" class="edge"><title>Node2&#45;&gt;Node3</title>
<path fill="none" stroke="#9a32cd" stroke-dasharray="5,2" d="M27.4128,-204.449C30.6036,-194.395 35.8238,-182.356 44,-174 97.9389,-118.876 189.744,-92.8082 231.356,-83.3655"/>
<polygon fill="#9a32cd" stroke="#9a32cd" points="23.9777,-203.74 24.7031,-214.31 30.7276,-205.595 23.9777,-203.74"/>
<text text-anchor="middle" x="118.5" y="-143.5" font-family="Helvetica,sans-Serif" font-size="10.00"> myScene</text>
</g>
<!-- Node4 -->
<g id="node4" class="node"><title>Node4</title>
<g id="a_node4"><a xlink:href="../../db/d97/class_box_world.html" target="_top" xlink:title="BoxWorld">
<polygon fill="white" stroke="black" points="223,-136.5 223,-155.5 283,-155.5 283,-136.5 223,-136.5"/>
<text text-anchor="middle" x="253" y="-143.5" font-family="Helvetica,sans-Serif" font-size="10.00">BoxWorld</text>
</a>
</g>
</g>
<!-- Node2&#45;&gt;Node4 -->
<g id="edge7" class="edge"><title>Node2&#45;&gt;Node4</title>
<path fill="none" stroke="#9a32cd" stroke-dasharray="5,2" d="M36.6138,-206.696C46.8207,-195.622 61.7758,-181.646 78,-174 125.134,-151.786 186.57,-147.151 222.707,-146.556"/>
<polygon fill="#9a32cd" stroke="#9a32cd" points="33.7717,-204.628 29.7916,-214.446 39.0261,-209.253 33.7717,-204.628"/>
<text text-anchor="middle" x="102.5" y="-182.5" font-family="Helvetica,sans-Serif" font-size="10.00"> myScene</text>
</g>
<!-- Node3&#45;&gt;Node1 -->
<g id="edge2" class="edge"><title>Node3&#45;&gt;Node1</title>
<path fill="none" stroke="#9a32cd" stroke-dasharray="5,2" d="M253,-58.0413C253,-45.4724 253,-29.5631 253,-19.8411"/>
<polygon fill="#9a32cd" stroke="#9a32cd" points="249.5,-58.3716 253,-68.3717 256.5,-58.3717 249.5,-58.3716"/>
<text text-anchor="middle" x="275.5" y="-41.5" font-family="Helvetica,sans-Serif" font-size="10.00"> myMenu</text>
</g>
<!-- Node4&#45;&gt;Node3 -->
<g id="edge3" class="edge"><title>Node4&#45;&gt;Node3</title>
<path fill="none" stroke="#9a32cd" stroke-dasharray="5,2" d="M253,-126.041C253,-113.472 253,-97.5631 253,-87.8411"/>
<polygon fill="#9a32cd" stroke="#9a32cd" points="249.5,-126.372 253,-136.372 256.5,-126.372 249.5,-126.372"/>
<text text-anchor="middle" x="277" y="-109.5" font-family="Helvetica,sans-Serif" font-size="10.00"> myGame</text>
</g>
<!-- Node5 -->
<g id="node5" class="node"><title>Node5</title>
<polygon fill="white" stroke="#bfbfbf" points="100,-214.5 100,-233.5 156,-233.5 156,-214.5 100,-214.5"/>
<text text-anchor="middle" x="128" y="-221.5" font-family="Helvetica,sans-Serif" font-size="10.00">Timeline</text>
</g>
<!-- Node5&#45;&gt;Node4 -->
<g id="edge4" class="edge"><title>Node5&#45;&gt;Node4</title>
<path fill="none" stroke="#9a32cd" stroke-dasharray="5,2" d="M128.464,-204.353C129.705,-194.083 132.958,-181.861 141,-174 162.598,-152.888 197.684,-147.288 222.831,-146.246"/>
<polygon fill="#9a32cd" stroke="#9a32cd" points="124.965,-204.218 127.776,-214.433 131.949,-204.695 124.965,-204.218"/>
<text text-anchor="middle" x="174.5" y="-182.5" font-family="Helvetica,sans-Serif" font-size="10.00"> myAnimation</text>
</g>
<!-- Node6 -->
<g id="node6" class="node"><title>Node6</title>
<polygon fill="white" stroke="#bfbfbf" points="192.5,-214.5 192.5,-233.5 237.5,-233.5 237.5,-214.5 192.5,-214.5"/>
<text text-anchor="middle" x="215" y="-221.5" font-family="Helvetica,sans-Serif" font-size="10.00">Stage</text>
</g>
<!-- Node6&#45;&gt;Node4 -->
<g id="edge5" class="edge"><title>Node6&#45;&gt;Node4</title>
<path fill="none" stroke="#9a32cd" stroke-dasharray="5,2" d="M212.1,-204.38C211.483,-194.789 212.159,-183.208 217,-174 221.072,-166.255 228.472,-160.119 235.508,-155.667"/>
<polygon fill="#9a32cd" stroke="#9a32cd" points="208.639,-204.922 213.245,-214.463 215.594,-204.132 208.639,-204.922"/>
<text text-anchor="middle" x="240.5" y="-182.5" font-family="Helvetica,sans-Serif" font-size="10.00"> myStage</text>
</g>
<!-- Node7 -->
<g id="node7" class="node"><title>Node7</title>
<polygon fill="white" stroke="#bfbfbf" points="256,-214.5 256,-233.5 324,-233.5 324,-214.5 256,-214.5"/>
<text text-anchor="middle" x="290" y="-221.5" font-family="Helvetica,sans-Serif" font-size="10.00">ImageView</text>
</g>
<!-- Node7&#45;&gt;Node4 -->
<g id="edge6" class="edge"><title>Node7&#45;&gt;Node4</title>
<path fill="none" stroke="#9a32cd" stroke-dasharray="5,2" d="M281.296,-205.122C273.705,-189.53 263.022,-167.586 257.195,-155.616"/>
<polygon fill="#9a32cd" stroke="#9a32cd" points="278.231,-206.823 285.756,-214.282 284.525,-203.759 278.231,-206.823"/>
<text text-anchor="middle" x="311" y="-188" font-family="Helvetica,sans-Serif" font-size="10.00"> obstacleArray</text>
<text text-anchor="middle" x="311" y="-177" font-family="Helvetica,sans-Serif" font-size="10.00">myExit</text>
</g>
<!-- Node8 -->
<g id="node8" class="node"><title>Node8</title>
<g id="a_node8"><a xlink:href="../../da/de2/class_sticky_box.html" target="_top" xlink:title="StickyBox">
<polygon fill="white" stroke="black" points="349.5,-214.5 349.5,-233.5 412.5,-233.5 412.5,-214.5 349.5,-214.5"/>
<text text-anchor="middle" x="381" y="-221.5" font-family="Helvetica,sans-Serif" font-size="10.00">StickyBox</text>
</a>
</g>
</g>
<!-- Node8&#45;&gt;Node4 -->
<g id="edge8" class="edge"><title>Node8&#45;&gt;Node4</title>
<path fill="none" stroke="#9a32cd" stroke-dasharray="5,2" d="M373.717,-205.193C368.557,-194.678 360.654,-181.917 350,-174 330.498,-159.507 303.577,-152.793 283.043,-149.682"/>
<polygon fill="#9a32cd" stroke="#9a32cd" points="370.539,-206.661 377.823,-214.354 376.927,-203.797 370.539,-206.661"/>
<text text-anchor="middle" x="393" y="-182.5" font-family="Helvetica,sans-Serif" font-size="10.00"> myPlayer</text>
</g>
<!-- Node9 -->
<g id="node9" class="node"><title>Node9</title>
<polygon fill="white" stroke="#bfbfbf" points="349.5,-272.5 349.5,-291.5 412.5,-291.5 412.5,-272.5 349.5,-272.5"/>
<text text-anchor="middle" x="381" y="-279.5" font-family="Helvetica,sans-Serif" font-size="10.00">Rectangle</text>
</g>
<!-- Node9&#45;&gt;Node8 -->
<g id="edge9" class="edge"><title>Node9&#45;&gt;Node8</title>
<path fill="none" stroke="midnightblue" d="M381,-261.953C381,-252.287 381,-241.031 381,-233.505"/>
<polygon fill="midnightblue" stroke="midnightblue" points="377.5,-262.25 381,-272.25 384.5,-262.25 377.5,-262.25"/>
</g>
<!-- Node10 -->
<g id="node10" class="node"><title>Node10</title>
<polygon fill="white" stroke="#bfbfbf" points="484,-214.5 484,-233.5 530,-233.5 530,-214.5 484,-214.5"/>
<text text-anchor="middle" x="507" y="-221.5" font-family="Helvetica,sans-Serif" font-size="10.00">Group</text>
</g>
<!-- Node10&#45;&gt;Node1 -->
<g id="edge13" class="edge"><title>Node10&#45;&gt;Node1</title>
<path fill="none" stroke="#9a32cd" stroke-dasharray="5,2" d="M515.583,-205.141C523.21,-186.442 531.275,-156.939 518,-136 466.523,-54.8014 346.614,-25.3652 287.376,-15.519"/>
<polygon fill="#9a32cd" stroke="#9a32cd" points="512.378,-203.735 511.529,-214.295 518.779,-206.569 512.378,-203.735"/>
<text text-anchor="middle" x="524" y="-109.5" font-family="Helvetica,sans-Serif" font-size="10.00"> myRoot</text>
</g>
<!-- Node10&#45;&gt;Node3 -->
<g id="edge12" class="edge"><title>Node10&#45;&gt;Node3</title>
<path fill="none" stroke="#9a32cd" stroke-dasharray="5,2" d="M505.586,-204.07C503.935,-194.065 500.423,-182.194 493,-174 433.278,-108.078 321.876,-87.2696 274.846,-81.2479"/>
<polygon fill="#9a32cd" stroke="#9a32cd" points="502.141,-204.747 506.767,-214.278 509.094,-203.942 502.141,-204.747"/>
<text text-anchor="middle" x="494" y="-143.5" font-family="Helvetica,sans-Serif" font-size="10.00"> myRoot</text>
</g>
<!-- Node10&#45;&gt;Node4 -->
<g id="edge10" class="edge"><title>Node10&#45;&gt;Node4</title>
<path fill="none" stroke="#9a32cd" stroke-dasharray="5,2" d="M479.212,-210.025C470.671,-205.794 461.33,-200.914 453,-196 438.135,-187.231 437.023,-180.415 421,-174 375.201,-155.664 317.662,-149.761 283.191,-147.872"/>
<polygon fill="#9a32cd" stroke="#9a32cd" points="477.893,-213.275 488.417,-214.494 480.95,-206.978 477.893,-213.275"/>
<text text-anchor="middle" x="473" y="-182.5" font-family="Helvetica,sans-Serif" font-size="10.00"> myRoot</text>
</g>
</g>
</svg>
        <g id="navigator" transform="translate(0 0)" fill="#404254">
                <rect fill="#f2f5e9" fill-opacity="0.5" stroke="#606060" stroke-width=".5" x="0" y="0" width="60" height="60"/>
                <use id="zoomplus" xlink:href="#zoomPlus" x="17" y="9" onmousedown="handleZoom(evt,'in')"/>
                <use id="zoomminus" xlink:href="#zoomMin" x="42" y="9" onmousedown="handleZoom(evt,'out')"/>
                <use id="reset" xlink:href="#resetDef" x="30" y="36" onmousedown="handleReset()"/>
                <g id="arrowUp" xlink:href="#dirArrow" transform="translate(30 24)" onmousedown="handlePan(0,-1)">
                  <use xlink:href="#rim" fill="#404040">
                        <set attributeName="fill" to="#808080" begin="arrowUp.mouseover" end="arrowUp.mouseout"/>
                  </use>
                  <path fill="none" stroke="white" stroke-width="1.5" d="M0,-3.0v7 M-2.5,-0.5L0,-3.0L2.5,-0.5"/>
                </g>
                <g id="arrowRight" xlink:href="#dirArrow" transform="rotate(90) translate(36 -43)" onmousedown="handlePan(1,0)">
                  <use xlink:href="#rim" fill="#404040">
                        <set attributeName="fill" to="#808080" begin="arrowRight.mouseover" end="arrowRight.mouseout"/>
                  </use>
                  <path fill="none" stroke="white" stroke-width="1.5" d="M0,-3.0v7 M-2.5,-0.5L0,-3.0L2.5,-0.5"/>
                </g>
                <g id="arrowDown" xlink:href="#dirArrow" transform="rotate(180) translate(-30 -48)" onmousedown="handlePan(0,1)">
                  <use xlink:href="#rim" fill="#404040">
                        <set attributeName="fill" to="#808080" begin="arrowDown.mouseover" end="arrowDown.mouseout"/>
                  </use>
                  <path fill="none" stroke="white" stroke-width="1.5" d="M0,-3.0v7 M-2.5,-0.5L0,-3.0L2.5,-0.5"/>
                </g>
                <g id="arrowLeft" xlink:href="#dirArrow" transform="rotate(270) translate(-36 17)" onmousedown="handlePan(-1,0)">
                  <use xlink:href="#rim" fill="#404040">
                        <set attributeName="fill" to="#808080" begin="arrowLeft.mouseover" end="arrowLeft.mouseout"/>
                  </use>
                  <path fill="none" stroke="white" stroke-width="1.5" d="M0,-3.0v7 M-2.5,-0.5L0,-3.0L2.5,-0.5"/>
                </g>
        </g>
        <svg viewBox="0 0 15 15" width="100%" height="30px" preserveAspectRatio="xMaxYMin meet">
         <g id="arrow_out" transform="scale(0.3 0.3)">
          <a xlink:href="class_end_screen__coll__graph_org.svg" target="_base">
           <rect id="button" ry="5" rx="5" y="6" x="6" height="38" width="38"
                fill="#f2f5e9" fill-opacity="0.5" stroke="#606060" stroke-width="1.0"/>
           <path id="arrow"
             d="M 11.500037,31.436501 C 11.940474,20.09759 22.043105,11.32322 32.158766,21.979434 L 37.068811,17.246167 C 37.068811,17.246167 37.088388,32 37.088388,32 L 22.160133,31.978069 C 22.160133,31.978069 26.997745,27.140456 26.997745,27.140456 C 18.528582,18.264221 13.291696,25.230495 11.500037,31.436501 z"
             style="fill:#404040;"/>
          </a>
         </g>
        </svg>
</svg>
