<?xml version="1.0" encoding="UTF-8" standalone="no"?>
<!DOCTYPE svg PUBLIC "-//W3C//DTD SVG 1.1//EN"
 "http://www.w3.org/Graphics/SVG/1.1/DTD/svg11.dtd">
<!-- Generated by graphviz version 2.36.0 (20140111.2315)
 -->
<!-- Title: Menu.init Pages: 1 -->
<!--zoomable 143 -->
<svg id="main" version="1.1" xmlns="http://www.w3.org/2000/svg" xmlns:xlink="http://www.w3.org/1999/xlink" xml:space="preserve" onload="init(evt)">
<style type="text/css"><![CDATA[
.edge:hover path { stroke: red; }
.edge:hover polygon { stroke: red; fill: red; }
]]></style>
<script type="text/javascript"><![CDATA[
var edges = document.getElementsByTagName('g');
if (edges && edges.length) {
  for (var i=0;i<edges.length;i++) {
    if (edges[i].id.substr(0,4)=='edge') {
      edges[i].setAttribute('class','edge');
    }
  }
}
]]></script>
        <defs>
                <circle id="rim" cx="0" cy="0" r="7"/>
                <circle id="rim2" cx="0" cy="0" r="3.5"/>
                <g id="zoomPlus">
                        <use xlink:href="#rim" fill="#404040">
                                <set attributeName="fill" to="#808080" begin="zoomplus.mouseover" end="zoomplus.mouseout"/>
                        </use>
                        <path d="M-4,0h8M0,-4v8" fill="none" stroke="white" stroke-width="1.5" pointer-events="none"/>
                </g>
                <g id="zoomMin">
                        <use xlink:href="#rim" fill="#404040">
                                <set attributeName="fill" to="#808080" begin="zoomminus.mouseover" end="zoomminus.mouseout"/>
                        </use>
                        <path d="M-4,0h8" fill="none" stroke="white" stroke-width="1.5" pointer-events="none"/>
                </g>
                <g id="dirArrow">
                        <path fill="none" stroke="white" stroke-width="1.5" d="M0,-3.0v7 M-2.5,-0.5L0,-3.0L2.5,-0.5"/>
                </g>
               <g id="resetDef">
                       <use xlink:href="#rim2" fill="#404040">
                               <set attributeName="fill" to="#808080" begin="reset.mouseover" end="reset.mouseout"/>
                       </use>
               </g>
        </defs>

<script type="text/javascript">
var viewWidth = 1562;
var viewHeight = 143;
var sectionId = 'dynsection-3';
</script>
<script xlink:href="../../svgpan.js"/>
<svg id="graph" class="graph">
<g id="viewport">
<title>Menu.init</title>
<polygon fill="white" stroke="none" points="-4,4 -4,-138.752 1558,-138.752 1558,4 -4,4"/>
<!-- Node1 -->
<g id="node1" class="node"><title>Node1</title>
<polygon fill="#bfbfbf" stroke="black" points="0,-49.2522 0,-68.2522 60,-68.2522 60,-49.2522 0,-49.2522"/>
<text text-anchor="middle" x="30" y="-56.2522" font-family="Helvetica,sans-Serif" font-size="10.00">Menu.init</text>
</g>
<!-- Node2 -->
<g id="node2" class="node"><title>Node2</title>
<g id="a_node2"><a xlink:href="../../d4/d2f/class_lose_screen.html#a34f2cc2c803500316c9b8d854854d758" target="_top" xlink:title="LoseScreen.init">
<polygon fill="white" stroke="black" points="96,-106.252 96,-125.252 186,-125.252 186,-106.252 96,-106.252"/>
<text text-anchor="middle" x="141" y="-113.252" font-family="Helvetica,sans-Serif" font-size="10.00">LoseScreen.init</text>
</a>
</g>
</g>
<!-- Node1&#45;&gt;Node2 -->
<g id="edge1" class="edge"><title>Node1&#45;&gt;Node2</title>
<path fill="none" stroke="midnightblue" d="M54.8345,-73.6223C66.9644,-80.9481 82.0577,-89.6993 96,-96.7522 102.534,-100.057 109.775,-103.335 116.465,-106.214"/>
<polygon fill="midnightblue" stroke="midnightblue" points="56.5627,-70.5766 46.2045,-68.3497 52.9132,-76.55 56.5627,-70.5766"/>
</g>
<!-- Node12 -->
<g id="node12" class="node"><title>Node12</title>
<g id="a_node12"><a xlink:href="../../d1/de1/class_end_screen.html#a1264ffb72b3a3032443f9c4087222aef" target="_top" xlink:title="EndScreen.init">
<polygon fill="white" stroke="black" points="98,-68.2522 98,-87.2522 184,-87.2522 184,-68.2522 98,-68.2522"/>
<text text-anchor="middle" x="141" y="-75.2522" font-family="Helvetica,sans-Serif" font-size="10.00">EndScreen.init</text>
</a>
</g>
</g>
<!-- Node1&#45;&gt;Node12 -->
<g id="edge15" class="edge"><title>Node1&#45;&gt;Node12</title>
<path fill="none" stroke="midnightblue" d="M70.2873,-65.6005C79.1536,-67.146 88.6039,-68.7933 97.592,-70.36"/>
<polygon fill="midnightblue" stroke="midnightblue" points="70.6625,-62.1132 60.21,-63.8439 69.4604,-69.0092 70.6625,-62.1132"/>
</g>
<!-- Node15 -->
<g id="node15" class="node"><title>Node15</title>
<g id="a_node15"><a xlink:href="../../d0/d4b/class_main.html#a7595d13c514a02c35aca322dd91d2063" target="_top" xlink:title="Main.start">
<polygon fill="white" stroke="black" points="108.5,-30.2522 108.5,-49.2522 173.5,-49.2522 173.5,-30.2522 108.5,-30.2522"/>
<text text-anchor="middle" x="141" y="-37.2522" font-family="Helvetica,sans-Serif" font-size="10.00">Main.start</text>
</a>
</g>
</g>
<!-- Node1&#45;&gt;Node15 -->
<g id="edge18" class="edge"><title>Node1&#45;&gt;Node15</title>
<path fill="none" stroke="midnightblue" d="M70.3763,-51.8885C82.8785,-49.7092 96.5337,-47.3289 108.413,-45.2582"/>
<polygon fill="midnightblue" stroke="midnightblue" points="69.4604,-48.4952 60.21,-53.6606 70.6625,-55.3913 69.4604,-48.4952"/>
</g>
<!-- Node3 -->
<g id="node3" class="node"><title>Node3</title>
<g id="a_node3"><a xlink:href="../../db/d97/class_box_world.html#a72bacb2a6757900d8835249929fcc838" target="_top" xlink:title="BoxWorld.loseGame">
<polygon fill="white" stroke="black" points="229,-106.252 229,-125.252 341,-125.252 341,-106.252 229,-106.252"/>
<text text-anchor="middle" x="285" y="-113.252" font-family="Helvetica,sans-Serif" font-size="10.00">BoxWorld.loseGame</text>
</a>
</g>
</g>
<!-- Node2&#45;&gt;Node3 -->
<g id="edge2" class="edge"><title>Node2&#45;&gt;Node3</title>
<path fill="none" stroke="midnightblue" d="M196.204,-115.752C206.898,-115.752 218.13,-115.752 228.855,-115.752"/>
<polygon fill="midnightblue" stroke="midnightblue" points="196.151,-112.252 186.151,-115.752 196.151,-119.252 196.151,-112.252"/>
</g>
<!-- Node4 -->
<g id="node4" class="node"><title>Node4</title>
<g id="a_node4"><a xlink:href="../../db/d97/class_box_world.html#a4079bed8937c9f621decfbe1309e31e2" target="_top" xlink:title="BoxWorld.checkAllCollisions">
<polygon fill="white" stroke="black" points="390,-106.252 390,-125.252 536,-125.252 536,-106.252 390,-106.252"/>
<text text-anchor="middle" x="463" y="-113.252" font-family="Helvetica,sans-Serif" font-size="10.00">BoxWorld.checkAllCollisions</text>
</a>
</g>
</g>
<!-- Node3&#45;&gt;Node4 -->
<g id="edge3" class="edge"><title>Node3&#45;&gt;Node4</title>
<path fill="none" stroke="midnightblue" d="M351.528,-115.752C364.027,-115.752 377.175,-115.752 389.868,-115.752"/>
<polygon fill="midnightblue" stroke="midnightblue" points="351.205,-112.252 341.205,-115.752 351.205,-119.252 351.205,-112.252"/>
</g>
<!-- Node5 -->
<g id="node5" class="node"><title>Node5</title>
<g id="a_node5"><a xlink:href="../../db/d97/class_box_world.html#a6794c083c2a0263c2f585f4ae4b7e39c" target="_top" xlink:title="BoxWorld.updateSprites">
<polygon fill="white" stroke="black" points="578.5,-106.252 578.5,-125.252 709.5,-125.252 709.5,-106.252 578.5,-106.252"/>
<text text-anchor="middle" x="644" y="-113.252" font-family="Helvetica,sans-Serif" font-size="10.00">BoxWorld.updateSprites</text>
</a>
</g>
</g>
<!-- Node4&#45;&gt;Node5 -->
<g id="edge4" class="edge"><title>Node4&#45;&gt;Node5</title>
<path fill="none" stroke="midnightblue" d="M546.28,-115.752C557.035,-115.752 567.929,-115.752 578.337,-115.752"/>
<polygon fill="midnightblue" stroke="midnightblue" points="546.032,-112.252 536.032,-115.752 546.032,-119.252 546.032,-112.252"/>
</g>
<!-- Node6 -->
<g id="node6" class="node"><title>Node6</title>
<g id="a_node6"><a xlink:href="../../db/d97/class_box_world.html#ad20a4e43406c44f4bbf201d1d1028998" target="_top" xlink:title="BoxWorld.start">
<polygon fill="white" stroke="black" points="746,-106.252 746,-125.252 832,-125.252 832,-106.252 746,-106.252"/>
<text text-anchor="middle" x="789" y="-113.252" font-family="Helvetica,sans-Serif" font-size="10.00">BoxWorld.start</text>
</a>
</g>
</g>
<!-- Node5&#45;&gt;Node6 -->
<g id="edge5" class="edge"><title>Node5&#45;&gt;Node6</title>
<path fill="none" stroke="midnightblue" d="M719.898,-115.752C728.837,-115.752 737.705,-115.752 745.941,-115.752"/>
<polygon fill="midnightblue" stroke="midnightblue" points="719.806,-112.252 709.806,-115.752 719.806,-119.252 719.806,-112.252"/>
</g>
<!-- Node7 -->
<g id="node7" class="node"><title>Node7</title>
<g id="a_node7"><a xlink:href="../../d6/d4f/class_item_box_world.html#aa559fc2680327b41fb376e2eda8e82e3" target="_top" xlink:title="ItemBoxWorld.init">
<polygon fill="white" stroke="black" points="868.5,-87.2522 868.5,-106.252 967.5,-106.252 967.5,-87.2522 868.5,-87.2522"/>
<text text-anchor="middle" x="918" y="-94.2522" font-family="Helvetica,sans-Serif" font-size="10.00">ItemBoxWorld.init</text>
</a>
</g>
</g>
<!-- Node6&#45;&gt;Node7 -->
<g id="edge6" class="edge"><title>Node6&#45;&gt;Node7</title>
<path fill="none" stroke="midnightblue" d="M842.241,-107.937C850.865,-106.646 859.775,-105.313 868.307,-104.037"/>
<polygon fill="midnightblue" stroke="midnightblue" points="841.661,-104.484 832.289,-109.425 842.697,-111.407 841.661,-104.484"/>
</g>
<!-- Node11 -->
<g id="node11" class="node"><title>Node11</title>
<g id="a_node11"><a xlink:href="../../db/d97/class_box_world.html#a55bf92d3f466bfaade0f6d199d8c9bd9" target="_top" xlink:title="BoxWorld.init">
<polygon fill="white" stroke="black" points="1476.5,-68.2522 1476.5,-87.2522 1553.5,-87.2522 1553.5,-68.2522 1476.5,-68.2522"/>
<text text-anchor="middle" x="1515" y="-75.2522" font-family="Helvetica,sans-Serif" font-size="10.00">BoxWorld.init</text>
</a>
</g>
</g>
<!-- Node6&#45;&gt;Node11 -->
<g id="edge14" class="edge"><title>Node6&#45;&gt;Node11</title>
<path fill="none" stroke="midnightblue" d="M842.401,-121.731C895.802,-127.301 981.056,-134.752 1055,-134.752 1055,-134.752 1055,-134.752 1213,-134.752 1313.79,-134.752 1430.29,-103.519 1484.02,-87.2927"/>
<polygon fill="midnightblue" stroke="midnightblue" points="842.471,-118.219 832.158,-120.645 841.733,-125.18 842.471,-118.219"/>
</g>
<!-- Node8 -->
<g id="node8" class="node"><title>Node8</title>
<g id="a_node8"><a xlink:href="../../db/d97/class_box_world.html#aad670712776afe126e51791097027e05" target="_top" xlink:title="BoxWorld.winLevel">
<polygon fill="white" stroke="black" points="1004.5,-49.2522 1004.5,-68.2522 1107.5,-68.2522 1107.5,-49.2522 1004.5,-49.2522"/>
<text text-anchor="middle" x="1056" y="-56.2522" font-family="Helvetica,sans-Serif" font-size="10.00">BoxWorld.winLevel</text>
</a>
</g>
</g>
<!-- Node7&#45;&gt;Node8 -->
<g id="edge7" class="edge"><title>Node7&#45;&gt;Node8</title>
<path fill="none" stroke="midnightblue" d="M963.087,-84.4339C981.772,-79.2129 1003.22,-73.2206 1020.69,-68.3382"/>
<polygon fill="midnightblue" stroke="midnightblue" points="962.008,-81.1012 953.319,-87.1632 963.892,-87.843 962.008,-81.1012"/>
</g>
<!-- Node8&#45;&gt;Node4 -->
<g id="edge8" class="edge"><title>Node8&#45;&gt;Node4</title>
<path fill="none" stroke="midnightblue" d="M994.267,-61.92C903.471,-67.0333 727.063,-78.427 578,-96.7522 557.488,-99.2739 535.027,-102.842 515.506,-106.207"/>
<polygon fill="midnightblue" stroke="midnightblue" points="994.587,-65.4077 1004.38,-61.3567 994.197,-58.4185 994.587,-65.4077"/>
</g>
<!-- Node9 -->
<g id="node9" class="node"><title>Node9</title>
<g id="a_node9"><a xlink:href="../../db/d97/class_box_world.html#aa7e2049d7be23e15fd2ec7fa2922ed79" target="_top" xlink:title="BoxWorld.handleKeyInput">
<polygon fill="white" stroke="black" points="1144,-49.2522 1144,-68.2522 1280,-68.2522 1280,-49.2522 1144,-49.2522"/>
<text text-anchor="middle" x="1212" y="-56.2522" font-family="Helvetica,sans-Serif" font-size="10.00">BoxWorld.handleKeyInput</text>
</a>
</g>
</g>
<!-- Node8&#45;&gt;Node9 -->
<g id="edge9" class="edge"><title>Node8&#45;&gt;Node9</title>
<path fill="none" stroke="midnightblue" d="M1118.08,-58.7522C1126.59,-58.7522 1135.38,-58.7522 1144,-58.7522"/>
<polygon fill="midnightblue" stroke="midnightblue" points="1117.85,-55.2523 1107.85,-58.7522 1117.85,-62.2523 1117.85,-55.2523"/>
</g>
<!-- Node10 -->
<g id="node10" class="node"><title>Node10</title>
<g id="a_node10"><a xlink:href="../../db/d97/class_box_world.html#a726e747e023543658d7a345cc6466ccb" target="_top" xlink:title="BoxWorld.createScene">
<polygon fill="white" stroke="black" points="1316,-68.2522 1316,-87.2522 1440,-87.2522 1440,-68.2522 1316,-68.2522"/>
<text text-anchor="middle" x="1378" y="-75.2522" font-family="Helvetica,sans-Serif" font-size="10.00">BoxWorld.createScene</text>
</a>
</g>
</g>
<!-- Node9&#45;&gt;Node10 -->
<g id="edge10" class="edge"><title>Node9&#45;&gt;Node10</title>
<path fill="none" stroke="midnightblue" d="M1290.26,-67.7028C1298.89,-68.7031 1307.6,-69.7115 1315.99,-70.6834"/>
<polygon fill="midnightblue" stroke="midnightblue" points="1290.51,-64.2092 1280.18,-66.5351 1289.71,-71.1627 1290.51,-64.2092"/>
</g>
<!-- Node10&#45;&gt;Node7 -->
<g id="edge11" class="edge"><title>Node10&#45;&gt;Node7</title>
<path fill="none" stroke="midnightblue" d="M1305.92,-80.701C1211.9,-84.6014 1048.66,-91.3735 967.58,-94.7369"/>
<polygon fill="midnightblue" stroke="midnightblue" points="1306.07,-84.198 1315.91,-80.2864 1305.78,-77.204 1306.07,-84.198"/>
</g>
<!-- Node10&#45;&gt;Node11 -->
<g id="edge12" class="edge"><title>Node10&#45;&gt;Node11</title>
<path fill="none" stroke="midnightblue" d="M1450.28,-77.7522C1459.23,-77.7522 1468.08,-77.7522 1476.22,-77.7522"/>
<polygon fill="midnightblue" stroke="midnightblue" points="1450.18,-74.2523 1440.18,-77.7522 1450.18,-81.2523 1450.18,-74.2523"/>
</g>
<!-- Node11&#45;&gt;Node1 -->
<g id="edge13" class="edge"><title>Node11&#45;&gt;Node1</title>
<path fill="none" stroke="midnightblue" d="M1482.45,-64.2839C1428.35,-42.4522 1313.97,-1.75222 1213,-1.75222 284,-1.75222 284,-1.75222 284,-1.75222 200.019,-1.75222 175.852,5.25665 96,-20.7522 76.3622,-27.1485 56.205,-40.1243 43.6499,-49.1216"/>
<polygon fill="midnightblue" stroke="midnightblue" points="1481.25,-67.5752 1491.83,-68.1268 1483.9,-61.0975 1481.25,-67.5752"/>
</g>
<!-- Node13 -->
<g id="node13" class="node"><title>Node13</title>
<g id="a_node13"><a xlink:href="../../d6/d4f/class_item_box_world.html#a2ed12a6b39993faedc05cc682204476d" target="_top" xlink:title="ItemBoxWorld.winLevel">
<polygon fill="white" stroke="black" points="222.5,-68.2522 222.5,-87.2522 347.5,-87.2522 347.5,-68.2522 222.5,-68.2522"/>
<text text-anchor="middle" x="285" y="-75.2522" font-family="Helvetica,sans-Serif" font-size="10.00">ItemBoxWorld.winLevel</text>
</a>
</g>
</g>
<!-- Node12&#45;&gt;Node13 -->
<g id="edge16" class="edge"><title>Node12&#45;&gt;Node13</title>
<path fill="none" stroke="midnightblue" d="M194.34,-77.7522C203.502,-77.7522 213.111,-77.7522 222.495,-77.7522"/>
<polygon fill="midnightblue" stroke="midnightblue" points="194.22,-74.2523 184.22,-77.7522 194.22,-81.2523 194.22,-74.2523"/>
</g>
<!-- Node14 -->
<g id="node14" class="node"><title>Node14</title>
<g id="a_node14"><a xlink:href="../../d6/d4f/class_item_box_world.html#ae442d947b4dafc944336ee27628d2175" target="_top" xlink:title="ItemBoxWorld.handleKeyInput">
<polygon fill="white" stroke="black" points="384,-68.2522 384,-87.2522 542,-87.2522 542,-68.2522 384,-68.2522"/>
<text text-anchor="middle" x="463" y="-75.2522" font-family="Helvetica,sans-Serif" font-size="10.00">ItemBoxWorld.handleKeyInput</text>
</a>
</g>
</g>
<!-- Node13&#45;&gt;Node14 -->
<g id="edge17" class="edge"><title>Node13&#45;&gt;Node14</title>
<path fill="none" stroke="midnightblue" d="M357.568,-77.7522C366.2,-77.7522 375.05,-77.7522 383.771,-77.7522"/>
<polygon fill="midnightblue" stroke="midnightblue" points="357.556,-74.2523 347.556,-77.7522 357.556,-81.2523 357.556,-74.2523"/>
</g>
</g>
</svg>
        <g id="navigator" transform="translate(0 0)" fill="#404254">
                <rect fill="#f2f5e9" fill-opacity="0.5" stroke="#606060" stroke-width=".5" x="0" y="0" width="60" height="60"/>
                <use id="zoomplus" xlink:href="#zoomPlus" x="17" y="9" onmousedown="handleZoom(evt,'in')"/>
                <use id="zoomminus" xlink:href="#zoomMin" x="42" y="9" onmousedown="handleZoom(evt,'out')"/>
                <use id="reset" xlink:href="#resetDef" x="30" y="36" onmousedown="handleReset()"/>
                <g id="arrowUp" xlink:href="#dirArrow" transform="translate(30 24)" onmousedown="handlePan(0,-1)">
                  <use xlink:href="#rim" fill="#404040">
                        <set attributeName="fill" to="#808080" begin="arrowUp.mouseover" end="arrowUp.mouseout"/>
                  </use>
                  <path fill="none" stroke="white" stroke-width="1.5" d="M0,-3.0v7 M-2.5,-0.5L0,-3.0L2.5,-0.5"/>
                </g>
                <g id="arrowRight" xlink:href="#dirArrow" transform="rotate(90) translate(36 -43)" onmousedown="handlePan(1,0)">
                  <use xlink:href="#rim" fill="#404040">
                        <set attributeName="fill" to="#808080" begin="arrowRight.mouseover" end="arrowRight.mouseout"/>
                  </use>
                  <path fill="none" stroke="white" stroke-width="1.5" d="M0,-3.0v7 M-2.5,-0.5L0,-3.0L2.5,-0.5"/>
                </g>
                <g id="arrowDown" xlink:href="#dirArrow" transform="rotate(180) translate(-30 -48)" onmousedown="handlePan(0,1)">
                  <use xlink:href="#rim" fill="#404040">
                        <set attributeName="fill" to="#808080" begin="arrowDown.mouseover" end="arrowDown.mouseout"/>
                  </use>
                  <path fill="none" stroke="white" stroke-width="1.5" d="M0,-3.0v7 M-2.5,-0.5L0,-3.0L2.5,-0.5"/>
                </g>
                <g id="arrowLeft" xlink:href="#dirArrow" transform="rotate(270) translate(-36 17)" onmousedown="handlePan(-1,0)">
                  <use xlink:href="#rim" fill="#404040">
                        <set attributeName="fill" to="#808080" begin="arrowLeft.mouseover" end="arrowLeft.mouseout"/>
                  </use>
                  <path fill="none" stroke="white" stroke-width="1.5" d="M0,-3.0v7 M-2.5,-0.5L0,-3.0L2.5,-0.5"/>
                </g>
        </g>
        <svg viewBox="0 0 15 15" width="100%" height="30px" preserveAspectRatio="xMaxYMin meet">
         <g id="arrow_out" transform="scale(0.3 0.3)">
          <a xlink:href="class_menu_a3c99ad09e9f2f975c1a0d0597642651a_icgraph_org.svg" target="_base">
           <rect id="button" ry="5" rx="5" y="6" x="6" height="38" width="38"
                fill="#f2f5e9" fill-opacity="0.5" stroke="#606060" stroke-width="1.0"/>
           <path id="arrow"
             d="M 11.500037,31.436501 C 11.940474,20.09759 22.043105,11.32322 32.158766,21.979434 L 37.068811,17.246167 C 37.068811,17.246167 37.088388,32 37.088388,32 L 22.160133,31.978069 C 22.160133,31.978069 26.997745,27.140456 26.997745,27.140456 C 18.528582,18.264221 13.291696,25.230495 11.500037,31.436501 z"
             style="fill:#404040;"/>
          </a>
         </g>
        </svg>
</svg>
