<?xml version="1.0" encoding="UTF-8" standalone="no"?>
<!DOCTYPE svg PUBLIC "-//W3C//DTD SVG 1.1//EN"
 "http://www.w3.org/Graphics/SVG/1.1/DTD/svg11.dtd">
<!-- Generated by graphviz version 2.36.0 (20140111.2315)
 -->
<!-- Title: Menu.init Pages: 1 -->
<!--zoomable 167 -->
<svg id="main" version="1.1" xmlns="http://www.w3.org/2000/svg" xmlns:xlink="http://www.w3.org/1999/xlink" xml:space="preserve" onload="init(evt)">
<style type="text/css"><![CDATA[
.edge:hover path { stroke: red; }
.edge:hover polygon { stroke: red; fill: red; }
]]></style>
<script type="text/javascript"><![CDATA[
var edges = document.getElementsByTagName('g');
if (edges && edges.length) {
  for (var i=0;i<edges.length;i++) {
    if (edges[i].id.substr(0,4)=='edge') {
      edges[i].setAttribute('class','edge');
    }
  }
}
]]></script>
        <defs>
                <circle id="rim" cx="0" cy="0" r="7"/>
                <circle id="rim2" cx="0" cy="0" r="3.5"/>
                <g id="zoomPlus">
                        <use xlink:href="#rim" fill="#404040">
                                <set attributeName="fill" to="#808080" begin="zoomplus.mouseover" end="zoomplus.mouseout"/>
                        </use>
                        <path d="M-4,0h8M0,-4v8" fill="none" stroke="white" stroke-width="1.5" pointer-events="none"/>
                </g>
                <g id="zoomMin">
                        <use xlink:href="#rim" fill="#404040">
                                <set attributeName="fill" to="#808080" begin="zoomminus.mouseover" end="zoomminus.mouseout"/>
                        </use>
                        <path d="M-4,0h8" fill="none" stroke="white" stroke-width="1.5" pointer-events="none"/>
                </g>
                <g id="dirArrow">
                        <path fill="none" stroke="white" stroke-width="1.5" d="M0,-3.0v7 M-2.5,-0.5L0,-3.0L2.5,-0.5"/>
                </g>
               <g id="resetDef">
                       <use xlink:href="#rim2" fill="#404040">
                               <set attributeName="fill" to="#808080" begin="reset.mouseover" end="reset.mouseout"/>
                       </use>
               </g>
        </defs>

<script type="text/javascript">
var viewWidth = 1558;
var viewHeight = 167;
var sectionId = 'dynsection-3';
</script>
<script xlink:href="../../svgpan.js"/>
<svg id="graph" class="graph">
<g id="viewport">
<title>Menu.init</title>
<polygon fill="white" stroke="none" points="-4,4 -4,-162.868 1554,-162.868 1554,4 -4,4"/>
<!-- Node1 -->
<g id="node1" class="node"><title>Node1</title>
<polygon fill="#bfbfbf" stroke="black" points="0,-49.3679 0,-68.3679 60,-68.3679 60,-49.3679 0,-49.3679"/>
<text text-anchor="middle" x="30" y="-56.3679" font-family="Helvetica,sans-Serif" font-size="10.00">Menu.init</text>
</g>
<!-- Node2 -->
<g id="node2" class="node"><title>Node2</title>
<g id="a_node2"><a xlink:href="../../d4/d2f/class_lose_screen.html#a34f2cc2c803500316c9b8d854854d758" target="_top" xlink:title="LoseScreen.init">
<polygon fill="white" stroke="black" points="96,-106.368 96,-125.368 186,-125.368 186,-106.368 96,-106.368"/>
<text text-anchor="middle" x="141" y="-113.368" font-family="Helvetica,sans-Serif" font-size="10.00">LoseScreen.init</text>
</a>
</g>
</g>
<!-- Node1&#45;&gt;Node2 -->
<g id="edge1" class="edge"><title>Node1&#45;&gt;Node2</title>
<path fill="none" stroke="midnightblue" d="M54.8345,-73.738C66.9644,-81.0638 82.0577,-89.815 96,-96.8679 102.534,-100.173 109.775,-103.451 116.465,-106.33"/>
<polygon fill="midnightblue" stroke="midnightblue" points="56.5627,-70.6923 46.2045,-68.4654 52.9132,-76.6657 56.5627,-70.6923"/>
</g>
<!-- Node13 -->
<g id="node13" class="node"><title>Node13</title>
<g id="a_node13"><a xlink:href="../../d1/de1/class_end_screen.html#a1264ffb72b3a3032443f9c4087222aef" target="_top" xlink:title="EndScreen.init">
<polygon fill="white" stroke="black" points="98,-68.3679 98,-87.3679 184,-87.3679 184,-68.3679 98,-68.3679"/>
<text text-anchor="middle" x="141" y="-75.3679" font-family="Helvetica,sans-Serif" font-size="10.00">EndScreen.init</text>
</a>
</g>
</g>
<!-- Node1&#45;&gt;Node13 -->
<g id="edge16" class="edge"><title>Node1&#45;&gt;Node13</title>
<path fill="none" stroke="midnightblue" d="M70.2873,-65.7162C79.1536,-67.2617 88.6039,-68.909 97.592,-70.4757"/>
<polygon fill="midnightblue" stroke="midnightblue" points="70.6625,-62.2289 60.21,-63.9596 69.4604,-69.1249 70.6625,-62.2289"/>
</g>
<!-- Node15 -->
<g id="node15" class="node"><title>Node15</title>
<g id="a_node15"><a xlink:href="../../d0/d4b/class_main.html#a7595d13c514a02c35aca322dd91d2063" target="_top" xlink:title="Main.start">
<polygon fill="white" stroke="black" points="108.5,-30.3679 108.5,-49.3679 173.5,-49.3679 173.5,-30.3679 108.5,-30.3679"/>
<text text-anchor="middle" x="141" y="-37.3679" font-family="Helvetica,sans-Serif" font-size="10.00">Main.start</text>
</a>
</g>
</g>
<!-- Node1&#45;&gt;Node15 -->
<g id="edge18" class="edge"><title>Node1&#45;&gt;Node15</title>
<path fill="none" stroke="midnightblue" d="M70.3763,-52.0042C82.8785,-49.8249 96.5337,-47.4446 108.413,-45.3739"/>
<polygon fill="midnightblue" stroke="midnightblue" points="69.4604,-48.611 60.21,-53.7763 70.6625,-55.507 69.4604,-48.611"/>
</g>
<!-- Node3 -->
<g id="node3" class="node"><title>Node3</title>
<g id="a_node3"><a xlink:href="../../d6/d4f/class_item_box_world.html#a295cf7212ad54fa599e2a2d85ee0523d" target="_top" xlink:title="ItemBoxWorld.loseGame">
<polygon fill="white" stroke="black" points="222,-139.368 222,-158.368 356,-158.368 356,-139.368 222,-139.368"/>
<text text-anchor="middle" x="289" y="-146.368" font-family="Helvetica,sans-Serif" font-size="10.00">ItemBoxWorld.loseGame</text>
</a>
</g>
</g>
<!-- Node2&#45;&gt;Node3 -->
<g id="edge2" class="edge"><title>Node2&#45;&gt;Node3</title>
<path fill="none" stroke="midnightblue" d="M194.017,-127.625C211.02,-131.468 229.683,-135.687 245.866,-139.344"/>
<polygon fill="midnightblue" stroke="midnightblue" points="194.755,-124.204 184.229,-125.413 193.212,-131.032 194.755,-124.204"/>
</g>
<!-- Node4 -->
<g id="node4" class="node"><title>Node4</title>
<g id="a_node4"><a xlink:href="../../db/d97/class_box_world.html#a72bacb2a6757900d8835249929fcc838" target="_top" xlink:title="BoxWorld.loseGame">
<polygon fill="white" stroke="black" points="233,-101.368 233,-120.368 345,-120.368 345,-101.368 233,-101.368"/>
<text text-anchor="middle" x="289" y="-108.368" font-family="Helvetica,sans-Serif" font-size="10.00">BoxWorld.loseGame</text>
</a>
</g>
</g>
<!-- Node2&#45;&gt;Node4 -->
<g id="edge3" class="edge"><title>Node2&#45;&gt;Node4</title>
<path fill="none" stroke="midnightblue" d="M196.435,-114.004C208.325,-113.597 220.92,-113.165 232.839,-112.757"/>
<polygon fill="midnightblue" stroke="midnightblue" points="196.075,-110.514 186.201,-114.354 196.315,-117.51 196.075,-110.514"/>
</g>
<!-- Node5 -->
<g id="node5" class="node"><title>Node5</title>
<g id="a_node5"><a xlink:href="../../db/d97/class_box_world.html#a4079bed8937c9f621decfbe1309e31e2" target="_top" xlink:title="BoxWorld.checkAllCollisions">
<polygon fill="white" stroke="black" points="392,-82.3679 392,-101.368 538,-101.368 538,-82.3679 392,-82.3679"/>
<text text-anchor="middle" x="465" y="-89.3679" font-family="Helvetica,sans-Serif" font-size="10.00">BoxWorld.checkAllCollisions</text>
</a>
</g>
</g>
<!-- Node4&#45;&gt;Node5 -->
<g id="edge4" class="edge"><title>Node4&#45;&gt;Node5</title>
<path fill="none" stroke="midnightblue" d="M355.335,-103.734C367.23,-102.435 379.702,-101.073 391.783,-99.7537"/>
<polygon fill="midnightblue" stroke="midnightblue" points="354.616,-100.291 345.055,-104.856 355.376,-107.25 354.616,-100.291"/>
</g>
<!-- Node6 -->
<g id="node6" class="node"><title>Node6</title>
<g id="a_node6"><a xlink:href="../../db/d97/class_box_world.html#a6794c083c2a0263c2f585f4ae4b7e39c" target="_top" xlink:title="BoxWorld.updateSprites">
<polygon fill="white" stroke="black" points="574.5,-82.3679 574.5,-101.368 705.5,-101.368 705.5,-82.3679 574.5,-82.3679"/>
<text text-anchor="middle" x="640" y="-89.3679" font-family="Helvetica,sans-Serif" font-size="10.00">BoxWorld.updateSprites</text>
</a>
</g>
</g>
<!-- Node5&#45;&gt;Node6 -->
<g id="edge5" class="edge"><title>Node5&#45;&gt;Node6</title>
<path fill="none" stroke="midnightblue" d="M548.354,-91.8679C557.116,-91.8679 565.936,-91.8679 574.451,-91.8679"/>
<polygon fill="midnightblue" stroke="midnightblue" points="548.115,-88.368 538.115,-91.8679 548.115,-95.368 548.115,-88.368"/>
</g>
<!-- Node7 -->
<g id="node7" class="node"><title>Node7</title>
<g id="a_node7"><a xlink:href="../../db/d97/class_box_world.html#ad20a4e43406c44f4bbf201d1d1028998" target="_top" xlink:title="BoxWorld.start">
<polygon fill="white" stroke="black" points="742,-82.3679 742,-101.368 828,-101.368 828,-82.3679 742,-82.3679"/>
<text text-anchor="middle" x="785" y="-89.3679" font-family="Helvetica,sans-Serif" font-size="10.00">BoxWorld.start</text>
</a>
</g>
</g>
<!-- Node6&#45;&gt;Node7 -->
<g id="edge6" class="edge"><title>Node6&#45;&gt;Node7</title>
<path fill="none" stroke="midnightblue" d="M715.898,-91.8679C724.837,-91.8679 733.705,-91.8679 741.941,-91.8679"/>
<polygon fill="midnightblue" stroke="midnightblue" points="715.806,-88.368 705.806,-91.8679 715.806,-95.368 715.806,-88.368"/>
</g>
<!-- Node8 -->
<g id="node8" class="node"><title>Node8</title>
<g id="a_node8"><a xlink:href="../../d6/d4f/class_item_box_world.html#aa559fc2680327b41fb376e2eda8e82e3" target="_top" xlink:title="ItemBoxWorld.init">
<polygon fill="white" stroke="black" points="864.5,-77.3679 864.5,-96.3679 963.5,-96.3679 963.5,-77.3679 864.5,-77.3679"/>
<text text-anchor="middle" x="914" y="-84.3679" font-family="Helvetica,sans-Serif" font-size="10.00">ItemBoxWorld.init</text>
</a>
</g>
</g>
<!-- Node7&#45;&gt;Node8 -->
<g id="edge7" class="edge"><title>Node7&#45;&gt;Node8</title>
<path fill="none" stroke="midnightblue" d="M838.523,-89.8001C847.059,-89.464 855.868,-89.1172 864.307,-88.785"/>
<polygon fill="midnightblue" stroke="midnightblue" points="838.144,-86.3122 828.289,-90.203 838.419,-93.3068 838.144,-86.3122"/>
</g>
<!-- Node12 -->
<g id="node12" class="node"><title>Node12</title>
<g id="a_node12"><a xlink:href="../../db/d97/class_box_world.html#a55bf92d3f466bfaade0f6d199d8c9bd9" target="_top" xlink:title="BoxWorld.init">
<polygon fill="white" stroke="black" points="1472.5,-58.3679 1472.5,-77.3679 1549.5,-77.3679 1549.5,-58.3679 1472.5,-58.3679"/>
<text text-anchor="middle" x="1511" y="-65.3679" font-family="Helvetica,sans-Serif" font-size="10.00">BoxWorld.init</text>
</a>
</g>
</g>
<!-- Node7&#45;&gt;Node12 -->
<g id="edge15" class="edge"><title>Node7&#45;&gt;Node12</title>
<path fill="none" stroke="midnightblue" d="M837.909,-102.192C891.163,-111.873 976.521,-124.868 1051,-124.868 1051,-124.868 1051,-124.868 1209,-124.868 1309.79,-124.868 1426.29,-93.635 1480.02,-77.4084"/>
<polygon fill="midnightblue" stroke="midnightblue" points="838.493,-98.7411 828.024,-100.366 837.221,-105.625 838.493,-98.7411"/>
</g>
<!-- Node9 -->
<g id="node9" class="node"><title>Node9</title>
<g id="a_node9"><a xlink:href="../../db/d97/class_box_world.html#aad670712776afe126e51791097027e05" target="_top" xlink:title="BoxWorld.winLevel">
<polygon fill="white" stroke="black" points="1000.5,-39.3679 1000.5,-58.3679 1103.5,-58.3679 1103.5,-39.3679 1000.5,-39.3679"/>
<text text-anchor="middle" x="1052" y="-46.3679" font-family="Helvetica,sans-Serif" font-size="10.00">BoxWorld.winLevel</text>
</a>
</g>
</g>
<!-- Node8&#45;&gt;Node9 -->
<g id="edge8" class="edge"><title>Node8&#45;&gt;Node9</title>
<path fill="none" stroke="midnightblue" d="M959.087,-74.5496C977.772,-69.3286 999.218,-63.3363 1016.69,-58.4539"/>
<polygon fill="midnightblue" stroke="midnightblue" points="958.008,-71.2169 949.319,-77.2789 959.892,-77.9587 958.008,-71.2169"/>
</g>
<!-- Node9&#45;&gt;Node5 -->
<g id="edge9" class="edge"><title>Node9&#45;&gt;Node5</title>
<path fill="none" stroke="midnightblue" d="M990.24,-49.5191C899.409,-51.036 722.957,-56.0832 574,-72.8679 553.852,-75.1382 531.776,-78.8079 512.864,-82.3196"/>
<polygon fill="midnightblue" stroke="midnightblue" points="990.41,-53.0169 1000.35,-49.3589 990.299,-46.0178 990.41,-53.0169"/>
</g>
<!-- Node10 -->
<g id="node10" class="node"><title>Node10</title>
<g id="a_node10"><a xlink:href="../../db/d97/class_box_world.html#aa7e2049d7be23e15fd2ec7fa2922ed79" target="_top" xlink:title="BoxWorld.handleKeyInput">
<polygon fill="white" stroke="black" points="1140,-39.3679 1140,-58.3679 1276,-58.3679 1276,-39.3679 1140,-39.3679"/>
<text text-anchor="middle" x="1208" y="-46.3679" font-family="Helvetica,sans-Serif" font-size="10.00">BoxWorld.handleKeyInput</text>
</a>
</g>
</g>
<!-- Node9&#45;&gt;Node10 -->
<g id="edge10" class="edge"><title>Node9&#45;&gt;Node10</title>
<path fill="none" stroke="midnightblue" d="M1114.08,-48.8679C1122.59,-48.8679 1131.38,-48.8679 1140,-48.8679"/>
<polygon fill="midnightblue" stroke="midnightblue" points="1113.85,-45.368 1103.85,-48.8679 1113.85,-52.368 1113.85,-45.368"/>
</g>
<!-- Node11 -->
<g id="node11" class="node"><title>Node11</title>
<g id="a_node11"><a xlink:href="../../db/d97/class_box_world.html#a726e747e023543658d7a345cc6466ccb" target="_top" xlink:title="BoxWorld.createScene">
<polygon fill="white" stroke="black" points="1312,-58.3679 1312,-77.3679 1436,-77.3679 1436,-58.3679 1312,-58.3679"/>
<text text-anchor="middle" x="1374" y="-65.3679" font-family="Helvetica,sans-Serif" font-size="10.00">BoxWorld.createScene</text>
</a>
</g>
</g>
<!-- Node10&#45;&gt;Node11 -->
<g id="edge11" class="edge"><title>Node10&#45;&gt;Node11</title>
<path fill="none" stroke="midnightblue" d="M1286.26,-57.8186C1294.89,-58.8188 1303.6,-59.8272 1311.99,-60.7991"/>
<polygon fill="midnightblue" stroke="midnightblue" points="1286.51,-54.325 1276.18,-56.6508 1285.71,-61.2784 1286.51,-54.325"/>
</g>
<!-- Node11&#45;&gt;Node8 -->
<g id="edge12" class="edge"><title>Node11&#45;&gt;Node8</title>
<path fill="none" stroke="midnightblue" d="M1301.92,-70.8168C1207.9,-74.7171 1044.66,-81.4892 963.58,-84.8526"/>
<polygon fill="midnightblue" stroke="midnightblue" points="1302.07,-74.3137 1311.91,-70.4021 1301.78,-67.3197 1302.07,-74.3137"/>
</g>
<!-- Node11&#45;&gt;Node12 -->
<g id="edge13" class="edge"><title>Node11&#45;&gt;Node12</title>
<path fill="none" stroke="midnightblue" d="M1446.28,-67.8679C1455.23,-67.8679 1464.08,-67.8679 1472.22,-67.8679"/>
<polygon fill="midnightblue" stroke="midnightblue" points="1446.18,-64.368 1436.18,-67.8679 1446.18,-71.368 1446.18,-64.368"/>
</g>
<!-- Node12&#45;&gt;Node1 -->
<g id="edge14" class="edge"><title>Node12&#45;&gt;Node1</title>
<path fill="none" stroke="midnightblue" d="M1474.51,-54.8611C1418.77,-35.6322 1306.96,-1.86793 1209,-1.86793 288,-1.86793 288,-1.86793 288,-1.86793 202.25,-1.86793 177.562,5.60378 96,-20.8679 76.3555,-27.2437 56.1999,-40.2244 43.647,-49.2283"/>
<polygon fill="midnightblue" stroke="midnightblue" points="1473.65,-58.2696 1484.25,-58.271 1475.97,-51.6629 1473.65,-58.2696"/>
</g>
<!-- Node14 -->
<g id="node14" class="node"><title>Node14</title>
<g id="a_node14"><a xlink:href="../../d6/d4f/class_item_box_world.html#a2ed12a6b39993faedc05cc682204476d" target="_top" xlink:title="ItemBoxWorld.winLevel">
<polygon fill="white" stroke="black" points="226.5,-63.3679 226.5,-82.3679 351.5,-82.3679 351.5,-63.3679 226.5,-63.3679"/>
<text text-anchor="middle" x="289" y="-70.3679" font-family="Helvetica,sans-Serif" font-size="10.00">ItemBoxWorld.winLevel</text>
</a>
</g>
</g>
<!-- Node13&#45;&gt;Node14 -->
<g id="edge17" class="edge"><title>Node13&#45;&gt;Node14</title>
<path fill="none" stroke="midnightblue" d="M194.353,-76.075C204.713,-75.7202 215.678,-75.3447 226.314,-74.9805"/>
<polygon fill="midnightblue" stroke="midnightblue" points="194.104,-72.5814 184.229,-76.4217 194.343,-79.5773 194.104,-72.5814"/>
</g>
</g>
</svg>
        <g id="navigator" transform="translate(0 0)" fill="#404254">
                <rect fill="#f2f5e9" fill-opacity="0.5" stroke="#606060" stroke-width=".5" x="0" y="0" width="60" height="60"/>
                <use id="zoomplus" xlink:href="#zoomPlus" x="17" y="9" onmousedown="handleZoom(evt,'in')"/>
                <use id="zoomminus" xlink:href="#zoomMin" x="42" y="9" onmousedown="handleZoom(evt,'out')"/>
                <use id="reset" xlink:href="#resetDef" x="30" y="36" onmousedown="handleReset()"/>
                <g id="arrowUp" xlink:href="#dirArrow" transform="translate(30 24)" onmousedown="handlePan(0,-1)">
                  <use xlink:href="#rim" fill="#404040">
                        <set attributeName="fill" to="#808080" begin="arrowUp.mouseover" end="arrowUp.mouseout"/>
                  </use>
                  <path fill="none" stroke="white" stroke-width="1.5" d="M0,-3.0v7 M-2.5,-0.5L0,-3.0L2.5,-0.5"/>
                </g>
                <g id="arrowRight" xlink:href="#dirArrow" transform="rotate(90) translate(36 -43)" onmousedown="handlePan(1,0)">
                  <use xlink:href="#rim" fill="#404040">
                        <set attributeName="fill" to="#808080" begin="arrowRight.mouseover" end="arrowRight.mouseout"/>
                  </use>
                  <path fill="none" stroke="white" stroke-width="1.5" d="M0,-3.0v7 M-2.5,-0.5L0,-3.0L2.5,-0.5"/>
                </g>
                <g id="arrowDown" xlink:href="#dirArrow" transform="rotate(180) translate(-30 -48)" onmousedown="handlePan(0,1)">
                  <use xlink:href="#rim" fill="#404040">
                        <set attributeName="fill" to="#808080" begin="arrowDown.mouseover" end="arrowDown.mouseout"/>
                  </use>
                  <path fill="none" stroke="white" stroke-width="1.5" d="M0,-3.0v7 M-2.5,-0.5L0,-3.0L2.5,-0.5"/>
                </g>
                <g id="arrowLeft" xlink:href="#dirArrow" transform="rotate(270) translate(-36 17)" onmousedown="handlePan(-1,0)">
                  <use xlink:href="#rim" fill="#404040">
                        <set attributeName="fill" to="#808080" begin="arrowLeft.mouseover" end="arrowLeft.mouseout"/>
                  </use>
                  <path fill="none" stroke="white" stroke-width="1.5" d="M0,-3.0v7 M-2.5,-0.5L0,-3.0L2.5,-0.5"/>
                </g>
        </g>
        <svg viewBox="0 0 15 15" width="100%" height="30px" preserveAspectRatio="xMaxYMin meet">
         <g id="arrow_out" transform="scale(0.3 0.3)">
          <a xlink:href="class_menu_a3c99ad09e9f2f975c1a0d0597642651a_icgraph_org.svg" target="_base">
           <rect id="button" ry="5" rx="5" y="6" x="6" height="38" width="38"
                fill="#f2f5e9" fill-opacity="0.5" stroke="#606060" stroke-width="1.0"/>
           <path id="arrow"
             d="M 11.500037,31.436501 C 11.940474,20.09759 22.043105,11.32322 32.158766,21.979434 L 37.068811,17.246167 C 37.068811,17.246167 37.088388,32 37.088388,32 L 22.160133,31.978069 C 22.160133,31.978069 26.997745,27.140456 26.997745,27.140456 C 18.528582,18.264221 13.291696,25.230495 11.500037,31.436501 z"
             style="fill:#404040;"/>
          </a>
         </g>
        </svg>
</svg>
