<?xml version="1.0" encoding="UTF-8" standalone="no"?>
<!DOCTYPE svg PUBLIC "-//W3C//DTD SVG 1.1//EN"
 "http://www.w3.org/Graphics/SVG/1.1/DTD/svg11.dtd">
<!-- Generated by graphviz version 2.36.0 (20140111.2315)
 -->
<!-- Title: Menu.init Pages: 1 -->
<!--zoomable 550 -->
<svg id="main" version="1.1" xmlns="http://www.w3.org/2000/svg" xmlns:xlink="http://www.w3.org/1999/xlink" xml:space="preserve" onload="init(evt)">
<style type="text/css"><![CDATA[
.edge:hover path { stroke: red; }
.edge:hover polygon { stroke: red; fill: red; }
]]></style>
<script type="text/javascript"><![CDATA[
var edges = document.getElementsByTagName('g');
if (edges && edges.length) {
  for (var i=0;i<edges.length;i++) {
    if (edges[i].id.substr(0,4)=='edge') {
      edges[i].setAttribute('class','edge');
    }
  }
}
]]></script>
        <defs>
                <circle id="rim" cx="0" cy="0" r="7"/>
                <circle id="rim2" cx="0" cy="0" r="3.5"/>
                <g id="zoomPlus">
                        <use xlink:href="#rim" fill="#404040">
                                <set attributeName="fill" to="#808080" begin="zoomplus.mouseover" end="zoomplus.mouseout"/>
                        </use>
                        <path d="M-4,0h8M0,-4v8" fill="none" stroke="white" stroke-width="1.5" pointer-events="none"/>
                </g>
                <g id="zoomMin">
                        <use xlink:href="#rim" fill="#404040">
                                <set attributeName="fill" to="#808080" begin="zoomminus.mouseover" end="zoomminus.mouseout"/>
                        </use>
                        <path d="M-4,0h8" fill="none" stroke="white" stroke-width="1.5" pointer-events="none"/>
                </g>
                <g id="dirArrow">
                        <path fill="none" stroke="white" stroke-width="1.5" d="M0,-3.0v7 M-2.5,-0.5L0,-3.0L2.5,-0.5"/>
                </g>
               <g id="resetDef">
                       <use xlink:href="#rim2" fill="#404040">
                               <set attributeName="fill" to="#808080" begin="reset.mouseover" end="reset.mouseout"/>
                       </use>
               </g>
        </defs>

<script type="text/javascript">
var viewWidth = 1790;
var viewHeight = 550;
var sectionId = 'dynsection-2';
</script>
<script xlink:href="../../svgpan.js"/>
<svg id="graph" class="graph">
<g id="viewport">
<title>Menu.init</title>
<polygon fill="white" stroke="none" points="-4,4 -4,-546 1786,-546 1786,4 -4,4"/>
<!-- Node1 -->
<g id="node1" class="node"><title>Node1</title>
<polygon fill="#bfbfbf" stroke="black" points="0,-199.5 0,-218.5 60,-218.5 60,-199.5 0,-199.5"/>
<text text-anchor="middle" x="30" y="-206.5" font-family="Helvetica,sans-Serif" font-size="10.00">Menu.init</text>
</g>
<!-- Node2 -->
<g id="node2" class="node"><title>Node2</title>
<g id="a_node2"><a xlink:href="../../d2/db8/class_menu.html#a8a6e6125f0dc2dc7e19c6655ba6376a2" target="_top" xlink:title="Menu.addIntroText">
<polygon fill="white" stroke="black" points="96,-237.5 96,-256.5 200,-256.5 200,-237.5 96,-237.5"/>
<text text-anchor="middle" x="148" y="-244.5" font-family="Helvetica,sans-Serif" font-size="10.00">Menu.addIntroText</text>
</a>
</g>
</g>
<!-- Node1&#45;&gt;Node2 -->
<g id="edge1" class="edge"><title>Node1&#45;&gt;Node2</title>
<path fill="none" stroke="midnightblue" d="M60.2717,-218.589C74.6967,-223.314 92.2934,-229.079 107.857,-234.177"/>
<polygon fill="midnightblue" stroke="midnightblue" points="107.145,-237.627 117.738,-237.414 109.324,-230.975 107.145,-237.627"/>
</g>
<!-- Node3 -->
<g id="node3" class="node"><title>Node3</title>
<g id="a_node3"><a xlink:href="../../db/d97/class_box_world.html#a55bf92d3f466bfaade0f6d199d8c9bd9" target="_top" xlink:title="BoxWorld.init">
<polygon fill="white" stroke="black" points="109.5,-199.5 109.5,-218.5 186.5,-218.5 186.5,-199.5 109.5,-199.5"/>
<text text-anchor="middle" x="148" y="-206.5" font-family="Helvetica,sans-Serif" font-size="10.00">BoxWorld.init</text>
</a>
</g>
</g>
<!-- Node1&#45;&gt;Node3 -->
<g id="edge2" class="edge"><title>Node1&#45;&gt;Node3</title>
<path fill="none" stroke="midnightblue" d="M60.2717,-209C72.0288,-209 85.8928,-209 99.0459,-209"/>
<polygon fill="midnightblue" stroke="midnightblue" points="99.3882,-212.5 109.388,-209 99.3882,-205.5 99.3882,-212.5"/>
</g>
<!-- Node4 -->
<g id="node4" class="node"><title>Node4</title>
<g id="a_node4"><a xlink:href="../../db/d97/class_box_world.html#a69798621c944e846f045aaf3937505f9" target="_top" xlink:title="BoxWorld.addStarterObjects">
<polygon fill="white" stroke="black" points="874.5,-522.5 874.5,-541.5 1025.5,-541.5 1025.5,-522.5 874.5,-522.5"/>
<text text-anchor="middle" x="950" y="-529.5" font-family="Helvetica,sans-Serif" font-size="10.00">BoxWorld.addStarterObjects</text>
</a>
</g>
</g>
<!-- Node3&#45;&gt;Node4 -->
<g id="edge3" class="edge"><title>Node3&#45;&gt;Node4</title>
<path fill="none" stroke="midnightblue" d="M179.989,-218.596C186.787,-221.23 193.8,-224.376 200,-228 335.598,-307.256 312.938,-456 470,-456 470,-456 470,-456 635,-456 737.298,-456 758.351,-489.874 858,-513 868.713,-515.486 880.17,-517.995 891.216,-520.338"/>
<polygon fill="midnightblue" stroke="midnightblue" points="890.706,-523.807 901.212,-522.438 892.145,-516.957 890.706,-523.807"/>
</g>
<!-- Node6 -->
<g id="node6" class="node"><title>Node6</title>
<g id="a_node6"><a xlink:href="../../db/d97/class_box_world.html#a726e747e023543658d7a345cc6466ccb" target="_top" xlink:title="BoxWorld.createScene">
<polygon fill="white" stroke="black" points="236,-218.5 236,-237.5 360,-237.5 360,-218.5 236,-218.5"/>
<text text-anchor="middle" x="298" y="-225.5" font-family="Helvetica,sans-Serif" font-size="10.00">BoxWorld.createScene</text>
</a>
</g>
</g>
<!-- Node3&#45;&gt;Node6 -->
<g id="edge5" class="edge"><title>Node3&#45;&gt;Node6</title>
<path fill="none" stroke="midnightblue" d="M186.73,-213.844C198.604,-215.368 212.135,-217.105 225.553,-218.828"/>
<polygon fill="midnightblue" stroke="midnightblue" points="225.399,-222.337 235.763,-220.138 226.29,-215.394 225.399,-222.337"/>
</g>
<!-- Node28 -->
<g id="node28" class="node"><title>Node28</title>
<g id="a_node28"><a xlink:href="../../db/d97/class_box_world.html#ad20a4e43406c44f4bbf201d1d1028998" target="_top" xlink:title="BoxWorld.start">
<polygon fill="white" stroke="black" points="907,-180.5 907,-199.5 993,-199.5 993,-180.5 907,-180.5"/>
<text text-anchor="middle" x="950" y="-187.5" font-family="Helvetica,sans-Serif" font-size="10.00">BoxWorld.start</text>
</a>
</g>
</g>
<!-- Node3&#45;&gt;Node28 -->
<g id="edge49" class="edge"><title>Node3&#45;&gt;Node28</title>
<path fill="none" stroke="midnightblue" d="M186.516,-205.337C246.39,-199.815 367.279,-190 470,-190 470,-190 470,-190 635,-190 726.986,-190 834.129,-190 896.485,-190"/>
<polygon fill="midnightblue" stroke="midnightblue" points="896.845,-193.5 906.845,-190 896.845,-186.5 896.845,-193.5"/>
</g>
<!-- Node5 -->
<g id="node5" class="node"><title>Node5</title>
<g id="a_node5"><a xlink:href="../../db/d97/class_box_world.html#a2542cc74ebeba6a9768a443a55186901" target="_top" xlink:title="BoxWorld.createObstacleArray">
<polygon fill="white" stroke="black" points="1078.5,-522.5 1078.5,-541.5 1239.5,-541.5 1239.5,-522.5 1078.5,-522.5"/>
<text text-anchor="middle" x="1159" y="-529.5" font-family="Helvetica,sans-Serif" font-size="10.00">BoxWorld.createObstacleArray</text>
</a>
</g>
</g>
<!-- Node4&#45;&gt;Node5 -->
<g id="edge4" class="edge"><title>Node4&#45;&gt;Node5</title>
<path fill="none" stroke="midnightblue" d="M1025.73,-532C1039.52,-532 1054.06,-532 1068.24,-532"/>
<polygon fill="midnightblue" stroke="midnightblue" points="1068.49,-535.5 1078.49,-532 1068.49,-528.5 1068.49,-535.5"/>
</g>
<!-- Node7 -->
<g id="node7" class="node"><title>Node7</title>
<g id="a_node7"><a xlink:href="../../db/d97/class_box_world.html#aa7e2049d7be23e15fd2ec7fa2922ed79" target="_top" xlink:title="BoxWorld.handleKeyInput">
<polygon fill="white" stroke="black" points="403,-104.5 403,-123.5 539,-123.5 539,-104.5 403,-104.5"/>
<text text-anchor="middle" x="471" y="-111.5" font-family="Helvetica,sans-Serif" font-size="10.00">BoxWorld.handleKeyInput</text>
</a>
</g>
</g>
<!-- Node6&#45;&gt;Node7 -->
<g id="edge6" class="edge"><title>Node6&#45;&gt;Node7</title>
<path fill="none" stroke="midnightblue" d="M313.285,-218.477C342.885,-198.744 411.138,-153.242 447.013,-129.325"/>
<polygon fill="midnightblue" stroke="midnightblue" points="449.014,-132.197 455.393,-123.738 445.131,-126.373 449.014,-132.197"/>
</g>
<!-- Node37 -->
<g id="node37" class="node"><title>Node37</title>
<g id="a_node37"><a xlink:href="../../db/d97/class_box_world.html#a2d44485a181577acb4d79b6b81f26fff" target="_top" xlink:title="BoxWorld.handleKeyRelease">
<polygon fill="white" stroke="black" points="396.5,-218.5 396.5,-237.5 545.5,-237.5 545.5,-218.5 396.5,-218.5"/>
<text text-anchor="middle" x="471" y="-225.5" font-family="Helvetica,sans-Serif" font-size="10.00">BoxWorld.handleKeyRelease</text>
</a>
</g>
</g>
<!-- Node6&#45;&gt;Node37 -->
<g id="edge48" class="edge"><title>Node6&#45;&gt;Node37</title>
<path fill="none" stroke="midnightblue" d="M360.252,-228C368.655,-228 377.399,-228 386.121,-228"/>
<polygon fill="midnightblue" stroke="midnightblue" points="386.327,-231.5 396.327,-228 386.327,-224.5 386.327,-231.5"/>
</g>
<!-- Node8 -->
<g id="node8" class="node"><title>Node8</title>
<g id="a_node8"><a xlink:href="../../db/d97/class_box_world.html#adc4c9d78ffde3d052c4c92047eb98e55" target="_top" xlink:title="BoxWorld.allowMovement">
<polygon fill="white" stroke="black" points="1476.5,-104.5 1476.5,-123.5 1613.5,-123.5 1613.5,-104.5 1476.5,-104.5"/>
<text text-anchor="middle" x="1545" y="-111.5" font-family="Helvetica,sans-Serif" font-size="10.00">BoxWorld.allowMovement</text>
</a>
</g>
</g>
<!-- Node7&#45;&gt;Node8 -->
<g id="edge7" class="edge"><title>Node7&#45;&gt;Node8</title>
<path fill="none" stroke="midnightblue" d="M494.016,-104.375C542.862,-83.924 664.415,-38 771,-38 771,-38 771,-38 1160,-38 1284.73,-38 1320.29,-21.9838 1440,-57 1444.19,-58.2257 1488.5,-82.8566 1517.91,-99.3352"/>
<polygon fill="midnightblue" stroke="midnightblue" points="1516.43,-102.52 1526.87,-104.359 1519.86,-96.4145 1516.43,-102.52"/>
</g>
<!-- Node13 -->
<g id="node13" class="node"><title>Node13</title>
<g id="a_node13"><a xlink:href="../../db/d97/class_box_world.html#a04c6bf977c4292a5433649fb3745fd6b" target="_top" xlink:title="BoxWorld.reset">
<polygon fill="white" stroke="black" points="1115,-104.5 1115,-123.5 1203,-123.5 1203,-104.5 1115,-104.5"/>
<text text-anchor="middle" x="1159" y="-111.5" font-family="Helvetica,sans-Serif" font-size="10.00">BoxWorld.reset</text>
</a>
</g>
</g>
<!-- Node7&#45;&gt;Node13 -->
<g id="edge12" class="edge"><title>Node7&#45;&gt;Node13</title>
<path fill="none" stroke="midnightblue" d="M539.026,-114C674.976,-114 980.73,-114 1104.49,-114"/>
<polygon fill="midnightblue" stroke="midnightblue" points="1104.83,-117.5 1114.83,-114 1104.83,-110.5 1104.83,-117.5"/>
</g>
<!-- Node14 -->
<g id="node14" class="node"><title>Node14</title>
<g id="a_node14"><a xlink:href="../../da/de2/class_sticky_box.html#aa1bb8f78f676b01c688d75d386758444" target="_top" xlink:title="StickyBox.setDirection">
<polygon fill="white" stroke="black" points="1296,-66.5 1296,-85.5 1420,-85.5 1420,-66.5 1296,-66.5"/>
<text text-anchor="middle" x="1358" y="-73.5" font-family="Helvetica,sans-Serif" font-size="10.00">StickyBox.setDirection</text>
</a>
</g>
</g>
<!-- Node7&#45;&gt;Node14 -->
<g id="edge15" class="edge"><title>Node7&#45;&gt;Node14</title>
<path fill="none" stroke="midnightblue" d="M518.124,-104.46C576.66,-93.2037 680.866,-76 771,-76 771,-76 771,-76 951,-76 1068.28,-76 1204.61,-76 1285.69,-76"/>
<polygon fill="midnightblue" stroke="midnightblue" points="1285.78,-79.5001 1295.78,-76 1285.78,-72.5001 1285.78,-79.5001"/>
</g>
<!-- Node16 -->
<g id="node16" class="node"><title>Node16</title>
<g id="a_node16"><a xlink:href="../../db/d97/class_box_world.html#aad670712776afe126e51791097027e05" target="_top" xlink:title="BoxWorld.winLevel">
<polygon fill="white" stroke="black" points="582.5,-218.5 582.5,-237.5 685.5,-237.5 685.5,-218.5 582.5,-218.5"/>
<text text-anchor="middle" x="634" y="-225.5" font-family="Helvetica,sans-Serif" font-size="10.00">BoxWorld.winLevel</text>
</a>
</g>
</g>
<!-- Node7&#45;&gt;Node16 -->
<g id="edge16" class="edge"><title>Node7&#45;&gt;Node16</title>
<path fill="none" stroke="midnightblue" d="M485.45,-123.523C513.2,-143.173 577.036,-188.373 610.926,-212.37"/>
<polygon fill="midnightblue" stroke="midnightblue" points="609.063,-215.34 619.247,-218.262 613.108,-209.627 609.063,-215.34"/>
</g>
<!-- Node9 -->
<g id="node9" class="node"><title>Node9</title>
<g id="a_node9"><a xlink:href="../../da/de2/class_sticky_box.html#a6ba3f89630df9d81df5644a3e5f4e387" target="_top" xlink:title="StickyBox.getXDirection">
<polygon fill="white" stroke="black" points="1650.5,-199.5 1650.5,-218.5 1781.5,-218.5 1781.5,-199.5 1650.5,-199.5"/>
<text text-anchor="middle" x="1716" y="-206.5" font-family="Helvetica,sans-Serif" font-size="10.00">StickyBox.getXDirection</text>
</a>
</g>
</g>
<!-- Node8&#45;&gt;Node9 -->
<g id="edge8" class="edge"><title>Node8&#45;&gt;Node9</title>
<path fill="none" stroke="midnightblue" d="M1563.13,-123.632C1592.82,-140.318 1653.98,-174.698 1688.95,-194.356"/>
<polygon fill="midnightblue" stroke="midnightblue" points="1687.64,-197.635 1698.07,-199.484 1691.07,-191.533 1687.64,-197.635"/>
</g>
<!-- Node10 -->
<g id="node10" class="node"><title>Node10</title>
<g id="a_node10"><a xlink:href="../../da/de2/class_sticky_box.html#ab0bd7cafb7f243e3951558ddb8728b96" target="_top" xlink:title="StickyBox.getXPrev">
<polygon fill="white" stroke="black" points="1661.5,-104.5 1661.5,-123.5 1770.5,-123.5 1770.5,-104.5 1661.5,-104.5"/>
<text text-anchor="middle" x="1716" y="-111.5" font-family="Helvetica,sans-Serif" font-size="10.00">StickyBox.getXPrev</text>
</a>
</g>
</g>
<!-- Node8&#45;&gt;Node10 -->
<g id="edge9" class="edge"><title>Node8&#45;&gt;Node10</title>
<path fill="none" stroke="midnightblue" d="M1613.76,-114C1626.1,-114 1638.94,-114 1651.16,-114"/>
<polygon fill="midnightblue" stroke="midnightblue" points="1651.26,-117.5 1661.26,-114 1651.26,-110.5 1651.26,-117.5"/>
</g>
<!-- Node11 -->
<g id="node11" class="node"><title>Node11</title>
<g id="a_node11"><a xlink:href="../../da/de2/class_sticky_box.html#a69e5ccf2a79159c03dea2e048df13318" target="_top" xlink:title="StickyBox.getYDirection">
<polygon fill="white" stroke="black" points="1651,-142.5 1651,-161.5 1781,-161.5 1781,-142.5 1651,-142.5"/>
<text text-anchor="middle" x="1716" y="-149.5" font-family="Helvetica,sans-Serif" font-size="10.00">StickyBox.getYDirection</text>
</a>
</g>
</g>
<!-- Node8&#45;&gt;Node11 -->
<g id="edge10" class="edge"><title>Node8&#45;&gt;Node11</title>
<path fill="none" stroke="midnightblue" d="M1588.65,-123.589C1611.15,-128.649 1638.95,-134.9 1662.74,-140.249"/>
<polygon fill="midnightblue" stroke="midnightblue" points="1662.14,-143.701 1672.66,-142.48 1663.67,-136.871 1662.14,-143.701"/>
</g>
<!-- Node12 -->
<g id="node12" class="node"><title>Node12</title>
<g id="a_node12"><a xlink:href="../../da/de2/class_sticky_box.html#a4c6abed944faed9d9b226079e99cfc24" target="_top" xlink:title="StickyBox.getYPrev">
<polygon fill="white" stroke="black" points="1662,-66.5 1662,-85.5 1770,-85.5 1770,-66.5 1662,-66.5"/>
<text text-anchor="middle" x="1716" y="-73.5" font-family="Helvetica,sans-Serif" font-size="10.00">StickyBox.getYPrev</text>
</a>
</g>
</g>
<!-- Node8&#45;&gt;Node12 -->
<g id="edge11" class="edge"><title>Node8&#45;&gt;Node12</title>
<path fill="none" stroke="midnightblue" d="M1588.65,-104.411C1611.15,-99.3513 1638.95,-93.1004 1662.74,-87.7512"/>
<polygon fill="midnightblue" stroke="midnightblue" points="1663.67,-91.1286 1672.66,-85.5201 1662.14,-84.2991 1663.67,-91.1286"/>
</g>
<!-- Node13&#45;&gt;Node14 -->
<g id="edge13" class="edge"><title>Node13&#45;&gt;Node14</title>
<path fill="none" stroke="midnightblue" d="M1203.23,-105.661C1230.91,-100.322 1267.2,-93.3223 1297.57,-87.4637"/>
<polygon fill="midnightblue" stroke="midnightblue" points="1298.47,-90.8554 1307.62,-85.5246 1297.14,-83.9821 1298.47,-90.8554"/>
</g>
<!-- Node15 -->
<g id="node15" class="node"><title>Node15</title>
<g id="a_node15"><a xlink:href="../../da/de2/class_sticky_box.html#a5d95d2ed2e13f0d87a44311db77f9e36" target="_top" xlink:title="StickyBox.setPreviousDirection">
<polygon fill="white" stroke="black" points="1276,-104.5 1276,-123.5 1440,-123.5 1440,-104.5 1276,-104.5"/>
<text text-anchor="middle" x="1358" y="-111.5" font-family="Helvetica,sans-Serif" font-size="10.00">StickyBox.setPreviousDirection</text>
</a>
</g>
</g>
<!-- Node13&#45;&gt;Node15 -->
<g id="edge14" class="edge"><title>Node13&#45;&gt;Node15</title>
<path fill="none" stroke="midnightblue" d="M1203.23,-114C1221.61,-114 1243.79,-114 1265.52,-114"/>
<polygon fill="midnightblue" stroke="midnightblue" points="1265.78,-117.5 1275.78,-114 1265.78,-110.5 1265.78,-117.5"/>
</g>
<!-- Node17 -->
<g id="node17" class="node"><title>Node17</title>
<g id="a_node17"><a xlink:href="../../d6/d4f/class_item_box_world.html#aa559fc2680327b41fb376e2eda8e82e3" target="_top" xlink:title="ItemBoxWorld.init">
<polygon fill="white" stroke="black" points="722.5,-332.5 722.5,-351.5 821.5,-351.5 821.5,-332.5 722.5,-332.5"/>
<text text-anchor="middle" x="772" y="-339.5" font-family="Helvetica,sans-Serif" font-size="10.00">ItemBoxWorld.init</text>
</a>
</g>
</g>
<!-- Node16&#45;&gt;Node17 -->
<g id="edge17" class="edge"><title>Node16&#45;&gt;Node17</title>
<path fill="none" stroke="midnightblue" d="M646.595,-237.72C669.981,-257.322 723.009,-301.772 751.701,-325.823"/>
<polygon fill="midnightblue" stroke="midnightblue" points="749.522,-328.563 759.434,-332.305 754.019,-323.199 749.522,-328.563"/>
</g>
<!-- Node17&#45;&gt;Node4 -->
<g id="edge23" class="edge"><title>Node17&#45;&gt;Node4</title>
<path fill="none" stroke="midnightblue" d="M777.701,-351.597C795.276,-387.457 856.204,-511.613 858,-513 860.335,-514.804 862.801,-516.446 865.366,-517.942"/>
<polygon fill="midnightblue" stroke="midnightblue" points="863.922,-521.133 874.43,-522.482 867.057,-514.874 863.922,-521.133"/>
</g>
<!-- Node17&#45;&gt;Node6 -->
<g id="edge24" class="edge"><title>Node17&#45;&gt;Node6</title>
<path fill="none" stroke="midnightblue" d="M731.35,-332.423C645.426,-311.671 442.24,-262.596 348.258,-239.897"/>
<polygon fill="midnightblue" stroke="midnightblue" points="348.973,-236.469 338.431,-237.523 347.329,-243.273 348.973,-236.469"/>
</g>
<!-- Node18 -->
<g id="node18" class="node"><title>Node18</title>
<g id="a_node18"><a xlink:href="../../d6/d4f/class_item_box_world.html#a7ead15fd9fd8095f928640161d48fdf8" target="_top" xlink:title="ItemBoxWorld.addAllItems">
<polygon fill="white" stroke="black" points="879.5,-256.5 879.5,-275.5 1020.5,-275.5 1020.5,-256.5 879.5,-256.5"/>
<text text-anchor="middle" x="950" y="-263.5" font-family="Helvetica,sans-Serif" font-size="10.00">ItemBoxWorld.addAllItems</text>
</a>
</g>
</g>
<!-- Node17&#45;&gt;Node18 -->
<g id="edge18" class="edge"><title>Node17&#45;&gt;Node18</title>
<path fill="none" stroke="midnightblue" d="M784.27,-332.333C799.809,-319.521 829.176,-297.128 858,-285 864.197,-282.393 870.786,-280.131 877.477,-278.171"/>
<polygon fill="midnightblue" stroke="midnightblue" points="878.577,-281.499 887.317,-275.511 876.751,-274.742 878.577,-281.499"/>
</g>
<!-- Node22 -->
<g id="node22" class="node"><title>Node22</title>
<g id="a_node22"><a xlink:href="../../db/d97/class_box_world.html#a61929851f1d60c397e1448e614f1d701" target="_top" xlink:title="BoxWorld.getAnimation">
<polygon fill="white" stroke="black" points="886,-484.5 886,-503.5 1014,-503.5 1014,-484.5 886,-484.5"/>
<text text-anchor="middle" x="950" y="-491.5" font-family="Helvetica,sans-Serif" font-size="10.00">BoxWorld.getAnimation</text>
</a>
</g>
</g>
<!-- Node17&#45;&gt;Node22 -->
<g id="edge25" class="edge"><title>Node17&#45;&gt;Node22</title>
<path fill="none" stroke="midnightblue" d="M776.144,-351.57C784.811,-376.356 811.537,-442.941 858,-475 863.534,-478.818 869.676,-481.897 876.082,-484.376"/>
<polygon fill="midnightblue" stroke="midnightblue" points="875.023,-487.712 885.617,-487.594 877.261,-481.08 875.023,-487.712"/>
</g>
<!-- Node23 -->
<g id="node23" class="node"><title>Node23</title>
<g id="a_node23"><a xlink:href="../../db/d97/class_box_world.html#a8d7d9f1ae1ebcd87ff73c09780b70629" target="_top" xlink:title="BoxWorld.setAnimation">
<polygon fill="white" stroke="black" points="886.5,-446.5 886.5,-465.5 1013.5,-465.5 1013.5,-446.5 886.5,-446.5"/>
<text text-anchor="middle" x="950" y="-453.5" font-family="Helvetica,sans-Serif" font-size="10.00">BoxWorld.setAnimation</text>
</a>
</g>
</g>
<!-- Node17&#45;&gt;Node23 -->
<g id="edge26" class="edge"><title>Node17&#45;&gt;Node23</title>
<path fill="none" stroke="midnightblue" d="M778.627,-351.637C790.563,-371.15 820.429,-415.32 858,-437 863.823,-440.36 870.161,-443.13 876.691,-445.412"/>
<polygon fill="midnightblue" stroke="midnightblue" points="875.771,-448.791 886.359,-448.42 877.85,-442.107 875.771,-448.791"/>
</g>
<!-- Node24 -->
<g id="node24" class="node"><title>Node24</title>
<g id="a_node24"><a xlink:href="../../db/d97/class_box_world.html#a3735494d6eeffc036cd757eb21170eb0" target="_top" xlink:title="BoxWorld.setObstacleXCoordinates">
<polygon fill="white" stroke="black" points="858.5,-408.5 858.5,-427.5 1041.5,-427.5 1041.5,-408.5 858.5,-408.5"/>
<text text-anchor="middle" x="950" y="-415.5" font-family="Helvetica,sans-Serif" font-size="10.00">BoxWorld.setObstacleXCoordinates</text>
</a>
</g>
</g>
<!-- Node17&#45;&gt;Node24 -->
<g id="edge27" class="edge"><title>Node17&#45;&gt;Node24</title>
<path fill="none" stroke="midnightblue" d="M784.27,-351.667C799.809,-364.479 829.176,-386.872 858,-399 864.197,-401.607 870.786,-403.869 877.477,-405.829"/>
<polygon fill="midnightblue" stroke="midnightblue" points="876.751,-409.258 887.317,-408.489 878.577,-402.501 876.751,-409.258"/>
</g>
<!-- Node25 -->
<g id="node25" class="node"><title>Node25</title>
<g id="a_node25"><a xlink:href="../../db/d97/class_box_world.html#ab45827804913790744cdbaaf8a222256" target="_top" xlink:title="BoxWorld.setObstacleYCoordinates">
<polygon fill="white" stroke="black" points="859,-370.5 859,-389.5 1041,-389.5 1041,-370.5 859,-370.5"/>
<text text-anchor="middle" x="950" y="-377.5" font-family="Helvetica,sans-Serif" font-size="10.00">BoxWorld.setObstacleYCoordinates</text>
</a>
</g>
</g>
<!-- Node17&#45;&gt;Node25 -->
<g id="edge28" class="edge"><title>Node17&#45;&gt;Node25</title>
<path fill="none" stroke="midnightblue" d="M815.345,-351.589C828.956,-354.638 844.107,-357.997 858,-361 869.225,-363.426 881.24,-365.972 892.74,-368.382"/>
<polygon fill="midnightblue" stroke="midnightblue" points="892.175,-371.84 902.679,-370.46 893.607,-364.988 892.175,-371.84"/>
</g>
<!-- Node26 -->
<g id="node26" class="node"><title>Node26</title>
<g id="a_node26"><a xlink:href="../../db/d97/class_box_world.html#aeeaafc4ff103ded208e6c9393eb4ceca" target="_top" xlink:title="BoxWorld.setRoot">
<polygon fill="white" stroke="black" points="900.5,-332.5 900.5,-351.5 999.5,-351.5 999.5,-332.5 900.5,-332.5"/>
<text text-anchor="middle" x="950" y="-339.5" font-family="Helvetica,sans-Serif" font-size="10.00">BoxWorld.setRoot</text>
</a>
</g>
</g>
<!-- Node17&#45;&gt;Node26 -->
<g id="edge29" class="edge"><title>Node17&#45;&gt;Node26</title>
<path fill="none" stroke="midnightblue" d="M821.559,-342C842.823,-342 867.962,-342 890.269,-342"/>
<polygon fill="midnightblue" stroke="midnightblue" points="890.295,-345.5 900.295,-342 890.295,-338.5 890.295,-345.5"/>
</g>
<!-- Node27 -->
<g id="node27" class="node"><title>Node27</title>
<g id="a_node27"><a xlink:href="../../db/d97/class_box_world.html#a25c34c68bdd68debd7de01a4f3b98bb1" target="_top" xlink:title="BoxWorld.setStage">
<polygon fill="white" stroke="black" points="896.5,-294.5 896.5,-313.5 1003.5,-313.5 1003.5,-294.5 896.5,-294.5"/>
<text text-anchor="middle" x="950" y="-301.5" font-family="Helvetica,sans-Serif" font-size="10.00">BoxWorld.setStage</text>
</a>
</g>
</g>
<!-- Node17&#45;&gt;Node27 -->
<g id="edge30" class="edge"><title>Node17&#45;&gt;Node27</title>
<path fill="none" stroke="midnightblue" d="M815.345,-332.411C828.956,-329.362 844.107,-326.003 858,-323 869.225,-320.574 881.24,-318.028 892.74,-315.618"/>
<polygon fill="midnightblue" stroke="midnightblue" points="893.607,-319.012 902.679,-313.54 892.175,-312.16 893.607,-319.012"/>
</g>
<!-- Node17&#45;&gt;Node28 -->
<g id="edge31" class="edge"><title>Node17&#45;&gt;Node28</title>
<path fill="none" stroke="midnightblue" d="M780.189,-332.29C793.941,-314.128 825.507,-274.382 858,-247 877.756,-230.352 902.791,-215.024 921.599,-204.466"/>
<polygon fill="midnightblue" stroke="midnightblue" points="923.473,-207.43 930.543,-199.54 920.096,-201.299 923.473,-207.43"/>
</g>
<!-- Node19 -->
<g id="node19" class="node"><title>Node19</title>
<g id="a_node19"><a xlink:href="../../d6/d4f/class_item_box_world.html#af1bcde0672796e926560684004ed8e81" target="_top" xlink:title="ItemBoxWorld.addSingleItem">
<polygon fill="white" stroke="black" points="1082,-313.5 1082,-332.5 1236,-332.5 1236,-313.5 1082,-313.5"/>
<text text-anchor="middle" x="1159" y="-320.5" font-family="Helvetica,sans-Serif" font-size="10.00">ItemBoxWorld.addSingleItem</text>
</a>
</g>
</g>
<!-- Node18&#45;&gt;Node19 -->
<g id="edge19" class="edge"><title>Node18&#45;&gt;Node19</title>
<path fill="none" stroke="midnightblue" d="M1001.78,-275.564C1014.94,-278.327 1029.06,-281.541 1042,-285 1069.11,-292.246 1099.21,-302.162 1121.95,-310.048"/>
<polygon fill="midnightblue" stroke="midnightblue" points="1120.93,-313.401 1131.53,-313.4 1123.25,-306.793 1120.93,-313.401"/>
</g>
<!-- Node21 -->
<g id="node21" class="node"><title>Node21</title>
<g id="a_node21"><a xlink:href="../../d6/d4f/class_item_box_world.html#a1890e6c53a4a73e44e9528009fde508d" target="_top" xlink:title="ItemBoxWorld.itemExists">
<polygon fill="white" stroke="black" points="1092,-265.5 1092,-284.5 1226,-284.5 1226,-265.5 1092,-265.5"/>
<text text-anchor="middle" x="1159" y="-272.5" font-family="Helvetica,sans-Serif" font-size="10.00">ItemBoxWorld.itemExists</text>
</a>
</g>
</g>
<!-- Node18&#45;&gt;Node21 -->
<g id="edge21" class="edge"><title>Node18&#45;&gt;Node21</title>
<path fill="none" stroke="midnightblue" d="M1020.5,-269.022C1040.2,-269.878 1061.74,-270.815 1081.8,-271.687"/>
<polygon fill="midnightblue" stroke="midnightblue" points="1081.69,-275.185 1091.83,-272.123 1081.99,-268.192 1081.69,-275.185"/>
</g>
<!-- Node20 -->
<g id="node20" class="node"><title>Node20</title>
<g id="a_node20"><a xlink:href="../../db/d97/class_box_world.html#abb95adb381902ecab1db85efdc1ea6ff" target="_top" xlink:title="BoxWorld.getRoot">
<polygon fill="white" stroke="black" points="1308,-332.5 1308,-351.5 1408,-351.5 1408,-332.5 1308,-332.5"/>
<text text-anchor="middle" x="1358" y="-339.5" font-family="Helvetica,sans-Serif" font-size="10.00">BoxWorld.getRoot</text>
</a>
</g>
</g>
<!-- Node19&#45;&gt;Node20 -->
<g id="edge20" class="edge"><title>Node19&#45;&gt;Node20</title>
<path fill="none" stroke="midnightblue" d="M1236.17,-330.346C1256.54,-332.311 1278.26,-334.406 1297.59,-336.27"/>
<polygon fill="midnightblue" stroke="midnightblue" points="1297.46,-339.774 1307.75,-337.25 1298.13,-332.806 1297.46,-339.774"/>
</g>
<!-- Node21&#45;&gt;Node20 -->
<g id="edge22" class="edge"><title>Node21&#45;&gt;Node20</title>
<path fill="none" stroke="midnightblue" d="M1186.72,-284.513C1202.3,-290.1 1222.3,-297.35 1240,-304 1256.07,-310.037 1259.76,-312.446 1276,-318 1287.82,-322.041 1300.74,-326.049 1312.72,-329.599"/>
<polygon fill="midnightblue" stroke="midnightblue" points="1311.93,-333.017 1322.51,-332.464 1313.9,-326.298 1311.93,-333.017"/>
</g>
<!-- Node29 -->
<g id="node29" class="node"><title>Node29</title>
<g id="a_node29"><a xlink:href="../../db/d97/class_box_world.html#a6794c083c2a0263c2f585f4ae4b7e39c" target="_top" xlink:title="BoxWorld.updateSprites">
<polygon fill="white" stroke="black" points="1093.5,-180.5 1093.5,-199.5 1224.5,-199.5 1224.5,-180.5 1093.5,-180.5"/>
<text text-anchor="middle" x="1159" y="-187.5" font-family="Helvetica,sans-Serif" font-size="10.00">BoxWorld.updateSprites</text>
</a>
</g>
</g>
<!-- Node28&#45;&gt;Node29 -->
<g id="edge32" class="edge"><title>Node28&#45;&gt;Node29</title>
<path fill="none" stroke="midnightblue" d="M993.139,-190C1019.05,-190 1053,-190 1083.35,-190"/>
<polygon fill="midnightblue" stroke="midnightblue" points="1083.49,-193.5 1093.49,-190 1083.49,-186.5 1083.49,-193.5"/>
</g>
<!-- Node29&#45;&gt;Node9 -->
<g id="edge42" class="edge"><title>Node29&#45;&gt;Node9</title>
<path fill="none" stroke="midnightblue" d="M1171.79,-199.742C1200.99,-223.858 1274.43,-284.439 1276,-285 1417.47,-335.536 1471.52,-332.617 1614,-285 1648.78,-273.375 1681.2,-244.538 1699.51,-225.916"/>
<polygon fill="midnightblue" stroke="midnightblue" points="1702.08,-228.289 1706.46,-218.641 1697.02,-223.454 1702.08,-228.289"/>
</g>
<!-- Node29&#45;&gt;Node11 -->
<g id="edge43" class="edge"><title>Node29&#45;&gt;Node11</title>
<path fill="none" stroke="midnightblue" d="M1210.07,-180.46C1230.45,-176.928 1254.28,-173.241 1276,-171 1403.74,-157.822 1553.3,-153.759 1640.76,-152.522"/>
<polygon fill="midnightblue" stroke="midnightblue" points="1640.89,-156.021 1650.85,-152.388 1640.8,-149.021 1640.89,-156.021"/>
</g>
<!-- Node29&#45;&gt;Node14 -->
<g id="edge45" class="edge"><title>Node29&#45;&gt;Node14</title>
<path fill="none" stroke="midnightblue" d="M1175.39,-180.317C1192,-169.583 1218.9,-151.352 1240,-133 1257.56,-117.734 1255.83,-106.588 1276,-95 1279.91,-92.7539 1284.07,-90.7731 1288.36,-89.0262"/>
<polygon fill="midnightblue" stroke="midnightblue" points="1289.71,-92.2596 1297.92,-85.5636 1287.33,-85.6779 1289.71,-92.2596"/>
</g>
<!-- Node29&#45;&gt;Node15 -->
<g id="edge46" class="edge"><title>Node29&#45;&gt;Node15</title>
<path fill="none" stroke="midnightblue" d="M1179.37,-180.356C1202.14,-169.249 1241.23,-150.879 1276,-138 1287.28,-133.823 1299.64,-129.86 1311.23,-126.403"/>
<polygon fill="midnightblue" stroke="midnightblue" points="1312.56,-129.662 1321.18,-123.501 1310.6,-122.942 1312.56,-129.662"/>
</g>
<!-- Node30 -->
<g id="node30" class="node"><title>Node30</title>
<g id="a_node30"><a xlink:href="../../db/d97/class_box_world.html#a4079bed8937c9f621decfbe1309e31e2" target="_top" xlink:title="BoxWorld.checkAllCollisions">
<polygon fill="white" stroke="black" points="1285,-256.5 1285,-275.5 1431,-275.5 1431,-256.5 1285,-256.5"/>
<text text-anchor="middle" x="1358" y="-263.5" font-family="Helvetica,sans-Serif" font-size="10.00">BoxWorld.checkAllCollisions</text>
</a>
</g>
</g>
<!-- Node29&#45;&gt;Node30 -->
<g id="edge33" class="edge"><title>Node29&#45;&gt;Node30</title>
<path fill="none" stroke="midnightblue" d="M1204.64,-199.544C1216.57,-203.11 1229.16,-207.839 1240,-214 1258.87,-224.723 1256.81,-236.858 1276,-247 1280.32,-249.284 1284.92,-251.296 1289.64,-253.069"/>
<polygon fill="midnightblue" stroke="midnightblue" points="1288.86,-256.5 1299.45,-256.38 1291.1,-249.868 1288.86,-256.5"/>
</g>
<!-- Node35 -->
<g id="node35" class="node"><title>Node35</title>
<g id="a_node35"><a xlink:href="../../da/de2/class_sticky_box.html#a185ee469367b376e6c5969a03d089d57" target="_top" xlink:title="StickyBox.move">
<polygon fill="white" stroke="black" points="1311.5,-218.5 1311.5,-237.5 1404.5,-237.5 1404.5,-218.5 1311.5,-218.5"/>
<text text-anchor="middle" x="1358" y="-225.5" font-family="Helvetica,sans-Serif" font-size="10.00">StickyBox.move</text>
</a>
</g>
</g>
<!-- Node29&#45;&gt;Node35 -->
<g id="edge44" class="edge"><title>Node29&#45;&gt;Node35</title>
<path fill="none" stroke="midnightblue" d="M1209.46,-199.54C1237.39,-204.929 1272.39,-211.68 1301.29,-217.255"/>
<polygon fill="midnightblue" stroke="midnightblue" points="1300.76,-220.716 1311.24,-219.173 1302.08,-213.843 1300.76,-220.716"/>
</g>
<!-- Node36 -->
<g id="node36" class="node"><title>Node36</title>
<g id="a_node36"><a xlink:href="../../da/de2/class_sticky_box.html#a59337f0aa3c7379a2cb9c76bdc621daf" target="_top" xlink:title="StickyBox.setStuck">
<polygon fill="white" stroke="black" points="1304,-180.5 1304,-199.5 1412,-199.5 1412,-180.5 1304,-180.5"/>
<text text-anchor="middle" x="1358" y="-187.5" font-family="Helvetica,sans-Serif" font-size="10.00">StickyBox.setStuck</text>
</a>
</g>
</g>
<!-- Node29&#45;&gt;Node36 -->
<g id="edge47" class="edge"><title>Node29&#45;&gt;Node36</title>
<path fill="none" stroke="midnightblue" d="M1224.51,-190C1246.69,-190 1271.49,-190 1293.59,-190"/>
<polygon fill="midnightblue" stroke="midnightblue" points="1293.86,-193.5 1303.86,-190 1293.86,-186.5 1293.86,-193.5"/>
</g>
<!-- Node30&#45;&gt;Node16 -->
<g id="edge41" class="edge"><title>Node30&#45;&gt;Node16</title>
<path fill="none" stroke="midnightblue" d="M1284.95,-259.397C1270.09,-258.161 1254.54,-256.958 1240,-256 1041.04,-242.898 804.866,-233.843 695.785,-230.028"/>
<polygon fill="midnightblue" stroke="midnightblue" points="695.747,-226.525 685.631,-229.675 695.504,-233.521 695.747,-226.525"/>
</g>
<!-- Node31 -->
<g id="node31" class="node"><title>Node31</title>
<g id="a_node31"><a xlink:href="../../db/d97/class_box_world.html#a55add11037cd6dc48556f2f42a9e11be" target="_top" xlink:title="BoxWorld.checkCollide">
<polygon fill="white" stroke="black" points="1484,-199.5 1484,-218.5 1606,-218.5 1606,-199.5 1484,-199.5"/>
<text text-anchor="middle" x="1545" y="-206.5" font-family="Helvetica,sans-Serif" font-size="10.00">BoxWorld.checkCollide</text>
</a>
</g>
</g>
<!-- Node30&#45;&gt;Node31 -->
<g id="edge34" class="edge"><title>Node30&#45;&gt;Node31</title>
<path fill="none" stroke="midnightblue" d="M1403.82,-256.499C1415.66,-253.713 1428.37,-250.474 1440,-247 1464.06,-239.811 1490.64,-230.065 1510.91,-222.243"/>
<polygon fill="midnightblue" stroke="midnightblue" points="1512.27,-225.47 1520.31,-218.577 1509.73,-218.948 1512.27,-225.47"/>
</g>
<!-- Node32 -->
<g id="node32" class="node"><title>Node32</title>
<g id="a_node32"><a xlink:href="../../db/d97/class_box_world.html#a72bacb2a6757900d8835249929fcc838" target="_top" xlink:title="BoxWorld.loseGame">
<polygon fill="white" stroke="black" points="1489,-47.5 1489,-66.5 1601,-66.5 1601,-47.5 1489,-47.5"/>
<text text-anchor="middle" x="1545" y="-54.5" font-family="Helvetica,sans-Serif" font-size="10.00">BoxWorld.loseGame</text>
</a>
</g>
</g>
<!-- Node30&#45;&gt;Node32 -->
<g id="edge37" class="edge"><title>Node30&#45;&gt;Node32</title>
<path fill="none" stroke="midnightblue" d="M1427.11,-256.364C1431.84,-253.856 1436.22,-250.775 1440,-247 1489.14,-197.962 1434.16,-150.398 1476,-95 1483.77,-84.7143 1495.18,-76.8201 1506.44,-70.9625"/>
<polygon fill="midnightblue" stroke="midnightblue" points="1508.26,-73.9727 1515.78,-66.5132 1505.25,-67.6527 1508.26,-73.9727"/>
</g>
<!-- Node34 -->
<g id="node34" class="node"><title>Node34</title>
<g id="a_node34"><a xlink:href="../../db/d97/class_box_world.html#a167adb49603af3a303ee958011243b5f" target="_top" xlink:title="BoxWorld.onScreen">
<polygon fill="white" stroke="black" points="1490.5,-256.5 1490.5,-275.5 1599.5,-275.5 1599.5,-256.5 1490.5,-256.5"/>
<text text-anchor="middle" x="1545" y="-263.5" font-family="Helvetica,sans-Serif" font-size="10.00">BoxWorld.onScreen</text>
</a>
</g>
</g>
<!-- Node30&#45;&gt;Node34 -->
<g id="edge40" class="edge"><title>Node30&#45;&gt;Node34</title>
<path fill="none" stroke="midnightblue" d="M1431.06,-266C1447.28,-266 1464.4,-266 1480.26,-266"/>
<polygon fill="midnightblue" stroke="midnightblue" points="1480.48,-269.5 1490.48,-266 1480.48,-262.5 1480.48,-269.5"/>
</g>
<!-- Node31&#45;&gt;Node9 -->
<g id="edge35" class="edge"><title>Node31&#45;&gt;Node9</title>
<path fill="none" stroke="midnightblue" d="M1606.06,-209C1617.03,-209 1628.6,-209 1639.94,-209"/>
<polygon fill="midnightblue" stroke="midnightblue" points="1640.26,-212.5 1650.26,-209 1640.26,-205.5 1640.26,-212.5"/>
</g>
<!-- Node31&#45;&gt;Node11 -->
<g id="edge36" class="edge"><title>Node31&#45;&gt;Node11</title>
<path fill="none" stroke="midnightblue" d="M1574.29,-199.459C1602.44,-189.965 1645.82,-175.333 1676.97,-164.826"/>
<polygon fill="midnightblue" stroke="midnightblue" points="1678.26,-168.084 1686.62,-161.572 1676.03,-161.451 1678.26,-168.084"/>
</g>
<!-- Node33 -->
<g id="node33" class="node"><title>Node33</title>
<g id="a_node33"><a xlink:href="../../d4/d2f/class_lose_screen.html#a34f2cc2c803500316c9b8d854854d758" target="_top" xlink:title="LoseScreen.init">
<polygon fill="white" stroke="black" points="1671,-9.5 1671,-28.5 1761,-28.5 1761,-9.5 1671,-9.5"/>
<text text-anchor="middle" x="1716" y="-16.5" font-family="Helvetica,sans-Serif" font-size="10.00">LoseScreen.init</text>
</a>
</g>
</g>
<!-- Node32&#45;&gt;Node33 -->
<g id="edge38" class="edge"><title>Node32&#45;&gt;Node33</title>
<path fill="none" stroke="midnightblue" d="M1588.65,-47.411C1611.15,-42.3513 1638.95,-36.1004 1662.74,-30.7512"/>
<polygon fill="midnightblue" stroke="midnightblue" points="1663.67,-34.1286 1672.66,-28.5201 1662.14,-27.2991 1663.67,-34.1286"/>
</g>
<!-- Node33&#45;&gt;Node1 -->
<g id="edge39" class="edge"><title>Node33&#45;&gt;Node1</title>
<path fill="none" stroke="midnightblue" d="M1670.92,-15.1322C1603.69,-9.57685 1471.49,-0 1359,-0 297,-0 297,-0 297,-0 173.962,-0 74.1605,-139.967 41.9629,-190.817"/>
<polygon fill="midnightblue" stroke="midnightblue" points="38.8883,-189.134 36.5919,-199.477 44.837,-192.823 38.8883,-189.134"/>
</g>
</g>
</svg>
        <g id="navigator" transform="translate(0 0)" fill="#404254">
                <rect fill="#f2f5e9" fill-opacity="0.5" stroke="#606060" stroke-width=".5" x="0" y="0" width="60" height="60"/>
                <use id="zoomplus" xlink:href="#zoomPlus" x="17" y="9" onmousedown="handleZoom(evt,'in')"/>
                <use id="zoomminus" xlink:href="#zoomMin" x="42" y="9" onmousedown="handleZoom(evt,'out')"/>
                <use id="reset" xlink:href="#resetDef" x="30" y="36" onmousedown="handleReset()"/>
                <g id="arrowUp" xlink:href="#dirArrow" transform="translate(30 24)" onmousedown="handlePan(0,-1)">
                  <use xlink:href="#rim" fill="#404040">
                        <set attributeName="fill" to="#808080" begin="arrowUp.mouseover" end="arrowUp.mouseout"/>
                  </use>
                  <path fill="none" stroke="white" stroke-width="1.5" d="M0,-3.0v7 M-2.5,-0.5L0,-3.0L2.5,-0.5"/>
                </g>
                <g id="arrowRight" xlink:href="#dirArrow" transform="rotate(90) translate(36 -43)" onmousedown="handlePan(1,0)">
                  <use xlink:href="#rim" fill="#404040">
                        <set attributeName="fill" to="#808080" begin="arrowRight.mouseover" end="arrowRight.mouseout"/>
                  </use>
                  <path fill="none" stroke="white" stroke-width="1.5" d="M0,-3.0v7 M-2.5,-0.5L0,-3.0L2.5,-0.5"/>
                </g>
                <g id="arrowDown" xlink:href="#dirArrow" transform="rotate(180) translate(-30 -48)" onmousedown="handlePan(0,1)">
                  <use xlink:href="#rim" fill="#404040">
                        <set attributeName="fill" to="#808080" begin="arrowDown.mouseover" end="arrowDown.mouseout"/>
                  </use>
                  <path fill="none" stroke="white" stroke-width="1.5" d="M0,-3.0v7 M-2.5,-0.5L0,-3.0L2.5,-0.5"/>
                </g>
                <g id="arrowLeft" xlink:href="#dirArrow" transform="rotate(270) translate(-36 17)" onmousedown="handlePan(-1,0)">
                  <use xlink:href="#rim" fill="#404040">
                        <set attributeName="fill" to="#808080" begin="arrowLeft.mouseover" end="arrowLeft.mouseout"/>
                  </use>
                  <path fill="none" stroke="white" stroke-width="1.5" d="M0,-3.0v7 M-2.5,-0.5L0,-3.0L2.5,-0.5"/>
                </g>
        </g>
        <svg viewBox="0 0 15 15" width="100%" height="30px" preserveAspectRatio="xMaxYMin meet">
         <g id="arrow_out" transform="scale(0.3 0.3)">
          <a xlink:href="class_menu_a3c99ad09e9f2f975c1a0d0597642651a_cgraph_org.svg" target="_base">
           <rect id="button" ry="5" rx="5" y="6" x="6" height="38" width="38"
                fill="#f2f5e9" fill-opacity="0.5" stroke="#606060" stroke-width="1.0"/>
           <path id="arrow"
             d="M 11.500037,31.436501 C 11.940474,20.09759 22.043105,11.32322 32.158766,21.979434 L 37.068811,17.246167 C 37.068811,17.246167 37.088388,32 37.088388,32 L 22.160133,31.978069 C 22.160133,31.978069 26.997745,27.140456 26.997745,27.140456 C 18.528582,18.264221 13.291696,25.230495 11.500037,31.436501 z"
             style="fill:#404040;"/>
          </a>
         </g>
        </svg>
</svg>
