<?xml version="1.0" encoding="UTF-8" standalone="no"?>
<!DOCTYPE svg PUBLIC "-//W3C//DTD SVG 1.1//EN"
 "http://www.w3.org/Graphics/SVG/1.1/DTD/svg11.dtd">
<!-- Generated by graphviz version 2.36.0 (20140111.2315)
 -->
<!-- Title: Menu.init Pages: 1 -->
<!--zoomable 342 -->
<svg id="main" version="1.1" xmlns="http://www.w3.org/2000/svg" xmlns:xlink="http://www.w3.org/1999/xlink" xml:space="preserve" onload="init(evt)">
<style type="text/css"><![CDATA[
.edge:hover path { stroke: red; }
.edge:hover polygon { stroke: red; fill: red; }
]]></style>
<script type="text/javascript"><![CDATA[
var edges = document.getElementsByTagName('g');
if (edges && edges.length) {
  for (var i=0;i<edges.length;i++) {
    if (edges[i].id.substr(0,4)=='edge') {
      edges[i].setAttribute('class','edge');
    }
  }
}
]]></script>
        <defs>
                <circle id="rim" cx="0" cy="0" r="7"/>
                <circle id="rim2" cx="0" cy="0" r="3.5"/>
                <g id="zoomPlus">
                        <use xlink:href="#rim" fill="#404040">
                                <set attributeName="fill" to="#808080" begin="zoomplus.mouseover" end="zoomplus.mouseout"/>
                        </use>
                        <path d="M-4,0h8M0,-4v8" fill="none" stroke="white" stroke-width="1.5" pointer-events="none"/>
                </g>
                <g id="zoomMin">
                        <use xlink:href="#rim" fill="#404040">
                                <set attributeName="fill" to="#808080" begin="zoomminus.mouseover" end="zoomminus.mouseout"/>
                        </use>
                        <path d="M-4,0h8" fill="none" stroke="white" stroke-width="1.5" pointer-events="none"/>
                </g>
                <g id="dirArrow">
                        <path fill="none" stroke="white" stroke-width="1.5" d="M0,-3.0v7 M-2.5,-0.5L0,-3.0L2.5,-0.5"/>
                </g>
               <g id="resetDef">
                       <use xlink:href="#rim2" fill="#404040">
                               <set attributeName="fill" to="#808080" begin="reset.mouseover" end="reset.mouseout"/>
                       </use>
               </g>
        </defs>

<script type="text/javascript">
var viewWidth = 1758;
var viewHeight = 342;
var sectionId = 'dynsection-2';
</script>
<script xlink:href="../../svgpan.js"/>
<svg id="graph" class="graph">
<g id="viewport">
<title>Menu.init</title>
<polygon fill="white" stroke="none" points="-4,4 -4,-338.026 1754,-338.026 1754,4 -4,4"/>
<!-- Node1 -->
<g id="node1" class="node"><title>Node1</title>
<polygon fill="#bfbfbf" stroke="black" points="0,-161.5 0,-180.5 60,-180.5 60,-161.5 0,-161.5"/>
<text text-anchor="middle" x="30" y="-168.5" font-family="Helvetica,sans-Serif" font-size="10.00">Menu.init</text>
</g>
<!-- Node2 -->
<g id="node2" class="node"><title>Node2</title>
<g id="a_node2"><a xlink:href="../../d2/db8/class_menu.html#a8a6e6125f0dc2dc7e19c6655ba6376a2" target="_top" xlink:title="Menu.addIntroText">
<polygon fill="white" stroke="black" points="96,-199.5 96,-218.5 200,-218.5 200,-199.5 96,-199.5"/>
<text text-anchor="middle" x="148" y="-206.5" font-family="Helvetica,sans-Serif" font-size="10.00">Menu.addIntroText</text>
</a>
</g>
</g>
<!-- Node1&#45;&gt;Node2 -->
<g id="edge1" class="edge"><title>Node1&#45;&gt;Node2</title>
<path fill="none" stroke="midnightblue" d="M60.2717,-180.589C74.6967,-185.314 92.2934,-191.079 107.857,-196.177"/>
<polygon fill="midnightblue" stroke="midnightblue" points="107.145,-199.627 117.738,-199.414 109.324,-192.975 107.145,-199.627"/>
</g>
<!-- Node3 -->
<g id="node3" class="node"><title>Node3</title>
<g id="a_node3"><a xlink:href="../../db/d97/class_box_world.html#a55bf92d3f466bfaade0f6d199d8c9bd9" target="_top" xlink:title="BoxWorld.init">
<polygon fill="white" stroke="black" points="109.5,-161.5 109.5,-180.5 186.5,-180.5 186.5,-161.5 109.5,-161.5"/>
<text text-anchor="middle" x="148" y="-168.5" font-family="Helvetica,sans-Serif" font-size="10.00">BoxWorld.init</text>
</a>
</g>
</g>
<!-- Node1&#45;&gt;Node3 -->
<g id="edge2" class="edge"><title>Node1&#45;&gt;Node3</title>
<path fill="none" stroke="midnightblue" d="M60.2717,-171C72.0288,-171 85.8928,-171 99.0459,-171"/>
<polygon fill="midnightblue" stroke="midnightblue" points="99.3882,-174.5 109.388,-171 99.3882,-167.5 99.3882,-174.5"/>
</g>
<!-- Node4 -->
<g id="node4" class="node"><title>Node4</title>
<g id="a_node4"><a xlink:href="../../db/d97/class_box_world.html#a69798621c944e846f045aaf3937505f9" target="_top" xlink:title="BoxWorld.addStarterObjects">
<polygon fill="white" stroke="black" points="858.5,-256.5 858.5,-275.5 1009.5,-275.5 1009.5,-256.5 858.5,-256.5"/>
<text text-anchor="middle" x="934" y="-263.5" font-family="Helvetica,sans-Serif" font-size="10.00">BoxWorld.addStarterObjects</text>
</a>
</g>
</g>
<!-- Node3&#45;&gt;Node4 -->
<g id="edge3" class="edge"><title>Node3&#45;&gt;Node4</title>
<path fill="none" stroke="midnightblue" d="M176.525,-180.515C184.205,-183.369 192.498,-186.64 200,-190 216.511,-197.396 219.083,-202.588 236,-209 336.093,-246.936 362.959,-266 470,-266 470,-266 470,-266 635,-266 706.893,-266 788.542,-266 848.173,-266"/>
<polygon fill="midnightblue" stroke="midnightblue" points="848.295,-269.5 858.294,-266 848.294,-262.5 848.295,-269.5"/>
</g>
<!-- Node6 -->
<g id="node6" class="node"><title>Node6</title>
<g id="a_node6"><a xlink:href="../../db/d97/class_box_world.html#a726e747e023543658d7a345cc6466ccb" target="_top" xlink:title="BoxWorld.createScene">
<polygon fill="white" stroke="black" points="236,-180.5 236,-199.5 360,-199.5 360,-180.5 236,-180.5"/>
<text text-anchor="middle" x="298" y="-187.5" font-family="Helvetica,sans-Serif" font-size="10.00">BoxWorld.createScene</text>
</a>
</g>
</g>
<!-- Node3&#45;&gt;Node6 -->
<g id="edge5" class="edge"><title>Node3&#45;&gt;Node6</title>
<path fill="none" stroke="midnightblue" d="M186.73,-175.844C198.604,-177.368 212.135,-179.105 225.553,-180.828"/>
<polygon fill="midnightblue" stroke="midnightblue" points="225.399,-184.337 235.763,-182.138 226.29,-177.394 225.399,-184.337"/>
</g>
<!-- Node21 -->
<g id="node21" class="node"><title>Node21</title>
<g id="a_node21"><a xlink:href="../../db/d97/class_box_world.html#ad20a4e43406c44f4bbf201d1d1028998" target="_top" xlink:title="BoxWorld.start">
<polygon fill="white" stroke="black" points="891,-142.5 891,-161.5 977,-161.5 977,-142.5 891,-142.5"/>
<text text-anchor="middle" x="934" y="-149.5" font-family="Helvetica,sans-Serif" font-size="10.00">BoxWorld.start</text>
</a>
</g>
</g>
<!-- Node3&#45;&gt;Node21 -->
<g id="edge41" class="edge"><title>Node3&#45;&gt;Node21</title>
<path fill="none" stroke="midnightblue" d="M186.516,-167.337C246.39,-161.815 367.279,-152 470,-152 470,-152 470,-152 635,-152 720.898,-152 820.724,-152 880.28,-152"/>
<polygon fill="midnightblue" stroke="midnightblue" points="880.56,-155.5 890.56,-152 880.56,-148.5 880.56,-155.5"/>
</g>
<!-- Node5 -->
<g id="node5" class="node"><title>Node5</title>
<g id="a_node5"><a xlink:href="../../db/d97/class_box_world.html#a2542cc74ebeba6a9768a443a55186901" target="_top" xlink:title="BoxWorld.createObstacleArray">
<polygon fill="white" stroke="black" points="1046.5,-294.5 1046.5,-313.5 1207.5,-313.5 1207.5,-294.5 1046.5,-294.5"/>
<text text-anchor="middle" x="1127" y="-301.5" font-family="Helvetica,sans-Serif" font-size="10.00">BoxWorld.createObstacleArray</text>
</a>
</g>
</g>
<!-- Node4&#45;&gt;Node5 -->
<g id="edge4" class="edge"><title>Node4&#45;&gt;Node5</title>
<path fill="none" stroke="midnightblue" d="M983.197,-275.589C1008.97,-280.716 1040.89,-287.067 1068.01,-292.463"/>
<polygon fill="midnightblue" stroke="midnightblue" points="1067.66,-295.961 1078.15,-294.48 1069.02,-289.096 1067.66,-295.961"/>
</g>
<!-- Node7 -->
<g id="node7" class="node"><title>Node7</title>
<g id="a_node7"><a xlink:href="../../db/d97/class_box_world.html#aa7e2049d7be23e15fd2ec7fa2922ed79" target="_top" xlink:title="BoxWorld.handleKeyInput">
<polygon fill="white" stroke="black" points="403,-104.5 403,-123.5 539,-123.5 539,-104.5 403,-104.5"/>
<text text-anchor="middle" x="471" y="-111.5" font-family="Helvetica,sans-Serif" font-size="10.00">BoxWorld.handleKeyInput</text>
</a>
</g>
</g>
<!-- Node6&#45;&gt;Node7 -->
<g id="edge6" class="edge"><title>Node6&#45;&gt;Node7</title>
<path fill="none" stroke="midnightblue" d="M320.657,-180.375C350.595,-167.069 404.794,-142.98 439.012,-127.772"/>
<polygon fill="midnightblue" stroke="midnightblue" points="440.802,-130.807 448.519,-123.547 437.959,-124.41 440.802,-130.807"/>
</g>
<!-- Node30 -->
<g id="node30" class="node"><title>Node30</title>
<g id="a_node30"><a xlink:href="../../db/d97/class_box_world.html#a2d44485a181577acb4d79b6b81f26fff" target="_top" xlink:title="BoxWorld.handleKeyRelease">
<polygon fill="white" stroke="black" points="396.5,-180.5 396.5,-199.5 545.5,-199.5 545.5,-180.5 396.5,-180.5"/>
<text text-anchor="middle" x="471" y="-187.5" font-family="Helvetica,sans-Serif" font-size="10.00">BoxWorld.handleKeyRelease</text>
</a>
</g>
</g>
<!-- Node6&#45;&gt;Node30 -->
<g id="edge40" class="edge"><title>Node6&#45;&gt;Node30</title>
<path fill="none" stroke="midnightblue" d="M360.252,-190C368.655,-190 377.399,-190 386.121,-190"/>
<polygon fill="midnightblue" stroke="midnightblue" points="386.327,-193.5 396.327,-190 386.327,-186.5 386.327,-193.5"/>
</g>
<!-- Node8 -->
<g id="node8" class="node"><title>Node8</title>
<g id="a_node8"><a xlink:href="../../db/d97/class_box_world.html#adc4c9d78ffde3d052c4c92047eb98e55" target="_top" xlink:title="BoxWorld.allowMovement">
<polygon fill="white" stroke="black" points="1444.5,-104.5 1444.5,-123.5 1581.5,-123.5 1581.5,-104.5 1444.5,-104.5"/>
<text text-anchor="middle" x="1513" y="-111.5" font-family="Helvetica,sans-Serif" font-size="10.00">BoxWorld.allowMovement</text>
</a>
</g>
</g>
<!-- Node7&#45;&gt;Node8 -->
<g id="edge7" class="edge"><title>Node7&#45;&gt;Node8</title>
<path fill="none" stroke="midnightblue" d="M494.016,-104.375C542.862,-83.924 664.415,-38 771,-38 771,-38 771,-38 1128,-38 1252.73,-38 1288.29,-21.9838 1408,-57 1412.19,-58.2257 1456.5,-82.8566 1485.91,-99.3352"/>
<polygon fill="midnightblue" stroke="midnightblue" points="1484.43,-102.52 1494.87,-104.359 1487.86,-96.4145 1484.43,-102.52"/>
</g>
<!-- Node13 -->
<g id="node13" class="node"><title>Node13</title>
<g id="a_node13"><a xlink:href="../../db/d97/class_box_world.html#a04c6bf977c4292a5433649fb3745fd6b" target="_top" xlink:title="BoxWorld.reset">
<polygon fill="white" stroke="black" points="1083,-104.5 1083,-123.5 1171,-123.5 1171,-104.5 1083,-104.5"/>
<text text-anchor="middle" x="1127" y="-111.5" font-family="Helvetica,sans-Serif" font-size="10.00">BoxWorld.reset</text>
</a>
</g>
</g>
<!-- Node7&#45;&gt;Node13 -->
<g id="edge12" class="edge"><title>Node7&#45;&gt;Node13</title>
<path fill="none" stroke="midnightblue" d="M539.221,-114C669.58,-114 954.305,-114 1072.7,-114"/>
<polygon fill="midnightblue" stroke="midnightblue" points="1072.96,-117.5 1082.96,-114 1072.96,-110.5 1072.96,-117.5"/>
</g>
<!-- Node14 -->
<g id="node14" class="node"><title>Node14</title>
<g id="a_node14"><a xlink:href="../../da/de2/class_sticky_box.html#aa1bb8f78f676b01c688d75d386758444" target="_top" xlink:title="StickyBox.setDirection">
<polygon fill="white" stroke="black" points="1264,-66.5 1264,-85.5 1388,-85.5 1388,-66.5 1264,-66.5"/>
<text text-anchor="middle" x="1326" y="-73.5" font-family="Helvetica,sans-Serif" font-size="10.00">StickyBox.setDirection</text>
</a>
</g>
</g>
<!-- Node7&#45;&gt;Node14 -->
<g id="edge15" class="edge"><title>Node7&#45;&gt;Node14</title>
<path fill="none" stroke="midnightblue" d="M518.124,-104.46C576.66,-93.2037 680.866,-76 771,-76 771,-76 771,-76 935,-76 1046.29,-76 1175.45,-76 1253.65,-76"/>
<polygon fill="midnightblue" stroke="midnightblue" points="1253.87,-79.5001 1263.87,-76 1253.87,-72.5001 1253.87,-79.5001"/>
</g>
<!-- Node16 -->
<g id="node16" class="node"><title>Node16</title>
<g id="a_node16"><a xlink:href="../../db/d97/class_box_world.html#aad670712776afe126e51791097027e05" target="_top" xlink:title="BoxWorld.winLevel">
<polygon fill="white" stroke="black" points="582.5,-180.5 582.5,-199.5 685.5,-199.5 685.5,-180.5 582.5,-180.5"/>
<text text-anchor="middle" x="634" y="-187.5" font-family="Helvetica,sans-Serif" font-size="10.00">BoxWorld.winLevel</text>
</a>
</g>
</g>
<!-- Node7&#45;&gt;Node16 -->
<g id="edge16" class="edge"><title>Node7&#45;&gt;Node16</title>
<path fill="none" stroke="midnightblue" d="M492.391,-123.625C520.456,-136.874 571.17,-160.813 603.408,-176.031"/>
<polygon fill="midnightblue" stroke="midnightblue" points="602.238,-179.349 612.775,-180.453 605.226,-173.019 602.238,-179.349"/>
</g>
<!-- Node9 -->
<g id="node9" class="node"><title>Node9</title>
<g id="a_node9"><a xlink:href="../../da/de2/class_sticky_box.html#a6ba3f89630df9d81df5644a3e5f4e387" target="_top" xlink:title="StickyBox.getXDirection">
<polygon fill="white" stroke="black" points="1618.5,-142.5 1618.5,-161.5 1749.5,-161.5 1749.5,-142.5 1618.5,-142.5"/>
<text text-anchor="middle" x="1684" y="-149.5" font-family="Helvetica,sans-Serif" font-size="10.00">StickyBox.getXDirection</text>
</a>
</g>
</g>
<!-- Node8&#45;&gt;Node9 -->
<g id="edge8" class="edge"><title>Node8&#45;&gt;Node9</title>
<path fill="none" stroke="midnightblue" d="M1556.65,-123.589C1579.15,-128.649 1606.95,-134.9 1630.74,-140.249"/>
<polygon fill="midnightblue" stroke="midnightblue" points="1630.14,-143.701 1640.66,-142.48 1631.67,-136.871 1630.14,-143.701"/>
</g>
<!-- Node10 -->
<g id="node10" class="node"><title>Node10</title>
<g id="a_node10"><a xlink:href="../../da/de2/class_sticky_box.html#ab0bd7cafb7f243e3951558ddb8728b96" target="_top" xlink:title="StickyBox.getXPrev">
<polygon fill="white" stroke="black" points="1629.5,-66.5 1629.5,-85.5 1738.5,-85.5 1738.5,-66.5 1629.5,-66.5"/>
<text text-anchor="middle" x="1684" y="-73.5" font-family="Helvetica,sans-Serif" font-size="10.00">StickyBox.getXPrev</text>
</a>
</g>
</g>
<!-- Node8&#45;&gt;Node10 -->
<g id="edge9" class="edge"><title>Node8&#45;&gt;Node10</title>
<path fill="none" stroke="midnightblue" d="M1556.65,-104.411C1579.15,-99.3513 1606.95,-93.1004 1630.74,-87.7512"/>
<polygon fill="midnightblue" stroke="midnightblue" points="1631.67,-91.1286 1640.66,-85.5201 1630.14,-84.2991 1631.67,-91.1286"/>
</g>
<!-- Node11 -->
<g id="node11" class="node"><title>Node11</title>
<g id="a_node11"><a xlink:href="../../da/de2/class_sticky_box.html#a69e5ccf2a79159c03dea2e048df13318" target="_top" xlink:title="StickyBox.getYDirection">
<polygon fill="white" stroke="black" points="1619,-199.5 1619,-218.5 1749,-218.5 1749,-199.5 1619,-199.5"/>
<text text-anchor="middle" x="1684" y="-206.5" font-family="Helvetica,sans-Serif" font-size="10.00">StickyBox.getYDirection</text>
</a>
</g>
</g>
<!-- Node8&#45;&gt;Node11 -->
<g id="edge10" class="edge"><title>Node8&#45;&gt;Node11</title>
<path fill="none" stroke="midnightblue" d="M1531.13,-123.632C1560.82,-140.318 1621.98,-174.698 1656.95,-194.356"/>
<polygon fill="midnightblue" stroke="midnightblue" points="1655.64,-197.635 1666.07,-199.484 1659.07,-191.533 1655.64,-197.635"/>
</g>
<!-- Node12 -->
<g id="node12" class="node"><title>Node12</title>
<g id="a_node12"><a xlink:href="../../da/de2/class_sticky_box.html#a4c6abed944faed9d9b226079e99cfc24" target="_top" xlink:title="StickyBox.getYPrev">
<polygon fill="white" stroke="black" points="1630,-104.5 1630,-123.5 1738,-123.5 1738,-104.5 1630,-104.5"/>
<text text-anchor="middle" x="1684" y="-111.5" font-family="Helvetica,sans-Serif" font-size="10.00">StickyBox.getYPrev</text>
</a>
</g>
</g>
<!-- Node8&#45;&gt;Node12 -->
<g id="edge11" class="edge"><title>Node8&#45;&gt;Node12</title>
<path fill="none" stroke="midnightblue" d="M1581.76,-114C1594.25,-114 1607.24,-114 1619.59,-114"/>
<polygon fill="midnightblue" stroke="midnightblue" points="1619.78,-117.5 1629.78,-114 1619.78,-110.5 1619.78,-117.5"/>
</g>
<!-- Node13&#45;&gt;Node14 -->
<g id="edge13" class="edge"><title>Node13&#45;&gt;Node14</title>
<path fill="none" stroke="midnightblue" d="M1171.23,-105.661C1198.91,-100.322 1235.2,-93.3223 1265.57,-87.4637"/>
<polygon fill="midnightblue" stroke="midnightblue" points="1266.47,-90.8554 1275.62,-85.5246 1265.14,-83.9821 1266.47,-90.8554"/>
</g>
<!-- Node15 -->
<g id="node15" class="node"><title>Node15</title>
<g id="a_node15"><a xlink:href="../../da/de2/class_sticky_box.html#a5d95d2ed2e13f0d87a44311db77f9e36" target="_top" xlink:title="StickyBox.setPreviousDirection">
<polygon fill="white" stroke="black" points="1244,-104.5 1244,-123.5 1408,-123.5 1408,-104.5 1244,-104.5"/>
<text text-anchor="middle" x="1326" y="-111.5" font-family="Helvetica,sans-Serif" font-size="10.00">StickyBox.setPreviousDirection</text>
</a>
</g>
</g>
<!-- Node13&#45;&gt;Node15 -->
<g id="edge14" class="edge"><title>Node13&#45;&gt;Node15</title>
<path fill="none" stroke="midnightblue" d="M1171.23,-114C1189.61,-114 1211.79,-114 1233.52,-114"/>
<polygon fill="midnightblue" stroke="midnightblue" points="1233.78,-117.5 1243.78,-114 1233.78,-110.5 1233.78,-117.5"/>
</g>
<!-- Node17 -->
<g id="node17" class="node"><title>Node17</title>
<g id="a_node17"><a xlink:href="../../d6/d4f/class_item_box_world.html#aa559fc2680327b41fb376e2eda8e82e3" target="_top" xlink:title="ItemBoxWorld.init">
<polygon fill="white" stroke="black" points="722.5,-218.5 722.5,-237.5 821.5,-237.5 821.5,-218.5 722.5,-218.5"/>
<text text-anchor="middle" x="772" y="-225.5" font-family="Helvetica,sans-Serif" font-size="10.00">ItemBoxWorld.init</text>
</a>
</g>
</g>
<!-- Node16&#45;&gt;Node17 -->
<g id="edge17" class="edge"><title>Node16&#45;&gt;Node17</title>
<path fill="none" stroke="midnightblue" d="M669.319,-199.589C686.794,-204.472 708.241,-210.464 726.925,-215.685"/>
<polygon fill="midnightblue" stroke="midnightblue" points="726.119,-219.094 736.692,-218.414 728.003,-212.352 726.119,-219.094"/>
</g>
<!-- Node17&#45;&gt;Node4 -->
<g id="edge21" class="edge"><title>Node17&#45;&gt;Node4</title>
<path fill="none" stroke="midnightblue" d="M813.375,-237.589C834.488,-242.604 860.529,-248.788 882.917,-254.105"/>
<polygon fill="midnightblue" stroke="midnightblue" points="882.377,-257.574 892.916,-256.48 883.995,-250.764 882.377,-257.574"/>
</g>
<!-- Node17&#45;&gt;Node6 -->
<g id="edge22" class="edge"><title>Node17&#45;&gt;Node6</title>
<path fill="none" stroke="midnightblue" d="M722.266,-227.747C650.546,-226.874 512.465,-223.283 396,-209 381.192,-207.184 365.255,-204.41 350.663,-201.539"/>
<polygon fill="midnightblue" stroke="midnightblue" points="351.302,-198.097 340.807,-199.546 349.915,-204.958 351.302,-198.097"/>
</g>
<!-- Node18 -->
<g id="node18" class="node"><title>Node18</title>
<g id="a_node18"><a xlink:href="../../d6/d4f/class_item_box_world.html#a7ead15fd9fd8095f928640161d48fdf8" target="_top" xlink:title="ItemBoxWorld.addAllItems">
<polygon fill="white" stroke="black" points="863.5,-218.5 863.5,-237.5 1004.5,-237.5 1004.5,-218.5 863.5,-218.5"/>
<text text-anchor="middle" x="934" y="-225.5" font-family="Helvetica,sans-Serif" font-size="10.00">ItemBoxWorld.addAllItems</text>
</a>
</g>
</g>
<!-- Node17&#45;&gt;Node18 -->
<g id="edge18" class="edge"><title>Node17&#45;&gt;Node18</title>
<path fill="none" stroke="midnightblue" d="M821.875,-228C831.764,-228 842.405,-228 853.045,-228"/>
<polygon fill="midnightblue" stroke="midnightblue" points="853.222,-231.5 863.222,-228 853.222,-224.5 853.222,-231.5"/>
</g>
<!-- Node17&#45;&gt;Node21 -->
<g id="edge23" class="edge"><title>Node17&#45;&gt;Node21</title>
<path fill="none" stroke="midnightblue" d="M793.264,-218.375C821.156,-205.126 871.554,-181.187 903.592,-165.969"/>
<polygon fill="midnightblue" stroke="midnightblue" points="905.369,-168.999 912.9,-161.547 902.366,-162.676 905.369,-168.999"/>
</g>
<!-- Node19 -->
<g id="node19" class="node"><title>Node19</title>
<g id="a_node19"><a xlink:href="../../d6/d4f/class_item_box_world.html#af1bcde0672796e926560684004ed8e81" target="_top" xlink:title="ItemBoxWorld.addSingleItem">
<polygon fill="white" stroke="black" points="1050,-256.5 1050,-275.5 1204,-275.5 1204,-256.5 1050,-256.5"/>
<text text-anchor="middle" x="1127" y="-263.5" font-family="Helvetica,sans-Serif" font-size="10.00">ItemBoxWorld.addSingleItem</text>
</a>
</g>
</g>
<!-- Node18&#45;&gt;Node19 -->
<g id="edge19" class="edge"><title>Node18&#45;&gt;Node19</title>
<path fill="none" stroke="midnightblue" d="M983.197,-237.589C1008.97,-242.716 1040.89,-249.067 1068.01,-254.463"/>
<polygon fill="midnightblue" stroke="midnightblue" points="1067.66,-257.961 1078.15,-256.48 1069.02,-251.096 1067.66,-257.961"/>
</g>
<!-- Node20 -->
<g id="node20" class="node"><title>Node20</title>
<g id="a_node20"><a xlink:href="../../d6/d4f/class_item_box_world.html#a1890e6c53a4a73e44e9528009fde508d" target="_top" xlink:title="ItemBoxWorld.itemExists">
<polygon fill="white" stroke="black" points="1060,-218.5 1060,-237.5 1194,-237.5 1194,-218.5 1060,-218.5"/>
<text text-anchor="middle" x="1127" y="-225.5" font-family="Helvetica,sans-Serif" font-size="10.00">ItemBoxWorld.itemExists</text>
</a>
</g>
</g>
<!-- Node18&#45;&gt;Node20 -->
<g id="edge20" class="edge"><title>Node18&#45;&gt;Node20</title>
<path fill="none" stroke="midnightblue" d="M1004.77,-228C1019.4,-228 1034.9,-228 1049.76,-228"/>
<polygon fill="midnightblue" stroke="midnightblue" points="1049.92,-231.5 1059.92,-228 1049.92,-224.5 1049.92,-231.5"/>
</g>
<!-- Node22 -->
<g id="node22" class="node"><title>Node22</title>
<g id="a_node22"><a xlink:href="../../db/d97/class_box_world.html#a6794c083c2a0263c2f585f4ae4b7e39c" target="_top" xlink:title="BoxWorld.updateSprites">
<polygon fill="white" stroke="black" points="1061.5,-142.5 1061.5,-161.5 1192.5,-161.5 1192.5,-142.5 1061.5,-142.5"/>
<text text-anchor="middle" x="1127" y="-149.5" font-family="Helvetica,sans-Serif" font-size="10.00">BoxWorld.updateSprites</text>
</a>
</g>
</g>
<!-- Node21&#45;&gt;Node22 -->
<g id="edge24" class="edge"><title>Node21&#45;&gt;Node22</title>
<path fill="none" stroke="midnightblue" d="M977.389,-152C999.026,-152 1026,-152 1051,-152"/>
<polygon fill="midnightblue" stroke="midnightblue" points="1051.2,-155.5 1061.2,-152 1051.2,-148.5 1051.2,-155.5"/>
</g>
<!-- Node22&#45;&gt;Node9 -->
<g id="edge34" class="edge"><title>Node22&#45;&gt;Node9</title>
<path fill="none" stroke="midnightblue" d="M1192.75,-152C1296.21,-152 1498.28,-152 1607.92,-152"/>
<polygon fill="midnightblue" stroke="midnightblue" points="1608.23,-155.5 1618.23,-152 1608.23,-148.5 1608.23,-155.5"/>
</g>
<!-- Node22&#45;&gt;Node11 -->
<g id="edge35" class="edge"><title>Node22&#45;&gt;Node11</title>
<path fill="none" stroke="midnightblue" d="M1146.59,-161.581C1164.28,-171.47 1190.7,-188.34 1208,-209 1231.99,-237.657 1212.42,-265.013 1244,-285 1370.94,-365.331 1439.52,-332.617 1582,-285 1616.78,-273.375 1649.2,-244.538 1667.51,-225.916"/>
<polygon fill="midnightblue" stroke="midnightblue" points="1670.08,-228.289 1674.46,-218.641 1665.02,-223.454 1670.08,-228.289"/>
</g>
<!-- Node22&#45;&gt;Node14 -->
<g id="edge37" class="edge"><title>Node22&#45;&gt;Node14</title>
<path fill="none" stroke="midnightblue" d="M1186.35,-142.369C1193.9,-139.92 1201.32,-136.849 1208,-133 1228.16,-121.384 1223.83,-106.588 1244,-95 1247.91,-92.7539 1252.07,-90.7731 1256.36,-89.0262"/>
<polygon fill="midnightblue" stroke="midnightblue" points="1257.71,-92.2596 1265.92,-85.5636 1255.33,-85.6779 1257.71,-92.2596"/>
</g>
<!-- Node22&#45;&gt;Node15 -->
<g id="edge38" class="edge"><title>Node22&#45;&gt;Node15</title>
<path fill="none" stroke="midnightblue" d="M1177.46,-142.46C1204.15,-137.31 1237.3,-130.916 1265.42,-125.494"/>
<polygon fill="midnightblue" stroke="midnightblue" points="1266.37,-128.875 1275.52,-123.544 1265.04,-122.001 1266.37,-128.875"/>
</g>
<!-- Node23 -->
<g id="node23" class="node"><title>Node23</title>
<g id="a_node23"><a xlink:href="../../db/d97/class_box_world.html#a4079bed8937c9f621decfbe1309e31e2" target="_top" xlink:title="BoxWorld.checkAllCollisions">
<polygon fill="white" stroke="black" points="1253,-256.5 1253,-275.5 1399,-275.5 1399,-256.5 1253,-256.5"/>
<text text-anchor="middle" x="1326" y="-263.5" font-family="Helvetica,sans-Serif" font-size="10.00">BoxWorld.checkAllCollisions</text>
</a>
</g>
</g>
<!-- Node22&#45;&gt;Node23 -->
<g id="edge25" class="edge"><title>Node22&#45;&gt;Node23</title>
<path fill="none" stroke="midnightblue" d="M1181.83,-161.585C1191.25,-165.016 1200.44,-169.674 1208,-176 1235.14,-198.697 1216.18,-225.141 1244,-247 1246.29,-248.799 1248.72,-250.432 1251.26,-251.915"/>
<polygon fill="midnightblue" stroke="midnightblue" points="1249.72,-255.06 1260.23,-256.397 1252.85,-248.798 1249.72,-255.06"/>
</g>
<!-- Node28 -->
<g id="node28" class="node"><title>Node28</title>
<g id="a_node28"><a xlink:href="../../da/de2/class_sticky_box.html#a185ee469367b376e6c5969a03d089d57" target="_top" xlink:title="StickyBox.move">
<polygon fill="white" stroke="black" points="1279.5,-218.5 1279.5,-237.5 1372.5,-237.5 1372.5,-218.5 1279.5,-218.5"/>
<text text-anchor="middle" x="1326" y="-225.5" font-family="Helvetica,sans-Serif" font-size="10.00">StickyBox.move</text>
</a>
</g>
</g>
<!-- Node22&#45;&gt;Node28 -->
<g id="edge36" class="edge"><title>Node22&#45;&gt;Node28</title>
<path fill="none" stroke="midnightblue" d="M1172.64,-161.544C1184.57,-165.11 1197.16,-169.839 1208,-176 1226.87,-186.723 1224.81,-198.858 1244,-209 1251.89,-213.168 1260.68,-216.431 1269.49,-218.983"/>
<polygon fill="midnightblue" stroke="midnightblue" points="1268.83,-222.428 1279.39,-221.572 1270.6,-215.655 1268.83,-222.428"/>
</g>
<!-- Node29 -->
<g id="node29" class="node"><title>Node29</title>
<g id="a_node29"><a xlink:href="../../da/de2/class_sticky_box.html#a59337f0aa3c7379a2cb9c76bdc621daf" target="_top" xlink:title="StickyBox.setStuck">
<polygon fill="white" stroke="black" points="1272,-180.5 1272,-199.5 1380,-199.5 1380,-180.5 1272,-180.5"/>
<text text-anchor="middle" x="1326" y="-187.5" font-family="Helvetica,sans-Serif" font-size="10.00">StickyBox.setStuck</text>
</a>
</g>
</g>
<!-- Node22&#45;&gt;Node29 -->
<g id="edge39" class="edge"><title>Node22&#45;&gt;Node29</title>
<path fill="none" stroke="midnightblue" d="M1177.46,-161.54C1204.15,-166.69 1237.3,-173.084 1265.42,-178.506"/>
<polygon fill="midnightblue" stroke="midnightblue" points="1265.04,-181.999 1275.52,-180.456 1266.37,-175.125 1265.04,-181.999"/>
</g>
<!-- Node23&#45;&gt;Node16 -->
<g id="edge33" class="edge"><title>Node23&#45;&gt;Node16</title>
<path fill="none" stroke="midnightblue" d="M1265.92,-256.436C1258.28,-253.977 1250.76,-250.885 1244,-247 1223.83,-235.412 1229.22,-218.545 1208,-209 1118.08,-168.542 824.111,-179.329 695.811,-186.272"/>
<polygon fill="midnightblue" stroke="midnightblue" points="695.551,-182.781 685.759,-186.827 695.937,-189.77 695.551,-182.781"/>
</g>
<!-- Node24 -->
<g id="node24" class="node"><title>Node24</title>
<g id="a_node24"><a xlink:href="../../db/d97/class_box_world.html#a55add11037cd6dc48556f2f42a9e11be" target="_top" xlink:title="BoxWorld.checkCollide">
<polygon fill="white" stroke="black" points="1452,-199.5 1452,-218.5 1574,-218.5 1574,-199.5 1452,-199.5"/>
<text text-anchor="middle" x="1513" y="-206.5" font-family="Helvetica,sans-Serif" font-size="10.00">BoxWorld.checkCollide</text>
</a>
</g>
</g>
<!-- Node23&#45;&gt;Node24 -->
<g id="edge26" class="edge"><title>Node23&#45;&gt;Node24</title>
<path fill="none" stroke="midnightblue" d="M1371.82,-256.499C1383.66,-253.713 1396.37,-250.474 1408,-247 1432.06,-239.811 1458.64,-230.065 1478.91,-222.243"/>
<polygon fill="midnightblue" stroke="midnightblue" points="1480.27,-225.47 1488.31,-218.577 1477.73,-218.948 1480.27,-225.47"/>
</g>
<!-- Node25 -->
<g id="node25" class="node"><title>Node25</title>
<g id="a_node25"><a xlink:href="../../db/d97/class_box_world.html#a72bacb2a6757900d8835249929fcc838" target="_top" xlink:title="BoxWorld.loseGame">
<polygon fill="white" stroke="black" points="1457,-47.5 1457,-66.5 1569,-66.5 1569,-47.5 1457,-47.5"/>
<text text-anchor="middle" x="1513" y="-54.5" font-family="Helvetica,sans-Serif" font-size="10.00">BoxWorld.loseGame</text>
</a>
</g>
</g>
<!-- Node23&#45;&gt;Node25 -->
<g id="edge29" class="edge"><title>Node23&#45;&gt;Node25</title>
<path fill="none" stroke="midnightblue" d="M1395.11,-256.364C1399.84,-253.856 1404.22,-250.775 1408,-247 1457.14,-197.962 1402.16,-150.398 1444,-95 1451.77,-84.7143 1463.18,-76.8201 1474.44,-70.9625"/>
<polygon fill="midnightblue" stroke="midnightblue" points="1476.26,-73.9727 1483.78,-66.5132 1473.25,-67.6527 1476.26,-73.9727"/>
</g>
<!-- Node27 -->
<g id="node27" class="node"><title>Node27</title>
<g id="a_node27"><a xlink:href="../../db/d97/class_box_world.html#ae6ffad41f7ba6122234157c72afe8f9c" target="_top" xlink:title="BoxWorld.onScreen">
<polygon fill="white" stroke="black" points="1458.5,-256.5 1458.5,-275.5 1567.5,-275.5 1567.5,-256.5 1458.5,-256.5"/>
<text text-anchor="middle" x="1513" y="-263.5" font-family="Helvetica,sans-Serif" font-size="10.00">BoxWorld.onScreen</text>
</a>
</g>
</g>
<!-- Node23&#45;&gt;Node27 -->
<g id="edge32" class="edge"><title>Node23&#45;&gt;Node27</title>
<path fill="none" stroke="midnightblue" d="M1399.06,-266C1415.28,-266 1432.4,-266 1448.26,-266"/>
<polygon fill="midnightblue" stroke="midnightblue" points="1448.48,-269.5 1458.48,-266 1448.48,-262.5 1448.48,-269.5"/>
</g>
<!-- Node24&#45;&gt;Node9 -->
<g id="edge27" class="edge"><title>Node24&#45;&gt;Node9</title>
<path fill="none" stroke="midnightblue" d="M1542.29,-199.459C1570.44,-189.965 1613.82,-175.333 1644.97,-164.826"/>
<polygon fill="midnightblue" stroke="midnightblue" points="1646.26,-168.084 1654.62,-161.572 1644.03,-161.451 1646.26,-168.084"/>
</g>
<!-- Node24&#45;&gt;Node11 -->
<g id="edge28" class="edge"><title>Node24&#45;&gt;Node11</title>
<path fill="none" stroke="midnightblue" d="M1574.06,-209C1585.29,-209 1597.14,-209 1608.74,-209"/>
<polygon fill="midnightblue" stroke="midnightblue" points="1608.84,-212.5 1618.84,-209 1608.84,-205.5 1608.84,-212.5"/>
</g>
<!-- Node26 -->
<g id="node26" class="node"><title>Node26</title>
<g id="a_node26"><a xlink:href="../../d4/d2f/class_lose_screen.html#a34f2cc2c803500316c9b8d854854d758" target="_top" xlink:title="LoseScreen.init">
<polygon fill="white" stroke="black" points="1639,-9.5 1639,-28.5 1729,-28.5 1729,-9.5 1639,-9.5"/>
<text text-anchor="middle" x="1684" y="-16.5" font-family="Helvetica,sans-Serif" font-size="10.00">LoseScreen.init</text>
</a>
</g>
</g>
<!-- Node25&#45;&gt;Node26 -->
<g id="edge30" class="edge"><title>Node25&#45;&gt;Node26</title>
<path fill="none" stroke="midnightblue" d="M1556.65,-47.411C1579.15,-42.3513 1606.95,-36.1004 1630.74,-30.7512"/>
<polygon fill="midnightblue" stroke="midnightblue" points="1631.67,-34.1286 1640.66,-28.5201 1630.14,-27.2991 1631.67,-34.1286"/>
</g>
<!-- Node26&#45;&gt;Node1 -->
<g id="edge31" class="edge"><title>Node26&#45;&gt;Node1</title>
<path fill="none" stroke="midnightblue" d="M1638.92,-15.1322C1571.69,-9.57685 1439.49,-1.42109e-14 1327,-0 297,-0 297,-0 297,-0 184.284,-0 81.2717,-109.988 44.8982,-153.543"/>
<polygon fill="midnightblue" stroke="midnightblue" points="42.1598,-151.363 38.5289,-161.316 47.5742,-155.8 42.1598,-151.363"/>
</g>
</g>
</svg>
        <g id="navigator" transform="translate(0 0)" fill="#404254">
                <rect fill="#f2f5e9" fill-opacity="0.5" stroke="#606060" stroke-width=".5" x="0" y="0" width="60" height="60"/>
                <use id="zoomplus" xlink:href="#zoomPlus" x="17" y="9" onmousedown="handleZoom(evt,'in')"/>
                <use id="zoomminus" xlink:href="#zoomMin" x="42" y="9" onmousedown="handleZoom(evt,'out')"/>
                <use id="reset" xlink:href="#resetDef" x="30" y="36" onmousedown="handleReset()"/>
                <g id="arrowUp" xlink:href="#dirArrow" transform="translate(30 24)" onmousedown="handlePan(0,-1)">
                  <use xlink:href="#rim" fill="#404040">
                        <set attributeName="fill" to="#808080" begin="arrowUp.mouseover" end="arrowUp.mouseout"/>
                  </use>
                  <path fill="none" stroke="white" stroke-width="1.5" d="M0,-3.0v7 M-2.5,-0.5L0,-3.0L2.5,-0.5"/>
                </g>
                <g id="arrowRight" xlink:href="#dirArrow" transform="rotate(90) translate(36 -43)" onmousedown="handlePan(1,0)">
                  <use xlink:href="#rim" fill="#404040">
                        <set attributeName="fill" to="#808080" begin="arrowRight.mouseover" end="arrowRight.mouseout"/>
                  </use>
                  <path fill="none" stroke="white" stroke-width="1.5" d="M0,-3.0v7 M-2.5,-0.5L0,-3.0L2.5,-0.5"/>
                </g>
                <g id="arrowDown" xlink:href="#dirArrow" transform="rotate(180) translate(-30 -48)" onmousedown="handlePan(0,1)">
                  <use xlink:href="#rim" fill="#404040">
                        <set attributeName="fill" to="#808080" begin="arrowDown.mouseover" end="arrowDown.mouseout"/>
                  </use>
                  <path fill="none" stroke="white" stroke-width="1.5" d="M0,-3.0v7 M-2.5,-0.5L0,-3.0L2.5,-0.5"/>
                </g>
                <g id="arrowLeft" xlink:href="#dirArrow" transform="rotate(270) translate(-36 17)" onmousedown="handlePan(-1,0)">
                  <use xlink:href="#rim" fill="#404040">
                        <set attributeName="fill" to="#808080" begin="arrowLeft.mouseover" end="arrowLeft.mouseout"/>
                  </use>
                  <path fill="none" stroke="white" stroke-width="1.5" d="M0,-3.0v7 M-2.5,-0.5L0,-3.0L2.5,-0.5"/>
                </g>
        </g>
        <svg viewBox="0 0 15 15" width="100%" height="30px" preserveAspectRatio="xMaxYMin meet">
         <g id="arrow_out" transform="scale(0.3 0.3)">
          <a xlink:href="class_menu_a3c99ad09e9f2f975c1a0d0597642651a_cgraph_org.svg" target="_base">
           <rect id="button" ry="5" rx="5" y="6" x="6" height="38" width="38"
                fill="#f2f5e9" fill-opacity="0.5" stroke="#606060" stroke-width="1.0"/>
           <path id="arrow"
             d="M 11.500037,31.436501 C 11.940474,20.09759 22.043105,11.32322 32.158766,21.979434 L 37.068811,17.246167 C 37.068811,17.246167 37.088388,32 37.088388,32 L 22.160133,31.978069 C 22.160133,31.978069 26.997745,27.140456 26.997745,27.140456 C 18.528582,18.264221 13.291696,25.230495 11.500037,31.436501 z"
             style="fill:#404040;"/>
          </a>
         </g>
        </svg>
</svg>
