<?xml version="1.0" encoding="UTF-8" standalone="no"?>
<!DOCTYPE svg PUBLIC "-//W3C//DTD SVG 1.1//EN"
 "http://www.w3.org/Graphics/SVG/1.1/DTD/svg11.dtd">
<!-- Generated by graphviz version 2.36.0 (20140111.2315)
 -->
<!-- Title: Menu.init Pages: 1 -->
<!--zoomable 134 -->
<svg id="main" version="1.1" xmlns="http://www.w3.org/2000/svg" xmlns:xlink="http://www.w3.org/1999/xlink" xml:space="preserve" onload="init(evt)">
<style type="text/css"><![CDATA[
.edge:hover path { stroke: red; }
.edge:hover polygon { stroke: red; fill: red; }
]]></style>
<script type="text/javascript"><![CDATA[
var edges = document.getElementsByTagName('g');
if (edges && edges.length) {
  for (var i=0;i<edges.length;i++) {
    if (edges[i].id.substr(0,4)=='edge') {
      edges[i].setAttribute('class','edge');
    }
  }
}
]]></script>
        <defs>
                <circle id="rim" cx="0" cy="0" r="7"/>
                <circle id="rim2" cx="0" cy="0" r="3.5"/>
                <g id="zoomPlus">
                        <use xlink:href="#rim" fill="#404040">
                                <set attributeName="fill" to="#808080" begin="zoomplus.mouseover" end="zoomplus.mouseout"/>
                        </use>
                        <path d="M-4,0h8M0,-4v8" fill="none" stroke="white" stroke-width="1.5" pointer-events="none"/>
                </g>
                <g id="zoomMin">
                        <use xlink:href="#rim" fill="#404040">
                                <set attributeName="fill" to="#808080" begin="zoomminus.mouseover" end="zoomminus.mouseout"/>
                        </use>
                        <path d="M-4,0h8" fill="none" stroke="white" stroke-width="1.5" pointer-events="none"/>
                </g>
                <g id="dirArrow">
                        <path fill="none" stroke="white" stroke-width="1.5" d="M0,-3.0v7 M-2.5,-0.5L0,-3.0L2.5,-0.5"/>
                </g>
               <g id="resetDef">
                       <use xlink:href="#rim2" fill="#404040">
                               <set attributeName="fill" to="#808080" begin="reset.mouseover" end="reset.mouseout"/>
                       </use>
               </g>
        </defs>

<script type="text/javascript">
var viewWidth = 1562;
var viewHeight = 134;
var sectionId = 'dynsection-3';
</script>
<script xlink:href="../../svgpan.js"/>
<svg id="graph" class="graph">
<g id="viewport">
<title>Menu.init</title>
<polygon fill="white" stroke="none" points="-4,4 -4,-129.752 1558,-129.752 1558,4 -4,4"/>
<!-- Node1 -->
<g id="node1" class="node"><title>Node1</title>
<polygon fill="#bfbfbf" stroke="black" points="0,-49.2522 0,-68.2522 60,-68.2522 60,-49.2522 0,-49.2522"/>
<text text-anchor="middle" x="30" y="-56.2522" font-family="Helvetica,sans-Serif" font-size="10.00">Menu.init</text>
</g>
<!-- Node2 -->
<g id="node2" class="node"><title>Node2</title>
<g id="a_node2"><a xlink:href="../../d1/de1/class_end_screen.html#a1264ffb72b3a3032443f9c4087222aef" target="_top" xlink:title="EndScreen.init">
<polygon fill="white" stroke="black" points="98,-106.252 98,-125.252 184,-125.252 184,-106.252 98,-106.252"/>
<text text-anchor="middle" x="141" y="-113.252" font-family="Helvetica,sans-Serif" font-size="10.00">EndScreen.init</text>
</a>
</g>
</g>
<!-- Node1&#45;&gt;Node2 -->
<g id="edge1" class="edge"><title>Node1&#45;&gt;Node2</title>
<path fill="none" stroke="midnightblue" d="M54.8345,-73.6223C66.9644,-80.9481 82.0577,-89.6993 96,-96.7522 102.534,-100.057 109.775,-103.335 116.465,-106.214"/>
<polygon fill="midnightblue" stroke="midnightblue" points="56.5627,-70.5766 46.2045,-68.3497 52.9132,-76.55 56.5627,-70.5766"/>
</g>
<!-- Node5 -->
<g id="node5" class="node"><title>Node5</title>
<g id="a_node5"><a xlink:href="../../d4/d2f/class_lose_screen.html#a34f2cc2c803500316c9b8d854854d758" target="_top" xlink:title="LoseScreen.init">
<polygon fill="white" stroke="black" points="96,-68.2522 96,-87.2522 186,-87.2522 186,-68.2522 96,-68.2522"/>
<text text-anchor="middle" x="141" y="-75.2522" font-family="Helvetica,sans-Serif" font-size="10.00">LoseScreen.init</text>
</a>
</g>
</g>
<!-- Node1&#45;&gt;Node5 -->
<g id="edge4" class="edge"><title>Node1&#45;&gt;Node5</title>
<path fill="none" stroke="midnightblue" d="M70.1063,-65.5689C78.4832,-67.0291 87.3886,-68.5814 95.938,-70.0717"/>
<polygon fill="midnightblue" stroke="midnightblue" points="70.6625,-62.1132 60.21,-63.8439 69.4604,-69.0092 70.6625,-62.1132"/>
</g>
<!-- Node15 -->
<g id="node15" class="node"><title>Node15</title>
<g id="a_node15"><a xlink:href="../../d0/d4b/class_main.html#a7595d13c514a02c35aca322dd91d2063" target="_top" xlink:title="Main.start">
<polygon fill="white" stroke="black" points="108.5,-30.2522 108.5,-49.2522 173.5,-49.2522 173.5,-30.2522 108.5,-30.2522"/>
<text text-anchor="middle" x="141" y="-37.2522" font-family="Helvetica,sans-Serif" font-size="10.00">Main.start</text>
</a>
</g>
</g>
<!-- Node1&#45;&gt;Node15 -->
<g id="edge18" class="edge"><title>Node1&#45;&gt;Node15</title>
<path fill="none" stroke="midnightblue" d="M70.3763,-51.8885C82.8785,-49.7092 96.5337,-47.3289 108.413,-45.2582"/>
<polygon fill="midnightblue" stroke="midnightblue" points="69.4604,-48.4952 60.21,-53.6606 70.6625,-55.3913 69.4604,-48.4952"/>
</g>
<!-- Node3 -->
<g id="node3" class="node"><title>Node3</title>
<g id="a_node3"><a xlink:href="../../d6/d4f/class_item_box_world.html#a2ed12a6b39993faedc05cc682204476d" target="_top" xlink:title="ItemBoxWorld.winLevel">
<polygon fill="white" stroke="black" points="222.5,-106.252 222.5,-125.252 347.5,-125.252 347.5,-106.252 222.5,-106.252"/>
<text text-anchor="middle" x="285" y="-113.252" font-family="Helvetica,sans-Serif" font-size="10.00">ItemBoxWorld.winLevel</text>
</a>
</g>
</g>
<!-- Node2&#45;&gt;Node3 -->
<g id="edge2" class="edge"><title>Node2&#45;&gt;Node3</title>
<path fill="none" stroke="midnightblue" d="M194.34,-115.752C203.502,-115.752 213.111,-115.752 222.495,-115.752"/>
<polygon fill="midnightblue" stroke="midnightblue" points="194.22,-112.252 184.22,-115.752 194.22,-119.252 194.22,-112.252"/>
</g>
<!-- Node4 -->
<g id="node4" class="node"><title>Node4</title>
<g id="a_node4"><a xlink:href="../../d6/d4f/class_item_box_world.html#ae442d947b4dafc944336ee27628d2175" target="_top" xlink:title="ItemBoxWorld.handleKeyInput">
<polygon fill="white" stroke="black" points="384,-106.252 384,-125.252 542,-125.252 542,-106.252 384,-106.252"/>
<text text-anchor="middle" x="463" y="-113.252" font-family="Helvetica,sans-Serif" font-size="10.00">ItemBoxWorld.handleKeyInput</text>
</a>
</g>
</g>
<!-- Node3&#45;&gt;Node4 -->
<g id="edge3" class="edge"><title>Node3&#45;&gt;Node4</title>
<path fill="none" stroke="midnightblue" d="M357.568,-115.752C366.2,-115.752 375.05,-115.752 383.771,-115.752"/>
<polygon fill="midnightblue" stroke="midnightblue" points="357.556,-112.252 347.556,-115.752 357.556,-119.252 357.556,-112.252"/>
</g>
<!-- Node6 -->
<g id="node6" class="node"><title>Node6</title>
<g id="a_node6"><a xlink:href="../../db/d97/class_box_world.html#a72bacb2a6757900d8835249929fcc838" target="_top" xlink:title="BoxWorld.loseGame">
<polygon fill="white" stroke="black" points="229,-68.2522 229,-87.2522 341,-87.2522 341,-68.2522 229,-68.2522"/>
<text text-anchor="middle" x="285" y="-75.2522" font-family="Helvetica,sans-Serif" font-size="10.00">BoxWorld.loseGame</text>
</a>
</g>
</g>
<!-- Node5&#45;&gt;Node6 -->
<g id="edge5" class="edge"><title>Node5&#45;&gt;Node6</title>
<path fill="none" stroke="midnightblue" d="M196.204,-77.7522C206.898,-77.7522 218.13,-77.7522 228.855,-77.7522"/>
<polygon fill="midnightblue" stroke="midnightblue" points="196.151,-74.2523 186.151,-77.7522 196.151,-81.2523 196.151,-74.2523"/>
</g>
<!-- Node7 -->
<g id="node7" class="node"><title>Node7</title>
<g id="a_node7"><a xlink:href="../../db/d97/class_box_world.html#a4079bed8937c9f621decfbe1309e31e2" target="_top" xlink:title="BoxWorld.checkAllCollisions">
<polygon fill="white" stroke="black" points="390,-68.2522 390,-87.2522 536,-87.2522 536,-68.2522 390,-68.2522"/>
<text text-anchor="middle" x="463" y="-75.2522" font-family="Helvetica,sans-Serif" font-size="10.00">BoxWorld.checkAllCollisions</text>
</a>
</g>
</g>
<!-- Node6&#45;&gt;Node7 -->
<g id="edge6" class="edge"><title>Node6&#45;&gt;Node7</title>
<path fill="none" stroke="midnightblue" d="M351.528,-77.7522C364.027,-77.7522 377.175,-77.7522 389.868,-77.7522"/>
<polygon fill="midnightblue" stroke="midnightblue" points="351.205,-74.2523 341.205,-77.7522 351.205,-81.2523 351.205,-74.2523"/>
</g>
<!-- Node8 -->
<g id="node8" class="node"><title>Node8</title>
<g id="a_node8"><a xlink:href="../../db/d97/class_box_world.html#a6794c083c2a0263c2f585f4ae4b7e39c" target="_top" xlink:title="BoxWorld.updateSprites">
<polygon fill="white" stroke="black" points="578.5,-68.2522 578.5,-87.2522 709.5,-87.2522 709.5,-68.2522 578.5,-68.2522"/>
<text text-anchor="middle" x="644" y="-75.2522" font-family="Helvetica,sans-Serif" font-size="10.00">BoxWorld.updateSprites</text>
</a>
</g>
</g>
<!-- Node7&#45;&gt;Node8 -->
<g id="edge7" class="edge"><title>Node7&#45;&gt;Node8</title>
<path fill="none" stroke="midnightblue" d="M546.28,-77.7522C557.035,-77.7522 567.929,-77.7522 578.337,-77.7522"/>
<polygon fill="midnightblue" stroke="midnightblue" points="546.032,-74.2523 536.032,-77.7522 546.032,-81.2523 546.032,-74.2523"/>
</g>
<!-- Node9 -->
<g id="node9" class="node"><title>Node9</title>
<g id="a_node9"><a xlink:href="../../db/d97/class_box_world.html#ad20a4e43406c44f4bbf201d1d1028998" target="_top" xlink:title="BoxWorld.start">
<polygon fill="white" stroke="black" points="746,-68.2522 746,-87.2522 832,-87.2522 832,-68.2522 746,-68.2522"/>
<text text-anchor="middle" x="789" y="-75.2522" font-family="Helvetica,sans-Serif" font-size="10.00">BoxWorld.start</text>
</a>
</g>
</g>
<!-- Node8&#45;&gt;Node9 -->
<g id="edge8" class="edge"><title>Node8&#45;&gt;Node9</title>
<path fill="none" stroke="midnightblue" d="M719.898,-77.7522C728.837,-77.7522 737.705,-77.7522 745.941,-77.7522"/>
<polygon fill="midnightblue" stroke="midnightblue" points="719.806,-74.2523 709.806,-77.7522 719.806,-81.2523 719.806,-74.2523"/>
</g>
<!-- Node10 -->
<g id="node10" class="node"><title>Node10</title>
<g id="a_node10"><a xlink:href="../../d6/d4f/class_item_box_world.html#aa559fc2680327b41fb376e2eda8e82e3" target="_top" xlink:title="ItemBoxWorld.init">
<polygon fill="white" stroke="black" points="868.5,-68.2522 868.5,-87.2522 967.5,-87.2522 967.5,-68.2522 868.5,-68.2522"/>
<text text-anchor="middle" x="918" y="-75.2522" font-family="Helvetica,sans-Serif" font-size="10.00">ItemBoxWorld.init</text>
</a>
</g>
</g>
<!-- Node9&#45;&gt;Node10 -->
<g id="edge9" class="edge"><title>Node9&#45;&gt;Node10</title>
<path fill="none" stroke="midnightblue" d="M842.523,-77.7522C851.059,-77.7522 859.868,-77.7522 868.307,-77.7522"/>
<polygon fill="midnightblue" stroke="midnightblue" points="842.289,-74.2523 832.289,-77.7522 842.289,-81.2523 842.289,-74.2523"/>
</g>
<!-- Node14 -->
<g id="node14" class="node"><title>Node14</title>
<g id="a_node14"><a xlink:href="../../db/d97/class_box_world.html#a55bf92d3f466bfaade0f6d199d8c9bd9" target="_top" xlink:title="BoxWorld.init">
<polygon fill="white" stroke="black" points="1476.5,-49.2522 1476.5,-68.2522 1553.5,-68.2522 1553.5,-49.2522 1476.5,-49.2522"/>
<text text-anchor="middle" x="1515" y="-56.2522" font-family="Helvetica,sans-Serif" font-size="10.00">BoxWorld.init</text>
</a>
</g>
</g>
<!-- Node9&#45;&gt;Node14 -->
<g id="edge17" class="edge"><title>Node9&#45;&gt;Node14</title>
<path fill="none" stroke="midnightblue" d="M834.481,-89.7061C845.383,-92.3255 857.062,-94.8736 868,-96.7522 950.333,-110.893 971.461,-115.752 1055,-115.752 1055,-115.752 1055,-115.752 1213,-115.752 1313.79,-115.752 1430.29,-84.5192 1484.02,-68.2927"/>
<polygon fill="midnightblue" stroke="midnightblue" points="835.279,-86.2981 824.731,-87.2977 833.6,-93.0938 835.279,-86.2981"/>
</g>
<!-- Node11 -->
<g id="node11" class="node"><title>Node11</title>
<g id="a_node11"><a xlink:href="../../db/d97/class_box_world.html#aad670712776afe126e51791097027e05" target="_top" xlink:title="BoxWorld.winLevel">
<polygon fill="white" stroke="black" points="1004.5,-30.2522 1004.5,-49.2522 1107.5,-49.2522 1107.5,-30.2522 1004.5,-30.2522"/>
<text text-anchor="middle" x="1056" y="-37.2522" font-family="Helvetica,sans-Serif" font-size="10.00">BoxWorld.winLevel</text>
</a>
</g>
</g>
<!-- Node10&#45;&gt;Node11 -->
<g id="edge10" class="edge"><title>Node10&#45;&gt;Node11</title>
<path fill="none" stroke="midnightblue" d="M963.087,-65.4339C981.772,-60.2129 1003.22,-54.2206 1020.69,-49.3382"/>
<polygon fill="midnightblue" stroke="midnightblue" points="962.008,-62.1012 953.319,-68.1632 963.892,-68.843 962.008,-62.1012"/>
</g>
<!-- Node11&#45;&gt;Node7 -->
<g id="edge11" class="edge"><title>Node11&#45;&gt;Node7</title>
<path fill="none" stroke="midnightblue" d="M994.262,-39.7394C903.46,-40.27 727.043,-43.4246 578,-58.7522 556.544,-60.9588 533.005,-64.6625 512.917,-68.217"/>
<polygon fill="midnightblue" stroke="midnightblue" points="994.39,-43.2389 1004.37,-39.6892 994.355,-36.239 994.39,-43.2389"/>
</g>
<!-- Node12 -->
<g id="node12" class="node"><title>Node12</title>
<g id="a_node12"><a xlink:href="../../db/d97/class_box_world.html#aa7e2049d7be23e15fd2ec7fa2922ed79" target="_top" xlink:title="BoxWorld.handleKeyInput">
<polygon fill="white" stroke="black" points="1144,-30.2522 1144,-49.2522 1280,-49.2522 1280,-30.2522 1144,-30.2522"/>
<text text-anchor="middle" x="1212" y="-37.2522" font-family="Helvetica,sans-Serif" font-size="10.00">BoxWorld.handleKeyInput</text>
</a>
</g>
</g>
<!-- Node11&#45;&gt;Node12 -->
<g id="edge12" class="edge"><title>Node11&#45;&gt;Node12</title>
<path fill="none" stroke="midnightblue" d="M1118.08,-39.7522C1126.59,-39.7522 1135.38,-39.7522 1144,-39.7522"/>
<polygon fill="midnightblue" stroke="midnightblue" points="1117.85,-36.2523 1107.85,-39.7522 1117.85,-43.2523 1117.85,-36.2523"/>
</g>
<!-- Node13 -->
<g id="node13" class="node"><title>Node13</title>
<g id="a_node13"><a xlink:href="../../db/d97/class_box_world.html#a726e747e023543658d7a345cc6466ccb" target="_top" xlink:title="BoxWorld.createScene">
<polygon fill="white" stroke="black" points="1316,-49.2522 1316,-68.2522 1440,-68.2522 1440,-49.2522 1316,-49.2522"/>
<text text-anchor="middle" x="1378" y="-56.2522" font-family="Helvetica,sans-Serif" font-size="10.00">BoxWorld.createScene</text>
</a>
</g>
</g>
<!-- Node12&#45;&gt;Node13 -->
<g id="edge13" class="edge"><title>Node12&#45;&gt;Node13</title>
<path fill="none" stroke="midnightblue" d="M1290.26,-48.7028C1298.89,-49.7031 1307.6,-50.7115 1315.99,-51.6834"/>
<polygon fill="midnightblue" stroke="midnightblue" points="1290.51,-45.2092 1280.18,-47.5351 1289.71,-52.1627 1290.51,-45.2092"/>
</g>
<!-- Node13&#45;&gt;Node10 -->
<g id="edge14" class="edge"><title>Node13&#45;&gt;Node10</title>
<path fill="none" stroke="midnightblue" d="M1305.92,-61.701C1211.9,-65.6014 1048.66,-72.3735 967.58,-75.7369"/>
<polygon fill="midnightblue" stroke="midnightblue" points="1306.07,-65.198 1315.91,-61.2864 1305.78,-58.204 1306.07,-65.198"/>
</g>
<!-- Node13&#45;&gt;Node14 -->
<g id="edge15" class="edge"><title>Node13&#45;&gt;Node14</title>
<path fill="none" stroke="midnightblue" d="M1450.28,-58.7522C1459.23,-58.7522 1468.08,-58.7522 1476.22,-58.7522"/>
<polygon fill="midnightblue" stroke="midnightblue" points="1450.18,-55.2523 1440.18,-58.7522 1450.18,-62.2523 1450.18,-55.2523"/>
</g>
<!-- Node14&#45;&gt;Node1 -->
<g id="edge16" class="edge"><title>Node14&#45;&gt;Node1</title>
<path fill="none" stroke="midnightblue" d="M1474.3,-46.3184C1417.15,-29.5473 1308.08,-1.75222 1213,-1.75222 284,-1.75222 284,-1.75222 284,-1.75222 200.019,-1.75222 175.852,5.25665 96,-20.7522 76.3622,-27.1485 56.205,-40.1243 43.6499,-49.1216"/>
<polygon fill="midnightblue" stroke="midnightblue" points="1473.44,-49.7131 1484.02,-49.2117 1475.44,-43.0041 1473.44,-49.7131"/>
</g>
</g>
</svg>
        <g id="navigator" transform="translate(0 0)" fill="#404254">
                <rect fill="#f2f5e9" fill-opacity="0.5" stroke="#606060" stroke-width=".5" x="0" y="0" width="60" height="60"/>
                <use id="zoomplus" xlink:href="#zoomPlus" x="17" y="9" onmousedown="handleZoom(evt,'in')"/>
                <use id="zoomminus" xlink:href="#zoomMin" x="42" y="9" onmousedown="handleZoom(evt,'out')"/>
                <use id="reset" xlink:href="#resetDef" x="30" y="36" onmousedown="handleReset()"/>
                <g id="arrowUp" xlink:href="#dirArrow" transform="translate(30 24)" onmousedown="handlePan(0,-1)">
                  <use xlink:href="#rim" fill="#404040">
                        <set attributeName="fill" to="#808080" begin="arrowUp.mouseover" end="arrowUp.mouseout"/>
                  </use>
                  <path fill="none" stroke="white" stroke-width="1.5" d="M0,-3.0v7 M-2.5,-0.5L0,-3.0L2.5,-0.5"/>
                </g>
                <g id="arrowRight" xlink:href="#dirArrow" transform="rotate(90) translate(36 -43)" onmousedown="handlePan(1,0)">
                  <use xlink:href="#rim" fill="#404040">
                        <set attributeName="fill" to="#808080" begin="arrowRight.mouseover" end="arrowRight.mouseout"/>
                  </use>
                  <path fill="none" stroke="white" stroke-width="1.5" d="M0,-3.0v7 M-2.5,-0.5L0,-3.0L2.5,-0.5"/>
                </g>
                <g id="arrowDown" xlink:href="#dirArrow" transform="rotate(180) translate(-30 -48)" onmousedown="handlePan(0,1)">
                  <use xlink:href="#rim" fill="#404040">
                        <set attributeName="fill" to="#808080" begin="arrowDown.mouseover" end="arrowDown.mouseout"/>
                  </use>
                  <path fill="none" stroke="white" stroke-width="1.5" d="M0,-3.0v7 M-2.5,-0.5L0,-3.0L2.5,-0.5"/>
                </g>
                <g id="arrowLeft" xlink:href="#dirArrow" transform="rotate(270) translate(-36 17)" onmousedown="handlePan(-1,0)">
                  <use xlink:href="#rim" fill="#404040">
                        <set attributeName="fill" to="#808080" begin="arrowLeft.mouseover" end="arrowLeft.mouseout"/>
                  </use>
                  <path fill="none" stroke="white" stroke-width="1.5" d="M0,-3.0v7 M-2.5,-0.5L0,-3.0L2.5,-0.5"/>
                </g>
        </g>
        <svg viewBox="0 0 15 15" width="100%" height="30px" preserveAspectRatio="xMaxYMin meet">
         <g id="arrow_out" transform="scale(0.3 0.3)">
          <a xlink:href="class_menu_a3c99ad09e9f2f975c1a0d0597642651a_icgraph_org.svg" target="_base">
           <rect id="button" ry="5" rx="5" y="6" x="6" height="38" width="38"
                fill="#f2f5e9" fill-opacity="0.5" stroke="#606060" stroke-width="1.0"/>
           <path id="arrow"
             d="M 11.500037,31.436501 C 11.940474,20.09759 22.043105,11.32322 32.158766,21.979434 L 37.068811,17.246167 C 37.068811,17.246167 37.088388,32 37.088388,32 L 22.160133,31.978069 C 22.160133,31.978069 26.997745,27.140456 26.997745,27.140456 C 18.528582,18.264221 13.291696,25.230495 11.500037,31.436501 z"
             style="fill:#404040;"/>
          </a>
         </g>
        </svg>
</svg>
