<?xml version="1.0" encoding="UTF-8" standalone="no"?>
<!DOCTYPE svg PUBLIC "-//W3C//DTD SVG 1.1//EN"
 "http://www.w3.org/Graphics/SVG/1.1/DTD/svg11.dtd">
<!-- Generated by graphviz version 2.36.0 (20140111.2315)
 -->
<!-- Title: Menu.addIntroText Pages: 1 -->
<svg width="1702pt" height="134pt"
 viewBox="0.00 0.00 1702.00 133.75" xmlns="http://www.w3.org/2000/svg" xmlns:xlink="http://www.w3.org/1999/xlink">
<g id="graph0" class="graph" transform="scale(1 1) rotate(0) translate(4 129.752)">
<title>Menu.addIntroText</title>
<polygon fill="white" stroke="none" points="-4,4 -4,-129.752 1698,-129.752 1698,4 -4,4"/>
<!-- Node1 -->
<g id="node1" class="node"><title>Node1</title>
<polygon fill="#bfbfbf" stroke="black" points="0,-49.2522 0,-68.2522 104,-68.2522 104,-49.2522 0,-49.2522"/>
<text text-anchor="middle" x="52" y="-56.2522" font-family="Helvetica,sans-Serif" font-size="10.00">Menu.addIntroText</text>
</g>
<!-- Node2 -->
<g id="node2" class="node"><title>Node2</title>
<g id="a_node2"><a xlink:href="../../d2/db8/class_menu.html#a3c99ad09e9f2f975c1a0d0597642651a" target="_top" xlink:title="Menu.init">
<polygon fill="white" stroke="black" points="140,-49.2522 140,-68.2522 200,-68.2522 200,-49.2522 140,-49.2522"/>
<text text-anchor="middle" x="170" y="-56.2522" font-family="Helvetica,sans-Serif" font-size="10.00">Menu.init</text>
</a>
</g>
</g>
<!-- Node1&#45;&gt;Node2 -->
<g id="edge1" class="edge"><title>Node1&#45;&gt;Node2</title>
<path fill="none" stroke="midnightblue" d="M114.32,-58.7522C123.27,-58.7522 132.113,-58.7522 139.995,-58.7522"/>
<polygon fill="midnightblue" stroke="midnightblue" points="114.217,-55.2523 104.217,-58.7522 114.217,-62.2523 114.217,-55.2523"/>
</g>
<!-- Node3 -->
<g id="node3" class="node"><title>Node3</title>
<g id="a_node3"><a xlink:href="../../d1/de1/class_end_screen.html#a1264ffb72b3a3032443f9c4087222aef" target="_top" xlink:title="EndScreen.init">
<polygon fill="white" stroke="black" points="238,-106.252 238,-125.252 324,-125.252 324,-106.252 238,-106.252"/>
<text text-anchor="middle" x="281" y="-113.252" font-family="Helvetica,sans-Serif" font-size="10.00">EndScreen.init</text>
</a>
</g>
</g>
<!-- Node2&#45;&gt;Node3 -->
<g id="edge2" class="edge"><title>Node2&#45;&gt;Node3</title>
<path fill="none" stroke="midnightblue" d="M194.835,-73.6223C206.964,-80.9481 222.058,-89.6993 236,-96.7522 242.534,-100.057 249.775,-103.335 256.465,-106.214"/>
<polygon fill="midnightblue" stroke="midnightblue" points="196.563,-70.5766 186.205,-68.3497 192.913,-76.55 196.563,-70.5766"/>
</g>
<!-- Node6 -->
<g id="node6" class="node"><title>Node6</title>
<g id="a_node6"><a xlink:href="../../d4/d2f/class_lose_screen.html#a34f2cc2c803500316c9b8d854854d758" target="_top" xlink:title="LoseScreen.init">
<polygon fill="white" stroke="black" points="236,-68.2522 236,-87.2522 326,-87.2522 326,-68.2522 236,-68.2522"/>
<text text-anchor="middle" x="281" y="-75.2522" font-family="Helvetica,sans-Serif" font-size="10.00">LoseScreen.init</text>
</a>
</g>
</g>
<!-- Node2&#45;&gt;Node6 -->
<g id="edge5" class="edge"><title>Node2&#45;&gt;Node6</title>
<path fill="none" stroke="midnightblue" d="M210.106,-65.5689C218.483,-67.0291 227.389,-68.5814 235.938,-70.0717"/>
<polygon fill="midnightblue" stroke="midnightblue" points="210.663,-62.1132 200.21,-63.8439 209.46,-69.0092 210.663,-62.1132"/>
</g>
<!-- Node16 -->
<g id="node16" class="node"><title>Node16</title>
<g id="a_node16"><a xlink:href="../../d0/d4b/class_main.html#a7595d13c514a02c35aca322dd91d2063" target="_top" xlink:title="Main.start">
<polygon fill="white" stroke="black" points="248.5,-30.2522 248.5,-49.2522 313.5,-49.2522 313.5,-30.2522 248.5,-30.2522"/>
<text text-anchor="middle" x="281" y="-37.2522" font-family="Helvetica,sans-Serif" font-size="10.00">Main.start</text>
</a>
</g>
</g>
<!-- Node2&#45;&gt;Node16 -->
<g id="edge19" class="edge"><title>Node2&#45;&gt;Node16</title>
<path fill="none" stroke="midnightblue" d="M210.376,-51.8885C222.878,-49.7092 236.534,-47.3289 248.413,-45.2582"/>
<polygon fill="midnightblue" stroke="midnightblue" points="209.46,-48.4952 200.21,-53.6606 210.663,-55.3913 209.46,-48.4952"/>
</g>
<!-- Node4 -->
<g id="node4" class="node"><title>Node4</title>
<g id="a_node4"><a xlink:href="../../d6/d4f/class_item_box_world.html#a2ed12a6b39993faedc05cc682204476d" target="_top" xlink:title="ItemBoxWorld.winLevel">
<polygon fill="white" stroke="black" points="362.5,-106.252 362.5,-125.252 487.5,-125.252 487.5,-106.252 362.5,-106.252"/>
<text text-anchor="middle" x="425" y="-113.252" font-family="Helvetica,sans-Serif" font-size="10.00">ItemBoxWorld.winLevel</text>
</a>
</g>
</g>
<!-- Node3&#45;&gt;Node4 -->
<g id="edge3" class="edge"><title>Node3&#45;&gt;Node4</title>
<path fill="none" stroke="midnightblue" d="M334.34,-115.752C343.502,-115.752 353.111,-115.752 362.495,-115.752"/>
<polygon fill="midnightblue" stroke="midnightblue" points="334.22,-112.252 324.22,-115.752 334.22,-119.252 334.22,-112.252"/>
</g>
<!-- Node5 -->
<g id="node5" class="node"><title>Node5</title>
<g id="a_node5"><a xlink:href="../../d6/d4f/class_item_box_world.html#ae442d947b4dafc944336ee27628d2175" target="_top" xlink:title="ItemBoxWorld.handleKeyInput">
<polygon fill="white" stroke="black" points="524,-106.252 524,-125.252 682,-125.252 682,-106.252 524,-106.252"/>
<text text-anchor="middle" x="603" y="-113.252" font-family="Helvetica,sans-Serif" font-size="10.00">ItemBoxWorld.handleKeyInput</text>
</a>
</g>
</g>
<!-- Node4&#45;&gt;Node5 -->
<g id="edge4" class="edge"><title>Node4&#45;&gt;Node5</title>
<path fill="none" stroke="midnightblue" d="M497.568,-115.752C506.2,-115.752 515.05,-115.752 523.771,-115.752"/>
<polygon fill="midnightblue" stroke="midnightblue" points="497.556,-112.252 487.556,-115.752 497.556,-119.252 497.556,-112.252"/>
</g>
<!-- Node7 -->
<g id="node7" class="node"><title>Node7</title>
<g id="a_node7"><a xlink:href="../../db/d97/class_box_world.html#a72bacb2a6757900d8835249929fcc838" target="_top" xlink:title="BoxWorld.loseGame">
<polygon fill="white" stroke="black" points="369,-68.2522 369,-87.2522 481,-87.2522 481,-68.2522 369,-68.2522"/>
<text text-anchor="middle" x="425" y="-75.2522" font-family="Helvetica,sans-Serif" font-size="10.00">BoxWorld.loseGame</text>
</a>
</g>
</g>
<!-- Node6&#45;&gt;Node7 -->
<g id="edge6" class="edge"><title>Node6&#45;&gt;Node7</title>
<path fill="none" stroke="midnightblue" d="M336.204,-77.7522C346.898,-77.7522 358.13,-77.7522 368.855,-77.7522"/>
<polygon fill="midnightblue" stroke="midnightblue" points="336.151,-74.2523 326.151,-77.7522 336.151,-81.2523 336.151,-74.2523"/>
</g>
<!-- Node8 -->
<g id="node8" class="node"><title>Node8</title>
<g id="a_node8"><a xlink:href="../../db/d97/class_box_world.html#a4079bed8937c9f621decfbe1309e31e2" target="_top" xlink:title="BoxWorld.checkAllCollisions">
<polygon fill="white" stroke="black" points="530,-68.2522 530,-87.2522 676,-87.2522 676,-68.2522 530,-68.2522"/>
<text text-anchor="middle" x="603" y="-75.2522" font-family="Helvetica,sans-Serif" font-size="10.00">BoxWorld.checkAllCollisions</text>
</a>
</g>
</g>
<!-- Node7&#45;&gt;Node8 -->
<g id="edge7" class="edge"><title>Node7&#45;&gt;Node8</title>
<path fill="none" stroke="midnightblue" d="M491.528,-77.7522C504.027,-77.7522 517.175,-77.7522 529.868,-77.7522"/>
<polygon fill="midnightblue" stroke="midnightblue" points="491.205,-74.2523 481.205,-77.7522 491.205,-81.2523 491.205,-74.2523"/>
</g>
<!-- Node9 -->
<g id="node9" class="node"><title>Node9</title>
<g id="a_node9"><a xlink:href="../../db/d97/class_box_world.html#a6794c083c2a0263c2f585f4ae4b7e39c" target="_top" xlink:title="BoxWorld.updateSprites">
<polygon fill="white" stroke="black" points="718.5,-68.2522 718.5,-87.2522 849.5,-87.2522 849.5,-68.2522 718.5,-68.2522"/>
<text text-anchor="middle" x="784" y="-75.2522" font-family="Helvetica,sans-Serif" font-size="10.00">BoxWorld.updateSprites</text>
</a>
</g>
</g>
<!-- Node8&#45;&gt;Node9 -->
<g id="edge8" class="edge"><title>Node8&#45;&gt;Node9</title>
<path fill="none" stroke="midnightblue" d="M686.28,-77.7522C697.035,-77.7522 707.929,-77.7522 718.337,-77.7522"/>
<polygon fill="midnightblue" stroke="midnightblue" points="686.032,-74.2523 676.032,-77.7522 686.032,-81.2523 686.032,-74.2523"/>
</g>
<!-- Node10 -->
<g id="node10" class="node"><title>Node10</title>
<g id="a_node10"><a xlink:href="../../db/d97/class_box_world.html#ad20a4e43406c44f4bbf201d1d1028998" target="_top" xlink:title="BoxWorld.start">
<polygon fill="white" stroke="black" points="886,-68.2522 886,-87.2522 972,-87.2522 972,-68.2522 886,-68.2522"/>
<text text-anchor="middle" x="929" y="-75.2522" font-family="Helvetica,sans-Serif" font-size="10.00">BoxWorld.start</text>
</a>
</g>
</g>
<!-- Node9&#45;&gt;Node10 -->
<g id="edge9" class="edge"><title>Node9&#45;&gt;Node10</title>
<path fill="none" stroke="midnightblue" d="M859.898,-77.7522C868.837,-77.7522 877.705,-77.7522 885.941,-77.7522"/>
<polygon fill="midnightblue" stroke="midnightblue" points="859.806,-74.2523 849.806,-77.7522 859.806,-81.2523 859.806,-74.2523"/>
</g>
<!-- Node11 -->
<g id="node11" class="node"><title>Node11</title>
<g id="a_node11"><a xlink:href="../../d6/d4f/class_item_box_world.html#aa559fc2680327b41fb376e2eda8e82e3" target="_top" xlink:title="ItemBoxWorld.init">
<polygon fill="white" stroke="black" points="1008.5,-68.2522 1008.5,-87.2522 1107.5,-87.2522 1107.5,-68.2522 1008.5,-68.2522"/>
<text text-anchor="middle" x="1058" y="-75.2522" font-family="Helvetica,sans-Serif" font-size="10.00">ItemBoxWorld.init</text>
</a>
</g>
</g>
<!-- Node10&#45;&gt;Node11 -->
<g id="edge10" class="edge"><title>Node10&#45;&gt;Node11</title>
<path fill="none" stroke="midnightblue" d="M982.523,-77.7522C991.059,-77.7522 999.868,-77.7522 1008.31,-77.7522"/>
<polygon fill="midnightblue" stroke="midnightblue" points="982.289,-74.2523 972.289,-77.7522 982.289,-81.2523 982.289,-74.2523"/>
</g>
<!-- Node15 -->
<g id="node15" class="node"><title>Node15</title>
<g id="a_node15"><a xlink:href="../../db/d97/class_box_world.html#a55bf92d3f466bfaade0f6d199d8c9bd9" target="_top" xlink:title="BoxWorld.init">
<polygon fill="white" stroke="black" points="1616.5,-49.2522 1616.5,-68.2522 1693.5,-68.2522 1693.5,-49.2522 1616.5,-49.2522"/>
<text text-anchor="middle" x="1655" y="-56.2522" font-family="Helvetica,sans-Serif" font-size="10.00">BoxWorld.init</text>
</a>
</g>
</g>
<!-- Node10&#45;&gt;Node15 -->
<g id="edge18" class="edge"><title>Node10&#45;&gt;Node15</title>
<path fill="none" stroke="midnightblue" d="M974.481,-89.7061C985.383,-92.3255 997.062,-94.8736 1008,-96.7522 1090.33,-110.893 1111.46,-115.752 1195,-115.752 1195,-115.752 1195,-115.752 1353,-115.752 1453.79,-115.752 1570.29,-84.5192 1624.02,-68.2927"/>
<polygon fill="midnightblue" stroke="midnightblue" points="975.279,-86.2981 964.731,-87.2977 973.6,-93.0938 975.279,-86.2981"/>
</g>
<!-- Node12 -->
<g id="node12" class="node"><title>Node12</title>
<g id="a_node12"><a xlink:href="../../db/d97/class_box_world.html#aad670712776afe126e51791097027e05" target="_top" xlink:title="BoxWorld.winLevel">
<polygon fill="white" stroke="black" points="1144.5,-30.2522 1144.5,-49.2522 1247.5,-49.2522 1247.5,-30.2522 1144.5,-30.2522"/>
<text text-anchor="middle" x="1196" y="-37.2522" font-family="Helvetica,sans-Serif" font-size="10.00">BoxWorld.winLevel</text>
</a>
</g>
</g>
<!-- Node11&#45;&gt;Node12 -->
<g id="edge11" class="edge"><title>Node11&#45;&gt;Node12</title>
<path fill="none" stroke="midnightblue" d="M1103.09,-65.4339C1121.77,-60.2129 1143.22,-54.2206 1160.69,-49.3382"/>
<polygon fill="midnightblue" stroke="midnightblue" points="1102.01,-62.1012 1093.32,-68.1632 1103.89,-68.843 1102.01,-62.1012"/>
</g>
<!-- Node12&#45;&gt;Node8 -->
<g id="edge12" class="edge"><title>Node12&#45;&gt;Node8</title>
<path fill="none" stroke="midnightblue" d="M1134.26,-39.7394C1043.46,-40.27 867.043,-43.4246 718,-58.7522 696.544,-60.9588 673.005,-64.6625 652.917,-68.217"/>
<polygon fill="midnightblue" stroke="midnightblue" points="1134.39,-43.2389 1144.37,-39.6892 1134.36,-36.239 1134.39,-43.2389"/>
</g>
<!-- Node13 -->
<g id="node13" class="node"><title>Node13</title>
<g id="a_node13"><a xlink:href="../../db/d97/class_box_world.html#aa7e2049d7be23e15fd2ec7fa2922ed79" target="_top" xlink:title="BoxWorld.handleKeyInput">
<polygon fill="white" stroke="black" points="1284,-30.2522 1284,-49.2522 1420,-49.2522 1420,-30.2522 1284,-30.2522"/>
<text text-anchor="middle" x="1352" y="-37.2522" font-family="Helvetica,sans-Serif" font-size="10.00">BoxWorld.handleKeyInput</text>
</a>
</g>
</g>
<!-- Node12&#45;&gt;Node13 -->
<g id="edge13" class="edge"><title>Node12&#45;&gt;Node13</title>
<path fill="none" stroke="midnightblue" d="M1258.08,-39.7522C1266.59,-39.7522 1275.38,-39.7522 1284,-39.7522"/>
<polygon fill="midnightblue" stroke="midnightblue" points="1257.85,-36.2523 1247.85,-39.7522 1257.85,-43.2523 1257.85,-36.2523"/>
</g>
<!-- Node14 -->
<g id="node14" class="node"><title>Node14</title>
<g id="a_node14"><a xlink:href="../../db/d97/class_box_world.html#a726e747e023543658d7a345cc6466ccb" target="_top" xlink:title="BoxWorld.createScene">
<polygon fill="white" stroke="black" points="1456,-49.2522 1456,-68.2522 1580,-68.2522 1580,-49.2522 1456,-49.2522"/>
<text text-anchor="middle" x="1518" y="-56.2522" font-family="Helvetica,sans-Serif" font-size="10.00">BoxWorld.createScene</text>
</a>
</g>
</g>
<!-- Node13&#45;&gt;Node14 -->
<g id="edge14" class="edge"><title>Node13&#45;&gt;Node14</title>
<path fill="none" stroke="midnightblue" d="M1430.26,-48.7028C1438.89,-49.7031 1447.6,-50.7115 1455.99,-51.6834"/>
<polygon fill="midnightblue" stroke="midnightblue" points="1430.51,-45.2092 1420.18,-47.5351 1429.71,-52.1627 1430.51,-45.2092"/>
</g>
<!-- Node14&#45;&gt;Node11 -->
<g id="edge15" class="edge"><title>Node14&#45;&gt;Node11</title>
<path fill="none" stroke="midnightblue" d="M1445.92,-61.701C1351.9,-65.6014 1188.66,-72.3735 1107.58,-75.7369"/>
<polygon fill="midnightblue" stroke="midnightblue" points="1446.07,-65.198 1455.91,-61.2864 1445.78,-58.204 1446.07,-65.198"/>
</g>
<!-- Node14&#45;&gt;Node15 -->
<g id="edge16" class="edge"><title>Node14&#45;&gt;Node15</title>
<path fill="none" stroke="midnightblue" d="M1590.28,-58.7522C1599.23,-58.7522 1608.08,-58.7522 1616.22,-58.7522"/>
<polygon fill="midnightblue" stroke="midnightblue" points="1590.18,-55.2523 1580.18,-58.7522 1590.18,-62.2523 1590.18,-55.2523"/>
</g>
<!-- Node15&#45;&gt;Node2 -->
<g id="edge17" class="edge"><title>Node15&#45;&gt;Node2</title>
<path fill="none" stroke="midnightblue" d="M1614.3,-46.3184C1557.15,-29.5473 1448.08,-1.75222 1353,-1.75222 424,-1.75222 424,-1.75222 424,-1.75222 340.019,-1.75222 315.852,5.25665 236,-20.7522 216.362,-27.1485 196.205,-40.1243 183.65,-49.1216"/>
<polygon fill="midnightblue" stroke="midnightblue" points="1613.44,-49.7131 1624.02,-49.2117 1615.44,-43.0041 1613.44,-49.7131"/>
</g>
</g>
</svg>
