<?xml version="1.0" encoding="UTF-8" standalone="no"?>
<!DOCTYPE svg PUBLIC "-//W3C//DTD SVG 1.1//EN"
 "http://www.w3.org/Graphics/SVG/1.1/DTD/svg11.dtd">
<!-- Generated by graphviz version 2.36.0 (20140111.2315)
 -->
<!-- Title: Menu.addIntroText Pages: 1 -->
<svg width="1698pt" height="134pt"
 viewBox="0.00 0.00 1698.00 133.87" xmlns="http://www.w3.org/2000/svg" xmlns:xlink="http://www.w3.org/1999/xlink">
<g id="graph0" class="graph" transform="scale(1 1) rotate(0) translate(4 129.868)">
<title>Menu.addIntroText</title>
<polygon fill="white" stroke="none" points="-4,4 -4,-129.868 1694,-129.868 1694,4 -4,4"/>
<!-- Node1 -->
<g id="node1" class="node"><title>Node1</title>
<polygon fill="#bfbfbf" stroke="black" points="0,-49.3679 0,-68.3679 104,-68.3679 104,-49.3679 0,-49.3679"/>
<text text-anchor="middle" x="52" y="-56.3679" font-family="Helvetica,sans-Serif" font-size="10.00">Menu.addIntroText</text>
</g>
<!-- Node2 -->
<g id="node2" class="node"><title>Node2</title>
<g id="a_node2"><a xlink:href="../../d2/db8/class_menu.html#a3c99ad09e9f2f975c1a0d0597642651a" target="_top" xlink:title="Menu.init">
<polygon fill="white" stroke="black" points="140,-49.3679 140,-68.3679 200,-68.3679 200,-49.3679 140,-49.3679"/>
<text text-anchor="middle" x="170" y="-56.3679" font-family="Helvetica,sans-Serif" font-size="10.00">Menu.init</text>
</a>
</g>
</g>
<!-- Node1&#45;&gt;Node2 -->
<g id="edge1" class="edge"><title>Node1&#45;&gt;Node2</title>
<path fill="none" stroke="midnightblue" d="M114.32,-58.8679C123.27,-58.8679 132.113,-58.8679 139.995,-58.8679"/>
<polygon fill="midnightblue" stroke="midnightblue" points="114.217,-55.368 104.217,-58.8679 114.217,-62.368 114.217,-55.368"/>
</g>
<!-- Node3 -->
<g id="node3" class="node"><title>Node3</title>
<g id="a_node3"><a xlink:href="../../d1/de1/class_end_screen.html#a1264ffb72b3a3032443f9c4087222aef" target="_top" xlink:title="EndScreen.init">
<polygon fill="white" stroke="black" points="238,-106.368 238,-125.368 324,-125.368 324,-106.368 238,-106.368"/>
<text text-anchor="middle" x="281" y="-113.368" font-family="Helvetica,sans-Serif" font-size="10.00">EndScreen.init</text>
</a>
</g>
</g>
<!-- Node2&#45;&gt;Node3 -->
<g id="edge2" class="edge"><title>Node2&#45;&gt;Node3</title>
<path fill="none" stroke="midnightblue" d="M194.835,-73.738C206.964,-81.0638 222.058,-89.815 236,-96.8679 242.534,-100.173 249.775,-103.451 256.465,-106.33"/>
<polygon fill="midnightblue" stroke="midnightblue" points="196.563,-70.6923 186.205,-68.4654 192.913,-76.6657 196.563,-70.6923"/>
</g>
<!-- Node5 -->
<g id="node5" class="node"><title>Node5</title>
<g id="a_node5"><a xlink:href="../../d4/d2f/class_lose_screen.html#a34f2cc2c803500316c9b8d854854d758" target="_top" xlink:title="LoseScreen.init">
<polygon fill="white" stroke="black" points="236,-68.3679 236,-87.3679 326,-87.3679 326,-68.3679 236,-68.3679"/>
<text text-anchor="middle" x="281" y="-75.3679" font-family="Helvetica,sans-Serif" font-size="10.00">LoseScreen.init</text>
</a>
</g>
</g>
<!-- Node2&#45;&gt;Node5 -->
<g id="edge4" class="edge"><title>Node2&#45;&gt;Node5</title>
<path fill="none" stroke="midnightblue" d="M210.106,-65.6846C218.483,-67.1448 227.389,-68.6971 235.938,-70.1874"/>
<polygon fill="midnightblue" stroke="midnightblue" points="210.663,-62.2289 200.21,-63.9596 209.46,-69.1249 210.663,-62.2289"/>
</g>
<!-- Node16 -->
<g id="node16" class="node"><title>Node16</title>
<g id="a_node16"><a xlink:href="../../d0/d4b/class_main.html#a7595d13c514a02c35aca322dd91d2063" target="_top" xlink:title="Main.start">
<polygon fill="white" stroke="black" points="248.5,-30.3679 248.5,-49.3679 313.5,-49.3679 313.5,-30.3679 248.5,-30.3679"/>
<text text-anchor="middle" x="281" y="-37.3679" font-family="Helvetica,sans-Serif" font-size="10.00">Main.start</text>
</a>
</g>
</g>
<!-- Node2&#45;&gt;Node16 -->
<g id="edge19" class="edge"><title>Node2&#45;&gt;Node16</title>
<path fill="none" stroke="midnightblue" d="M210.376,-52.0042C222.878,-49.8249 236.534,-47.4446 248.413,-45.3739"/>
<polygon fill="midnightblue" stroke="midnightblue" points="209.46,-48.611 200.21,-53.7763 210.663,-55.507 209.46,-48.611"/>
</g>
<!-- Node4 -->
<g id="node4" class="node"><title>Node4</title>
<g id="a_node4"><a xlink:href="../../d6/d4f/class_item_box_world.html#a2ed12a6b39993faedc05cc682204476d" target="_top" xlink:title="ItemBoxWorld.winLevel">
<polygon fill="white" stroke="black" points="366.5,-106.368 366.5,-125.368 491.5,-125.368 491.5,-106.368 366.5,-106.368"/>
<text text-anchor="middle" x="429" y="-113.368" font-family="Helvetica,sans-Serif" font-size="10.00">ItemBoxWorld.winLevel</text>
</a>
</g>
</g>
<!-- Node3&#45;&gt;Node4 -->
<g id="edge3" class="edge"><title>Node3&#45;&gt;Node4</title>
<path fill="none" stroke="midnightblue" d="M334.353,-115.868C344.713,-115.868 355.678,-115.868 366.314,-115.868"/>
<polygon fill="midnightblue" stroke="midnightblue" points="334.229,-112.368 324.229,-115.868 334.229,-119.368 334.229,-112.368"/>
</g>
<!-- Node6 -->
<g id="node6" class="node"><title>Node6</title>
<g id="a_node6"><a xlink:href="../../d6/d4f/class_item_box_world.html#a295cf7212ad54fa599e2a2d85ee0523d" target="_top" xlink:title="ItemBoxWorld.loseGame">
<polygon fill="white" stroke="black" points="362,-68.3679 362,-87.3679 496,-87.3679 496,-68.3679 362,-68.3679"/>
<text text-anchor="middle" x="429" y="-75.3679" font-family="Helvetica,sans-Serif" font-size="10.00">ItemBoxWorld.loseGame</text>
</a>
</g>
</g>
<!-- Node5&#45;&gt;Node6 -->
<g id="edge5" class="edge"><title>Node5&#45;&gt;Node6</title>
<path fill="none" stroke="midnightblue" d="M336.47,-77.8679C344.748,-77.8679 353.366,-77.8679 361.86,-77.8679"/>
<polygon fill="midnightblue" stroke="midnightblue" points="336.201,-74.368 326.201,-77.8679 336.201,-81.368 336.201,-74.368"/>
</g>
<!-- Node7 -->
<g id="node7" class="node"><title>Node7</title>
<g id="a_node7"><a xlink:href="../../db/d97/class_box_world.html#a72bacb2a6757900d8835249929fcc838" target="_top" xlink:title="BoxWorld.loseGame">
<polygon fill="white" stroke="black" points="373,-30.3679 373,-49.3679 485,-49.3679 485,-30.3679 373,-30.3679"/>
<text text-anchor="middle" x="429" y="-37.3679" font-family="Helvetica,sans-Serif" font-size="10.00">BoxWorld.loseGame</text>
</a>
</g>
</g>
<!-- Node5&#45;&gt;Node7 -->
<g id="edge6" class="edge"><title>Node5&#45;&gt;Node7</title>
<path fill="none" stroke="midnightblue" d="M328.536,-65.7558C348.87,-60.4635 372.371,-54.3466 391.423,-49.388"/>
<polygon fill="midnightblue" stroke="midnightblue" points="327.638,-62.3729 318.842,-68.2789 329.401,-69.1472 327.638,-62.3729"/>
</g>
<!-- Node8 -->
<g id="node8" class="node"><title>Node8</title>
<g id="a_node8"><a xlink:href="../../db/d97/class_box_world.html#a4079bed8937c9f621decfbe1309e31e2" target="_top" xlink:title="BoxWorld.checkAllCollisions">
<polygon fill="white" stroke="black" points="532,-30.3679 532,-49.3679 678,-49.3679 678,-30.3679 532,-30.3679"/>
<text text-anchor="middle" x="605" y="-37.3679" font-family="Helvetica,sans-Serif" font-size="10.00">BoxWorld.checkAllCollisions</text>
</a>
</g>
</g>
<!-- Node7&#45;&gt;Node8 -->
<g id="edge7" class="edge"><title>Node7&#45;&gt;Node8</title>
<path fill="none" stroke="midnightblue" d="M495.335,-39.8679C507.23,-39.8679 519.702,-39.8679 531.783,-39.8679"/>
<polygon fill="midnightblue" stroke="midnightblue" points="495.055,-36.368 485.055,-39.8679 495.055,-43.368 495.055,-36.368"/>
</g>
<!-- Node9 -->
<g id="node9" class="node"><title>Node9</title>
<g id="a_node9"><a xlink:href="../../db/d97/class_box_world.html#a6794c083c2a0263c2f585f4ae4b7e39c" target="_top" xlink:title="BoxWorld.updateSprites">
<polygon fill="white" stroke="black" points="714.5,-68.3679 714.5,-87.3679 845.5,-87.3679 845.5,-68.3679 714.5,-68.3679"/>
<text text-anchor="middle" x="780" y="-75.3679" font-family="Helvetica,sans-Serif" font-size="10.00">BoxWorld.updateSprites</text>
</a>
</g>
</g>
<!-- Node8&#45;&gt;Node9 -->
<g id="edge8" class="edge"><title>Node8&#45;&gt;Node9</title>
<path fill="none" stroke="midnightblue" d="M659.505,-51.6205C683.967,-56.9937 712.571,-63.2765 735.659,-68.3479"/>
<polygon fill="midnightblue" stroke="midnightblue" points="660.173,-48.1839 649.655,-49.4569 658.671,-55.0209 660.173,-48.1839"/>
</g>
<!-- Node10 -->
<g id="node10" class="node"><title>Node10</title>
<g id="a_node10"><a xlink:href="../../db/d97/class_box_world.html#ad20a4e43406c44f4bbf201d1d1028998" target="_top" xlink:title="BoxWorld.start">
<polygon fill="white" stroke="black" points="882,-68.3679 882,-87.3679 968,-87.3679 968,-68.3679 882,-68.3679"/>
<text text-anchor="middle" x="925" y="-75.3679" font-family="Helvetica,sans-Serif" font-size="10.00">BoxWorld.start</text>
</a>
</g>
</g>
<!-- Node9&#45;&gt;Node10 -->
<g id="edge9" class="edge"><title>Node9&#45;&gt;Node10</title>
<path fill="none" stroke="midnightblue" d="M855.898,-77.8679C864.837,-77.8679 873.705,-77.8679 881.941,-77.8679"/>
<polygon fill="midnightblue" stroke="midnightblue" points="855.806,-74.368 845.806,-77.8679 855.806,-81.368 855.806,-74.368"/>
</g>
<!-- Node11 -->
<g id="node11" class="node"><title>Node11</title>
<g id="a_node11"><a xlink:href="../../d6/d4f/class_item_box_world.html#aa559fc2680327b41fb376e2eda8e82e3" target="_top" xlink:title="ItemBoxWorld.init">
<polygon fill="white" stroke="black" points="1004.5,-68.3679 1004.5,-87.3679 1103.5,-87.3679 1103.5,-68.3679 1004.5,-68.3679"/>
<text text-anchor="middle" x="1054" y="-75.3679" font-family="Helvetica,sans-Serif" font-size="10.00">ItemBoxWorld.init</text>
</a>
</g>
</g>
<!-- Node10&#45;&gt;Node11 -->
<g id="edge10" class="edge"><title>Node10&#45;&gt;Node11</title>
<path fill="none" stroke="midnightblue" d="M978.523,-77.8679C987.059,-77.8679 995.868,-77.8679 1004.31,-77.8679"/>
<polygon fill="midnightblue" stroke="midnightblue" points="978.289,-74.368 968.289,-77.8679 978.289,-81.368 978.289,-74.368"/>
</g>
<!-- Node15 -->
<g id="node15" class="node"><title>Node15</title>
<g id="a_node15"><a xlink:href="../../db/d97/class_box_world.html#a55bf92d3f466bfaade0f6d199d8c9bd9" target="_top" xlink:title="BoxWorld.init">
<polygon fill="white" stroke="black" points="1612.5,-49.3679 1612.5,-68.3679 1689.5,-68.3679 1689.5,-49.3679 1612.5,-49.3679"/>
<text text-anchor="middle" x="1651" y="-56.3679" font-family="Helvetica,sans-Serif" font-size="10.00">BoxWorld.init</text>
</a>
</g>
</g>
<!-- Node10&#45;&gt;Node15 -->
<g id="edge18" class="edge"><title>Node10&#45;&gt;Node15</title>
<path fill="none" stroke="midnightblue" d="M970.481,-89.8218C981.383,-92.4412 993.062,-94.9893 1004,-96.8679 1086.33,-111.009 1107.46,-115.868 1191,-115.868 1191,-115.868 1191,-115.868 1349,-115.868 1449.79,-115.868 1566.29,-84.635 1620.02,-68.4084"/>
<polygon fill="midnightblue" stroke="midnightblue" points="971.279,-86.4138 960.731,-87.4134 969.6,-93.2095 971.279,-86.4138"/>
</g>
<!-- Node12 -->
<g id="node12" class="node"><title>Node12</title>
<g id="a_node12"><a xlink:href="../../db/d97/class_box_world.html#aad670712776afe126e51791097027e05" target="_top" xlink:title="BoxWorld.winLevel">
<polygon fill="white" stroke="black" points="1140.5,-30.3679 1140.5,-49.3679 1243.5,-49.3679 1243.5,-30.3679 1140.5,-30.3679"/>
<text text-anchor="middle" x="1192" y="-37.3679" font-family="Helvetica,sans-Serif" font-size="10.00">BoxWorld.winLevel</text>
</a>
</g>
</g>
<!-- Node11&#45;&gt;Node12 -->
<g id="edge11" class="edge"><title>Node11&#45;&gt;Node12</title>
<path fill="none" stroke="midnightblue" d="M1099.09,-65.5496C1117.77,-60.3286 1139.22,-54.3363 1156.69,-49.4539"/>
<polygon fill="midnightblue" stroke="midnightblue" points="1098.01,-62.2169 1089.32,-68.2789 1099.89,-68.9587 1098.01,-62.2169"/>
</g>
<!-- Node12&#45;&gt;Node8 -->
<g id="edge12" class="edge"><title>Node12&#45;&gt;Node8</title>
<path fill="none" stroke="midnightblue" d="M1130.05,-39.8679C1021.29,-39.8679 794.297,-39.8679 678.026,-39.8679"/>
<polygon fill="midnightblue" stroke="midnightblue" points="1130.2,-43.368 1140.2,-39.8679 1130.2,-36.368 1130.2,-43.368"/>
</g>
<!-- Node13 -->
<g id="node13" class="node"><title>Node13</title>
<g id="a_node13"><a xlink:href="../../db/d97/class_box_world.html#aa7e2049d7be23e15fd2ec7fa2922ed79" target="_top" xlink:title="BoxWorld.handleKeyInput">
<polygon fill="white" stroke="black" points="1280,-30.3679 1280,-49.3679 1416,-49.3679 1416,-30.3679 1280,-30.3679"/>
<text text-anchor="middle" x="1348" y="-37.3679" font-family="Helvetica,sans-Serif" font-size="10.00">BoxWorld.handleKeyInput</text>
</a>
</g>
</g>
<!-- Node12&#45;&gt;Node13 -->
<g id="edge13" class="edge"><title>Node12&#45;&gt;Node13</title>
<path fill="none" stroke="midnightblue" d="M1254.08,-39.8679C1262.59,-39.8679 1271.38,-39.8679 1280,-39.8679"/>
<polygon fill="midnightblue" stroke="midnightblue" points="1253.85,-36.368 1243.85,-39.8679 1253.85,-43.368 1253.85,-36.368"/>
</g>
<!-- Node14 -->
<g id="node14" class="node"><title>Node14</title>
<g id="a_node14"><a xlink:href="../../db/d97/class_box_world.html#a726e747e023543658d7a345cc6466ccb" target="_top" xlink:title="BoxWorld.createScene">
<polygon fill="white" stroke="black" points="1452,-49.3679 1452,-68.3679 1576,-68.3679 1576,-49.3679 1452,-49.3679"/>
<text text-anchor="middle" x="1514" y="-56.3679" font-family="Helvetica,sans-Serif" font-size="10.00">BoxWorld.createScene</text>
</a>
</g>
</g>
<!-- Node13&#45;&gt;Node14 -->
<g id="edge14" class="edge"><title>Node13&#45;&gt;Node14</title>
<path fill="none" stroke="midnightblue" d="M1426.26,-48.8186C1434.89,-49.8188 1443.6,-50.8272 1451.99,-51.7991"/>
<polygon fill="midnightblue" stroke="midnightblue" points="1426.51,-45.325 1416.18,-47.6508 1425.71,-52.2784 1426.51,-45.325"/>
</g>
<!-- Node14&#45;&gt;Node11 -->
<g id="edge15" class="edge"><title>Node14&#45;&gt;Node11</title>
<path fill="none" stroke="midnightblue" d="M1441.92,-61.8168C1347.9,-65.7171 1184.66,-72.4892 1103.58,-75.8526"/>
<polygon fill="midnightblue" stroke="midnightblue" points="1442.07,-65.3137 1451.91,-61.4021 1441.78,-58.3197 1442.07,-65.3137"/>
</g>
<!-- Node14&#45;&gt;Node15 -->
<g id="edge16" class="edge"><title>Node14&#45;&gt;Node15</title>
<path fill="none" stroke="midnightblue" d="M1586.28,-58.8679C1595.23,-58.8679 1604.08,-58.8679 1612.22,-58.8679"/>
<polygon fill="midnightblue" stroke="midnightblue" points="1586.18,-55.368 1576.18,-58.8679 1586.18,-62.368 1586.18,-55.368"/>
</g>
<!-- Node15&#45;&gt;Node2 -->
<g id="edge17" class="edge"><title>Node15&#45;&gt;Node2</title>
<path fill="none" stroke="midnightblue" d="M1610.3,-46.4341C1553.15,-29.663 1444.08,-1.86793 1349,-1.86793 428,-1.86793 428,-1.86793 428,-1.86793 342.25,-1.86793 317.562,5.60378 236,-20.8679 216.356,-27.2437 196.2,-40.2244 183.647,-49.2283"/>
<polygon fill="midnightblue" stroke="midnightblue" points="1609.44,-49.8288 1620.02,-49.3274 1611.44,-43.1198 1609.44,-49.8288"/>
</g>
</g>
</svg>
